<svg height="512pt" viewBox="0 -28 512 512" width="512pt" xmlns="http://www.w3.org/2000/svg"><path d="m512 0h-256l-20.015625 126.324219 276.015625-20.015625zm0 0" fill="#bd914f"/><path d="m31.894531 0v106.308594l224.105469 20.015625v-126.324219zm0 0" fill="#edc472"/><path d="m512 106.308594h-256l-20.015625 174.855468 20.015625 174.851563h256zm0 0" fill="#edc472"/><path d="m213.476562 106.308594-21.261718-42.523438h-192.214844v392.230469h256v-349.707031zm0 0" fill="#fcf2b6"/><path d="m341.496094 281.164062c0 18.164063-5.710938 35.011719-15.40625 48.875l-70.089844-70.089843-10.007812 15.726562 10.007812 26.699219 48.875 48.875c-13.863281 9.699219-30.710938 15.410156-48.875 15.410156l-10.007812 15.679688 10.007812 14.320312c63.6875 0 115.496094-51.8125 115.496094-115.5 0-63.683594-51.808594-115.496094-115.496094-115.496094l-10.007812 16.011719 10.007812 13.988281c47.144531 0 85.496094 38.355469 85.496094 85.5zm0 0" fill="#e30000"/><path d="m140.503906 281.164062c0 63.683594 51.8125 115.496094 115.496094 115.496094v-30c-47.144531 0-85.496094-38.355468-85.496094-85.496094 0-18.167968 5.710938-35.011718 15.40625-48.875l70.089844 70.085938v-42.425781l-48.875-48.875c13.863281-9.695313 30.710938-15.410157 48.875-15.410157v-30c-63.6875 0-115.496094 51.8125-115.496094 115.5zm0 0" fill="#ff4a4a"/></svg>