<svg height="512pt" viewBox="0 0 512 512.00512" width="512pt" xmlns="http://www.w3.org/2000/svg"><path d="m323.703125 302.484375 83.933594 83.933594-21.210938 21.214843-83.933593-83.933593zm0 0" fill="#04303e"/><path d="m332.222656 57c-76-76-199.21875-76-275.21875 0l100.664063 171.332031 174.554687 103.886719c76-76 76-199.21875 0-275.21875zm0 0" fill="#00465f"/><path d="m57.003906 332.21875c76 76 199.21875 76 275.21875 0l-275.21875-275.21875c-76 76-76 199.21875 0 275.21875zm0 0" fill="#007a9f"/><path d="m296.160156 93.0625c-27.125-27.125-63.1875-42.0625-101.546875-42.0625s-74.421875 14.9375-101.546875 42.0625l73.046875 130.046875 130.046875 73.046875c55.992188-55.992188 55.992188-147.101562 0-203.09375zm0 0" fill="#9ee2f8"/><path d="m93.066406 296.15625c27.121094 27.125 63.1875 42.0625 101.546875 42.0625s74.421875-14.9375 101.546875-42.0625l-203.09375-203.09375c-55.996094 55.992188-55.996094 147.101562 0 203.09375zm0 0" fill="#bbfff7"/><path d="m398.335938 330.882812-33.726563 33.726563 47.046875 73.597656 66.621094 40.066407 33.726562-33.726563zm0 0" fill="#00465f"/><path d="m444.546875 512.003906-113.664063-113.664062 33.726563-33.726563 113.664063 113.664063zm0 0" fill="#007a9f"/></svg>