<svg height="512pt" viewBox="-101 0 512 512" width="512pt" xmlns="http://www.w3.org/2000/svg"><path d="m155.007812 512h155.003907v-127.570312l-175.023438-20.015626zm0 0" fill="#b4d2d7"/><path d="m0 384.429688v127.570312h155.007812v-147.585938zm0 0" fill="#e1ebf0"/><path d="m155.007812 0-20.019531 83.800781 175.023438-20.015625v-63.785156zm0 0" fill="#b4d2d7"/><path d="m155.007812 0h-155.007812v63.785156l155.007812 20.015625zm0 0" fill="#e1ebf0"/><path d="m155.007812 384.429688h155.003907v-320.644532h-155.003907l-20.019531 160.320313zm0 0" fill="#04303e"/><path d="m0 63.785156h155.007812v320.644532h-155.007812zm0 0" fill="#09607d"/><path d="m133.742188 433.214844h42.523437v30h-42.523437zm0 0" fill="#607882"/><path d="m155.007812 117.835938-10.011718 15.496093 10.011718 14.503907c42.054688 0 76.269532 34.214843 76.269532 76.269531 0 15.617187-4.726563 30.148437-12.808594 42.25l-63.460938-63.460938-10.011718 14.769531 10.011718 27.65625 42.25 42.25c-12.105468 8.085938-26.636718 12.808594-42.25 12.808594l-10.011718 14.289063 10.011718 15.710937c58.597657 0 106.269532-47.675781 106.269532-106.273437 0-58.597657-47.671875-106.269531-106.269532-106.269531zm0 0" fill="#ff4a4a"/><path d="m78.734375 224.105469c0-15.613281 4.726563-30.144531 12.808594-42.246094l63.464843 63.460937v-42.425781l-42.25-42.25c12.101563-8.085937 26.632813-12.808593 42.25-12.808593v-30c-58.601562 0-106.273437 47.671874-106.273437 106.269531 0 58.597656 47.671875 106.273437 106.273437 106.273437v-30c-42.058593 0-76.273437-34.214844-76.273437-76.273437zm0 0" fill="#ff8859"/></svg>