<svg height="511pt" viewBox="-71 1 511 511.99998" width="511pt" xmlns="http://www.w3.org/2000/svg"><path d="m185.203125 0-20.015625 32.332031 20.015625 31.402344c43.253906 0 78.441406 35.191406 78.441406 78.445313v97.484374l30.558594 32.003907 33.175781-32.003907v-97.484374c0-78.398438-63.78125-142.179688-142.175781-142.179688zm0 0" fill="#b4d2d7"/><path d="m43.023438 142.179688v97.484374l30.511718 32 33.222656-32v-97.484374c0-43.253907 35.191407-78.445313 78.445313-78.445313v-63.734375c-78.398437 0-142.179687 63.78125-142.179687 142.179688zm0 0" fill="#e1ebf0"/><path d="m.5 239.664062h184.703125v272.335938h-184.703125zm0 0" fill="#ffd422"/><path d="m185.203125 239.664062h184.699219v272.335938h-184.699219zm0 0" fill="#ff9100"/><path d="m170.203125 382.550781h30v58.472657h-30zm0 0" fill="#04303e"/><path d="m229.910156 355.351562c0-24.652343-20.054687-44.707031-44.707031-44.707031l-20.015625 44.183594 20.015625 45.230469c24.652344 0 44.707031-20.054688 44.707031-44.707032zm0 0" fill="#04303e"/><path d="m140.492188 355.351562c0 24.652344 20.058593 44.707032 44.710937 44.707032v-89.414063c-24.652344 0-44.710937 20.054688-44.710937 44.707031zm0 0" fill="#09607d"/></svg>