<svg height="512pt" viewBox="-63 0 511 512" width="512pt" xmlns="http://www.w3.org/2000/svg"><path d="m353.035156 0h-160.320312l-30.023438 221.378906 190.34375-30.023437zm0 0" fill="#efe2dd"/><path d="m32.394531 0v191.355469l160.320313 30.023437v-221.378906zm0 0" fill="#fff5f5"/><path d="m384.929688 191.355469-212.230469 20.015625 20.015625 300.628906h192.214844zm0 0" fill="#edc472"/><path d="m.5 191.355469v320.644531h192.214844v-300.628906zm0 0" fill="#fcf2b6"/><path d="m.5 191.355469 63.785156 63.785156h128.429688v-63.785156zm0 0" fill="#edc472"/><path d="m384.929688 191.355469h-192.214844v63.785156h128.429687zm0 0" fill="#bd914f"/><path d="m242.410156 383.570312c0 8.246094-2.03125 16.027344-5.601562 22.878907l-44.09375-44.089844-10.007813 16.640625 10.007813 25.785156 22.878906 22.878906c-6.855469 3.570313-14.632812 5.601563-22.878906 5.601563l-10.007813 16.402344 10.007813 13.597656c43.941406 0 79.695312-35.75 79.695312-79.695313 0-43.941406-35.753906-79.691406-79.695312-79.691406l-10.007813 15.121094 10.007813 14.875c27.402344 0 49.695312 22.292969 49.695312 49.695312zm0 0" fill="#e30000"/><path d="m113.019531 383.570312c0 43.945313 35.753907 79.695313 79.695313 79.695313v-30c-27.402344 0-49.695313-22.292969-49.695313-49.695313 0-8.25 2.03125-16.023437 5.601563-22.878906l44.09375 44.09375v-42.425781l-22.878906-22.882813c6.851562-3.570312 14.632812-5.601562 22.878906-5.601562v-30c-43.941406 0-79.695313 35.75-79.695313 79.695312zm0 0" fill="#ff4a4a"/><path d="m305.195312 48.785156h-112.480468l-10.007813 15 10.007813 15h112.480468zm0 0" fill="#9b9696"/><path d="m305.195312 142.570312v-30h-112.480468l-10.007813 15 10.007813 15zm0 0" fill="#9b9696"/><g fill="#cdbfba"><path d="m80.234375 48.785156h112.480469v30h-112.480469zm0 0"/><path d="m80.234375 112.570312h112.480469v30h-112.480469zm0 0"/></g></svg>