<svg height="512pt" viewBox="-42 0 511 512" width="512pt" xmlns="http://www.w3.org/2000/svg"><path d="m427.621094 0-233.578125 20.015625v471.96875l233.578125 20.015625zm0 0" fill="#edc472"/><path d="m.5 0v512l213.558594-20.015625v-471.96875zm0 0" fill="#fcf2b6"/><path d="m427.621094 0h-213.5625l-20.015625 47.839844 20.015625 47.839844h149.777344zm0 0" fill="#bd914f"/><path d="m363.835938 416.320312h-149.777344l-20.015625 47.839844 20.015625 47.839844h213.5625zm0 0" fill="#bd914f"/><path d="m.5 0 63.785156 95.679688h149.773438v-95.679688zm0 0" fill="#edc472"/><path d="m64.285156 416.320312-63.785156 95.679688h213.558594v-95.679688zm0 0" fill="#edc472"/><path d="m199.058594 47.839844h30v111.625h-30zm0 0" fill="#04303e"/><path d="m261.898438 144.464844h-47.839844l-10.007813 15 10.007813 15h47.839844zm0 0" fill="#04303e"/><path d="m166.222656 144.464844h47.835938v30h-47.835938zm0 0" fill="#09607d"/></svg>