<svg height="512pt" viewBox="0 -16 512 512" width="512pt" xmlns="http://www.w3.org/2000/svg"><path d="m192.214844 0h-63.785156l-20.015626 83.800781 83.800782-20.015625zm0 0" fill="#b4d2d7"/><path d="m63.785156 0v63.785156l64.644532 20.015625v-83.800781zm0 0" fill="#e1ebf0"/><path d="m256.859375 448.214844h191.355469v-176.269532h63.785156v-176.265624h-255.140625l-20.015625 176.265624zm0 0" fill="#09607d"/><g fill="#04303e"><path d="m305.644531 143.515625h30v53.15625h-30zm0 0"/><path d="m369.429688 143.515625h30v53.15625h-30zm0 0"/><path d="m305.644531 347.222656h30v53.152344h-30zm0 0"/><path d="m369.429688 347.222656h30v53.152344h-30zm0 0"/><path d="m433.214844 143.515625h30v53.15625h-30zm0 0"/></g><path d="m128.429688 480.109375h128.429687v-63.789063l-148.445313-20.015624zm0 0" fill="#87a0af"/><path d="m128.429688 63.785156-20.015626 83.800782 148.445313-20.015626v-63.785156zm0 0" fill="#87a0af"/><path d="m0 416.320312v63.789063h128.429688v-83.804687zm0 0" fill="#b4d2d7"/><path d="m128.429688 63.785156h-128.429688v63.785156l128.429688 20.015626zm0 0" fill="#b4d2d7"/><path d="m128.429688 416.320312h128.429687v-288.75h-128.429687l-20.015626 138.574219zm0 0" fill="#04303e"/><path d="m0 127.570312h128.429688v288.75h-128.429688zm0 0" fill="#09607d"/></svg>