<svg height="512pt" viewBox="0 0 512.00081 512" width="512pt" xmlns="http://www.w3.org/2000/svg"><path d="m465.710938 403.988281-61.722657 30.859375 77.152344 46.292969 30.859375-30.859375zm0 0" fill="#e30000"/><path d="m403.988281 465.710938 46.292969 46.289062 30.859375-30.859375-57.820313-57.820313zm0 0" fill="#ff4a4a"/><path d="m434.847656 434.847656 54.007813-54.003906-46.292969-46.292969-98.230469 54.007813zm0 0" fill="#ff4a4a"/><path d="m371.980469 371.976562-37.429688 70.585938 46.292969 46.292969 54.003906-54.007813zm0 0" fill="#ff8859"/><path d="m388.558594 388.558594 54.003906-54.007813-142.453125-142.457031 8.601563-85.753906-60.050782-60.046875-140.992187 101.183593zm0 0" fill="#efe2dd"/><path d="m130.535156 130.515625-84.242187 118.125 60.050781 60.050781 85.753906-8.601562 142.453125 142.453125 54.007813-54.003907zm0 0" fill="#fff5f5"/><path d="m279.574219 258.363281 30.863281 30.859375-21.214844 21.210938-30.859375-30.859375zm0 0" fill="#09607d"/><path d="m333.585938 312.367188 30.859374 30.859374-21.210937 21.214844-30.863281-30.859375zm0 0" fill="#09607d"/><path d="m248.660156 46.292969-46.292968-46.292969-101.183594 101.183594 6.484375 46.292968h39.808593zm0 0" fill="#cdbfba"/><path d="m0 202.367188 101.183594-101.183594 46.289062 46.292968-101.183594 101.179688zm0 0" fill="#efe2dd"/></svg>