<svg height="512pt" viewBox="-40 0 512 512" width="512pt" xmlns="http://www.w3.org/2000/svg"><path d="m216.027344 0-10.007813 15.667969 10.007813 14.332031c17.335937 0 31.4375 14.101562 31.4375 31.4375v59.226562h30v-59.226562c0-33.875-27.558594-61.4375-61.4375-61.4375zm0 0" fill="#87a0af"/><path d="m154.589844 61.4375v59.226562h30v-59.226562c0-17.335938 14.101562-31.4375 31.4375-31.4375v-30c-33.875 0-61.4375 27.5625-61.4375 61.4375zm0 0" fill="#b4d2d7"/><path d="m216.027344 79.945312-20.015625 216.027344 20.015625 216.027344c119.121094 0 216.027344-96.910156 216.027344-216.027344 0-119.121094-96.90625-216.027344-216.027344-216.027344zm0 0" fill="#efe2dd"/><path d="m0 295.972656c0 119.117188 96.910156 216.027344 216.027344 216.027344v-432.054688c-119.117188 0-216.027344 96.910157-216.027344 216.027344zm0 0" fill="#fff5f5"/><g fill="#09607d"><path d="m201.027344 118.101562h30v42.808594h-30zm0 0"/><path d="m201.027344 431.03125h30v42.8125h-30zm0 0"/><path d="m45.640625 280.972656h42.8125v30h-42.8125zm0 0"/><path d="m343.601562 280.972656h42.8125v30h-42.8125zm0 0"/></g><path d="m179.035156 258.980469 16.1875 53.632812 57.800782 20.351563 49.976562-123.964844zm0 0" fill="#ff4a4a"/><path d="m129.054688 382.945312 123.96875-49.980468-73.988282-73.984375zm0 0" fill="#ff8859"/></svg>