<svg height="512pt" viewBox="0 -53 512 512" width="512pt" xmlns="http://www.w3.org/2000/svg"><path d="m63.785156 405.691406h63.785156v-63.785156l-83.800781-20.015625zm0 0" fill="#ff9100"/><path d="m256 405.691406h63.785156v-63.785156l-83.800781-20.015625zm0 0" fill="#ff9100"/><path d="m448.214844 405.691406h63.785156v-63.785156l-83.800781-20.015625zm0 0" fill="#ff9100"/><g fill="#ffd422"><path d="m0 341.90625v63.785156h63.785156v-83.800781zm0 0"/><path d="m192.214844 341.90625v63.785156h63.785156v-83.800781zm0 0"/><path d="m384.429688 341.90625v63.785156h63.785156v-83.800781zm0 0"/><path d="m63.785156 341.90625h63.785156v-200.582031l-83.800781-20.015625zm0 0"/><path d="m256 341.90625h63.785156v-200.582031l-83.800781-20.015625zm0 0"/><path d="m428.199219 121.308594 20.015625 220.597656h63.785156v-200.582031zm0 0"/></g><path d="m63.785156 121.308594-63.785156 20.015625v200.582031h63.785156zm0 0" fill="#fff1b6"/><path d="m256 121.308594-63.785156 20.015625v200.582031h63.785156zm0 0" fill="#fff1b6"/><path d="m448.214844 121.308594-63.785156 20.015625v200.582031h63.785156zm0 0" fill="#fff1b6"/><path d="m63.785156 0-20.015625 82.511719 20.015625 58.8125h63.785156c0-78.050781-28.554687-141.324219-63.785156-141.324219zm0 0" fill="#ff9100"/><path d="m256 0-20.015625 83.847656 20.015625 57.476563h63.785156c0-78.050781-28.558594-141.324219-63.785156-141.324219zm0 0" fill="#ff9100"/><path d="m512 141.324219c0-78.050781-28.558594-141.324219-63.785156-141.324219l-20.015625 85.847656 20.015625 55.476563zm0 0" fill="#ff9100"/><path d="m63.785156 0c-35.226562 0-63.785156 63.273438-63.785156 141.324219h63.785156zm0 0" fill="#ffd422"/><path d="m256 0c-35.226562 0-63.785156 63.273438-63.785156 141.324219h63.785156zm0 0" fill="#ffd422"/><path d="m448.214844 0c-35.230469 0-63.785156 63.273438-63.785156 141.324219h63.785156zm0 0" fill="#ffd422"/></svg>