<svg height="512pt" viewBox="0 0 512 512" width="512pt" xmlns="http://www.w3.org/2000/svg"><path d="m137.070312 0-68.535156 68.535156 114.226563 142.53125 68.535156-96.839844zm0 0" fill="#b4d2d7"/><path d="m0 137.070312 114.226562 114.226563 82.6875-54.382813-128.378906-128.378906zm0 0" fill="#e1ebf0"/><path d="m98.179688 122.65625 30.457031 30.457031-21.210938 21.214844-30.460937-30.460937zm0 0" fill="#87a0af"/><path d="m143.871094 76.964844 30.460937 30.460937-21.214843 21.210938-30.460938-30.457031zm0 0" fill="#607882"/><path d="m474.148438 474.148438c50.46875-50.46875 50.46875-132.292969 0-182.761719l-135.839844-135.839844-119.6875 91.382813zm0 0" fill="#ff9100"/><path d="m232.773438 232.773438-77.226563 105.535156 135.839844 135.839844c50.46875 50.46875 132.292969 50.46875 182.761719 0zm0 0" fill="#ffd422"/><path d="m338.308594 155.546875-64.167969-64.167969-91.378906 91.382813 17.929687 46.234375 46.238282 17.933594zm0 0" fill="#ffd422"/><path d="m91.378906 274.140625 91.378906-91.378906 64.167969 64.167969-91.378906 91.378906zm0 0" fill="#fff1b6"/></svg>