<svg height="512pt" viewBox="0 0 512.00099 512" width="512pt" xmlns="http://www.w3.org/2000/svg"><path d="m80.589844 0h95.679687v105.535156h-95.679687zm0 0" fill="#09607d"/><path d="m335.730469 0h95.679687v105.535156h-95.679687zm0 0" fill="#04303e"/><path d="m48.695312 307.050781v-243.265625h159.464844v223.25zm0 0" fill="#0d91bd"/><path d="m463.304688 307.050781v-243.265625h-159.464844v223.25zm0 0" fill="#09607d"/><path d="m348.035156 224.496094h-92.035156l-20.015625-49.085938 20.015625-49.085937h92.035156zm0 0" fill="#04303e"/><path d="m163.964844 126.324219h92.035156v98.171875h-92.035156zm0 0" fill="#09607d"/><path d="m0 512h208.160156v-74.414062l-104.082031-20.015626-104.078125 20.015626zm0 0" fill="#e1ebf0"/><path d="m303.839844 437.585938v74.414062h208.160156v-74.414062l-104.078125-20.015626zm0 0" fill="#b4d2d7"/><path d="m0 287.035156h208.160156v150.550782h-208.160156zm0 0" fill="#09607d"/><path d="m303.839844 287.035156h208.160156v150.550782h-208.160156zm0 0" fill="#04303e"/></svg>