<svg height="512pt" viewBox="-132 0 512 512" width="512pt" xmlns="http://www.w3.org/2000/svg"><path d="m46.859375 0h30v211.269531h-30zm0 0" fill="#09607d"/><path d="m108.722656 149.863281h30v46.394531h-30zm0 0" fill="#09607d"/><path d="m170.582031 149.863281h30v46.394531h-30zm0 0" fill="#04303e"/><path d="m123.722656 181.246094-20.019531 103.328125 143.738281-20.015625v-83.3125zm0 0" fill="#b4d2d7"/><path d="m123.722656 181.246094h-123.722656v83.3125l123.722656 20.015625zm0 0" fill="#e1ebf0"/><path d="m123.722656 512h123.71875v-247.441406h-123.71875l-20.019531 123.71875zm0 0" fill="#04303e"/><path d="m0 264.558594h123.722656v247.441406h-123.722656zm0 0" fill="#09607d"/><path d="m46.394531 373.277344h30.929688v30h-30.929688zm0 0" fill="#e1ebf0"/><path d="m108.257812 373.277344h30.929688v30h-30.929688zm0 0" fill="#e1ebf0"/><path d="m170.117188 373.277344h30.929687v30h-30.929687zm0 0" fill="#b4d2d7"/><path d="m46.394531 311.417969h30.929688v30h-30.929688zm0 0" fill="#e1ebf0"/><path d="m108.257812 311.417969h30.929688v30h-30.929688zm0 0" fill="#e1ebf0"/><path d="m170.117188 311.417969h30.929687v30h-30.929687zm0 0" fill="#b4d2d7"/><path d="m46.394531 435.140625h30.929688v30h-30.929688zm0 0" fill="#e1ebf0"/><path d="m108.257812 435.140625h30.929688v30h-30.929688zm0 0" fill="#e1ebf0"/><path d="m170.117188 435.140625h30.929687v30h-30.929687zm0 0" fill="#b4d2d7"/></svg>