<svg height="512pt" viewBox="0 0 512.00183 512" width="512pt" xmlns="http://www.w3.org/2000/svg"><g fill="#04303e"><path d="m497 375.070312h-169.675781l.011719-62.511718h169.664062zm0 0"/><path d="m497 263.113281h-23.230469c-74.6875 0-135.445312-60.761719-135.445312-135.445312h30c0 58.140625 47.300781 105.445312 105.445312 105.445312h23.230469zm0 0"/><path d="m315.433594 291.246094-45.167969-109.039063-55.03125 1.128907 60.488281 146.023437zm0 0"/></g><path d="m257.675781 315.167969 36.539063 6.53125-60.484375-146.023438-21.21875 30.453125zm0 0" fill="#09607d"/><path d="m376.902344 70.371094-185.589844 55.207031 50.078125 68.589844 159.433594-66.042969zm0 0" fill="#09607d"/><path d="m58.027344 202.453125 23.921875 57.753906 159.441406-66.039062-31.585937-76.25zm0 0" fill="#0d91bd"/><path d="m353.210938 323.167969c-11.398438-27.523438-42.957032-40.59375-70.480469-29.191407l2.148437 57.496094 39.136719 42.179688c27.527344-11.402344 40.597656-42.957032 29.195313-70.484375zm0 0" fill="#09607d"/><path d="m253.535156 364.457031c11.402344 27.523438 42.957032 40.597657 70.484375 29.195313l-41.289062-99.675782c-27.527344 11.398438-40.597657 42.957032-29.195313 70.480469zm0 0" fill="#0d91bd"/><path d="m347.753906 0-159.4375 66.042969-4.835937 40.625 33.984375 29.746093 159.4375-66.042968zm0 0" fill="#04303e"/><path d="m29.148438 214.414062-29.148438-70.371093 188.320312-78.007813 29.148438 70.371094zm0 0" fill="#09607d"/><path d="m482 159.632812h30v352.367188h-30zm0 0" fill="#efe2dd"/></svg>