<svg height="512pt" viewBox="0 -65 512 512" width="512pt" xmlns="http://www.w3.org/2000/svg"><path d="m512 0h-256l-20.015625 191.355469 20.015625 191.355469h256zm0 0" fill="#efe2dd"/><path d="m0 0h256v382.714844h-256zm0 0" fill="#fff5f5"/><path d="m47.839844 48.785156h160.320312v30h-160.320312zm0 0" fill="#cdbfba"/><path d="m47.839844 112.570312h160.320312v30h-160.320312zm0 0" fill="#cdbfba"/><g fill="#9b9696"><path d="m303.839844 48.785156h160.320312v93.785156h-160.320312zm0 0"/><path d="m303.839844 176.355469h160.320312v30h-160.320312zm0 0"/><path d="m303.839844 240.140625h160.320312v30h-160.320312zm0 0"/><path d="m303.839844 303.925781h160.320312v30h-160.320312zm0 0"/></g><path d="m47.839844 176.355469h160.320312v157.570312h-160.320312zm0 0" fill="#cdbfba"/></svg>