<svg height="512pt" viewBox="0 -35 512 512" width="512pt" xmlns="http://www.w3.org/2000/svg"><path d="m512 0h-256l-20.015625 297.253906 276.015625-20.015625zm0 0" fill="#04303e"/><path d="m0 0v277.238281l256 20.015625v-297.253906zm0 0" fill="#09607d"/><path d="m341.046875 426.070312v-63.785156l-105.0625-20.015625 20.015625 83.800781zm0 0" fill="#87a0af"/><path d="m170.953125 426.070312h85.046875v-83.800781l-85.046875 20.015625zm0 0" fill="#b4d2d7"/><path d="m345.882812 138.617188c0-49.5625-40.320312-89.882813-89.882812-89.882813l-10.007812 15.96875 10.007812 14.03125c33.019531 0 59.882812 26.863281 59.882812 59.882813 0 11.078124-3.035156 21.457031-8.300781 30.371093l-51.582031-51.582031-10.007812 15.960938 10.007812 26.464843 30.367188 30.367188c-8.910157 5.265625-19.289063 8.304687-30.367188 8.304687l-10.007812 14.53125 10.007812 15.46875c49.5625 0 89.882812-40.324218 89.882812-89.886718zm0 0" fill="#ff4a4a"/><path d="m196.117188 138.617188c0-11.078126 3.035156-21.457032 8.300781-30.367188l51.582031 51.582031v-42.425781l-30.367188-30.371094c8.910157-5.265625 19.289063-8.300781 30.367188-8.300781v-30c-49.5625 0-89.882812 40.320313-89.882812 89.882813s40.320312 89.886718 89.882812 89.886718v-30c-33.019531 0-59.882812-26.867187-59.882812-59.886718zm0 0" fill="#ff8859"/><path d="m512 277.238281h-256l-20.015625 42.523438 20.015625 42.523437h256zm0 0" fill="#b4d2d7"/><path d="m0 277.238281h256v85.046875h-256zm0 0" fill="#e1ebf0"/><path d="m388.886719 441.070312v-30h-132.886719l-10.007812 15 10.007812 15zm0 0" fill="#b4d2d7"/><path d="m123.113281 411.070312h132.886719v30h-132.886719zm0 0" fill="#e1ebf0"/></svg>