<svg height="512pt" viewBox="0 -72 512 512" width="512pt" xmlns="http://www.w3.org/2000/svg"><path d="m30.035156 0h30v47.839844h-30zm0 0" fill="#09607d"/><path d="m93.820312 0h30v47.839844h-30zm0 0" fill="#09607d"/><path d="m256 368.492188h256v-242.789063l-276.015625-20.015625zm0 0" fill="#04303e"/><path d="m0 125.703125v242.789063h256v-262.804688zm0 0" fill="#09607d"/><path d="m256 30.023438-20.015625 47.839843 20.015625 47.839844h256v-95.679687zm0 0" fill="#ff4a4a"/><path d="m0 30.023438h256v95.679687h-256zm0 0" fill="#ff8859"/><path d="m256 93.808594-20.015625 105.449218 20.015625 105.449219c58.144531 0 105.449219-47.304687 105.449219-105.449219 0-58.144531-47.304688-105.449218-105.449219-105.449218zm0 0" fill="#b4d2d7"/><path d="m150.550781 199.257812c0 58.144532 47.304688 105.449219 105.449219 105.449219v-210.898437c-58.144531 0-105.449219 47.304687-105.449219 105.449218zm0 0" fill="#e1ebf0"/><path d="m47.839844 174.488281h42.523437v30h-42.523437zm0 0" fill="#e1ebf0"/><path d="m421.636719 174.488281h42.523437v30h-42.523437zm0 0" fill="#b4d2d7"/><path d="m256 132.839844-21.992188 66.417968 21.992188 66.421876c36.625 0 66.421875-29.796876 66.421875-66.421876s-29.796875-66.417968-66.421875-66.417968zm0 0" fill="#04303e"/><path d="m189.578125 199.257812c0 36.625 29.796875 66.421876 66.421875 66.421876v-132.839844c-36.625 0-66.421875 29.792968-66.421875 66.417968zm0 0" fill="#09607d"/></svg>