<svg height="512pt" viewBox="0 -31 512 511" width="512pt" xmlns="http://www.w3.org/2000/svg"><path d="m235.984375 109.875 20.015625 338.839844c123.769531 0 224.105469-100.335938 224.105469-224.109375v-94.714844zm0 0" fill="#efe2dd"/><path d="m31.894531 129.890625v94.714844c0 123.773437 100.335938 224.109375 224.105469 224.109375v-338.839844zm0 0" fill="#fff5f5"/><path d="m351.628906 289.300781c0-52.726562-42.898437-95.625-95.628906-95.625l-20.015625 95.625 20.015625 95.628907c52.730469 0 95.628906-42.898438 95.628906-95.628907zm0 0" fill="#04303e"/><path d="m256 193.675781c-52.730469 0-95.628906 42.898438-95.628906 95.625 0 52.730469 42.898437 95.628907 95.628906 95.628907zm0 0" fill="#09607d"/><path d="m512 .5h-256l-20.015625 64.695312 20.015625 64.695313h256zm0 0" fill="#cdbfba"/><path d="m0 .5h256v129.390625h-256zm0 0" fill="#efe2dd"/><path d="m295.027344 289.300781c0-21.519531-17.507813-39.027343-39.027344-39.027343l-20.015625 39.027343 20.015625 39.027344c21.519531 0 39.027344-17.507813 39.027344-39.027344zm0 0" fill="#b4d2d7"/><path d="m216.972656 289.300781c0 21.519531 17.507813 39.027344 39.027344 39.027344v-78.054687c-21.519531 0-39.027344 17.507812-39.027344 39.027343zm0 0" fill="#e1ebf0"/></svg>