<svg height="512pt" viewBox="-31 0 511 512" width="512pt" xmlns="http://www.w3.org/2000/svg"><path d="m204.589844 253.894531 121.097656-20.015625v-85.046875h-101.082031zm0 0" fill="#ffbeaa"/><path d="m123.527344 148.832031v85.046875l101.078125 20.015625v-105.0625zm0 0" fill="#ffdecf"/><path d="m328.722656 85.046875-124.132812-20.015625 20.015625 83.800781h122.34375zm0 0" fill="#efe2dd"/><path d="m224.605469 65.03125-104.113281 20.015625-18.226563 63.785156h122.339844zm0 0" fill="#fff5f5"/><path d="m448.714844 362.480469c0-41.667969-33.78125-75.445313-75.445313-75.445313h-15.691406v-53.15625h-132.972656l-20.015625 144.453125 20.015625 133.667969h117.972656l15-10.007812 15 10.007812h76.136719zm0 0" fill="#bd914f"/><path d="m91.636719 233.878906v53.15625h-15.691407c-41.667968 0-75.445312 33.777344-75.445312 75.445313v149.519531h76.136719l15-10.007812 15 10.007812h117.96875v-278.121094zm0 0" fill="#edc472"/><path d="m76.636719 414.273438h30v97.726562h-30zm0 0" fill="#bd914f"/><path d="m342.578125 414.273438h30v97.726562h-30zm0 0" fill="#825d1d"/><path d="m397.5625 133.832031h-172.957031l-10.007813 15 10.007813 15h172.957031zm0 0" fill="#bd914f"/><path d="m51.652344 133.832031h172.953125v30h-172.953125zm0 0" fill="#edc472"/><path d="m328.722656 85.046875-16.105468-56.371094c-4.847657-16.972656-20.363282-28.675781-38.015626-28.675781h-6.128906c-7.808594 0-15.4375 2.3125-21.933594 6.640625-6.640624 4.425781-14.285156 6.640625-21.933593 6.640625l-20.015625 35.050781 20.015625 36.714844zm0 0" fill="#bd914f"/><path d="m224.605469 13.28125c-7.644531 0-15.289063-2.214844-21.929688-6.640625-6.496093-4.328125-14.125-6.640625-21.933593-6.640625h-6.128907c-17.652343 0-33.167969 11.703125-38.015625 28.675781l-16.109375 56.371094h104.117188zm0 0" fill="#edc472"/></svg>