<svg height="512pt" viewBox="0 -40 512 512" width="512pt" xmlns="http://www.w3.org/2000/svg"><path d="m388.070312 431.40625c-67.605468 0-132.625-20.472656-188.03125-59.207031s-96.964843-92.765625-120.183593-156.257813l-19.164063-52.402344c-9.277344-25.378906-33.667968-42.429687-60.691406-42.429687v-63.734375c53.671875 0 102.117188 33.867188 120.550781 84.273438l19.164063 52.402343c18.707031 51.160157 52.195312 94.703125 96.839844 125.914063 7.535156 5.265625 15.292968 10.113281 23.242187 14.535156h65.625zm0 0" fill="#804111"/><path d="m383.996094 431.40625c70.695312 0 128.003906-57.308594 128.003906-128v-64.21875l-148.019531-20.015625zm0 0" fill="#804111"/><path d="m255.992188 239.1875v64.21875c0 70.691406 57.308593 128 128.003906 128v-212.234375zm0 0" fill="#bc5f19"/><g fill="#efe2dd"><path d="m305.964844 127.5625h-30c0-14.167969 3.984375-22.144531 6.894531-27.964844 2.324219-4.65625 3.726563-7.464844 3.726563-14.554687 0-7.089844-1.402344-9.898438-3.726563-14.554688-2.910156-5.824219-6.894531-13.796875-6.894531-27.964843 0-14.171876 3.984375-22.144532 6.894531-27.96875 2.324219-4.652344 3.726563-7.464844 3.726563-14.554688h30.003906c0 14.167969-3.984375 22.144531-6.894532 27.964844-2.324218 4.65625-3.730468 7.464844-3.730468 14.558594 0 7.089843 1.40625 9.898437 3.730468 14.554687 2.90625 5.824219 6.894532 13.796875 6.894532 27.964844s-3.984375 22.140625-6.894532 27.964843c-2.328124 4.65625-3.730468 7.464844-3.730468 14.554688zm0 0"/><path d="m393.6875 127.5625h-30.003906c0-14.167969 3.984375-22.144531 6.894531-27.964844 2.328125-4.652344 3.730469-7.460937 3.730469-14.550781 0-7.09375-1.40625-9.902344-3.730469-14.558594-2.910156-5.824219-6.894531-13.796875-6.894531-27.964843 0-14.167969 3.984375-22.144532 6.894531-27.964844 2.324219-4.65625 3.730469-7.464844 3.730469-14.558594h30c0 14.167969-3.984375 22.144531-6.894532 27.964844-2.324218 4.65625-3.726562 7.464844-3.726562 14.558594 0 7.089843 1.402344 9.898437 3.726562 14.554687 2.910157 5.824219 6.894532 13.796875 6.894532 27.96875 0 14.167969-3.984375 22.140625-6.894532 27.960937-2.324218 4.652344-3.726562 7.464844-3.726562 14.554688zm0 0"/><path d="m481.40625 127.5625h-30c0-14.167969 3.984375-22.144531 6.894531-27.964844 2.324219-4.652344 3.726563-7.460937 3.726563-14.550781 0-7.09375-1.402344-9.902344-3.726563-14.558594-2.910156-5.824219-6.894531-13.796875-6.894531-27.964843 0-14.167969 3.984375-22.144532 6.894531-27.964844 2.324219-4.65625 3.726563-7.464844 3.726563-14.558594h30.003906c0 14.167969-3.984375 22.144531-6.894531 27.964844-2.328125 4.65625-3.730469 7.464844-3.730469 14.558594 0 7.089843 1.402344 9.898437 3.730469 14.554687 2.910156 5.824219 6.894531 13.796875 6.894531 27.96875 0 14.167969-3.984375 22.140625-6.894531 27.960937-2.328125 4.652344-3.730469 7.464844-3.730469 14.554688zm0 0"/></g><path d="m383.996094 175.402344-20.015625 31.890625 20.015625 31.894531h128.003906v-63.785156zm0 0" fill="#bc5f19"/><path d="m255.992188 175.402344h128.003906v63.789062h-128.003906zm0 0" fill="#e68a44"/></svg>