<svg height="512pt" viewBox="0 0 512 512" width="512pt" xmlns="http://www.w3.org/2000/svg"><path d="m339.683594 249.476562c9.785156-22.011718 15.234375-46.375 15.234375-72.019531 0-98.007812-79.453125-177.457031-177.457031-177.457031-49.007813 0-93.371094 19.863281-125.484376 51.976562l9.507813 49.539063 46.628906 6.597656c16.582031-16.582031 43.46875-16.582031 60.050781 0 16.582032 16.582031 16.582032 43.46875 0 60.050781l81.320313 121.351563 262.515625 222.484375v-90.207031zm0 0" fill="#87a0af"/><path d="m108.113281 168.164062c-16.582031-16.582031-16.582031-43.46875 0-60.050781l-56.136719-56.136719c-32.113281 32.113282-51.976562 76.476563-51.976562 125.484376 0 98.007812 79.449219 177.457031 177.460938 177.457031 25.640624 0 50.007812-5.449219 72.019531-15.234375l30.476562 30.476562 20.703125.6875.511719 20.53125 23.894531 23.890625 20.839844.828125.367188 20.382813 23.890624 23.886719 19.992188-.019532 1.222656 21.238282 30.414063 30.414062h90.207031l-75.519531-75.519531-19.53125.484375-1.679688-21.695313-23.890625-23.890625-20.386718-.367187-.824219-20.84375-23.894531-23.894531-20.617188-.601563-.59375-20.609375-156.898438-156.898438c-16.582031 16.582032-43.46875 16.582032-60.050781 0zm0 0" fill="#b4d2d7"/><g fill="#607882"><path d="m325.0625 325.058594 21.210938 21.210937-45.101563 45.101563-21.210937-21.214844zm0 0"/><path d="m370.164062 370.160156 21.214844 21.210938-45.101562 45.101562-21.214844-21.210937zm0 0"/><path d="m415.269531 415.261719 21.210938 21.214843-45.101563 45.097657-21.210937-21.210938zm0 0"/></g></svg>