<svg height="512pt" viewBox="-31 0 511 512" width="512pt" xmlns="http://www.w3.org/2000/svg"><path d="m449.636719 0h-208.15625l-20.015625 256 20.015625 256h208.15625zm0 0" fill="#efe2dd"/><path d="m33.328125 0h208.152344v512h-208.152344zm0 0" fill="#fff5f5"/><path d="m.5 48.785156h65.652344v30h-65.652344zm0 0" fill="#87a0af"/><path d="m.5 144.894531h65.652344v30h-65.652344zm0 0" fill="#87a0af"/><path d="m.5 241h65.652344v30h-65.652344zm0 0" fill="#87a0af"/><path d="m.5 337.105469h65.652344v30h-65.652344zm0 0" fill="#87a0af"/><path d="m.5 433.214844h65.652344v30h-65.652344zm0 0" fill="#87a0af"/><g fill="#9b9696"><path d="m327.382812 48.785156h74.414063v30h-74.414063zm0 0"/><path d="m327.382812 305.070312h74.414063v30h-74.414063zm0 0"/><path d="m295.488281 48.785156h-54.007812l-10.007813 15 10.007813 15h54.007812zm0 0"/><path d="m295.488281 335.070312v-30h-54.007812l-10.007813 15 10.007813 15zm0 0"/><path d="m401.796875 206.929688v-30h-160.316406l-10.007813 15 10.007813 15zm0 0"/><path d="m401.796875 463.214844v-30h-160.316406l-10.007813 15.210937 10.007813 14.789063zm0 0"/><path d="m401.796875 112.855469h-160.316406l-10.007813 15 10.007813 15h160.316406zm0 0"/><path d="m401.796875 271v-30h-160.316406l-10.007813 15 10.007813 15zm0 0"/><path d="m401.796875 399.144531v-30h-160.316406l-10.007813 15 10.007813 15zm0 0"/></g><path d="m113.058594 176.929688h61.40625v30h-61.40625zm0 0" fill="#cdbfba"/><path d="m113.058594 433.214844h61.40625v30h-61.40625zm0 0" fill="#cdbfba"/><path d="m113.058594 48.785156h128.421875v30h-128.421875zm0 0" fill="#cdbfba"/><path d="m113.058594 305.070312h128.421875v30h-128.421875zm0 0" fill="#cdbfba"/><path d="m206.355469 176.929688h35.125v30h-35.125zm0 0" fill="#cdbfba"/><path d="m206.355469 433.214844h35.125v30h-35.125zm0 0" fill="#cdbfba"/><path d="m113.058594 112.855469h128.421875v30h-128.421875zm0 0" fill="#cdbfba"/><path d="m113.058594 241h128.421875v30h-128.421875zm0 0" fill="#cdbfba"/><path d="m113.058594 369.144531h128.421875v30h-128.421875zm0 0" fill="#cdbfba"/></svg>