<svg height="512pt" viewBox="0 -76 512 512" width="512pt" xmlns="http://www.w3.org/2000/svg"><path d="m31.90625 9.695312h30v47.839844h-30zm0 0" fill="#09607d"/><path d="m95.691406 9.695312h30v47.839844h-30zm0 0" fill="#09607d"/><path d="m256 359.730469h256v-232.160157l-276.015625-20.015624zm0 0" fill="#04303e"/><path d="m0 127.570312v232.160157h256v-252.175781zm0 0" fill="#09607d"/><path d="m361.449219 42.523438-31.894531-42.523438h-73.554688l-20.015625 63.785156 20.015625 63.785156h256v-85.046874zm0 0" fill="#ff9100"/><path d="m256 0h-73.554688l-31.894531 42.523438h-150.550781v85.046874h256zm0 0" fill="#ffd422"/><path d="m47.839844 176.355469h42.523437v30h-42.523437zm0 0" fill="#00ff94"/><path d="m256 85.046875c-58.144531 0-105.449219 47.304687-105.449219 105.449219 0 16.261718 3.703125 31.667968 10.304688 45.4375l95.144531-95.148438zm0 0" fill="#bbfff7"/><path d="m301.4375 95.351562c-13.765625-6.601562-29.175781-10.304687-45.4375-10.304687v55.738281zm0 0" fill="#9ee2f8"/><path d="m256 240.203125 95.144531-95.144531c-10.402343-21.695313-28.011719-39.304688-49.707031-49.707032l-45.4375 45.433594zm0 0" fill="#5ecef4"/><path d="m256 140.785156-95.144531 95.148438c10.402343 21.695312 28.011719 39.304687 49.707031 49.707031l45.4375-45.4375zm0 0" fill="#9ee2f8"/><path d="m210.5625 285.640625c13.765625 6.601563 29.175781 10.304687 45.4375 10.304687v-55.742187zm0 0" fill="#bbfff7"/><path d="m351.144531 145.058594-95.144531 95.144531v55.742187c58.144531 0 105.449219-47.304687 105.449219-105.449218 0-16.261719-3.703125-31.671875-10.304688-45.4375zm0 0" fill="#9ee2f8"/></svg>