<svg height="512pt" viewBox="0 -128 512 511" width="512pt" xmlns="http://www.w3.org/2000/svg"><path d="m432.679688 166.875-196.695313-20.015625 20.015625 94.449219h197.945312zm0 0" fill="#edc472"/><path d="m79.320312 166.875-21.265624 74.433594h197.945312v-94.449219zm0 0" fill="#fcf2b6"/><path d="m512 226.308594h-256l-10.007812 15 10.007812 15h256zm0 0" fill="#804111"/><path d="m0 226.308594h256v30h-256zm0 0" fill="#bc5f19"/><path d="m398.398438 46.898438c-7.84375-27.464844-32.945313-46.398438-61.507813-46.398438h-9.917969c-12.632812 0-24.980468 3.738281-35.488281 10.742188-10.742187 7.164062-23.113281 10.746093-35.484375 10.746093l-20.015625 77.917969 20.015625 66.96875h176.679688zm0 0" fill="#804111"/><path d="m220.515625 11.242188c-10.507813-7.003907-22.855469-10.742188-35.488281-10.742188h-9.917969c-28.558594 0-53.664063 18.933594-61.507813 46.398438l-34.28125 119.976562h176.679688v-144.886719c-12.371094 0-24.742188-3.582031-35.484375-10.746093zm0 0" fill="#bc5f19"/></svg>