<svg height="512pt" viewBox="-39 0 512 512" width="512pt" xmlns="http://www.w3.org/2000/svg"><path d="m434.476562 0h-185.34375l-20.015624 256 20.015624 256h185.34375zm0 0" fill="#ff4a4a"/><path d="m63.785156 0-20.015625 246.925781 20.015625 265.074219h185.347656v-512zm0 0" fill="#ff8859"/><path d="m208.75 165.382812-81.230469 20.015626c0 67.054687 54.554688 121.609374 121.613281 121.609374zm0 0" fill="#b4d2d7"/><path d="m249.132812 63.785156c-67.058593 0-121.613281 54.554688-121.613281 121.609375h61.214844zm0 0" fill="#e1ebf0"/><path d="m0 0h63.785156v512h-63.785156zm0 0" fill="#ff4a4a"/><path d="m249.132812 307.007812c67.054688 0 121.609376-54.554687 121.609376-121.609374l-81.226563-20.015626s-40.378906 141.625-40.382813 141.625zm0 0" fill="#e1ebf0"/><path d="m309.53125 185.398438h61.210938c0-67.058594-54.554688-121.613282-121.609376-121.613282.003907 0 60.398438 121.613282 60.398438 121.613282zm0 0" fill="#b4d2d7"/><path d="m309.53125 185.398438-80.414062-20.015626 20.015624 141.625c.003907 0 60.398438-35.003906 60.398438-121.609374zm0 0" fill="#b4d2d7"/><path d="m249.132812 63.785156-20.015624 121.609375h80.414062c0-86.601562-60.394531-121.609375-60.398438-121.609375zm0 0" fill="#e1ebf0"/><path d="m188.734375 185.398438h60.398437v-121.613282s-60.398437 35.003906-60.398437 121.613282zm0 0" fill="#b4d2d7"/><path d="m249.132812 307.007812v-121.609374h-60.398437c0 86.605468 60.398437 121.609374 60.398437 121.609374zm0 0" fill="#e1ebf0"/><path d="m370.742188 355.792969h-121.609376l-10.007812 15 10.007812 15h121.609376zm0 0" fill="#efe2dd"/><path d="m370.742188 449.578125v-30h-121.609376l-10.007812 15 10.007812 15zm0 0" fill="#efe2dd"/><g fill="#fff5f5"><path d="m127.519531 355.792969h121.613281v30h-121.613281zm0 0"/><path d="m127.519531 419.578125h121.613281v30h-121.613281zm0 0"/></g></svg>