<svg height="512pt" viewBox="0 0 512 512" width="512pt" xmlns="http://www.w3.org/2000/svg"><path d="m512 419.414062-219.632812-219.632812-74.601563 46.292969 247.941406 219.632812zm0 0" fill="#b4d2d7"/><path d="m231.921875 231.921875-32.140625 60.445313 219.632812 219.632812 46.292969-46.292969zm0 0" fill="#e1ebf0"/><path d="m291.40625 270.183594 30.863281 30.863281-21.214843 21.210937-30.859376-30.859374zm0 0" fill="#09607d"/><path d="m345.410156 324.191406 30.859375 30.863282-21.210937 21.210937-30.863282-30.859375zm0 0" fill="#09607d"/><path d="m292.367188 199.78125-46.292969-46.292969-74.601563 46.292969 74.601563 46.292969zm0 0" fill="#87a0af"/><path d="m185.628906 185.628906-32.140625 60.445313 46.292969 46.292969 46.292969-46.292969zm0 0" fill="#b4d2d7"/><path d="m138.878906 0-69.4375 69.441406 51.015625 79.324219 79.324219 51.015625 69.4375-69.4375zm0 0" fill="#04303e"/><path d="m130.339844 269.222656-130.339844-130.339844 69.4375-69.441406 130.34375 130.339844zm0 0" fill="#09607d"/></svg>