<svg height="512pt" viewBox="0 0 512 512.001" width="512pt" xmlns="http://www.w3.org/2000/svg"><path d="m143.867188 410.191406h-48.328126c-52.679687 0-95.539062-42.859375-95.539062-95.542968 0-52.679688 42.859375-95.539063 95.539062-95.539063h48.328126l19.996093 32.660156-19.996093 31.015625h-48.328126c-17.597656 0-31.863281 14.269532-31.863281 31.867188s14.265625 31.863281 31.863281 31.863281h48.328126l19.996093 33.140625zm0 0" fill="#5ecef4"/><g fill="#efe2dd"><path d="m249.742188 127.445312h-29.972657c0-14.15625 3.980469-22.125 6.886719-27.9375 2.324219-4.652343 3.726562-7.457031 3.726562-14.542968 0-7.082032-1.402343-9.890625-3.726562-14.542969-2.90625-5.816406-6.886719-13.78125-6.886719-27.9375s3.980469-22.125 6.886719-27.941406c2.324219-4.648438 3.726562-7.457031 3.726562-14.542969h29.972657c0 14.15625-3.980469 22.121094-6.890625 27.941406-2.324219 4.648438-3.722656 7.457032-3.722656 14.542969s1.402343 9.890625 3.722656 14.542969c2.90625 5.816406 6.890625 13.78125 6.890625 27.9375s-3.984375 22.125-6.890625 27.9375c-2.320313 4.652344-3.722656 7.457031-3.722656 14.542968zm0 0"/><path d="m337.378906 127.445312h-29.972656c0-14.15625 3.980469-22.121093 6.886719-27.9375 2.324219-4.648437 3.726562-7.457031 3.726562-14.542968 0-7.082032-1.402343-9.890625-3.726562-14.542969-2.90625-5.816406-6.886719-13.78125-6.886719-27.9375s3.980469-22.125 6.886719-27.941406c2.324219-4.648438 3.726562-7.457031 3.726562-14.542969h29.972657c0 14.15625-3.976563 22.121094-6.886719 27.941406-2.320313 4.648438-3.726563 7.457032-3.726563 14.542969s1.40625 9.890625 3.726563 14.542969c2.90625 5.816406 6.886719 13.78125 6.886719 27.9375s-3.980469 22.121094-6.886719 27.9375c-2.324219 4.652344-3.726563 7.457031-3.726563 14.542968zm0 0"/><path d="m425.019531 127.445312h-29.972656c0-14.15625 3.980469-22.125 6.886719-27.9375 2.324218-4.652343 3.726562-7.457031 3.726562-14.542968 0-7.082032-1.402344-9.890625-3.726562-14.542969-2.90625-5.816406-6.886719-13.78125-6.886719-27.9375s3.980469-22.125 6.886719-27.941406c2.324218-4.648438 3.726562-7.457031 3.726562-14.542969h29.972656c0 14.15625-3.980468 22.121094-6.886718 27.941406-2.324219 4.648438-3.726563 7.457032-3.726563 14.542969s1.402344 9.890625 3.726563 14.542969c2.90625 5.816406 6.886718 13.78125 6.886718 27.9375s-3.980468 22.125-6.886718 27.9375c-2.324219 4.652344-3.726563 7.457031-3.726563 14.542968zm0 0"/></g><path d="m327.699219 159.785156-19.996094 166.339844 19.996094 185.875h89.835937c51.914063 0 94-42.085938 94-94v-258.214844zm0 0" fill="#5ecef4"/><path d="m143.867188 159.785156v258.214844c0 51.914062 42.085937 94 94 94h89.832031v-352.214844zm0 0" fill="#9ee2f8"/></svg>