<svg height="512pt" viewBox="-11 0 512 512" width="512pt" xmlns="http://www.w3.org/2000/svg"><path d="m300.378906 285.539062v-30h-55.386718l-10.007813 15 10.007813 15zm0 0" fill="#87a0af"/><path d="m189.605469 255.539062h55.386719v30h-55.386719zm0 0" fill="#b4d2d7"/><path d="m154.316406 468.230469v-75.175781c1.785156 0 3.5625-.039063 5.328125-.113282 21.648438-.933594 35.859375-22.972656 27.566407-42.992187l-.621094-1.5c-5.03125-12.148438-17.148438-19.601563-30.289063-19.164063-.65625.023438-1.320312.035156-1.984375.035156-33.335937 0-60.1875-27.75-58.722656-61.410156 1.3125-30.199218 25.824219-54.734375 56.027344-56.09375 1.660156-.074218 3.308594-.078125 4.9375-.019531 13.042968.492187 25.035156-7.105469 30.027344-19.164063l.625-1.507812c8.242187-19.894531-5.738282-41.992188-27.253907-42.976562-3.183593-.144532-6.402343-.167969-9.644531-.0625-63.957031 2.054687-115.980469 53.738281-118.417969 117.683593-.121093 3.171875-.117187 6.320313 0 9.4375v193.023438zm0 0" fill="#ffdecf"/><path d="m458.089844 468.28125v-193.070312c.117187-3.121094.121094-6.269532 0-9.441407-2.4375-63.945312-54.457032-115.628906-118.417969-117.683593-3.242187-.101563-6.460937-.078126-9.644531.066406-21.515625.980468-35.496094 23.078125-27.253906 42.976562l.625 1.507813c4.992187 12.058593 16.984374 19.652343 30.027343 19.164062 1.628907-.0625 3.277344-.058593 4.9375.015625 30.203125 1.359375 54.710938 25.894532 56.027344 56.097656 1.464844 33.65625-25.386719 61.40625-58.722656 61.40625-.664063 0-1.328125-.011718-1.984375-.03125-13.140625-.4375-25.257813 7.015626-30.289063 19.160157l-.621093 1.503906c-8.292969 20.015625 5.917968 42.054687 27.566406 42.988281 1.765625.074219 3.542968.113282 5.324218.113282v75.226562zm0 0" fill="#ffbeaa"/><path d="m154.316406 339.320312c-37.925781 0-68.78125-30.855468-68.78125-68.78125 0-37.925781 30.855469-68.78125 68.78125-68.78125 37.925782 0 68.78125 30.855469 68.78125 68.78125 0 37.925782-30.855468 68.78125-68.78125 68.78125zm0 0" fill="#09607d"/><path d="m335.667969 339.320312c-37.929688 0-68.78125-30.855468-68.78125-68.78125 0-37.925781 30.851562-68.78125 68.78125-68.78125 37.925781 0 68.78125 30.855469 68.78125 68.78125 0 37.925782-30.855469 68.78125-68.78125 68.78125zm0 0" fill="#04303e"/><path d="m382.621094 84.238281-157.644532-20.015625 20.015626 83.800782h155.855468zm0 0" fill="#edc472"/><path d="m107.363281 84.238281-18.226562 63.785157h155.855469v-83.800782zm0 0" fill="#fcf2b6"/><path d="m474.128906 133.023438h-229.136718l-10.007813 15 10.007813 15h229.136718zm0 0" fill="#804111"/><path d="m15.855469 133.023438h229.136719v30h-229.136719zm0 0" fill="#bc5f19"/><path d="m370.210938 40.800781c-6.898438-24.152343-28.972657-40.800781-54.089844-40.800781h-8.71875c-11.105469 0-21.964844 3.285156-31.207032 9.449219-9.445312 6.296875-20.324218 9.445312-31.203124 9.445312l-20.015626 30.605469 20.015626 34.738281h137.628906zm0 0" fill="#804111"/><path d="m213.789062 9.449219c-9.242187-6.164063-20.097656-9.449219-31.203124-9.449219h-8.722657c-25.117187 0-47.191406 16.648438-54.089843 40.800781l-12.414063 43.4375h137.632813v-65.34375c-10.878907 0-21.757813-3.148437-31.203126-9.445312zm0 0" fill="#bc5f19"/><path d="m0 448.214844h186.210938v63.785156h-186.210938zm0 0" fill="#bc5f19"/><path d="m303.863281 448.214844h186.210938v63.785156h-186.210938zm0 0" fill="#804111"/></svg>