<svg height="512pt" viewBox="0 0 512 512" width="512pt" xmlns="http://www.w3.org/2000/svg"><path d="m370.429688 250.714844v-51.851563c0-31.59375-25.699219-57.292969-57.292969-57.292969h-51.851563v-43.734374h51.851563c55.707031 0 101.027343 45.320312 101.027343 101.027343v51.851563zm0 0" fill="#87a0af"/><path d="m456.082031 291.046875v-50.347656h-63.785156l-20.015625 45.632812 20.015625 39.996094c36.375 0 65.96875 29.59375 65.96875 65.96875s-29.59375 65.96875-65.96875 65.96875l-20.015625 22.070313 20.015625 31.664062c66.003906 0 119.703125-53.699219 119.703125-119.703125 0-42.574219-22.34375-80.023437-55.917969-101.25zm0 0" fill="#b4d2d7"/><path d="m326.324219 392.296875c0-36.375 29.597656-65.96875 65.972656-65.96875v-85.628906h-63.785156v50.347656c-33.574219 21.226563-55.921875 58.675781-55.921875 101.25 0 66.003906 53.699218 119.703125 119.707031 119.703125v-53.734375c-36.375 0-65.972656-29.59375-65.972656-65.96875zm0 0" fill="#e1ebf0"/><path d="m220.953125 183.488281h50.347656v-63.785156l-45.632812-20.015625-39.996094 20.015625c0 36.378906-29.59375 65.972656-65.96875 65.972656s-65.96875-29.59375-65.96875-65.972656l-22.066406-20.015625-31.667969 20.015625c0 66.007813 53.699219 119.703125 119.703125 119.703125 42.574219.003906 80.023437-22.34375 101.25-55.917969zm0 0" fill="#b4d2d7"/><path d="m119.703125 53.734375c36.375 0 65.96875 29.59375 65.96875 65.96875h85.628906v-63.785156h-50.347656c-21.226563-33.574219-58.675781-55.917969-101.25-55.917969-66.003906 0-119.703125 53.699219-119.703125 119.703125h53.734375c0-36.375 29.59375-65.96875 65.96875-65.96875zm0 0" fill="#e1ebf0"/></svg>