<svg height="512pt" viewBox="0 -35 512 512" width="512pt" xmlns="http://www.w3.org/2000/svg"><path d="m512 0h-256l-20.015625 297.253906 276.015625-20.015625zm0 0" fill="#04303e"/><path d="m0 0v277.238281l256 20.015625v-297.253906zm0 0" fill="#09607d"/><path d="m341.046875 426.070312v-63.785156l-105.0625-20.015625 20.015625 83.800781zm0 0" fill="#87a0af"/><path d="m170.953125 426.070312h85.046875v-83.800781l-85.046875 20.015625zm0 0" fill="#b4d2d7"/><path d="m512 277.238281h-256l-20.015625 42.523438 20.015625 42.523437h256zm0 0" fill="#b4d2d7"/><path d="m0 277.238281h256v85.046875h-256zm0 0" fill="#e1ebf0"/><path d="m388.886719 441.070312v-30h-132.886719l-10.007812 15 10.007812 15zm0 0" fill="#b4d2d7"/><path d="m123.113281 411.070312h132.886719v30h-132.886719zm0 0" fill="#e1ebf0"/><path d="m256 56.234375-10.007812 16.96875 10.007812 13.03125c9.3125 0 16.894531 7.578125 16.894531 16.894531v63.007813h30v-63.007813c0-25.859375-21.039062-46.894531-46.894531-46.894531zm0 0" fill="#b4d2d7"/><path d="m209.105469 103.128906v63.003906h30v-63.003906c0-9.316406 7.578125-16.894531 16.894531-16.894531v-30c-25.855469 0-46.894531 21.035156-46.894531 46.894531zm0 0" fill="#e1ebf0"/><path d="m319.785156 136.109375h-63.785156l-20.015625 42.445313 20.015625 42.449218h63.785156zm0 0" fill="#ff9100"/><path d="m192.214844 136.109375h63.785156v84.894531h-63.785156zm0 0" fill="#ffd422"/></svg>