<svg height="512pt" viewBox="0 0 512 512" width="512pt" xmlns="http://www.w3.org/2000/svg"><path d="m30 512h-30v-312.328125c0-29.496094 11.511719-57.195313 32.410156-78.007813 20.78125-20.6875 48.34375-32.066406 77.648438-32.066406.167968 0 .332031 0 .5.003906 60.425781.265626 109.585937 49.644532 109.585937 110.070313v201.832031c0 44.148438 35.917969 80.070313 80.070313 80.070313 44.148437 0 80.070312-35.921875 80.070312-80.070313v-53.503906h30v53.503906c0 60.691406-49.378906 110.070313-110.070312 110.070313-60.695313 0-110.070313-49.378907-110.070313-110.070313v-201.832031c0-43.957031-35.761719-79.875-79.71875-80.070313-.121093-.003906-.242187-.003906-.363281-.003906-21.320312 0-41.367188 8.277344-56.484375 23.328125-15.203125 15.136719-23.578125 35.289063-23.578125 56.746094zm0 0" fill="#09607d"/><path d="m429.417969 384v-180.839844l-54.148438-17.507812 20.015625 198.347656zm0 0" fill="#cdbfba"/><path d="m361.152344 384h34.132812v-198.347656l-34.132812 22.527344zm0 0" fill="#efe2dd"/><path d="m395.285156.558594-20.015625 104.761718 20.015625 104.761719c38.953125-3.648437 88.367188-24.996093 116.714844-55.089843v-99.34375c-28.347656-30.09375-77.761719-51.441407-116.714844-55.089844zm0 0" fill="#efe2dd"/><path d="m383.890625 0c-58.167969 0-105.320313 47.152344-105.320313 105.320312 0 58.167969 47.152344 105.320313 105.320313 105.320313 3.671875 0 7.480469-.191406 11.394531-.558594v-209.523437c-3.914062-.367188-7.722656-.558594-11.394531-.558594zm0 0" fill="#fff5f5"/><path d="m444.515625 90.320312h-49.230469l-10.007812 15 10.007812 15h49.230469zm0 0" fill="#04303e"/><path d="m346.054688 90.320312h49.230468v30h-49.230468zm0 0" fill="#09607d"/></svg>