<svg height="512pt" viewBox="-53 0 512 512" width="512pt" xmlns="http://www.w3.org/2000/svg"><path d="m341.914062 0h-139.0625l-20.015624 83.804688 190.972656-20.019532zm0 0" fill="#09607d"/><path d="m63.785156 0-31.890625 63.785156 170.957031 20.019532v-83.804688zm0 0" fill="#0d91bd"/><path d="m202.851562 512h139.0625l31.894532-384.425781-190.972656-20.015625zm0 0" fill="#edc472"/><path d="m31.894531 127.574219 31.890625 384.425781h139.066406v-404.441406zm0 0" fill="#fcf2b6"/><path d="m294.246094 287.394531c0-50.394531-41-91.394531-91.394532-91.394531l-22.402343 91.394531 22.402343 91.394531c50.394532 0 91.394532-41 91.394532-91.394531zm0 0" fill="#ff4a4a"/><path d="m111.457031 287.394531c0 50.394531 41 91.394531 91.394531 91.394531v-182.789062c-50.394531 0-91.394531 41-91.394531 91.394531zm0 0" fill="#ff8859"/><path d="m405.703125 63.785156h-202.851563l-20.015624 31.894532 20.015624 31.894531h202.851563zm0 0" fill="#04303e"/><path d="m0 63.785156h202.851562v63.789063h-202.851562zm0 0" fill="#09607d"/></svg>