<svg height="512pt" viewBox="0 -65 512 512" width="512pt" xmlns="http://www.w3.org/2000/svg"><g fill="#04303e"><path d="m319.785156 180.726562-51.90625-20.015624v154.1875l51.90625-20.015626zm0 0"/><path d="m63.785156 148.832031h-63.785156v-85.046875h63.785156l32.546875 42.523438zm0 0"/><path d="m322.570312 297.664062h189.429688v63.785157h-189.429688zm0 0"/></g><path d="m256 180.726562v114.15625l31.894531 20.015626v-154.1875zm0 0" fill="#09607d"/><path d="m512 116.941406-244.121094-69.140625 20.015625 132.925781h224.105469zm0 0" fill="#87a0af"/><path d="m123.992188 31.890625-60.207032.003906v148.832031h224.109375v-112.910156zm0 0" fill="#b4d2d7"/><path d="m341.125 329.558594c0-29.398438-23.835938-53.230469-53.230469-53.230469l-20.015625 53.230469 20.015625 53.230468c29.398438 0 53.230469-23.832031 53.230469-53.230468zm0 0" fill="#87a0af"/><path d="m234.660156 329.558594c0 29.398437 23.832032 53.230468 53.230469 53.230468v-106.460937c-29.398437 0-53.230469 23.832031-53.230469 53.230469zm0 0" fill="#b4d2d7"/><path d="m512 0h-224.105469l-20.015625 58.46875 20.015625 58.472656h224.105469zm0 0" fill="#04303e"/><path d="m109.496094 0 53.15625 116.941406h125.242187v-116.941406zm0 0" fill="#09607d"/></svg>