<svg height="512pt" viewBox="0 -28 512 512" width="512pt" xmlns="http://www.w3.org/2000/svg"><path d="m512 0h-256l-20.015625 126.324219 276.015625-20.015625zm0 0" fill="#bd914f"/><path d="m31.894531 0v106.308594l224.105469 20.015625v-126.324219zm0 0" fill="#edc472"/><path d="m512 106.308594h-256l-20.015625 174.855468 20.015625 174.851563h256zm0 0" fill="#edc472"/><path d="m213.476562 106.308594-21.261718-42.523438h-192.214844v392.230469h256v-349.707031zm0 0" fill="#fcf2b6"/><path d="m256 175.671875-10.007812 16.722656 10.007812 13.277344c15.328125 0 27.800781 12.472656 27.800781 27.804687v87.71875h30v-87.71875c0-31.875-25.929687-57.804687-57.800781-57.804687zm0 0" fill="#87a0af"/><path d="m198.199219 233.476562v87.71875h30v-87.71875c0-15.332031 12.472656-27.804687 27.800781-27.804687v-30c-31.871094 0-57.800781 25.929687-57.800781 57.804687zm0 0" fill="#b4d2d7"/><path d="m330.695312 271.15625h-74.695312l-20.015625 51.910156 20.015625 48.585938h74.695312zm0 0" fill="#ff9100"/><path d="m181.304688 271.15625h74.695312v100.496094h-74.695312zm0 0" fill="#ffd422"/></svg>