<svg height="512pt" viewBox="-29 0 512 512" width="512pt" xmlns="http://www.w3.org/2000/svg"><path d="m363.371094 0h-136.621094l-20.015625 236.601562 20.015625 275.398438c136.425781-51.363281 226.753906-181.882812 226.753906-327.65625v-42.929688c-51.351562-12.855468-90.132812-71.273437-90.132812-141.414062zm0 0" fill="#5ecef4"/><path d="m90.128906 0c0 70.140625-38.777344 128.558594-90.128906 141.414062v42.929688c0 145.773438 90.324219 276.292969 226.75 327.65625v-512zm0 0" fill="#9ee2f8"/><path d="m226.75 120.894531-10.007812 15.613281 10.007812 14.386719c15.378906 0 27.890625 12.511719 27.890625 27.890625v57.816406h30v-57.816406c0-31.921875-25.96875-57.890625-57.890625-57.890625zm0 0" fill="#b4d2d7"/><path d="m168.859375 178.785156v57.816406h30v-57.816406c0-15.378906 12.511719-27.890625 27.890625-27.890625v-30c-31.921875 0-57.890625 25.96875-57.890625 57.890625zm0 0" fill="#e1ebf0"/><path d="m301.601562 216.585938h-74.851562l-20.015625 55.675781 20.015625 55.679687h74.851562zm0 0" fill="#ff9100"/><path d="m151.902344 216.585938h74.847656v111.355468h-74.847656zm0 0" fill="#ffd422"/></svg>