<svg height="512pt" viewBox="-78 0 512 512" width="512pt" xmlns="http://www.w3.org/2000/svg"><path d="m177.800781 0-20.019531 33 20.019531 30.734375c43.253907 0 78.441407 35.191406 78.441407 78.445313v85.25h63.734374v-85.25c0-78.398438-63.78125-142.179688-142.175781-142.179688zm0 0" fill="#b4d2d7"/><path d="m35.621094 142.179688v85.25h63.734375v-85.25c0-43.253907 35.191406-78.445313 78.445312-78.445313v-63.734375c-78.398437 0-142.179687 63.78125-142.179687 142.179688zm0 0" fill="#e1ebf0"/><path d="m177.800781 156.402344-20.019531 177.796875 20.019531 177.800781c98.195313 0 177.796875-79.605469 177.796875-177.800781 0-98.191407-79.601562-177.796875-177.796875-177.796875zm0 0" fill="#ff9100"/><path d="m0 334.199219c0 98.195312 79.601562 177.800781 177.800781 177.800781v-355.597656c-98.199219 0-177.800781 79.601562-177.800781 177.796875zm0 0" fill="#ffd422"/><path d="m162.800781 350.929688h30v58.46875h-30zm0 0" fill="#04303e"/><path d="m222.507812 323.726562c0-24.652343-20.058593-44.707031-44.707031-44.707031l-20.019531 44.183594 20.019531 45.234375c24.648438 0 44.707031-20.058594 44.707031-44.710938zm0 0" fill="#04303e"/><path d="m133.089844 323.726562c0 24.652344 20.058594 44.710938 44.710937 44.710938v-89.417969c-24.652343 0-44.710937 20.054688-44.710937 44.707031zm0 0" fill="#09607d"/></svg>