<svg height="512pt" viewBox="-15 0 512 512" width="512pt" xmlns="http://www.w3.org/2000/svg"><path d="m449.980469 255.140625v-223.246094h-64.035157l-20.015624 243.261719zm0 0" fill="#cdbfba"/><path d="m385.945312 0h-144.945312l-20.015625 275.15625 164.960937-20.015625zm0 0" fill="#efe2dd"/><path d="m32.019531 0v255.140625l208.980469 20.015625v-275.15625zm0 0" fill="#fff5f5"/><path d="m482 255.140625-261.015625 20.015625 20.015625 236.84375h241zm0 0" fill="#edc472"/><path d="m337.917969 48.785156h-96.917969l-10.007812 15 10.007812 15h96.917969zm0 0" fill="#9b9696"/><path d="m337.917969 112.570312h-96.917969l-10.007812 15 10.007812 15h96.917969zm0 0" fill="#9b9696"/><path d="m337.917969 176.355469h-96.917969l-10.007812 15 10.007812 15h96.917969zm0 0" fill="#9b9696"/><g fill="#cdbfba"><path d="m80.046875 48.785156h160.953125v30h-160.953125zm0 0"/><path d="m80.046875 112.570312h160.953125v30h-160.953125zm0 0"/><path d="m80.046875 176.355469h160.953125v30h-160.953125zm0 0"/></g><path d="m0 255.140625v256.859375h241v-236.84375zm0 0" fill="#fcf2b6"/><path d="m482 255.140625h-241l-20.015625 47.839844 20.015625 47.839843h172.457031zm0 0" fill="#bd914f"/><path d="m0 255.140625 68.542969 95.679687h172.457031v-95.679687zm0 0" fill="#edc472"/></svg>