<svg height="512pt" viewBox="0 -53 512 511" width="512pt" xmlns="http://www.w3.org/2000/svg"><path d="m256 .5-20.015625 83.800781 244.121094-20.015625v-63.785156zm0 0" fill="#b4d2d7"/><path d="m256 .5h-224.105469v63.785156l224.105469 20.015625zm0 0" fill="#e1ebf0"/><path d="m235.984375 298.636719 244.121094-20.015625v-214.335938h-224.105469zm0 0" fill="#04303e"/><path d="m256 64.285156h-224.105469v214.335938l224.105469 20.015625zm0 0" fill="#09607d"/><path d="m235.984375 362.421875 244.121094-20.015625v-63.785156h-224.105469zm0 0" fill="#87a0af"/><path d="m31.894531 278.621094v63.785156l224.105469 20.015625v-83.800781zm0 0" fill="#b4d2d7"/><path d="m512 342.40625h-256l-20.015625 31.890625 20.015625 31.894531h256zm0 0" fill="#b4d2d7"/><path d="m0 342.40625h256v63.785156h-256zm0 0" fill="#e1ebf0"/><path d="m210.964844 158.320312h30.023437v30h-30.023437zm0 0" fill="#fff5f5"/><path d="m271.011719 158.320312h30.023437v30h-30.023437zm0 0" fill="#efe2dd"/><path d="m331.058594 158.320312h30.027344v30h-30.027344zm0 0" fill="#efe2dd"/><path d="m150.914062 158.320312h30.027344v30h-30.027344zm0 0" fill="#fff5f5"/></svg>