<svg height="512pt" viewBox="-101 0 512 512" width="512pt" xmlns="http://www.w3.org/2000/svg"><path d="m155.007812 512h155.003907v-127.570312l-175.023438-20.015626zm0 0" fill="#b4d2d7"/><path d="m0 384.429688v127.570312h155.007812v-147.585938zm0 0" fill="#e1ebf0"/><path d="m155.007812 0-20.019531 83.800781 175.023438-20.015625v-63.785156zm0 0" fill="#b4d2d7"/><path d="m155.007812 0h-155.007812v63.785156l155.007812 20.015625zm0 0" fill="#e1ebf0"/><path d="m155.007812 384.429688h155.003907v-320.644532h-155.003907l-20.019531 160.320313zm0 0" fill="#04303e"/><path d="m0 63.785156h155.007812v320.644532h-155.007812zm0 0" fill="#09607d"/><path d="m133.742188 433.214844h42.523437v30h-42.523437zm0 0" fill="#607882"/><path d="m155.007812 130.078125-10.011718 16.273437 10.011718 13.726563c15.328126 0 27.800782 12.472656 27.800782 27.800781v57.21875h30v-57.21875c0-31.871094-25.929688-57.800781-57.800782-57.800781zm0 0" fill="#b4d2d7"/><path d="m97.203125 187.878906v57.21875h30v-57.21875c0-15.328125 12.472656-27.800781 27.804687-27.800781v-30c-31.875 0-57.804687 25.929687-57.804687 57.800781zm0 0" fill="#e1ebf0"/><path d="m229.699219 225.078125h-74.691407l-20.019531 46.53125 20.019531 46.527344h74.691407zm0 0" fill="#ff9100"/><path d="m80.3125 225.078125h74.695312v93.058594h-74.695312zm0 0" fill="#ffd422"/></svg>