<svg height="512pt" viewBox="0 -35 512 512" width="512pt" xmlns="http://www.w3.org/2000/svg"><path d="m512 0h-256l-20.015625 297.253906 276.015625-20.015625zm0 0" fill="#04303e"/><path d="m0 0v277.238281l256 20.015625v-297.253906zm0 0" fill="#09607d"/><path d="m341.046875 426.070312v-63.785156l-105.0625-20.015625 20.015625 83.800781zm0 0" fill="#87a0af"/><path d="m170.953125 426.070312h85.046875v-83.800781l-85.046875 20.015625zm0 0" fill="#b4d2d7"/><path d="m512 277.238281h-256l-20.015625 42.523438 20.015625 42.523437h256zm0 0" fill="#b4d2d7"/><path d="m0 277.238281h256v85.046875h-256zm0 0" fill="#e1ebf0"/><path d="m388.886719 441.070312v-30h-132.886719l-10.007812 15 10.007812 15zm0 0" fill="#b4d2d7"/><path d="m123.113281 411.070312h132.886719v30h-132.886719zm0 0" fill="#e1ebf0"/><path d="m191.855469 130.800781c9.675781-7.65625 15.902343-19.488281 15.902343-32.753906 0-23.027344-18.734374-41.761719-41.761718-41.761719-23.023438 0-41.757813 18.734375-41.757813 41.761719 0 13.265625 6.226563 25.097656 15.902344 32.753906-19.535156 9.589844-33.023437 29.6875-33.023437 52.882813v37.265625h117.761718v-37.265625c0-23.195313-13.488281-43.292969-33.023437-52.882813zm0 0" fill="#00ff94"/><g fill="#00cc76"><path d="m286.023438 190.949219h156.914062v30h-156.914062zm0 0"/><path d="m286.023438 127.164062h156.914062v30h-156.914062zm0 0"/><path d="m286.023438 63.382812h156.914062v30h-156.914062zm0 0"/></g></svg>