<svg height="512pt" viewBox="0 -78 512 512" width="512pt" xmlns="http://www.w3.org/2000/svg"><path d="m181.375 158.476562-39.53125 197.660157h-134.109375l39.535156-197.660157 81.777344-45.8125zm0 0" fill="#87a0af"/><path d="m241 138.460938h30v74.933593h-30zm0 0" fill="#09607d"/><path d="m432.773438 0h30v94.25h-30zm0 0" fill="#04303e"/><path d="m512 30.023438h-64.226562l-20.015626 64.226562 20.015626 64.226562h64.226562zm0 0" fill="#09607d"/><path d="m256 158.476562h191.773438v-64.226562l-211.789063-20.015625zm0 0" fill="#b4d2d7"/><path d="m162.707031 74.234375-149.863281 20.015625-12.84375 64.226562h256v-64.226562zm0 0" fill="#e1ebf0"/><path d="m256 30.023438-20.015625 32.113281 20.015625 32.113281h191.773438v-64.226562zm0 0" fill="#87a0af"/><path d="m256 30.023438h-80.449219l-26.375 31.804687 13.53125 32.421875h93.292969zm0 0" fill="#b4d2d7"/><path d="m100.621094 30.023438-26.425782 32.046874 13.582032 32.179688h74.929687l12.84375-64.226562zm0 0" fill="#87a0af"/><path d="m25.691406 30.023438-12.847656 64.226562h74.933594l12.84375-64.226562zm0 0" fill="#b4d2d7"/></svg>