<svg height="512pt" viewBox="0 0 512 512" width="512pt" xmlns="http://www.w3.org/2000/svg"><path d="m466.820312 148.832031-230.835937-20.015625 20.015625 383.183594h232.078125zm0 0" fill="#5ecef4"/><path d="m45.179688 148.832031-21.257813 363.167969h232.078125v-383.183594zm0 0" fill="#9ee2f8"/><path d="m466.820312 148.832031v-148.832031h-210.820312l-20.015625 85.046875 20.015625 63.785156zm0 0" fill="#5ecef4"/><path d="m45.179688 0h210.820312v148.832031h-210.820312zm0 0" fill="#9ee2f8"/><path d="m512 70.046875h-256l-10.007812 15 10.007812 15h256zm0 0" fill="#9ee2f8"/><path d="m0 70.046875h256v30h-256zm0 0" fill="#bbfff7"/><path d="m404.214844 239.378906-148.214844 61.390625-20.015625 44.496094 20.015625 24.546875 113.695312-47.09375c32.546876-13.480469 48-50.792969 34.519532-83.339844zm0 0" fill="#87a0af"/><path d="m183.453125 330.820312 24.410156 58.929688 48.136719-19.9375v-69.042969zm0 0" fill="#b4d2d7"/><path d="m128.1875 422.75-24.414062-58.933594 79.683593-33.007812 24.410157 58.933594zm0 0" fill="#87a0af"/><path d="m185.816406 297.347656 47.390625 114.414063-27.71875 11.480469-47.390625-114.410157zm0 0" fill="#607882"/></svg>