<svg height="512pt" viewBox="-32 0 511 512" width="512pt" xmlns="http://www.w3.org/2000/svg"><path d="m446.996094 0h-63.78125l-179.480469 20.015625 20.015625 491.984375h223.246094zm0 0" fill="#04303e"/><path d="m.5 0v512h223.25v-491.984375l-159.464844-20.015625zm0 0" fill="#09607d"/><path d="m383.214844 63.734375-179.480469-20.015625 20.015625 211.371094h159.464844zm0 0" fill="#09607d"/><path d="m64.285156 63.734375v191.355469h159.464844v-211.371094zm0 0" fill="#0d91bd"/><path d="m175.910156 431.445312h31.894532v30h-31.894532zm0 0" fill="#fff5f5"/><path d="m112.125 431.445312h31.894531v30h-31.894531zm0 0" fill="#fff5f5"/><path d="m239.695312 431.445312h31.894532v30h-31.894532zm0 0" fill="#efe2dd"/><path d="m175.910156 367.660156h31.894532v30h-31.894532zm0 0" fill="#fff5f5"/><path d="m239.695312 367.660156h31.894532v30h-31.894532zm0 0" fill="#efe2dd"/><path d="m303.480469 367.660156h31.890625v30h-31.890625zm0 0" fill="#efe2dd"/><path d="m112.125 367.660156h31.894531v30h-31.894531zm0 0" fill="#fff5f5"/><path d="m175.910156 303.875h31.894532v30h-31.894532zm0 0" fill="#fff5f5"/><path d="m239.695312 303.875h31.894532v30h-31.894532zm0 0" fill="#efe2dd"/><path d="m303.480469 303.875h31.890625v30h-31.890625zm0 0" fill="#efe2dd"/><path d="m181.929688 159.414062c0 20.9375-16.972657 37.910157-37.914063 37.910157-20.9375 0-37.910156-16.972657-37.910156-37.910157 0-20.941406 16.972656-37.914062 37.910156-37.914062 20.941406 0 37.914063 16.972656 37.914063 37.914062zm0 0" fill="#e1ebf0"/><path d="m341.394531 159.414062c0 20.9375-16.976562 37.910157-37.914062 37.910157s-37.914063-16.972657-37.914063-37.910157c0-20.941406 16.976563-37.914062 37.914063-37.914062s37.914062 16.972656 37.914062 37.914062zm0 0" fill="#b4d2d7"/><path d="m383.214844 0h-63.785156l-20.019532 31.867188 20.019532 31.867187h63.785156zm0 0" fill="#b4d2d7"/><path d="m255.640625 0-20.015625 31.867188 20.015625 31.867187h63.789063v-63.734375zm0 0" fill="#e1ebf0"/><path d="m191.855469 0-20.015625 31.867188 20.015625 31.867187h63.785156v-63.734375zm0 0" fill="#b4d2d7"/><path d="m128.070312 0-20.015624 31.867188 20.015624 31.867187h63.785157v-63.734375zm0 0" fill="#e1ebf0"/><path d="m64.285156 0h63.785156v63.734375h-63.785156zm0 0" fill="#b4d2d7"/></svg>