<svg height="512pt" viewBox="-47 0 511 512" width="512pt" xmlns="http://www.w3.org/2000/svg"><path d="m416.820312 175.675781v-175.675781h-208.160156l-20.015625 242.003906 20.015625 269.996094h208.160156v-229.476562h-31.890624v-106.847657zm0 0" fill="#04303e"/><path d="m53.65625 0-53.15625 83.925781v91.75h31.894531v63.785157h-31.894531v272.539062h208.160156v-512zm0 0" fill="#09607d"/><path d="m129.875 47.839844h30v79.996094h-30zm0 0" fill="#fff1b6"/><path d="m193.660156 47.839844h30v79.996094h-30zm0 0" fill="#fff1b6"/><path d="m257.445312 47.839844h30v79.996094h-30zm0 0" fill="#ffd422"/><path d="m321.230469 47.839844h30v79.996094h-30zm0 0" fill="#ffd422"/><path d="m353.089844 346.308594h-144.429688l-20.015625 50.976562 20.015625 50.980469h144.429688zm0 0" fill="#b4d2d7"/><path d="m64.234375 346.308594h144.425781v101.957031h-144.425781zm0 0" fill="#e1ebf0"/></svg>