<svg height="512pt" viewBox="-70 0 512 512" width="512pt" xmlns="http://www.w3.org/2000/svg"><path d="m372.082031 101.257812-179.480469-20.015624 20.015626 430.757812h159.464843zm0 0" fill="#ff4a4a"/><path d="m53.15625 101.257812v72.367188l-53.15625 63.785156v48.792969l10.007812 14.996094-10.007812 15.003906v33.777344l10.007812 14.996093-10.007812 15v132.023438h212.617188v-430.757812zm0 0" fill="#ff8859"/><path d="m0 286.195312h47.839844v30h-47.839844zm0 0" fill="#ff4a4a"/><path d="m0 349.980469h47.839844v30h-47.839844zm0 0" fill="#ff4a4a"/><path d="m291.402344 237.339844h-78.785156l-20.015626 87.265625 20.015626 87.269531h78.785156zm0 0" fill="#b4d2d7"/><path d="m133.832031 237.339844h78.785157v174.535156h-78.785157zm0 0" fill="#e1ebf0"/><path d="m372.082031 0h-53.15625l-20.015625 50.628906 20.015625 50.628906h53.15625zm0 0" fill="#ffd422"/><path d="m265.773438 0-20.015626 50.628906 20.015626 50.628906h53.152343v-101.257812zm0 0" fill="#fff1b6"/><path d="m212.617188 0-20.015626 50.628906 20.015626 50.628906h53.15625v-101.257812zm0 0" fill="#ffd422"/><path d="m159.464844 0-20.019532 50.628906 20.019532 50.628906h53.152344v-101.257812zm0 0" fill="#fff1b6"/><path d="m106.308594 0-20.015625 50.628906 20.015625 50.628906h53.15625v-101.257812zm0 0" fill="#ffd422"/><path d="m53.15625 0h53.152344v101.257812h-53.152344zm0 0" fill="#fff1b6"/></svg>