<svg height="512pt" viewBox="0 0 512 512" width="512pt" xmlns="http://www.w3.org/2000/svg"><path d="m364.984375 31.894531h-108.984375l-20.015625 189.105469h129zm0 0" fill="#4c250b"/><path d="m147.015625 31.894531h108.984375v189.105469h-108.984375zm0 0" fill="#804111"/><path d="m179.933594 0h-101.773438v85.046875l49.839844 20.015625 51.933594-20.015625zm0 0" fill="#bc5f19"/><path d="m433.839844 0h-101.773438v85.046875l50.886719 20.015625 50.886719-20.015625zm0 0" fill="#804111"/><path d="m256 185.910156c-42.011719 0-76.066406-34.058594-76.066406-76.066406v-24.796875h-101.773438v92.792969c0 43.167968-34.992187 78.160156-78.160156 78.160156v63.789062l208.160156 192.210938h47.839844zm0 0" fill="#e68a44"/><path d="m433.839844 177.839844v-92.792969h-101.773438v24.796875c0 42.007812-34.054687 76.066406-76.066406 76.066406v326.089844h47.839844l208.160156-192.210938v-63.789062c-43.167969 0-78.160156-34.992188-78.160156-78.160156zm0 0" fill="#bc5f19"/><path d="m0 415.894531v96.105469h208.160156v-96.105469l-104.082031-20.015625zm0 0" fill="#804111"/><path d="m303.839844 415.894531v96.105469h208.160156v-96.105469l-104.078125-20.015625zm0 0" fill="#4c250b"/><path d="m0 319.785156h208.160156v96.105469h-208.160156zm0 0" fill="#bc5f19"/><path d="m303.839844 319.785156h208.160156v96.105469h-208.160156zm0 0" fill="#804111"/></svg>