<svg height="512pt" viewBox="-80 0 512 512" width="512pt" xmlns="http://www.w3.org/2000/svg"><g fill="#04303e"><path d="m303.914062 38.152344h47.839844v30h-47.839844zm0 0"/><path d="m303.914062 101.941406h47.839844v30h-47.839844zm0 0"/><path d="m318.925781 0h-63.785156l-115.695313 20.015625v448.214844l179.480469-20.015625zm0 0"/></g><path d="m0 0v448.214844l159.464844 20.015625v-448.214844l-95.679688-20.015625zm0 0" fill="#09607d"/><path d="m255.140625 0h-95.675781l-20.019532 159.464844 20.019532 159.460937h95.675781zm0 0" fill="#b4d2d7"/><path d="m63.785156 0h95.679688v318.925781h-95.679688zm0 0" fill="#e1ebf0"/><path d="m206.355469 95.679688c0-25.859376-21.035157-46.894532-46.890625-46.894532l-20.019532 46.894532 20.019532 46.890624c25.855468 0 46.890625-21.035156 46.890625-46.890624zm0 0" fill="#04303e"/><path d="m159.464844 176.355469-20.019532 46.894531 20.019532 46.890625c25.855468 0 46.890625-21.035156 46.890625-46.890625 0-25.859375-21.035157-46.894531-46.890625-46.894531zm0 0" fill="#04303e"/><path d="m159.464844 48.785156c-25.859375 0-46.894532 21.035156-46.894532 46.894532 0 25.855468 21.035157 46.890624 46.894532 46.890624zm0 0" fill="#09607d"/><path d="m159.464844 176.355469c-25.859375 0-46.894532 21.035156-46.894532 46.894531 0 25.855469 21.035157 46.890625 46.894532 46.890625zm0 0" fill="#09607d"/><path d="m318.925781 448.214844h-63.78125l-20.015625 31.890625 20.015625 31.894531h63.78125zm0 0" fill="#b4d2d7"/><path d="m191.359375 448.214844-20.015625 31.890625 20.015625 31.894531h63.785156v-63.785156zm0 0" fill="#e1ebf0"/><path d="m127.574219 448.214844-20.015625 31.890625 20.015625 31.894531h63.785156v-63.785156zm0 0" fill="#b4d2d7"/><path d="m63.785156 448.214844-20.015625 31.890625 20.015625 31.894531h63.789063v-63.785156zm0 0" fill="#e1ebf0"/><path d="m0 448.214844h63.785156v63.785156h-63.785156zm0 0" fill="#b4d2d7"/></svg>