<svg height="512pt" viewBox="0 -32 512 512" width="512pt" xmlns="http://www.w3.org/2000/svg"><path d="m256 0-10.007812 15.8125 10.007812 14.1875h73.164062v48.785156h30v-78.785156zm0 0" fill="#4c250b"/><path d="m152.835938 0v78.785156h30v-48.785156h73.164062v-30zm0 0" fill="#71390f"/><path d="m256 63.773438-20.015625 276.875 276.015625-20.015626v-256.859374zm0 0" fill="#bc5f19"/><path d="m256 63.773438h-256v256.859374l256 20.015626zm0 0" fill="#e68a44"/><path d="m256 448.203125h145.320312l15-10.007813 15 10.007813h80.679688v-127.570313h-256l-20.015625 63.785157zm0 0" fill="#804111"/><path d="m0 320.632812v127.570313h80.679688l15-10.007813 15 10.007813h145.320312v-127.570313zm0 0" fill="#bc5f19"/><path d="m143.519531 224.675781h-95.679687v30h32.839844v193.527344h30v-193.527344h32.839843zm0 0" fill="#71390f"/><path d="m464.160156 224.675781h-95.679687v30h32.839843v193.527344h30v-193.527344h32.839844zm0 0" fill="#4c250b"/></svg>