<svg id="Layer_1" enable-background="new 0 0 124.001 124.001" height="512" viewBox="0 0 124.001 124.001" width="512" xmlns="http://www.w3.org/2000/svg"><path d="m102.5 67.041v-10.162h-8.856c-.796-5.003-2.75-9.613-5.574-13.55l6.266-6.315-7.13-7.186-6.266 6.315c-3.906-2.846-8.48-4.816-13.444-5.618v-8.926h-10.081v8.926c-4.964.803-9.538 2.772-13.444 5.618l-6.266-6.315-7.13 7.186 6.266 6.315c-2.824 3.937-4.778 8.547-5.574 13.55h-8.856v10.162h8.856c.796 5.003 2.75 9.613 5.574 13.55l-6.266 6.315 7.13 7.186 6.266-6.315c3.906 2.846 8.48 4.816 13.444 5.618v8.926h10.083v-8.926c4.964-.803 9.538-2.772 13.444-5.618l6.266 6.315 7.13-7.186-6.266-6.315c2.824-3.937 4.778-8.547 5.574-13.55z" fill="#99cf6c"/><ellipse cx="62.456" cy="61.96" fill="#78af42" rx="14.819" ry="14.936"/><g fill="#cdcdcd"><path d="m116.474 30.078-.071-8.832c-.009-1.104-.957-1.993-2.016-1.984-1.104.009-1.993.912-1.984 2.016l.022 2.704c-12.009-14.536-31.241-23.982-49.69-23.982-19.083 0-36.742 8.689-48.448 23.837-.675.875-.515 2.13.36 2.806.873.674 2.129.514 2.805-.359 10.943-14.162 27.448-22.284 45.283-22.284 17.957 0 36.713 9.556 47.857 24.094h-5.532c-1.104 0-2 .896-2 2s.896 2 2 2h9.415c1.079 0 2.012-.933 1.999-2.016z"/><path d="m124.001 61.46c0-7.597-1.366-15.014-4.059-22.043-.395-1.032-1.553-1.548-2.583-1.152-1.032.395-1.547 1.552-1.152 2.583 2.518 6.572 3.794 13.507 3.794 20.613 0 22.335-15.297 43.779-37.089 52.995l1.542-2.4c.597-.929.328-2.167-.602-2.764-.929-.596-2.166-.328-2.764.602l-4.77 7.422c-.649 1.008-.228 2.416.864 2.906l8.036 3.604c.266.119.543.176.817.176.764 0 1.493-.44 1.826-1.182.452-1.008.001-2.191-1.006-2.643l-3.498-1.569c23.821-9.566 40.644-32.858 40.644-57.148z"/><path d="m65.106 118.87c-.786.032-1.577.048-2.371.048-31.576 0-57.265-25.776-57.265-57.459 0-5.61 2.315-12.619 4.522-18.535l1.759 3.957c.332.745 1.063 1.188 1.829 1.188.271 0 .547-.056.812-.173 1.009-.449 1.464-1.63 1.015-2.64l-3.729-8.39c-.455-1.024-1.734-1.482-2.735-.97l-7.849 3.998c-.984.501-1.376 1.706-.875 2.69.502.984 1.707 1.374 2.69.875l3.229-1.644c-2.289 6.161-4.667 13.476-4.667 19.645 0 33.889 27.483 61.459 61.265 61.459.849 0 1.694-.017 2.534-.051 1.104-.045 1.962-.977 1.917-2.08s-.963-1.961-2.081-1.918c-.786.032 1.118-.043 0 0z"/></g></svg>