<svg id="Layer_1" enable-background="new 0 0 124 124" height="512" viewBox="0 0 124 124" width="512" xmlns="http://www.w3.org/2000/svg"><g fill="#e6e6e6"><path d="m32.276 93.741c-.512 0-1.023-.195-1.414-.585-.781-.781-.782-2.047-.001-2.829l19.043-19.06c.781-.782 2.047-.782 2.829-.001.781.781.782 2.047.001 2.829l-19.043 19.06c-.39.39-.902.586-1.415.586z"/><path d="m73.45 52.546c-.512 0-1.023-.195-1.414-.585-.781-.781-.781-2.047-.001-2.828l18.263-18.276c.781-.782 2.048-.781 2.829-.001.781.781.781 2.047.001 2.828l-18.263 18.276c-.39.391-.903.586-1.415.586z"/><path d="m51.186 53.442c-.516 0-1.032-.199-1.423-.595l-18.92-19.172c-.776-.786-.768-2.052.019-2.828.786-.777 2.052-.768 2.828.019l18.92 19.172c.776.786.768 2.052-.019 2.828-.39.384-.898.576-1.405.576z"/><path d="m91.958 93.958c-.507 0-1.015-.191-1.404-.576l-19.423-19.15c-.786-.776-.795-2.042-.02-2.829.774-.787 2.041-.796 2.828-.02l19.423 19.15c.786.776.795 2.042.02 2.829-.391.397-.907.596-1.424.596z"/><path d="m62 48.891c-1.104 0-2-.896-2-2v-27.093c0-1.104.896-2 2-2s2 .896 2 2v27.092c0 1.105-.896 2.001-2 2.001z"/><path d="m62 106.202c-1.104 0-2-.896-2-2v-27.093c0-1.104.896-2 2-2s2 .896 2 2v27.092c0 1.105-.896 2.001-2 2.001z"/><path d="m104.202 64h-27.093c-1.104 0-2-.896-2-2s.896-2 2-2h27.093c1.104 0 2 .896 2 2s-.895 2-2 2z"/><path d="m46.891 64h-27.093c-1.104 0-2-.896-2-2s.896-2 2-2h27.092c1.104 0 2 .896 2 2s-.895 2-1.999 2z"/></g><circle cx="62" cy="62" fill="#f16953" r="15.109"/><circle cx="114.101" cy="62" fill="#cdcdcd" r="9.899"/><circle cx="9.899" cy="62" fill="#cdcdcd" r="9.899"/><circle cx="62" cy="9.899" fill="#cdcdcd" r="9.899"/><circle cx="62" cy="114.101" fill="#cdcdcd" r="9.899"/><circle cx="98.731" cy="25.269" fill="#cdcdcd" r="9.899"/><circle cx="25.269" cy="98.731" fill="#cdcdcd" r="9.899"/><circle cx="25.269" cy="25.269" fill="#cdcdcd" r="9.899"/><circle cx="98.731" cy="98.731" fill="#cdcdcd" r="9.899"/></svg>