<svg id="Layer_1" enable-background="new 0 0 124 124" height="512" viewBox="0 0 124 124" width="512" xmlns="http://www.w3.org/2000/svg"><path d="m124 62.031-62.016.006.014 61.963h62.002z" fill="#cdcdcd"/><path d="m124 62.031v-62.031h-62.03l.014 62.037z" fill="#e6e6e6"/><path d="m61.97 0h-61.97v62.042l61.984-.005z" fill="#cdcdcd"/><path d="m0 62.042v61.958h61.998l-.014-61.963z" fill="#e6e6e6"/><path d="m73.617 46.278 9.011-25.052 9.01 25.052z" fill="#78af42"/><path d="m101.085 46.22 7.056-13.042 7.057 13.042z" fill="#99cf6c"/><circle cx="30.033" cy="93.045" fill="#f16953" r="16.845"/><path d="m34.927 99.939c-.512 0-1.023-.195-1.414-.586l-4.894-4.894c-.375-.375-.586-.884-.586-1.414v-8.315c0-1.104.896-2 2-2s2 .896 2 2v7.486l4.308 4.309c1.227 1.228.333 3.414-1.414 3.414z" fill="#fff"/><path d="m12.33 52.883c-1.104 0-2-.896-2-2v-39.729c0-1.104.896-2 2-2s2 .896 2 2v39.729c0 1.105-.895 2-2 2z" fill="#78af42"/><path d="m26.862 52.883c-1.104 0-2-.896-2-2v-21.704c0-1.104.896-2 2-2s2 .896 2 2v21.704c0 1.105-.895 2-2 2z" fill="#f16953"/><path d="m41.396 52.883c-1.104 0-2-.896-2-2v-28.325c0-1.104.896-2 2-2s2 .896 2 2v28.325c0 1.105-.896 2-2 2z" fill="#fdbe4a"/><path d="m101.786 93.034 10.244.01c-.001-10.376-8.599-18.787-19.206-18.788l.005 10.021c4.944.003 8.951 3.921 8.957 8.757z" fill="#f16953"/><path d="m83.861 93.045c0-4.842 4.013-8.768 8.963-8.768h.005l-.005-10.021h-.001c-10.607 0-19.206 8.412-19.206 18.789v.003z" fill="#30ade0"/><path d="m101.786 93.034c0 .004.001.007.001.011 0 4.842-4.013 8.768-8.963 8.768-.006 0-.012-.001-.017-.001v10.021c.006 0 .012.001.017.001 10.607 0 19.206-8.412 19.206-18.789v-.001z" fill="#78af42"/><path d="m83.861 93.046-10.243.003c.002 10.369 8.591 18.775 19.189 18.784v-10.021c-4.943-.009-8.946-3.93-8.946-8.766z" fill="#fdbe4a"/><path d="m92.829 84.277.001 2.061-.001-2.061c-.002 0-.003 0-.005 0-4.95 0-8.963 3.926-8.963 8.768v.001l2.04-.001-2.04.001c0 4.836 4.004 8.757 8.945 8.767v-2.063 2.063c.006 0 .012.001.017.001 4.95 0 8.963-3.926 8.963-8.768 0-.004-.001-.007-.001-.011l-2.037-.002 2.037.002c-.005-4.837-4.012-8.755-8.956-8.758z" fill="#fff"/></svg>