<svg id="Layer_1" enable-background="new 0 0 124 124" height="512" viewBox="0 0 124 124" width="512" xmlns="http://www.w3.org/2000/svg"><path d="m82.73 14.073c-.447 1.01.009 2.191 1.02 2.639 19.591 8.677 32.25 28.043 32.25 49.337 0 29.749-24.252 53.951-54.062 53.951-29.742 0-53.938-24.202-53.938-53.951 0-27.261 20.071-49.789 46.56-53.375l-9.592 10.557c-1.727 1.902 1.223 4.604 2.961 2.689l12.731-14.012c1.319-.829 1.224-2.928-.186-3.61l-16.719-8.098c-.994-.48-2.189-.066-2.672.928-.481.994-.066 2.19.928 2.671l10.595 5.131c-27.752 4.451-48.606 28.321-48.606 57.119 0 31.954 25.991 57.951 57.938 57.951 32.016 0 58.062-25.997 58.062-57.951 0-22.876-13.594-43.678-34.631-52.995-1.008-.447-2.19.009-2.639 1.019z" fill="#cdcdcd"/><ellipse cx="62" cy="67.955" fill="#99cf6c" rx="25.672" ry="25.696"/><g fill="#78af42"><path d="m55.18 78.052c-.455 0-.912-.154-1.287-.47-.845-.711-.953-1.973-.241-2.818l6.348-7.538v-11.217c0-1.104.896-2 2-2s2 .896 2 2v11.947c0 .472-.167.928-.471 1.289l-6.819 8.097c-.396.468-.961.71-1.53.71z"/><path d="m42.277 65.955h-5.95v4h5.95c1.104 0 2-.896 2-2s-.895-2-2-2z"/><path d="m60 48.215c0 1.104.896 2 2 2s2-.896 2-2v-5.955h-4z"/><path d="m62 85.696c-1.104 0-2 .896-2 2v5.956h4v-5.956c0-1.105-.896-2-2-2z"/><path d="m81.723 65.955c-1.104 0-2 .896-2 2s.896 2 2 2h5.95v-4z"/></g></svg>