<svg id="Layer_1" enable-background="new 0 0 124 124" height="512" viewBox="0 0 124 124" width="512" xmlns="http://www.w3.org/2000/svg"><path d="m92.568 21.197c-1.943-2.348-4.663-4.125-7.642-4.95-.324-9.012-7.901-16.247-17.227-16.247-3.95 0-7.771 1.333-10.815 3.744-2.59 2.094-4.598 4.887-5.57 7.996-1.36-.508-2.85-.825-4.339-.825-6.411 0-11.592 5.077-11.657 11.36-4.404 1.968-7.318 6.347-7.318 11.107 0 6.727 5.57 12.249 12.499 12.249h40.217c8.419-.001 15.284-6.728 15.284-14.978 0-3.49-1.23-6.854-3.432-9.456z" fill="#30ade0"/><path d="m72.271 54.767-6.139-.006v-18.92h-8.225l-.035 18.92h-6.872l11.002 13.364z" fill="#ffd169"/><path d="m49.651 78.633h24.698v45.367h-24.698z" fill="#e6e6e6"/><g fill="#f16953"><path d="m62.009 117.398c-3.018 0-5.473-2.424-5.473-5.403s2.455-5.404 5.473-5.404 5.473 2.424 5.473 5.404-2.455 5.403-5.473 5.403zm0-6.807c-.813 0-1.473.63-1.473 1.404s.661 1.403 1.473 1.403 1.473-.629 1.473-1.403-.661-1.404-1.473-1.404z"/><path d="m65.999 89.641h-7.549c-1.104 0-2-.896-2-2s.896-2 2-2h7.549c1.104 0 2 .896 2 2s-.895 2-2 2z"/><path d="m65.999 100.339h-7.549c-1.104 0-2-.896-2-2s.896-2 2-2h7.549c1.104 0 2 .896 2 2s-.895 2-2 2z"/></g></svg>