<svg id="Layer_1" enable-background="new 0 0 124 124" height="512" viewBox="0 0 124 124" width="512" xmlns="http://www.w3.org/2000/svg"><path d="m110.465 99.844-34.771-19.333-4.509-14.436h-19.426l-4.474 14.436-32.854 17.186c-8.778 3.966-14.431 12.786-14.431 22.515v3.788h124v-4.296c0-9.367-5.244-15.696-13.535-19.86z" fill="#5ab8ec"/><path d="m14.431 97.697c-8.778 3.966-14.431 12.786-14.431 22.515v3.788h19.515v-28.962z" fill="#32b0e2"/><path d="m124 119.704c0-9.367-5.244-15.696-13.535-19.86l-5.184-2.882v27.038h18.719z" fill="#32b0e2"/><path d="m51.387 107.431 6.519-15.819-10.621-11.101-12.352 6.461z" fill="#e6e6e6"/><path d="m66.192 91.612 6.622 15.819 16.442-19.379-13.562-7.541z" fill="#e6e6e6"/><path d="m66.021 102.988 2.857-4.961-2.673-6.415h-8.287l-2.469 5.963 3.455 5.413z" fill="#cdcdcd"/><path d="m66.021 102.988h-7.117l-3.781 21.012h12.861z" fill="#e6e6e6"/><path d="m62.54 74.419c-.137 0-.273-.001-.41-.003-8.024-.081-15.095-5.299-17.656-12.904l-7.372-21.891c-.001-.002-.002-.003-.002-.005-3.686-5.484-.876-17.439 4.121-21.767 9.966-8.629 34.364-6.728 41.549.242 4.448 4.314 7.882 15.168 4.361 20.27-.001.002-.001.003-.002.005l-6.635 22.47c-2.356 7.978-9.637 13.601-17.954 13.583z" fill="#ffd169"/><path d="m77.739 5.193c3.977 2.975 7.643 7 10.147 11.501 3.864 6.945 3.486 15.606-.873 22.25l-1.562 5.133-8.575-13.208c-7.251 5.783-17.774 3.957-22.769-3.951-3.031-4.799-3.031-4.799-3.031-4.799l-12.526 21.958-3.134-8.039c-1.996-4.944-2.29-11.102-1.007-16.278.472-1.904 1.166-3.754 2.09-5.508 4.474-8.488 15.619-14.252 25.679-14.252.134 0 .267.001.401.003 3.88.059 7.456 2.118 9.536 5.394-.001 0 5.276-.464 5.624-.204z" fill="#e6e6e6"/><path d="m62.297 54.951c-2.754 0-5.105 1.415-6.065 3.415h-18.146c-1.298 0-2.354-1.046-2.354-2.332v-5.993c0-1.104-.896-2-2-2s-2 .896-2 2v5.993c0 3.492 2.85 6.332 6.354 6.332h18.147c.96 2 3.311 3.415 6.065 3.415 3.607 0 6.53-2.424 6.53-5.415 0-2.99-2.924-5.415-6.531-5.415z" fill="#fdbe4a"/><path d="m36.567 49.645h-4.273c-2.209 0-4-1.791-4-4v-8.533c0-2.209 1.791-4 4-4h4.273c2.209 0 4 1.791 4 4v8.533c0 2.209-1.791 4-4 4z" fill="#cdcdcd"/></svg>