<svg id="Layer_1" enable-background="new 0 0 124 124" height="512" viewBox="0 0 124 124" width="512" xmlns="http://www.w3.org/2000/svg"><path d="m120.395 2h-79.3c-1.991 0-3.605 1.608-3.605 3.591v100.559c0 1.983 1.614 3.591 3.605 3.591h79.3c1.991 0 3.605-1.608 3.605-3.591v-100.559c0-1.983-1.614-3.591-3.605-3.591z" fill="#e6e6e6"/><g fill="#cdcdcd"><path d="m111.234 17.468h-60.977c-1.104 0-2-.896-2-2s.896-2 2-2h60.978c1.104 0 2 .896 2 2s-.896 2-2.001 2z"/><path d="m111.234 33.629h-60.977c-1.104 0-2-.896-2-2s.896-2 2-2h60.978c1.104 0 2 .896 2 2s-.896 2-2.001 2z"/><path d="m111.234 49.791h-60.977c-1.104 0-2-.896-2-2s.896-2 2-2h60.978c1.104 0 2 .896 2 2s-.896 2-2.001 2z"/><path d="m111.234 65.952h-60.977c-1.104 0-2-.896-2-2s.896-2 2-2h60.978c1.104 0 2 .896 2 2s-.896 2-2.001 2z"/><path d="m110.333 82.113h-49.929c-1.104 0-2-.896-2-2s.896-2 2-2h49.929c1.104 0 2 .896 2 2s-.896 2-2 2z"/><path d="m110.333 98.274h-49.929c-1.104 0-2-.896-2-2s.896-2 2-2h49.929c1.104 0 2 .896 2 2s-.896 2-2 2z"/></g><path d="m50.4 102.786.84-6.372-5.573-.735c-.088-3.203-.936-6.256-2.388-8.959l4.465-3.439-3.893-5.098-4.465 3.439c-2.223-2.109-4.938-3.724-7.996-4.639l.738-5.597-6.345-.837-.738 5.597c-3.19.091-6.231.946-8.925 2.406l-3.421-4.48-5.079 3.913 3.421 4.48c-2.102 2.234-3.713 4.962-4.628 8.033l-5.573-.735-.84 6.372 5.573.735c.088 3.203.936 6.256 2.388 8.959l-4.465 3.439 3.893 5.098 4.465-3.439c2.223 2.109 4.938 3.724 7.996 4.639l-.738 5.596 6.344.838.738-5.596c3.19-.091 6.231-.946 8.925-2.406l3.421 4.48 5.081-3.914-3.421-4.48c2.102-2.234 3.713-4.962 4.628-8.033z" fill="#f16953"/><ellipse cx="25.62" cy="96.274" fill="#fff" rx="9.446" ry="9.407" transform="matrix(.131 -.991 .991 .131 -73.179 109.078)"/></svg>