<svg id="Layer_1" enable-background="new 0 0 124 124" height="512" viewBox="0 0 124 124" width="512" xmlns="http://www.w3.org/2000/svg"><path d="m81.621 22.249c-.362 1.043.19 2.183 1.234 2.545 14.442 5.012 24.145 18.515 24.145 33.6 0 19.639-16.229 35.617-36.176 35.617s-36.175-15.978-36.175-35.617c0-18.617 14.585-33.934 33.095-35.479-.683.59-1.73 1.228-2.034 2.117-.64 1.874 1.69 3.466 3.199 2.161l5.648-4.877c.914-.789.908-2.257-.013-3.039l-5.648-4.79c-.844-.715-2.105-.611-2.819.232-.715.842-.61 2.104.231 2.819l1.599 1.355c-20.795 1.48-37.259 18.624-37.259 39.501 0 21.845 18.022 39.617 40.175 39.617 22.155 0 40.177-17.772 40.177-39.617 0-16.788-10.783-31.809-26.834-37.379-1.041-.361-2.183.19-2.545 1.234z" fill="#e6e6e6"/><path d="m51.413 71.321v-2.064l2.662-2.562c6.409-6.04 9.304-9.251 9.341-12.997 0-2.523-1.235-4.856-4.979-4.856-2.279 0-4.171 1.147-5.328 2.103l-1.081-2.37c1.738-1.452 4.209-2.523 7.104-2.523 5.403 0 7.682 3.67 7.682 7.224 0 4.588-3.36 8.297-8.647 13.342l-2.008 1.835v.076h11.271v2.79h-16.017z" fill="#6a6967"/><path d="m84.62 71.321v-6.767h-11.657v-2.216l11.196-15.865h3.665v15.445h3.514v2.636h-3.514v6.767zm0-9.404v-8.295c0-1.301.038-2.601.116-3.9h-.116c-.77 1.454-1.389 2.523-2.084 3.67l-6.139 8.448v.078h8.223z" fill="#6a6967"/><path d="m87.044 119.321c3.775-1.219 5.837-7.076 4.445-10.718l-4.714-9.69c-4.632-9.153-7.62-17.395-22.439-11.791-4.203 1.337-10.708 7.688-17.302-2.988-5.371-8.878-14.744-31.18-9.974-40.132 2.576-5.054 8.617-5.674 11.928-6.275 11.57-2.044 11.92-12.54 9.35-22.438 0 0-2.207-8.248-3.007-10.932-1.199-3.835-5.146-4.844-9.393-4.16 0 0-18.86 2.52-28.21 19.846-6.694 12.425-6.637 25.224 2.488 56.137 4.561 15.264 15.473 39.976 43.183 47.193 5.937 1.265 8.509.939 23.645-4.052z" fill="#78af42"/></svg>