<svg id="Layer_1" enable-background="new 0 0 124 124" height="512" viewBox="0 0 124 124" width="512" xmlns="http://www.w3.org/2000/svg"><path d="m78.316 91.874v-9.254h-8.106c-.729-4.556-2.518-8.754-5.103-12.339l5.736-5.751-6.527-6.543-5.736 5.751c-3.576-2.592-7.763-4.385-12.307-5.116v-8.128h-9.23v8.128c-4.544.731-8.731 2.524-12.307 5.116l-5.736-5.75-6.527 6.543 5.736 5.751c-2.585 3.585-4.374 7.783-5.103 12.339h-8.106v9.254h8.107c.729 4.556 2.518 8.754 5.103 12.339l-5.736 5.751 6.526 6.542 5.736-5.751c3.576 2.592 7.763 4.385 12.307 5.116v8.128h9.23v-8.128c4.544-.731 8.731-2.524 12.307-5.116l5.736 5.751 6.527-6.543-5.736-5.751c2.585-3.585 4.374-7.783 5.103-12.339z" fill="#ffd169"/><ellipse cx="41.658" cy="87.248" fill="#fdbe4a" rx="13.566" ry="13.601"/><path d="m119 29.958v-6.7h-5.869c-.528-3.298-1.823-6.337-3.694-8.933l4.153-4.163-4.725-4.737-4.153 4.163c-2.589-1.876-5.62-3.175-8.91-3.704v-5.884h-6.682v5.884c-3.29.529-6.321 1.828-8.91 3.704l-4.153-4.163-4.725 4.737 4.153 4.163c-1.871 2.595-3.167 5.635-3.694 8.933h-5.869v6.7h5.869c.528 3.298 1.823 6.337 3.694 8.933l-4.153 4.163 4.725 4.737 4.153-4.163c2.589 1.876 5.62 3.175 8.91 3.704v5.884h6.682v-5.884c3.29-.529 6.321-1.828 8.91-3.704l4.153 4.163 4.725-4.737-4.153-4.163c1.871-2.595 3.167-5.635 3.694-8.933z" fill="#5ab8ec"/><ellipse cx="92.46" cy="26.608" fill="#30ade0" rx="9.822" ry="9.847"/></svg>