<svg id="Layer_1" enable-background="new 0 0 123.991 123.991" height="512" viewBox="0 0 123.991 123.991" width="512" xmlns="http://www.w3.org/2000/svg"><g fill="#cdcdcd"><path d="m42.903 49.654c-1.104 0-2 .896-2 2v38.225h-33.282l2.76-2.75c.783-.78.785-2.046.005-2.829-.779-.781-2.045-.784-2.828-.005l-5.964 5.943c-1.027 1.025-.686 2.958.679 3.498l5.868 5.74c1.848 1.809 4.632-1.064 2.797-2.859l-2.798-2.737h34.764c1.104 0 2-.896 2-2v-40.226c-.001-1.104-.896-2-2.001-2z"/><path d="m122.417 90.238-5.964-5.943c-.783-.78-2.049-.777-2.828.005-.78.783-.778 2.049.005 2.829l2.76 2.75h-38.903v-38.225c0-1.104-.896-2-2-2s-2 .896-2 2v40.225c0 1.104.896 2 2 2h40.384l-2.798 2.737c-1.833 1.793.945 4.672 2.797 2.859l6.534-6.391c.783-.765.789-2.072.013-2.846z"/><path d="m66.841 114.155c-.778-.785-2.044-.789-2.829-.012l-2.817 2.795v-64.785c0-1.104-.896-2-2-2s-2 .896-2 2v65.334l-2.866-2.817c-.787-.773-2.054-.762-2.828.024-.774.788-.763 2.055.024 2.829l6.006 5.902c.769.754 2.045.752 2.811-.007l6.488-6.437c.784-.776.789-2.042.011-2.826-.778-.785.778.784 0 0z"/></g><path d="m98.544 24.944c-2.322-2.763-5.574-4.854-9.135-5.825-.386-10.605-9.444-19.119-20.591-19.119-4.722 0-9.29 1.568-12.928 4.406-3.097 2.465-5.496 5.751-6.658 9.41-1.626-.597-3.406-.971-5.187-.971-7.664 0-13.857 5.975-13.934 13.368-5.264 2.315-8.748 7.468-8.748 13.069 0 7.916 6.658 14.414 14.941 14.414h48.074c10.064 0 18.27-7.916 18.27-17.625-.001-4.107-1.472-8.065-4.104-11.127z" fill="#30ade0"/></svg>