<svg id="Layer_1" enable-background="new 0 0 124.014 124.014" height="512" viewBox="0 0 124.014 124.014" width="512" xmlns="http://www.w3.org/2000/svg"><g fill="#cdcdcd"><path d="m49.412 7.434c.262-.935-.212-1.97-1.108-2.366l-11.026-4.89c-1.007-.448-2.191.008-2.639 1.018s.008 2.191 1.018 2.639l6.231 2.764c-17.785 6.604-31.536 21.607-36.491 40.232-.284 1.067.351 2.163 1.418 2.447.172.046.345.068.516.068.884 0 1.693-.592 1.931-1.486 4.674-17.568 17.737-31.678 34.593-37.721l-3.551 7.954c-1.046 2.344 2.595 3.998 3.652 1.631l5.364-12.012c.031-.093.061-.185.092-.278.262-.935-.031.093 0 0z"/><path d="m122.815 34.406c-1.012-.443-2.191.018-2.634 1.031l-2.725 6.233c-6.565-17.887-21.456-31.717-39.94-36.704-1.063-.284-2.164.343-2.452 1.409s.344 2.165 1.41 2.452c17.445 4.708 31.458 17.871 37.455 34.858l-7.872-3.565c-1.008-.455-2.191-.009-2.647.997-.456 1.007-.009 2.191.997 2.647l11.927 5.4c.995.448 2.219-.016 2.658-1.021l4.855-11.104c.442-1.012-.02-2.19-1.032-2.633s1.012.443 0 0z"/><path d="m117.678 75.106c-1.066-.283-2.163.351-2.447 1.419-4.703 17.7-17.917 31.895-34.953 37.867l2.796-7.563c.383-1.036-.146-2.187-1.183-2.569-1.034-.385-2.187.146-2.569 1.183l-4.204 11.37c-.379 1.01.184 2.265 1.236 2.589l12.242 4.483c.227.083.459.123.688.123.815-.001 1.582-.503 1.878-1.313.38-1.037-.153-2.186-1.19-2.565l-6.858-2.511c17.545-6.702 31.08-21.608 35.983-40.065.284-1.069-.352-2.164-1.419-2.448-1.066-.283 1.067.284 0 0z"/><path d="m48.017 115.577c-17.206-4.643-31.105-17.549-37.227-34.224l7.353 3.784c.979.503 2.187.118 2.693-.863.505-.981.119-2.188-.863-2.693l-11.645-5.993c-.97-.5-2.219-.09-2.706.887l-5.399 10.846c-1.145 2.301 2.429 4.097 3.581 1.783l3.206-6.441c6.554 17.916 21.48 31.788 39.964 36.775.174.047.35.07.522.07.881 0 1.689-.588 1.93-1.479.288-1.066-.343-2.165-1.409-2.452-17.206-4.642 1.066.287 0 0z"/></g><circle cx="62.014" cy="62.007" fill="#78af42" r="25"/></svg>