<svg id="Layer_1" enable-background="new 0 0 124 124" height="512" viewBox="0 0 124 124" width="512" xmlns="http://www.w3.org/2000/svg"><path d="m0 80.422v13.561c0 3.23 2.607 5.86 5.811 5.86h112.341c3.241 0 5.848-2.629 5.848-5.898v-13.523z" fill="#cdcdcd"/><path d="m118.189 3h-112.378c-3.204 0-5.811 2.629-5.811 5.86v71.562h124v-71.562c0-3.231-2.607-5.86-5.811-5.86zm-.443 71.152h-111.492v-64.882h111.492z" fill="#30ade0"/><path d="m6.254 9.272h111.493v64.877h-111.493z" fill="#fff"/><path d="m86.23 117h-22.23v-17.157c0-1.104-.896-2-2-2s-2 .896-2 2v17.157h-22.23c-1.104 0-2 .896-2 2s.896 2 2 2h48.46c1.104 0 2-.896 2-2s-.895-2-2-2z" fill="#cdcdcd"/><path d="m30.189 57.107c-.536 0-1.071-.215-1.465-.638-.752-.81-.706-2.075.103-2.827l13.539-12.59c.809-.753 2.074-.706 2.827.103.752.81.706 2.075-.103 2.827l-13.54 12.59c-.385.359-.874.535-1.361.535z" fill="#ffd169"/><path d="m71.829 40.753h-19.912c-1.104 0-2-.896-2-2s.896-2 2-2h19.912c1.104 0 2 .896 2 2s-.895 2-2 2z" fill="#ffd169"/><path d="m80.245 39.237c-.6 0-1.192-.269-1.587-.781-.673-.876-.509-2.131.367-2.805l14.046-10.798c.875-.673 2.13-.51 2.805.367.673.876.509 2.131-.367 2.805l-14.046 10.798c-.363.28-.792.414-1.218.414z" fill="#ffd169"/><g fill="#fdbe4a"><ellipse cx="26.857" cy="58.843" rx="7.296" ry="7.315"/><ellipse cx="47.54" cy="39.322" rx="7.296" ry="7.315"/><ellipse cx="75.924" cy="38.895" rx="7.296" ry="7.315"/><ellipse cx="97.143" cy="22.761" rx="7.296" ry="7.315"/></g></svg>