<svg id="Layer_1" enable-background="new 0 0 124.001 124.001" height="512" viewBox="0 0 124.001 124.001" width="512" xmlns="http://www.w3.org/2000/svg"><path d="m5.001 55.618v68.383h108.284v-68.383h-14.366v-30.551h-8.978l-8.979 30.551h-10.774v-30.551h-8.979l-8.978 30.551z" fill="#e6e6e6"/><path d="m67.821 8.862c-1.681 0-2.605-2.05-1.508-3.313 3.411-3.919 6.78-5.788 10.071-5.524 2.277.178 3.764 1.281 5.075 2.256 1.043.774 1.943 1.443 3.219 1.636 2.109.317 4.564-.746 7.296-3.155.828-.729 2.092-.651 2.823.177.73.828.651 2.093-.177 2.823-3.659 3.228-7.202 4.616-10.537 4.11-2.264-.34-3.786-1.471-5.009-2.38-1.196-.889-1.925-1.395-3.001-1.479-2.417-.173-5.001 2.161-6.743 4.163-.395.454-.951.686-1.509.686z" fill="#6a6967"/><path d="m91.524 18.722c-1.681 0-2.606-2.05-1.508-3.313 3.412-3.92 6.782-5.786 10.071-5.525 2.278.178 3.765 1.282 5.076 2.257 1.043.774 1.944 1.443 3.219 1.636 2.11.314 4.564-.746 7.295-3.155.828-.732 2.093-.652 2.822.176.731.828.652 2.092-.176 2.822-3.659 3.23-7.205 4.62-10.536 4.112-2.264-.34-3.786-1.472-5.009-2.38-1.196-.889-1.926-1.396-3.002-1.479-2.396-.178-4.999 2.161-6.743 4.164-.395.452-.95.685-1.509.685z" fill="#6a6967"/><g fill="#f16953"><path d="m20.255 68.772h14.88v14.929h-14.88z"/><path d="m20.255 97.004h14.88v14.929h-14.88z"/><path d="m52.233 68.772h14.88v14.929h-14.88z"/><path d="m52.233 97.004h14.88v14.929h-14.88z"/><path d="m84.211 68.772h14.88v14.929h-14.88z"/><path d="m84.211 97.004h14.88v14.929h-14.88z"/></g></svg>