<svg id="Layer_1" enable-background="new 0 0 124 124" height="512" viewBox="0 0 124 124" width="512" xmlns="http://www.w3.org/2000/svg"><path d="m114.813 57.144h-50.813v-21.001c0-1.104-.896-2-2-2s-2 .896-2 2v21.001h-50.813c-1.104 0-2 .896-2 2v30.831c0 1.104.896 2 2 2s2-.896 2-2v-28.831h48.813v29.108c0 1.104.896 2 2 2s2-.896 2-2v-29.108h48.813v28.831c0 1.104.896 2 2 2s2-.896 2-2v-30.831c0-1.105-.895-2-2-2z" fill="#e6e6e6"/><ellipse cx="62" cy="26.419" fill="#30ade0" rx="10.208" ry="10.419"/><g fill="#fdbe4a"><ellipse cx="62" cy="98.623" rx="9.187" ry="9.377"/><ellipse cx="114.813" cy="98.623" rx="9.187" ry="9.377"/><ellipse cx="9.187" cy="98.623" rx="9.187" ry="9.377"/></g></svg>