<svg id="Layer_1" enable-background="new 0 0 124 124" height="512" viewBox="0 0 124 124" width="512" xmlns="http://www.w3.org/2000/svg"><path d="m27.046 100.428v7.583c0 1.806 1.47 3.277 3.276 3.277h63.334c1.827 0 3.297-1.47 3.297-3.298v-7.562z" fill="#cdcdcd"/><path d="m93.678 57.136h-63.356c-1.806 0-3.276 1.47-3.276 3.277v40.016h69.907v-40.017c.001-1.806-1.469-3.276-3.275-3.276zm-2.286 37.761h-58.783v-32.23h58.783z" fill="#30ade0"/><path d="m32.606 62.667h58.786v32.229h-58.786z" fill="#fff"/><path d="m75.66 120h-11.66v-8.712c0-1.104-.896-2-2-2s-2 .896-2 2v8.712h-11.66c-1.104 0-2 .896-2 2s.896 2 2 2h27.32c1.104 0 2-.896 2-2s-.895-2-2-2z" fill="#cdcdcd"/><path d="m55.774 54.086c-1.104 0-2-.896-2-2v-23.977h-11.801c-1.104 0-2-.896-2-2s.896-2 2-2h13.802c1.104 0 2 .896 2 2v25.977c-.001 1.104-.896 2-2.001 2z" fill="#e6e6e6"/><path d="m67.912 54.086c-1.104 0-2-.896-2-2v-25.977c0-1.104.896-2 2-2h13.802c1.104 0 2 .896 2 2s-.896 2-2 2h-11.802v23.977c0 1.104-.896 2-2 2z" fill="#e6e6e6"/><path d="m119.968 36.091h-28.963v-6.498c0-7.44 5.812-13.467 12.988-13.467h3.02c7.176 0 12.988 6.026 12.988 13.467v6.498z" fill="#78af42"/><ellipse cx="105.486" cy="9.528" fill="#ffd169" rx="9.124" ry="9.528"/><path d="m32.962 36.091h-28.962v-6.498c0-7.44 5.812-13.467 12.988-13.467h3.02c7.176 0 12.988 6.026 12.988 13.467v6.498z" fill="#78af42"/><ellipse cx="18.481" cy="9.528" fill="#ffd169" rx="9.124" ry="9.528"/></svg>