<svg id="Layer_1" enable-background="new 0 0 124 124" height="512" viewBox="0 0 124 124" width="512" xmlns="http://www.w3.org/2000/svg"><path d="m119.919 57.523c.654 16.798-7.313 29.723-11.445 35.478 4.509 10.333 9.017 20.667 13.526 31-10.972-4.349-21.945-8.698-32.917-13.046-6.025 3.22-15.793 7.242-27.777 6.846-26.488-.876-59.305-23.186-59.306-58.901-.001-32.334 26.898-59.083 59.306-58.899 34.247.195 57.556 30.368 58.613 57.522z" fill="#99cf6c"/><path d="m97.252 62.965v-9.217h-8.107c-.729-4.538-2.518-8.719-5.103-12.289l5.736-5.728-6.526-6.517-5.736 5.728c-3.576-2.581-7.763-4.368-12.307-5.096v-8.096h-9.23v8.095c-4.544.728-8.731 2.514-12.307 5.096l-5.736-5.728-6.526 6.517 5.736 5.728c-2.585 3.571-4.374 7.752-5.103 12.289h-8.107v9.217h8.107c.729 4.538 2.518 8.719 5.103 12.29l-5.736 5.728 6.526 6.517 5.736-5.728c3.576 2.581 7.763 4.368 12.307 5.096v8.095h9.23v-8.095c4.544-.728 8.731-2.514 12.307-5.096l5.736 5.728 6.526-6.517-5.736-5.728c2.585-3.571 4.374-7.752 5.103-12.29h8.107z" fill="#fff"/><ellipse cx="60.595" cy="58.357" fill="#78af42" rx="13.566" ry="13.547"/></svg>