<svg id="Layer_1" enable-background="new 0 0 124 124" height="512" viewBox="0 0 124 124" width="512" xmlns="http://www.w3.org/2000/svg"><path d="m0 0h124v28.477h-124z" fill="#ffde93"/><path d="m0 28.477h124v95.523h-124z" fill="#dfe8f4"/><g fill="#4d28a8"><path d="m66.227 16.534h-59.519c-1.104 0-2-.896-2-2s.896-2 2-2h59.519c1.104 0 2 .896 2 2s-.895 2-2 2z"/><circle cx="80.758" cy="14.534" r="4.133"/><circle cx="95.159" cy="14.534" r="4.133"/><circle cx="109.561" cy="14.534" r="4.133"/></g><path d="m86.167 57.008s-12.544-7.408-24.155-7.408-24.166 7.408-24.166 7.408c-.841 38.883 24.16 47.794 24.16 47.794s23.809-11.338 24.164-45.72c.002-.038.008-1.435-.003-2.074z" fill="#27a88f"/><path d="m37.847 57.008c-.838 38.76 23.996 47.734 24.153 47.791v-55.199c-11.607.006-24.153 7.408-24.153 7.408z" fill="#52efbb"/><path d="m57.878 84.33-6.027-4.352c-.896-.647-1.097-1.897-.451-2.792s1.897-1.096 2.792-.451l4.583 3.31 11.21-12.25c.746-.815 2.011-.87 2.826-.125.815.746.871 2.011.125 2.826l-12.411 13.562c-.525.775-1.692.942-2.647.272z" fill="#fff"/></svg>