<svg id="Layer_1" enable-background="new 0 0 124 124" height="512" viewBox="0 0 124 124" width="512" xmlns="http://www.w3.org/2000/svg"><path d="m24 119.662c0 2.433 2.057 4.338 4.439 4.338h67.122c2.49 0 4.439-1.904 4.439-4.338v-19.044h-76z" fill="#0795ff"/><path d="m95.561 0h-67.122c-2.49 0-4.439 2.01-4.439 4.338v12.696h76v-12.696c0-2.434-2.057-4.338-4.439-4.338z" fill="#3eb6ff"/><g fill="#dfe8f4"><path d="m24 100.089v.529h76v-83.584h-76z"/><path d="m56.587 8.358h10.934"/><path d="m67.521 10.358h-10.934c-1.104 0-2-.896-2-2s.896-2 2-2h10.935c1.104 0 2 .896 2 2s-.896 2-2.001 2z"/><ellipse cx="62.108" cy="112.468" rx="4.764" ry="4.655"/></g><path d="m36.813 78.901 22.056-37.335c1.392-2.355 4.87-2.355 6.262 0l22.056 37.335c1.392 2.355-.348 5.3-3.131 5.3h-44.112c-2.783 0-4.523-2.945-3.131-5.3z" fill="#ff2407"/><path d="m58.869 41.566-22.056 37.335c-1.392 2.355.348 5.3 3.131 5.3h22.063v-44.401c-1.22-.002-2.441.586-3.138 1.766z" fill="#ff4945"/><path d="m62 69.899c-1.104 0-2-.896-2-2v-14.179c0-1.104.896-2 2-2s2 .896 2 2v14.179c0 1.104-.896 2-2 2z" fill="#dfe8f4"/><circle cx="62" cy="75.195" fill="#dfe8f4" r="2.5"/></svg>