<svg id="Layer_1" enable-background="new 0 0 124 124" height="512" viewBox="0 0 124 124" width="512" xmlns="http://www.w3.org/2000/svg"><path d="m83.646 60.491c4.1-4.941 6.326-11.261 6.326-17.695 0-15.627-38.426-45.273-37.371-42.63 3.983 11.031-2.109 17.925-8.435 25.279-4.569 5.171-9.255 10.571-9.255 17.236 0 6.55 2.226 12.754 6.32 17.745l42.409.114z" fill="#ffde93"/><path d="m50.525 60.429c-2.376-2.696-3.665-6.258-3.665-9.82 0-8.733 21.673-25.279 21.087-23.785-2.226 6.205 1.172 9.997 4.803 14.133 2.577 2.873 5.155 5.86 5.155 9.652 0 3.677-1.289 7.124-3.599 9.82z" fill="#ffbb1b"/><g fill="#ff2407"><path d="m73.143 62.613-.027 18.757h42.267v-18.777z"/><path d="m68.873 81.37v-18.768l-37.084-.071-.027 18.839z"/><path d="m91.389 85.574h23.994v15.905h-23.994z"/><path d="m72.528 105.682h42.972v18.318h-42.972z"/><path d="m52.26 85.574h34.889v15.905h-34.889z"/><path d="m33.751 105.682h34.537v18.318h-34.537z"/></g><path d="m26.549 62.537-18.049.05v18.783h18.022z" fill="#ff4945"/><path d="m8.5 85.574h38.52v15.905h-38.52z" fill="#ff4945"/><path d="m8.5 105.682h20.011v18.318h-20.011z" fill="#ff4945"/><path d="m31.789 62.531-.027 18.839h30.738v-18.785z" fill="#ff4945"/><path d="m33.751 105.682h28.749v18.318h-28.749z" fill="#ff4945"/><path d="m52.26 85.574h10.24v15.905h-10.24z" fill="#ff4945"/></svg>