<svg id="Layer_1" enable-background="new 0 0 124 124" height="512" viewBox="0 0 124 124" width="512" xmlns="http://www.w3.org/2000/svg"><path d="m98.828 19h-93.828c-2.761 0-5 2.239-5 5v55.045c0 2.761 2.239 5 5 5h93.828c2.761 0 5-2.239 5-5v-55.045c0-2.761-2.239-5-5-5z" fill="#dfe8f4"/><g fill="#4d28a8"><path d="m47.419 72.86h-11.87c-1.104 0-2-.896-2-2s.896-2 2-2h11.87c1.104 0 2 .896 2 2s-.896 2-2 2z"/><path d="m24.866 72.86h-11.87c-1.104 0-2-.896-2-2s.896-2 2-2h11.87c1.104 0 2 .896 2 2s-.895 2-2 2z"/><path d="m69.971 72.86h-11.87c-1.104 0-2-.896-2-2s.896-2 2-2h11.87c1.104 0 2 .896 2 2s-.896 2-2 2z"/></g><path d="m15.15 59.456h15.146c1.657 0 3-1.343 3-3v-6.909c0-1.657-1.343-3-3-3h-15.146c-1.657 0-3 1.343-3 3v6.909c0 1.657 1.344 3 3 3z" fill="#623add"/><path d="m123.995 64.931s-10.604-6.211-20.419-6.211-20.428 6.211-20.428 6.211c-.712 32.599 20.423 40.069 20.423 40.069s20.127-9.505 20.427-38.331c.001-.031.006-1.202-.003-1.738z" fill="#0795ff"/><path d="m83.147 64.931c-.709 32.496 20.285 40.02 20.418 40.067v-46.278c-9.812.005-20.418 6.211-20.418 6.211z" fill="#3eb6ff"/><path d="m99.906 88.103-5.095-3.648c-.898-.643-1.105-1.893-.462-2.791s1.893-1.106 2.79-.461l3.659 2.62 9.295-10.073c.75-.811 2.014-.862 2.826-.113s.862 2.014.113 2.826l-10.492 11.37c-.353.792-1.853.73-2.634.27z" fill="#fff"/></svg>