<svg id="Layer_1" enable-background="new 0 0 124 124" height="512" viewBox="0 0 124 124" width="512" xmlns="http://www.w3.org/2000/svg"><path d="m62.523 0c-18.359 0-33.295 15.042-33.295 33.531v16.92h4.183v-16.92c0-16.172 13.059-29.329 29.111-29.329 16.117 0 29.229 13.21 29.229 29.435l-.1 16.813h4.184l.099-16.801c.002-18.554-14.987-33.649-33.411-33.649z" fill="#4d28a8"/><path d="m29.228 33.531v16.92h4.183v-16.92c0-16.172 13.059-29.329 29.111-29.329v-4.202c-18.358 0-33.294 15.042-33.294 33.531z" fill="#623add"/><path d="m18.014 57.701v57.997c0 4.626 3.65 8.302 8.242 8.302h72.532c4.592 0 8.242-3.677 8.242-8.302v-57.997c0-4.626-3.65-8.302-8.242-8.302h-72.531c-4.592-.001-8.243 3.676-8.243 8.302z" fill="#dfe8f4"/><path d="m6.046 70.65h112.954v30.438h-112.954z" fill="#ffbb1b"/><path d="m5 70.65h56.477v30.438h-56.477z" fill="#ffde93"/><path d="m35.114 88.002-3.362-2.304 3.352-2.32c.908-.628 1.135-1.875.506-2.783s-1.875-1.134-2.783-.506l-2.602 1.801v-3.177c0-1.104-.896-2-2-2s-2 .896-2 2v3.197l-2.627-1.8c-.911-.624-2.155-.392-2.781.519-.625.911-.392 2.156.519 2.781l3.362 2.304-3.352 2.32c-.908.628-1.135 1.875-.506 2.783.619.894 1.887 1.126 2.783.506l2.602-1.801v3.178c0 1.104.896 2 2 2s2-.896 2-2v-3.198l2.627 1.8c.898.615 2.166.378 2.781-.519.624-.911.392-2.156-.519-2.781z" fill="#ff4945"/><path d="m57.63 88.002-3.362-2.304 3.352-2.32c.908-.628 1.135-1.875.506-2.783s-1.875-1.134-2.783-.506l-2.602 1.801v-3.177c0-1.104-.896-2-2-2s-2 .896-2 2v3.197l-2.627-1.8c-.911-.624-2.155-.392-2.781.519-.625.911-.392 2.156.519 2.781l3.362 2.304-3.352 2.32c-.908.628-1.135 1.875-.506 2.783.619.894 1.887 1.126 2.783.506l2.602-1.801v3.178c0 1.104.896 2 2 2s2-.896 2-2v-3.198l2.627 1.8c.898.615 2.166.378 2.781-.519.625-.911.393-2.156-.519-2.781z" fill="#ff4945"/><g fill="#ff2407"><path d="m80.147 88.002-3.362-2.304 3.352-2.32c.908-.628 1.135-1.875.506-2.783-.628-.908-1.875-1.134-2.783-.506l-2.602 1.801v-3.177c0-1.104-.896-2-2-2s-2 .896-2 2v3.197l-2.627-1.8c-.911-.624-2.155-.392-2.781.519-.625.911-.392 2.156.519 2.781l3.362 2.304-3.352 2.32c-.908.628-1.135 1.875-.506 2.783.619.894 1.887 1.126 2.783.506l2.602-1.801v3.178c0 1.104.896 2 2 2s2-.896 2-2v-3.198l2.627 1.8c.898.615 2.166.378 2.781-.519.625-.911.392-2.156-.519-2.781z"/><path d="m102.664 88.002-3.362-2.304 3.352-2.32c.908-.628 1.135-1.875.506-2.783-.628-.908-1.875-1.134-2.783-.506l-2.602 1.801v-3.177c0-1.104-.896-2-2-2s-2 .896-2 2v3.197l-2.627-1.8c-.911-.624-2.155-.392-2.781.519-.625.911-.392 2.156.519 2.781l3.362 2.304-3.352 2.32c-.908.628-1.135 1.875-.506 2.783.619.894 1.887 1.126 2.783.506l2.602-1.801v3.178c0 1.104.896 2 2 2s2-.896 2-2v-3.198l2.627 1.8c.898.615 2.166.378 2.781-.519.624-.911.392-2.156-.519-2.781z"/></g></svg>