<svg id="Layer_1" enable-background="new 0 0 124 124" height="512" viewBox="0 0 124 124" width="512" xmlns="http://www.w3.org/2000/svg"><path d="m115.986 16.64s-28.021-16.64-53.957-16.64c-25.937 0-53.983 16.64-53.983 16.64-1.878 87.344 53.97 107.36 53.97 107.36s53.186-25.468 53.978-102.702c.003-.084.016-3.221-.008-4.658z" fill="#dfe8f4"/><path d="m73.938 15.956h-23.876c-2.761 0-5 2.239-5 5v20.194c0 2.761 2.239 5 5 5h23.875c2.761 0 5-2.239 5-5v-20.194c.001-2.761-2.238-5-4.999-5z" fill="#0795ff"/><path d="m70.91 46.151v22.284l-4.548 5.489 4.548 5.225-4.548 5.146 4.548 5.145-4.548 5.146 4.548 4.512-9.123 8.946-9.122-8.946v-52.947z" fill="#3eb6ff"/><path d="m69.308 33.054h-14.616c-1.104 0-2-.896-2-2s.896-2 2-2h14.616c1.104 0 2 .896 2 2s-.895 2-2 2z" fill="#fff"/></svg>