<svg id="Layer_1" enable-background="new 0 0 124 124" height="512" viewBox="0 0 124 124" width="512" xmlns="http://www.w3.org/2000/svg"><path d="m62 124c-14.912 0-27-12.088-27-27v-66.297h54v66.297c0 14.912-12.088 27-27 27z" fill="#dfe8f4"/><path d="m44.327 0h35.345v30.703h-35.345z" fill="#ff4945"/><path d="m56.834 16.011h-3.331c-.801 0-1.45-.646-1.45-1.443v-3.314c0-.797.649-1.443 1.45-1.443h3.331c.801 0 1.45.646 1.45 1.443v3.314c0 .797-.649 1.443-1.45 1.443z" fill="#fff"/><path d="m70.497 16.011h-3.331c-.801 0-1.45-.646-1.45-1.443v-3.314c0-.797.649-1.443 1.45-1.443h3.331c.801 0 1.45.646 1.45 1.443v3.314c0 .797-.649 1.443-1.45 1.443z" fill="#fff"/><path d="m70.285 40.756h-16.57c-2.761 0-5 2.239-5 5v14.395c0 2.761 2.239 5 5 5h16.571c2.761 0 5-2.239 5-5v-14.395c-.001-2.761-2.239-5-5.001-5z" fill="#0795ff"/><path d="m68.989 65.151v18.005l-3.568 4.434 3.568 4.222-3.568 4.157 3.568 4.157-3.568 4.157 3.568 3.646-7.156 7.227-7.156-7.227v-42.778z" fill="#3eb6ff"/><path d="m66.797 54.954h-9.594c-1.104 0-2-.896-2-2s.896-2 2-2h9.594c1.104 0 2 .896 2 2s-.896 2-2 2z" fill="#fff"/></svg>