<svg id="Layer_1" enable-background="new 0 0 124 124" height="512" viewBox="0 0 124 124" width="512" xmlns="http://www.w3.org/2000/svg"><path d="m114.398 49.344-1.215.841-51.239 36.379-52.157-37.437c-1.099 1.202-1.787 2.763-1.787 4.493v63.569c0 3.762 3.154 6.811 7.043 6.811h93.913c3.89 0 7.043-3.049 7.043-6.811v-63.569c.001-1.629-.615-3.104-1.601-4.276z" fill="#ffde93"/><g fill="#ffbb1b"><path d="m43.532 92.758c-.776-.839-2.09-.897-2.935-.123l-31.232 28.571c.856 1.13 2.06 1.995 3.464 2.445l30.579-27.973c.845-.772.9-2.08.124-2.92z"/><path d="m114.912 120.815-30.805-28.179c-.844-.773-2.159-.716-2.935.123-.776.84-.721 2.147.124 2.92l30.383 27.793c1.341-.544 2.465-1.481 3.233-2.657z"/><path d="m113.183 50.185.918-1.189c-1.287-1.338-51.829-48.996-51.829-48.996s-51.194 47.717-52.485 49.127l52.157 37.436z"/></g><path d="m22.107 14.75v43.521l39.837 28.293 40.103-28.674-.154-43.14z" fill="#dfe8f4"/><path d="m82.763 31.638s-10.777-6.468-20.752-6.468-20.762 6.468-20.762 6.468c-.723 33.949 20.757 41.729 20.757 41.729s20.455-9.899 20.76-39.918c.001-.033.006-1.253-.003-1.811z" fill="#27a88f"/><path d="m62.011 25.17c-9.975 0-20.762 6.468-20.762 6.468-.723 33.949 20.757 41.729 20.757 41.729s.026-.013.071-.036v-48.159c-.022 0-.044-.002-.066-.002z" fill="#52efbb"/><path d="m58.822 55.187-5.178-3.8c-.891-.653-1.082-1.905-.429-2.795s1.905-1.083 2.796-.429l3.719 2.729 9.453-10.498c.737-.82 2.004-.888 2.824-.148.821.739.888 2.004.148 2.825l-10.663 11.842c-.409.551-1.659.837-2.67.274z" fill="#fff"/></svg>