<svg id="Layer_1" enable-background="new 0 0 124 124" height="512" viewBox="0 0 124 124" width="512" xmlns="http://www.w3.org/2000/svg"><path d="m63.283 32.611c1.948 0 3.853.18 5.708.508l-.021-.712c0-3.81-3.197-7.054-6.98-7.054s-6.98 2.933-6.98 6.744v1.506c2.654-.642 5.422-.992 8.273-.992z" fill="#dfe8f4"/><path d="m62.627 30.578h1.136c17.847 0 32.315 14.468 32.315 32.315v40.693h-68.157v-38.302c0-19.168 15.539-34.706 34.706-34.706z" fill="#ff2407"/><path d="m27.921 65.862v37.725h34.079v-72.978c-18.928.642-34.079 16.174-34.079 35.253z" fill="#ff4945"/><path d="m40.703 103.587c-.094 11.424 8.83 20.413 19.839 20.413s19.933-8.989 20.027-20.413z" fill="#ffbb1b"/><path d="m103.415 105.587h-85.699c-1.104 0-2-.896-2-2s.896-2 2-2h85.699c1.104 0 2 .896 2 2s-.895 2-2 2z" fill="#ff2407"/><path d="m75.983 67.539h-11.983v-12.082c0-1.104-.896-2-2-2s-2 .896-2 2v12.083h-11.982c-1.104 0-2 .896-2 2s.896 2 2 2h11.982v12.083c0 1.104.896 2 2 2s2-.896 2-2v-12.084h11.982c1.104 0 2-.896 2-2s-.895-2-1.999-2z" fill="#dfe8f4"/><path d="m61.799 17.714c-1.104 0-2-.896-2-2v-13.714c0-1.104.896-2 2-2s2 .896 2 2v13.714c0 1.104-.896 2-2 2z" fill="#4d28a8"/><path d="m34.022 25.429c-.693 0-1.367-.361-1.737-1.006l-6.808-11.877c-.549-.958-.218-2.181.741-2.73s2.18-.216 2.729.741l6.808 11.877c.748 1.306-.216 2.995-1.733 2.995z" fill="#623add"/><path d="m13.79 46.099c-.341 0-.688-.087-1.003-.271l-11.792-6.858c-.955-.555-1.279-1.779-.724-2.734.555-.954 1.78-1.279 2.733-.724l11.792 6.857c1.723 1.001.987 3.73-1.006 3.73z" fill="#4d28a8"/><path d="m110.21 45.397c-1.991 0-2.731-2.727-1.007-3.729l11.792-6.857c.952-.557 2.179-.231 2.733.724.556.955.231 2.179-.724 2.734l-11.792 6.857c-.314.184-.661.271-1.002.271z" fill="#4d28a8"/><path d="m89.684 25.024c-1.517 0-2.482-1.689-1.733-2.995l6.809-11.876c.55-.958 1.769-1.291 2.73-.74.958.549 1.289 1.771.74 2.729l-6.809 11.876c-.37.644-1.044 1.006-1.737 1.006z" fill="#623add"/></svg>