<svg id="Layer_1" enable-background="new 0 0 124 124" height="512" viewBox="0 0 124 124" width="512" xmlns="http://www.w3.org/2000/svg"><path d="m115.986 16.64s-28.021-16.64-53.957-16.64c-25.937 0-53.983 16.64-53.983 16.64-1.878 87.344 53.97 107.36 53.97 107.36s53.186-25.468 53.978-102.702c.003-.084.016-3.221-.008-4.658z" fill="#ffbb1b"/><path d="m8.046 16.64c-1.866 86.8 53.266 107.104 53.954 107.354v-123.993c-25.928.012-53.954 16.639-53.954 16.639z" fill="#ffde93"/><ellipse cx="62" cy="56" fill="#fff" rx="21.55" ry="21.277"/><path d="m63.271 54.167c-3.252-1.345-4.244-2.231-4.244-3.79 0-1.275.912-2.764 3.481-2.764 2.298 0 3.738.824 4.353 1.175l.318.182 1.118-2.951-.228-.134c-1.307-.766-2.781-1.186-4.499-1.282v-3.483h-2.843v3.663c-3.292.638-5.403 2.978-5.403 6.023 0 3.594 2.932 5.239 6.098 6.479 2.733 1.109 3.848 2.259 3.848 3.969 0 1.88-1.622 3.194-3.945 3.194-1.75 0-3.565-.542-4.979-1.486l-.333-.222-1.072 2.998.192.137c1.271.909 3.34 1.533 5.344 1.624v3.622h2.879v-3.772c3.903-.758 5.653-3.708 5.653-6.345.001-3.152-1.716-5.196-5.738-6.837z" fill="#4d28a8"/></svg>