<svg id="Layer_1" enable-background="new 0 0 124 124" height="512" viewBox="0 0 124 124" width="512" xmlns="http://www.w3.org/2000/svg"><path d="m107.333 20.695s-26.555-16.012-51.133-16.012-51.156 16.012-51.156 16.012c-1.78 84.045 51.145 103.305 51.145 103.305s50.402-24.506 51.152-98.823c.002-.081.015-3.1-.008-4.482z" fill="#dfe8f4"/><path d="m82.799 84.601h-55.53v-6.697c0-14.844 12.034-26.878 26.878-26.878h1.775c14.844 0 26.878 12.034 26.878 26.878v6.697z" fill="#ff4945"/><ellipse cx="55.033" cy="40.74" fill="#ff2407" rx="16.611" ry="16.544"/><ellipse cx="102.505" cy="16.71" fill="#27a88f" rx="16.495" ry="16.71"/><path d="m86.011 16.71c0 9.229 7.385 16.71 16.495 16.71v-33.42c-9.11 0-16.495 7.481-16.495 16.71z" fill="#52efbb"/><path d="m98.513 23.804-4.456-3.219c-.896-.647-1.097-1.897-.45-2.792.646-.895 1.897-1.098 2.792-.45l3.019 2.18 8.896-9.642c.75-.81 2.014-.863 2.826-.113.812.749.862 2.014.113 2.826l-10.1 10.946c-.466.656-1.528 1.023-2.64.264z" fill="#fff"/></svg>