<svg id="Layer_1" enable-background="new 0 0 124 124" height="512" viewBox="0 0 124 124" width="512" xmlns="http://www.w3.org/2000/svg"><path d="m27.713 35.958c.415-.514 1.218-.484 1.527.126 2.28 4.492 2.041 9.779-.641 14.144 0 0-12.596 18.43-13.705 19.914-2.339 3.132-4.624 6.197-2.788 9.594l5.814 10.736c1.052 1.932 4 .279 2.957-1.654l-5.814-10.735c-.942-1.742-.279-3.925 1.509-4.968 1.85-1.075 4.264-.558 5.386 1.165l5.579 8.559c2.434 3.734 3.703 8.059 3.671 12.507l-.064 8.893-19.963.149c-.299-2.051-1.048-4.013-2.201-5.75l-5.184-7.812c-4.848-7.307-5.066-16.58-.576-24.23z" fill="#3eb6ff"/><path d="m15.056 100.343h11.353v25.962h-11.353z" fill="#0795ff" transform="matrix(0 -1 1 0 -92.591 134.056)"/><path d="m96.287 35.958c-.415-.514-1.218-.484-1.527.126-2.28 4.492-2.041 9.779.641 14.144 0 0 12.596 18.43 13.705 19.914 2.339 3.132 4.624 6.197 2.788 9.594l-5.814 10.736c-1.052 1.932-4 .279-2.957-1.654l5.814-10.735c.942-1.742.279-3.925-1.509-4.968-1.85-1.075-4.264-.558-5.386 1.165l-5.579 8.559c-2.434 3.734-3.703 8.059-3.671 12.507l.064 8.893 19.963.149c.299-2.051 1.048-4.013 2.201-5.75l5.184-7.812c4.848-7.305 5.065-16.578.576-24.228z" fill="#3eb6ff"/><path d="m97.591 100.343h11.353v25.962h-11.353z" fill="#0795ff" transform="matrix(0 -1 1 0 -10.056 216.591)"/><path d="m42.215 30.541h39.57v31.164h-39.57z" fill="#ffbb1b"/><path d="m42.215 5.201h9.347v20.405h-9.347z" fill="#dfe8f4"/><path d="m35.702 30.541 26.298-25.541 26.298 25.541z" fill="#ff2407"/><path d="m42.215 30.541h19.785v31.164h-19.785z" fill="#ffde93"/></svg>