<svg id="Layer_1" enable-background="new 0 0 124 124" height="512" viewBox="0 0 124 124" width="512" xmlns="http://www.w3.org/2000/svg"><path d="m123.882 9.333c0-1.905-1.534-3.333-3.304-3.333h-117.274c-1.888 0-3.304 1.548-3.304 3.333v70h124v-70z" fill="#dfe8f4"/><path d="m0 79.333v13.214c0 1.905 1.534 3.333 3.304 3.333h44.249v18.12h-20.181c-1.104 0-2 .896-2 2s.896 2 2 2h69.138c1.104 0 2-.896 2-2s-.896-2-2-2h-22.186v-18.119h46.255c1.888 0 3.304-1.548 3.304-3.333v-13.215zm70.324 34.667h-18.771v-18.119h18.771z" fill="#3eb6ff"/><path d="m66.324 18.302h-8.766c-4.908 0-8.901 4.01-8.901 8.939v10.799h4.133v-10.799c0-2.64 2.139-4.788 4.768-4.788h8.766c2.629 0 4.768 2.148 4.768 4.788v10.669h4.133v-10.669c0-4.929-3.993-8.939-8.901-8.939z" fill="#4d28a8"/><path d="m52.79 38.04v-10.799c0-2.64 2.139-4.788 4.768-4.788h4.442v-4.151h-4.442c-4.908 0-8.901 4.01-8.901 8.939v10.799z" fill="#623add"/><path d="m78.615 37.004h-33.348c-1.657 0-3 1.343-3 3v24.557c0 1.657 1.343 3 3 3h33.349c1.657 0 3-1.343 3-3v-24.557c-.001-1.657-1.344-3-3.001-3z" fill="#0795ff"/><path d="m65.637 48.005c0-2.043-1.658-3.705-3.696-3.705s-3.696 1.662-3.696 3.705c0 1.303.678 2.446 1.696 3.107v4.634c0 1.104.896 2 2 2s2-.896 2-2v-4.634c1.018-.661 1.696-1.804 1.696-3.107z" fill="#dfe8f4"/></svg>