<svg id="Layer_1" enable-background="new 0 0 124 124" height="512" viewBox="0 0 124 124" width="512" xmlns="http://www.w3.org/2000/svg"><path d="m39.06 116.096h-37.06c-1.104 0-2-.896-2-2s.896-2 2-2h37.06c1.104 0 2 .896 2 2s-.895 2-2 2z" fill="#4d28a8"/><path d="m91.141 116.096h-38.406c-1.104 0-2-.896-2-2s.896-2 2-2h38.406c1.104 0 2 .896 2 2s-.895 2-2 2z" fill="#4d28a8"/><path d="m45.869 112.179c-1.104 0-2-.896-2-2v-12.543c0-1.104.896-2 2-2s2 .896 2 2v12.543c0 1.104-.895 2-2 2z" fill="#4d28a8"/><path d="m38.495 109.191h14.748v9.809h-14.748z" fill="#0795ff"/><path d="m87.501 5h-82.874c-1.159 0-2.099.94-2.099 2.099v19.26c0 1.159.94 2.099 2.099 2.099h82.874c1.159 0 2.099-.94 2.099-2.099v-19.26c0-1.159-.94-2.099-2.099-2.099z" fill="#3eb6ff"/><g fill="#dfe8f4"><path d="m18.183 20.768c-1.104 0-2-.896-2-2v-4.076c0-1.104.896-2 2-2s2 .896 2 2v4.076c0 1.104-.896 2-2 2z"/><path d="m27.649 20.768c-1.104 0-2-.896-2-2v-4.076c0-1.104.896-2 2-2s2 .896 2 2v4.076c0 1.104-.895 2-2 2z"/><path d="m37.116 20.768c-1.104 0-2-.896-2-2v-4.076c0-1.104.896-2 2-2s2 .896 2 2v4.076c0 1.104-.895 2-2 2z"/><path d="m73.945 18.465h-19.682c-1.104 0-2-.896-2-2s.896-2 2-2h19.682c1.104 0 2 .896 2 2s-.895 2-2 2z"/></g><path d="m87.501 39.357h-82.874c-1.159 0-2.099.94-2.099 2.099v19.26c0 1.159.94 2.099 2.099 2.099h82.874c1.159 0 2.099-.94 2.099-2.099v-19.26c0-1.159-.94-2.099-2.099-2.099z" fill="#0795ff"/><path d="m18.183 55.124c-1.104 0-2-.896-2-2v-4.076c0-1.104.896-2 2-2s2 .896 2 2v4.076c0 1.105-.896 2-2 2z" fill="#dfe8f4"/><path d="m27.649 55.124c-1.104 0-2-.896-2-2v-4.076c0-1.104.896-2 2-2s2 .896 2 2v4.076c0 1.105-.895 2-2 2z" fill="#dfe8f4"/><path d="m37.116 55.124c-1.104 0-2-.896-2-2v-4.076c0-1.104.896-2 2-2s2 .896 2 2v4.076c0 1.105-.895 2-2 2z" fill="#dfe8f4"/><path d="m73.945 52.822h-19.682c-1.104 0-2-.896-2-2s.896-2 2-2h19.682c1.104 0 2 .896 2 2s-.895 2-2 2z" fill="#dfe8f4"/><path d="m87.501 73.714h-82.874c-1.159 0-2.099.94-2.099 2.099v19.26c0 1.159.94 2.099 2.099 2.099h82.874c1.159 0 2.099-.94 2.099-2.099v-19.26c0-1.159-.94-2.099-2.099-2.099z" fill="#3eb6ff"/><path d="m18.183 89.481c-1.104 0-2-.896-2-2v-4.076c0-1.104.896-2 2-2s2 .896 2 2v4.076c0 1.105-.896 2-2 2z" fill="#dfe8f4"/><path d="m27.649 89.481c-1.104 0-2-.896-2-2v-4.076c0-1.104.896-2 2-2s2 .896 2 2v4.076c0 1.105-.895 2-2 2z" fill="#dfe8f4"/><path d="m37.116 89.481c-1.104 0-2-.896-2-2v-4.076c0-1.104.896-2 2-2s2 .896 2 2v4.076c0 1.105-.895 2-2 2z" fill="#dfe8f4"/><path d="m73.945 87.18h-19.682c-1.104 0-2-.896-2-2s.896-2 2-2h19.682c1.104 0 2 .896 2 2s-.895 2-2 2z" fill="#dfe8f4"/><ellipse cx="95.732" cy="50.164" fill="#ffbb1b" rx="28.268" ry="28.202"/><path d="m67.464 50.164c0 15.554 12.621 28.166 28.204 28.2v-56.401c-15.582.035-28.204 12.647-28.204 28.201z" fill="#ffde93"/><path d="m97.137 32.166h-2.809c-4.829 0-8.758 3.933-8.758 8.768v5.232h4.067v-5.232c0-2.589 2.105-4.697 4.692-4.697h2.809c2.587 0 4.692 2.107 4.692 4.697v5.149h4.067v-5.149c-.002-4.835-3.931-8.768-8.76-8.768z" fill="#4d28a8"/><path d="m89.636 46.083v-5.149c0-2.589 2.105-4.697 4.692-4.697h1.446v-4.071h-1.446c-4.829 0-8.758 3.933-8.758 8.768v5.149z" fill="#623add"/><path d="m106.99 46.089h-22.516c-1.657 0-3 1.343-3 3v15.973c0 1.657 1.343 3 3 3h22.517c1.657 0 3-1.343 3-3v-15.973c-.001-1.657-1.344-3-3.001-3z" fill="#dfe8f4"/><path d="m98.961 54c0-1.779-1.449-3.227-3.229-3.227s-3.229 1.448-3.229 3.227c0 1.02.486 1.921 1.229 2.512v3.053c0 1.104.896 2 2 2s2-.896 2-2v-3.053c.743-.591 1.229-1.492 1.229-2.512z" fill="#4d28a8"/></svg>