<svg id="Layer_1" enable-background="new 0 0 124 124" height="512" viewBox="0 0 124 124" width="512" xmlns="http://www.w3.org/2000/svg"><path d="m103.675 39.903-.047-11.163c0-2.368-1.9-4.283-4.249-4.283h-52.194c-1.416 0-2.729-.696-3.523-1.88l-5.216-7.696c-.794-1.185-2.107-1.881-3.523-1.881h-30.951c-2.176 0-3.972 1.811-3.972 4.005v22.879z" fill="#ffbb1b"/><path d="m.047 39.903-.047 58.485c0 2.368 1.934 4.318 4.283 4.318h95.062c2.349 0 4.283-1.95 4.283-4.318l.047-58.485z" fill="#dfe8f4"/><g fill="#4d28a8"><path d="m42.954 56.44h-29.787c-1.104 0-2-.896-2-2s.896-2 2-2h29.787c1.104 0 2 .896 2 2s-.895 2-2 2z"/><path d="m27.371 66.913h-14.204c-1.104 0-2-.896-2-2s.896-2 2-2h14.204c1.104 0 2 .896 2 2s-.895 2-2 2z"/><path d="m34.643 77.387h-21.476c-1.104 0-2-.896-2-2s.896-2 2-2h21.476c1.104 0 2 .896 2 2s-.895 2-2 2z"/><path d="m63.731 87.859h-50.564c-1.104 0-2-.896-2-2s.896-2 2-2h50.564c1.104 0 2 .896 2 2s-.895 2-2 2z"/><path d="m63.731 56.44h-12.126c-1.104 0-2-.896-2-2s.896-2 2-2h12.126c1.104 0 2 .896 2 2s-.895 2-2 2z"/><path d="m63.731 66.913h-28.748c-1.104 0-2-.896-2-2s.896-2 2-2h28.748c1.104 0 2 .896 2 2s-.895 2-2 2z"/><path d="m63.731 77.387h-21.476c-1.104 0-2-.896-2-2s.896-2 2-2h21.476c1.104 0 2 .896 2 2s-.895 2-2 2z"/></g><path d="m123.995 70.749s-10.382-6.239-19.99-6.239c-9.609 0-20 6.239-20 6.239-.696 32.747 19.995 40.251 19.995 40.251s19.705-9.548 19.998-38.504c.001-.032.006-1.208-.003-1.747z" fill="#27a88f"/><path d="m84.005 70.749c-.644 30.317 17.031 38.992 19.659 40.114v-46.346c-9.513.144-19.659 6.232-19.659 6.232z" fill="#52efbb"/><path d="m100.367 93.521-4.987-3.665c-.89-.653-1.081-1.905-.427-2.796.652-.89 1.903-1.082 2.796-.427l3.527 2.592 9.061-10.075c.739-.822 2.004-.889 2.824-.15.821.739.889 2.003.15 2.824l-10.272 11.423c-.393.437-1.622 1.086-2.672.274z" fill="#fff"/></svg>