<svg id="Layer_1" enable-background="new 0 0 124 124" height="512" viewBox="0 0 124 124" width="512" xmlns="http://www.w3.org/2000/svg"><path d="m49.804 109.532c.021-.001.042-.001.065 0 4.355.002 10.203-11.655 13.607-26.8h-27.02c2.362 11.541 6.289 21.072 10.095 24.96.822.839 2.052 1.84 3.253 1.84z" fill="#0795ff"/><path d="" fill="#3eb6ff"/><path d="m100.63 59.439c-.041-5.366-.954-10.527-2.585-15.366h-28.35c.679 5.732.977 11.632.797 17.332-.147 5.246-.795 11.158-1.864 17.072h7.644c-.028-.291-.372-8.26-.342-9.636.017-.736.412-1.411 1.049-1.785 3.348-1.643 7.322-3.327 11.885-4.784 4.142-1.323 11.641-2.827 11.766-2.833z" fill="#3eb6ff"/><path d="m67.786 82.732c-2.298 10.655-5.923 20.772-10.406 26.421 8.858-1.248 17.267-4.817 24.31-10.389-2.137-4.383-3.896-9.667-4.891-16.033z" fill="#0795ff"/><path d="m32.12 82.732h-26.464c7.17 13.656 20.529 23.627 36.377 26.239-4.184-5.443-7.766-15.264-9.913-26.239z" fill="#0795ff"/><path d="m66.218 61.28c.176-5.571-.155-11.467-.874-17.207h-29.626c-.839 5.03-1.353 10.152-1.431 15.019-.172 6.55.368 13.179 1.384 19.385h28.676c1.025-5.513 1.708-11.362 1.871-17.197z" fill="#3eb6ff"/><path d="m64.735 39.818c-1.996-12.395-5.746-23.447-10.054-27.994-.711-.751-1.752-1.629-2.827-1.808-.214-.006-.428-.012-.642-.016-1.107.122-2.224.971-2.996 1.705-4.712 4.487-9.153 15.696-11.707 28.113z" fill="#dfe8f4"/><path d="m102.11 63.66c-.01 0-.01 0-.02 0-8.99.01-18.76 4.81-21.9 6.49v.16c.07 5.09.69 16.93 5.9 27.02 4.12 7.99 10.42 13.27 15.71 16.54.07.05.13.09.2.13 4.11-2.31 21.7-13.92 22-43.07v-.79c-3.16-1.68-12.94-6.48-21.89-6.48zm10.97 18.71-10.99 12.01-1.35 1.47c-.42.45-1 .69-1.58.69-.44 0-.88-.13-1.26-.41l-5.99-4.32c-.53-.39-.84-.97-.88-1.57 0-.06 0-.12-.01-.18.01-.43.15-.85.41-1.22.69-.95 2.03-1.17 2.99-.47l4.45 3.2 11.06-12.06c.79-.87 2.14-.93 3.01-.14.88.79.94 2.14.14 3z" fill="#27a88f"/><path d="m32.096 39.818c2.407-12.279 6.656-23.429 11.515-29.385-17.654 2.34-32.435 13.775-39.368 29.385z" fill="#dfe8f4"/><path d="m31.367 78.477c-1.015-6.45-1.521-13.145-1.355-19.476.079-4.909.55-9.97 1.332-14.928h-28.756c-1.67 4.953-2.588 10.243-2.588 15.745 0 6.596 1.312 12.891 3.672 18.659z" fill="#3eb6ff"/><path d="m69.117 39.818h27.275c-6.627-14.919-20.425-26.023-37.047-29.021 4.345 5.974 7.903 16.885 9.772 29.021z" fill="#dfe8f4"/><path d="m100.733 95.861c-.419.457-.994.583-1.578.583-.436 0-.876-.133-1.254-.405l-5.994-4.322c-.956-.689-1.17-1.926-.477-2.877.666-.912 1.902-1.162 2.91-.525l4.53 3.255 3.225-3.517-.002-24.49c-8.988.004-18.766 4.811-21.906 6.49 0 .036.001.09.002.155.07 5.045.232 16.596 5.469 26.755 4.283 8.309 10.924 13.772 16.342 17.037.168-.095.095-.054.095-.054l-.005-19.566z" fill="#52efbb"/></svg>