<svg id="Layer_1" enable-background="new 0 0 124 124" height="512" viewBox="0 0 124 124" width="512" xmlns="http://www.w3.org/2000/svg"><path d="m24 119.662c0 2.433 2.057 4.338 4.439 4.338h67.122c2.49 0 4.439-1.904 4.439-4.338v-19.044h-76z" fill="#0795ff"/><path d="m100 4.338c0-2.434-2.057-4.338-4.439-4.338h-67.122c-2.49 0-4.439 2.01-4.439 4.338v12.696h76z" fill="#3eb6ff"/><path d="m24 17.034v83.055.529h76v-83.584z" fill="#dfe8f4"/><path d="m67.521 10.358h-10.934c-1.104 0-2-.896-2-2s.896-2 2-2h10.935c1.104 0 2 .896 2 2s-.896 2-2.001 2z" fill="#dfe8f4"/><ellipse cx="62.108" cy="112.468" fill="#dfe8f4" rx="4.764" ry="4.655"/><g fill="#27a88f"><circle cx="39.301" cy="58.826" r="5.5"/><circle cx="39.301" cy="36.643" r="5.5"/><circle cx="84.699" cy="81.009" r="5.5"/><path d="m86.698 53.706v-11.943c2.048-.801 3.5-2.788 3.5-5.12 0-3.038-2.462-5.5-5.5-5.5-2.331 0-4.318 1.452-5.119 3.5h-12.46c-.801-2.047-2.788-3.5-5.119-3.5-3.038 0-5.5 2.462-5.5 5.5 0 2.331 1.453 4.319 3.5 5.119v11.944c-2.047.801-3.5 2.788-3.5 5.119s1.453 4.319 3.5 5.119v11.946c-1.427.558-2.561 1.692-3.119 3.119h-12.46c-.801-2.047-2.788-3.5-5.119-3.5-3.038 0-5.5 2.462-5.5 5.5s2.462 5.5 5.5 5.5c2.331 0 4.319-1.453 5.119-3.5h12.46c.801 2.047 2.788 3.5 5.119 3.5 3.038 0 5.5-2.462 5.5-5.5 0-2.331-1.453-4.319-3.5-5.119v-11.945c2.047-.801 3.5-2.788 3.5-5.119s-1.453-4.319-3.5-5.119v-11.945c1.427-.558 2.562-1.693 3.12-3.12h12.46c.558 1.427 1.692 2.562 3.119 3.12v11.945c-2.047.801-3.5 2.788-3.5 5.119 0 3.038 2.462 5.5 5.5 5.5s5.5-2.462 5.5-5.5c0-2.331-1.453-4.319-3.501-5.12z"/></g></svg>