<svg id="Layer_1" enable-background="new 0 0 124 124" height="512" viewBox="0 0 124 124" width="512" xmlns="http://www.w3.org/2000/svg"><path d="m107.098 20.695s-26.753-16.012-51.515-16.012-51.538 16.012-51.538 16.012c-1.794 84.045 51.526 103.305 51.526 103.305s50.778-24.506 51.534-98.823c.003-.081.016-3.1-.007-4.482z" fill="#dfe8f4"/><ellipse cx="103.382" cy="16.71" fill="#27a88f" rx="16.618" ry="16.71"/><path d="m86.764 16.71c0 9.229 7.44 16.71 16.618 16.71v-33.42c-9.178 0-16.618 7.481-16.618 16.71z" fill="#52efbb"/><path d="m99.374 23.808-4.489-3.22c-.897-.644-1.104-1.893-.459-2.791.644-.896 1.893-1.102 2.791-.459l3.058 2.193 8.975-9.656c.752-.809 2.018-.856 2.827-.104s.855 2.018.103 2.826l-10.174 10.946c-.339.635-1.756 1.04-2.632.265z" fill="#fff"/><g fill="#0795ff"><path d="m79.757 50.313h-48.819c-5.471 0-9.922-4.458-9.922-9.938 0-1.104.896-2 2-2s2 .896 2 2c0 3.274 2.657 5.938 5.922 5.938h48.819c3.105 0 5.632-2.534 5.632-5.649 0-1.104.896-2 2-2s2 .896 2 2c0 5.32-4.321 9.649-9.632 9.649z"/><path d="m23.016 84.74c-1.104 0-2-.896-2-2 0-5.48 4.451-9.938 9.922-9.938h48.819c5.312 0 9.632 4.328 9.632 9.648 0 1.104-.896 2-2 2s-2-.896-2-2c0-3.114-2.527-5.648-5.632-5.648h-48.819c-3.265 0-5.922 2.664-5.922 5.938 0 1.105-.896 2-2 2z"/><path d="m87.389 63.326h-64.345c-1.104 0-2-.896-2-2s.896-2 2-2h64.345c1.104 0 2 .896 2 2s-.895 2-2 2z"/><path d="m56.213 36.841c-5.029 0-9.403-3.579-10.399-8.512-.219-1.082.482-2.138 1.564-2.355 1.086-.223 2.138.482 2.356 1.564.621 3.072 3.345 5.303 6.478 5.303 3.146 0 5.872-2.241 6.483-5.329.214-1.083 1.266-1.79 2.35-1.573 1.083.215 1.788 1.267 1.574 2.351-.98 4.954-5.357 8.551-10.406 8.551z"/></g><ellipse cx="56.213" cy="61.326" fill="#3eb6ff" rx="21.527" ry="29.608"/><path d="m68.175 53.174-3.337-3.363c-.435-.439-1.141-.439-1.577 0l-1.441 1.452c-.3.302-.743.404-1.145.269-.029-.01-.058-.019-.087-.029-.455-.148-.758-.582-.758-1.064v-2.06c0-.621-.499-1.124-1.115-1.124h-4.719c-.616 0-1.115.503-1.115 1.124v2.105c0 .462-.284.87-.707 1.046-.005.002-.009.004-.014.006-.423.177-.908.09-1.232-.236l-1.477-1.489c-.435-.439-1.141-.439-1.577 0l-3.337 3.363c-.435.439-.435 1.15 0 1.589l1.506 1.517c.3.302.401.748.267 1.154-.008.025-.016.049-.024.074-.15.465-.589.772-1.074.764l-2.078-.033c-.623-.01-1.133.496-1.133 1.124v4.737c0 .621.499 1.124 1.115 1.124h2.089c.458 0 .863.286 1.038.713.002.005.004.009.006.014.175.426.089.916-.234 1.242l-1.477 1.489c-.435.439-.435 1.15 0 1.589l3.337 3.363c.435.439 1.141.439 1.577 0l1.477-1.489c.324-.326.809-.413 1.232-.236.005.002.009.004.014.006.424.176.707.584.707 1.046v2.105c0 .621.499 1.124 1.115 1.124h4.719c.616 0 1.115-.503 1.115-1.124v-2.149c0-.426.241-.812.618-1.005.006-.003.012-.006.018-.01.427-.22.947-.131 1.286.211l1.509 1.52c.435.439 1.141.439 1.577 0l3.337-3.363c.435-.439.435-1.15 0-1.589l-1.477-1.489c-.324-.326-.409-.816-.234-1.242.002-.005.004-.009.006-.014.175-.427.579-.713 1.038-.713h2.089c.616 0 1.115-.503 1.115-1.124v-4.774c0-.613-.488-1.113-1.097-1.124l-2.098-.035c-.416-.007-.791-.248-.979-.623-.005-.01-.01-.02-.016-.031-.218-.43-.13-.954.209-1.296l1.444-1.455c.435-.436.435-1.148-.001-1.587z" fill="#fff"/><path d="m59.286 58.8c1.618 1.614 1.618 4.231 0 5.845s-4.241 1.614-5.859 0-1.618-4.231 0-5.845 4.241-1.614 5.859 0z" fill="#3eb6ff"/></svg>