<svg id="Layer_1" enable-background="new 0 0 124 124" height="512" viewBox="0 0 124 124" width="512" xmlns="http://www.w3.org/2000/svg"><path d="m115.897 30.564c0-1.633-1.336-2.857-2.877-2.857h-102.143c-1.644 0-2.877 1.327-2.877 2.857v60.005h108v-60.005z" fill="#dfe8f4"/><path d="m8 90.569v11.327c0 1.633 1.336 2.857 2.877 2.857h38.281v15.247h-17.318c-1.104 0-2 .896-2 2s.896 2 2 2h60.217c1.104 0 2-.896 2-2s-.896-2-2-2h-19.066v-15.246h40.029c1.644 0 2.877-1.327 2.877-2.857v-11.328zm60.991 14.185v15.246h-15.832v-15.246z" fill="#3eb6ff"/><path d="m86.945 7.558s-12.948-7.558-24.932-7.558-24.944 7.558-24.944 7.558c-.868 39.671 24.938 48.762 24.938 48.762s24.576-11.567 24.942-46.646c.001-.039.008-1.464-.004-2.116z" fill="#ffbb1b"/><path d="m62.013 0c-11.984 0-24.944 7.558-24.944 7.558-.868 39.671 24.938 48.762 24.938 48.762s.09-.043.243-.121v-56.194c-.079-.001-.158-.005-.237-.005z" fill="#ffde93"/><path d="m57.792 35.407-6.221-4.44c-.899-.642-1.107-1.891-.466-2.79.642-.9 1.891-1.107 2.79-.466l4.788 3.418 11.616-12.547c.75-.812 2.017-.86 2.827-.109.811.751.859 2.016.109 2.826l-12.813 13.839c-.422.925-1.86.987-2.63.269z" fill="#fff"/></svg>