<svg id="Layer_1" enable-background="new 0 0 124 124" height="512" viewBox="0 0 124 124" width="512" xmlns="http://www.w3.org/2000/svg"><path d="m115.986 16.64s-28.021-16.64-53.957-16.64c-25.937 0-53.983 16.64-53.983 16.64-1.878 87.344 53.97 107.36 53.97 107.36s53.186-25.468 53.978-102.702c.003-.084.016-3.221-.008-4.658z" fill="#dfe8f4"/><path d="m36.55 50.217h50.901v38.982h-50.901z" fill="#ff4945"/><path d="m36.55 18.52h12.024v25.524h-12.024z" fill="#ff4945"/><path d="m28.172 50.217 33.828-31.948 33.828 31.948z" fill="#ff2407"/><path d="m49.804 72.03v9.88h10.638.023v-9.88z" fill="#ffde93"/><path d="m49.804 59.049h10.661v9.88h-10.661z" fill="#ffde93"/><g fill="#ffbb1b"><path d="m63.58 59.049h10.616v9.88h-10.616z"/><path d="m63.58 72.03h10.616v9.88h-10.616z"/></g></svg>