<svg id="Layer_1" enable-background="new 0 0 124 124" height="512" viewBox="0 0 124 124" width="512" xmlns="http://www.w3.org/2000/svg"><path d="m21.93 66.619v10.739c0 3.053 2.455 5.528 5.482 5.528h91.105c3.028 0 5.482-2.475 5.482-5.528v-10.739z" fill="#0795ff"/><path d="m124 24.528c0-3.053-2.455-5.528-5.482-5.528h-91.106c-3.028 0-5.482 2.475-5.482 5.528v42.09h102.07z" fill="#3eb6ff"/><path d="m97.07 41.114h-92.07c-2.761 0-5 2.239-5 5v53.886c0 2.761 2.239 5 5 5h92.07c2.761 0 5-2.239 5-5v-53.886c0-2.761-2.238-5-5-5z" fill="#dfe8f4"/><g fill="#4d28a8"><path d="m46.616 94.05h-11.669c-1.104 0-2-.896-2-2s.896-2 2-2h11.669c1.104 0 2 .896 2 2s-.895 2-2 2z"/><path d="m24.445 94.05h-11.669c-1.104 0-2-.896-2-2s.896-2 2-2h11.669c1.104 0 2 .896 2 2s-.895 2-2 2z"/><path d="m68.786 94.05h-11.669c-1.104 0-2-.896-2-2s.896-2 2-2h11.669c1.104 0 2 .896 2 2s-.895 2-2 2z"/><path d="m90.957 94.05h-11.669c-1.104 0-2-.896-2-2s.896-2 2-2h11.669c1.104 0 2 .896 2 2s-.895 2-2 2z"/></g><path d="m14.945 80.849h14.788c1.657 0 3-1.343 3-3v-6.679c0-1.657-1.343-3-3-3h-14.788c-1.657 0-3 1.343-3 3v6.679c0 1.657 1.343 3 3 3z" fill="#27a88f"/></svg>