<svg id="Layer_1" enable-background="new 0 0 124 124" height="512" viewBox="0 0 124 124" width="512" xmlns="http://www.w3.org/2000/svg"><path d="m115.986 16.64s-28.021-16.64-53.957-16.64c-25.937 0-53.983 16.64-53.983 16.64-1.878 87.344 53.97 107.36 53.97 107.36s53.186-25.468 53.978-102.702c.003-.084.016-3.221-.008-4.658z" fill="#0795ff"/><path d="m8.046 16.64c-1.866 86.8 53.266 107.104 53.954 107.354v-123.993c-25.928.012-53.954 16.639-53.954 16.639z" fill="#3eb6ff"/><g fill="#dfe8f4"><path d="m71.575 75.673c-.66 0-1.177-.328-1.601-.803-1.723-1.934-4.598-4.181-8.49-3.904-4.374.305-6.905 3.671-6.93 3.705-.644.897-1.894 1.101-2.791.459-.897-.645-1.103-1.894-.459-2.791.144-.201 3.602-4.924 9.899-5.363 4.305-.303 8.479 1.554 11.757 5.233 1.191 1.252.453 3.464-1.385 3.464z"/><path d="m83.254 68.268c-.624 0-1.239-.291-1.629-.837-5.185-7.256-13.653-11.216-22.09-10.336-9.389.949-15.017 7.316-17.001 10.011-.656.889-1.908 1.077-2.796.424-.89-.655-1.08-1.907-.424-2.797 2.301-3.123 8.836-10.508 19.813-11.617 9.861-1.021 19.734 3.566 25.753 11.989.924 1.295-.025 3.163-1.626 3.163z"/><path d="m91.93 62.076c-.635 0-1.259-.302-1.647-.863-7.33-10.608-19.553-16.436-31.896-15.192-15.392 1.573-23.83 13.547-24.741 14.907-.615.918-1.858 1.164-2.775.548-.917-.614-1.163-1.857-.548-2.774 1.662-2.479 10.806-14.938 27.662-16.66 13.796-1.395 27.433 5.094 35.589 16.898.897 1.298-.059 3.136-1.644 3.136z"/><path d="m102.534 55.274c-.63 0-1.25-.297-1.64-.852-4.826-6.882-11.253-12.354-18.586-15.822-4.28-2.078-15.728-6.58-29.944-3.685-17.253 3.515-26.755 15.482-29.256 19.066-.631.906-1.877 1.129-2.785.496-.906-.633-1.128-1.879-.496-2.785 2.716-3.892 13.031-16.886 31.738-20.697 15.41-3.138 27.842 1.75 32.471 3.998 7.94 3.756 14.908 9.683 20.133 17.132.91 1.298-.042 3.149-1.635 3.149z"/><path d="m62.307 89.894c-3.374 0-6.119-2.735-6.119-6.099s2.745-6.099 6.119-6.099 6.119 2.735 6.119 6.099-2.745 6.099-6.119 6.099zm0-8.198c-1.168 0-2.119.941-2.119 2.099s.95 2.099 2.119 2.099 2.119-.941 2.119-2.099-.95-2.099-2.119-2.099z"/></g></svg>