<svg id="Layer_1" enable-background="new 0 0 124 124" height="512" viewBox="0 0 124 124" width="512" xmlns="http://www.w3.org/2000/svg"><path d="m119.985 16.64s-30.097-16.64-57.954-16.64c-27.858 0-57.981 16.64-57.981 16.64-2.018 87.344 57.967 107.36 57.967 107.36s57.126-25.468 57.976-102.702c.003-.084.018-3.221-.008-4.658z" fill="#ffde93"/><path d="m113.175 13.865c.139-.138.246-.294.337-.457-1.18-.552-2.51-1.154-3.953-1.785l-83.779 83.105c-.076.076-.139.16-.201.244.8 1.084 1.607 2.132 2.421 3.143.255-.1.494-.251.701-.456z" fill="#ffbb1b"/></svg>