<svg id="Layer_1" enable-background="new 0 0 124 124" height="512" viewBox="0 0 124 124" width="512" xmlns="http://www.w3.org/2000/svg"><path d="m119.985 16.64s-30.097-16.64-57.954-16.64c-27.858 0-57.981 16.64-57.981 16.64-2.018 87.344 57.967 107.36 57.967 107.36s57.126-25.468 57.976-102.702c.003-.084.018-3.221-.008-4.658z" fill="#ff2407"/><path d="m4.05 16.64c-2.005 86.799 57.21 107.104 57.95 107.354v-123.993c-27.849.012-57.95 16.639-57.95 16.639z" fill="#ff4945"/><g fill="#fff"><path d="m62 73.847c-1.104 0-2-.896-2-2v-36.447c0-1.104.896-2 2-2s2 .896 2 2v36.446c0 1.105-.896 2.001-2 2.001z"/><circle cx="62" cy="82.6" r="4"/></g></svg>