<?xml version="1.0" encoding="iso-8859-1"?>
<!-- Generator: Adobe Illustrator 19.0.0, SVG Export Plug-In . SVG Version: 6.00 Build 0)  -->
<svg version="1.1" id="Capa_1" xmlns="http://www.w3.org/2000/svg" xmlns:xlink="http://www.w3.org/1999/xlink" x="0px" y="0px"
	 viewBox="0 0 512 512" style="enable-background:new 0 0 512 512;" xml:space="preserve">
<circle style="fill:#D2F0FF;" cx="256" cy="256" r="256"/>
<g>
	<path style="fill:#73C8F0;" d="M512,256c0-6.919-0.284-13.77-0.822-20.551L383.728,108l-71.525,12.958l29.283,29.283l15.66,15.66
		l148.222,148.222C509.705,295.449,512,275.993,512,256z"/>
	<path style="fill:#73C8F0;" d="M328.603,171.073l-33.257-33.257L283.66,126.13l-43.38,7.859l29.447,29.447l15.497,15.497
		l48.825,48.825h-33.716l-43.654-43.654l-36.516-36.516l-8.428-8.428L162.937,148l28.407,28.407l16.537,16.537l34.813,34.813
		h-33.715l-29.642-29.642l-2.641-2.641l-42.303-42.303l-15.891,2.879l7.392,51.747l19.959,19.959h-19.96v157.576
		c0,4.05,1.642,7.717,4.296,10.371l0,0l116.093,116.093c3.226,0.12,6.461,0.202,9.717,0.202
		c114.144,0,210.824-74.711,243.848-177.894L393.499,227.757h-8.212L328.603,171.073z"/>
</g>
<g>
	<path style="fill:#2896FF;" d="M378.832,400H140.56c-8.1,0-14.667-6.566-14.667-14.667V227.757h267.605v157.576
		C393.499,393.434,386.932,400,378.832,400z"/>
	<polygon style="fill:#2896FF;" points="357.147,165.902 391.121,159.747 383.728,108 312.204,120.958 	"/>
	<polygon style="fill:#2896FF;" points="283.659,126.129 240.279,133.988 285.223,178.932 328.603,171.073 	"/>
	<polygon style="fill:#2896FF;" points="134.393,153.171 118.501,156.051 125.894,207.797 179.337,198.115 	"/>
	<polygon style="fill:#2896FF;" points="207.881,192.944 256.678,184.103 211.735,139.16 162.937,148 	"/>
</g>
<g>
</g>
<g>
</g>
<g>
</g>
<g>
</g>
<g>
</g>
<g>
</g>
<g>
</g>
<g>
</g>
<g>
</g>
<g>
</g>
<g>
</g>
<g>
</g>
<g>
</g>
<g>
</g>
<g>
</g>
</svg>
