<?xml version="1.0" encoding="iso-8859-1"?>
<!-- Generator: Adobe Illustrator 19.0.0, SVG Export Plug-In . SVG Version: 6.00 Build 0)  -->
<svg version="1.1" id="Capa_1" xmlns="http://www.w3.org/2000/svg" xmlns:xlink="http://www.w3.org/1999/xlink" x="0px" y="0px"
	 viewBox="0 0 512 512" style="enable-background:new 0 0 512 512;" xml:space="preserve">
<circle style="fill:#827DDC;" cx="256" cy="256" r="256"/>
<path style="fill:#6E64C3;" d="M330.388,178.653l-63.751-63.751l0,0L93.146,145.34v217.32l148.961,148.961
	c4.6,0.246,9.231,0.379,13.893,0.379c139.74,0,253.314-111.968,255.938-251.081l-93.084-93.084l-38.824-38.824l-38.824,38.824
	L330.388,178.653z"/>
<polygon style="fill:#661C91;" points="266.637,393.098 93.146,362.66 93.146,145.34 266.637,114.902 "/>
<path style="fill:#FFFFFF;" d="M168.56,295.036v-87.862h17.078v87.862H168.56z"/>
<g>
	<polygon style="fill:#661C91;" points="418.854,167.835 380.03,129.011 341.205,167.835 368.965,167.835 368.965,298.868 
		314.028,298.868 314.028,320.998 391.095,320.998 391.095,167.835 	"/>
	<polygon style="fill:#661C91;" points="355.664,211.125 355.664,188.995 278.597,188.995 278.597,342.157 278.597,349.146 
		278.597,369.622 289.957,380.982 328.781,342.157 300.727,342.157 300.727,211.125 	"/>
</g>
<g>
</g>
<g>
</g>
<g>
</g>
<g>
</g>
<g>
</g>
<g>
</g>
<g>
</g>
<g>
</g>
<g>
</g>
<g>
</g>
<g>
</g>
<g>
</g>
<g>
</g>
<g>
</g>
<g>
</g>
</svg>
