<?xml version="1.0" encoding="iso-8859-1"?>
<!-- Generator: Adobe Illustrator 19.0.0, SVG Export Plug-In . SVG Version: 6.00 Build 0)  -->
<svg version="1.1" id="Capa_1" xmlns="http://www.w3.org/2000/svg" xmlns:xlink="http://www.w3.org/1999/xlink" x="0px" y="0px"
	 viewBox="0 0 512 512" style="enable-background:new 0 0 512 512;" xml:space="preserve">
<circle style="fill:#FF3C3C;" cx="256" cy="256" r="256"/>
<path style="fill:#DE3434;" d="M259.336,55.978c-34.803,0-63.119,31.295-63.119,69.763c0,17.984,6.191,34.398,16.337,46.781
	l-0.237,0.237l54.7,54.7c-3.196,2.57-6.349,5.084-9.429,7.508c-35.365-32.286-76.24-50.6-113.598-50.6
	c-64.301,0-99.611,46.592-78.171,91.794c3.74,7.885,9.178,15.251,15.821,21.735l-0.013,0.013l211.415,211.415
	c115.075-16.681,205.356-109.895,217.547-226.364L300.283,72.652l-0.032,0.032C289.224,62.28,274.937,55.978,259.336,55.978z"/>
<g>
	<path style="fill:#FFFFFF;" d="M259.336,195.503c-34.803,0-63.119-31.295-63.119-69.763s28.315-69.763,63.119-69.763
		s63.119,31.295,63.119,69.763S294.14,195.503,259.336,195.503z M259.336,82.554c-20.15,0-36.542,19.374-36.542,43.186
		s16.393,43.186,36.542,43.186s36.542-19.374,36.542-43.186S279.486,82.554,259.336,82.554z"/>
	<path style="fill:#FFFFFF;" d="M229.513,443.477c-18.304-12.773-30.042-37.802-29.903-63.765
		c0.161-30.094,15.542-57.096,43.308-76.033c9.646-6.578,18.623-11.46,27.336-14.817c-4.636-6.418-9.653-12.626-15.026-18.592
		c-63.229,47.164-91.584,53.751-110.947,53.751c-33.263,0-65.695-20.946-78.462-47.861c-21.44-45.202,13.869-91.794,78.171-91.794
		c37.359,0,78.233,18.314,113.598,50.6c7.114-5.597,14.557-11.602,22.228-17.935c32.183-26.566,62.742-40.037,90.83-40.037
		c52.587,0,81.671,47.393,81.671,80.152c0,35.391-32.522,74.579-85.527,67.002c-21.839-3.12-38.045-9.834-52.666-12.882
		c7.815,16.988,12.794,33.991,14.597,50.07c3.921,34.958-7.667,56.175-18.078,67.817
		C288.234,454.218,250.915,458.411,229.513,443.477z M284.796,311.986c-8.252,2.473-17.131,6.985-26.904,13.65
		c-26.06,17.773-31.626,39.295-31.706,54.219c-0.107,19.885,9.232,35.337,18.535,41.828c8.856,6.179,31.569,6.02,46.111-10.243
		c9.746-10.899,13.715-27.2,11.479-47.141C300.462,347.808,294.443,329.878,284.796,311.986z M300.176,283.091
		c24.279,0,43.231,10.871,70.373,14.749c38.093,5.44,55.193-22.637,55.193-40.694c0-19.228-18.411-53.575-55.095-53.575
		c-21.749,0-46.616,11.424-73.911,33.956c-7.001,5.779-13.821,11.295-20.389,16.491c8.162,9.213,15.581,18.945,22.177,29.09
		C299.075,283.097,299.625,283.091,300.176,283.091z M143.99,210.942c-36.416,0-69.409,21.677-54.159,53.828
		c8.428,17.767,31.372,32.674,54.45,32.674c12.837,0,36.142-5.008,91.802-46.063C206.518,225.526,173.58,210.942,143.99,210.942z"/>
</g>
<g>
</g>
<g>
</g>
<g>
</g>
<g>
</g>
<g>
</g>
<g>
</g>
<g>
</g>
<g>
</g>
<g>
</g>
<g>
</g>
<g>
</g>
<g>
</g>
<g>
</g>
<g>
</g>
<g>
</g>
</svg>
