<?xml version="1.0" encoding="iso-8859-1"?>
<!-- Generator: Adobe Illustrator 19.0.0, SVG Export Plug-In . SVG Version: 6.00 Build 0)  -->
<svg version="1.1" id="Capa_1" xmlns="http://www.w3.org/2000/svg" xmlns:xlink="http://www.w3.org/1999/xlink" x="0px" y="0px"
	 viewBox="0 0 512 512" style="enable-background:new 0 0 512 512;" xml:space="preserve">
<circle style="fill:#36930F;" cx="256" cy="256" r="256"/>
<path style="fill:#2A7507;" d="M258.095,188.342l-41.667-40.756l-17.405,17.405l55.381,55.381l5.479,5.479l73.131,73.131
	c-4.301-2.438-8.191-5.619-11.508-9.401c-6.539,1.515-12.518,4.478-17.59,8.532l-29.903-29.903l-0.177,0.177
	c-5.058-3.943-11.203-6.263-17.836-6.263c-11.703,0-21.896,7.204-27.248,17.859l-48.474-48.474
	c-5.594-5.904-13.13-9.529-21.427-9.529c-17.254,0-31.242,15.649-31.242,34.953c0,11.4,4.88,21.522,12.428,27.902l-0.082,0.082
	l19.412,19.412c-0.173,0.002-0.343,0.015-0.516,0.015c-12.442,0-23.678-5.68-31.644-14.764
	c-19.629,4.547-34.264,22.13-34.264,43.142v31.146L240.6,511.526c5.096,0.302,10.228,0.474,15.4,0.474
	c131.296,0,239.488-98.848,254.262-226.182L345.996,121.553l-19.49-15.565L258.095,188.342z"/>
<g>
	<path style="fill:#FFFFFF;" d="M419.057,332.723c0-21.012-14.635-38.594-34.264-43.142c-7.966,9.084-19.202,14.764-31.644,14.764
		c-12.442,0-23.677-5.68-31.644-14.764c-8.58,1.988-16.201,6.464-22.066,12.634c-0.591,5.919-2.194,11.509-4.61,16.574
		c20.129,6.424,35.41,23.793,38.816,45.08h85.411v-31.146H419.057z"/>
	<ellipse style="fill:#FFFFFF;" cx="353.15" cy="256.93" rx="31.24" ry="34.953"/>
	<path style="fill:#FFFFFF;" d="M256,344.489c-12.442,0-23.678-5.68-31.644-14.764c-19.629,4.547-34.264,22.129-34.264,43.141
		v31.146h131.815v-31.146c0-21.012-14.635-38.594-34.264-43.141C279.677,338.809,268.442,344.489,256,344.489z"/>
	<ellipse style="fill:#FFFFFF;" cx="256" cy="297.08" rx="31.24" ry="34.953"/>
	<path style="fill:#FFFFFF;" d="M92.943,332.723c0-21.012,14.635-38.594,34.264-43.142c7.966,9.084,19.202,14.764,31.644,14.764
		s23.677-5.68,31.644-14.764c8.58,1.988,16.201,6.464,22.066,12.634c0.591,5.919,2.194,11.509,4.61,16.574
		c-20.129,6.424-35.41,23.793-38.816,45.08H92.943V332.723z"/>
	<ellipse style="fill:#FFFFFF;" cx="158.85" cy="256.93" rx="31.24" ry="34.953"/>
	<polygon style="fill:#FFFFFF;" points="216.428,147.586 199.023,164.991 259.883,225.852 284.95,197.104 284.95,197.104 
		345.996,121.553 326.506,105.987 258.095,188.342 	"/>
</g>
<g>
</g>
<g>
</g>
<g>
</g>
<g>
</g>
<g>
</g>
<g>
</g>
<g>
</g>
<g>
</g>
<g>
</g>
<g>
</g>
<g>
</g>
<g>
</g>
<g>
</g>
<g>
</g>
<g>
</g>
</svg>
