<?xml version="1.0" encoding="iso-8859-1"?>
<!-- Generator: Adobe Illustrator 19.0.0, SVG Export Plug-In . SVG Version: 6.00 Build 0)  -->
<svg version="1.1" id="Capa_1" xmlns="http://www.w3.org/2000/svg" xmlns:xlink="http://www.w3.org/1999/xlink" x="0px" y="0px"
	 viewBox="0 0 512 512" style="enable-background:new 0 0 512 512;" xml:space="preserve">
<circle style="fill:#2896FF;" cx="256" cy="256" r="256"/>
<path style="fill:#1E73BE;" d="M395.623,182.857v-0.032l-0.02,0.012l-0.012-0.012l-0.044,0.044l-43.737,25.23l-23.951-23.951
	l-0.067,0.067v-0.112H124.5v139.793h0.107l-0.107,0.107l182.843,182.843C411.252,485.692,492.268,401.594,508.866,296.1
	L395.623,182.857z"/>
<path style="fill:#FFFFFF;" d="M395.623,182.825l-67.831,39.129v-37.851H124.5v139.793h203.292v-37.851l67.831,39.129V182.825z
	 M309.31,305.415H142.981v-102.83H309.31V305.415z M377.141,293.178l-49.35-28.468v-21.42l49.35-28.468V293.178z"/>
<g>
</g>
<g>
</g>
<g>
</g>
<g>
</g>
<g>
</g>
<g>
</g>
<g>
</g>
<g>
</g>
<g>
</g>
<g>
</g>
<g>
</g>
<g>
</g>
<g>
</g>
<g>
</g>
<g>
</g>
</svg>
