<?xml version="1.0" encoding="iso-8859-1"?>
<!-- Generator: Adobe Illustrator 19.0.0, SVG Export Plug-In . SVG Version: 6.00 Build 0)  -->
<svg version="1.1" id="Capa_1" xmlns="http://www.w3.org/2000/svg" xmlns:xlink="http://www.w3.org/1999/xlink" x="0px" y="0px"
	 viewBox="0 0 512 512" style="enable-background:new 0 0 512 512;" xml:space="preserve">
<circle style="fill:#FFD23C;" cx="256" cy="256" r="256"/>
<path style="fill:#FFA50A;" d="M166.408,99.147c-11.637-3.988-24.559-2.1-34.567,5.05s-15.982,18.761-15.982,31.061V244.09
	l48.427,48.427v7.087l-20.744-20.744h-36.125v65.421l167.051,167.051c52.083-3.714,101.624-23.22,142.434-56.245l0.009,0.009
	c48.053-38.886,81.745-94.806,91.886-158.583L394.672,182.387c-4.233-4.665-9.645-8.314-15.886-10.453L166.408,99.147z"/>
<g>
	<rect x="278.02" y="210.23" style="fill:#FFFFFF;" width="36.12" height="202.68"/>
	<rect x="221.16" y="237.81" style="fill:#FFFFFF;" width="36.12" height="147.52"/>
	<rect x="164.29" y="253.85" style="fill:#FFFFFF;" width="36.12" height="115.45"/>
	<rect x="107.42" y="278.86" style="fill:#FFFFFF;" width="36.12" height="65.42"/>
	<path style="fill:#FFFFFF;" d="M366.488,400.869c-3.001,0-6.026-0.355-9.023-1.078l-21.199-5.11l-0.15-20.071l25.858,6.475
		c5.671,1.366,11.563,0.082,16.149-3.533c4.588-3.612,7.218-9.033,7.218-14.873V208.045c0-8.089-5.141-15.286-12.793-17.908
		L160.17,117.349c-5.773-1.979-12.18-1.043-17.143,2.504c-4.963,3.546-7.926,9.305-7.926,15.404V244.09H115.86V135.257
		c0-12.299,5.974-23.911,15.982-31.061c10.008-7.15,22.93-9.038,34.567-5.05l212.378,72.787c15.43,5.288,25.796,19.799,25.796,36.11
		V362.68c0,11.775-5.305,22.705-14.555,29.989C383.201,398.046,374.946,400.868,366.488,400.869z"/>
</g>
<g>
</g>
<g>
</g>
<g>
</g>
<g>
</g>
<g>
</g>
<g>
</g>
<g>
</g>
<g>
</g>
<g>
</g>
<g>
</g>
<g>
</g>
<g>
</g>
<g>
</g>
<g>
</g>
<g>
</g>
</svg>
