<?xml version="1.0" encoding="iso-8859-1"?>
<!-- Generator: Adobe Illustrator 19.0.0, SVG Export Plug-In . SVG Version: 6.00 Build 0)  -->
<svg version="1.1" id="Capa_1" xmlns="http://www.w3.org/2000/svg" xmlns:xlink="http://www.w3.org/1999/xlink" x="0px" y="0px"
	 viewBox="0 0 512 512" style="enable-background:new 0 0 512 512;" xml:space="preserve">
<circle style="fill:#F97DA0;" cx="256" cy="256" r="256"/>
<path style="fill:#DB5E85;" d="M99.594,145.317v221.366l145.053,145.053C248.412,511.901,252.194,512,256,512
	c141.385,0,256-114.615,256-256c0-0.814-0.023-1.622-0.031-2.434l-99.563-99.563h-7.819l-8.685-8.685H307.32l-31.006-31.006
	L99.594,145.317z"/>
<g>
	<polygon style="fill:#823264;" points="276.315,397.688 99.594,366.683 99.594,145.317 276.315,114.312 	"/>
	<polygon style="fill:#823264;" points="395.902,154.002 395.902,145.318 284.912,145.318 284.912,366.683 395.902,366.683 
		395.902,215.321 412.406,215.321 412.406,154.002 	"/>
	<rect x="401.76" y="224.31" style="fill:#823264;" width="10.646" height="61.32"/>
	<rect x="401.76" y="296.68" style="fill:#823264;" width="10.646" height="61.32"/>
</g>
<g>
	<rect x="284.91" y="297.71" style="fill:#FFFFFF;" width="77.885" height="12.775"/>
	<rect x="284.91" y="329.77" style="fill:#FFFFFF;" width="77.885" height="12.775"/>
	<polygon style="fill:#FFFFFF;" points="206.306,214.29 206.306,271.948 166.278,214.29 148.394,214.29 148.394,297.71 
		166.278,297.71 166.278,240.052 206.306,297.71 224.191,297.71 224.191,214.29 	"/>
	<path style="fill:#FFFFFF;" d="M368.688,203.97l-8.179-8.562l1.584-11.734l-11.649-2.119l-5.615-10.424l-10.67,5.133l-10.67-5.133
		l-5.615,10.424l-11.649,2.119l1.584,11.734l-8.179,8.562l8.179,8.562l-1.584,11.734l11.649,2.119l5.022,9.323v41.781l11.263-4.666
		l11.263,4.666v-41.78l5.022-9.323l11.649-2.119l-1.584-11.734L368.688,203.97z M334.16,223.879
		c-10.995,0-19.909-8.913-19.909-19.909c0-10.995,8.913-19.909,19.909-19.909c10.995,0,19.908,8.913,19.908,19.909
		C354.068,214.965,345.155,223.879,334.16,223.879z"/>
</g>
<g>
</g>
<g>
</g>
<g>
</g>
<g>
</g>
<g>
</g>
<g>
</g>
<g>
</g>
<g>
</g>
<g>
</g>
<g>
</g>
<g>
</g>
<g>
</g>
<g>
</g>
<g>
</g>
<g>
</g>
</svg>
