<?xml version="1.0" encoding="iso-8859-1"?>
<!-- Generator: Adobe Illustrator 19.0.0, SVG Export Plug-In . SVG Version: 6.00 Build 0)  -->
<svg version="1.1" id="Capa_1" xmlns="http://www.w3.org/2000/svg" xmlns:xlink="http://www.w3.org/1999/xlink" x="0px" y="0px"
	 viewBox="0 0 512 512" style="enable-background:new 0 0 512 512;" xml:space="preserve">
<circle style="fill:#D2F0FF;" cx="256" cy="256" r="256"/>
<path style="fill:#73C8F0;" d="M361.427,175.822l-72.232-72.232l-188.846,33.133v236.555L238.461,511.39
	c5.797,0.392,11.642,0.61,17.539,0.61c88.323,0,166.199-44.73,212.212-112.771l-1.651-1.651l7.619-7.619
	c20.785-33.781,33.953-72.749,37.089-114.519l-99.618-99.618l0,0H361.427z"/>
<g>
	<polygon style="fill:#1E73BE;" points="299.711,175.822 299.711,194.951 318.823,194.951 318.823,194.934 392.54,194.934 
		392.54,315.066 318.823,315.066 318.823,314.619 299.711,314.619 299.711,334.178 411.652,334.178 411.652,175.822 	"/>
	<path style="fill:#1E73BE;" d="M323.601,206.411c-8.361,0-16.228,2.113-23.098,5.832v85.512c6.87,3.719,14.737,5.832,23.098,5.832
		c26.835,0,48.589-21.754,48.589-48.589S350.435,206.411,323.601,206.411z"/>
</g>
<polygon style="fill:#FFFFFF;" points="313.705,277.207 313.705,232.792 347.371,255 "/>
<polygon style="fill:#1E73BE;" points="289.195,406.41 100.348,373.278 100.348,136.722 289.195,103.59 "/>
<path style="fill:#FFFFFF;" d="M173.159,204.029l25.863,72.336l25.594-72.336h19.532l-37.313,95.639H191.21l-37.583-95.639
	L173.159,204.029L173.159,204.029z"/>
<g>
</g>
<g>
</g>
<g>
</g>
<g>
</g>
<g>
</g>
<g>
</g>
<g>
</g>
<g>
</g>
<g>
</g>
<g>
</g>
<g>
</g>
<g>
</g>
<g>
</g>
<g>
</g>
<g>
</g>
</svg>
