<?xml version="1.0" encoding="iso-8859-1"?>
<!-- Generator: Adobe Illustrator 19.0.0, SVG Export Plug-In . SVG Version: 6.00 Build 0)  -->
<svg version="1.1" id="Capa_1" xmlns="http://www.w3.org/2000/svg" xmlns:xlink="http://www.w3.org/1999/xlink" x="0px" y="0px"
	 viewBox="0 0 512 512" style="enable-background:new 0 0 512 512;" xml:space="preserve">
<circle style="fill:#FF3C3C;" cx="256" cy="256" r="256"/>
<path style="fill:#DE3434;" d="M301.992,107.853c-7.191-9.141-18.341-15.029-30.847-15.029c-10.096,0-19.311,3.834-26.273,10.12
	l-3.405-3.405l-0.022,0.022l-1.912-0.21c-1.529-0.167-2.94-0.25-4.313-0.25c-21.638,0-39.242,17.605-39.242,39.243v30.59H170.56
	l-19.958,17.525L143.5,411.897l-0.025,0.771l98.975,98.975c4.487,0.234,9.004,0.357,13.55,0.357
	c123.825,0,227.113-87.914,250.861-204.728L368.525,168.936h-5.45L301.992,107.853z"/>
<path style="fill:#FFFFFF;" d="M310.387,168.936v-36.869c0-21.638-17.604-39.242-39.242-39.242s-39.243,17.604-39.243,39.242v36.869
	h-20.795v-30.59c0-11.371,8.078-21.301,19.208-23.61l0.474-0.098l0.197-0.442c2.215-4.956,5.28-9.409,9.113-13.234l1.396-1.394
	l-1.961-0.215c-1.529-0.167-2.94-0.249-4.313-0.249c-21.638,0-39.242,17.604-39.242,39.243v30.59h-25.418l-19.958,17.525
	L143.5,411.897l-0.025,0.771l27.223,6.482l197.827,0.026v-250.24L310.387,168.936L310.387,168.936z M295.259,168.936h-20.795v-30.59
	c0-8.891-2.939-17.3-8.498-24.315l-0.414-0.523l-0.631,0.215c-4.545,1.546-8.341,4.707-10.691,8.899l-0.306,0.545l0.382,0.494
	c3.291,4.268,5.031,9.345,5.031,14.685v30.59H247.03v-36.869c0-13.297,10.818-24.114,24.115-24.114s24.114,10.818,24.114,24.114
	V168.936z"/>
<polygon style="fill:#DE3434;" points="286.577,225.38 215.072,254.188 215.072,259.332 215.072,328.265 215.072,338.04 
	241.308,328.265 241.308,259.332 292.75,245.162 292.75,343.698 215.072,338.04 288.635,362.732 327.217,351.415 327.217,235.668 
	"/>
<g>
</g>
<g>
</g>
<g>
</g>
<g>
</g>
<g>
</g>
<g>
</g>
<g>
</g>
<g>
</g>
<g>
</g>
<g>
</g>
<g>
</g>
<g>
</g>
<g>
</g>
<g>
</g>
<g>
</g>
</svg>
