<?xml version="1.0" encoding="iso-8859-1"?>
<!-- Generator: Adobe Illustrator 19.0.0, SVG Export Plug-In . SVG Version: 6.00 Build 0)  -->
<svg version="1.1" id="Capa_1" xmlns="http://www.w3.org/2000/svg" xmlns:xlink="http://www.w3.org/1999/xlink" x="0px" y="0px"
	 viewBox="0 0 512 512" style="enable-background:new 0 0 512 512;" xml:space="preserve">
<circle style="fill:#D2F0FF;" cx="256" cy="256" r="256"/>
<path style="fill:#73C8F0;" d="M511.956,252.514l-99.645-99.645h-59.72v12.406l-62.185-62.185L99.689,136.551v238.898
	l135.725,135.725C242.206,511.715,249.069,512,256,512c141.385,0,256-114.615,256-256C512,254.834,511.971,253.675,511.956,252.514z
	"/>
<polygon style="fill:#1E73BE;" points="290.406,408.91 99.689,375.449 99.689,136.551 290.406,103.09 "/>
<path style="fill:#FFFFFF;" d="M159.529,303.155V209.92h33.881c28.96,0,45.96,19.304,45.96,46.486
	c0,29.264-18.999,46.749-45.96,46.749H159.529z M221.117,256.406c0-17.681-9.729-30.596-27.708-30.596H177.65v61.456h15.759
	C211.103,287.266,221.117,274.026,221.117,256.406z"/>
<g>
	<rect x="304.8" y="152.67" style="fill:#1E73BE;" width="33.439" height="129.36"/>
	<rect x="304.8" y="296.27" style="fill:#1E73BE;" width="33.439" height="63.06"/>
	<rect x="352.59" y="246.71" style="fill:#1E73BE;" width="59.72" height="112.62"/>
	<rect x="352.59" y="152.87" style="fill:#1E73BE;" width="59.72" height="78.41"/>
</g>
<g>
</g>
<g>
</g>
<g>
</g>
<g>
</g>
<g>
</g>
<g>
</g>
<g>
</g>
<g>
</g>
<g>
</g>
<g>
</g>
<g>
</g>
<g>
</g>
<g>
</g>
<g>
</g>
<g>
</g>
</svg>
