<?xml version="1.0" encoding="iso-8859-1"?>
<!-- Generator: Adobe Illustrator 19.0.0, SVG Export Plug-In . SVG Version: 6.00 Build 0)  -->
<svg version="1.1" id="Capa_1" xmlns="http://www.w3.org/2000/svg" xmlns:xlink="http://www.w3.org/1999/xlink" x="0px" y="0px"
	 viewBox="0 0 512 512" style="enable-background:new 0 0 512 512;" xml:space="preserve">
<circle style="fill:#DCD732;" cx="256" cy="256" r="256"/>
<path style="fill:#A0AF32;" d="M99.115,138.794v234.411l138.106,138.106C243.423,511.761,249.683,512,256,512
	c141.385,0,256-114.615,256-256c0-6.317-0.239-12.577-0.688-18.779l-98.426-98.426h-93.802l-32.833-32.833L99.115,138.794z"/>
<g>
	<polygon style="fill:#006941;" points="286.25,406.038 99.115,373.206 99.115,138.794 286.25,105.962 	"/>
	<rect x="295.36" y="138.79" style="fill:#006941;" width="117.53" height="234.41"/>
</g>
<g>
	<path style="fill:#FFFFFF;" d="M232.968,273.776c0,13.897-12.296,20.98-26.254,20.98H167.39v-81.399h43.566
		c11.11,0,18.573,10.433,18.573,20.751c0,7.591-3.741,15.419-11.694,18.916C226.827,255.679,232.968,262.722,232.968,273.776z
		 M183.211,226.886v20.521h21.095c5.08,0,9.631-3.576,9.631-10.318c0-6.646-4.204-10.203-8.943-10.203H183.211z M217.032,270.795
		c0-5.543-3.813-10.891-9.516-10.891H183.21v21.439h23.503C212.76,281.343,217.032,276.509,217.032,270.795z"/>
	<rect x="352.17" y="217.93" style="fill:#FFFFFF;" width="20.742" height="127.16"/>
	<rect x="320.38" y="269" style="fill:#FFFFFF;" width="20.742" height="76.09"/>
	<rect x="295.36" y="249.04" style="fill:#FFFFFF;" width="10.258" height="96.05"/>
</g>
<g>
</g>
<g>
</g>
<g>
</g>
<g>
</g>
<g>
</g>
<g>
</g>
<g>
</g>
<g>
</g>
<g>
</g>
<g>
</g>
<g>
</g>
<g>
</g>
<g>
</g>
<g>
</g>
<g>
</g>
</svg>
