<?xml version="1.0" encoding="iso-8859-1"?>
<!-- Generator: Adobe Illustrator 19.0.0, SVG Export Plug-In . SVG Version: 6.00 Build 0)  -->
<svg version="1.1" id="Capa_1" xmlns="http://www.w3.org/2000/svg" xmlns:xlink="http://www.w3.org/1999/xlink" x="0px" y="0px"
	 viewBox="0 0 512 512" style="enable-background:new 0 0 512 512;" xml:space="preserve">
<circle style="fill:#DCD732;" cx="256" cy="256" r="256"/>
<path style="fill:#A0AF32;" d="M99.167,138.833v234.334l138.151,138.151C243.488,511.763,249.716,512,256,512
	c141.385,0,256-114.615,256-256c0-6.284-0.237-12.512-0.682-18.682l-98.484-98.484l0,0h-93.771l-32.822-32.822L99.167,138.833z"/>
<g>
	<polygon style="fill:#006941;" points="286.24,405.988 99.167,373.167 99.167,138.833 286.24,106.011 	"/>
	<rect x="295.34" y="138.83" style="fill:#006941;" width="117.49" height="234.33"/>
</g>
<g>
	<path style="fill:#FFFFFF;" d="M163.508,294.877v-95.29h40.398c17.772,0,30.332,16.375,30.332,31.674
		c0,16.599-12.448,31.674-29.661,31.674H182.03v31.942L163.508,294.877L163.508,294.877z M182.029,246.695h21.473
		c7.77,0,11.945-7.249,11.945-15.434c0-8.131-4.729-15.434-12.751-15.434h-20.668L182.029,246.695L182.029,246.695z"/>
	
		<rect x="308.924" y="280.502" transform="matrix(-0.7071 -0.7071 0.7071 -0.7071 350.8533 749.9955)" style="fill:#FFFFFF;" width="43.664" height="43.664"/>
	<polygon style="fill:#FFFFFF;" points="377.578,227.028 377.578,170.392 295.343,170.392 295.343,181.782 366.187,181.782 
		366.187,227.028 341.008,227.028 371.883,257.903 402.758,227.028 	"/>
</g>
<g>
</g>
<g>
</g>
<g>
</g>
<g>
</g>
<g>
</g>
<g>
</g>
<g>
</g>
<g>
</g>
<g>
</g>
<g>
</g>
<g>
</g>
<g>
</g>
<g>
</g>
<g>
</g>
<g>
</g>
</svg>
