<?xml version="1.0" encoding="iso-8859-1"?>
<!-- Generator: Adobe Illustrator 19.0.0, SVG Export Plug-In . SVG Version: 6.00 Build 0)  -->
<svg version="1.1" id="Capa_1" xmlns="http://www.w3.org/2000/svg" xmlns:xlink="http://www.w3.org/1999/xlink" x="0px" y="0px"
	 viewBox="0 0 512 512" style="enable-background:new 0 0 512 512;" xml:space="preserve">
<circle style="fill:#6E64C3;" cx="256" cy="256" r="256"/>
<path style="fill:#5046AF;" d="M511.313,237.245L390.068,116H121.933v280l115.313,115.313C243.439,511.762,249.692,512,256,512
	c141.385,0,256-114.615,256-256C512,249.692,511.762,243.439,511.313,237.245z"/>
<rect x="121.93" y="116" style="fill:#FFFFFF;" width="268.14" height="280"/>
<rect x="139.93" y="182.04" style="fill:#5046AF;" width="232.15" height="195.76"/>
<g>
	<rect x="195.69" y="199.45" style="fill:#FFFFFF;" width="35.593" height="35.593"/>
	<rect x="238.14" y="199.45" style="fill:#FFFFFF;" width="35.593" height="35.593"/>
	<rect x="280.59" y="199.45" style="fill:#FFFFFF;" width="35.593" height="35.593"/>
	<rect x="323.03" y="199.45" style="fill:#FFFFFF;" width="35.593" height="35.593"/>
	<rect x="195.79" y="241.37" style="fill:#FFFFFF;" width="35.593" height="35.593"/>
	<rect x="238.2" y="241.37" style="fill:#FFFFFF;" width="35.593" height="35.593"/>
	<rect x="280.62" y="241.37" style="fill:#FFFFFF;" width="35.593" height="35.593"/>
	<rect x="323.03" y="241.37" style="fill:#FFFFFF;" width="35.593" height="35.593"/>
	<rect x="195.79" y="289.62" style="fill:#FFFFFF;" width="35.593" height="35.593"/>
	<rect x="238.2" y="289.62" style="fill:#FFFFFF;" width="35.593" height="35.593"/>
	<rect x="280.62" y="289.62" style="fill:#FFFFFF;" width="35.593" height="35.593"/>
	<rect x="323.03" y="289.62" style="fill:#FFFFFF;" width="35.593" height="35.593"/>
	<rect x="153.37" y="330.35" style="fill:#FFFFFF;" width="35.593" height="35.593"/>
	<rect x="153.37" y="289.62" style="fill:#FFFFFF;" width="35.593" height="35.593"/>
	<rect x="153.37" y="241.37" style="fill:#FFFFFF;" width="35.593" height="35.593"/>
	<rect x="195.79" y="330.35" style="fill:#FFFFFF;" width="35.593" height="35.593"/>
	<rect x="238.2" y="330.35" style="fill:#FFFFFF;" width="35.593" height="35.593"/>
	<rect x="280.62" y="330.35" style="fill:#FFFFFF;" width="35.593" height="35.593"/>
</g>
<g>
</g>
<g>
</g>
<g>
</g>
<g>
</g>
<g>
</g>
<g>
</g>
<g>
</g>
<g>
</g>
<g>
</g>
<g>
</g>
<g>
</g>
<g>
</g>
<g>
</g>
<g>
</g>
<g>
</g>
</svg>
