<?xml version="1.0" encoding="iso-8859-1"?>
<!-- Generator: Adobe Illustrator 19.0.0, SVG Export Plug-In . SVG Version: 6.00 Build 0)  -->
<svg version="1.1" id="Capa_1" xmlns="http://www.w3.org/2000/svg" xmlns:xlink="http://www.w3.org/1999/xlink" x="0px" y="0px"
	 viewBox="0 0 512 512" style="enable-background:new 0 0 512 512;" xml:space="preserve">
<circle style="fill:#B6FFF6;" cx="256" cy="256" r="256"/>
<path style="fill:#97F4EC;" d="M510.928,232.635l-96.001-96.001l-0.003,0.003c-1.408-1.444-3.371-2.344-5.548-2.344H299.489
	l-23.502-23.502L94.874,142.566v226.867L236.72,511.28c6.365,0.474,12.793,0.72,19.28,0.72c141.385,0,256-114.615,256-256
	C512,248.121,511.624,240.332,510.928,232.635z"/>
<g>
	<polygon style="fill:#006941;" points="275.987,401.209 94.874,369.434 94.874,142.566 275.987,110.791 	"/>
	<path style="fill:#006941;" d="M409.376,377.707h-123.94V134.293h123.94c4.28,0,7.75,3.47,7.75,7.75v227.914
		C417.126,374.237,413.656,377.707,409.376,377.707z"/>
</g>
<path id="SVGCleanerId_0" style="fill:#FFFFFF;" d="M210.865,234.284c-3.104-3.094-14.261-9.191-25.079-9.191
	c-7.999,0-14.838,2.542-14.838,10.504c0,6.267,5.685,8.9,12.014,10.767c18.04,5.325,39.194,7.498,39.194,30.069
	c0,4.989-0.942,9.257-2.823,12.802c-11.096,20.886-49.434,18.022-70.838,2.823l8.009-15.625c0.788,0.788,2.21,1.817,4.267,3.086
	c16.771,10.359,42.083,12.428,42.083-1.247c0-8.574-11.066-10.834-24.16-14.575c-15.307-4.199-26.392-9.644-26.392-25.21
	c0-19.242,15.255-29.281,34.008-29.281c11.85,0,22.894,3.793,32.563,10.373L210.865,234.284z"/>
<rect id="SVGCleanerId_1" x="285.5" y="266.97" style="fill:#FFFFFF;" width="42.08" height="11.895"/>
<rect id="SVGCleanerId_2" x="336.07" y="266.97" style="fill:#FFFFFF;" width="62.32" height="11.895"/>
<rect id="SVGCleanerId_3" x="285.5" y="300.11" style="fill:#FFFFFF;" width="42.08" height="11.895"/>
<rect id="SVGCleanerId_4" x="336.07" y="300.11" style="fill:#FFFFFF;" width="62.32" height="11.895"/>
<rect id="SVGCleanerId_5" x="285.5" y="333.24" style="fill:#FFFFFF;" width="42.08" height="11.895"/>
<rect id="SVGCleanerId_6" x="336.07" y="333.24" style="fill:#FFFFFF;" width="62.32" height="11.895"/>
<circle style="fill:#FFFFFF;" cx="383.28" cy="168.28" r="9.487"/>
<g>
	<polygon style="fill:#089970;" points="275.987,401.209 94.874,369.434 94.874,142.566 275.987,110.791 	"/>
	<path style="fill:#089970;" d="M409.376,377.707h-123.94V134.293h123.94c4.28,0,7.75,3.47,7.75,7.75v227.914
		C417.126,374.237,413.656,377.707,409.376,377.707z"/>
</g>
<g>
	<path id="SVGCleanerId_0_1_" style="fill:#FFFFFF;" d="M210.865,234.284c-3.104-3.094-14.261-9.191-25.079-9.191
		c-7.999,0-14.838,2.542-14.838,10.504c0,6.267,5.685,8.9,12.014,10.767c18.04,5.325,39.194,7.498,39.194,30.069
		c0,4.989-0.942,9.257-2.823,12.802c-11.096,20.886-49.434,18.022-70.838,2.823l8.009-15.625c0.788,0.788,2.21,1.817,4.267,3.086
		c16.771,10.359,42.083,12.428,42.083-1.247c0-8.574-11.066-10.834-24.16-14.575c-15.307-4.199-26.392-9.644-26.392-25.21
		c0-19.242,15.255-29.281,34.008-29.281c11.85,0,22.894,3.793,32.563,10.373L210.865,234.284z"/>
</g>
<g>
	<rect id="SVGCleanerId_1_1_" x="285.5" y="266.97" style="fill:#FFFFFF;" width="42.08" height="11.895"/>
</g>
<g>
	<rect id="SVGCleanerId_2_1_" x="336.07" y="266.97" style="fill:#FFFFFF;" width="62.32" height="11.895"/>
</g>
<g>
	<rect id="SVGCleanerId_3_1_" x="285.5" y="300.11" style="fill:#FFFFFF;" width="42.08" height="11.895"/>
</g>
<g>
	<rect id="SVGCleanerId_4_1_" x="336.07" y="300.11" style="fill:#FFFFFF;" width="62.32" height="11.895"/>
</g>
<g>
	<rect id="SVGCleanerId_5_1_" x="285.5" y="333.24" style="fill:#FFFFFF;" width="42.08" height="11.895"/>
</g>
<g>
	<rect id="SVGCleanerId_6_1_" x="336.07" y="333.24" style="fill:#FFFFFF;" width="62.32" height="11.895"/>
</g>
<g>
	<polygon style="fill:#FFFFFF;" points="363.459,179.156 349.549,193.065 392.872,236.388 382.058,236.388 320.695,175.025 
		285.504,210.216 285.504,249.957 292.658,249.957 377.477,249.957 417.126,249.957 417.126,232.703 	"/>
	<circle style="fill:#FFFFFF;" cx="383.28" cy="168.28" r="9.487"/>
</g>
<g>
</g>
<g>
</g>
<g>
</g>
<g>
</g>
<g>
</g>
<g>
</g>
<g>
</g>
<g>
</g>
<g>
</g>
<g>
</g>
<g>
</g>
<g>
</g>
<g>
</g>
<g>
</g>
<g>
</g>
</svg>
