<?xml version="1.0" encoding="iso-8859-1"?>
<!-- Generator: Adobe Illustrator 19.0.0, SVG Export Plug-In . SVG Version: 6.00 Build 0)  -->
<svg version="1.1" id="Capa_1" xmlns="http://www.w3.org/2000/svg" xmlns:xlink="http://www.w3.org/1999/xlink" x="0px" y="0px"
	 viewBox="0 0 512 512" style="enable-background:new 0 0 512 512;" xml:space="preserve">
<circle style="fill:#D2F0FF;" cx="256" cy="256" r="256"/>
<path style="fill:#73C8F0;" d="M297.793,137.459l-23.876-23.876L97.535,144.529v220.942l146.231,146.231
	C247.821,511.893,251.898,512,256,512c118.041,0,217.404-79.899,247.004-188.559l-175.88-175.88
	c-6.403-6.403-15.248-10.364-25.019-10.364C300.645,137.197,299.207,137.287,297.793,137.459z"/>
<path style="fill:#1E73BE;" d="M379.085,219.62c-2.109,0-4.171,0.195-6.178,0.549c-7.123-18.153-19.641-33.618-35.572-44.409
	c0.094-1.049,0.15-2.109,0.15-3.183c0-19.54-15.84-35.38-35.38-35.38c-11.506,0-21.727,5.494-28.187,14v-37.614L97.535,144.529
	v220.942l176.382,30.946v-38.026c6.459,8.516,16.675,14.024,28.187,14.024c19.54,0,35.38-15.84,35.38-35.38
	c0-0.948-0.048-1.885-0.122-2.814c15.917-10.79,28.425-26.247,35.544-44.389c2.007,0.354,4.069,0.549,6.178,0.549
	c19.54,0,35.38-15.84,35.38-35.38S398.625,219.62,379.085,219.62z M355.994,281.793c-5.099,13.689-13.991,25.539-25.386,34.287
	c-6.441-8.747-16.807-14.425-28.503-14.425c-11.51,0-21.728,5.502-28.187,14.014V193.948c6.461,8.509,16.679,14.009,28.187,14.009
	c11.586,0,21.871-5.57,28.324-14.177c11.483,8.761,20.439,20.666,25.565,34.427c-7.521,6.488-12.289,16.081-12.289,26.793
	S348.473,275.305,355.994,281.793z"/>
<path style="fill:#FFFFFF;" d="M212.929,232.076c-2.52-2.51-9.579-6.752-18.936-9.172c-9.309-2.399-26.037-2.328-26.037,10.652
	c0,7.062,6.406,10.028,13.536,12.131c20.328,6.002,44.159,8.444,44.159,33.878c0,31.688-36.084,35.726-62.281,27.665
	c-7.693-2.367-14.598-5.719-20.712-10.06l9.025-17.605c2.213,2.214,11.689,8.362,23.522,11.391c9.228,2.368,28.7,3.669,28.7-9.32
	c0-2.268-0.642-4.19-1.923-5.77c-6.128-7.525-23.958-8.813-38.391-15.163c-12.239-5.385-16.642-13.238-16.642-23.892
	c0-30.992,34.549-38.528,58.732-29.513c6.213,2.318,11.635,5.056,16.272,8.211L212.929,232.076z"/>
<g>
</g>
<g>
</g>
<g>
</g>
<g>
</g>
<g>
</g>
<g>
</g>
<g>
</g>
<g>
</g>
<g>
</g>
<g>
</g>
<g>
</g>
<g>
</g>
<g>
</g>
<g>
</g>
<g>
</g>
</svg>
