<?xml version="1.0" encoding="iso-8859-1"?>
<!-- Generator: Adobe Illustrator 19.0.0, SVG Export Plug-In . SVG Version: 6.00 Build 0)  -->
<svg version="1.1" id="Capa_1" xmlns="http://www.w3.org/2000/svg" xmlns:xlink="http://www.w3.org/1999/xlink" x="0px" y="0px"
	 viewBox="0 0 512 512" style="enable-background:new 0 0 512 512;" xml:space="preserve">
<circle style="fill:#36930F;" cx="256" cy="256" r="256"/>
<path style="fill:#2A7507;" d="M341.974,143.739l-12.564,2.6l-30.245-30.245c-8.88-9.117-20.608-15.447-33.739-17.517
	c11.256,7.248,20.332,17.588,26.018,29.821c4.352,5.178,7.569,11.328,9.328,18.061l-30.962-30.962l-0.011,0.011
	c-10.917-10.907-25.972-17.672-42.586-17.672c-33.249,0-60.299,27.05-60.299,60.298v21.826l-50.573,10.464v177.395l144.127,144.127
	c132.729-2.273,240.853-105.542,250.788-236.27L395.659,160.078l-31.122,0.778L341.974,143.739z"/>
<path style="fill:#FFFFFF;" d="M364.538,160.856l-22.563-17.117l-26.348,5.451c-3.875-25.94-24.325-46.534-50.199-50.615
	c11.256,7.248,20.332,17.588,26.017,29.821c5.528,6.578,9.264,14.709,10.446,23.636l-14.458,2.991
	c-1.623-31.81-28.013-57.189-60.219-57.189c-33.249,0-60.299,27.05-60.299,60.298v21.826l-50.573,10.463v177.395l225.634,44.349
	l53.685-19.451V160.078L364.538,160.856z M180.918,158.133c0-25.526,20.767-46.293,46.294-46.293
	c25.45,0,46.165,20.645,46.288,46.067l-63.794,13.199v-12.972c0-14.397,6.608-27.279,16.948-35.776
	c-10.271,0.158-19.509,4.656-25.944,11.747c-3.214,7.367-5.009,15.491-5.009,24.029v15.869l-14.783,3.059L180.918,158.133
	L180.918,158.133z"/>
<g>
	<polygon style="fill:#2A7507;" points="215.915,275.355 215.915,225.984 163.562,232.207 163.562,275.355 	"/>
	<polygon style="fill:#2A7507;" points="221.967,275.355 290.862,275.355 290.862,217.076 221.967,225.265 	"/>
	<polygon style="fill:#2A7507;" points="215.915,281.407 163.562,281.407 163.562,323.698 215.915,329.92 	"/>
	<polygon style="fill:#2A7507;" points="221.967,281.407 221.967,330.64 290.862,338.829 290.862,281.407 	"/>
</g>
<g>
</g>
<g>
</g>
<g>
</g>
<g>
</g>
<g>
</g>
<g>
</g>
<g>
</g>
<g>
</g>
<g>
</g>
<g>
</g>
<g>
</g>
<g>
</g>
<g>
</g>
<g>
</g>
<g>
</g>
</svg>
