<?xml version="1.0" encoding="iso-8859-1"?>
<!-- Generator: Adobe Illustrator 19.0.0, SVG Export Plug-In . SVG Version: 6.00 Build 0)  -->
<svg version="1.1" id="Capa_1" xmlns="http://www.w3.org/2000/svg" xmlns:xlink="http://www.w3.org/1999/xlink" x="0px" y="0px"
	 viewBox="0 0 512 512" style="enable-background:new 0 0 512 512;" xml:space="preserve">
<circle style="fill:#D2F0FF;" cx="256" cy="256" r="256"/>
<path style="fill:#73C8F0;" d="M282.027,107.335L96.605,139.867v232.267l139.064,139.064C242.377,511.724,249.156,512,256,512
	c118.945,0,218.934-81.124,247.68-191.059L400.289,217.55c-5.729-5.73-12.802-10.112-20.694-12.648L282.027,107.335z"/>
<g>
	<path style="fill:#FFFFFF;" d="M377.822,334.813c-2.395,0-4.786-0.932-6.583-2.788L342.828,302.7
		c-2.561-2.643-3.292-6.562-1.857-9.951c1.435-3.389,4.759-5.59,8.439-5.59h14.461c18.304,0,33.196-14.891,33.196-33.195
		s-14.892-33.195-33.196-33.195h-7.13c-5.062,0-9.164-4.103-9.164-9.164s4.102-9.164,9.164-9.164h7.13
		c28.411,0,51.524,23.114,51.524,51.524c0,26.123-19.541,47.768-44.774,51.084l13.781,14.225c3.521,3.635,3.429,9.437-0.205,12.959
		C382.417,333.955,380.118,334.813,377.822,334.813z"/>
	<path style="fill:#FFFFFF;" d="M318.254,305.487H302.57c-28.409,0-51.523-23.114-51.523-51.524s23.114-51.524,51.523-51.524h5.351
		l-13.355-13.785c-3.521-3.635-3.429-9.437,0.205-12.959c3.637-3.523,9.438-3.429,12.959,0.206l28.411,29.325
		c2.561,2.643,3.292,6.562,1.857,9.95c-1.436,3.389-4.759,5.59-8.439,5.59H302.57c-18.304,0-33.194,14.891-33.194,33.195
		s14.891,33.195,33.194,33.195h15.684c5.062,0,9.164,4.103,9.164,9.164S323.316,305.487,318.254,305.487z"/>
</g>
<polygon style="fill:#1E73BE;" points="282.028,404.665 96.605,372.133 96.605,139.867 282.028,107.335 "/>
<path style="fill:#FFFFFF;" d="M162.179,306.159V206.7h19.332v82.509h50.709v16.95H162.179z"/>
<g>
</g>
<g>
</g>
<g>
</g>
<g>
</g>
<g>
</g>
<g>
</g>
<g>
</g>
<g>
</g>
<g>
</g>
<g>
</g>
<g>
</g>
<g>
</g>
<g>
</g>
<g>
</g>
<g>
</g>
</svg>
