<?xml version="1.0" encoding="iso-8859-1"?>
<!-- Generator: Adobe Illustrator 19.0.0, SVG Export Plug-In . SVG Version: 6.00 Build 0)  -->
<svg version="1.1" id="Capa_1" xmlns="http://www.w3.org/2000/svg" xmlns:xlink="http://www.w3.org/1999/xlink" x="0px" y="0px"
	 viewBox="0 0 512 512" style="enable-background:new 0 0 512 512;" xml:space="preserve">
<circle style="fill:#DCD732;" cx="256" cy="256" r="256"/>
<path style="fill:#A0AF32;" d="M100.37,141.512v228.977L241.462,511.58c4.813,0.27,9.658,0.42,14.538,0.42
	c141.385,0,256-114.615,256-256c0-4.861-0.148-9.686-0.416-14.48l-99.954-99.954h-88.061l44.225,44.225h-8.277l-76.35-76.35
	L100.37,141.512z"/>
<g>
	<polygon style="fill:#006941;" points="283.167,402.56 100.37,370.488 100.37,141.512 283.167,109.44 	"/>
	<rect x="291.59" y="185.79" style="fill:#006941;" width="79.61" height="181.32"/>
	<polygon style="fill:#006941;" points="411.63,141.566 323.569,141.566 382.957,185.79 382.957,300.78 411.63,300.78 	"/>
</g>
<g>
	<path style="fill:#FFFFFF;" d="M165.017,305.448v-98.05h41.567c18.282,0,31.21,16.846,31.21,32.591
		c0,16.821-12.535,32.591-30.519,32.591h-23.201v32.868H165.017z M184.074,255.871h22.096c7.995,0,12.29-7.46,12.29-15.882
		c0-8.269-4.827-15.882-13.119-15.882h-21.267V255.871z"/>
	<rect x="291.59" y="207.48" style="fill:#FFFFFF;" width="58.967" height="42.961"/>
	<rect x="291.59" y="271.92" style="fill:#FFFFFF;" width="58.967" height="11.793"/>
	<rect x="291.59" y="303.94" style="fill:#FFFFFF;" width="58.967" height="11.793"/>
	<rect x="291.59" y="335.94" style="fill:#FFFFFF;" width="58.967" height="11.793"/>
</g>
<g>
</g>
<g>
</g>
<g>
</g>
<g>
</g>
<g>
</g>
<g>
</g>
<g>
</g>
<g>
</g>
<g>
</g>
<g>
</g>
<g>
</g>
<g>
</g>
<g>
</g>
<g>
</g>
<g>
</g>
</svg>
