<?xml version="1.0" encoding="iso-8859-1"?>
<!-- Generator: Adobe Illustrator 19.0.0, SVG Export Plug-In . SVG Version: 6.00 Build 0)  -->
<svg version="1.1" id="Capa_1" xmlns="http://www.w3.org/2000/svg" xmlns:xlink="http://www.w3.org/1999/xlink" x="0px" y="0px"
	 viewBox="0 0 512 512" style="enable-background:new 0 0 512 512;" xml:space="preserve">
<circle style="fill:#F97DA0;" cx="256" cy="256" r="256"/>
<path style="fill:#DB5E85;" d="M310.359,143.591l-31.544-31.544L99.27,143.548v224.904l143.192,143.192
	C246.946,511.878,251.458,512,256,512c137.06,0,248.959-107.71,255.677-243.102L407.084,164.304
	c-13.371-13.89-48.481-21.088-83.26-21.088C319.324,143.216,314.823,143.351,310.359,143.591z"/>
<path style="fill:#FFFFFF;" d="M323.824,143.216c-44.181,0-88.905,11.613-88.905,33.808s44.725,33.808,88.905,33.808
	c30.895,0,62.052-5.68,78-16.686v35.528c0,9.338-30.385,22.902-78,22.902s-78-13.564-78-22.902h-10.906
	c0,22.196,44.725,33.808,88.905,33.808c30.895,0,62.052-5.68,78-16.686v35.528c0,9.338-30.385,22.902-78,22.902
	s-78-13.564-78-22.902h-10.906c0,22.195,44.725,33.808,88.905,33.808c30.895,0,62.052-5.68,78-16.686v35.528
	c0,9.338-30.385,22.903-78,22.903s-78-13.564-78-22.903h-10.906c0,22.196,44.725,33.808,88.905,33.808
	c44.181,0,88.906-11.613,88.906-33.808V177.025C412.73,154.829,368.005,143.216,323.824,143.216z M323.824,199.927
	c-47.614,0-78-13.564-78-22.902s30.385-22.903,78-22.903s78,13.564,78,22.903S371.439,199.927,323.824,199.927z"/>
<polygon style="fill:#AF2243;" points="278.815,399.953 99.27,368.452 99.27,143.548 278.815,112.047 "/>
<path style="fill:#FFFFFF;" d="M176.818,197.543h17.964l39.756,104.544H213.63l-9.718-26.062h-36.517l-9.571,26.062h-20.909
	L176.818,197.543z M200.23,261.742L185.8,220.66l-15.019,41.081h29.449V261.742z"/>
<g>
</g>
<g>
</g>
<g>
</g>
<g>
</g>
<g>
</g>
<g>
</g>
<g>
</g>
<g>
</g>
<g>
</g>
<g>
</g>
<g>
</g>
<g>
</g>
<g>
</g>
<g>
</g>
<g>
</g>
</svg>
