<?xml version="1.0" encoding="iso-8859-1"?>
<!-- Generator: Adobe Illustrator 19.0.0, SVG Export Plug-In . SVG Version: 6.00 Build 0)  -->
<svg version="1.1" id="Capa_1" xmlns="http://www.w3.org/2000/svg" xmlns:xlink="http://www.w3.org/1999/xlink" x="0px" y="0px"
	 viewBox="0 0 512.001 512.001" style="enable-background:new 0 0 512.001 512.001;" xml:space="preserve">
<circle style="fill:#05CDFF;" cx="256" cy="256" r="256"/>
<path style="fill:#0485BD;" d="M511.847,247.563l-95.882-95.882h-7.997l-8.882-8.882h-90.598l-31.711-31.711L96.035,142.799v226.403
	l142.173,142.173c5.88,0.404,11.81,0.626,17.793,0.626c141.385,0,256-114.615,256-256C512,253.175,511.938,250.366,511.847,247.563z
	"/>
<g>
	<polygon style="fill:#823264;" points="96.035,369.202 276.777,400.912 276.777,111.088 96.035,142.798 	"/>
	<polygon style="fill:#823264;" points="399.086,151.681 399.086,142.799 285.57,142.799 285.57,369.202 399.086,369.202 
		399.086,214.395 415.965,214.395 415.965,151.681 	"/>
	<rect x="405.08" y="223.59" style="fill:#823264;" width="10.888" height="62.714"/>
	<rect x="405.08" y="297.61" style="fill:#823264;" width="10.888" height="62.714"/>
</g>
<g>
	<rect x="285.57" y="167.48" style="fill:#FFFFFF;" width="79.66" height="13.06"/>
	<rect x="285.57" y="200.28" style="fill:#FFFFFF;" width="79.66" height="13.06"/>
	<rect x="285.57" y="233.07" style="fill:#FFFFFF;" width="79.66" height="13.06"/>
	<rect x="285.57" y="265.86" style="fill:#FFFFFF;" width="79.66" height="13.06"/>
	<rect x="285.57" y="298.66" style="fill:#FFFFFF;" width="79.66" height="13.06"/>
	<rect x="285.57" y="331.45" style="fill:#FFFFFF;" width="79.66" height="13.06"/>
	<polygon style="fill:#FFFFFF;" points="205.175,272.311 164.237,213.341 145.945,213.341 145.945,298.659 164.237,298.659 
		164.237,239.689 205.175,298.659 223.467,298.659 223.467,213.341 205.175,213.341 	"/>
</g>
<g>
</g>
<g>
</g>
<g>
</g>
<g>
</g>
<g>
</g>
<g>
</g>
<g>
</g>
<g>
</g>
<g>
</g>
<g>
</g>
<g>
</g>
<g>
</g>
<g>
</g>
<g>
</g>
<g>
</g>
</svg>
