<svg id="Layer_1" enable-background="new 0 0 124 124" height="512" viewBox="0 0 124 124" width="512" xmlns="http://www.w3.org/2000/svg"><path d="m0 20.296h108.416v75.124h-108.416z" fill="#eae6f2"/><path d="m0 2h38.289v18.296h-38.289z" fill="#38e3d4"/><path d="m38.289 2h70.127v18.296h-70.127z" fill="#284e51"/><g fill="#fff"><path d="m100.625 13.485h-54.544c-1.104 0-2-.896-2-2s.896-2 2-2h54.543c1.104 0 2 .896 2 2s-.895 2-1.999 2z"/><path d="m9.719 14.197c-1.677 0-3.041-1.368-3.041-3.049 0-1.682 1.364-3.049 3.041-3.049s3.04 1.368 3.04 3.049-1.363 3.049-3.04 3.049z"/><path d="m18.81 14.197c-1.677 0-3.041-1.368-3.041-3.049 0-1.682 1.364-3.049 3.041-3.049s3.04 1.368 3.04 3.049-1.364 3.049-3.04 3.049z"/><path d="m27.9 14.197c-1.677 0-3.04-1.368-3.04-3.049 0-1.682 1.364-3.049 3.04-3.049 1.677 0 3.041 1.368 3.041 3.049s-1.365 3.049-3.041 3.049z"/></g><path d="m44.176 85.31c.947 4.339 2.629 8.361 4.943 11.959l-6.135 6.174 10.973 11.042 6.135-6.174c3.576 2.328 7.607 4.022 11.884 4.974v8.715h15.565v-8.714c4.312-.953 8.308-2.646 11.884-4.974l6.135 6.174 10.973-11.042-6.135-6.138c2.314-3.598 3.996-7.655 4.943-11.959h8.659v-15.665h-8.624c-.947-4.339-2.629-8.361-4.943-11.959l6.135-6.174-10.973-11.042-6.135 6.173c-3.576-2.328-7.607-4.022-11.884-4.974v-8.714h-15.565v8.714c-4.312.953-8.308 2.646-11.884 4.974l-6.135-6.174-10.973 11.043 6.135 6.174c-2.314 3.598-3.996 7.655-4.943 11.959h-8.659v15.664z" fill="#3e706e"/><path d="m53.964 77.478c0-14.392 11.563-26.028 25.865-26.028s25.865 11.637 25.865 26.028-11.563 26.028-25.865 26.028-25.865-11.636-25.865-26.028z" fill="#fff"/><path d="m66.775 77.478c0-7.264 5.836-13.137 13.054-13.137s13.054 5.873 13.054 13.137-5.836 13.137-13.054 13.137-13.054-5.873-13.054-13.137z" fill="#16ff90"/></svg>