<svg id="Layer_1" enable-background="new 0 0 124 124" height="512" viewBox="0 0 124 124" width="512" xmlns="http://www.w3.org/2000/svg"><path d="m109.438 14.152c0-2.293-1.851-4.152-4.133-4.152h-79.47c-2.283 0-4.133 1.859-4.133 4.152v51.037l87.737-.2v-50.837z" fill="#38e3d4"/><path d="m21.701 65.189v8.907c0 2.293 1.851 4.152 4.133 4.152h37.735v11.5h-10.947c-1.104 0-2 .896-2 2s.896 2 2 2h25.896c1.104 0 2-.896 2-2s-.896-2-2-2h-10.949v-11.5h37.735c2.283 0 4.133-1.859 4.133-4.152v-9.107z" fill="#ced3dd"/><path d="m0 102.456c0 1.734 1.625 3.141 3.615 3.141h37.183c1.99 0 3.615-1.408 3.615-3.141v-10.708h-44.413z" fill="#3e706e"/><path d="m44.413 27.392c0-1.734-1.625-3.141-3.615-3.141h-37.183c-1.99 0-3.615 1.407-3.615 3.141v10.728h44.413z" fill="#3e706e"/><path d="m0 38.12h44.413v53.627h-44.413z" fill="#eae6f2"/><path d="m28.36 33.31h-12.307c-1.104 0-2-.896-2-2s.896-2 2-2h12.307c1.104 0 2 .896 2 2s-.896 2-2 2z" fill="#fff"/><path d="m22.239 101.693c-1.746 0-3.167-1.429-3.167-3.186s1.421-3.186 3.167-3.186 3.167 1.429 3.167 3.186-1.42 3.186-3.167 3.186z" fill="#fff"/><path d="m87.95 111.45c0 1.407 1.319 2.55 2.934 2.55h30.181c1.615 0 2.934-1.142 2.934-2.55v-11.159h-36.049z" fill="#3e706e"/><path d="m124 45.587c0-1.407-1.319-2.55-2.934-2.55h-30.181c-1.615 0-2.934 1.142-2.934 2.55v11.176h36.049z" fill="#3e706e"/><path d="m87.95 56.763h36.05v43.529h-36.05z" fill="#eae6f2"/><g fill="#fff"><path d="m110.97 52.001h-9.989c-1.104 0-2-.896-2-2s.896-2 2-2h9.989c1.104 0 2 .896 2 2s-.896 2-2 2z"/><path d="m106.002 109.989c-1.632 0-2.96-1.336-2.96-2.977 0-1.642 1.328-2.977 2.96-2.977s2.96 1.336 2.96 2.977c0 1.642-1.328 2.977-2.96 2.977z"/></g></svg>