<svg id="Layer_1" enable-background="new 0 0 124 124" height="512" viewBox="0 0 124 124" width="512" xmlns="http://www.w3.org/2000/svg"><path d="" style="fill:#fff;stroke:#000;stroke-width:4;stroke-linecap:round;stroke-linejoin:round;stroke-miterlimit:10"/><path d="m110 19.077-21.127-19.077v19.077z" fill="#284e51"/><path d="m88.873 19.077v-19.077h-74.873v124h96v-104.923z" fill="#eae6f2"/><g fill="#b8c2d5"><path d="m100.529 36.867h-57.6c-1.104 0-2-.896-2-2s.896-2 2-2h57.6c1.104 0 2 .896 2 2s-.895 2-2 2z"/><path d="m76.183 25.039h-33.253c-1.104 0-2-.896-2-2s.896-2 2-2h33.253c1.104 0 2 .896 2 2s-.896 2-2 2z"/><path d="m100.529 71.011h-25.751c-1.104 0-2-.896-2-2s.896-2 2-2h25.751c1.104 0 2 .896 2 2s-.895 2-2 2z"/><path d="m64.171 71.011h-21.241c-1.104 0-2-.896-2-2s.896-2 2-2h21.241c1.104 0 2 .896 2 2s-.896 2-2 2z"/><path d="m76.183 59.183h-33.253c-1.104 0-2-.896-2-2s.896-2 2-2h33.253c1.104 0 2 .896 2 2s-.896 2-2 2z"/><path d="m100.529 107.163h-40.18c-1.104 0-2-.896-2-2s.896-2 2-2h40.181c1.104 0 2 .896 2 2s-.896 2-2.001 2z"/><path d="m53.492 107.163h-10.562c-1.104 0-2-.896-2-2s.896-2 2-2h10.562c1.104 0 2 .896 2 2s-.896 2-2 2z"/><path d="m76.183 95.334h-33.253c-1.104 0-2-.896-2-2s.896-2 2-2h33.253c1.104 0 2 .896 2 2s-.896 2-2 2z"/></g><path d="m23.829 35.295-4.013-4.017c-.781-.782-.78-2.048.001-2.829.782-.781 2.048-.78 2.829.001l2.683 2.686 9.218-8.15c.828-.731 2.092-.654 2.823.174s.654 2.091-.174 2.823l-10.627 9.397c-.694.745-2.069.683-2.74-.085z" fill="#38e3d4"/><path d="m23.829 68.099-4.013-4.017c-.781-.782-.78-2.048.001-2.829.782-.781 2.048-.78 2.829.001l2.683 2.686 9.218-8.15c.828-.731 2.092-.654 2.823.174s.654 2.091-.174 2.823l-10.627 9.396c-.694.746-2.069.684-2.74-.084z" fill="#38e3d4"/><path d="m23.829 103.099-4.013-4.017c-.781-.782-.78-2.048.001-2.829.782-.781 2.048-.78 2.829.001l2.683 2.686 9.218-8.15c.828-.731 2.092-.654 2.823.174s.654 2.091-.174 2.823l-10.627 9.396c-.694.746-2.069.684-2.74-.084z" fill="#38e3d4"/></svg>