<svg id="Layer_1" enable-background="new 0 0 124 124" height="512" viewBox="0 0 124 124" width="512" xmlns="http://www.w3.org/2000/svg"><path d="m110.926 3.051c-5.773-.495-11.333 2.669-13.944 7.958h-70.664v82.446l79.259.475c10.21.061 18.499-8.266 18.423-18.509v-62.519c-1.772-5.441-7.407-9.365-13.074-9.851z" fill="#eae6f2"/><path d="m123.835 12.465c-2.123-5.628-8.126-9.459-14.079-9.465-5.381-.006-10.4 3.2-12.774 8.009h-.004v54.809c.344-1.219 4.336-6.223 11.582-7.58 7.17-1.342 13.34 1.906 15.439 3.264v-48.6c-.048-.148-.11-.291-.164-.437-.714-1.893.054.146 0 0z" fill="#38e3d4"/><path d="m110.054 22.024c-2.28 0-4.134-1.856-4.134-4.137s1.855-4.137 4.134-4.137 4.134 1.856 4.134 4.137-1.855 4.137-4.134 4.137z" fill="#fff"/><path d="m110.054 34.809c-2.28 0-4.134-1.856-4.134-4.137s1.855-4.138 4.134-4.138 4.134 1.856 4.134 4.138-1.855 4.137-4.134 4.137z" fill="#fff"/><path d="m110.054 47.596c-2.28 0-4.134-1.856-4.134-4.137s1.855-4.138 4.134-4.138 4.134 1.856 4.134 4.138-1.855 4.137-4.134 4.137z" fill="#fff"/><g fill="#b8c2d5"><path d="m88.33 31.715h-54.169c-1.104 0-2-.896-2-2v-9.589c0-1.104.896-2 2-2h54.169c1.104 0 2 .896 2 2v9.589c0 1.104-.895 2-2 2zm-52.169-4h50.169v-5.589h-50.169z"/><path d="m44.729 50.736h-9.559c-1.104 0-2-.896-2-2v-9.589c0-1.104.896-2 2-2h9.559c1.104 0 2 .896 2 2v9.589c0 1.104-.895 2-2 2zm-7.558-4h5.559v-5.589h-5.559z"/><path d="m66.451 50.736h-9.56c-1.104 0-2-.896-2-2v-9.589c0-1.104.896-2 2-2h9.56c1.104 0 2 .896 2 2v9.589c0 1.104-.895 2-2 2zm-7.559-4h5.56v-5.589h-5.56z"/><path d="m88.172 50.736h-9.56c-1.104 0-2-.896-2-2v-9.589c0-1.104.896-2 2-2h9.56c1.104 0 2 .896 2 2v9.589c0 1.104-.896 2-2 2zm-7.56-4h5.56v-5.589h-5.56z"/><path d="m46.496 60.326h-12.422c-1.104 0-2-.896-2-2s.896-2 2-2h12.422c1.104 0 2 .896 2 2s-.895 2-2 2z"/><path d="m46.496 68.317h-12.422c-1.104 0-2-.896-2-2s.896-2 2-2h12.422c1.104 0 2 .896 2 2s-.895 2-2 2z"/><path d="m67.208 60.326h-12.422c-1.104 0-2-.896-2-2s.896-2 2-2h12.422c1.104 0 2 .896 2 2s-.896 2-2 2z"/><path d="m67.208 68.317h-12.422c-1.104 0-2-.896-2-2s.896-2 2-2h12.422c1.104 0 2 .896 2 2s-.896 2-2 2z"/><path d="m87.92 60.326h-12.423c-1.104 0-2-.896-2-2s.896-2 2-2h12.423c1.104 0 2 .896 2 2s-.896 2-2 2z"/><path d="m87.92 68.317h-12.423c-1.104 0-2-.896-2-2s.896-2 2-2h12.423c1.104 0 2 .896 2 2s-.896 2-2 2z"/></g><path d="m119.817 120.914h-7.975-89.684l.023-20.026h97.636z" fill="#3fdded"/><path d="m109.389 121c.001-.029.009-.057.009-.086v-13.554c0-1.142-.925-2.069-2.067-2.069-1.141 0-2.067.926-2.067 2.069v13.554c0 .03.007.057.009.086z" fill="#fff"/><path d="m97.274 121c.001-.029.009-.057.009-.086v-10.516c0-1.142-.925-2.069-2.067-2.069-1.141 0-2.067.926-2.067 2.069v10.516c0 .03.008.057.009.086z" fill="#fff"/><path d="m85.16 121c.001-.029.009-.057.009-.086v-13.554c0-1.142-.925-2.069-2.067-2.069-1.141 0-2.067.926-2.067 2.069v13.554c0 .03.008.057.009.086z" fill="#fff"/><path d="m73.046 121c.001-.029.009-.057.009-.086v-10.516c0-1.142-.925-2.069-2.067-2.069-1.141 0-2.067.926-2.067 2.069v10.516c0 .03.008.057.009.086z" fill="#fff"/><path d="m60.932 121c.001-.029.009-.057.009-.086v-13.554c0-1.142-.925-2.069-2.067-2.069s-2.067.926-2.067 2.069v13.554c0 .03.008.057.009.086z" fill="#fff"/><path d="m48.817 121c.001-.029.009-.057.009-.086v-10.516c0-1.142-.925-2.069-2.067-2.069s-2.067.926-2.067 2.069v10.516c0 .03.008.057.009.086z" fill="#fff"/><path d="m36.703 121c.001-.029.009-.057.009-.086v-13.554c0-1.142-.925-2.069-2.067-2.069-1.141 0-2.067.926-2.067 2.069v13.554c0 .03.008.057.009.086z" fill="#fff"/><path d="m0 93.827 9.259 15.132 8.55-15.196-.002-3.966-17.807.036z" fill="#284e51"/><path d="m0 22.774v67.059l17.807-.036-.045-67.023z" fill="#eae6f2"/><path d="m17.759 18.726c-.022-5.275-4.01-9.555-8.92-9.534-4.909.021-8.878 4.317-8.839 9.609v3.972h17.762z" fill="#284e51"/></svg>