<svg id="Layer_1" enable-background="new 0 0 124 124" height="512" viewBox="0 0 124 124" width="512" xmlns="http://www.w3.org/2000/svg"><path d="m10.293 9h104.173v106h-104.173z" fill="#eae6f2"/><path d="m114.019 21.377c-5.512 0-9.981 4.547-9.981 10.156 0 2.553.932 4.879 2.46 6.663l-22.289 16.709c-1.762-1.591-4.074-2.565-6.614-2.565-3.131 0-5.923 1.469-7.753 3.765l-16.405-9.945c-.084-.051-.172-.086-.26-.123.304-.971.47-2.005.47-3.079 0-5.609-4.469-10.156-9.981-10.156s-9.981 4.547-9.981 10.156c0 1.87.505 3.617 1.372 5.122l-20.98 23.708c-1.251-.574-2.634-.901-4.096-.901-5.512-.001-9.981 4.546-9.981 10.155s4.469 10.156 9.981 10.156 9.981-4.547 9.981-10.156c0-2.655-1.01-5.065-2.649-6.874l20.411-23.064c1.661 1.257 3.713 2.01 5.942 2.01 3.053 0 5.782-1.398 7.612-3.596.029.02.053.045.084.063l16.651 10.093c-.255.897-.399 1.841-.399 2.822 0 5.609 4.469 10.156 9.981 10.156s9.981-4.547 9.981-10.156c0-1.57-.36-3.051-.985-4.378l23.204-17.395c1.285.613 2.713.965 4.225.965 5.512 0 9.981-4.547 9.981-10.156-.001-5.608-4.47-10.155-9.982-10.155z" fill="#284e51"/><path d="m23.432 20.784h-5.965c-1.104 0-2-.896-2-2s.896-2 2-2h5.965c1.104 0 2 .896 2 2s-.896 2-2 2z" fill="#3fdded"/><path d="m35.908 20.784h-5.966c-1.104 0-2-.896-2-2s.896-2 2-2h5.966c1.104 0 2 .896 2 2s-.895 2-2 2z" fill="#b8c2d5"/><path d="m48.384 20.784h-5.966c-1.104 0-2-.896-2-2s.896-2 2-2h5.966c1.104 0 2 .896 2 2s-.896 2-2 2z" fill="#38e3d4"/></svg>