<svg id="Layer_1" enable-background="new 0 0 124 124" height="512" viewBox="0 0 124 124" width="512" xmlns="http://www.w3.org/2000/svg"><path d="m27 119.321c0 2.582 2.561 4.679 5.698 4.679h58.605c3.137 0 5.698-2.096 5.698-4.679v-11.002h-70.001z" fill="#3e706e"/><path d="m97 4.679c0-2.583-2.561-4.679-5.698-4.679h-58.604c-3.137 0-5.698 2.096-5.698 4.679v12.025h70z" fill="#3e706e"/><path d="m27 16.703h70v91.616h-70z" fill="#eae6f2"/><path d="m62.052 119.628c-2.091 0-3.793-1.666-3.793-3.713s1.702-3.713 3.793-3.713 3.793 1.666 3.793 3.713-1.702 3.713-3.793 3.713z" fill="#fff"/><path d="m71.699 11.033h-19.398c-1.104 0-2-.896-2-2s.896-2 2-2h19.397c1.104 0 2 .896 2 2s-.895 2-1.999 2z" fill="#fff"/><path d="m41.814 23.626h40.373v12.805h-40.373z" fill="#38e3d4"/><path d="m51.925 32.029h-4.836c-1.104 0-2-.896-2-2s.896-2 2-2h4.836c1.104 0 2 .896 2 2s-.895 2-2 2z" fill="#fff"/><path d="m64.019 32.029h-4.836c-1.104 0-2-.896-2-2s.896-2 2-2h4.836c1.104 0 2 .896 2 2s-.896 2-2 2z" fill="#fff"/><path d="m76.112 32.029h-4.837c-1.104 0-2-.896-2-2s.896-2 2-2h4.837c1.104 0 2 .896 2 2s-.896 2-2 2z" fill="#fff"/><path d="m34.783 43.371h13.611v11.996h-13.611z" fill="#284e51"/><path d="m54.97 43.371h13.611v11.996h-13.611z" fill="#284e51"/><path d="m75.156 43.371h13.611v11.996h-13.611z" fill="#284e51"/><path d="m34.783 62.532h13.611v11.996h-13.611z" fill="#284e51"/><path d="m54.97 62.532h13.611v11.996h-13.611z" fill="#284e51"/><path d="m75.156 62.532h13.611v11.996h-13.611z" fill="#284e51"/><path d="m34.783 81.692h13.611v11.996h-13.611z" fill="#284e51"/><path d="m54.97 81.692h13.611v11.996h-13.611z" fill="#284e51"/><path d="m75.156 81.692h13.611v11.996h-13.611z" fill="#284e51"/><g fill="#fff"><path d="m61.775 46.89c-1.379 0-2.5 1.112-2.5 2.48s1.121 2.48 2.5 2.48 2.5-1.112 2.5-2.48-1.121-2.48-2.5-2.48z"/><path d="m81.961 51.85c1.379 0 2.5-1.112 2.5-2.48s-1.121-2.48-2.5-2.48-2.5 1.112-2.5 2.48c0 1.367 1.122 2.48 2.5 2.48z"/><path d="m81.961 66.05c-1.379 0-2.5 1.112-2.5 2.48s1.121 2.48 2.5 2.48 2.5-1.112 2.5-2.48-1.121-2.48-2.5-2.48z"/><path d="m61.775 66.05c-1.379 0-2.5 1.112-2.5 2.48s1.121 2.48 2.5 2.48 2.5-1.112 2.5-2.48-1.121-2.48-2.5-2.48z"/><path d="m41.589 66.05c-1.379 0-2.5 1.112-2.5 2.48s1.121 2.48 2.5 2.48 2.5-1.112 2.5-2.48-1.122-2.48-2.5-2.48z"/><path d="m61.775 85.21c-1.379 0-2.5 1.112-2.5 2.48s1.121 2.48 2.5 2.48 2.5-1.112 2.5-2.48-1.121-2.48-2.5-2.48z"/><path d="m41.589 85.21c-1.379 0-2.5 1.112-2.5 2.48s1.121 2.48 2.5 2.48 2.5-1.112 2.5-2.48-1.122-2.48-2.5-2.48z"/><path d="m81.961 85.21c-1.379 0-2.5 1.112-2.5 2.48s1.121 2.48 2.5 2.48 2.5-1.112 2.5-2.48-1.121-2.48-2.5-2.48z"/><path d="m41.589 46.89c-1.379 0-2.5 1.112-2.5 2.48s1.121 2.48 2.5 2.48 2.5-1.112 2.5-2.48-1.122-2.48-2.5-2.48z"/></g><path d="m90.261 103.277h-56.522c-1.104 0-2-.896-2-2s.896-2 2-2h56.521c1.104 0 2 .896 2 2s-.895 2-1.999 2z" fill="#b8c2d5"/></svg>