<svg id="Layer_1" enable-background="new 0 0 124 124" height="512" viewBox="0 0 124 124" width="512" xmlns="http://www.w3.org/2000/svg"><path d="m3 21.333h118v102.667h-118z" fill="#eae6f2"/><path d="m3 0h42.909v21.333h-42.909z" fill="#38e3d4"/><path d="m45.909 0h75.091v21.333h-75.091z" fill="#284e51"/><path d="m110.272 12.667h-53.636c-1.104 0-2-.896-2-2s.896-2 2-2h53.636c1.104 0 2 .896 2 2s-.895 2-2 2z" fill="#fff"/><path d="m14.386 12.667h-4.316c-1.104 0-2-.896-2-2s.896-2 2-2h4.316c1.104 0 2 .896 2 2s-.895 2-2 2z" fill="#fff"/><path d="m26.454 12.667h-4.315c-1.104 0-2-.896-2-2s.896-2 2-2h4.315c1.104 0 2 .896 2 2s-.895 2-2 2z" fill="#fff"/><path d="m38.522 12.667h-4.315c-1.104 0-2-.896-2-2s.896-2 2-2h4.315c1.104 0 2 .896 2 2s-.895 2-2 2z" fill="#fff"/><g fill="#b8c2d5"><path d="m20.432 34h-6.045c-1.104 0-2-.896-2-2s.896-2 2-2h6.045c1.104 0 2 .896 2 2s-.896 2-2 2z"/><path d="m62 34h-32.182c-1.104 0-2-.896-2-2s.896-2 2-2h32.182c1.104 0 2 .896 2 2s-.896 2-2 2z"/><path d="m20.432 47.333h-6.045c-1.104 0-2-.896-2-2s.896-2 2-2h6.045c1.104 0 2 .896 2 2s-.896 2-2 2z"/><path d="m62 47.333h-32.182c-1.104 0-2-.896-2-2s.896-2 2-2h32.182c1.104 0 2 .896 2 2s-.896 2-2 2z"/><path d="m20.432 60.667h-6.045c-1.104 0-2-.896-2-2s.896-2 2-2h6.045c1.104 0 2 .896 2 2s-.896 2-2 2z"/><path d="m62 60.667h-32.182c-1.104 0-2-.896-2-2s.896-2 2-2h32.182c1.104 0 2 .896 2 2s-.896 2-2 2z"/><path d="m20.432 74h-6.045c-1.104 0-2-.896-2-2s.896-2 2-2h6.045c1.104 0 2 .896 2 2s-.896 2-2 2z"/><path d="m62 74h-18.773c-1.104 0-2-.896-2-2s.896-2 2-2h18.773c1.104 0 2 .896 2 2s-.896 2-2 2z"/><path d="m20.432 87.333h-6.045c-1.104 0-2-.896-2-2s.896-2 2-2h6.045c1.104 0 2 .896 2 2s-.896 2-2 2z"/><path d="m52.614 87.333h-22.796c-1.104 0-2-.896-2-2s.896-2 2-2h22.795c1.104 0 2 .896 2 2s-.895 2-1.999 2z"/><path d="m20.432 100.667h-6.045c-1.104 0-2-.896-2-2s.896-2 2-2h6.045c1.104 0 2 .896 2 2s-.896 2-2 2z"/><path d="m62 100.667h-32.182c-1.104 0-2-.896-2-2s.896-2 2-2h32.182c1.104 0 2 .896 2 2s-.896 2-2 2z"/><path d="m20.432 114h-6.045c-1.104 0-2-.896-2-2s.896-2 2-2h6.045c1.104 0 2 .896 2 2s-.896 2-2 2z"/><path d="m38.522 114h-8.704c-1.104 0-2-.896-2-2s.896-2 2-2h8.704c1.104 0 2 .896 2 2s-.895 2-2 2z"/><path d="m102.228 60.667h-32.182c-1.104 0-2-.896-2-2s.896-2 2-2h32.182c1.104 0 2 .896 2 2s-.896 2-2 2z"/><path d="m98.204 74h-18.772c-1.104 0-2-.896-2-2s.896-2 2-2h18.772c1.104 0 2 .896 2 2s-.895 2-2 2z"/><path d="m79.432 87.333h-19.678c-1.104 0-2-.896-2-2s.896-2 2-2h19.678c1.104 0 2 .896 2 2s-.896 2-2 2z"/><path d="m83.454 100.667h-13.408c-1.104 0-2-.896-2-2s.896-2 2-2h13.408c1.104 0 2 .896 2 2s-.895 2-2 2z"/><path d="m70.046 114h-23.701c-1.104 0-2-.896-2-2s.896-2 2-2h23.701c1.104 0 2 .896 2 2s-.896 2-2 2z"/><path d="m99.546 114h-21.455c-1.104 0-2-.896-2-2s.896-2 2-2h21.455c1.104 0 2 .896 2 2s-.896 2-2 2z"/></g></svg>