<svg id="Layer_1" enable-background="new 0 0 124 124" height="512" viewBox="0 0 124 124" width="512" xmlns="http://www.w3.org/2000/svg"><path d="m3 21.333h118v102.667h-118z" fill="#eae6f2"/><path d="m3 0h118v21.333h-118z" fill="#38e3d4"/><path d="m110.273 12.734h-53.636c-1.143 0-2.07-.925-2.07-2.067s.926-2.067 2.07-2.067h53.637c1.143 0 2.07.925 2.07 2.067s-.928 2.067-2.071 2.067z" fill="#284e51"/><path d="m14.386 12.734h-4.315c-1.143 0-2.07-.925-2.07-2.067s.926-2.067 2.07-2.067h4.315c1.143 0 2.07.925 2.07 2.067s-.927 2.067-2.07 2.067z" fill="#284e51"/><path d="m26.454 12.734h-4.315c-1.143 0-2.07-.925-2.07-2.067s.927-2.067 2.07-2.067h4.315c1.143 0 2.07.925 2.07 2.067s-.927 2.067-2.07 2.067z" fill="#284e51"/><path d="m38.523 12.734h-4.315c-1.143 0-2.07-.925-2.07-2.067s.926-2.067 2.069-2.067h4.315c1.143 0 2.07.925 2.07 2.067s-.926 2.067-2.069 2.067z" fill="#284e51"/><path d="m12.118 28.933h99.764v20.667h-99.764z" fill="#3fdded"/><path d="m12.118 95.067h99.764v20.667h-99.764z" fill="#3fdded"/><g fill="#284e51"><path d="m14.307 76.937c-2.553 0-4.631-2.065-4.631-4.604s2.077-4.604 4.631-4.604c2.552 0 4.63 2.065 4.63 4.604s-2.077 4.604-4.63 4.604z"/><path d="m108.875 76.937c-2.553 0-4.631-2.065-4.631-4.604s2.077-4.604 4.631-4.604c2.552 0 4.63 2.065 4.63 4.604s-2.078 4.604-4.63 4.604z"/><path d="m35.874 65.351c1.31 0 2.554.253 3.505.712l.823.397 1.033-3.488-.565-.295c-.419-.219-2.013-.935-4.881-.935-6.314 0-10.723 4.425-10.723 10.761 0 6.315 3.999 10.394 10.187 10.394 2.511 0 4.423-.509 5.377-.984l.563-.281-.906-3.468-.851.412c-.909.439-2.317.712-3.674.712-4.097 0-6.543-2.568-6.543-6.871-.001-4.424 2.488-7.066 6.655-7.066z"/><path d="m52.61 61.742c-5.665 0-9.621 4.425-9.621 10.761 0 6.136 3.84 10.422 9.338 10.422 4.789 0 9.621-3.336 9.621-10.788 0-6.218-3.752-10.395-9.338-10.395zm-.113 3.553c3.642 0 5.301 3.605 5.301 6.954 0 3.546-1.648 7.123-5.328 7.123-3.642 0-5.301-3.59-5.301-6.926 0-3.559 1.648-7.151 5.328-7.151z"/><path d="m71.723 61.911c-1.775 0-3.572.136-5.343.404l-.66.099v20.062l.688.078c1.342.152 2.874.23 4.554.23 3.925 0 7.026-1.024 8.966-2.959 1.944-1.912 2.972-4.659 2.972-7.944 0-3.125-.988-5.613-2.932-7.393-1.862-1.734-4.559-2.577-8.245-2.577zm7.052 10.056c0 4.703-2.604 7.293-7.332 7.293-.47 0-1.133-.006-1.711-.051v-13.673c.612-.085 1.319-.129 2.107-.129 2.335 0 4.115.599 5.291 1.782 1.106 1.11 1.66 2.717 1.646 4.776v.002z"/><path d="m90.683 79.006v-5.306h7.405v-3.58h-7.405v-4.459h7.828v-3.609h-11.84v20.563h12.264v-3.609z"/></g></svg>