<svg id="Layer_1" enable-background="new 0 0 124 124" height="512" viewBox="0 0 124 124" width="512" xmlns="http://www.w3.org/2000/svg"><path d="m53.491 7h70.489v20.607h-70.489z" fill="#38e3d4"/><path d="m53.491 27.607v89.393h70.509l-.018-89.393z" fill="#f4f3f7"/><path d="m114.951 20.585h-45.134c-1.104 0-2-.896-2-2s.896-2 2-2h45.134c1.104 0 2 .896 2 2s-.895 2-2 2z" fill="#284e51"/><g fill="#3fdded"><path d="m60.581 35.782h56.473v21.848h-56.473z"/><path d="m60.581 66.37h21.494v26.218h-21.494z"/><path d="m87.909 66.37h29.146v26.218h-29.146z"/></g><path d="m81.082 103.327h-19.501c-1.104 0-2-.896-2-2s.896-2 2-2h19.501c1.104 0 2 .896 2 2s-.895 2-2 2z" fill="#b8c2d5"/><path d="m118.15 103.327h-26.715c-1.104 0-2-.896-2-2s.896-2 2-2h26.716c1.104 0 2 .896 2 2s-.896 2-2.001 2z" fill="#b8c2d5"/><path d="m0 112.692c0 2.378 2.239 4.308 4.982 4.308h51.249c2.743 0 4.982-1.93 4.982-4.308v-13.907h-61.213z" fill="#3e706e"/><path d="m0 25.243h61.213v73.542h-61.213z" fill="#eae6f2"/><path d="m61.213 11.308c0-2.378-2.239-4.308-4.982-4.308h-51.249c-2.743 0-4.982 1.93-4.982 4.308v13.935h61.213z" fill="#3e706e"/><path d="m39.088 18.292h-16.963c-1.104 0-2-.896-2-2s.896-2 2-2h16.963c1.104 0 2 .896 2 2s-.896 2-2 2z" fill="#fff"/><path d="m30.651 111.175c-1.935 0-3.51-1.574-3.51-3.508s1.575-3.508 3.51-3.508c1.936 0 3.511 1.574 3.511 3.508.001 1.934-1.574 3.508-3.511 3.508z" fill="#fff"/></svg>