<svg id="Layer_1" enable-background="new 0 0 124 124" height="512" viewBox="0 0 124 124" width="512" xmlns="http://www.w3.org/2000/svg"><path d="m27.081 119.036c0 2.74 2.563 4.964 5.703 4.964h58.665c3.14 0 5.703-2.224 5.703-4.964v-13.634h-70.071z" fill="#3e706e"/><path d="m97.152 4.964c0-2.74-2.563-4.964-5.703-4.964h-58.665c-3.14 0-5.703 2.224-5.703 4.964v13.666h70.071z" fill="#3e706e"/><path d="m27.081 18.63h70.071v86.773h-70.071z" fill="#eae6f2"/><path d="m71.825 11.512h-19.417c-1.104 0-2-.896-2-2s.896-2 2-2h19.417c1.104 0 2 .896 2 2s-.896 2-2 2z" fill="#fff"/><path d="m36.667 35.317h51.518v33.798h-51.518z" fill="#b8c2d5"/><path d="m82.612 59.601h-12.408c-1.104 0-2-.896-2-2s.896-2 2-2h10.408v-12.202c0-1.104.896-2 2-2s2 .896 2 2v14.201c0 1.105-.896 2.001-2 2.001z" fill="#fff"/><path d="m36.667 76.989h51.518v12.453h-51.518z" fill="#b8c2d5"/><path d="m52.408 99.493h-13.72c-1.104 0-2-.896-2-2s.896-2 2-2h13.72c1.104 0 2 .896 2 2s-.896 2-2 2z" fill="#cccde1"/><path d="m72.615 99.493h-13.72c-1.104 0-2-.896-2-2s.896-2 2-2h13.72c1.104 0 2 .896 2 2s-.896 2-2 2z" fill="#cccde1"/><path d="m89.736 99.493h-10.634c-1.104 0-2-.896-2-2s.896-2 2-2h10.634c1.104 0 2 .896 2 2s-.896 2-2 2z" fill="#cccde1"/><path d="m71.725 64.606h51.275v16.533h-51.275z" fill="#38e3d4"/><path d="m100.18 74.873h-21.898c-1.104 0-2-.896-2-2s.896-2 2-2h21.898c1.104 0 2 .896 2 2s-.896 2-2 2z" fill="#fff"/><path d="m114.689 74.873h-8.728c-1.104 0-2-.896-2-2s.896-2 2-2h8.728c1.104 0 2 .896 2 2s-.895 2-2 2z" fill="#fff"/><path d="m1 28.084h51.275v16.533h-51.275z" fill="#38e3d4"/><g fill="#fff"><path d="m9.168 40.103c-1.914 0-3.472-1.568-3.472-3.497 0-1.927 1.557-3.496 3.472-3.496s3.472 1.568 3.472 3.496c-.001 1.929-1.558 3.497-3.472 3.497z"/><path d="m19.271 40.103c-1.914 0-3.472-1.568-3.472-3.497 0-1.927 1.557-3.496 3.472-3.496s3.472 1.568 3.472 3.496c0 1.929-1.557 3.497-3.472 3.497z"/><path d="m29.375 40.103c-1.914 0-3.472-1.568-3.472-3.497 0-1.927 1.557-3.496 3.472-3.496 1.914 0 3.471 1.568 3.471 3.496 0 1.929-1.557 3.497-3.471 3.497z"/><circle cx="62" cy="114.786" r="4.131"/></g></svg>