<svg id="Layer_1" enable-background="new 0 0 124 124" height="512" viewBox="0 0 124 124" width="512" xmlns="http://www.w3.org/2000/svg"><path id="XMLID_1546_" d="m0 13h124v98h-124z" fill="#eae6f2"/><path d="m102.606 51.073c-2.581-3.211-6.194-5.642-10.151-6.77-.43-12.325-10.495-22.22-22.884-22.22-5.248 0-10.323 1.823-14.367 5.121-3.441 2.864-6.108 6.683-7.398 10.936-1.807-.694-3.785-1.128-5.764-1.128-8.517 0-15.399 6.944-15.485 15.537-5.85 2.691-9.721 8.68-9.721 15.189 0 9.2 7.398 16.752 16.604 16.752h53.424c11.184 0 20.303-9.2 20.303-20.484-.002-4.774-1.637-9.374-4.561-12.933z" fill="#38e3d4"/><g fill="#284e51"><path d="m59.094 59.286c-.278-1.118-1.401-1.793-2.508-1.514-6.785 1.722-12.37 6.679-14.938 13.26-3.836 9.827-.204 20.839 8.116 26.579-.979.372-1.909.806-2.033 2.006-.157 1.514 1.359 2.709 2.781 2.166l4.943-1.88c1.084-.411 1.629-1.699 1.169-2.775l-2.198-5.153c-.451-1.058-1.667-1.549-2.715-1.09-.812.352-1.279 1.168-1.242 2.009-5.589-4.902-7.831-13.018-4.975-20.334 2.113-5.412 6.523-9.328 12.101-10.743 1.106-.282 1.778-1.415 1.499-2.531-.277-1.118.279 1.116 0 0z"/><path d="m72.411 56.699c-.416-1.073-1.613-1.604-2.676-1.185l-4.919 1.936c-1.07.421-1.604 1.698-1.147 2.766l2.174 5.097c.597 1.404 2.502 1.682 3.475.517.791-.947.412-1.952-.011-2.944 8.561 3.989 12.686 14.133 9.194 23.081-2.495 6.394-8.482 10.823-15.254 11.283-1.138.077-2 1.071-1.923 2.221.074 1.101.982 1.945 2.06 1.945.046 0 .094-.001.141-.005 8.356-.567 15.745-6.029 18.822-13.916 4.234-10.846-.632-23.127-10.909-28.198.922-.487 1.36-1.598.973-2.598z"/></g></svg>