<svg id="Layer_1" enable-background="new 0 0 124 124" height="512" viewBox="0 0 124 124" width="512" xmlns="http://www.w3.org/2000/svg"><path d="m88.042 24.743c0-2.063-1.851-3.743-4.126-3.743h-79.79c-2.275 0-4.126 1.679-4.126 3.743v46.872h88.042z" fill="#3fdded"/><path d="m88.042 82.855v-11.24h-88.042v7.497c0 2.063 1.851 3.743 4.126 3.743h37.895v8.932h-7.676c-1.104 0-2 .896-2 2s.896 2 2 2h19.353c1.104 0 2-.896 2-2s-.896-2-2-2h-7.677v-8.932z" fill="#ced3dd"/><path d="m94.472 103h26.857c1.471 0 2.672-1.021 2.672-2.279v-10.307h-29.529z" fill="#38e3d4"/><path d="m94.472 53.557h29.528v36.857h-29.528z" fill="#fff"/><path d="m124 43.236c0-1.258-1.201-2.279-2.672-2.279h-26.856v12.601h29.528z" fill="#38e3d4"/><path d="m112.135 49.347h-8.083c-1.104 0-2-.896-2-2s.896-2 2-2h8.083c1.104 0 2 .896 2 2s-.896 2-2 2z" fill="#fff"/><path d="m107.611 99.44c-1.588 0-2.88-1.279-2.88-2.852s1.292-2.852 2.88-2.852 2.88 1.279 2.88 2.852-1.292 2.852-2.88 2.852z" fill="#fff"/><path d="m58.135 100.103c0 1.55 1.479 2.808 3.292 2.808h33.858c1.812 0 3.292-1.258 3.292-2.808v-11.759h-40.442z" fill="#3e706e"/><path d="m58.135 44.51h40.442v43.833h-40.442z" fill="#eae6f2"/><path d="m98.576 32.733c0-1.55-1.479-2.808-3.292-2.808h-33.857c-1.812 0-3.292 1.258-3.292 2.808v11.777h40.442v-11.777z" fill="#3e706e"/><g fill="#fff"><path d="m83.959 39.329h-11.207c-1.104 0-2-.896-2-2s.896-2 2-2h11.207c1.104 0 2 .896 2 2s-.896 2-2 2z"/><path d="m78.386 98.519c-1.692 0-3.07-1.362-3.07-3.038s1.377-3.039 3.07-3.039 3.069 1.363 3.069 3.039c0 1.675-1.377 3.038-3.069 3.038z"/></g></svg>