<svg id="Layer_1" enable-background="new 0 0 124 124" height="512" viewBox="0 0 124 124" width="512" xmlns="http://www.w3.org/2000/svg"><path d="m51.71 86.512v18.039h-11.385c-1.066 0-1.93 1.077-1.93 2.405v4.009c0 1.328.864 2.405 1.93 2.405h21.04v-26.858z" fill="#cccde1"/><path d="m82.65 115.18h-11.897v-18.073h-9.391v26.893h21.288c1.031 0 1.866-1.077 1.866-2.405v-4.009c0-1.329-.835-2.406-1.866-2.406z" fill="#ced3dd"/><path d="m0 77.308v5.269c0 2.146 1.513 3.901 3.362 3.901l57.987.037v-9.176z" fill="#cccde1"/><path d="m61.348 87.967v9.141l59.262-.037c1.849.035 3.362-1.72 3.39-3.866v-5.269z" fill="#ced3dd"/><path d="m61.348 0h-57.986c-1.849 0-3.362 1.755-3.362 3.901v73.406l61.348.031v-66.71z" fill="#38e3d4"/><path d="m120.638 10.629h-59.06-.229v66.71 9.176 1.452l62.651-.031v-73.406c0-2.146-1.513-3.901-3.362-3.901z" fill="#3e706e"/><g fill="#284e51"><path d="m67.324 19.702c-8.445-1.836-17.126.745-23.219 6.909-8.734 8.836-9.716 22.584-2.959 32.533l-1.734-.08c-1.102-.021-2.038.803-2.09 1.906-.051 1.104.803 2.039 1.906 2.09 0 0 6.27.287 6.3.287 1.088 0 2-.913 2-2v-6.566c0-1.104-.896-2-2-2s-2 .896-2 2v.588c-4.644-8.238-3.518-18.925 3.423-25.946 5.123-5.186 12.425-7.356 19.521-5.813 1.083.236 2.146-.45 2.38-1.528.236-1.08-.449-2.145-1.528-2.38-8.445-1.836 1.079.235 0 0z"/><path d="m80.452 27.137.701.024c1.143.028 2.03-.826 2.068-1.93s-.826-2.03-1.93-2.068l-6.208-.214c-1.114-.054-2.069.892-2.069 1.999v6.495c0 1.104.896 2 2 2s2-.896 2-2v-2.123c.011.01.023.022.034.032 8.316 8.413 8.316 22.104 0 30.518-6.323 6.398-15.996 8.132-24.07 4.314-.998-.47-2.19-.046-2.663.954-.472.998-.045 2.19.954 2.663 3.402 1.607 7.041 2.389 10.658 2.389 6.596-.001 13.113-2.598 17.967-7.508 9.643-9.755 9.838-25.497.558-35.545z"/></g></svg>