<svg id="Layer_1" enable-background="new 0 0 124 124" height="512" viewBox="0 0 124 124" width="512" xmlns="http://www.w3.org/2000/svg"><path d="m117.741 43.345c-3.543-4.359-8.503-7.657-13.935-9.188-.591-16.728-14.408-30.157-31.414-30.157-7.204 0-14.171 2.474-19.722 6.95-4.724 3.887-8.385 9.071-10.156 14.843-2.48-.942-5.196-1.531-7.912-1.531-11.691 0-21.139 9.424-21.257 21.086-8.031 3.652-13.345 11.78-13.345 20.615 0 12.487 10.156 22.736 22.792 22.736h73.338c15.352 0 27.87-12.487 27.87-27.801 0-6.479-2.244-12.723-6.259-17.553z" fill="#3fdded"/><path d="m32.636 89.914c.781 3.558 2.169 6.856 4.077 9.807l-5.06 5.062 9.051 9.055 5.06-5.062c2.949 1.909 6.275 3.298 9.802 4.079v7.145h12.838v-7.145c3.557-.781 6.853-2.17 9.802-4.079l5.06 5.062 9.051-9.055-5.06-5.034c1.908-2.951 3.296-6.277 4.077-9.807h7.142v-12.843h-7.113c-.781-3.558-2.169-6.856-4.077-9.807l5.06-5.062-9.051-9.055-5.06 5.062c-2.949-1.909-6.275-3.298-9.802-4.079v-7.145h-12.838v7.145c-3.557.781-6.853 2.17-9.802 4.079l-5.06-5.062-9.051 9.055 5.06 5.062c-1.908 2.951-3.296 6.277-4.077 9.807h-7.142v12.844z" fill="#284e51"/><path d="m40.71 83.492c0-11.801 9.538-21.343 21.334-21.343s21.334 9.542 21.334 21.343-9.538 21.343-21.334 21.343-21.334-9.541-21.334-21.343z" fill="#fff"/><ellipse cx="62.043" cy="83.492" fill="#38e3d4" rx="10.767" ry="10.772"/></svg>