<svg id="Layer_1" enable-background="new 0 0 124 124" height="512" viewBox="0 0 124 124" width="512" xmlns="http://www.w3.org/2000/svg"><path d="m110.748 15.777c0-2.634-2.329-4.777-5.19-4.777h-100.368c-2.861 0-5.19 2.144-5.19 4.777v61.615h110.748z" fill="#3fdded"/><path d="m110.748 89.95v-12.557h-110.748v7.78c0 2.634 2.329 4.777 5.19 4.777h48.184v8.37h-10.172c-1.104 0-2 .896-2 2s.896 2 2 2h24.344c1.104 0 2-.896 2-2s-.896-2-2-2h-10.172v-8.37z" fill="#ced3dd"/><path d="m73.128 109.416c0 1.978 1.861 3.584 4.141 3.584h42.591c2.28 0 4.141-1.606 4.141-3.584v-11.925h-50.873z" fill="#3e706e"/><path d="m124 26.444c0-1.978-1.861-3.584-4.141-3.584h-42.59c-2.28 0-4.141 1.606-4.141 3.584v11.948h50.872z" fill="#3e706e"/><path d="m73.128 38.392h50.872v59.099h-50.872z" fill="#eae6f2"/><path d="m105.612 32.768h-14.096c-1.104 0-2-.896-2-2s.896-2 2-2h14.097c1.104 0 2 .896 2 2s-.896 2-2.001 2z" fill="#fff"/><path d="m98.602 101.716c-1.835 0-3.327 1.499-3.327 3.342 0 1.844 1.492 3.343 3.327 3.343s3.328-1.499 3.328-3.343c-.001-1.843-1.494-3.342-3.328-3.342z" fill="#fff"/><g fill="#284e51"><path d="m91.872 48.953h-30.761c.758-.533 1.92-1.087 2.321-1.965.827-1.81-1.342-3.613-2.969-2.469l-7.193 5.056c-1.148.807-1.105 2.578.083 3.328l7.193 4.54c1.747 1.101 3.826-.97 2.776-2.724-.48-.802-1.628-1.282-2.394-1.766h30.944c1.104 0 2-.896 2-2s-.895-2-2-2z"/><path d="m93.022 64.695-7.193-5.056c-1.627-1.14-3.797.658-2.969 2.469.401.878 1.564 1.433 2.321 1.965h-30.761c-1.104 0-2 .896-2 2s.896 2 2 2h30.944c-.772.487-1.904.962-2.394 1.766-1.066 1.75 1.037 3.822 2.776 2.724l7.193-4.54c1.186-.749 1.232-2.52.083-3.328z"/></g></svg>