<svg id="Layer_1" enable-background="new 0 0 124 124" height="512" viewBox="0 0 124 124" width="512" xmlns="http://www.w3.org/2000/svg"><path d="m67.935 111.612v-17.027h-10.849v17.027c0 1.514-.977 2.741-2.182 2.741h-18.491c-2.421 0-2.094 3.215-2.094 4.824s-.326 4.824 2.094 4.824h51.174c2.421 0 2.094-3.215 2.094-4.824s.326-4.824-2.094-4.824h-17.47c-1.205 0-2.182-1.227-2.182-2.741z" fill="#ced3dd"/><path d="m122 4.267c0-2.347-1.686-4.267-3.747-4.267h-112.506c-2.061 0-3.747 1.92-3.747 4.267v80.291h120z" fill="#3fdded"/><path d="m2 84.558v5.76c0 2.347 1.686 4.267 3.747 4.267h112.475c2.061 0 3.747-1.92 3.778-4.267v-5.76z" fill="#ced3dd"/><path d="m14.099 10.41h95.801v61.755h-95.801z" fill="#fff"/><g fill="#3e706e"><path d="m43.954 29.295-8.651 25.464h4.326l2.54-7.695h7.954l2.614 7.695h4.432l-8.689-25.464zm5.175 14.301h-5.972l2.174-6.427c.267-.84.527-1.729.795-2.726.237.885.501 1.802.833 2.774z"/><path d="m76.055 31.276c-1.594-1.434-4.014-2.161-7.193-2.161-2.198 0-4.208.157-6.143.479l-.419.07v25.095h4.158v-9.694c.672.098 1.394.113 2.04.113 3.335 0 6.12-1.01 7.835-2.838 1.347-1.386 2.029-3.262 2.029-5.576 0-2.252-.822-4.203-2.307-5.488zm-7.485 10.361c-.857 0-1.554-.051-2.112-.155v-8.703c.521-.087 1.357-.16 2.476-.16 1.969 0 5.271.558 5.271 4.293-.001 3.046-2.002 4.725-5.635 4.725z"/><path d="m84.342 29.295h4.158v25.464h-4.158z"/></g></svg>