<svg id="Layer_1" enable-background="new 0 0 124 124" height="512" viewBox="0 0 124 124" width="512" xmlns="http://www.w3.org/2000/svg"><path d="m116.837 38.597c0-4.297-3.621-7.808-8.051-7.808h-94.399c-4.43 0-8.051 3.512-8.051 7.808v70.018h110.501z" fill="#3e706e"/><path d="m18.28 42.522h86.433v66.093h-86.433z" fill="#fff"/><path d="m113.873 122h-103.746c-5.622 0-10.127-4.544-10.127-10.122v-3.264h124v3.264c0 5.578-4.547 10.122-10.127 10.122z" fill="#ced3dd"/><path d="m39.661 40.673 22.339 38.673 22.339-38.673c9.928-17.188-2.482-38.673-22.339-38.673-19.857 0-32.267 21.485-22.339 38.673z" fill="#38e3d4"/><circle cx="62" cy="26.679" fill="#fff" r="14.001"/></svg>