<svg id="Layer_1" enable-background="new 0 0 124 124" height="512" viewBox="0 0 124 124" width="512" xmlns="http://www.w3.org/2000/svg"><path d="m23.863 2h100.137v92.348h-100.137z" fill="#eae6f2"/><path d="m124 50.739-26.172-23.401-35.05 34.307-4.332 32.703h65.554z" fill="#3e706e"/><path d="m23.863 68.696v25.652h62.039l-33.834-47.457z" fill="#284e51"/><circle cx="60.814" cy="23.804" fill="#38e3d4" r="8"/><path d="m102.137 122h-4.348v-4h4.348v.348h2v1.652c0 1.104-.896 2-2 2zm-10.348 0h-6v-4h6zm-12 0h-6v-4h6zm-12 0h-6v-4h6zm-12 0h-6v-4h6zm-12 0h-6v-4h6zm-12 0h-6v-4h6zm-12 0h-6v-4h6zm-12 0h-5.789c-1.104 0-2-.896-2-2v-.211h2v-1.789h5.789zm-3.789-8.211h-4v-6h4zm100.137-1.441h-4v-6h4zm-100.137-10.559h-4v-6h4zm100.137-1.441h-4v-6h4zm-100.137-10.559h-4v-6h4zm0-12h-4v-6h4zm0-12h-4v-6h4zm0-12h-4v-6h4zm0-12h-4v-6h4zm0-10h-4v-4.137c0-1.104.896-2 2-2h3.863v4h-1.863zm13.863-2.137h-6v-4h6z" fill="#b8c2d5"/></svg>