<svg height="472pt" viewBox="-4 0 472 472" width="472pt" xmlns="http://www.w3.org/2000/svg"><path d="m464 96v208h-464v-208c0-17.671875 14.328125-32 32-32h400c2.421875.019531 4.832031.289062 7.199219.800781 14.527343 3.351563 24.808593 16.292969 24.800781 31.199219zm0 0" fill="#78b9eb"/><path d="m464 96v208h-264l239.199219-239.199219c14.527343 3.351563 24.808593 16.292969 24.800781 31.199219zm0 0" fill="#5aaae7"/><path d="m400 48v208c-.027344 8.824219-7.175781 15.972656-16 16h-304c-8.824219-.027344-15.972656-7.175781-16-16v-208zm0 0" fill="#ffde55"/><path d="m400 48v208c-.027344 8.824219-7.175781 15.972656-16 16h-272l224-224zm0 0" fill="#ffcd00"/><path d="m464 304v32c0 17.671875-14.328125 32-32 32h-400c-17.671875 0-32-14.328125-32-32v-32zm0 0" fill="#acabb1"/><path d="m400 16v32h-336v-32c.027344-8.824219 7.175781-15.9726562 16-16h304c8.824219.0273438 15.972656 7.175781 16 16zm0 0" fill="#ff7956"/><path d="m304 136c13.097656-.226562 24.039062 9.917969 24.804688 22.992188.765624 13.074218-8.917969 24.425781-21.953126 25.730468-13.03125 1.304688-24.773437-7.90625-26.613281-20.875-1.835937-12.964844 6.878907-25.078125 19.761719-27.449218 1.3125-.292969 2.65625-.429688 4-.398438zm0 0" fill="#ffa733"/><path d="m320 440v24h-176v-24c0-4.417969 3.582031-8 8-8h160c4.417969 0 8 3.582031 8 8zm0 0" fill="#787680"/><path d="m296 432h-128l8-64h112zm0 0" fill="#898890"/><path d="m160 136c12.339844.179688 22.53125 9.6875 23.566406 21.988281 1.03125 12.296875-7.429687 23.375-19.566406 25.613281-1.3125.292969-2.65625.429688-4 .398438-13.253906 0-24-10.746094-24-24s10.746094-24 24-24zm0 0" fill="#ffa733"/><path d="m290 384h-116l2-16h112zm0 0" fill="#787680"/><path d="m120 456h224v16h-224zm0 0" fill="#57565c"/><path d="m416 328h16v16h-16zm0 0" fill="#787680"/><path d="m88 16h16v16h-16zm0 0" fill="#ff5023"/><path d="m120 16h16v16h-16zm0 0" fill="#ffd422"/><path d="m152 16h16v16h-16zm0 0" fill="#00ccb3"/><path d="m232 224c-24.339844-.042969-46.542969-13.910156-57.265625-35.761719 14.191406-7.4375 20.667969-24.242187 15.140625-39.28125-5.527344-15.039062-21.34375-23.648437-36.972656-20.128906-15.632813 3.523437-26.230469 18.082031-24.773438 34.039063 1.453125 15.957031 14.511719 28.359374 30.519532 28.996093 10.867187 25.054688 33.773437 42.828125 60.742187 47.136719 26.96875 4.304688 54.273437-5.453125 72.402344-25.878906l-12-10.625c-12.132813 13.660156-29.523438 21.484375-47.792969 21.503906zm-88-64c0-8.835938 7.164062-16 16-16s16 7.164062 16 16-7.164062 16-16 16-16-7.164062-16-16zm0 0" fill="#ff6243"/><path d="m305.351562 128.136719c-10.871093-25.054688-33.777343-42.828125-60.746093-47.136719-26.972657-4.304688-54.273438 5.453125-72.40625 25.878906l12 10.625c14.121093-15.921875 35.246093-23.761718 56.335937-20.898437 21.089844 2.859375 39.363282 16.042969 48.730469 35.15625-14.191406 7.4375-20.667969 24.242187-15.140625 39.28125 5.527344 15.039062 21.34375 23.648437 36.972656 20.128906 15.632813-3.523437 26.230469-18.082031 24.773438-34.039063-1.453125-15.957031-14.511719-28.359374-30.519532-28.996093zm-1.351562 47.863281c-8.835938 0-16-7.164062-16-16s7.164062-16 16-16 16 7.164062 16 16-7.164062 16-16 16zm0 0" fill="#ff6243"/><path d="m96 72h16v16h-16zm0 0" fill="#ffb655"/><path d="m128 72h32v16h-32zm0 0" fill="#ffa733"/><path d="m96 104h32v16h-32zm0 0" fill="#ffb655"/><path d="m328 200h48v16h-48zm0 0" fill="#ee8700"/><path d="m328 232h48v16h-48zm0 0" fill="#ff9811"/></svg>