<svg height="464pt" viewBox="0 -56 464 464" width="464pt" xmlns="http://www.w3.org/2000/svg"><path d="m128 48h208v256h-208zm0 0" fill="#78b9eb"/><g fill="#ff7956"><path d="m400 272h48c8.835938 0 16 7.164062 16 16v48c0 8.835938-7.164062 16-16 16h-48c-8.835938 0-16-7.164062-16-16v-48c0-8.835938 7.164062-16 16-16zm0 0"/><path d="m400 136h48c8.835938 0 16 7.164062 16 16v48c0 8.835938-7.164062 16-16 16h-48c-8.835938 0-16-7.164062-16-16v-48c0-8.835938 7.164062-16 16-16zm0 0"/><path d="m400 0h48c8.835938 0 16 7.164062 16 16v48c0 8.835938-7.164062 16-16 16h-48c-8.835938 0-16-7.164062-16-16v-48c0-8.835938 7.164062-16 16-16zm0 0"/><path d="m16 272h48c8.835938 0 16 7.164062 16 16v48c0 8.835938-7.164062 16-16 16h-48c-8.835938 0-16-7.164062-16-16v-48c0-8.835938 7.164062-16 16-16zm0 0"/><path d="m16 136h48c8.835938 0 16 7.164062 16 16v48c0 8.835938-7.164062 16-16 16h-48c-8.835938 0-16-7.164062-16-16v-48c0-8.835938 7.164062-16 16-16zm0 0"/><path d="m16 0h48c8.835938 0 16 7.164062 16 16v48c0 8.835938-7.164062 16-16 16h-48c-8.835938 0-16-7.164062-16-16v-48c0-8.835938 7.164062-16 16-16zm0 0"/></g><path d="m254.640625 153.359375c10.832031 10.804687 12.523437 27.761719 4.035156 40.492187-8.488281 12.730469-24.789062 17.691407-38.925781 11.84375-14.140625-5.847656-22.179688-20.867187-19.199219-35.875 2.976563-15.011718 16.148438-25.820312 31.449219-25.820312 8.484375.015625 16.621094 3.378906 22.640625 9.359375zm0 0" fill="#ffb655"/><path d="m128 304h208v16c0 17.671875-14.328125 32-32 32h-144c-17.671875 0-32-14.328125-32-32zm0 0" fill="#acabb1"/><path d="m160 0h144c17.671875 0 32 14.328125 32 32v16h-208v-16c0-17.671875 14.328125-32 32-32zm0 0" fill="#acabb1"/><path d="m336 136v168h-168zm0 0" fill="#5aaae7"/><path d="m208 320h48v16h-48zm0 0" fill="#787680"/><path d="m168 16h16v16h-16zm0 0" fill="#787680"/><path d="m200 16h32v16h-32zm0 0" fill="#787680"/><path d="m288 184v-16h-16.800781c-1.03125-5.007812-3.019531-9.769531-5.855469-14.023438l11.921875-11.921874-11.3125-11.3125-11.921875 11.921874c-4.253906-2.839843-9.019531-4.832031-14.03125-5.863281v-16.800781h-16v16.800781c-5.007812 1.03125-9.769531 3.019531-14.023438 5.855469l-11.921874-11.921875-11.3125 11.3125 11.921874 11.921875c-2.839843 4.253906-4.832031 9.019531-5.863281 14.03125h-16.800781v16h16.800781c1.03125 5.007812 3.019531 9.769531 5.855469 14.023438l-11.921875 11.921874 11.3125 11.3125 11.921875-11.921874c4.253906 2.839843 9.019531 4.832031 14.03125 5.863281v16.800781h16v-16.800781c5.007812-1.03125 9.769531-3.019531 14.023438-5.855469l11.921874 11.921875 11.3125-11.3125-11.921874-11.921875c2.839843-4.253906 4.832031-9.019531 5.863281-14.03125zm-56 16c-13.253906 0-24-10.746094-24-24s10.746094-24 24-24 24 10.746094 24 24-10.746094 24-24 24zm0 0" fill="#ff9811"/><path d="m304 168h56v16h-56zm0 0" fill="#1e81ce"/><path d="m282.339844 114.339844 72.003906-72 11.3125 11.3125-72 72zm0 0" fill="#1e81ce"/><path d="m282.34375 237.65625 11.316406-11.3125 72 72-11.316406 11.3125zm0 0" fill="#1e81ce"/><path d="m104 168h56v16h-56zm0 0" fill="#1e81ce"/><path d="m98.347656 53.65625 11.3125-11.3125 72 72-11.3125 11.3125zm0 0" fill="#1e81ce"/><path d="m98.339844 298.347656 72.003906-72 11.3125 11.3125-72 72zm0 0" fill="#1e81ce"/></svg>