<svg height="472pt" viewBox="-4 0 472 472" width="472pt" xmlns="http://www.w3.org/2000/svg"><path d="m464 96v208h-464v-208c0-17.671875 14.328125-32 32-32h400c2.421875.019531 4.832031.289062 7.199219.800781 14.527343 3.351563 24.808593 16.292969 24.800781 31.199219zm0 0" fill="#78b9eb"/><path d="m464 96v208h-264l239.199219-239.199219c14.527343 3.351563 24.808593 16.292969 24.800781 31.199219zm0 0" fill="#5aaae7"/><path d="m352 48v208c-.027344 8.824219-7.175781 15.972656-16 16h-272c-8.824219-.027344-15.972656-7.175781-16-16v-208zm0 0" fill="#ffde55"/><path d="m464 304v32c0 17.671875-14.328125 32-32 32h-400c-17.671875 0-32-14.328125-32-32v-32zm0 0" fill="#acabb1"/><path d="m352 154.160156c4.933594 2.863282 7.972656 8.136719 7.972656 13.839844s-3.039062 10.976562-7.972656 13.839844zm0 0" fill="#ff6243"/><path d="m352 16v32h-304v-32c.027344-8.824219 7.175781-15.9726562 16-16h272c8.824219.0273438 15.972656 7.175781 16 16zm0 0" fill="#ff7956"/><path d="m320 440v24h-176v-24c0-4.417969 3.582031-8 8-8h160c4.417969 0 8 3.582031 8 8zm0 0" fill="#787680"/><path d="m296 432h-128l8-64h112zm0 0" fill="#898890"/><path d="m290 384h-116l2-16h112zm0 0" fill="#787680"/><path d="m352 48v208c-.027344 8.824219-7.175781 15.972656-16 16h-232l224-224zm0 0" fill="#ffcd00"/><path d="m390.160156 181.199219c-1.03125 3.507812-2.453125 6.890625-4.238281 10.082031l14.636719 22-11.277344 11.277344-22-14.636719c-3.191406 1.785156-6.574219 3.207031-10.082031 4.238281l-5.199219 25.839844h-16l-5.199219-25.839844c-3.507812-1.03125-6.890625-2.453125-10.082031-4.238281l-22 14.636719-11.277344-11.277344 14.636719-22c-1.785156-3.191406-3.207031-6.574219-4.238281-10.082031l-25.839844-5.199219v-16l25.839844-5.199219c1.03125-3.507812 2.453125-6.890625 4.238281-10.082031l-14.636719-22 11.277344-11.277344 22 14.636719c3.191406-1.785156 6.574219-3.207031 10.082031-4.238281l5.199219-25.839844h16l5.199219 25.839844c3.507812 1.03125 6.890625 2.453125 10.082031 4.238281l22-14.636719 11.277344 11.277344-14.636719 22c1.785156 3.191406 3.207031 6.574219 4.238281 10.082031l25.839844 5.199219v16zm0 0" fill="#ffa733"/><path d="m360 168c0 8.835938-7.164062 16-16 16s-16-7.164062-16-16 7.164062-16 16-16 16 7.164062 16 16zm0 0" fill="#ff6243"/><path d="m120 456h224v16h-224zm0 0" fill="#57565c"/><path d="m416 328h16v16h-16zm0 0" fill="#787680"/><path d="m72 16h16v16h-16zm0 0" fill="#ff5023"/><path d="m104 16h16v16h-16zm0 0" fill="#ffd422"/><path d="m136 16h16v16h-16zm0 0" fill="#00ccb3"/><g fill="#ffa733"><path d="m96 72h16v48h-16zm0 0"/><path d="m176 72h16v48h-16zm0 0"/><path d="m152 136h16v48h-16zm0 0"/><path d="m176 136h16v48h-16zm0 0"/><path d="m200 72h16v48h-16zm0 0"/><path d="m224 72h16v48h-16zm0 0"/><path d="m96 200h16v48h-16zm0 0"/><path d="m200 200h16v48h-16zm0 0"/><path d="m224 200h16v48h-16zm0 0"/><path d="m120 200h16v48h-16zm0 0"/><path d="m144 120c-13.253906 0-24-10.746094-24-24s10.746094-24 24-24 24 10.746094 24 24-10.746094 24-24 24zm0-32c-4.417969 0-8 3.582031-8 8s3.582031 8 8 8 8-3.582031 8-8-3.582031-8-8-8zm0 0"/><path d="m120 184c-13.253906 0-24-10.746094-24-24s10.746094-24 24-24 24 10.746094 24 24-10.746094 24-24 24zm0-32c-4.417969 0-8 3.582031-8 8s3.582031 8 8 8 8-3.582031 8-8-3.582031-8-8-8zm0 0"/><path d="m168 248c-13.253906 0-24-10.746094-24-24s10.746094-24 24-24 24 10.746094 24 24-10.746094 24-24 24zm0-32c-4.417969 0-8 3.582031-8 8s3.582031 8 8 8 8-3.582031 8-8-3.582031-8-8-8zm0 0"/><path d="m224 184c-13.253906 0-24-10.746094-24-24s10.746094-24 24-24 24 10.746094 24 24-10.746094 24-24 24zm0-32c-4.417969 0-8 3.582031-8 8s3.582031 8 8 8 8-3.582031 8-8-3.582031-8-8-8zm0 0"/></g></svg>