<svg height="464pt" viewBox="0 -64 464 464" width="464pt" xmlns="http://www.w3.org/2000/svg"><path d="m440 32v256h-416v-256c0-17.671875 14.328125-32 32-32h352c17.671875 0 32 14.328125 32 32zm0 0" fill="#78b9eb"/><path d="m448 336h-432c-8.824219-.027344-15.9726562-7.175781-16-16v-32h464v32c-.027344 8.824219-7.175781 15.972656-16 16zm0 0" fill="#898890"/><path d="m440 32v256h-336l288-288h16c17.671875 0 32 14.328125 32 32zm0 0" fill="#5aaae7"/><path d="m200 304h64v16h-64zm0 0" fill="#787680"/><g fill="#3d9ae2"><path d="m72 40h16v48h-16zm0 0"/><path d="m160 40h16v48h-16zm0 0"/><path d="m192 40h16v48h-16zm0 0"/><path d="m72 104h16v48h-16zm0 0"/><path d="m104 104h16v48h-16zm0 0"/><path d="m136 104h16v48h-16zm0 0"/><path d="m368 40h16v48h-16zm0 0"/><path d="m224 40h16v48h-16zm0 0"/><path d="m224 104h16v48h-16zm0 0"/><path d="m368 104h16v48h-16zm0 0"/><path d="m128 88h-8c-8.835938 0-16-7.164062-16-16v-16c0-8.835938 7.164062-16 16-16h8c8.835938 0 16 7.164062 16 16v16c0 8.835938-7.164062 16-16 16zm-8-32v16h8v-16zm0 0"/><path d="m192 152h-8c-8.835938 0-16-7.164062-16-16v-16c0-8.835938 7.164062-16 16-16h8c8.835938 0 16 7.164062 16 16v16c0 8.835938-7.164062 16-16 16zm-8-32v16h8v-16zm0 0"/><path d="m280 88h-8c-8.835938 0-16-7.164062-16-16v-16c0-8.835938 7.164062-16 16-16h8c8.835938 0 16 7.164062 16 16v16c0 8.835938-7.164062 16-16 16zm-8-32v16h8v-16zm0 0"/><path d="m280 152h-8c-8.835938 0-16-7.164062-16-16v-16c0-8.835938 7.164062-16 16-16h8c8.835938 0 16 7.164062 16 16v16c0 8.835938-7.164062 16-16 16zm-8-32v16h8v-16zm0 0"/><path d="m336 152h-8c-8.835938 0-16-7.164062-16-16v-16c0-8.835938 7.164062-16 16-16h8c8.835938 0 16 7.164062 16 16v16c0 8.835938-7.164062 16-16 16zm-8-32v16h8v-16zm0 0"/><path d="m368 168h16v48h-16zm0 0"/><path d="m336 168h16v48h-16zm0 0"/><path d="m304 168h16v48h-16zm0 0"/><path d="m216 168h16v48h-16zm0 0"/><path d="m72 168h16v48h-16zm0 0"/><path d="m272 216h-8c-8.835938 0-16-7.164062-16-16v-16c0-8.835938 7.164062-16 16-16h8c8.835938 0 16 7.164062 16 16v16c0 8.835938-7.164062 16-16 16zm-8-32v16h8v-16zm0 0"/><path d="m184 216h-8c-8.835938 0-16-7.164062-16-16v-16c0-8.835938 7.164062-16 16-16h8c8.835938 0 16 7.164062 16 16v16c0 8.835938-7.164062 16-16 16zm-8-32v16h8v-16zm0 0"/><path d="m128 216h-8c-8.835938 0-16-7.164062-16-16v-16c0-8.835938 7.164062-16 16-16h8c8.835938 0 16 7.164062 16 16v16c0 8.835938-7.164062 16-16 16zm-8-32v16h8v-16zm0 0"/><path d="m336 88h-8c-8.835938 0-16-7.164062-16-16v-16c0-8.835938 7.164062-16 16-16h8c8.835938 0 16 7.164062 16 16v16c0 8.835938-7.164062 16-16 16zm-8-32v16h8v-16zm0 0"/></g><path d="m48 232h368v16h-368zm0 0" fill="#1a6fb0"/></svg>