<svg height="464pt" viewBox="0 0 464 464" width="464pt" xmlns="http://www.w3.org/2000/svg"><path d="m464 64v368c0 17.671875-14.328125 32-32 32h-400c-17.671875 0-32-14.328125-32-32v-368zm0 0" fill="#78b9eb"/><path d="m464 64v368c0 17.671875-14.328125 32-32 32h-395.039062c100-103.199219 268.078124-276 392.398437-400zm0 0" fill="#5aaae7"/><path d="m464 32v32h-464v-32c0-17.671875 14.328125-32 32-32h400c17.671875 0 32 14.328125 32 32zm0 0" fill="#ff7956"/><path d="m40 24h16v16h-16zm0 0" fill="#ff5023"/><path d="m72 24h16v16h-16zm0 0" fill="#ffd422"/><path d="m104 24h16v16h-16zm0 0" fill="#00ccb3"/><path d="m168 24h224v16h-224zm0 0" fill="#ff9478"/><g fill="#57565c"><path d="m354.136719 265.175781-11.3125-11.3125 43.519531-43.519531c1.5-1.5 3.535156-2.34375 5.65625-2.34375h32v16h-28.6875zm0 0"/><path d="m418.34375 333.65625-21.65625-21.65625h-28.6875v-16h32c2.121094 0 4.15625.84375 5.65625 2.34375l24 24zm0 0"/><path d="m418.34375 397.65625-21.65625-21.65625h-44.6875v-16h48c2.121094 0 4.15625.84375 5.65625 2.34375l24 24zm0 0"/><path d="m253.863281 265.175781-41.175781-41.175781h-28.6875v-16h32c2.121094 0 4.15625.84375 5.65625 2.34375l43.519531 43.519531zm0 0"/><path d="m189.65625 333.65625-11.3125-11.3125 24-24c1.5-1.5 3.535156-2.34375 5.65625-2.34375h32v16h-28.6875zm0 0"/><path d="m189.65625 397.65625-11.3125-11.3125 24-24c1.5-1.5 3.535156-2.34375 5.65625-2.34375h48.640625v16h-45.328125zm0 0"/></g><path d="m58.34375 141.65625-16-16c-3.121094-3.125-3.121094-8.1875 0-11.3125l16-16 11.3125 11.3125-10.34375 10.34375 10.34375 10.34375zm0 0" fill="#1a6fb0"/><path d="m109.65625 141.65625-11.3125-11.3125 10.34375-10.34375-10.34375-10.34375 11.3125-11.3125 16 16c3.121094 3.125 3.121094 8.1875 0 11.3125zm0 0" fill="#1a6fb0"/><path d="m56 160h32v16h-32zm0 0" fill="#1e81ce"/><path d="m104 160h64v16h-64zm0 0" fill="#5aaae7"/><path d="m88 192h64v16h-64zm0 0" fill="#1e81ce"/><path d="m72 224h64v16h-64zm0 0" fill="#5aaae7"/><path d="m96 256h80v16h-80zm0 0" fill="#1e81ce"/><path d="m56 288h32v16h-32zm0 0" fill="#1e81ce"/><path d="m104 288h64v16h-64zm0 0" fill="#5aaae7"/><path d="m56 320h32v16h-32zm0 0" fill="#1e81ce"/><path d="m104 320h48v16h-48zm0 0" fill="#5aaae7"/><path d="m325.65625 197.65625-11.3125-11.3125 32-32c1.5-1.5 3.535156-2.34375 5.65625-2.34375h16v16h-12.6875zm0 0" fill="#cc7400"/><path d="m282.34375 197.65625-29.65625-29.65625h-12.6875v-16h16c2.121094 0 4.15625.84375 5.65625 2.34375l32 32zm0 0" fill="#cc7400"/><path d="m344 216v22.078125c-23.363281-18.773437-56.636719-18.773437-80 0v-22.078125c.011719-12.585938 5.9375-24.4375 16-32 14.222656-10.667969 33.777344-10.667969 48 0 1.53125 1.117188 2.976562 2.347656 4.320312 3.679688 7.480469 7.527343 11.679688 17.707031 11.679688 28.320312zm0 0" fill="#ff9811"/><path d="m304 400v-176c14.550781-.011719 28.664062 4.957031 40 14.078125 1.851562 1.441406 3.617188 2.988281 5.28125 4.640625 2.679688 2.695312 5.089844 5.640625 7.199219 8.800781 7.527343 10.671875 11.554687 23.421875 11.519531 36.480469v48c.039062 11.246094-2.945312 22.300781-8.640625 32-11.382813 19.820312-32.503906 32.027344-55.359375 32zm0 0" fill="#ff7956"/><path d="m304 224v176c-22.855469.027344-43.976562-12.179688-55.359375-32-5.695313-9.699219-8.679687-20.753906-8.640625-32v-48c-.035156-13.058594 3.992188-25.808594 11.519531-36.480469 3.453125-5.089843 7.660157-9.621093 12.480469-13.441406 11.335938-9.121094 25.449219-14.089844 40-14.078125zm0 0" fill="#ff6243"/></svg>