<svg height="472pt" viewBox="-4 0 472 472" width="472pt" xmlns="http://www.w3.org/2000/svg"><path d="m464 96v208h-464v-208c0-17.671875 14.328125-32 32-32h400c2.421875.019531 4.832031.289062 7.199219.800781 14.527343 3.351563 24.808593 16.292969 24.800781 31.199219zm0 0" fill="#78b9eb"/><path d="m464 96v208h-264l239.199219-239.199219c14.527343 3.351563 24.808593 16.292969 24.800781 31.199219zm0 0" fill="#5aaae7"/><path d="m464 304v32c0 17.671875-14.328125 32-32 32h-400c-17.671875 0-32-14.328125-32-32v-32zm0 0" fill="#acabb1"/><path d="m400 64v192c-.027344 8.824219-7.175781 15.972656-16 16h-304c-8.824219-.027344-15.972656-7.175781-16-16v-208h336zm0 0" fill="#ffde55"/><path d="m400 16v32h-336v-32c.027344-8.824219 7.175781-15.9726562 16-16h304c8.824219.0273438 15.972656 7.175781 16 16zm0 0" fill="#ff7956"/><path d="m320 440v24h-176v-24c0-4.417969 3.582031-8 8-8h160c4.417969 0 8 3.582031 8 8zm0 0" fill="#787680"/><path d="m296 432h-128l8-64h112zm0 0" fill="#898890"/><path d="m290 384h-116l2-16h112zm0 0" fill="#787680"/><path d="m400 48v208c-.027344 8.824219-7.175781 15.972656-16 16h-272l224-224zm0 0" fill="#ffcd00"/><path d="m120 456h224v16h-224zm0 0" fill="#57565c"/><path d="m416 328h16v16h-16zm0 0" fill="#787680"/><path d="m88 16h16v16h-16zm0 0" fill="#ff5023"/><path d="m120 16h16v16h-16zm0 0" fill="#ffd422"/><path d="m152 16h16v16h-16zm0 0" fill="#00ccb3"/><g fill="#ff9811"><path d="m178.34375 141.65625-24-24c-3.121094-3.125-3.121094-8.1875 0-11.3125l24-24 11.3125 11.3125-18.34375 18.34375 18.34375 18.34375zm0 0"/><path d="m285.65625 141.65625-11.3125-11.3125 18.34375-18.34375-18.34375-18.34375 11.3125-11.3125 24 24c3.121094 3.125 3.121094 8.1875 0 11.3125zm0 0"/><path d="m208.566406 149.027344 32.007813-79.996094 14.863281 5.945312-32.007812 79.996094zm0 0"/><path d="m136 168h16v16h-16zm0 0"/></g><path d="m168 168h48v16h-48zm0 0" fill="#ffc477"/><path d="m152 200h32v16h-32zm0 0" fill="#ffc477"/><path d="m200 200h32v16h-32zm0 0" fill="#ff9811"/><path d="m120 232h96v16h-96zm0 0" fill="#ff9811"/></svg>