<svg height="464pt" viewBox="0 0 464 464" width="464pt" xmlns="http://www.w3.org/2000/svg"><path d="m464 216h-16v-60.6875l-29.65625-29.65625 11.3125-11.3125 32 32c1.5 1.5 2.34375 3.535156 2.34375 5.65625zm0 0" fill="#ee8700"/><path d="m352 32v400c0 17.671875-14.328125 32-32 32h-288c-17.648438-.0625-31.9375-14.351562-32-32v-400c0-17.671875 14.328125-32 32-32h288c17.671875 0 32 14.328125 32 32zm0 0" fill="#e6e7e8"/><path d="m432 384v8l-16 32h-16l-16-32v-8zm0 0" fill="#ee8700"/><path d="m392 40h32v48h-32zm0 0" fill="#ee8700"/><path d="m432 120v16h-48v-48h48zm0 0" fill="#ff9811"/><path d="m384 136h48v248h-48zm0 0" fill="#ffb655"/><path d="m304 0v80l-24-24-24 24v-80zm0 0" fill="#ff6243"/><path d="m352 120v312c0 17.671875-14.328125 32-32 32h-288c-6.523438-.019531-12.886719-2.03125-18.238281-5.761719zm0 0" fill="#d8d7da"/><g fill="#ff9811"><path d="m66.34375 109.65625-24-24c-3.121094-3.125-3.121094-8.1875 0-11.3125l24-24 11.3125 11.3125-18.34375 18.34375 18.34375 18.34375zm0 0"/><path d="m173.65625 109.65625-11.3125-11.3125 18.34375-18.34375-18.34375-18.34375 11.3125-11.3125 24 24c3.121094 3.125 3.121094 8.1875 0 11.3125zm0 0"/><path d="m96.570312 117.027344 32.007813-79.992188 14.863281 5.945313-32.007812 79.996093zm0 0"/><path d="m40 152h32v16h-32zm0 0"/></g><path d="m88 152h80v16h-80zm0 0" fill="#ffc477"/><path d="m184 152h16v16h-16zm0 0" fill="#ffa733"/><path d="m72 200h32v16h-32zm0 0" fill="#ffc477"/><path d="m120 200h48v16h-48zm0 0" fill="#ff9811"/><path d="m184 200h64v16h-64zm0 0" fill="#ffa733"/><path d="m88 248h48v16h-48zm0 0" fill="#ffa733"/><path d="m152 248h16v16h-16zm0 0" fill="#ff9811"/><path d="m184 248h40v16h-40zm0 0" fill="#ffc477"/><path d="m240 248h48v16h-48zm0 0" fill="#ffa733"/><path d="m40 296h32v16h-32zm0 0" fill="#ffa733"/><path d="m88 296h80v16h-80zm0 0" fill="#ff9811"/><path d="m184 296h64v16h-64zm0 0" fill="#ffc477"/><path d="m72 344h32v16h-32zm0 0" fill="#ffa733"/><path d="m120 344h80v16h-80zm0 0" fill="#ff9811"/><path d="m216 344h16v16h-16zm0 0" fill="#ffc477"/><path d="m56 392h32v16h-32zm0 0" fill="#ff9811"/><path d="m104 392h64v16h-64zm0 0" fill="#ffa733"/><path d="m184 392h56v16h-56zm0 0" fill="#ffc477"/><path d="m256 392h32v16h-32zm0 0" fill="#ffa733"/><path d="m400 424h16v40h-16zm0 0" fill="#ff9811"/></svg>