<svg height="464pt" viewBox="0 0 464 464" width="464pt" xmlns="http://www.w3.org/2000/svg"><path d="m368 48v288h-352c-8.824219-.027344-15.9726562-7.175781-16-16v-272zm0 0" fill="#78b9eb"/><path d="m464 160h-48c-8.824219-.027344-15.972656-7.175781-16-16v-48zm0 0" fill="#bcbec0"/><path d="m16 0h336c8.824219.0273438 15.972656 7.175781 16 16v32h-368v-32c.0273438-8.824219 7.175781-15.9726562 16-16zm0 0" fill="#ff7956"/><path d="m368 48v288h-320l288-288zm0 0" fill="#5aaae7"/><path d="m464 160v272c0 17.671875-14.328125 32-32 32h-256c-17.671875 0-32-14.328125-32-32v-304c0-17.671875 14.328125-32 32-32h224v48c.027344 8.824219 7.175781 15.972656 16 16zm0 0" fill="#e6e7e8"/><path d="m464 176v256c0 17.671875-14.328125 32-32 32h-256zm0 0" fill="#d8d7da"/><path d="m24 16h16v16h-16zm0 0" fill="#ff5023"/><path d="m56 16h16v16h-16zm0 0" fill="#ffd422"/><path d="m88 16h16v16h-16zm0 0" fill="#00ccb3"/><g fill="#ff9811"><path d="m242.34375 213.65625-24-24c-3.121094-3.125-3.121094-8.1875 0-11.3125l24-24 11.3125 11.3125-18.34375 18.34375 18.34375 18.34375zm0 0"/><path d="m349.65625 213.65625-11.3125-11.3125 18.34375-18.34375-18.34375-18.34375 11.3125-11.3125 24 24c3.121094 3.125 3.121094 8.1875 0 11.3125zm0 0"/><path d="m272.566406 221.023438 32.007813-79.992188 14.863281 5.945312-32.007812 79.996094zm0 0"/></g><path d="m200 248h16v16h-16zm0 0" fill="#ffa733"/><path d="m232 248h96v16h-96zm0 0" fill="#ffb655"/><path d="m216 280h32v16h-32zm0 0" fill="#ffb655"/><path d="m264 280h80v16h-80zm0 0" fill="#ffa733"/><path d="m184 312h144v16h-144zm0 0" fill="#ffb655"/><path d="m240 344h32v16h-32zm0 0" fill="#ffa733"/><path d="m288 344h96v16h-96zm0 0" fill="#ffb655"/><path d="m256 376h96v16h-96zm0 0" fill="#ffa733"/><path d="m200 408h48v16h-48zm0 0" fill="#ffb655"/><path d="m264 408h32v16h-32zm0 0" fill="#ffa733"/><path d="m312 408h88v16h-88zm0 0" fill="#ffb655"/></svg>