<svg height="464pt" viewBox="0 -48 464 464" width="464pt" xmlns="http://www.w3.org/2000/svg"><path d="m440 64v256h-416v-256c0-17.671875 14.328125-32 32-32h352c4.53125.003906 9.003906.984375 13.121094 2.878906 11.484375 5.136719 18.878906 16.542969 18.878906 29.121094zm0 0" fill="#78b9eb"/><path d="m440 64v256h-304l285.121094-285.121094c11.484375 5.136719 18.878906 16.542969 18.878906 29.121094zm0 0" fill="#5aaae7"/><path d="m384 48v208c-.027344 8.824219-7.175781 15.972656-16 16h-272c-8.824219-.027344-15.972656-7.175781-16-16v-208zm0 0" fill="#ffde55"/><path d="m24 320h440v32c-.027344 8.824219-7.175781 15.972656-16 16h-432c-8.824219-.027344-15.9726562-7.175781-16-16v-32zm0 0" fill="#898890"/><path d="m384 32v16h-304v-32c.027344-8.824219 7.175781-15.9726562 16-16h272c8.824219.0273438 15.972656 7.175781 16 16zm0 0" fill="#ff7956"/><path d="m384 48v208c-.027344 8.824219-7.175781 15.972656-16 16h-248l224-224zm0 0" fill="#ffcd00"/><path d="m288 160c0 30.929688-25.070312 56-56 56s-56-25.070312-56-56 25.070312-56 56-56 56 25.070312 56 56zm0 0" fill="#ff6243"/><path d="m200 336h64v16h-64zm0 0" fill="#787680"/><path d="m104 16h16v16h-16zm0 0" fill="#ff5023"/><path d="m136 16h16v16h-16zm0 0" fill="#ffd422"/><path d="m168 16h16v16h-16zm0 0" fill="#00ccb3"/><path d="m260.289062 143.03125-11.3125-11.3125-16.976562 16.96875-16.976562-16.96875-11.3125 11.3125 16.976562 16.96875-16.976562 16.96875 11.3125 11.3125 16.976562-16.96875 16.976562 16.96875 11.3125-11.3125-16.976562-16.96875zm0 0" fill="#cd2a00"/><g fill="#ffa733"><path d="m304 88h40v16h-40zm0 0"/><path d="m136 216h40v16h-40zm0 0"/><path d="m304 216h40v16h-40zm0 0"/><path d="m312 120h32v16h-32zm0 0"/><path d="m312 152h32v16h-32zm0 0"/><path d="m312 184h32v16h-32zm0 0"/><path d="m120 120h32v16h-32zm0 0"/><path d="m136 152h16v16h-16zm0 0"/><path d="m120 184h32v16h-32zm0 0"/></g><path d="m122.34375 109.65625-16-16c-3.121094-3.125-3.121094-8.1875 0-11.3125l16-16 11.3125 11.3125-10.34375 10.34375 10.34375 10.34375zm0 0" fill="#ff9811"/><path d="m165.65625 109.65625-11.3125-11.3125 10.34375-10.34375-10.34375-10.34375 11.3125-11.3125 16 16c3.121094 3.125 3.121094 8.1875 0 11.3125zm0 0" fill="#ff9811"/></svg>