<svg height="464.00003pt" viewBox="0 0 464.00003 464.00003" width="464.00003pt" xmlns="http://www.w3.org/2000/svg"><path d="m352 32v400c0 17.671875-14.328125 32-32 32h-288c-8.488281.011719-16.636719-3.355469-22.640625-9.359375s-9.3710938-14.152344-9.359375-22.640625v-400c0-17.671875 14.328125-32 32-32h288c17.671875 0 32 14.328125 32 32zm0 0" fill="#e6e7e8"/><path d="m352 112v320c0 17.671875-14.328125 32-32 32h-288c-8.484375-.015625-16.621094-3.378906-22.640625-9.359375zm0 0" fill="#d8d7da"/><path d="m416 376h48v32h-48zm0 0" fill="#1a6fb0"/><path d="m120 368v48h-8l-32-16v-16l32-16zm0 0" fill="#1e81ce"/><path d="m304 0v80l-24-24-24 24v-80zm0 0" fill="#ff6243"/><path d="m288 216v-32h-25.519531c-2.246094-12.136719-7.015625-23.664062-14-33.839844l18-18.082031-22.558594-22.558594-18.082031 18c-10.175782-6.984375-21.703125-11.753906-33.839844-14v-25.519531h-32v25.519531c-12.136719 2.246094-23.664062 7.015625-33.839844 14l-18.082031-18-22.558594 22.558594 18 18.082031c-6.984375 10.175782-11.753906 21.703125-14 33.839844h-25.519531v32h25.519531c2.246094 12.136719 7.015625 23.664062 14 33.839844l-18 18.082031 22.558594 22.558594 18.082031-18c10.175782 6.984375 21.703125 11.753906 33.839844 14v25.519531h32v-25.519531c12.136719-2.246094 23.664062-7.015625 33.839844-14l18.082031 18 22.558594-22.558594-18-18.082031c6.984375-10.175782 11.753906-21.703125 14-33.839844zm-160-16c0-26.507812 21.492188-48 48-48s48 21.492188 48 48-21.492188 48-48 48-48-21.492188-48-48zm0 0" fill="#ffa733"/><path d="m224 200c0 26.507812-21.492188 48-48 48s-48-21.492188-48-48 21.492188-48 48-48 48 21.492188 48 48zm0 0" fill="#ff6243"/><path d="m56 384h24v16h-24zm0 0" fill="#1a6fb0"/><path d="m378.34375 381.65625-29.65625-29.65625h-60.6875v-16h64c2.121094 0 4.15625.84375 5.65625 2.34375l32 32zm0 0" fill="#1a6fb0"/><g fill="#ffb655"><path d="m40 40h16v16h-16zm0 0"/><path d="m72 40h16v16h-16zm0 0"/><path d="m104 40h16v16h-16zm0 0"/></g><path d="m352 368h-232v48h248v-48zm0 0" fill="#78b9eb"/><path d="m416 408v8h-48v-48h48zm0 0" fill="#1e81ce"/></svg>