<svg height="472pt" viewBox="-3 0 471 472" width="472pt" xmlns="http://www.w3.org/2000/svg"><path d="m392.5 408h-24v-32h24zm0 0" fill="#ff9811"/><path d="m352.5 472h-336c-8.824219-.027344-15.972656-7.175781-16-16v-88c.027344-8.824219 7.175781-15.972656 16-16h336c8.824219.027344 15.972656 7.175781 16 16v88c-.027344 8.824219-7.175781 15.972656-16 16zm0 0" fill="#ffb655"/><path d="m304.5 56v208c-.027344 8.824219-7.175781 15.972656-16 16h-272c-8.824219-.027344-15.972656-7.175781-16-16v-208zm0 0" fill="#78b9eb"/><path d="m16.5 8h272c8.824219.027344 15.972656 7.175781 16 16v32h-304v-32c.027344-8.824219 7.175781-15.972656 16-16zm0 0" fill="#ff7956"/><path d="m304.5 56v208c-.027344 8.824219-7.175781 15.972656-16 16h-232l224-224zm0 0" fill="#5aaae7"/><path d="m24.5 24h16v16h-16zm0 0" fill="#ff5023"/><path d="m56.5 24h16v16h-16zm0 0" fill="#ffd422"/><path d="m88.5 24h16v16h-16zm0 0" fill="#00ccb3"/><path d="m42.84375 125.65625-16-16c-3.121094-3.125-3.121094-8.1875 0-11.3125l16-16 11.3125 11.3125-10.34375 10.34375 10.34375 10.34375zm0 0" fill="#1e81ce"/><path d="m86.15625 125.65625-11.3125-11.3125 10.34375-10.34375-10.34375-10.34375 11.3125-11.3125 16 16c3.121094 3.125 3.121094 8.1875 0 11.3125zm0 0" fill="#1e81ce"/><path d="m56.5 144h16v16h-16zm0 0" fill="#1e81ce"/><path d="m88.5 144h80v16h-80zm0 0" fill="#3d9ae2"/><path d="m72.5 176h32v16h-32zm0 0" fill="#3d9ae2"/><path d="m120.5 176h80v16h-80zm0 0" fill="#1e81ce"/><path d="m40.5 208h144v16h-144zm0 0" fill="#1e81ce"/><path d="m88.5 240h32v16h-32zm0 0" fill="#3d9ae2"/><path d="m136.5 240h80v16h-80zm0 0" fill="#1e81ce"/><g fill="#ee8700"><path d="m72.5 440h224v16h-224zm0 0"/><path d="m336.5 456h-24v-16h16v-24h16v32c0 4.417969-3.582031 8-8 8zm0 0"/><path d="m24.5 440h32v16h-32zm0 0"/><path d="m32.5 408h16v16h-16zm0 0"/><path d="m64.5 408h16v16h-16zm0 0"/><path d="m96.5 408h16v16h-16zm0 0"/><path d="m128.5 408h16v16h-16zm0 0"/><path d="m160.5 408h16v16h-16zm0 0"/><path d="m192.5 408h16v16h-16zm0 0"/><path d="m224.5 408h16v16h-16zm0 0"/><path d="m256.5 408h16v16h-16zm0 0"/><path d="m288.5 408h16v16h-16zm0 0"/><path d="m32.5 376h16v16h-16zm0 0"/><path d="m64.5 376h16v16h-16zm0 0"/><path d="m96.5 376h16v16h-16zm0 0"/><path d="m128.5 376h16v16h-16zm0 0"/><path d="m160.5 376h16v16h-16zm0 0"/><path d="m192.5 376h16v16h-16zm0 0"/><path d="m224.5 376h16v16h-16zm0 0"/><path d="m256.5 376h16v16h-16zm0 0"/><path d="m288.5 376h16v16h-16zm0 0"/></g><path d="m424.5 400h-32v-16h32c13.253906 0 24-10.746094 24-24v-320c0-13.253906-10.746094-24-24-24s-24 10.746094-24 24v80c-.027344 22.082031-17.917969 39.972656-40 40h-56v-16h56c13.253906 0 24-10.746094 24-24v-80c0-22.089844 17.910156-40 40-40s40 17.910156 40 40v320c-.027344 22.082031-17.917969 39.972656-40 40zm0 0" fill="#ff5023"/></svg>