<svg height="464pt" viewBox="0 -48 464 464" width="464pt" xmlns="http://www.w3.org/2000/svg"><path d="m440 64v256h-416v-256c0-17.671875 14.328125-32 32-32h352c17.671875 0 32 14.328125 32 32zm0 0" fill="#78b9eb"/><path d="m440 64v256h-328l288-288h8c17.671875 0 32 14.328125 32 32zm0 0" fill="#5aaae7"/><path d="m368 160v-48l-36.238281-5.199219c-2.070313-7.230469-4.941407-14.207031-8.5625-20.800781l21.921875-29.199219-33.921875-33.921875-12.160157 9.121094-17.039062 12.800781c-6.59375-3.621093-13.570312-6.492187-20.800781-8.5625l-.640625-4.238281-4.558594-32h-48l-4.558594 32-.640625 4.238281c-7.230469 2.070313-14.207031 4.941407-20.800781 8.5625l-17.039062-12.800781-12.160157-9.121094-33.921875 33.921875 21.921875 29.199219c-3.621093 6.59375-6.492187 13.570312-8.5625 20.800781l-36.238281 5.199219v48l36.238281 5.199219c2.070313 7.230469 4.941407 14.207031 8.5625 20.800781l-21.921875 29.199219 33.921875 33.921875 29.199219-21.921875c6.59375 3.621093 13.570312 6.492187 20.800781 8.5625l5.199219 36.238281h48l5.199219-36.238281c7.230469-2.070313 14.207031-4.941407 20.800781-8.5625l29.199219 21.921875 33.921875-33.921875-21.921875-29.199219c3.621093-6.59375 6.492187-13.570312 8.5625-20.800781zm0 0" fill="#ffa733"/><path d="m24 320h440v32c-.027344 8.824219-7.175781 15.972656-16 16h-432c-8.824219-.027344-15.9726562-7.175781-16-16v-32zm0 0" fill="#898890"/><path d="m200 336h64v16h-64zm0 0" fill="#787680"/><path d="m178.34375 165.65625-24-24c-3.121094-3.125-3.121094-8.1875 0-11.3125l24-24 11.3125 11.3125-18.34375 18.34375 18.34375 18.34375zm0 0" fill="#ee8700"/><path d="m285.65625 165.65625-11.3125-11.3125 18.34375-18.34375-18.34375-18.34375 11.3125-11.3125 24 24c3.121094 3.125 3.121094 8.1875 0 11.3125zm0 0" fill="#ee8700"/><path d="m208.566406 173.027344 32.007813-79.992188 14.863281 5.945313-32.007812 79.996093zm0 0" fill="#ee8700"/><g fill="#cc7400"><path d="m224 24h16v16h-16zm0 0"/><path d="m147.148438 62.457031 11.3125-11.3125 11.316406 11.3125-11.316406 11.316407zm0 0"/><path d="m120 128h16v16h-16zm0 0"/><path d="m147.144531 209.535156 11.3125-11.3125 11.3125 11.3125-11.3125 11.3125zm0 0"/><path d="m224 232h16v16h-16zm0 0"/><path d="m294.21875 209.539062 11.3125-11.3125 11.316406 11.3125-11.316406 11.3125zm0 0"/><path d="m328 128h16v16h-16zm0 0"/><path d="m294.222656 62.464844 11.316406-11.316406 11.3125 11.316406-11.3125 11.3125zm0 0"/></g></svg>