<svg height="464pt" viewBox="0 0 464 464.00001" width="464pt" xmlns="http://www.w3.org/2000/svg"><path d="m464 64v368c0 17.671875-14.328125 32-32 32h-400c-17.648438-.0625-31.9375-14.351562-32-32v-368zm0 0" fill="#78b9eb"/><path d="m464 64v368c0 17.671875-14.328125 32-32 32h-400c-10.476562.007812-20.289062-5.136719-26.238281-13.761719l386.238281-386.238281zm0 0" fill="#5aaae7"/><path d="m285.121094 296c-2.59375 10.757812-6.859375 21.042969-12.640625 30.480469l24.640625 24.71875-33.921875 33.921875-24.71875-24.640625c-9.4375 5.78125-19.722657 10.046875-30.480469 12.640625v34.878906h-48v-34.878906c-10.757812-2.59375-21.042969-6.859375-30.480469-12.640625l-24.71875 24.640625-33.921875-33.921875 24.640625-24.71875c-5.78125-9.4375-10.046875-19.722657-12.640625-30.480469h-34.878906v-48h34.878906c2.59375-10.757812 6.859375-21.042969 12.640625-30.480469l-24.640625-24.71875 33.921875-33.921875 24.71875 24.640625c9.4375-5.78125 19.722657-10.046875 30.480469-12.640625v-34.878906h48v34.878906c10.757812 2.59375 21.042969 6.859375 30.480469 12.640625l24.71875-24.640625 33.921875 33.921875-24.640625 24.71875c5.78125 9.4375 10.046875 19.722657 12.640625 30.480469h34.878906v48zm0 0" fill="#ffa733"/><path d="m352 176h64v24h-64zm0 0" fill="#787680"/><path d="m416 160v16h-64v-16c0-17.671875 14.328125-32 32-32s32 14.328125 32 32zm0 0" fill="#e6e7e8"/><path d="m384 344-32 24v-168h64v168zm0 0" fill="#00ccb3"/><path d="m240 272c0 30.929688-25.070312 56-56 56s-56-25.070312-56-56 25.070312-56 56-56 56 25.070312 56 56zm0 0" fill="#ff6243"/><path d="m464 32v32h-464v-32c0-17.671875 14.328125-32 32-32h400c17.671875 0 32 14.328125 32 32zm0 0" fill="#ff7956"/><path d="m40 24h16v16h-16zm0 0" fill="#ff5023"/><path d="m72 24h16v16h-16zm0 0" fill="#ffd422"/><path d="m104 24h16v16h-16zm0 0" fill="#00ccb3"/><path d="m160 24h240v16h-240zm0 0" fill="#ff9478"/><path d="m384 424c-4.417969 0-8-3.582031-8-8v-24c0-4.417969 3.582031-8 8-8s8 3.582031 8 8v24c0 4.417969-3.582031 8-8 8zm0 0" fill="#3e3d42"/><path d="m376 224h16v120h-16zm0 0" fill="#00b39d"/><path d="m416 368-24 24h-16l-24-24 32-24zm0 0" fill="#787680"/></svg>