<svg height="464pt" viewBox="0 0 464 464" width="464pt" xmlns="http://www.w3.org/2000/svg"><path d="m16 96v.046875c-8.800781 0-16 0-16 0v351.953125c.0273438 8.824219 7.175781 15.972656 16 16h384c8.824219-.027344 15.972656-7.175781 16-16v-352zm0 0" fill="#5aaae7"/><path d="m464 48v352c-.027344 8.824219-7.175781 15.972656-16 16h-384c-8.824219-.027344-15.972656-7.175781-16-16v-352zm0 0" fill="#78b9eb"/><path d="m375.761719 385.679688-56.5625-56.558594-24.71875-24.640625-35.679688-35.761719c-18.796875 6.695312-39.734375 2.882812-54.960937-10.007812-15.230469-12.890626-22.453125-32.90625-18.960938-52.550782l26.800782 26.800782 36.320312-8.960938 8.960938-36.320312-26.800782-26.800782c19.644532-3.492187 39.660156 3.730469 52.550782 18.960938 12.890624 15.226562 16.703124 36.164062 10.007812 54.960937l60.402344 60.398438 56.558594 56.5625c6.421874 5.980469 9.0625 14.992187 6.894531 23.496093-2.171875 8.503907-8.8125 15.144532-17.316407 17.316407-8.503906 2.167969-17.515624-.472657-23.496093-6.894531zm0 0" fill="#acabb1"/><path d="m138.878906 192c2.59375-10.757812 6.859375-21.042969 12.640625-30.480469l-24.640625-24.71875 33.921875-33.921875 24.71875 24.640625c9.4375-5.78125 19.722657-10.046875 30.480469-12.640625v-34.878906h48v34.878906c10.757812 2.59375 21.042969 6.859375 30.480469 12.640625l24.71875-24.640625 33.921875 33.921875-24.640625 24.71875c5.78125 9.4375 10.046875 19.722657 12.640625 30.480469h34.878906v48h-34.878906c-2.59375 10.757812-6.859375 21.042969-12.640625 30.480469l-35.761719-35.679688c6.695312-18.796875 2.882812-39.734375-10.007812-54.960937-12.890626-15.230469-32.90625-22.453125-52.550782-18.960938l26.800782 26.800782-8.960938 36.320312-36.320312 8.960938-26.800782-26.800782c-3.492187 19.644532 3.730469 39.660156 18.960938 52.550782 15.226562 12.890624 36.164062 16.703124 54.960937 10.007812l35.679688 35.761719c-9.4375 5.78125-19.722657 10.046875-30.480469 12.640625v34.878906h-48v-34.878906c-10.757812-2.59375-21.042969-6.859375-30.480469-12.640625l-24.71875 24.640625-33.921875-33.921875 24.640625-24.71875c-5.78125-9.4375-10.046875-19.722657-12.640625-30.480469h-34.878906v-48zm0 0" fill="#ffa733"/><path d="m48 48v48.078125s-48-.078125-48 0v-32.078125c.0273438-8.824219 7.175781-15.972656 16-16zm0 0" fill="#ff6243"/><path d="m464 48h-416v-32c.027344-8.824219 7.175781-15.9726562 16-16h384c8.824219.0273438 15.972656 7.175781 16 16zm0 0" fill="#ff7956"/><path d="m72 16h16v16h-16zm0 0" fill="#ff5023"/><path d="m104 16h16v16h-16zm0 0" fill="#ffd422"/><path d="m136 16h16v16h-16zm0 0" fill="#00ccb3"/><g fill="#ee8700"><path d="m232 104h16v16h-16zm0 0"/><path d="m155.152344 142.460938 11.3125-11.3125 11.316406 11.3125-11.316406 11.3125zm0 0"/><path d="m128 208h16v16h-16zm0 0"/><path d="m155.148438 289.535156 11.3125-11.3125 11.316406 11.3125-11.316406 11.316406zm0 0"/><path d="m232 312h16v16h-16zm0 0"/></g><path d="m374.222656 361.542969 11.3125-11.316407 11.316406 11.316407-11.316406 11.3125zm0 0" fill="#787680"/><path d="m336 208h16v16h-16zm0 0" fill="#ee8700"/><path d="m302.226562 142.464844 11.316407-11.3125 11.3125 11.3125-11.3125 11.316406zm0 0" fill="#ee8700"/></svg>