<svg height="464pt" viewBox="0 0 464 464" width="464pt" xmlns="http://www.w3.org/2000/svg"><path d="m416 112v336c-.027344 8.824219-7.175781 15.972656-16 16h-384c-8.824219-.027344-15.9726562-7.175781-16-16v-336zm0 0" fill="#78b9eb"/><path d="m304 240c-.003906 34.269531-18.304688 65.929688-48 83.039062v20.960938h-96v-20.960938c-40.355469-23.300781-58.152344-72.21875-42.199219-116.003906 15.953125-43.78125 61.046875-69.789062 106.933594-61.664062s79.3125 48.027344 79.265625 94.628906zm0 0" fill="#ffd422"/><path d="m184 400h48v24h-48zm0 0" fill="#ee8700"/><path d="m256 368v32h-96v-32zm0 0" fill="#ff9811"/><path d="m248 232-40 56-40-56zm0 0" fill="#ffa733"/><path d="m464 64v336c-.027344 8.824219-7.175781 15.972656-16 16h-32v-352zm0 0" fill="#5aaae7"/><path d="m464 16v48h-48c-.027344-8.824219-7.175781-15.972656-16-16h-352v-32c.027344-8.824219 7.175781-15.9726562 16-16h384c8.824219.0273438 15.972656 7.175781 16 16zm0 0" fill="#ff6243"/><path d="m0 112v-48c.0273438-8.824219 7.175781-15.972656 16-16h384c8.824219.027344 15.972656 7.175781 16 16v48zm0 0" fill="#ff7956"/><path d="m24 72h16v16h-16zm0 0" fill="#ff5023"/><path d="m56 72h16v16h-16zm0 0" fill="#ffd422"/><path d="m88 72h16v16h-16zm0 0" fill="#00ccb3"/><path d="m136 72h208v16h-208zm0 0" fill="#ff9478"/><g fill="#ffcd00"><path d="m328 224h32v16h-32zm0 0"/><path d="m307.921875 165.070312 27.714844-16 8 13.859376-27.714844 15.996093zm0 0"/><path d="m72.359375 162.933594 8-13.855469 27.714844 16-8 13.855469zm0 0"/><path d="m56 224h32v16h-32zm0 0"/><path d="m72.359375 301.074219 27.710937-16 8 13.859375-27.714843 15.996094zm0 0"/><path d="m307.921875 298.933594 8-13.855469 27.714844 16-8 13.855469zm0 0"/></g></svg>