<svg height="472pt" viewBox="-3 0 471 472" width="472pt" xmlns="http://www.w3.org/2000/svg"><path d="m464.5 232v224c-.027344 8.824219-7.175781 15.972656-16 16h-432c-8.824219-.027344-15.972656-7.175781-16-16v-288c.027344-8.824219 7.175781-15.972656 16-16h368v64c.027344 8.824219 7.175781 15.972656 16 16zm0 0" fill="#e6e7e8"/><path d="m464.5 232v224c-.027344 8.824219-7.175781 15.972656-16 16h-432l320-320h48v64c.027344 8.824219 7.175781 15.972656 16 16zm0 0" fill="#d8d7da"/><path d="m200.5 112c-.070312 18.296875-9.019531 35.417969-24 45.921875v18.078125h-64v-18.078125c-21.816406-15.195313-29.945312-43.632813-19.453125-68.058594 10.492187-24.429687 36.714844-38.113281 62.753906-32.746093 26.039063 5.363281 44.714844 28.296874 44.699219 54.882812zm0 0" fill="#ffd422"/><path d="m411.78125 388.71875c3.039062 2.964844 4.742188 7.035156 4.71875 11.28125-.027344 8.824219-7.175781 15.972656-16 16h-32v-32h32c4.246094-.023438 8.316406 1.679688 11.28125 4.71875zm0 0" fill="#1e81ce"/><path d="m112.5 384v32h-8l-24-8v-16l24-8zm0 0" fill="#1e81ce"/><path d="m112.5 384h256v32h-256zm0 0" fill="#5aaae7"/><path d="m464.5 232h-64c-8.824219-.027344-15.972656-7.175781-16-16v-64zm0 0" fill="#bcbec0"/><path d="m128.5 224h32v24h-32zm0 0" fill="#ff9811"/><path d="m128.5 224h-16v-24h64v24zm0 0" fill="#ffa733"/><path d="m168.5 112-24 32-24-32zm0 0" fill="#ffa733"/><g fill="#ffcd00"><path d="m136.5 0h16v32h-16zm0 0"/><path d="m59.652344 38.457031 11.3125-11.3125 22.628906 22.628907-11.3125 11.3125zm0 0"/><path d="m32.5 104h32v16h-32zm0 0"/><path d="m59.648438 185.539062 22.628906-22.628906 11.3125 11.3125-22.628906 22.628906zm0 0"/><path d="m195.410156 174.234375 11.316406-11.316406 22.625 22.628906-11.3125 11.3125zm0 0"/><path d="m224.5 104h32v16h-32zm0 0"/><path d="m195.414062 49.769531 22.628907-22.625 11.3125 11.3125-22.628907 22.625zm0 0"/></g><path d="m48.5 392h32v16h-32zm0 0" fill="#1a6fb0"/><path d="m226.84375 285.65625-24-24c-3.121094-3.125-3.121094-8.1875 0-11.3125l24-24 11.3125 11.3125-18.34375 18.34375 18.34375 18.34375zm0 0" fill="#ff9811"/><path d="m334.15625 285.65625-11.3125-11.3125 18.34375-18.34375-18.34375-18.34375 11.3125-11.3125 24 24c3.121094 3.125 3.121094 8.1875 0 11.3125zm0 0" fill="#ff9811"/><path d="m257.085938 293.035156 31.96875-80.007812 14.859374 5.9375-31.96875 80.007812zm0 0" fill="#ff9811"/><path d="m216.5 312h48v16h-48zm0 0" fill="#ff9811"/><path d="m200.5 344h32v16h-32zm0 0" fill="#ee8700"/><path d="m248.5 344h32v16h-32zm0 0" fill="#ffb655"/><path d="m184.5 312h16v16h-16zm0 0" fill="#ffb655"/><path d="m296.5 344h32v16h-32zm0 0" fill="#ff9811"/><path d="m280.5 312h64v16h-64zm0 0" fill="#ee8700"/></svg>