<svg height="472pt" viewBox="-24 0 472 472" width="472pt" xmlns="http://www.w3.org/2000/svg"><path d="m216 472h-48c-39.746094-.042969-71.957031-32.253906-72-72v-48h16v48c.039062 30.910156 25.089844 55.960938 56 56h48c30.910156-.039062 55.960938-25.089844 56-56v-288c0-30.929688 25.070312-56 56-56s56 25.070312 56 56v200h-16v-200c0-22.089844-17.910156-40-40-40s-40 17.910156-40 40v288c-.042969 39.746094-32.253906 71.957031-72 72zm0 0" fill="#ff6243"/><path d="m376 304c26.492188.039062 47.960938 21.507812 48 48v16h-96v-16c0-26.507812 21.492188-48 48-48zm0 0" fill="#ffcd00"/><path d="m424 368v48c0 26.507812-21.492188 48-48 48s-48-21.492188-48-48v-48zm0 0" fill="#ffde55"/><path d="m0 48h208v256h-208zm0 0" fill="#78b9eb"/><path d="m104 352h-72c-17.671875 0-32-14.328125-32-32v-16h208v16c0 17.671875-14.328125 32-32 32zm0 0" fill="#acabb1"/><path d="m32 0h144c17.671875 0 32 14.328125 32 32v16h-208v-16c0-17.671875 14.328125-32 32-32zm0 0" fill="#acabb1"/><path d="m208 80v224h-208v-16zm0 0" fill="#5aaae7"/><g fill="#787680"><path d="m80 320h48v16h-48zm0 0"/><path d="m40 16h16v16h-16zm0 0"/><path d="m72 16h32v16h-32zm0 0"/></g><path d="m368 328h16v16h-16zm0 0" fill="#ff9811"/><path d="m48 160h16v16h-16zm0 0" fill="#1e81ce"/><path d="m80 160h48v16h-48zm0 0" fill="#3d9ae2"/><path d="m64 192h32v16h-32zm0 0" fill="#3d9ae2"/><path d="m112 192h32v16h-32zm0 0" fill="#1e81ce"/><path d="m80 224h96v16h-96zm0 0" fill="#1e81ce"/><path d="m42.34375 133.65625-16-16c-3.121094-3.125-3.121094-8.1875 0-11.3125l16-16 11.3125 11.3125-10.34375 10.34375 10.34375 10.34375zm0 0" fill="#1a6fb0"/><path d="m93.65625 133.65625-11.3125-11.3125 10.34375-10.34375-10.34375-10.34375 11.3125-11.3125 16 16c3.121094 3.125 3.121094 8.1875 0 11.3125zm0 0" fill="#1a6fb0"/></svg>