<svg height="464pt" viewBox="0 0 464 464" width="464pt" xmlns="http://www.w3.org/2000/svg"><path d="m48 112h-48v336c.0273438 8.824219 7.175781 15.972656 16 16h384c8.824219-.027344 15.972656-7.175781 16-16v-336zm0 0" fill="#5aaae7"/><path d="m464 64v336c-.027344 8.824219-7.175781 15.972656-16 16h-384c-8.824219-.027344-15.972656-7.175781-16-16v-336zm0 0" fill="#78b9eb"/><path d="m392 240c0 75.109375-60.890625 136-136 136s-136-60.890625-136-136 60.890625-136 136-136 136 60.890625 136 136zm0 0" fill="#ffde55"/><path d="m311.359375 208.078125c-2.398437 2.480469-39.917969 41.523437-47.359375 45.761719-7.597656 3.972656-16.976562 1.253906-21.269531-6.171875-4.289063-7.421875-1.964844-16.90625 5.269531-21.507813 20.796875-7.109375 41.945312-13.144531 63.359375-18.082031zm0 0" fill="#ff6243"/><path d="m48 64v48h-48v-48c.0273438-8.824219 7.175781-15.972656 16-16h32zm0 0" fill="#ff6243"/><path d="m48 48v-32c.027344-8.824219 7.175781-15.9726562 16-16h384c8.824219.0273438 15.972656 7.175781 16 16v48h-416zm0 0" fill="#ff7956"/><path d="m72 24h16v16h-16zm0 0" fill="#ff5023"/><path d="m104 24h16v16h-16zm0 0" fill="#ffd422"/><path d="m136 24h16v16h-16zm0 0" fill="#00ccb3"/><g fill="#ffa733"><path d="m248 120h16v16h-16zm0 0"/><path d="m189.070312 140.078125 13.855469-8 8 13.855469-13.855469 8.003906zm0 0"/><path d="m148.078125 186.925781 8-13.855469 13.855469 8-8 13.859376zm0 0"/><path d="m136 232h16v16h-16zm0 0"/><path d="m148.082031 293.066406 13.855469-8 8 13.859375-13.855469 8zm0 0"/><path d="m342.070312 298.929688 8-13.855469 13.855469 8-8 13.859375zm0 0"/><path d="m360 232h16v16h-16zm0 0"/><path d="m342.0625 181.066406 13.855469-8 8 13.859375-13.859375 7.996094zm0 0"/><path d="m301.070312 145.941406 8-13.855468 13.855469 7.996093-7.996093 13.859375zm0 0"/></g><path d="m216 296h32v16h-32zm0 0" fill="#ff9811"/><path d="m264 296h32v16h-32zm0 0" fill="#ff9811"/><path d="m184 24h208v16h-208zm0 0" fill="#ff9478"/></svg>