<svg height="472pt" viewBox="-4 0 472 472" width="472pt" xmlns="http://www.w3.org/2000/svg"><path d="m464 96v208h-464v-208c0-17.671875 14.328125-32 32-32h400c2.421875.019531 4.832031.289062 7.199219.800781 14.527343 3.351563 24.808593 16.292969 24.800781 31.199219zm0 0" fill="#78b9eb"/><path d="m464 96v208h-264l239.199219-239.199219c14.527343 3.351563 24.808593 16.292969 24.800781 31.199219zm0 0" fill="#5aaae7"/><path d="m318.480469 128c-2.246094 12.136719-7.015625 23.664062-14 33.839844l18 18.082031-22.558594 22.558594-18.082031-18c-10.175782 6.984375-21.703125 11.753906-33.839844 14v25.519531h-32v-25.519531c-12.136719-2.246094-23.664062-7.015625-33.839844-14l-18.082031 18-22.558594-22.558594 18-18.082031c-6.984375-10.175782-11.753906-21.703125-14-33.839844h-25.519531v-32h25.519531c2.09375-11.414062 6.445313-22.292969 12.800781-32h147.359376c6.355468 9.707031 10.707031 20.585938 12.800781 32h25.519531v32zm0 0" fill="#ffa733"/><path d="m320 440v24h-176v-24c0-4.417969 3.582031-8 8-8h160c4.417969 0 8 3.582031 8 8zm0 0" fill="#787680"/><path d="m296 432h-128l8-64h112zm0 0" fill="#898890"/><path d="m464 304v32c0 17.671875-14.328125 32-32 32h-400c-17.671875 0-32-14.328125-32-32v-32zm0 0" fill="#acabb1"/><path d="m280 112c0 26.507812-21.492188 48-48 48s-48-21.492188-48-48 21.492188-48 48-48 48 21.492188 48 48zm0 0" fill="#ff6243"/><path d="m322.480469 44.078125-18 18.082031c.398437.558594.800781 1.199219 1.199219 1.839844h-147.359376c.398438-.640625.800782-1.28125 1.199219-1.839844l-18-18.082031 22.558594-22.558594 18.082031 18c10.175782-6.984375 21.703125-11.753906 33.839844-14v-25.519531h32v25.519531c12.136719 2.246094 23.664062 7.015625 33.839844 14l18.082031-18zm0 0" fill="#ffa733"/><path d="m290 384h-116l2-16h112zm0 0" fill="#787680"/><path d="m120 456h224v16h-224zm0 0" fill="#57565c"/><path d="m416 328h16v16h-16zm0 0" fill="#787680"/><g fill="#3d9ae2"><path d="m96 264c-13.253906 0-24-10.746094-24-24s10.746094-24 24-24 24 10.746094 24 24-10.746094 24-24 24zm0-32c-4.417969 0-8 3.582031-8 8s3.582031 8 8 8 8-3.582031 8-8-3.582031-8-8-8zm0 0"/><path d="m336 264c-13.253906 0-24-10.746094-24-24s10.746094-24 24-24 24 10.746094 24 24-10.746094 24-24 24zm0-32c-4.417969 0-8 3.582031-8 8s3.582031 8 8 8 8-3.582031 8-8-3.582031-8-8-8zm0 0"/><path d="m368 200c-13.253906 0-24-10.746094-24-24s10.746094-24 24-24 24 10.746094 24 24-10.746094 24-24 24zm0-32c-4.417969 0-8 3.582031-8 8s3.582031 8 8 8 8-3.582031 8-8-3.582031-8-8-8zm0 0"/><path d="m40 216h16v48h-16zm0 0"/><path d="m136 216h16v48h-16zm0 0"/><path d="m40 152h16v48h-16zm0 0"/><path d="m72 152h16v48h-16zm0 0"/><path d="m376 216h16v48h-16zm0 0"/><path d="m408 216h16v48h-16zm0 0"/><path d="m408 152h16v48h-16zm0 0"/></g></svg>