<svg height="464pt" viewBox="-31 0 463 464" width="464pt" xmlns="http://www.w3.org/2000/svg"><path d="m304.5 160v272c0 17.671875-14.328125 32-32 32h-240c-4.53125-.003906-9.003906-.984375-13.121094-2.878906-11.484375-5.136719-18.878906-16.542969-18.878906-29.121094v-304c0-17.671875 14.328125-32 32-32h208v48c.027344 8.824219 7.175781 15.972656 16 16zm0 0" fill="#e6e7e8"/><path d="m304.5 176v256c0 17.671875-14.328125 32-32 32h-240c-4.53125-.003906-9.003906-.984375-13.121094-2.878906zm0 0" fill="#d8d7da"/><path d="m256.5 296v32h-48v-32zm0 0" fill="#ffde55"/><path d="m96.5 296v32h-48v-32zm0 0" fill="#ffde55"/><path d="m192.5 400v16h-80v-32h80zm0 0" fill="#ffa733"/><path d="m192.5 144v32h-80v-32zm0 0" fill="#78b9eb"/><path d="m304.5 160h-48c-8.824219-.027344-15.972656-7.175781-16-16v-48zm0 0" fill="#bcbec0"/><path d="m400.5 32v304c0 17.671875-14.328125 32-32 32h-16v-288c0-17.671875-14.328125-32-32-32h-224v-16c0-17.671875 14.328125-32 32-32h240c17.671875 0 32 14.328125 32 32zm0 0" fill="#bcbec0"/><path d="m352.5 368v16c0 17.671875-14.328125 32-32 32h-16v-256l-64-64h-192v-16c0-17.671875 14.328125-32 32-32h240c17.671875 0 32 14.328125 32 32zm0 0" fill="#d1d3d4"/><g fill="#898890"><path d="m144.5 176h16v64h-16zm0 0"/><path d="m80.5 296h-16v-48c0-4.417969 3.582031-8 8-8h64v16h-56zm0 0"/><path d="m240.5 296h-16v-40h-56v-16h64c4.417969 0 8 3.582031 8 8zm0 0"/><path d="m112.5 408h-40c-4.417969 0-8-3.582031-8-8v-72h16v64h32zm0 0"/><path d="m232.5 408h-40v-16h32v-64h16v72c0 4.417969-3.582031 8-8 8zm0 0"/></g><path d="m192.5 248-40 24-40-24 40-24zm0 0" fill="#ff7956"/></svg>