<svg height="464pt" viewBox="0 0 464 464" width="464pt" xmlns="http://www.w3.org/2000/svg"><path d="m392 384v16h-24v-32h24zm0 0" fill="#ffcd00"/><path d="m352 464h-336c-8.824219-.027344-15.9726562-7.175781-16-16v-88c.0273438-8.824219 7.175781-15.972656 16-16h336c8.824219.027344 15.972656 7.175781 16 16v88c-.027344 8.824219-7.175781 15.972656-16 16zm0 0" fill="#ffde55"/><path d="m272 136v24l-36.238281 5.199219c-2.070313 7.230469-4.941407 14.207031-8.5625 20.800781l21.921875 29.199219-33.921875 33.921875-29.199219-21.921875c-6.59375 3.621093-13.570312 6.492187-20.800781 8.5625l-5.199219 36.238281h-48l-5.199219-36.238281c-7.230469-2.070313-14.207031-4.941407-20.800781-8.5625l-29.199219 21.921875-33.921875-33.921875 21.921875-29.199219c-3.621093-6.59375-6.492187-13.570312-8.5625-20.800781l-36.238281-5.199219v-48l36.238281-5.199219c2.070313-7.230469 4.941407-14.207031 8.5625-20.800781l-21.921875-29.199219 33.921875-33.921875 29.199219 21.921875c6.59375-3.621093 13.570312-6.492187 20.800781-8.5625l5.199219-36.238281h48l5.199219 36.238281c7.230469 2.070313 14.207031 4.941407 20.800781 8.5625l29.199219-21.921875 33.921875 33.921875-21.921875 29.199219c3.621093 6.59375 6.492187 13.570312 8.5625 20.800781l36.238281 5.199219zm0 0" fill="#ffa733"/><path d="m82.34375 165.65625-24-24c-3.121094-3.125-3.121094-8.1875 0-11.3125l24-24 11.3125 11.3125-18.34375 18.34375 18.34375 18.34375zm0 0" fill="#cc7400"/><path d="m189.65625 165.65625-11.3125-11.3125 18.34375-18.34375-18.34375-18.34375 11.3125-11.3125 24 24c3.121094 3.125 3.121094 8.1875 0 11.3125zm0 0" fill="#cc7400"/><path d="m112.589844 173.035156 31.96875-80.007812 14.859375 5.9375-31.972657 80.007812zm0 0" fill="#cc7400"/><path d="m128 24h16v16h-16zm0 0" fill="#cc7400"/><path d="m51.148438 62.464844 11.3125-11.316406 11.316406 11.316406-11.316406 11.3125zm0 0" fill="#cc7400"/><path d="m24 128h16v16h-16zm0 0" fill="#cc7400"/><path d="m51.144531 209.53125 11.3125-11.3125 11.316407 11.3125-11.316407 11.3125zm0 0" fill="#cc7400"/><path d="m128 232h16v16h-16zm0 0" fill="#cc7400"/><path d="m198.21875 209.535156 11.316406-11.3125 11.3125 11.3125-11.3125 11.316406zm0 0" fill="#cc7400"/><path d="m232 128h16v16h-16zm0 0" fill="#cc7400"/><path d="m198.222656 62.46875 11.316406-11.3125 11.3125 11.3125-11.3125 11.3125zm0 0" fill="#cc7400"/><g fill="#ff9811"><path d="m72 432h224v16h-224zm0 0"/><path d="m336 448h-24v-16h16v-24h16v32c0 4.417969-3.582031 8-8 8zm0 0"/><path d="m24 432h32v16h-32zm0 0"/><path d="m32 400h16v16h-16zm0 0"/><path d="m64 400h16v16h-16zm0 0"/><path d="m96 400h16v16h-16zm0 0"/><path d="m128 400h16v16h-16zm0 0"/><path d="m160 400h16v16h-16zm0 0"/><path d="m192 400h16v16h-16zm0 0"/><path d="m224 400h16v16h-16zm0 0"/><path d="m256 400h16v16h-16zm0 0"/><path d="m288 400h16v16h-16zm0 0"/><path d="m32 368h16v16h-16zm0 0"/><path d="m64 368h16v16h-16zm0 0"/><path d="m96 368h16v16h-16zm0 0"/><path d="m128 368h16v16h-16zm0 0"/><path d="m160 368h16v16h-16zm0 0"/><path d="m192 368h16v16h-16zm0 0"/><path d="m224 368h16v16h-16zm0 0"/><path d="m256 368h16v16h-16zm0 0"/><path d="m288 368h16v16h-16zm0 0"/></g><path d="m408 392h-16v-16h16c22.082031-.027344 39.972656-17.917969 40-40v-24c-.027344-22.082031-17.917969-39.972656-40-40h-64c-22.089844 0-40-17.910156-40-40s17.910156-40 40-40h80c13.253906 0 24-10.746094 24-24s-10.746094-24-24-24h-152v-16h152c22.089844 0 40 17.910156 40 40s-17.910156 40-40 40h-80c-13.253906 0-24 10.746094-24 24s10.746094 24 24 24h64c30.910156.039062 55.960938 25.089844 56 56v24c-.039062 30.910156-25.089844 55.960938-56 56zm0 0" fill="#ff6243"/></svg>