<svg height="464pt" viewBox="0 0 464 464" width="464pt" xmlns="http://www.w3.org/2000/svg"><path d="m144 320 8 56-48-8zm0 0" fill="#1e81ce"/><path d="m64 320 40 48-48 8zm0 0" fill="#1e81ce"/><path d="m152 376-8-56c35.347656 0 64 28.652344 64 64v80h-104v-96zm0 0" fill="#5aaae7"/><path d="m56 376 48-8v96h-104v-80c0-35.347656 28.652344-64 64-64zm0 0" fill="#3d9ae2"/><path d="m144 320-40 48-40-48zm0 0" fill="#ffdaaa"/><path d="m152 224v32c0 26.507812-21.492188 48-48 48s-48-21.492188-48-48v-32c-.015625-.453125.011719-.910156.078125-1.359375 16.082031-2.878906 51.683594-10.402344 63.921875-22.640625 7.71875 11.078125 18.972656 19.203125 31.921875 23.039062.0625.316407.089844.640626.078125.960938zm0 0" fill="#ffdaaa"/><path d="m160 224c-2.722656.011719-5.4375-.3125-8.078125-.960938-12.949219-3.835937-24.203125-11.960937-31.921875-23.039062-12.238281 12.238281-47.839844 19.761719-63.921875 22.640625-4.957031.878906-8.078125 1.359375-8.078125 1.359375.035156-30.914062 25.085938-55.964844 56-56 .804688-.027344 1.605469.027344 2.398438.160156 29.941406 1.25 53.578124 25.875 53.601562 55.839844zm0 0" fill="#787680"/><path d="m464 48v144c-.027344 8.824219-7.175781 15.972656-16 16h-176c-8.824219-.027344-15.972656-7.175781-16-16v-144zm0 0" fill="#78b9eb"/><path d="m272 0h176c8.824219.0273438 15.972656 7.175781 16 16v32h-208v-32c.027344-8.824219 7.175781-15.9726562 16-16zm0 0" fill="#ff7956"/><path d="m464 48v144c-.027344 8.824219-7.175781 15.972656-16 16h-160l160-160zm0 0" fill="#5aaae7"/><path d="m160 384h16v80h-16zm0 0" fill="#3d9ae2"/><path d="m32 384h16v80h-16zm0 0" fill="#1e81ce"/><g fill="#ffa733"><path d="m232 392v-16c79.492188-.09375 143.90625-64.507812 144-144h16c-.101562 88.324219-71.675781 159.898438-160 160zm0 0"/><path d="m114.296875 149.015625-13.066406-9.230469c30.019531-42.464844 78.765625-67.730468 130.769531-67.785156v16c-46.804688.054688-90.683594 22.796875-117.703125 61.015625zm0 0"/><path d="m232 424v-16c97.15625-.109375 175.890625-78.84375 176-176h16c-.125 105.988281-86.011719 191.875-192 192zm0 0"/><path d="m73.414062 155.558594-14.398437-6.949219c32.246094-66.21875 99.335937-108.339844 172.984375-108.609375v16c-67.519531.242188-129.023438 38.855469-158.585938 99.558594zm0 0"/></g><path d="m280 16h16v16h-16zm0 0" fill="#ff5023"/><path d="m304 16h16v16h-16zm0 0" fill="#ffd422"/><path d="m328 16h16v16h-16zm0 0" fill="#00ccb3"/><path d="m322.34375 149.65625-24-24c-3.121094-3.125-3.121094-8.1875 0-11.3125l24-24 11.3125 11.3125-18.34375 18.34375 18.34375 18.34375zm0 0" fill="#1a6fb0"/><path d="m397.65625 149.65625-11.3125-11.3125 18.34375-18.34375-18.34375-18.34375 11.3125-11.3125 24 24c3.121094 3.125 3.121094 8.1875 0 11.3125zm0 0" fill="#1a6fb0"/><path d="m336.585938 157.035156 31.96875-80.007812 14.859374 5.933594-31.972656 80.011718zm0 0" fill="#1a6fb0"/></svg>