<svg height="464pt" viewBox="0 -64 464 464" width="464pt" xmlns="http://www.w3.org/2000/svg"><path d="m440 32v256h-416v-256c0-17.671875 14.328125-32 32-32h352c17.671875 0 32 14.328125 32 32zm0 0" fill="#78b9eb"/><path d="m136 144 39.601562 39.601562c-16.015624 16.015626-40.105468 20.808594-61.03125 12.140626-20.929687-8.667969-34.570312-29.089844-34.570312-51.742188zm0 0" fill="#00ccb3"/><path d="m136 88v56h-56c0-30.929688 25.070312-56 56-56zm0 0" fill="#ff6243"/><path d="m136 88c22.652344 0 43.074219 13.640625 51.742188 34.570312 8.667968 20.925782 3.875 45.015626-12.140626 61.03125l-39.601562-39.601562zm0 0" fill="#ffde55"/><path d="m24 288h440v32c-.027344 8.824219-7.175781 15.972656-16 16h-432c-8.824219-.027344-15.9726562-7.175781-16-16v-32zm0 0" fill="#898890"/><path d="m440 32v256h-336l288-288h16c17.671875 0 32 14.328125 32 32zm0 0" fill="#5aaae7"/><path d="m200 304h64v16h-64zm0 0" fill="#787680"/><path d="m272 144h16v48h-16zm0 0" fill="#ff6243"/><path d="m304 120h16v72h-16zm0 0" fill="#ffd422"/><path d="m336 96h16v96h-16zm0 0" fill="#00ccb3"/><path d="m368 80h16v112h-16zm0 0" fill="#ff9811"/><g fill="#1e81ce"><path d="m184 64h32v16h-32zm0 0"/><path d="m184 40h32v16h-32zm0 0"/><path d="m64 64h32v16h-32zm0 0"/><path d="m64 40h32v16h-32zm0 0"/><path d="m80 216h32v16h-32zm0 0"/><path d="m80 240h32v16h-32zm0 0"/></g><path d="m248 216h64v16h-64zm0 0" fill="#3d9ae2"/><path d="m248 240h16v16h-16zm0 0" fill="#1e81ce"/><path d="m280 240h32v16h-32zm0 0" fill="#3d9ae2"/><path d="m400 200h-152c-4.417969 0-8-3.582031-8-8v-128h16v120h144zm0 0" fill="#3d9ae2"/></svg>