<svg height="464pt" viewBox="0 -64 464 464" width="464pt" xmlns="http://www.w3.org/2000/svg"><path d="m448 336h-432c-8.824219-.027344-15.9726562-7.175781-16-16v-32h464v32c-.027344 8.824219-7.175781 15.972656-16 16zm0 0" fill="#898890"/><path d="m440 32v256h-416v-256c0-17.671875 14.328125-32 32-32h352c17.671875 0 32 14.328125 32 32zm0 0" fill="#78b9eb"/><path d="m440 32v256h-336l288-288h16c17.671875 0 32 14.328125 32 32zm0 0" fill="#5aaae7"/><path d="m200 304h64v16h-64zm0 0" fill="#787680"/><g fill="#1e81ce"><path d="m168 200c-22.082031-.027344-39.972656-17.917969-40-40v-32c0-22.089844 17.910156-40 40-40s40 17.910156 40 40h-16c0-13.253906-10.746094-24-24-24s-24 10.746094-24 24v32c0 13.253906 10.746094 24 24 24s24-10.746094 24-24h16c-.027344 22.082031-17.917969 39.972656-40 40zm0 0"/><path d="m272 112h-16v-16h-16v16h-16v16h16v16h16v-16h16zm0 0"/><path d="m336 112h-16v-16h-16v16h-16v16h16v16h16v-16h16zm0 0"/></g></svg>