<svg height="464pt" viewBox="0 -31 464 463" width="464pt" xmlns="http://www.w3.org/2000/svg"><path d="m440 96.5v256h-416v-256c0-17.671875 14.328125-32 32-32h352c4.53125.003906 9.003906.984375 13.121094 2.878906 11.484375 5.136719 18.878906 16.542969 18.878906 29.121094zm0 0" fill="#78b9eb"/><path d="m440 96.5v256h-304l285.121094-285.121094c11.484375 5.136719 18.878906 16.542969 18.878906 29.121094zm0 0" fill="#5aaae7"/><path d="m384 48.5v208c-.027344 8.824219-7.175781 15.972656-16 16h-272c-8.824219-.027344-15.972656-7.175781-16-16v-208zm0 0" fill="#ffde55"/><path d="m448 400.5h-432c-8.824219-.027344-15.9726562-7.175781-16-16v-32h464v32c-.027344 8.824219-7.175781 15.972656-16 16zm0 0" fill="#898890"/><path d="m96 .5h272c8.824219.027344 15.972656 7.175781 16 16v32h-304v-32c.027344-8.824219 7.175781-15.972656 16-16zm0 0" fill="#ff7956"/><path d="m384 48.5v208c-.027344 8.824219-7.175781 15.972656-16 16h-232l224-224zm0 0" fill="#ffcd00"/><path d="m224 96.5h112v48h-112zm0 0" fill="#ffa733"/><path d="m200 368.5h64v16h-64zm0 0" fill="#787680"/><path d="m104 16.5h16v16h-16zm0 0" fill="#ff5023"/><path d="m136 16.5h16v16h-16zm0 0" fill="#ffd422"/><path d="m168 16.5h16v16h-16zm0 0" fill="#00ccb3"/><g fill="#ffcd00"><path d="m120 104.5h16v16h-16zm0 0"/><path d="m152 104.5h32v16h-32zm0 0"/><path d="m120 136.5h64v16h-64zm0 0"/></g><path d="m216 184.5h32v16h-32zm0 0" fill="#ff9811"/><path d="m264 184.5h80v16h-80zm0 0" fill="#ffb655"/><path d="m216 216.5h64v16h-64zm0 0" fill="#ffb655"/><path d="m296 216.5h48v16h-48zm0 0" fill="#ff9811"/><path d="m120 184.5h64v16h-64zm0 0" fill="#ffa733"/><path d="m120 216.5h64v16h-64zm0 0" fill="#ffa733"/></svg>