<svg height="464pt" viewBox="0 0 464 464" width="464pt" xmlns="http://www.w3.org/2000/svg"><path d="m384 48v144c-.027344 8.824219-7.175781 15.972656-16 16h-208v-160zm0 0" fill="#ffde55"/><path d="m384 48v144c-.027344 8.824219-7.175781 15.972656-16 16h-168l160-160zm0 0" fill="#ffcd00"/><path d="m464 304v144c-.027344 8.824219-7.175781 15.972656-16 16h-192c-8.824219-.027344-15.972656-7.175781-16-16v-144zm0 0" fill="#00ccb3"/><path d="m304 184v208c-.027344 8.824219-7.175781 15.972656-16 16h-272c-8.824219-.027344-15.9726562-7.175781-16-16v-208zm0 0" fill="#78b9eb"/><g fill="#ff7956"><path d="m464 272v32h-160v-48h144c8.824219.027344 15.972656 7.175781 16 16zm0 0"/><path d="m176 0h192c8.824219.0273438 15.972656 7.175781 16 16v32h-224v-32c.027344-8.824219 7.175781-15.9726562 16-16zm0 0"/><path d="m16 136h272c8.824219.027344 15.972656 7.175781 16 16v32h-304v-32c.0273438-8.824219 7.175781-15.972656 16-16zm0 0"/></g><path d="m304 184v208c-.027344 8.824219-7.175781 15.972656-16 16h-224l224-224zm0 0" fill="#5aaae7"/><path d="m464 304v144c-.027344 8.824219-7.175781 15.972656-16 16h-168l160-160zm0 0" fill="#00b39d"/><path d="m24 152h16v16h-16zm0 0" fill="#ff5023"/><path d="m56 152h16v16h-16zm0 0" fill="#ffd422"/><path d="m88 152h16v16h-16zm0 0" fill="#00ccb3"/><path d="m98.34375 277.65625-24-24c-3.121094-3.125-3.121094-8.1875 0-11.3125l24-24 11.3125 11.3125-18.34375 18.34375 18.34375 18.34375zm0 0" fill="#1a6fb0"/><path d="m205.65625 277.65625-11.3125-11.3125 18.34375-18.34375-18.34375-18.34375 11.3125-11.3125 24 24c3.121094 3.125 3.121094 8.1875 0 11.3125zm0 0" fill="#1a6fb0"/><path d="m128.585938 285.042969 31.96875-80.011719 14.859374 5.9375-31.96875 80.007812zm0 0" fill="#1a6fb0"/><path d="m88 304h48v16h-48zm0 0" fill="#1e81ce"/><path d="m72 336h32v16h-32zm0 0" fill="#1e81ce"/><path d="m120 336h32v16h-32zm0 0" fill="#3d9ae2"/><path d="m40 368h96v16h-96zm0 0" fill="#1e81ce"/><path d="m56 304h16v16h-16zm0 0" fill="#3d9ae2"/><path d="m168 336h32v16h-32zm0 0" fill="#1e81ce"/><path d="m152 368h32v16h-32zm0 0" fill="#3d9ae2"/><path d="m200 368h32v16h-32zm0 0" fill="#3d9ae2"/><path d="m152 304h64v16h-64zm0 0" fill="#1e81ce"/><path d="m184 16h16v16h-16zm0 0" fill="#ff5023"/><path d="m208 16h16v16h-16zm0 0" fill="#ffd422"/><path d="m232 16h16v16h-16zm0 0" fill="#00ccb3"/></svg>