<svg height="464pt" viewBox="0 0 464 464" width="464pt" xmlns="http://www.w3.org/2000/svg"><path d="m416 112v336c-.027344 8.824219-7.175781 15.972656-16 16h-384c-8.824219-.027344-15.9726562-7.175781-16-16v-336zm0 0" fill="#78b9eb"/><path d="m358.640625 169.359375c10.832031 10.804687 12.523437 27.761719 4.035156 40.492187-8.488281 12.730469-24.789062 17.691407-38.925781 11.84375-14.140625-5.847656-22.179688-20.867187-19.199219-35.875 2.976563-15.011718 16.148438-25.820312 31.449219-25.820312 8.484375.015625 16.621094 3.378906 22.640625 9.359375zm0 0" fill="#ff9811"/><path d="m304 272v48l-36.238281 5.199219c-2.070313 7.230469-4.941407 14.207031-8.5625 20.800781l21.921875 29.199219-33.921875 33.921875-29.199219-21.921875c-6.59375 3.621093-13.570312 6.492187-20.800781 8.5625l-5.199219 36.238281h-48l-5.199219-36.238281c-7.230469-2.070313-14.207031-4.941407-20.800781-8.5625l-29.199219 21.921875-33.921875-33.921875 21.921875-29.199219c-3.621093-6.59375-6.492187-13.570312-8.5625-20.800781l-36.238281-5.199219v-48l36.238281-5.199219c2.070313-7.230469 4.941407-14.207031 8.5625-20.800781l-21.921875-29.199219 33.921875-33.921875 29.199219 21.921875c6.59375-3.621093 13.570312-6.492187 20.800781-8.5625l5.199219-36.238281h48l5.199219 36.238281c7.230469 2.070313 14.207031 4.941407 20.800781 8.5625l29.199219-21.921875 33.921875 33.921875-21.921875 29.199219c3.621093 6.59375 6.492187 13.570312 8.5625 20.800781zm0 0" fill="#ffa733"/><path d="m464 64v336c-.027344 8.824219-7.175781 15.972656-16 16h-32v-352zm0 0" fill="#5aaae7"/><path d="m464 16v48h-48c-.027344-8.824219-7.175781-15.972656-16-16h-352v-32c.027344-8.824219 7.175781-15.9726562 16-16h384c8.824219.0273438 15.972656 7.175781 16 16zm0 0" fill="#ff6243"/><path d="m0 112v-48c.0273438-8.824219 7.175781-15.972656 16-16h384c8.824219.027344 15.972656 7.175781 16 16v48zm0 0" fill="#ff7956"/><path d="m24 72h16v16h-16zm0 0" fill="#ff5023"/><path d="m56 72h16v16h-16zm0 0" fill="#ffd422"/><path d="m88 72h16v16h-16zm0 0" fill="#00ccb3"/><path d="m136 72h208v16h-208zm0 0" fill="#ff9478"/><g fill="#ee8700"><path d="m114.34375 325.65625-24-24c-3.121094-3.125-3.121094-8.1875 0-11.3125l24-24 11.3125 11.3125-18.34375 18.34375 18.34375 18.34375zm0 0"/><path d="m221.65625 325.65625-11.3125-11.3125 18.34375-18.34375-18.34375-18.34375 11.3125-11.3125 24 24c3.121094 3.125 3.121094 8.1875 0 11.3125zm0 0"/><path d="m144.585938 333.042969 31.96875-80.007813 14.859374 5.933594-31.972656 80.011719zm0 0"/><path d="m160 184h16v16h-16zm0 0"/><path d="m83.152344 222.460938 11.316406-11.3125 11.3125 11.3125-11.3125 11.3125zm0 0"/><path d="m56 288h16v16h-16zm0 0"/><path d="m83.148438 369.539062 11.3125-11.316406 11.316406 11.316406-11.316406 11.3125zm0 0"/><path d="m160 392h16v16h-16zm0 0"/><path d="m230.222656 369.542969 11.316406-11.316407 11.3125 11.316407-11.3125 11.3125zm0 0"/><path d="m264 288h16v16h-16zm0 0"/><path d="m230.230469 222.464844 11.3125-11.3125 11.3125 11.3125-11.3125 11.316406zm0 0"/><path d="m392 200v-16h-16.800781c-1.03125-5.007812-3.019531-9.769531-5.855469-14.023438l11.921875-11.921874-11.3125-11.3125-11.921875 11.921874c-4.253906-2.839843-9.019531-4.832031-14.03125-5.863281v-16.800781h-16v16.800781c-5.007812 1.03125-9.769531 3.019531-14.023438 5.855469l-11.921874-11.921875-11.3125 11.3125 11.921874 11.921875c-2.839843 4.253906-4.832031 9.019531-5.863281 14.03125h-16.800781v16h16.800781c1.03125 5.007812 3.019531 9.769531 5.855469 14.023438l-11.921875 11.921874 11.3125 11.3125 11.921875-11.921874c4.253906 2.839843 9.019531 4.832031 14.03125 5.863281v16.800781h16v-16.800781c5.007812-1.03125 9.769531-3.019531 14.023438-5.855469l11.921874 11.921875 11.3125-11.3125-11.921874-11.921875c2.839843-4.253906 4.832031-9.019531 5.863281-14.03125zm-56 16c-13.253906 0-24-10.746094-24-24s10.746094-24 24-24 24 10.746094 24 24-10.746094 24-24 24zm0 0"/></g></svg>