<svg id="Layer_1" enable-background="new 0 0 124 124" height="512" viewBox="0 0 124 124" width="512" xmlns="http://www.w3.org/2000/svg"><path id="XMLID_1038_" d="m78.533 67.435v10.807c0 4.679 10.17 8.447 22.733 8.447s22.734-3.768 22.734-8.447v-10.807z" fill="#87d8fb"/><path id="XMLID_1037_" d="m78.533 56.048v11.387c0 4.679 10.17 8.447 22.733 8.447s22.734-3.768 22.734-8.447v-11.387z" fill="#5ab8ec"/><path id="XMLID_1036_" d="m78.533 45.447v10.6c0 4.679 10.17 8.447 22.733 8.447s22.734-3.767 22.734-8.446v-10.6h-45.467z" fill="#87d8fb"/><ellipse id="XMLID_1035_" cx="101.267" cy="45.447" fill="#5ab8ec" rx="22.733" ry="8.447"/><path id="XMLID_1043_" d="m0 67.435v11.118c0 4.679 10.17 8.447 22.733 8.447s22.733-3.768 22.733-8.447v-11.118z" fill="#99cf6c"/><path id="XMLID_1042_" d="m0 56.503v10.932c0 4.679 10.17 8.447 22.733 8.447s22.733-3.768 22.733-8.447v-10.932z" fill="#78af42"/><path id="XMLID_1041_" d="m0 45.447v11.056c0 4.679 10.17 8.447 22.733 8.447s22.733-3.768 22.733-8.447v-11.056z" fill="#99cf6c"/><ellipse id="XMLID_1040_" cx="22.733" cy="45.447" fill="#78af42" rx="22.733" ry="8.447"/><g fill="#454546"><path id="XMLID_985_" d="m70.695 69.315-6.106-5.668c-.871-.808-2.224-.747-3.021.136s-.737 2.255.134 3.063l2.047 1.9h-9.414c-1.181 0-2.138.971-2.138 2.168s.957 2.168 2.138 2.168h8.888l-1.425 1.172c-1.525 1.255-.625 3.852 1.348 3.852.473 0 .95-.158 1.346-.484l6.106-5.024c.777-.608.948-2.495.097-3.283z"/><path id="XMLID_986_" d="m69.252 51.25h-9.414l2.047-1.899c.871-.808.931-2.18.134-3.063-.798-.884-2.149-.944-3.021-.136l-6.106 5.667c-.938.875-.897 2.466.096 3.284l6.106 5.025c.396.326.873.484 1.346.484 1.975 0 2.872-2.597 1.348-3.852l-1.425-1.173h8.888c1.181 0 2.138-.971 2.138-2.168s-.957-2.169-2.137-2.169z"/></g></svg>