<svg id="Layer_1" enable-background="new 0 0 124 124" height="512" viewBox="0 0 124 124" width="512" xmlns="http://www.w3.org/2000/svg"><g fill="#6a6967"><path id="XMLID_966_" d="m62.352 61.482c-1.104 0-2-.896-2-2v-15.302c0-1.104.896-2 2-2s2 .896 2 2v15.302c0 1.104-.895 2-2 2z"/><path id="XMLID_967_" d="m100.561 77.75c-1.104 0-2-.896-2-2v-10.054h-30.729c-1.104 0-2-.896-2-2s.896-2 2-2h32.729c1.104 0 2 .896 2 2v12.054c0 1.105-.896 2-2 2z"/><path id="XMLID_968_" d="m23.439 77.75c-1.104 0-2-.896-2-2v-12.054c0-1.104.896-2 2-2h33.433c1.104 0 2 .896 2 2s-.896 2-2 2h-31.433v10.054c0 1.105-.895 2-2 2z"/></g><path id="XMLID_4328_" d="m55.744 58.085h13.217v11.222h-13.217z" fill="#454546"/><path id="XMLID_614_" d="m78.121 103.868v6.001c0 1.148.92 2.078 2.056 2.078h18.384v8.053h-6.77c-1.104 0-2 .896-2 2s.896 2 2 2h17.539c1.104 0 2-.896 2-2s-.896-2-2-2h-6.77v-8.053h18.384c1.135 0 2.056-.93 2.056-2.078v-6.001z" fill="#cfcfcf"/><path id="XMLID_1075_" d="m123 77.939c0-1.148-.92-2.078-2.056-2.078h-40.767c-1.135 0-2.056.93-2.056 2.078v25.929h44.879z" fill="#32b0e2"/><path id="XMLID_969_" d="m82.188 79.927h36.745v19.874h-36.745z" fill="#fff"/><path id="XMLID_612_" d="m1 103.758v6.001c0 1.148.92 2.078 2.056 2.078h18.384v8.053h-6.77c-1.104 0-2 .896-2 2s.896 2 2 2h17.539c1.104 0 2-.896 2-2s-.896-2-2-2h-6.77v-8.053h18.384c1.135 0 2.056-.93 2.056-2.078v-6.001z" fill="#cfcfcf"/><path id="XMLID_1070_" d="m45.879 77.828c0-1.148-.92-2.078-2.056-2.078h-40.767c-1.136 0-2.056.931-2.056 2.078v25.929h44.879z" fill="#fdbe4a"/><path id="XMLID_974_" d="m5.067 79.817h36.745v19.875h-36.745z" fill="#fff"/><path id="XMLID_977_" d="m80.191 17.471c0-.018.001-.035.001-.052 0-9.621-8.145-17.419-18.192-17.419s-18.192 7.798-18.192 17.418c0 .018.001.035.001.052-7.17.532-12.818 6.258-12.818 13.259 0 7.352 6.225 13.312 13.903 13.312h34.21c7.678 0 13.903-5.96 13.903-13.312.001-7-5.647-12.726-12.816-13.258z" fill="#cacaca"/><path id="XMLID_982_" d="m54.167 14.069c-1.65 0-2.583-1.967-1.563-3.247 2.231-2.798 5.608-4.403 9.264-4.403 3.413 0 6.646 1.434 8.87 3.935.734.826.66 2.09-.166 2.824-.824.734-2.089.661-2.824-.166-1.465-1.648-3.609-2.593-5.881-2.593-2.432 0-4.668 1.056-6.136 2.896-.393.497-.976.754-1.564.754z" fill="#f7f7f5"/></svg>