<svg id="Layer_1" enable-background="new 0 0 124 124" height="512" viewBox="0 0 124 124" width="512" xmlns="http://www.w3.org/2000/svg"><path id="XMLID_920_" d="m93.198 37.187c0-.031.002-.062.002-.094.001-17.172-13.991-31.093-31.25-31.093s-31.251 13.921-31.251 31.093c0 .031.002.062.002.094-12.316.949-22.018 11.171-22.018 23.669 0 13.124 10.693 23.763 23.883 23.763h58.768c13.19 0 23.883-10.639 23.883-23.763 0-12.498-9.703-22.72-22.019-23.669z" fill="#30ade0"/><path id="XMLID_932_" d="m48.496 29.544c-1.632 0-2.571-1.932-1.584-3.218 3.558-4.638 8.958-7.297 14.813-7.297 5.468 0 10.64 2.379 14.188 6.526.717.839.62 2.102-.219 2.82-.839.719-2.101.62-2.819-.218-2.788-3.259-6.852-5.128-11.151-5.128-4.603 0-8.846 2.09-11.642 5.733-.393.513-.986.782-1.586.782z" fill="#fff"/><path id="XMLID_1062_" d="m73.509 71.713-10.094-10.451c-.765-.792-2.103-.796-2.87-.004l-10.15 10.452c-.77.793-.752 2.059.04 2.828.778.757 2.069.739 2.826-.04l6.718-6.917v41.729c0 1.105.895 2 1.999 2s1.998-.896 1.998-2v-41.71l6.658 6.894c.754.781 2.046.804 2.826.048.795-.769.817-2.035.049-2.829z" fill="#454546"/><g fill="#cacaca"><path id="XMLID_935_" d="m37.678 62.151c-1.104 0-1.999.896-1.999 2v39.476h-28.717l6.756-6.682c.785-.776.793-2.043.017-2.828-.775-.786-2.041-.793-2.826-.017l-10.329 10.216c-.77.771-.775 2.069-.004 2.841l10.328 10.271c.77.766 2.061.763 2.826-.009.778-.783.774-2.05-.009-2.828l-7.001-6.963h30.958c1.104 0 1.999-.896 1.999-2v-41.477c0-1.104-.895-2-1.999-2z"/><path id="XMLID_934_" d="m123.32 104.316-10.328-10.216c-.785-.776-2.05-.77-2.827.017-.776.785-.768 2.052.017 2.828l6.756 6.682h-28.717v-39.476c0-1.105-.895-2-1.999-2s-1.999.896-1.999 2v41.476c0 1.105.895 2 1.999 2h30.957l-7.001 6.963c-.783.778-.787 2.045-.009 2.828.766.771 2.056.775 2.827.009l10.328-10.271c.923-1.064.881-2.106-.004-2.84z"/></g></svg>