<svg id="Layer_1" enable-background="new 0 0 124 124" height="512" viewBox="0 0 124 124" width="512" xmlns="http://www.w3.org/2000/svg"><ellipse id="XMLID_970_" cx="55.344" cy="46.759" fill="#30ade0" rx="47.344" ry="46.759"/><g fill="#e6e6e6"><path id="XMLID_888_" d="m53.587 22.284c-2.835-.101-5.566-.584-8.168-1.303-.403 1.234-.787 2.516-1.152 3.835 7.597 2.122 15.476 1.835 22.985-.514-.306-1.338-.635-2.641-.987-3.898-3.926 1.263-8.196 2.026-12.678 1.88-2.835-.101 4.482.146 0 0z"/><path id="XMLID_889_" d="m84.614 10.022c-3.354 2.775-8.433 6.402-14.606 8.995.366 1.276.707 2.598 1.026 3.949 6.953-2.818 12.676-6.918 16.674-10.318-.992-.919-2.024-1.794-3.094-2.626z"/><path id="XMLID_893_" d="m22.757 12.857c3.782 3.239 10.055 7.854 17.805 10.749.362-1.303.748-2.584 1.156-3.837-6.779-2.575-12.356-6.584-15.891-9.556-1.062.838-2.085 1.721-3.07 2.644z"/><path id="XMLID_899_" d="m55.648 68.139c-4.329 0-8.507.65-12.424 1.678.308 1.341.641 2.643.994 3.902 7.124-1.881 14.435-2.113 21.567-.153.368-1.245.715-2.538 1.044-3.863-3.508-.964-7.26-1.564-11.181-1.564z"/><path id="XMLID_900_" d="m69.557 74.791c6.427 2.386 11.737 5.905 15.204 8.592 1.072-.841 2.106-1.727 3.1-2.655-3.724-2.958-9.784-7.104-17.256-9.819-.327 1.316-.676 2.612-1.048 3.882z"/><path id="XMLID_901_" d="m39.398 70.959c-7.286 2.468-13.356 6.108-17.273 9.108.972.945 1.981 1.853 3.032 2.714 3.998-2.975 9.342-5.876 15.241-7.899-.356-1.276-.69-2.585-1-3.923z"/><path id="XMLID_902_" d="m65.785 73.566c1.297.356 2.551.772 3.772 1.225.372-1.271.722-2.567 1.048-3.882-1.223-.444-2.482-.85-3.776-1.206-.329 1.325-.677 2.618-1.044 3.863z"/><path id="XMLID_907_" d="m8.051 48.759h28.814c.002-.525.078-3.178.125-4h-28.939c-.028.664-.028 3.336 0 4z"/><path id="XMLID_908_" d="m102.637 44.759h-28.904c.021 1.342.014 2.677-.024 4h28.927c.029-.664.029-3.336.001-4z"/><path id="XMLID_909_" d="m40.865 48.759h28.843c.039-1.319.046-2.655.024-4h-28.743c-.046.842-.121 3.509-.124 4z"/><path id="XMLID_912_" d="m70.022 19.004c-1.211-4.225-2.734-8.452-5.002-12.235-1.835-3.062-4.641-6.58-8.555-6.58-5.948 0-11.185 8.642-14.747 19.58-2.622 8.053-4.25 16.532-4.728 24.99-.57 10.086.69 20.402 3.409 30.123 2.164 7.738 5.162 14.197 8.541 17.658.216.222.434.427.653.624 1.886.226 3.803.356 5.751.356 1.562 0 3.104-.079 4.627-.225 3.918-3.378 7.206-10.377 9.586-18.502-1.221-.453-2.476-.869-3.772-1.225-3.102 10.504-7.455 17.893-10.896 17.892-.01 0-.02 0-.029 0-1.115-.002-2.288-.927-3.058-1.715-2.747-2.813-5.517-8.657-7.584-16.026-2.269-8.091-3.401-16.558-3.353-24.96.055-9.385 1.637-18.86 4.554-27.778 3.233-9.884 7.591-16.792 11.036-16.792 1.186 0 2.234.913 3.001 1.725 2.637 2.792 5.009 8.055 6.809 14.49.352 1.257.681 2.56.987 3.898 1.456 6.368 2.365 13.531 2.48 20.457.022 1.345-.027 4.186-.03 4.278-.218 7.21-1.307 14.352-2.873 20.665 1.294.356 2.553.762 3.776 1.206 1.798-7.247 2.892-15.028 3.095-21.745.291-8.789-1.053-19.435-2.653-26.212-.319-1.35-.66-2.671-1.025-3.947z"/></g><path id="XMLID_913_" d="m55.344 98.69v14.206c0 6.151 13.568 11.104 30.328 11.104s30.328-4.953 30.328-11.104v-14.206z" fill="#99cf6c"/><path id="XMLID_914_" d="m55.344 83.721v14.969c0 6.151 13.568 11.104 30.328 11.104s30.328-4.954 30.328-11.104v-14.969z" fill="#78af42"/><path id="XMLID_915_" d="m55.344 69.787v13.934c0 6.151 13.568 11.104 30.328 11.104s30.328-4.953 30.328-11.104v-13.934z" fill="#99cf6c"/><ellipse id="XMLID_916_" cx="85.672" cy="69.787" fill="#78af42" rx="30.328" ry="11.104"/></svg>