<svg id="Layer_1" enable-background="new 0 0 124 124" height="512" viewBox="0 0 124 124" width="512" xmlns="http://www.w3.org/2000/svg"><path id="XMLID_842_" d="m93.192 95.994h3.794c7.74 0 14.014 6.129 14.014 13.689v10.433h-.022-31.799l.192-10.935c.12-7.42 6.505-13.191 13.821-13.187z" fill="#78af42"/><ellipse id="XMLID_843_" cx="95.078" cy="81.535" fill="#fdbe4a" rx="8.862" ry="8.783"/><path id="XMLID_851_" d="m27.014 95.994h3.794c7.74 0 14.014 6.129 14.014 13.689v10.433h-.022-31.8l.192-10.935c.121-7.42 6.505-13.191 13.822-13.187z" fill="#78af42"/><ellipse id="XMLID_852_" cx="28.9" cy="81.535" fill="#fdbe4a" rx="8.862" ry="8.783"/><path id="XMLID_860_" d="m59.754 95.922h4.492c9.164 0 16.594 7.134 16.594 15.934v12.144h-.026-37.654l.227-12.729c.145-8.747 7.819-15.354 16.367-15.349z" fill="#cfcfcf"/><ellipse id="XMLID_861_" cx="61.987" cy="79.091" fill="#fdbe4a" rx="10.426" ry="10.329"/><ellipse id="XMLID_863_" cx="62" cy="30.206" fill="#32b0e2" rx="30.252" ry="30.086"/><g fill="#f7f7f5"><path id="XMLID_865_" d="m64.064.197c-.407-.117-.82-.186-1.238-.196-.037-.001-.073-.001-.109-.001-.351 0-.696.052-1.038.128.107-.001.213-.008.321-.008.694 0 1.381.031 2.064.077z"/><path id="XMLID_867_" d="m55.401 17.094c-1.317-.267-2.591-.611-3.822-1-1.079 4.037-1.779 8.298-2.015 12.111h4.002c.241-3.898.919-7.709 1.835-11.111z"/><path id="XMLID_868_" d="m61.712 56.713c-.004 0-.009 0-.013 0-.393-.008-.946-.324-1.529-.922-1.413-1.448-2.858-4.303-4.045-7.919-1.347.268-2.647.608-3.887 1.005 1.355 4.205 3.112 7.702 5.069 9.707.688.705 1.398 1.236 2.127 1.592.847.071 1.701.115 2.565.115.601 0 1.197-.022 1.79-.057 3.127-1.436 5.727-5.991 7.58-11.585-1.255-.371-2.565-.687-3.916-.924-1.835 5.39-4.128 8.989-5.741 8.988z"/><path id="XMLID_869_" d="m62.707 4h.026c.378.009.906.343 1.448.917 1.383 1.464 2.782 4.391 3.912 8.111 1.332-.296 2.619-.67 3.849-1.1-1.281-4.24-2.961-7.755-4.852-9.758-.958-1.014-1.972-1.671-3.026-1.974-.683-.045-1.37-.076-2.064-.076-.108 0-.214.007-.321.008-3.668.817-6.773 5.866-8.934 12.139 1.235.393 2.524.725 3.851.977 1.95-5.512 4.404-9.244 6.111-9.244z"/><path id="XMLID_872_" d="m53.482 32.206h-3.998c.086 4.299.696 8.751 1.676 12.818 1.251-.393 2.542-.738 3.869-1.013-.876-3.637-1.462-7.72-1.547-11.805z"/><path id="XMLID_877_" d="m70.461 28.206h3.999c-.087-4.178-.624-8.458-1.5-12.378-1.226.419-2.515.783-3.852 1.085.767 3.48 1.268 7.37 1.353 11.293z"/><path id="XMLID_878_" d="m68.603 43.873c1.338.251 2.638.567 3.887.936 1.055-4.158 1.72-8.594 1.92-12.603h-4.004c-.215 4.122-.889 8.128-1.803 11.667z"/><path id="XMLID_879_" d="m81.257 7.002c-2.177 1.692-5.448 3.576-9.314 4.927-3.531 1.234-7.29 1.936-11.039 1.817-2.767-.1-5.523-.64-8.159-1.478-4.291-1.365-7.915-3.419-10.145-5.143-1.036.862-2.014 1.79-2.926 2.781 2.555 2.081 6.807 4.575 11.905 6.187 2.977.942 6.064 1.536 9.188 1.648 4.133.128 8.285-.58 12.193-1.915 4.942-1.688 8.893-4.155 11.235-6.057-.917-.984-1.897-1.911-2.938-2.767z"/><path id="XMLID_881_" d="m72.49 44.809c-3.332-.984-6.817-1.56-10.295-1.56-3.743 0-7.469.654-11.035 1.774-4.576 1.438-8.559 3.564-11.28 5.696.928.989 1.919 1.919 2.972 2.776 2.173-1.585 5.469-3.363 9.387-4.618 3.207-1.027 6.584-1.629 9.956-1.629 3.103 0 6.204.522 9.176 1.401 4.185 1.238 7.732 3.085 9.98 4.679 1.044-.865 2.029-1.799 2.948-2.795-2.563-1.946-6.774-4.237-11.809-5.724z"/><path id="XMLID_882_" d="m92.178 28.206h-60.356c-.044.662-.074 1.327-.074 2s.03 1.338.074 2h60.355c.044-.662.074-1.327.074-2 .001-.673-.03-1.339-.073-2z"/></g></svg>