<svg id="Layer_1" enable-background="new 0 0 124 124" height="512" viewBox="0 0 124 124" width="512" xmlns="http://www.w3.org/2000/svg"><path id="XMLID_1114_" d="m66.349 95.839h-9.808v-69.678h9.808c1.104 0 2-.896 2-2s-.896-2-2-2h-11.807c-1.104 0-2 .896-2 2v34.131h-9.556c-1.104 0-2 .896-2 2s.896 2 2 2h9.556v35.548c0 1.104.896 2 2 2h11.808c1.104 0 2-.896 2-2s-.896-2.001-2.001-2.001z" fill="#454546"/><path id="XMLID_4274_" d="m1 33.776h32.68v54.448h-32.68z" fill="#6c6b69"/><g fill="#cfcfcf"><ellipse id="XMLID_4277_" cx="17.34" cy="72.712" rx="4.027" ry="4.021"/><path id="XMLID_813_" d="m25.369 58.27h-16.058c-1.104 0-2-.896-2-2s.896-2 2-2h16.058c1.104 0 2 .896 2 2s-.895 2-2 2z"/><path id="XMLID_814_" d="m25.369 47.992h-16.058c-1.104 0-2-.896-2-2s.896-2 2-2h16.058c1.104 0 2 .896 2 2s-.895 2-2 2z"/></g><path id="XMLID_822_" d="m123 75.855c0-1.202-.966-2.176-2.157-2.176h-42.765c-1.191 0-2.157.974-2.157 2.176v27.061h47.079z" fill="#f16953"/><path id="XMLID_1976_" d="m79.988 77.746h38.946v21.104h-38.946z" fill="#fff"/><path id="XMLID_801_" d="m75.921 102.916v6.379c0 1.202.966 2.176 2.157 2.176h19.382v8.529h-7.199c-1.104 0-2 .896-2 2s.896 2 2 2h18.399c1.104 0 2-.896 2-2s-.896-2-2-2h-7.2v-8.528h19.383c1.191 0 2.157-.974 2.157-2.176v-6.379h-47.079z" fill="#cfcfcf"/><path id="XMLID_831_" d="m123 2.176c0-1.202-.966-2.176-2.157-2.176h-42.765c-1.191 0-2.157.974-2.157 2.176v27.061h47.079z" fill="#30ade0"/><path id="XMLID_1975_" d="m79.988 4.067h38.946v21.104h-38.946z" fill="#fff"/><path id="XMLID_799_" d="m75.921 29.237v6.379c0 1.202.966 2.176 2.157 2.176h19.382v8.528h-7.199c-1.104 0-2 .896-2 2s.896 2 2 2h18.399c1.104 0 2-.896 2-2s-.896-2-2-2h-7.2v-8.528h19.383c1.191 0 2.157-.974 2.157-2.176v-6.379z" fill="#cfcfcf"/></svg>