<svg id="Layer_1" enable-background="new 0 0 124 124" height="512" viewBox="0 0 124 124" width="512" xmlns="http://www.w3.org/2000/svg"><path id="XMLID_732_" d="m1 57.757v20.51c0 8.88 19.672 16.03 43.974 16.03s43.974-7.151 43.974-16.03v-20.51z" fill="#99cf6c"/><path id="XMLID_736_" d="m1 36.147v21.61c0 8.88 19.672 16.03 43.974 16.03s43.974-7.151 43.974-16.03v-21.61z" fill="#78af42"/><path id="XMLID_737_" d="m1 16.03v20.117c0 8.88 19.672 16.03 43.974 16.03s43.974-7.151 43.974-16.03v-20.117z" fill="#99cf6c"/><ellipse id="XMLID_740_" cx="44.974" cy="16.03" fill="#78af42" rx="43.974" ry="16.03"/><ellipse id="XMLID_742_" cx="88.992" cy="89.71" fill="#cacaca" rx="34.008" ry="34.29"/><path id="XMLID_746_" d="m98.318 85.745c-1.104 0-2-.896-2-2v-7.669c0-4.202-3.277-7.62-7.306-7.62-4.027 0-7.305 3.418-7.305 7.62v7.669c0 1.104-.896 2-2 2s-2-.896-2-2v-7.669c0-6.407 5.071-11.62 11.305-11.62s11.306 5.213 11.306 11.62v7.669c0 1.104-.895 2-2 2z" fill="#454546"/><path id="XMLID_747_" d="m74.542 82.329v28.503h28.9v-28.503z" fill="#e85aa0"/><path id="XMLID_749_" d="m88.992 100.831c-1.104 0-2-.896-2-2v-4.115c0-1.104.896-2 2-2s2 .896 2 2v4.115c0 1.105-.895 2-2 2z" fill="#fff"/></svg>