<svg id="Layer_1" enable-background="new 0 0 124 124" height="512" viewBox="0 0 124 124" width="512" xmlns="http://www.w3.org/2000/svg"><path id="XMLID_718_" d="m62.429 44.728c-1.104 0-2-.896-2-2v-18.381c0-11.22-8.852-20.347-19.732-20.347s-19.731 9.127-19.731 20.347v18.381c0 1.104-.896 2-2 2s-2-.896-2-2v-18.381c0-13.425 10.645-24.347 23.731-24.347s23.731 10.922 23.731 24.347v18.381c.001 1.104-.895 2-1.999 2z" fill="#fdbe4a"/><path id="XMLID_720_" d="m12 42.728v56.065h57.311v-56.065z" fill="#cfcfcf"/><path id="XMLID_721_" d="m40.655 77.187c-1.104 0-2-.896-2-2v-8.094c0-1.104.896-2 2-2s2 .896 2 2v8.094c0 1.105-.895 2-2 2z" fill="#fff"/><path id="XMLID_725_" d="m53.719 99.776v13.596c0 5.887 13.037 10.627 29.141 10.627s29.14-4.74 29.14-10.626v-13.597z" fill="#87d8fb"/><path id="XMLID_726_" d="m53.719 85.451v14.326c0 5.887 13.037 10.627 29.141 10.627s29.14-4.741 29.14-10.628v-14.325z" fill="#5ab8ec"/><path id="XMLID_728_" d="m53.719 72.115v13.336c0 5.887 13.037 10.627 29.141 10.627s29.14-4.741 29.14-10.627v-13.336z" fill="#87d8fb"/><ellipse id="XMLID_729_" cx="82.859" cy="72.115" fill="#5ab8ec" rx="29.141" ry="10.627"/></svg>