<svg id="Layer_1" enable-background="new 0 0 124 124" height="512" viewBox="0 0 124 124" width="512" xmlns="http://www.w3.org/2000/svg"><path id="XMLID_696_" d="m14 83.601v22.675c0 9.818 21.474 17.724 48 17.724s48-7.906 48-17.723v-22.676z" fill="#e85aa0"/><path id="XMLID_697_" d="m14 59.71v23.892c0 9.817 21.474 17.723 48 17.723s48-7.906 48-17.723v-23.892z" fill="#e6e6e6"/><path id="XMLID_698_" d="m14 37.469v22.241c0 9.817 21.474 17.723 48 17.723s48-7.906 48-17.723v-22.241z" fill="#e85aa0"/><ellipse id="XMLID_704_" cx="62" cy="37.469" fill="#e6e6e6" rx="48" ry="17.723"/><path id="XMLID_712_" d="m61.391 9.774-8.861-9.177c-.763-.792-2.106-.798-2.872-.005l-8.922 9.177c-.771.792-.753 2.058.039 2.828.778.757 2.071.74 2.828-.04l5.488-5.645v26.19c0 1.105.896 2 2 2s2-.896 2-2v-26.166l5.423 5.616c.755.782 2.046.804 2.828.049.794-.766.816-2.032.049-2.827z" fill="#fdbe4a"/><path id="XMLID_1201_" d="m83.221 29.003c-.795-.767-2.06-.746-2.828.049l-5.423 5.616v-26.166c0-1.105-.896-2-2-2s-2 .896-2 2v26.19l-5.488-5.645c-.77-.792-2.036-.81-2.828-.04s-.81 2.037-.039 2.828l8.922 9.177c.768.789 2.107.789 2.872-.005l8.861-9.177c.767-.794.745-2.06-.049-2.827-.795-.767.794.767 0 0z" fill="#f16953"/></svg>