<svg id="Layer_1" enable-background="new 0 0 124 124" height="512" viewBox="0 0 124 124" width="512" xmlns="http://www.w3.org/2000/svg"><ellipse id="XMLID_643_" cx="39.715" cy="39.774" fill="#30ade0" rx="39.715" ry="39.774"/><g fill="#f7f7f5"><path id="XMLID_646_" d="m30.625 21.664c-1.344-.309-2.619-.685-3.845-1.096-1.477 5.566-2.447 11.56-2.762 17.202h4.003c.311-5.292 1.224-10.897 2.604-16.106z"/><path id="XMLID_658_" d="m27.891 41.779h-3.999c.002 6.115.762 12.491 2.06 18.293 1.227-.429 2.51-.824 3.863-1.16-1.178-5.293-1.924-11.226-1.924-17.133z"/><path id="XMLID_659_" d="m29.023 13.47c-.397 1.05-.772 2.14-1.13 3.255 1.219.414 2.501.781 3.85 1.081.323-.998.664-1.972 1.02-2.916 2.913-7.704 6.052-11.135 7.89-11.135h.035c.798.019 1.632.73 2.192 1.323 2.179 2.311 4.164 6.837 5.677 12.376 1.339-.354 2.623-.763 3.829-1.222-1.706-6.115-4.002-11.154-6.598-13.907-1.004-1.065-2.054-1.8-3.135-2.205-.971-.071-3.449-.105-3.705-.101-4.458 1.365-7.812 7.864-9.925 13.451z"/><path id="XMLID_660_" d="m49.125 58.701c1.314.296 2.595.645 3.835 1.042 1.438-6.018 2.309-12.416 2.475-17.965h-4.003c-.185 5.84-1.057 11.692-2.307 16.923z"/><path id="XMLID_661_" d="m49.508 21.348c1.12 5.175 1.83 10.913 1.947 16.422h4.005c-.108-5.99-.868-12.117-2.1-17.646-1.225.454-2.505.869-3.852 1.224z"/><path id="XMLID_662_" d="m51.935 63.616c-1.237-.402-2.516-.756-3.834-1.046-2.547 8.718-6.057 14.919-8.767 14.918-.007 0-.014 0-.021 0-.82.021-1.695-.71-2.287-1.317-2.223-2.28-4.508-7.186-6.238-13.375-1.357.336-2.642.733-3.858 1.17 1.839 6.588 4.377 12.074 7.236 15.006.073.075.147.139.22.211 1.745.235 3.521.367 5.33.367 1.468 0 2.916-.086 4.342-.241 3.215-3.034 5.913-8.919 7.877-15.693z"/><path id="XMLID_663_" d="m64.688 8.855c-2.072 1.818-6.345 5.109-12.301 7.377-7.872 2.998-16.511 3.201-24.493.492-6.601-2.241-11.245-5.84-13.349-7.715-1.037.852-2.031 1.756-2.977 2.707 2.175 1.987 7.491 6.261 15.212 8.851 8.671 2.909 18.006 2.724 26.581-.444 7.151-2.642 12.165-6.631 14.327-8.581-.954-.945-1.956-1.84-3-2.687-2.072 1.818 1.044.847 0 0z"/><path id="XMLID_665_" d="m52.959 59.744c-8.808-2.825-18.272-2.728-27.008.327-7.11 2.487-12.032 6.229-14.114 8.024.96.947 1.969 1.844 3.02 2.69 2.041-1.696 6.217-4.718 12.071-6.82 8.074-2.9 16.854-3.001 25.007-.349 5.282 1.719 9.756 4.344 12.918 6.948 1.043-.855 2.042-1.761 2.993-2.716-3.549-3.025-8.727-6.129-14.887-8.104-1.24-.398 6.16 1.975 0 0z"/><path id="XMLID_666_" d="m79.379 37.771h-79.328c-.033.664-.033 3.344 0 4.008h79.328c.033-.664.033-3.345 0-4.008z"/></g><path id="XMLID_669_" d="m89.415 85.176h4v12.36h-4z" fill="#454546" transform="matrix(.706 -.708 .708 .706 -37.823 91.636)"/><ellipse id="XMLID_673_" cx="67.71" cy="67.352" fill="#f7f7f5" rx="28.681" ry="28.645"/><path id="XMLID_674_" d="m67.71 97.998c-16.917 0-30.681-13.748-30.681-30.646s13.763-30.645 30.681-30.645 30.682 13.747 30.682 30.645-13.764 30.646-30.682 30.646zm0-57.291c-14.712 0-26.681 11.953-26.681 26.645s11.969 26.646 26.681 26.646 26.682-11.953 26.682-26.646c0-14.692-11.97-26.645-26.682-26.645z" fill="#cacaca"/><path id="XMLID_679_" d="m102.947 94.625c-2.247-2.244-5.992-2.369-8.364 0-2.247 2.244-2.372 6.109 0 8.353l15.909 15.885 8.355-8.361z" fill="#6c6b69"/><path id="XMLID_680_" d="m122.221 113.87-3.373-3.369-8.355 8.361 3.365 3.361c2.372 2.369 6.117 2.369 8.364 0 2.371-2.368 2.371-6.109-.001-8.353z" fill="#cfcfcf"/><path id="XMLID_691_" d="m50.096 67.033v10.41c0 3.798 7.88 6.857 17.614 6.857s17.614-3.059 17.614-6.857v-10.41z" fill="#fdbe4a"/><path id="XMLID_692_" d="m50.096 57.261v9.772c0 3.798 7.88 6.857 17.614 6.857s17.614-3.059 17.614-6.857v-9.772z" fill="#ffd169"/><ellipse id="XMLID_693_" cx="67.71" cy="57.261" fill="#fdbe4a" rx="17.614" ry="6.857"/></svg>