<svg id="Layer_1" enable-background="new 0 0 124 124" height="512" viewBox="0 0 124 124" width="512" xmlns="http://www.w3.org/2000/svg"><path id="XMLID_574_" d="m22.665 1.517h26.617v45.521h-26.617z" fill="#e85aa0"/><g fill="#f7f7f5"><ellipse id="XMLID_575_" cx="35.974" cy="34.07" rx="3.28" ry="3.362"/><path id="XMLID_579_" d="m42.513 22.323h-13.078c-1.104 0-2-.896-2-2s.896-2 2-2h13.079c1.104 0 2 .896 2 2s-.896 2-2.001 2z"/><path id="XMLID_582_" d="m42.513 13.73h-13.078c-1.104 0-2-.896-2-2s.896-2 2-2h13.079c1.104 0 2 .896 2 2s-.896 2-2.001 2z"/></g><path id="XMLID_592_" d="m110.365 3.097c0-1.158-.927-2.097-2.07-2.097h-41.055c-1.143 0-2.07.939-2.07 2.097v26.213h45.195z" fill="#78af42"/><path id="XMLID_593_" d="m69.303 5.136h36.928v20.039h-36.928z" fill="#fff"/><path id="XMLID_1229_" d="m65.17 29.31v6.005c0 1.158.927 2.097 2.07 2.097h18.527v8.144h-6.831c-1.104 0-2 .896-2 2s.896 2 2 2h17.662c1.104 0 2-.896 2-2s-.896-2-2-2h-6.831v-8.144h18.527c1.143 0 2.07-.939 2.07-2.097v-6.005z" fill="#cfcfcf"/><path id="XMLID_602_" d="m118.291 73.341h-19.354c-3.193 0-5.709 2.629-5.709 5.745v38.169c0 3.213 2.613 5.745 5.709 5.745h19.354c3.097 0 5.709-2.629 5.709-5.745v-38.169c0-3.214-2.613-5.745-5.709-5.745z" fill="#ffd169"/><path id="XMLID_603_" d="m124 79.086c0-3.213-2.613-5.745-5.709-5.745h-19.354c-3.193 0-5.709 2.629-5.709 5.745v3.019h30.772z" fill="#6c6b69"/><path id="XMLID_952_" d="m93.228 114.237v3.018c0 3.213 2.613 5.745 5.709 5.745h19.354c3.097 0 5.709-2.629 5.709-5.745v-3.018z" fill="#6c6b69"/><path id="XMLID_607_" d="m25.063 73.341h-19.354c-3.193 0-5.709 2.629-5.709 5.745v38.169c0 3.213 2.613 5.745 5.709 5.745h19.354c3.097 0 5.709-2.629 5.709-5.745v-38.169c0-3.214-2.612-5.745-5.709-5.745z" fill="#5ab8ec"/><path id="XMLID_950_" d="m30.773 79.086c0-3.213-2.613-5.745-5.709-5.745h-19.355c-3.193 0-5.709 2.629-5.709 5.745v3.019h30.772v-3.019z" fill="#6c6b69"/><path id="XMLID_951_" d="m0 114.237v3.018c0 3.213 2.613 5.745 5.709 5.745h19.354c3.097 0 5.709-2.629 5.709-5.745v-3.018z" fill="#6c6b69"/><path id="XMLID_600_" d="m56.362 80.947h-14.738l1.6-1.687c.76-.801.727-2.067-.075-2.827-.801-.76-2.068-.727-2.827.075l-4.79 5.052c-.749.79-.71 2.09.08 2.837l4.707 4.986c.746.791 2.035.829 2.827.081.803-.758.839-2.024.081-2.827l-1.595-1.689h14.731c1.104 0 2-.896 2-2s-.896-2.001-2.001-2.001z" fill="#6a6967"/><path id="XMLID_591_" d="m68.359 63.927-4.987-4.87c-.792-.774-2.108-.739-2.864.067l-4.937 4.8c-.792.77-.81 2.036-.04 2.828.757.779 2.049.797 2.828.04l1.563-1.519-.123 14.289c-.009 1.104.878 2.007 1.983 2.017h.018c1.096 0 1.99-.884 2-1.983l.124-14.41 1.641 1.602c.777.758 2.069.745 2.828-.033.771-.791.756-2.057-.034-2.828z" fill="#6a6967"/><path id="XMLID_587_" d="m88.15 81.56-4.79-5.052c-.76-.802-2.025-.836-2.827-.075-.802.76-.835 2.026-.075 2.827l1.6 1.687h-14.465c-1.104 0-2 .896-2 2s.896 2 2 2h14.457l-1.595 1.689c-.758.803-.722 2.069.081 2.827.791.747 2.081.71 2.827-.081l4.707-4.986c.685-.647.744-2.137.08-2.836z" fill="#6a6967"/><path id="XMLID_635_" d="m56.366 78.507h10.866v8.879h-10.866z" fill="#454546"/></svg>