<svg id="Layer_1" enable-background="new 0 0 124 124" height="512" viewBox="0 0 124 124" width="512" xmlns="http://www.w3.org/2000/svg"><path id="XMLID_629_" d="m28 97.033v7.88c0 1.704 1.395 3.086 3.115 3.086h28.885v12.001h-11.288c-1.104 0-2 .896-2 2s.896 2 2 2h26.575c1.104 0 2-.896 2-2s-.896-2-2-2h-11.287v-12.001h28.885c1.72 0 3.115-1.381 3.115-3.086v-7.88z" fill="#cfcfcf"/><path id="XMLID_510_" d="m96 57.501c0-1.704-1.395-3.086-3.115-3.086h-61.77c-1.72 0-3.115 1.381-3.115 3.086v39.532h68z" fill="#fdbe4a"/><path id="XMLID_1228_" d="m32 58.416h60v34.617h-60z" fill="#fff"/><ellipse id="XMLID_519_" cx="62" cy="49.813" fill="#30ade0" rx="25.413" ry="24.97"/><g fill="#f7f7f5"><path id="XMLID_526_" d="m55.161 51.814h-4.001c.058 3.557.534 7.203 1.318 10.545 1.205-.504 2.487-.944 3.836-1.29-.658-2.88-1.094-6.066-1.153-9.255z"/><path id="XMLID_527_" d="m54.23 34.224c1.203.503 2.485.921 3.831 1.204 1.564-4.063 3.398-6.681 4.531-6.681h.017c.182.004.543.185 1.011.681 1.021 1.081 2.053 3.125 2.926 5.741 1.333-.348 2.598-.817 3.784-1.358-1.036-3.058-2.338-5.58-3.802-7.13-.863-.914-1.783-1.503-2.744-1.769-.59-.04-1.183-.068-1.784-.068-.102 0-.202.006-.303.008-3.056.64-5.628 4.465-7.467 9.372z"/><path id="XMLID_529_" d="m67.405 60.918c1.321.304 2.584.699 3.774 1.161.886-3.575 1.418-7.254 1.57-10.265h-4.004c-.162 3.252-.662 6.352-1.34 9.104z"/><path id="XMLID_530_" d="m56.807 39.242c-1.332-.308-2.603-.721-3.803-1.207-.884 3.216-1.476 6.63-1.721 9.778h4.005c.245-3.059.801-5.978 1.519-8.571z"/><path id="XMLID_531_" d="m68.768 47.813h4.004c-.119-3.462-.597-6.944-1.343-10.118-1.205.52-2.478.975-3.818 1.328.613 2.707 1.038 5.723 1.157 8.79z"/><path id="XMLID_534_" d="m70.063 65.93c-1.187-.479-2.455-.89-3.786-1.178-1.523 4.404-3.382 7.25-4.519 7.25-.002 0-.005 0-.008 0-.191.001-.562-.158-1.08-.689-1.147-1.176-2.319-3.478-3.288-6.393-1.344.338-2.618.79-3.805 1.311 1.133 3.38 2.59 6.193 4.23 7.875.139.143.28.275.422.402 1.231.18 2.49.275 3.771.275 1.064 0 2.111-.072 3.141-.197 2.027-1.755 3.679-4.97 4.922-8.656z"/><path id="XMLID_535_" d="m70.33 33.811c-5.196 2.369-10.806 2.625-16.1.413-3.084-1.289-5.631-3.102-7.319-4.501-1.097.797-2.125 1.68-3.077 2.636 1.932 1.663 5.144 4.049 9.169 5.677 6.031 2.439 12.471 2.231 18.424-.339 3.606-1.557 6.562-3.689 8.626-5.452-.959-.952-1.998-1.826-3.102-2.616-1.693 1.387-3.954 2.966-6.621 4.182z"/><path id="XMLID_538_" d="m62.164 60.298c-3.323 0-6.629.782-9.687 2.06-3.686 1.541-6.632 3.618-8.458 5.1.97.954 2.022 1.827 3.138 2.617 1.548-1.196 3.76-2.677 6.42-3.844 5.35-2.348 11.06-2.492 16.487-.301 2.905 1.173 5.312 2.759 6.964 4.017 1.108-.8 2.147-1.686 3.108-2.647-1.907-1.526-5.037-3.698-8.956-5.22-2.865-1.113-5.938-1.782-9.016-1.782z"/><path id="XMLID_539_" d="m87.325 47.813h-50.65c-.053.661-.088 1.326-.088 2s.035 1.34.088 2h50.649c.053-.661.088-1.326.088-2 .001-.674-.034-1.339-.087-2z"/></g><path id="XMLID_509_" d="m67.937 4.908-4.543-4.361c-.788-.757-2.088-.722-2.839.066l-4.49 4.291c-.798.763-.827 2.029-.064 2.828.751.786 2.04.817 2.828.064l1.129-1.079-.108 12.35c-.01 1.105.878 2.008 1.982 2.018h.018c1.096 0 1.99-.884 1.999-1.983l.11-12.469 1.209 1.16c.784.753 2.074.726 2.828-.058.765-.797.738-2.063-.059-2.827z" fill="#454546"/><path id="XMLID_517_" d="m50.724 17.602-8.836-8.842 1.615-.019c1.104-.013 1.989-.92 1.976-2.024-.014-1.105-.951-1.978-2.024-1.976l-6.347.076c-1.1.013-2.008.965-1.977 2.064l-.09 6.164c-.016 1.105.866 2.013 1.971 2.029h.03c1.091 0 1.983-.877 2-1.971l.022-1.511 8.831 8.838c.768.769 2.06.769 2.828.001.782-.781.782-2.047.001-2.829z" fill="#454546"/><path id="XMLID_507_" d="m88.869 6.882c.032-1.1-.877-2.052-1.977-2.065l-6.347-.076c-.009 0-.017 0-.025 0-1.093 0-1.985.88-1.999 1.976-.013 1.105.871 2.011 1.976 2.024l1.615.019-8.836 8.842c-.78.781-.78 2.048.001 2.828.769.768 2.061.768 2.829-.001l8.831-8.837.022 1.51c.016 1.095.908 1.971 1.999 1.971h.03c1.104-.016 1.986-.925 1.971-2.029z" fill="#454546"/></svg>