<svg id="Layer_1" enable-background="new 0 0 124 124" height="512" viewBox="0 0 124 124" width="512" xmlns="http://www.w3.org/2000/svg"><path id="XMLID_467_" d="m87.812 25.934c0-.026.002-.052.002-.078 0-14.28-11.557-25.856-25.814-25.856s-25.814 11.576-25.814 25.856c0 .026.002.052.002.078-10.173.789-18.188 9.289-18.188 19.681 0 10.913 8.833 19.76 19.728 19.76h48.544c10.896 0 19.728-8.847 19.728-19.76 0-10.392-8.015-18.892-18.188-19.681z" fill="#30ade0"/><path id="XMLID_468_" d="m50.886 19.916c-1.63 0-2.569-1.926-1.589-3.213 3.007-3.944 7.569-6.206 12.518-6.206 4.621 0 8.991 2.023 11.989 5.55.716.842.613 2.104-.228 2.82-.843.715-2.104.613-2.819-.229-2.237-2.632-5.497-4.141-8.942-4.141-3.689 0-7.093 1.688-9.336 4.63-.394.517-.99.789-1.593.789z" fill="#fff"/><path id="XMLID_470_" d="m49.691 35.405h43.844v54.746h-43.844z" fill="#cacaca"/><path id="XMLID_474_" d="m40.078 45.158h43.844v54.746h-43.844z" fill="#f7f7f5"/><path id="XMLID_476_" d="m30.464 54.91h43.844v54.746h-43.844z" fill="#cacaca"/><path id="XMLID_565_" d="m58.099 116.475c-.77-.794-2.034-.815-2.828-.047l-.847.819.104-13.366c.009-1.105-.88-2.007-1.984-2.016-.006 0-.011 0-.016 0-1.098 0-1.991.885-2 1.985l-.104 13.473-.918-.892c-.792-.77-2.06-.752-2.828.041-.77.793-.751 2.059.041 2.828l4.266 4.143c.789.767 2.093.736 2.85-.061l4.218-4.079c.793-.768.813-2.034.046-2.828-.77-.794.767.794 0 0z" fill="#f16953"/></svg>