<svg id="Layer_1" enable-background="new 0 0 124 124" height="512" viewBox="0 0 124 124" width="512" xmlns="http://www.w3.org/2000/svg"><path id="XMLID_442_" d="m3 75.95v26.97c0 11.677 26.395 21.08 59 21.08s59-9.403 59-21.08v-26.97z" fill="#99cf6c"/><path id="XMLID_443_" d="m3 47.533v28.417c0 11.677 26.395 21.08 59 21.08s59-9.403 59-21.08v-28.417z" fill="#78af42"/><path id="XMLID_444_" d="m3 21.08v26.453c0 11.677 26.395 21.08 59 21.08s59-9.403 59-21.08v-26.453z" fill="#99cf6c"/><ellipse id="XMLID_445_" cx="62" cy="21.08" fill="#78af42" rx="59" ry="21.08"/><ellipse id="XMLID_449_" cx="62" cy="69.891" fill="#fff" rx="37.552" ry="37.407"/><path id="XMLID_453_" d="m72.923 63.838c-1.104 0-2-.896-2-2v-8.996c0-5.12-3.992-9.285-8.899-9.285s-8.899 4.166-8.899 9.285v8.996c0 1.104-.896 2-2 2s-2-.896-2-2v-8.996c0-7.326 5.787-13.285 12.899-13.285s12.899 5.959 12.899 13.285v8.996c0 1.105-.896 2-2 2z" fill="#cacaca"/><path id="XMLID_456_" d="m46.044 61.839v31.094h31.912v-31.094z" fill="#30ade0"/><path id="XMLID_457_" d="m62 81.841c-1.104 0-2-.896-2-2v-4.489c0-1.104.896-2 2-2s2 .896 2 2v4.489c0 1.104-.896 2-2 2z" fill="#fff"/></svg>