<svg id="Layer_1" enable-background="new 0 0 124 124" height="512" viewBox="0 0 124 124" width="512" xmlns="http://www.w3.org/2000/svg"><g fill="#454546"><path id="XMLID_412_" d="m54.259 60.985h-14.842l1.149-1.207c.762-.8.73-2.066-.07-2.827-.801-.763-2.066-.73-2.828.07l-4.354 4.575c-.75.789-.713 2.088.075 2.836l4.276 4.512c.747.789 2.037.825 2.827.076.802-.759.836-2.025.076-2.826l-1.147-1.21h14.838c1.104 0 2-.895 2-1.999s-.895-2-2-2z"/><path id="XMLID_1269_" d="m67.938 36.615-4.534-4.41c-.789-.767-2.096-.736-2.852.061l-4.488 4.346c-.793.768-.813 2.034-.045 2.827.756.78 2.048.8 2.828.045l1.116-1.081-.114 15.316c-.008 1.104.88 2.006 1.985 2.014h.015c1.097 0 1.991-.886 2-1.985l.115-15.419 1.184 1.151c.779.757 2.07.74 2.828-.039.771-.79.754-2.056-.038-2.826z"/><path id="XMLID_418_" d="m67.977 86.315c-.771-.792-2.037-.808-2.828-.039l-1.184 1.151-.115-15.419c-.008-1.099-.902-1.985-2-1.985-.005 0-.01 0-.015 0-1.105.008-1.994.91-1.985 2.014l.114 15.316-1.116-1.081c-.792-.768-2.059-.748-2.828.045s-.749 2.059.045 2.827l4.487 4.346c.755.796 2.064.829 2.853.062l4.534-4.41c.791-.77.808-2.036.038-2.827-.77-.792.77.791 0 0z"/><path id="XMLID_417_" d="m91.172 61.595-4.354-4.575c-.761-.8-2.027-.832-2.828-.07-.8.761-.832 2.027-.07 2.827l1.149 1.207h-13.654c-1.104 0-2 .895-2 1.999s.896 1.999 2 1.999h13.649l-1.147 1.21c-.76.802-.726 2.067.076 2.826.79.749 2.08.713 2.827-.076l4.276-4.512c.684-.646.739-2.137.076-2.835z"/></g><path id="XMLID_500_" d="m47.672 110.321v7.188c0 3.042 6.41 5.492 14.328 5.492s14.328-2.45 14.328-5.492v-7.188z" fill="#6c6b69"/><path id="XMLID_499_" d="m47.672 103.116v7.188c0 3.042 6.41 5.492 14.328 5.492s14.328-2.45 14.328-5.492v-7.188z" fill="#cfcfcf"/><ellipse id="XMLID_498_" cx="62" cy="103.116" fill="#6c6b69" rx="14.328" ry="5.492"/><path id="XMLID_424_" d="m47.672 13.679v8.017c0 2.042 6.41 4.492 14.328 4.492s14.328-2.45 14.328-4.492v-8.017z" fill="#f16953"/><path id="XMLID_427_" d="m47.672 6.492v7.188c0 3.042 6.41 5.492 14.328 5.492s14.328-2.45 14.328-5.492v-7.188z" fill="#f1735f"/><ellipse id="XMLID_428_" cx="62" cy="6.492" fill="#f16953" rx="14.328" ry="5.492"/><path id="XMLID_487_" d="m46.97 66.888v7.499c0 3.174 6.724 5.73 15.03 5.73s15.03-2.556 15.03-5.73v-7.499z" fill="#99cf6c"/><path id="XMLID_486_" d="m46.97 59.368v7.499c0 3.174 6.724 5.73 15.03 5.73s15.03-2.556 15.03-5.73v-7.499z" fill="#78af42"/><path id="XMLID_485_" d="m46.97 51.862v7.499c0 3.174 6.724 5.73 15.03 5.73s15.03-2.556 15.03-5.73v-7.499z" fill="#99cf6c"/><ellipse id="XMLID_484_" cx="62" cy="51.862" fill="#78af42" rx="15.03" ry="5.73"/><path id="XMLID_430_" d="m95.344 62.98v7.188c0 3.042 6.41 5.492 14.328 5.492s14.328-2.451 14.328-5.493v-7.187z" fill="#fdbe4a"/><path id="XMLID_431_" d="m95.344 55.837v7.188c0 3.042 6.41 5.492 14.328 5.492s14.328-2.451 14.328-5.492v-7.188z" fill="#ffd169"/><ellipse id="XMLID_432_" cx="109.672" cy="55.837" fill="#fdbe4a" rx="14.328" ry="5.492"/><path id="XMLID_434_" d="m0 62.984v7.188c0 3.042 6.41 5.492 14.328 5.492s14.328-2.45 14.328-5.492v-7.188z" fill="#30ade0"/><path id="XMLID_439_" d="m0 55.796v7.188c0 3.042 6.41 5.492 14.328 5.492s14.328-2.45 14.328-5.492v-7.188z" fill="#5ab8ec"/><ellipse id="XMLID_440_" cx="14.328" cy="55.796" fill="#30ade0" rx="14.328" ry="5.492"/></svg>