<svg id="Layer_1" enable-background="new 0 0 124 124" height="512" viewBox="0 0 124 124" width="512" xmlns="http://www.w3.org/2000/svg"><path id="XMLID_454_" d="m96.612 34.668c0-.035.003-.069.003-.104-.001-19.089-15.498-34.564-34.615-34.564s-34.614 15.475-34.614 34.563c0 .035.003.069.003.104-13.642 1.056-24.389 12.419-24.389 26.311 0 14.588 11.844 26.415 26.454 26.415h65.093c14.61 0 26.454-11.826 26.454-26.415-.001-13.892-10.748-25.255-24.389-26.31z" fill="#cacaca"/><path id="XMLID_397_" d="m47.099 25.949c-1.631 0-2.571-1.928-1.587-3.215 3.901-5.102 9.82-8.027 16.24-8.027 5.995 0 11.665 2.617 15.556 7.18.716.84.615 2.103-.225 2.819-.842.715-2.103.616-2.82-.225-3.129-3.67-7.688-5.775-12.511-5.775-5.164 0-9.924 2.354-13.062 6.457-.395.515-.99.786-1.591.786z" fill="#fff"/><path id="XMLID_460_" d="m99.085 91.736v-9.086l-9.316-1.574c-.722-3.291-2.022-6.295-3.828-9.086l5.489-7.583-6.5-6.439-7.655 5.437c-2.744-1.717-5.85-3.005-9.172-3.72l-1.589-9.229h-9.1l-1.589 9.229c-3.322.715-6.355 2.003-9.172 3.792l-7.655-5.437-6.5 6.439 5.489 7.583c-1.733 2.719-3.033 5.795-3.755 9.086l-9.316 1.574v9.086l9.316 1.574c.722 3.291 2.022 6.295 3.755 9.086l-5.489 7.583 6.5 6.439 7.655-5.437c2.744 1.717 5.85 3.005 9.172 3.72l1.589 9.227h9.172l1.589-9.229c3.322-.715 6.355-2.003 9.172-3.792l7.655 5.437 6.5-6.439-5.489-7.583c1.733-2.719 3.033-5.795 3.755-9.086z" fill="#f16953"/><ellipse id="XMLID_463_" cx="62.036" cy="87.229" fill="#fff" rx="15.383" ry="15.238"/></svg>