<svg id="Layer_1" enable-background="new 0 0 124 124" height="512" viewBox="0 0 124 124" width="512" xmlns="http://www.w3.org/2000/svg"><path id="XMLID_385_" d="m89.77 35.494c-.693-3.17-1.94-6.064-3.673-8.752l5.267-7.305-6.237-6.202-7.346 5.237c-2.634-1.654-5.614-2.894-8.802-3.583l-1.525-8.889h-8.732l-1.525 8.889c-3.188.689-6.099 1.93-8.802 3.652l-7.346-5.237-6.237 6.202 5.267 7.305c-1.663 2.619-2.911 5.582-3.604 8.752l-8.94 1.516v8.752l8.94 1.516c.693 3.17 1.941 6.064 3.604 8.752l-5.267 7.304 3.518 3.497 58.425-30.222zm-12.961 11.501-16.89 8.737c-6.593-1.469-11.524-7.313-11.524-14.313 0-8.106 6.609-14.678 14.762-14.678s14.762 6.572 14.762 14.678c0 1.976-.398 3.857-1.11 5.576z" fill="#30ade0"/><path id="XMLID_4027_" d="m55.143 77.236h13.973v40.764h-13.973z" fill="#fdbe4a"/><path id="XMLID_4028_" d="m30.31 91.719h13.973v26.281h-13.973z" fill="#e85aa0"/><path id="XMLID_4029_" d="m5.478 105.209h13.973v12.791h-13.973z" fill="#cacaca"/><path id="XMLID_4030_" d="m79.975 65.293h13.973v52.707h-13.973z" fill="#f16953"/><path id="XMLID_4031_" d="m104.807 51.278h13.973v66.722h-13.973z" fill="#78af42"/><path id="XMLID_1296_" d="m123.915 24.21c.316-1.013-.273-2.205-1.312-2.501l-7.406-2.322c-1.054-.331-2.177.256-2.507 1.31-.331 1.054.256 2.176 1.31 2.506l2.771.869-115.689 59.845c-.981.507-1.365 1.714-.857 2.695.5.967 1.727 1.357 2.695.857l115.756-59.879-.92 2.961c-.327 1.055.262 2.175 1.316 2.503 1.041.32 2.18-.276 2.504-1.317l2.335-7.515c.001-.003.002-.008.004-.012z" fill="#454546"/></svg>