<svg id="Layer_1" enable-background="new 0 0 124 124" height="512" viewBox="0 0 124 124" width="512" xmlns="http://www.w3.org/2000/svg"><path id="XMLID_393_" d="m91.46 27.749v-9.888c0-2.125-1.65-3.789-3.757-3.789h-46.097c-1.283 0-2.383-.647-3.116-1.663l-4.582-6.746c-.733-1.016-1.833-1.663-3.116-1.663h-27.31c-1.924 0-3.482 1.571-3.482 3.511v20.237h91.46z" fill="#30ade0"/><path id="XMLID_392_" d="m.046 27.749v51.187c0 2.102 1.741 3.748 3.757 3.748h83.853c2.108 0 3.757-1.737 3.757-3.748v-51.187z" fill="#cacaca"/><g fill="#f7f7f5"><path id="XMLID_371_" d="m43.936 57.216h-26.035c-1.104 0-2-.896-2-2s.896-2 2-2h26.034c1.104 0 2 .896 2 2s-.895 2-1.999 2z"/><path id="XMLID_372_" d="m73.559 57.216h-21.097c-1.104 0-2-.896-2-2s.896-2 2-2h21.097c1.104 0 2 .896 2 2s-.896 2-2 2z"/><path id="XMLID_374_" d="m43.936 71.004h-26.035c-1.104 0-2-.896-2-2s.896-2 2-2h26.034c1.104 0 2 .896 2 2s-.895 2-1.999 2z"/><path id="XMLID_375_" d="m73.559 71.004h-21.097c-1.104 0-2-.896-2-2s.896-2 2-2h21.097c1.104 0 2 .896 2 2s-.896 2-2 2z"/><path id="XMLID_377_" d="m43.936 43.427h-26.035c-1.104 0-2-.896-2-2s.896-2 2-2h26.034c1.104 0 2 .896 2 2s-.895 2-1.999 2z"/><path id="XMLID_378_" d="m73.559 43.427h-21.097c-1.104 0-2-.896-2-2s.896-2 2-2h21.097c1.104 0 2 .896 2 2s-.896 2-2 2z"/></g><path id="XMLID_380_" d="m124 91.482v-8.03l-8.186-1.391c-.635-2.909-1.777-5.564-3.363-8.03l4.823-6.703-5.711-5.691-6.727 4.806c-2.411-1.518-5.14-2.656-8.059-3.288l-1.396-8.157h-7.996l-1.396 8.157c-2.919.632-5.584 1.771-8.059 3.351l-6.728-4.806-5.711 5.691 4.823 6.703c-1.523 2.403-2.665 5.122-3.3 8.03l-8.186 1.391v8.03l8.186 1.391c.635 2.909 1.777 5.564 3.3 8.03l-4.823 6.703 5.711 5.691 6.727-4.806c2.411 1.518 5.14 2.656 8.059 3.288l1.396 8.158h8.059l1.396-8.157c2.919-.632 5.584-1.771 8.059-3.351l6.727 4.806 5.711-5.691-4.823-6.703c1.523-2.403 2.665-5.122 3.3-8.03z" fill="#f16953"/><ellipse id="XMLID_383_" cx="91.446" cy="87.499" fill="#fff" rx="13.517" ry="13.468"/></svg>