<svg id="Layer_1" enable-background="new 0 0 124 124" height="512" viewBox="0 0 124 124" width="512" xmlns="http://www.w3.org/2000/svg"><path id="XMLID_348_" d="m124 69.599v-15.319l-15.575-2.654c-1.207-5.549-3.381-10.615-6.399-15.319l9.176-12.786-10.867-10.856-12.798 9.167c-4.588-2.895-9.78-5.066-15.334-6.272l-2.657-15.56h-15.213l-2.656 15.56c-5.554 1.206-10.625 3.377-15.334 6.393l-12.798-9.167-10.867 10.856 9.176 12.786c-2.898 4.584-5.071 9.77-6.278 15.319l-15.576 2.654v15.319l15.575 2.654c1.207 5.549 3.381 10.615 6.278 15.319l-9.176 12.786 10.867 10.856 12.798-9.167c4.588 2.895 9.78 5.066 15.334 6.272l2.657 15.56h15.334l2.656-15.56c5.554-1.206 10.625-3.377 15.334-6.393l12.798 9.167 10.867-10.856-9.176-12.786c2.898-4.584 5.071-9.77 6.278-15.319z" fill="#cacaca"/><ellipse id="XMLID_350_" cx="62" cy="62.067" fill="#32b0e2" rx="34" ry="33.933"/><g fill="#f7f7f5"><path id="XMLID_352_" d="m64.319 28.222c-.458-.132-.921-.21-1.392-.221-.04-.001-.081-.001-.121-.001-.395 0-.782.058-1.166.144.121-.001.24-.009.361-.009.779 0 1.551.036 2.318.087z"/><path id="XMLID_354_" d="m54.584 47.28c-1.48-.301-2.912-.689-4.296-1.128-1.213 4.553-1.999 9.359-2.265 13.66h4.498c.271-4.398 1.033-8.696 2.063-12.532z"/><path id="XMLID_356_" d="m61.676 91.963c-.004 0-.01 0-.014 0-.441-.009-1.064-.366-1.719-1.04-1.588-1.633-3.212-4.853-4.546-8.931-1.513.302-2.975.686-4.368 1.134 1.523 4.743 3.498 8.687 5.697 10.948.773.795 1.572 1.394 2.39 1.795.952.081 1.912.131 2.884.131.676 0 1.346-.025 2.012-.064 3.515-1.62 6.437-6.757 8.519-13.066-1.411-.419-2.883-.774-4.402-1.042-2.063 6.077-4.64 10.136-6.453 10.135z"/><path id="XMLID_357_" d="m62.795 32.511c.01 0 .02 0 .03.001.425.01 1.019.387 1.628 1.034 1.554 1.651 3.127 4.953 4.396 9.148 1.497-.334 2.944-.756 4.326-1.24-1.44-4.782-3.328-8.747-5.454-11.005-1.076-1.143-2.216-1.884-3.401-2.226-.767-.052-1.539-.087-2.319-.087-.121 0-.24.008-.361.009-4.123.921-7.613 6.616-10.041 13.691 1.388.443 2.836.818 4.329 1.102 2.19-6.218 4.948-10.427 6.867-10.427z"/><path id="XMLID_358_" d="m52.426 64.323h-4.494c.097 4.849.782 9.869 1.884 14.456 1.406-.443 2.857-.833 4.348-1.143-.984-4.1-1.642-8.705-1.738-13.313z"/><path id="XMLID_359_" d="m71.509 59.812h4.495c-.098-4.712-.701-9.539-1.686-13.961-1.378.472-2.827.883-4.329 1.223.861 3.926 1.425 8.314 1.52 12.738z"/><path id="XMLID_360_" d="m69.421 77.482c1.504.283 2.964.639 4.369 1.055 1.186-4.689 1.933-9.693 2.158-14.214h-4.5c-.242 4.65-1 9.168-2.027 13.159z"/><path id="XMLID_361_" d="m83.643 35.897c-2.446 1.909-6.123 4.033-10.468 5.557-3.969 1.391-8.194 2.184-12.407 2.049-3.11-.112-6.208-.722-9.17-1.667-4.823-1.538-8.896-3.855-11.402-5.799-1.164.973-2.264 2.019-3.288 3.137 2.871 2.348 7.651 5.159 13.38 6.978 3.346 1.062 6.816 1.732 10.327 1.859 4.646.144 9.311-.655 13.703-2.16 5.555-1.904 9.995-4.686 12.627-6.831-1.031-1.112-2.132-2.158-3.302-3.123z"/><path id="XMLID_362_" d="m73.789 78.537c-3.745-1.11-7.661-1.759-11.571-1.759-4.207 0-8.395.738-12.402 2.001-5.143 1.622-9.62 4.02-12.677 6.424 1.043 1.116 2.156 2.164 3.34 3.131 2.443-1.787 6.147-3.793 10.55-5.208 3.604-1.159 7.399-1.837 11.189-1.837 3.488 0 6.973.589 10.313 1.58 4.703 1.396 8.69 3.479 11.216 5.277 1.174-.976 2.281-2.029 3.313-3.152-2.879-2.196-7.611-4.78-13.271-6.457z"/><path id="XMLID_363_" d="m95.917 59.812h-67.834c-.049.746-.083 1.497-.083 2.255 0 .759.034 1.509.083 2.255h67.834c.049-.745.083-1.496.083-2.255 0-.758-.034-1.509-.083-2.255z"/></g></svg>