<svg id="Layer_1" enable-background="new 0 0 124 124" height="512" viewBox="0 0 124 124" width="512" xmlns="http://www.w3.org/2000/svg"><g fill="#454546"><path id="XMLID_338_" d="m39.87 47.712c-5.56-4.021-10.305-7.288-15.205-10.671-4.921-3.398-10.009-6.912-15.608-10.962l2.918-2.827c5.564 4.024 10.06 7.111 14.963 10.497 4.918 3.396 9.075 6.238 14.67 10.285z"/><path id="XMLID_339_" d="m46.471 45.176h28.067v4h-28.067z"/><path id="XMLID_340_" d="m111.645 49.176-25.06-.04-.014-3.96h25.074z"/><path id="XMLID_341_" d="m115.662 26.608h4v14.539h-4z"/><path id="XMLID_342_" d="m86.538 45.077-2.452-3.176 27.269-21.95 1.198 4.172z"/><path id="XMLID_343_" d="m37.393 101.762-26.801-21.643 1.977-3.545 27.157 21.93z"/><path id="XMLID_344_" d="m12.139 72.851-2.708-2.984 30.549-21.647 3.236 2.609z"/></g><ellipse id="XMLID_4109_" cx="80.554" cy="47.176" fill="#e85aa0" rx="6.338" ry="6.353"/><ellipse id="XMLID_4110_" cx="117.662" cy="47.176" fill="#e85aa0" rx="6.338" ry="6.353"/><ellipse id="XMLID_4111_" cx="43.446" cy="103.647" fill="#e85aa0" rx="6.338" ry="6.353"/><ellipse id="XMLID_4112_" cx="6.338" cy="75.412" fill="#e85aa0" rx="6.338" ry="6.353"/><ellipse id="XMLID_4113_" cx="117.662" cy="20.578" fill="#e85aa0" rx="6.338" ry="6.353"/><ellipse id="XMLID_4106_" cx="6.338" cy="20.353" fill="#e85aa0" rx="6.338" ry="6.353"/><ellipse id="XMLID_4088_" cx="43.446" cy="20.353" fill="#997caa" rx="3.617" ry="3.652"/><ellipse id="XMLID_4089_" cx="80.554" cy="20.353" fill="#997caa" rx="3.617" ry="3.652"/><ellipse id="XMLID_4092_" cx="6.338" cy="47.176" fill="#997caa" rx="3.617" ry="3.652"/><ellipse id="XMLID_4093_" cx="43.446" cy="47.176" fill="#e85aa0" rx="3.617" ry="3.652"/><ellipse id="XMLID_4098_" cx="43.446" cy="75.412" fill="#997caa" rx="3.617" ry="3.652"/><ellipse id="XMLID_4100_" cx="117.662" cy="75.412" fill="#997caa" rx="3.617" ry="3.652"/><ellipse id="XMLID_4102_" cx="6.338" cy="103.647" fill="#997caa" rx="3.617" ry="3.652"/><ellipse id="XMLID_4104_" cx="80.554" cy="103.647" fill="#997caa" rx="3.617" ry="3.652"/><ellipse id="XMLID_4114_" cx="117.662" cy="103.647" fill="#e85aa0" rx="6.338" ry="6.353"/><ellipse id="XMLID_4115_" cx="80.554" cy="75.412" fill="#997caa" rx="5.272" ry="5.284"/></svg>