<svg id="Layer_1" enable-background="new 0 0 124 124" height="512" viewBox="0 0 124 124" width="512" xmlns="http://www.w3.org/2000/svg"><g fill="#454546"><path id="XMLID_323_" d="m18.557 57.122c-1.104 0-2-.896-2-2v-39.158c0-1.104.896-2 2-2h27.136c1.104 0 2 .896 2 2s-.896 2-2 2h-25.136v37.158c0 1.104-.895 2-2 2z"/><path id="XMLID_324_" d="m105.356 57.122c-1.104 0-2-.896-2-2v-37.158h-26.172c-1.104 0-2-.896-2-2s.896-2 2-2h28.173c1.104 0 2 .896 2 2v39.158c-.001 1.104-.896 2-2.001 2z"/><path id="XMLID_330_" d="m61.9 55.058c-.003 0-.007 0-.011 0-1.104-.006-1.995-.906-1.989-2.011l.1-18.227c.006-1.101.9-1.989 2-1.989h.011c1.104.006 1.995.906 1.989 2.011l-.101 18.228c-.005 1.1-.899 1.988-1.999 1.988z"/><path id="XMLID_331_" d="m18.557 99.63c-1.104 0-2-.896-2-2v-19.234c0-1.104.896-2 2-2s2 .896 2 2v19.234c0 1.104-.895 2-2 2z"/><path id="XMLID_332_" d="m48.408 113.443h-16.122c-1.104 0-2-.896-2-2s.896-2 2-2h16.122c1.104 0 2 .896 2 2s-.895 2-2 2z"/><path id="XMLID_333_" d="m62.341 98.601c-1.088 0-1.979-.872-1.999-1.963l-.296-16.145c-.021-1.104.858-2.016 1.963-2.036 1.08-.05 2.016.859 2.037 1.963l.296 16.145c.02 1.104-.859 2.016-1.963 2.036-.013 0-.025 0-.038 0z"/><path id="XMLID_334_" d="m93.911 113.443h-20.337c-1.104 0-2-.896-2-2s.896-2 2-2h20.337c1.104 0 2 .896 2 2s-.895 2-2 2z"/><path id="XMLID_335_" d="m105.71 100.667c-1.104 0-2-.896-2-2v-19.247c0-1.104.896-2 2-2s2 .896 2 2v19.247c0 1.105-.896 2-2 2z"/><path id="XMLID_336_" d="m50.481 69.626h-19.459c-1.104 0-2-.896-2-2s.896-2 2-2h19.458c1.104 0 2 .896 2 2s-.895 2-1.999 2z"/><path id="XMLID_337_" d="m91.714 70.483h-16.068c-1.104 0-2-.896-2-2s.896-2 2-2h16.067c1.104 0 2 .896 2 2s-.895 2-1.999 2z"/></g><ellipse id="XMLID_4118_" cx="62" cy="17.415" fill="#30ade0" rx="17.343" ry="17.415"/><path id="XMLID_4119_" d="m53.907 15.319 12.352-2.999c.64-.155 1.201.47 1.01 1.126l-3.687 12.661c-.191.656-.991.85-1.44.35l-8.665-9.662c-.448-.5-.21-1.32.43-1.476z" fill="#f7f7f5"/><path id="XMLID_4121_" d="m48.953 70.764c-2.203-7.236 1.852-14.895 9.058-17.107s14.833 1.86 17.036 9.096-1.852 14.895-9.058 17.107-14.833-1.86-17.036-9.096z" fill="#78af42"/><path id="XMLID_4122_" d="m68.413 66.546-8.021 5.015c-.416.26-.936-.063-.937-.581l-.016-10c-.001-.518.519-.843.935-.585l8.037 4.985c.416.258.417.906.002 1.166z" fill="#99cf6c"/><ellipse id="XMLID_4124_" cx="105.357" cy="66.758" fill="#6c6b69" rx="13.7" ry="13.643" transform="matrix(.026 -1 1 .026 35.881 170.343)"/><path id="XMLID_4125_" d="m99.062 64.932 9.752-2.108c.505-.109.934.398.771.913l-3.14 9.938c-.163.515-.794.651-1.137.246l-6.611-7.83c-.344-.406-.141-1.049.365-1.159z" fill="#cfcfcf"/><path id="XMLID_4127_" d="m9.339 76.778c-5.511-5.16-5.812-13.829-.673-19.363s13.772-5.836 19.282-.676 5.812 13.829.673 19.363c-5.139 5.533-13.772 5.836-19.282.676z" fill="#fdbe4a"/><path id="XMLID_4128_" d="m23.996 63.507-4.857 8.93c-.252.463-.883.464-1.136.002l-4.885-8.913c-.253-.462.061-1.04.566-1.041l9.742-.018c.506 0 .822.577.57 1.04z" fill="#ffd169"/><path id="XMLID_4130_" d="m48.953 114.302c-2.203-7.236 1.852-14.895 9.058-17.107s14.833 1.86 17.036 9.096-1.852 14.895-9.058 17.107-14.833-1.86-17.036-9.096z" fill="#e85aa0"/><path id="XMLID_4131_" d="m68.413 110.084-8.021 5.015c-.416.26-.936-.063-.937-.581l-.016-10c-.001-.518.519-.843.935-.585l8.037 4.985c.416.258.417.906.002 1.166z" fill="#fff"/><ellipse id="XMLID_4133_" cx="105.357" cy="110.296" fill="#cacaca" rx="13.7" ry="13.643" transform="matrix(.026 -1 1 .026 -7.642 212.749)"/><path id="XMLID_4134_" d="m99.062 108.47 9.752-2.108c.505-.109.934.398.771.913l-3.14 9.938c-.163.515-.794.651-1.137.246l-6.611-7.83c-.344-.406-.141-1.049.365-1.159z" fill="#f7f7f5"/><path id="XMLID_4136_" d="m9.339 120.316c-5.511-5.16-5.812-13.829-.673-19.363s13.772-5.836 19.282-.676 5.812 13.829.673 19.363c-5.139 5.533-13.772 5.836-19.282.676z" fill="#997caa"/><path id="XMLID_4137_" d="m24.117 107.442-4.965 8.07c-.257.418-.902.419-1.161.002l-4.994-8.054c-.259-.417.063-.94.579-.941l9.959-.016c.516-.001.84.52.582.939z" fill="#fff"/></svg>