<svg id="Layer_1" enable-background="new 0 0 124 124" height="512" viewBox="0 0 124 124" width="512" xmlns="http://www.w3.org/2000/svg"><g fill="#cacaca"><path id="XMLID_270_" d="m122 63.741h-21.307c-1.104 0-2-.896-2-2s.896-2 2-2h21.307c1.104 0 2 .896 2 2s-.896 2-2 2z"/><path id="XMLID_271_" d="m92.813 63.741h-24.359c-1.104 0-2-.896-2-2s.896-2 2-2h24.359c1.104 0 2 .896 2 2s-.895 2-2 2z"/><path id="XMLID_273_" d="m95.75 60.692c-1.104 0-2-.896-2-2v-11.5c0-1.104.896-2 2-2s2 .896 2 2v11.5c0 1.104-.896 2-2 2z"/><path id="XMLID_274_" d="m95.75 80.156c-1.104 0-2-.896-2-2v-11.979c0-1.104.896-2 2-2s2 .896 2 2v11.979c0 1.105-.896 2-2 2z"/></g><circle id="XMLID_4191_" cx="95.75" cy="61.521" fill="#30ade0" r="5.5"/><path id="XMLID_276_" d="m55.546 63.741h-21.842c-1.104 0-2-.896-2-2s.896-2 2-2h21.842c1.104 0 2 .896 2 2s-.896 2-2 2z" fill="#cacaca"/><path id="XMLID_277_" d="m24.654 63.741h-22.654c-1.104 0-2-.896-2-2s.896-2 2-2h22.654c1.104 0 2 .896 2 2s-.895 2-2 2z" fill="#cacaca"/><path id="XMLID_278_" d="m28.932 60.692c-1.104 0-2-.896-2-2v-11.5c0-1.104.896-2 2-2s2 .896 2 2v11.5c0 1.104-.896 2-2 2z" fill="#cacaca"/><path id="XMLID_279_" d="m28.932 79.446c-1.104 0-2-.896-2-2v-11.269c0-1.104.896-2 2-2s2 .896 2 2v11.269c0 1.104-.896 2-2 2z" fill="#cacaca"/><circle id="XMLID_4190_" cx="28.932" cy="61.521" fill="#e85aa0" r="5.5"/><path id="XMLID_733_" d="m6.444 77.244h44.976v14.487h-44.976z" fill="#6c6b69"/><path id="XMLID_283_" d="m32.712 82.488h11.535v4h-11.535z" fill="#cfcfcf"/><path id="XMLID_282_" d="m13.423 82.488h3.979v4h-3.979z" fill="#cfcfcf"/><path id="XMLID_284_" d="m21.759 82.488h4.076v4h-4.076z" fill="#cfcfcf"/><path id="XMLID_314_" d="m51.42 99.362h-44.976v14.487h6.433v7.151c0 1.104.896 2 2 2s2-.896 2-2v-7.151h24.11v7.151c0 1.104.896 2 2 2s2-.896 2-2v-7.151h6.433z" fill="#6c6b69"/><path id="XMLID_285_" d="m32.712 104.605h11.535v4h-11.535z" fill="#cfcfcf"/><path id="XMLID_286_" d="m13.423 104.605h3.979v4h-3.979z" fill="#cfcfcf"/><path id="XMLID_287_" d="m21.759 104.605h4.076v4h-4.076z" fill="#cfcfcf"/><path id="XMLID_547_" d="m73.262 77.244h44.976v14.487h-44.976z" fill="#454546"/><path id="XMLID_291_" d="m99.53 82.488h11.535v4h-11.535z" fill="#6a6967"/><path id="XMLID_292_" d="m80.241 82.488h3.979v4h-3.979z" fill="#6a6967"/><path id="XMLID_293_" d="m88.577 82.488h4.076v4h-4.076z" fill="#6a6967"/><path id="XMLID_289_" d="m118.238 99.362h-44.976v14.487h6.433v7.151c0 1.104.896 2 2 2s2-.896 2-2v-7.151h24.109v7.151c0 1.104.896 2 2 2s2-.896 2-2v-7.151h6.433v-14.487z" fill="#454546"/><path id="XMLID_296_" d="m99.53 104.605h11.535v4h-11.535z" fill="#6a6967"/><path id="XMLID_297_" d="m80.241 104.605h3.979v4h-3.979z" fill="#6a6967"/><path id="XMLID_298_" d="m88.577 104.605h4.076v4h-4.076z" fill="#6a6967"/><path id="XMLID_566_" d="m6.444 1h44.976v14.487h-44.976z" fill="#6c6b69"/><path id="XMLID_305_" d="m32.712 6.244h11.535v4h-11.535z" fill="#cfcfcf"/><path id="XMLID_304_" d="m13.423 6.244h3.979v4h-3.979z" fill="#cfcfcf"/><path id="XMLID_306_" d="m21.759 6.244h4.076v4h-4.076z" fill="#cfcfcf"/><path id="XMLID_987_" d="m51.42 23.117h-44.976v14.487h6.433v7.151c0 1.104.896 2 2 2s2-.896 2-2v-7.151h24.135c-.01.079-.024.157-.024.24v6.912c0 1.104.896 2 2 2s2-.896 2-2v-6.912c0-.082-.015-.16-.024-.24h6.457v-14.487z" fill="#6c6b69"/><path id="XMLID_307_" d="m32.712 28.361h11.535v4h-11.535z" fill="#cfcfcf"/><path id="XMLID_308_" d="m13.423 28.361h3.979v4h-3.979z" fill="#cfcfcf"/><path id="XMLID_312_" d="m21.759 28.361h4.076v4h-4.076z" fill="#cfcfcf"/><path id="XMLID_586_" d="m73.262 1.24h44.976v14.487h-44.976z" fill="#454546"/><path id="XMLID_316_" d="m99.53 6.483h11.535v4h-11.535z" fill="#6a6967"/><path id="XMLID_315_" d="m80.241 6.483h3.979v4h-3.979z" fill="#6a6967"/><path id="XMLID_317_" d="m88.577 6.483h4.076v4h-4.076z" fill="#6a6967"/><path id="XMLID_295_" d="m118.238 23.357h-44.976v14.487h6.433v7.151c0 1.104.896 2 2 2s2-.896 2-2v-7.151h24.109v7.151c0 1.104.896 2 2 2s2-.896 2-2v-7.151h6.433v-14.487z" fill="#454546"/><path id="XMLID_318_" d="m99.53 28.601h11.535v4h-11.535z" fill="#6a6967"/><path id="XMLID_319_" d="m80.241 28.601h3.979v4h-3.979z" fill="#6a6967"/><path id="XMLID_320_" d="m88.577 28.601h4.076v4h-4.076z" fill="#6a6967"/></svg>