<svg id="Layer_1" enable-background="new 0 0 120 120" height="512" viewBox="0 0 120 120" width="512" xmlns="http://www.w3.org/2000/svg"><path id="XMLID_245_" d="m60.014 113.665c-29.413 0-53.343-24.074-53.343-53.665s23.93-53.665 53.343-53.665 53.342 24.074 53.342 53.665-23.929 53.665-53.342 53.665zm0-103.33c-27.208 0-49.343 22.279-49.343 49.665s22.135 49.665 49.343 49.665 49.342-22.28 49.342-49.665-22.134-49.665-49.342-49.665z" fill="#f7f7f5"/><g fill="#cacaca"><path id="XMLID_4212_" d="m0 56.22h17.314v8.671h-17.314z"/><path id="XMLID_4213_" d="m14.354 19.555h17.314v8.671h-17.314z"/><path id="XMLID_4214_" d="m51.253 4h17.314v8.671h-17.314z"/><path id="XMLID_4215_" d="m102.686 56.22h17.314v8.671h-17.314z"/><path id="XMLID_4216_" d="m51.253 107.329h17.314v8.671h-17.314z"/><path id="XMLID_4217_" d="m87.228 19.555h17.314v8.671h-17.314z"/><path id="XMLID_4218_" d="m14.354 92.885h17.314v8.671h-17.314z"/><path id="XMLID_4219_" d="m87.228 92.885h17.314v8.671h-17.314z"/></g><ellipse id="XMLID_630_" cx="60" cy="60.034" fill="#30ade0" rx="31.831" ry="31.766"/><path id="XMLID_263_" d="m59.72 46.78c-.335 0-.673-.005-1.013-.016-9.765-.353-16.835-5.161-21.049-9.132l2.744-2.911c3.714 3.5 9.928 7.738 18.44 8.046 9.396.301 16.419-4.29 20.631-8.193l2.719 2.934c-4.611 4.272-12.204 9.272-22.472 9.272z" fill="#f7f7f5"/><path id="XMLID_265_" d="m40.562 85.595-2.653-2.995c4.474-3.96 11.974-8.682 22.296-8.682 10.772 0 18.458 5.306 22.08 8.469l-2.631 3.013c-3.909-3.413-10.456-7.481-19.449-7.481-9.069-.002-15.688 4.173-19.643 7.676z" fill="#f7f7f5"/><path id="XMLID_262_" d="m59.691 91.714c-.015 0-.029 0-.044 0-1.579-.003-3.109-.752-4.548-2.227-4.784-4.904-8.447-18.228-8.164-29.7.313-12.429 5.978-31.07 13.816-31.07.038 0 .075 0 .113.001 1.563.035 3.062.799 4.449 2.269 4.642 4.915 8.087 18.427 7.682 30.121-.401 12.803-5.654 30.604-13.304 30.606zm1.054-58.997c-3.366 0-9.463 13.359-9.812 27.169-.281 11.437 3.407 23.095 7.029 26.807.653.669 1.307 1.013 1.718 1.021h.014c3.19 0 8.87-12.92 9.304-26.738.405-11.694-3.081-23.525-6.592-27.243-.609-.646-1.188-1.006-1.632-1.016-.009 0-.019 0-.029 0z" fill="#f7f7f5"/><path id="XMLID_268_" d="m28.169 58.035h63.662v4h-63.662z" fill="#f7f7f5"/></svg>