<svg id="Layer_1" enable-background="new 0 0 124 124" height="512" viewBox="0 0 124 124" width="512" xmlns="http://www.w3.org/2000/svg"><path id="XMLID_246_" d="m26.889 33.385c-.232 0-.469-.041-.7-.127l-12.125-4.536c-1.035-.387-1.56-1.539-1.172-2.574.386-1.034 1.537-1.56 2.574-1.172l12.125 4.536c2.026.757 1.466 3.873-.702 3.873z" fill="#cacaca"/><path id="XMLID_247_" d="m113.309 75.888c-.36 0-.726-.098-1.054-.302l-20.295-12.623-17.836 4.888c-.452.123-.932.084-1.357-.108l-17.868-8.126c-.233-.106-.443-.255-.62-.441l-22.814-23.954c-.762-.8-.731-2.066.069-2.828.801-.762 2.066-.73 2.828.069l22.546 23.672 16.856 7.667 17.981-4.927c.537-.148 1.112-.064 1.585.23l21.037 13.083c1.736 1.08.838 3.702-1.134 3.699.102 0 .205.001.307 0-.077.001-.154.001-.231.001-.36 0 .669-.001 0 0z" fill="#cacaca"/><ellipse id="XMLID_4230_" cx="30.406" cy="31.384" fill="#e85aa0" rx="4.589" ry="4.605"/><ellipse id="XMLID_4223_" cx="10.845" cy="24.605" fill="#e85aa0" rx="4.589" ry="4.605"/><ellipse id="XMLID_4229_" cx="116.177" cy="74.817" fill="#997caa" rx="3.569" ry="3.581"/><ellipse id="XMLID_411_" cx="55.727" cy="57.796" fill="#997caa" rx="4.079" ry="4.093"/><ellipse id="XMLID_414_" cx="91.786" cy="61.807" fill="#997caa" rx="4.079" ry="4.093"/><path id="XMLID_254_" d="m2.539 58.582c-1.102 0-1.997-.892-2-1.994-.003-1.105.889-2.003 1.994-2.006l14.114-.036h.006c1.102 0 1.997.892 2 1.994.003 1.105-.889 2.003-1.994 2.006l-14.114.036c-.002 0-.004 0-.006 0z" fill="#cacaca"/><path id="XMLID_409_" d="" fill="none"/><g fill="#cacaca"><path id="XMLID_256_" d="m118.818 49.131c-.53 0-1.059-.209-1.452-.625-3.244-3.423-6.3-6.915-9.256-10.292-2.827-3.23-5.75-6.57-8.742-9.731-.759-.802-.724-2.068.078-2.827.803-.759 2.069-.724 2.827.078 3.044 3.218 5.994 6.587 8.846 9.846 2.931 3.348 5.96 6.81 9.149 10.176 1.179 1.242.271 3.375-1.45 3.375z"/><path id="XMLID_258_" d="m21.436 54.793c-2.05 0-2.735-2.852-.91-3.783l35.132-17.9c.362-.184.771-.255 1.174-.2l16.547 2.227c1.095.147 1.863 1.154 1.715 2.249-.147 1.095-1.155 1.867-2.249 1.715l-15.928-2.143-34.575 17.617c-.291.148-.601.218-.906.218z"/><path id="XMLID_259_" d="m74.777 38.081c-2.089 0-2.735-2.936-.844-3.814l19.873-9.231c1.003-.465 2.192-.03 2.657.971.465 1.002.03 2.191-.971 2.657l-19.873 9.231c-.273.126-.56.186-.842.186z"/></g><ellipse id="XMLID_4235_" cx="74.776" cy="36.08" fill="#e85aa0" rx="4.589" ry="4.605"/><ellipse id="XMLID_4239_" cx="119.921" cy="48.255" fill="#e85aa0" rx="4.079" ry="4.093"/><ellipse id="XMLID_4232_" cx="98.626" cy="24.7" fill="#e85aa0" rx="4.522" ry="4.512"/><ellipse id="XMLID_4237_" cx="18.784" cy="55.803" fill="#997caa" rx="5.099" ry="5.116"/><ellipse id="XMLID_4238_" cx="3.569" cy="56.971" fill="#997caa" rx="3.569" ry="3.581"/><path id="XMLID_4241_" d="m28.456 79.488v24.512l21.227-12.256z" fill="#5ab8ec"/><path id="XMLID_4242_" d="m60.337 83.154v17.18l13.258-8.59z" fill="#30ade0"/><path id="XMLID_4243_" d="m2.131 82.61v18.268l15.819-9.134z" fill="#87d8fb"/></svg>