<svg id="Layer_1" enable-background="new 0 0 124 124" height="512" viewBox="0 0 124 124" width="512" xmlns="http://www.w3.org/2000/svg"><path id="XMLID_516_" d="m0 0h124v124h-124z" fill="#cacaca"/><path id="XMLID_515_" d="m9.883 9.967h104.233v104.066h-104.233z" fill="#f7f7f5"/><path id="XMLID_4266_" d="m81.163 72.307 11.122-19.276 11.121 19.276z" fill="#78af42"/><path id="XMLID_4267_" d="m82.931 21.334h21.725v21.909h-21.725z" fill="#e6e6e6"/><path id="XMLID_1380_" d="m102.589 30.889h-7.623l1.513-1.345c.826-.734.9-1.998.166-2.823-.733-.827-1.999-.899-2.823-.166l-5.087 4.522c-1.377.637-1.792 2.661-.552 3.638l5.73 4.511c.854.672 2.137.519 2.809-.334.684-.868.534-2.125-.334-2.809l-1.516-1.194h7.719c1.104 0 2-.896 2-2s-.897-2-2.002-2z" fill="#cdcdcd"/><path id="XMLID_4271_" d="m90.437 101.842-5.432-3.979-2.074-6.439 2.074-6.439 5.432-3.979h6.713l5.432 3.979 2.074 6.439-2.074 6.439-5.432 3.979z" fill="#5ab8ec"/><path id="XMLID_4257_" d="m53.36 53.924h17.281v18.158h-17.281z" fill="#997caa"/><path id="XMLID_4259_" d="m62 23.574 2.818 6.092 6.617.82-4.875 4.586 1.271 6.599-5.831-3.258-5.831 3.258 1.271-6.599-4.875-4.586 6.617-.82z" fill="#fdbe4a"/><path id="XMLID_4270_" d="m61.954 102.666-10.771-10.954 10.863-10.862 10.771 10.954z" fill="#cacaca"/><ellipse id="XMLID_4258_" cx="31.09" cy="63.003" fill="#e85aa0" rx="10.863" ry="10.954"/><path id="XMLID_4260_" d="m25.265 42.891-5.826-10.012 5.826-10.013h11.651l5.825 10.013-5.825 10.012z" fill="#5ab8ec"/><g fill="#6c6b69"><path id="XMLID_250_" d="m34.386 83.866h4v5.103h-4z"/><path id="XMLID_251_" d="m23.794 83.866h4v5.103h-4z"/><path id="XMLID_252_" d="m34.386 94.547h4v5.103h-4z"/><path id="XMLID_253_" d="m23.794 94.547h4v5.103h-4z"/></g></svg>