<svg id="Layer_1" enable-background="new 0 0 124 124" height="512" viewBox="0 0 124 124" width="512" xmlns="http://www.w3.org/2000/svg"><path id="XMLID_654_" d="m2 54.48v18.917c0 8.327 18.841 15.033 42.115 15.033s42.115-6.706 42.115-15.033v-18.917z" fill="#87d8fb"/><path id="XMLID_653_" d="m2 34.804v19.676c0 8.327 18.841 15.033 42.115 15.033s42.115-6.706 42.115-15.033v-19.676z" fill="#30ade0"/><path id="XMLID_652_" d="m2 15.033v19.676c0 8.327 18.841 15.033 42.115 15.033s42.115-6.706 42.115-15.033v-19.676z" fill="#87d8fb"/><ellipse id="XMLID_651_" cx="44.115" cy="15.033" fill="#30ade0" rx="42.115" ry="15.033"/><path id="XMLID_243_" d="m93.383 98.019-7.327-7.331 2.783-2.874 7.406 7.409z" fill="#6a6967"/><ellipse id="XMLID_657_" cx="68.082" cy="70.395" fill="#cacaca" rx="27.064" ry="27.145"/><path id="XMLID_244_" d="m68.083 93.407c-12.641 0-22.926-10.323-22.926-23.012s10.285-23.012 22.926-23.012 22.925 10.323 22.925 23.012-10.284 23.012-22.925 23.012z" fill="#fff"/><path id="XMLID_656_" d="m94.473 103.723 18.661 18.717c2.073 2.08 5.347 2.08 7.312 0 2.073-2.08 2.073-5.363 0-7.334l-18.662-18.716c-1.964-1.97-5.238-2.08-7.312 0-1.964 1.97-2.073 5.363.001 7.333z" fill="#f16953"/></svg>