<svg id="Layer_1" enable-background="new 0 0 124 124" height="512" viewBox="0 0 124 124" width="512" xmlns="http://www.w3.org/2000/svg"><path id="XMLID_238_" d="m76.089 84.808h-74.089c-1.104 0-2-.896-2-2v-80.808c0-1.104.896-2 2-2s2 .896 2 2v78.808h72.089c1.104 0 2 .896 2 2s-.896 2-2 2z" fill="#cacaca"/><path id="XMLID_4412_" d="m11.806 60.515h12.005v15.973h-12.005z" fill="#cfcfcf"/><path id="XMLID_683_" d="m74.2 28.482h12.005v47.987h-12.005z" fill="#78af42"/><path id="XMLID_682_" d="m53.54 40.239h12.005v36.23h-12.005z" fill="#fdbe4a"/><path id="XMLID_4409_" d="m32.459 50.649h12.433v25.801h-12.433z" fill="#f16953"/><path id="XMLID_240_" d="m16.729 45.301c-1.747 0-2.642-2.186-1.414-3.414l12.325-12.329c.779-.781 2.047-.781 2.828 0s.781 2.047 0 2.829l-12.324 12.328c-.39.39-.903.586-1.415.586z" fill="#cfcfcf"/><path id="XMLID_241_" d="m48.16 31.616h-11.361c-1.104 0-2-.896-2-2s.896-2 2-2h11.361c1.104 0 2 .896 2 2s-.895 2-2 2z" fill="#cfcfcf"/><path id="XMLID_242_" d="m56.908 29.076c-1.766 0-2.65-2.227-1.386-3.442l10.824-10.408c.796-.764 2.062-.74 2.827.056.766.796.741 2.063-.056 2.828l-10.823 10.408c-.388.372-.887.558-1.386.558z" fill="#cfcfcf"/><g fill="#e85aa0"><circle id="XMLID_4408_" cx="13.293" cy="44.786" r="5.083"/><circle id="XMLID_4407_" cx="32.779" cy="30.325" r="5.083"/><circle id="XMLID_4406_" cx="52.609" cy="29.196" r="5.083"/><circle id="XMLID_4405_" cx="71.744" cy="14.241" r="5.083"/></g><path id="XMLID_239_" d="m98.25 100.836-6.647-6.667 2.778-2.878 6.73 6.75z" fill="#454546"/><ellipse id="XMLID_686_" cx="75.631" cy="75.78" fill="#6c6b69" rx="24.278" ry="24.418"/><path id="XMLID_406_" d="m75.631 96.132c-11.145 0-20.211-9.13-20.211-20.352s9.067-20.352 20.211-20.352 20.212 9.13 20.212 20.352-9.067 20.352-20.212 20.352z" fill="#fff"/><path id="XMLID_685_" d="m99.306 105.76 16.74 16.837c1.86 1.871 4.797 1.871 6.559 0 1.86-1.871 1.86-4.825 0-6.597l-16.74-16.837c-1.762-1.772-4.699-1.871-6.559 0-1.762 1.772-1.86 4.825 0 6.597z" fill="#30ade0"/></svg>