<svg id="Layer_1" enable-background="new 0 0 124 124" height="512" viewBox="0 0 124 124" width="512" xmlns="http://www.w3.org/2000/svg"><path id="XMLID_590_" d="m124 5.741c0-3.171-2.543-5.741-5.68-5.741h-112.64c-3.137 0-5.68 2.57-5.68 5.741v72.982h124z" fill="#454546"/><path id="XMLID_525_" d="m4.133 74.589v-68.848c0-.886.694-1.606 1.547-1.606h112.64c.853 0 1.547.721 1.547 1.606v68.848z" fill="#fff"/><path id="XMLID_1046_" d="m0 78.723v13.198c0 3.171 2.543 5.741 5.68 5.741h54.32v22.338h-22.23c-1.104 0-2 .896-2 2s.896 2 2 2h48.46c1.104 0 2-.896 2-2s-.896-2-2-2h-22.23v-22.337h54.32c3.137 0 5.68-2.57 5.68-5.741v-13.199z" fill="#cacaca"/><path id="XMLID_232_" d="m76.054 34.166c-1.675 0-2.603-2.038-1.516-3.304l14.322-16.663c.721-.837 1.982-.934 2.82-.213.838.72.933 1.982.213 2.82l-14.322 16.664c-.395.46-.955.696-1.517.696z" fill="#ffd169"/><path id="XMLID_233_" d="m71.77 34.902c-.384 0-.771-.11-1.113-.34l-17.134-11.51c-.917-.616-1.161-1.858-.545-2.775.615-.918 1.86-1.16 2.775-.545l17.134 11.51c.917.616 1.161 1.858.545 2.775-.386.575-1.019.885-1.662.885z" fill="#ffd169"/><path id="XMLID_234_" d="m35.564 34.3c-1.777 0-2.662-2.253-1.364-3.463l12.916-12.045c.808-.752 2.072-.709 2.827.099.753.808.709 2.074-.099 2.827l-12.915 12.045c-.386.359-.875.537-1.365.537z" fill="#ffd169"/><g fill="#fdbe4a"><circle id="XMLID_605_" cx="32.151" cy="33.705" r="5.167"/><circle id="XMLID_690_" cx="74.448" cy="35.579" r="5.167"/><circle id="XMLID_689_" cx="51.961" cy="18.782" r="5.167"/><path id="XMLID_688_" d="m86.681 12.692c0 1.661.738 3.138 1.938 4.061.923.738 2.031 1.107 3.23 1.107 2.861 0 5.169-2.307 5.169-5.168s-2.307-5.168-5.169-5.168c-2.861 0-5.168 2.308-5.168 5.168z"/></g><path id="XMLID_229_" d="m30.507 71.778c-1.104 0-2-.896-2-2v-25.52c0-1.104.896-2 2-2s2 .896 2 2v25.52c0 1.105-.896 2-2 2z" fill="#cacaca"/><path id="XMLID_235_" d="m51.738 71.778c-1.104 0-2-.896-2-2v-31.888c0-1.104.896-2 2-2s2 .896 2 2v31.889c0 1.104-.895 1.999-2 1.999z" fill="#e85aa0"/><path id="XMLID_236_" d="m72.97 71.778c-1.104 0-2-.896-2-2v-20.584c0-1.104.896-2 2-2s2 .896 2 2v20.584c0 1.105-.896 2-2 2z" fill="#f16953"/><path id="XMLID_237_" d="m94.2 71.778c-1.104 0-2-.896-2-2v-42.503c0-1.104.896-2 2-2s2 .896 2 2v42.503c0 1.105-.895 2-2 2z" fill="#78af42"/></svg>