<svg id="Layer_1" enable-background="new 0 0 124 124" height="512" viewBox="0 0 124 124" width="512" xmlns="http://www.w3.org/2000/svg"><path id="XMLID_978_" d="m52.724 104.283h-40.73c-6.644 0-11.994-5.375-11.994-12.05v-74.809-.607-4.768c0-6.674 5.35-12.049 11.995-12.049h40.73c6.644 0 11.995 5.374 11.995 12.049v80.271c-.087 6.588-5.437 11.963-11.996 11.963z" fill="#e6e6e6"/><path id="XMLID_269_" d="m64.719 12.049c0-6.675-5.35-12.049-11.995-12.049h-40.73c-6.644 0-11.994 5.374-11.994 12.049v4.768.607.867h64.719z" fill="#6c6b69"/><path id="XMLID_272_" d="m0 85.905v6.328c0 6.675 5.35 12.049 11.995 12.049h40.73c6.558 0 11.908-5.374 11.995-11.963v-6.415h-64.72z" fill="#6c6b69"/><circle id="XMLID_786_" cx="32.36" cy="95.181" fill="#cfcfcf" r="3.617"/><path id="XMLID_227_" d="m40.902 10.929h-17.086c-1.104 0-2-.896-2-2s.896-2 2-2h17.086c1.104 0 2 .896 2 2s-.895 2-2 2z" fill="#cfcfcf"/><path id="XMLID_1060_" d="m122.295 114.353-20.463-20.304c-1.655-1.642-4.152-2.079-6.254-1.177l-8.032-7.96-2.801 2.856 7.964 7.893c-.967 2.08-.668 4.677 1.105 6.344l20.463 20.304c2.274 2.256 5.864 2.256 8.018 0 2.273-2.257 2.273-5.819 0-7.956z" fill="#f16953"/><ellipse id="XMLID_821_" cx="64.927" cy="65.85" fill="#5ab8ec" rx="29.677" ry="29.447"/><path id="XMLID_817_" d="m46.327 64.713v9.395c0 3.993 8.321 7.208 18.6 7.208s18.6-3.215 18.6-7.208v-9.395z" fill="#cacaca"/><path id="XMLID_812_" d="m46.327 55.279v9.434c0 3.993 8.321 7.208 18.6 7.208s18.6-3.215 18.6-7.208v-9.434z" fill="#f7f7f5"/><ellipse id="XMLID_811_" cx="64.927" cy="55.279" fill="#cacaca" rx="18.6" ry="7.208"/></svg>