<svg id="Layer_1" enable-background="new 0 0 124 124" height="512" viewBox="0 0 124 124" width="512" xmlns="http://www.w3.org/2000/svg"><path id="XMLID_834_" d="m112.841 124h-31.101c-5.074 0-9.159-4.207-9.159-9.431v-62.762c0-5.224 4.085-9.431 9.159-9.431h31.101c5.074 0 9.159 4.207 9.159 9.431v62.829c-.066 5.157-4.151 9.364-9.159 9.364z" fill="#f7f7f5"/><path id="XMLID_578_" d="m72.582 114.569c0 5.225 4.085 9.431 9.159 9.431h31.101c5.008 0 9.093-4.207 9.159-9.363v-5.021h-49.419z" fill="#6c6b69"/><path id="XMLID_594_" d="m122 51.807c0-5.224-4.085-9.431-9.159-9.431h-31.101c-5.074 0-9.159 4.207-9.159 9.431v4.885h49.419z" fill="#6c6b69"/><path id="XMLID_838_" d="m115.004 85.468v-4.596l-4.45-.796c-.345-1.665-.966-3.185-1.828-4.596l2.622-3.836-3.105-3.257-3.657 2.751c-1.311-.869-2.794-1.52-4.381-1.882l-.759-4.669h-4.346l-.759 4.669c-1.587.362-3.036 1.013-4.381 1.918l-3.657-2.751-3.105 3.257 2.622 3.836c-.828 1.375-1.449 2.932-1.794 4.596l-4.45.796v4.596l4.45.796c.345 1.665.966 3.185 1.794 4.596l-2.622 3.836 3.105 3.257 3.657-2.751c1.311.869 2.794 1.52 4.381 1.882l.759 4.669h4.381l.759-4.669c1.587-.362 3.036-1.013 4.381-1.918l3.657 2.751 3.105-3.257-2.622-3.836c.828-1.375 1.449-2.932 1.794-4.596z" fill="#fdbe4a"/><ellipse id="XMLID_837_" cx="97.308" cy="83.188" fill="#fff" rx="6.57" ry="6.607"/><path id="XMLID_1088_" d="m101.421 26.756c-.806-.756-2.073-.714-2.827.093l-2.69 2.872v-16.436c0-1.104-.896-2-2-2h-32.649c-1.104 0-2 .896-2 2s.896 2 2 2h30.649v14.275l-2.522-2.707c-.753-.809-2.019-.852-2.827-.101-.808.753-.853 2.019-.1 2.827l5.746 6.167c.685 1.124 2.331 1.289 3.228.332l6.084-6.495c.756-.806.715-2.071-.092-2.827z" fill="#454546"/><ellipse id="XMLID_561_" cx="29.289" cy="26.27" fill="#30ade0" rx="27.289" ry="26.27"/><g fill="#f7f7f5"><path id="XMLID_222_" d="m29.047 15.655c-.289 0-.58-.005-.873-.014-8.445-.295-14.563-4.308-18.208-7.623l2.69-2.959c3.151 2.864 8.424 6.332 15.649 6.584 8.003.255 13.937-3.513 17.513-6.708l2.665 2.982c-3.989 3.566-10.556 7.738-19.436 7.738z"/><path id="XMLID_223_" d="m12.786 47.689-2.598-3.041c3.87-3.305 10.355-7.244 19.277-7.244 9.31 0 15.957 4.427 19.091 7.065l-2.576 3.061c-3.319-2.795-8.878-6.126-16.515-6.126-7.702 0-13.321 3.418-16.679 6.285z"/><path id="XMLID_219_" d="m29.024 52.814c-.013 0-.025 0-.038 0-1.468-.003-2.882-.693-4.205-2.05-4.158-4.266-7.223-15.119-6.979-24.71.272-10.413 5.245-26.03 12.133-26.03.034 0 .067.001.101.001 1.454.032 2.837.733 4.113 2.085 4.034 4.273 6.918 15.282 6.566 25.063-.348 10.725-4.963 25.64-11.691 25.641zm.905-48.79c-2.5 0-7.815 10.188-8.127 22.134-.235 9.221 2.832 18.725 5.844 21.814.525.539 1.029.844 1.373.842h.011c2.63.001 7.323-10.524 7.689-21.779.339-9.438-2.559-19.087-5.478-22.179-.492-.521-.963-.824-1.292-.831-.007-.001-.014-.001-.02-.001z"/><path id="XMLID_226_" d="m2 24.27h54.579v4h-54.579z"/></g></svg>