<svg id="Layer_1" enable-background="new 0 0 124 124" height="512" viewBox="0 0 124 124" width="512" xmlns="http://www.w3.org/2000/svg"><path id="XMLID_210_" d="m72.389 80.644c-1.621 0-2.564-1.908-1.6-3.197l15.391-20.587c.66-.885 1.913-1.066 2.799-.404.885.661 1.066 1.914.404 2.799l-15.391 20.586c-.392.525-.994.803-1.603.803z" fill="#cacaca"/><path id="XMLID_211_" d="m70.662 82.636c-.412 0-.828-.127-1.185-.391l-22.1-16.294c-.889-.655-1.078-1.907-.423-2.796.656-.891 1.908-1.079 2.797-.423l22.099 16.294c1.518 1.118.698 3.61-1.188 3.61z" fill="#cacaca"/><path id="XMLID_212_" d="m27.021 79.149c-1.89 0-2.707-2.501-1.181-3.615l19.24-14.045c.891-.651 2.143-.457 2.794.436s.456 2.144-.436 2.795l-19.24 14.045c-.355.259-.768.384-1.177.384z" fill="#cacaca"/><g fill="#997caa"><ellipse id="XMLID_701_" cx="70.664" cy="80.636" rx="4.575" ry="4.541"/><ellipse id="XMLID_681_" cx="46.498" cy="62.776" rx="4.575" ry="4.541"/><ellipse id="XMLID_672_" cx="25.209" cy="78.644" rx="4.575" ry="4.541"/><path id="XMLID_676_" d="m84.789 56.301c0 1.459.654 2.757 1.716 3.568.817.649 1.797.973 2.859.973 2.533 0 4.575-2.027 4.575-4.541s-2.042-4.541-4.575-4.541c-2.533.001-4.575 2.028-4.575 4.541z"/></g><path id="XMLID_209_" d="m23.443 119c-1.104 0-2-.896-2-2v-27.135c0-1.104.896-2 2-2s2 .896 2 2v27.135c0 1.105-.896 2-2 2z" fill="#6c6b69"/><path id="XMLID_213_" d="m46.259 119c-1.104 0-2-.896-2-2v-33.907c0-1.104.896-2 2-2s2 .896 2 2v33.907c0 1.105-.896 2-2 2z" fill="#fdbe4a"/><path id="XMLID_214_" d="m69.075 119c-1.104 0-2-.896-2-2v-27.135c0-1.104.896-2 2-2s2 .896 2 2v27.135c0 1.105-.895 2-2 2z" fill="#f16953"/><path id="XMLID_215_" d="m91.891 119c-1.104 0-2-.896-2-2v-45.193c0-1.104.896-2 2-2s2 .896 2 2v45.193c0 1.105-.896 2-2 2z" fill="#78af42"/><path id="XMLID_770_" d="m15.678 31.483h4.245c8.659 0 15.678 6.752 15.678 15.081v11.494h-.025-35.576l.214-12.047c.137-8.27 7.376-14.533 15.464-14.528z" fill="#cacaca"/><ellipse id="XMLID_769_" cx="17.788" cy="15.557" fill="#fdbe4a" rx="10.67" ry="10.557"/><path id="XMLID_1087_" d="m123.574 37.139-8.231-10.507c-.779-.997-2.363-1.003-3.145-.005l-8.288 10.507c-.684.867-.535 2.124.332 2.809.853.673 2.137.521 2.809-.332l4.718-5.981v83.37c0 1.104.896 2 2 2s2-.896 2-2v-83.339l4.657 5.945c.669.855 1.952 1.012 2.808.341.869-.681 1.022-1.939.34-2.808z" fill="#cdcdcd"/></svg>