<svg id="Layer_1" enable-background="new 0 0 123 123" height="512" viewBox="0 0 123 123" width="512" xmlns="http://www.w3.org/2000/svg"><path id="XMLID_956_" d="m109.443 2.5h-45.958c-7.583 0-13.557 6.247-13.557 13.651v90.698c0 7.635 6.204 13.651 13.557 13.651h45.957c7.353 0 13.557-6.247 13.557-13.651v-90.698c.001-7.635-6.203-13.651-13.556-13.651z" fill="#cacaca"/><path id="XMLID_745_" d="m49.928 106.849c0 7.635 6.204 13.651 13.557 13.651h45.957c7.353 0 13.557-6.247 13.557-13.651v-7.173h-73.071z" fill="#6c6b69"/><path id="XMLID_748_" d="m123 16.151c0-7.635-6.204-13.651-13.557-13.651h-45.958c-7.583 0-13.557 6.247-13.557 13.651v7.173h73.072z" fill="#6c6b69"/><path id="XMLID_1101_" d="m96.373 64.531c-.803-.756-2.069-.72-2.827.087l-3.115 3.311v-21.072c0-1.104-.896-2-2-2h-36.73c-1.104 0-2 .896-2 2s.896 2 2 2h34.729v18.902l-2.936-3.137c-.755-.807-2.021-.85-2.826-.094-.807.754-.849 2.02-.094 2.826l6.148 6.569c.678 1.128 2.337 1.304 3.235.345l6.502-6.91c.758-.803.719-2.069-.086-2.827-.803-.756.805.758 0 0z" fill="#fff"/><path id="XMLID_181_" d="m101.108 83.753h-27.152c-1.104 0-2-.896-2-2s.896-2 2-2h27.152c1.104 0 2 .896 2 2s-.895 2-2 2z" fill="#fff"/><path id="XMLID_961_" d="m21.414 92.2 10.16 10.172c4.3 4.305 16.864-1.341 28.108-12.598s16.883-23.837 12.583-28.142l-10.161-10.172z" fill="#99cf6c"/><path id="XMLID_960_" d="m11.482 82.257 10.16 10.172c4.3 4.305 16.864-1.341 28.108-12.598s16.883-23.837 12.583-28.142l-10.16-10.172z" fill="#78af42"/><path id="XMLID_959_" d="m1.018 71.78 10.16 10.172c4.3 4.305 16.864-1.341 28.108-12.598s16.883-23.837 12.583-28.142l-10.161-10.172z" fill="#99cf6c"/><path id="XMLID_958_" d="m14.019 44.057c11.236-11.25 23.821-16.89 28.108-12.598s-1.346 16.892-12.583 28.142-23.82 16.89-28.108 12.598c-4.287-4.292 1.347-16.892 12.583-28.142z" fill="#78af42"/></svg>