<svg id="Layer_1" enable-background="new 0 0 124 124" height="512" viewBox="0 0 124 124" width="512" xmlns="http://www.w3.org/2000/svg"><path id="XMLID_775_" d="m106.72 82.452c-10.835-7.497-21.67-14.995-32.505-22.493-1.937-1.34-4.575-1.392-6.571-.128-.885.56-49.844 31.563-50.171 31.769-3.166 2.005-3.319 6.292-.302 8.486 10.445 7.598 20.891 15.197 31.336 22.795 1.931 1.404 4.615 1.495 6.65.224.855-.534 50.935-31.817 51.341-32.071 3.24-2.024 3.354-6.415.222-8.582z" fill="#30ade0"/><path id="XMLID_848_" d="m17.473 91.6c-3.166 2.005-3.319 6.291-.302 8.486 10.445 7.598 20.89 15.197 31.336 22.795 1.931 1.404 4.615 1.495 6.65.224.206-.129 3.285-2.052 7.837-4.895l-39.273-30.566c-3.75 2.374-6.176 3.911-6.248 3.956z" fill="#6c6b69"/><path id="XMLID_849_" d="m106.721 82.452c-10.836-7.497-21.671-14.995-32.506-22.493-1.937-1.34-4.575-1.392-6.571-.128-.226.143-3.591 2.274-8.477 5.368l41.315 29.594c3.607-2.254 5.93-3.705 6.016-3.758 3.24-2.025 3.354-6.416.223-8.583z" fill="#6c6b69"/><path id="XMLID_191_" d="m70.192 98.002c-.776-.787-2.041-.797-2.828-.021l-3.456 3.404v-49.176c0-1.104-.896-2-2-2s-2 .896-2 2v49.013l-3.269-3.237c-.784-.778-2.052-.772-2.828.014-.777.784-.771 2.051.014 2.828l6.749 6.685c.761.756 2.047.756 2.811.004l6.786-6.685c.787-.776.797-2.042.021-2.829s.776.787 0 0z" fill="#454546"/><path id="XMLID_184_" d="m52.14 87.215c-.788-.772-2.055-.76-2.828.029l-2.54 2.592v-43.957c0-1.104-.896-2-2-2s-2 .896-2 2v43.807l-2.376-2.438c-.772-.791-2.036-.808-2.829-.037-.79.771-.807 2.038-.036 2.828l5.873 6.025c.761.786 2.098.788 2.861.004l5.904-6.025c.772-.788.76-2.055-.029-2.828z" fill="#454546"/><path id="XMLID_1120_" d="m85.457 89.026c-.808-.752-2.074-.709-2.827.099l-1.549 1.661v-45.075c0-1.104-.896-2-2-2s-2 .896-2 2v44.939l-1.41-1.521c-.753-.811-2.016-.856-2.827-.106-.81.751-.857 2.017-.106 2.827l4.931 5.317c.77.829 2.158.832 2.93.004l4.958-5.317c.752-.809.708-2.075-.1-2.828-.808-.752.808.753 0 0z" fill="#454546"/><ellipse id="XMLID_855_" cx="62" cy="26.105" fill="#78af42" rx="27.109" ry="26.105"/><g fill="#f7f7f5"><path id="XMLID_194_" d="m53.585 10.052c1.211.462 2.515.841 3.909 1.106 1.743-4.536 3.857-7.492 5.142-7.492.007 0 .013 0 .019.001.316.007.773.302 1.252.81 1.165 1.234 2.322 3.534 3.275 6.444 1.35-.324 2.617-.752 3.796-1.255-1.113-3.393-2.541-6.22-4.161-7.936-.689-.729-1.41-1.26-2.157-1.604-.876-.082-1.763-.126-2.66-.126-.397 0-.791.013-1.184.029-2.966 1.179-5.45 5.141-7.231 10.023z"/><path id="XMLID_195_" d="m56.235 14.988c-1.363-.286-2.651-.664-3.858-1.112-.916 3.391-1.508 6.968-1.721 10.228h4.005c.219-3.244.801-6.348 1.574-9.116z"/><path id="XMLID_196_" d="m54.589 28.104h-4c.104 3.677.646 7.433 1.513 10.864 1.201-.449 2.478-.838 3.836-1.137-.746-2.986-1.247-6.335-1.349-9.727z"/><path id="XMLID_197_" d="m68.239 14.789c.639 2.871 1.055 6.067 1.133 9.315h4c-.082-3.578-.55-7.211-1.316-10.543-1.196.485-2.471.9-3.817 1.228z"/><path id="XMLID_198_" d="m67.688 37.701c1.373.27 2.67.622 3.876 1.039.934-3.501 1.534-7.232 1.74-10.635h-4.008c-.216 3.367-.813 6.665-1.608 9.596z"/><path id="XMLID_199_" d="m70.378 42.543c-1.214-.424-2.516-.774-3.91-1.016-1.563 4.213-3.428 7.017-4.727 7.016-.003 0-.007 0-.01 0-.336.008-.819-.294-1.331-.82-1.156-1.185-2.317-3.331-3.298-6.044-1.37.285-2.653.67-3.842 1.129 1.164 3.282 2.632 6.021 4.276 7.707.714.732 1.456 1.261 2.218 1.597.741.059 1.489.096 2.245.096.526 0 1.048-.018 1.567-.047 2.789-1.171 5.12-4.938 6.812-9.618z"/><path id="XMLID_200_" d="m78.138 5.13c-1.821 1.589-4.221 3.282-7.161 4.536-3.133 1.336-6.548 1.995-9.954 1.892-2.537-.088-5.065-.602-7.437-1.506-3.328-1.268-5.958-3.131-7.861-4.823-1.09.79-2.114 1.659-3.068 2.594.046.052.087.107.139.155 2.254 2.051 5.46 4.369 9.582 5.899 2.723 1.011 5.613 1.578 8.515 1.679.293.009.582.014.87.014 3.518 0 7.034-.688 10.295-2.008 3.778-1.529 6.801-3.701 9.02-5.685.058-.052.104-.112.154-.169-.963-.932-1.996-1.793-3.094-2.578z"/><path id="XMLID_202_" d="m81.147 44.182c-1.925-1.622-5.188-3.921-9.583-5.442-3.008-1.041-6.207-1.583-9.39-1.583-3.435 0-6.854.608-10.072 1.811-3.852 1.441-6.893 3.517-9.086 5.39-.072.061-.13.131-.191.2.967.932 2.009 1.79 3.112 2.573 1.83-1.516 4.275-3.147 7.322-4.322 2.835-1.094 5.877-1.652 8.915-1.652 2.787 0 5.572.467 8.203 1.386 3.315 1.158 5.953 2.866 7.886 4.446 1.095-.792 2.123-1.665 3.081-2.604-.061-.07-.123-.141-.197-.203z"/><path id="XMLID_203_" d="m89.022 24.104h-54.044c-.052.661-.087 1.326-.087 2s.035 1.339.087 2h54.043c.052-.661.087-1.326.087-2 .001-.673-.034-1.339-.086-2z"/></g></svg>