<svg id="Layer_1" enable-background="new 0 0 124 124" height="512" viewBox="0 0 124 124" width="512" xmlns="http://www.w3.org/2000/svg"><path id="XMLID_366_" d="m116.951 34.163c-18.828-5.087-37.655-10.175-56.483-15.262-3.365-.909-6.936.421-8.891 3.312-.867 1.282-48.845 72.212-49.165 72.685-3.103 4.587-.856 10.873 4.447 12.444 18.362 5.44 36.723 10.88 55.085 16.321 3.394 1.005 7.048-.293 9.052-3.215.842-1.228 50.163-73.161 50.563-73.745 3.191-4.653.833-11.07-4.608-12.54z" fill="#e6e6e6"/><path id="XMLID_177_" d="m2.412 94.898c-3.103 4.587-.856 10.873 4.447 12.445 18.362 5.44 36.723 10.88 55.085 16.321 3.394 1.005 7.048-.293 9.052-3.215.842-1.228 4.621-6.74 5.669-8.268l-70.899-22.242c-.798 1.18-3.034 4.486-3.354 4.959z" fill="#6c6b69"/><path id="XMLID_178_" d="m121.559 46.704c3.191-4.654.834-11.071-4.607-12.541-18.828-5.087-37.655-10.175-56.483-15.262-3.365-.909-6.936.421-8.891 3.312-.867 1.282-3.62 5.351-4.129 6.104l70.201 24.089c.902-1.318 3.509-5.119 3.909-5.702z" fill="#6c6b69"/><path id="XMLID_4304_" d="m91.649 24.502h11.246v40.177h-11.246z" fill="#30ade0"/><path id="XMLID_4305_" d="m71.601 13.504h11.246v51.174h-11.246z" fill="#fdbe4a" transform="matrix(-1 0 0 -1 154.448 78.183)"/><path id="XMLID_4306_" d="m51.553 0h11.246v64.679h-11.246z" fill="#78af42" transform="matrix(-1 0 0 -1 114.352 64.679)"/><path id="XMLID_4307_" d="m31.504 35.309h11.246v29.37h-11.246z" fill="#f16953" transform="matrix(-1 0 0 -1 74.255 99.988)"/></svg>