<svg id="Layer_1" enable-background="new 0 0 124 124" height="512" viewBox="0 0 124 124" width="512" xmlns="http://www.w3.org/2000/svg"><path id="XMLID_873_" d="m111.478 77.922c-11.988-8.315-23.976-16.631-35.964-24.946-2.143-1.486-5.062-1.543-7.27-.142-.979.621-55.147 35.004-55.508 35.233-3.503 2.223-3.672 6.978-.334 9.411 11.557 8.427 23.113 16.854 34.669 25.281 2.136 1.557 5.106 1.657 7.357.248.946-.592 56.354-35.287 56.803-35.568 3.585-2.244 3.711-7.114.247-9.517z" fill="#e6e6e6"/><path id="XMLID_1232_" d="m12.736 88.068c-3.503 2.223-3.672 6.978-.334 9.411 11.557 8.427 23.113 16.854 34.669 25.281 2.136 1.557 5.106 1.657 7.357.248.209-.131 3.068-1.921 7.401-4.634l-44.273-33.366c-2.935 1.863-4.755 3.018-4.82 3.06z" fill="#6c6b69"/><path id="XMLID_1256_" d="m111.478 77.922c-11.988-8.315-23.976-16.631-35.964-24.946-2.143-1.486-5.062-1.543-7.27-.142-.184.117-2.259 1.434-5.504 3.494l44.073 33.879c2.691-1.685 4.343-2.719 4.419-2.767 3.584-2.245 3.71-7.115.246-9.518z" fill="#6c6b69"/><path id="XMLID_160_" d="m62.25 106.544c-7.993 0-14.021-3.306-14.021-7.689 0-2.692 2.223-5.033 6.099-6.422 1.041-.372 2.185.169 2.558 1.208.373 1.04-.168 2.185-1.208 2.558-2.369.849-3.448 1.972-3.448 2.656 0 1.252 3.537 3.689 10.021 3.689s10.021-2.438 10.021-3.689c0-.776-1.343-1.991-3.909-2.812-1.052-.337-1.632-1.462-1.296-2.515.336-1.052 1.464-1.629 2.514-1.296 4.252 1.359 6.691 3.773 6.691 6.622 0 4.384-6.028 7.69-14.022 7.69z" fill="#fff"/><g fill="#454546"><path id="XMLID_172_" d="m68.141 84.558c-.808-.754-2.074-.709-2.827.1l-1.064 1.142v-42.01c0-1.104-.896-2-2-2s-2 .896-2 2v42.03l-1.092-1.166c-.754-.808-2.021-.848-2.827-.093-.806.756-.848 2.021-.092 2.827l4.552 4.858c.773.831 2.151.824 2.923-.004l4.527-4.858c.753-.808.708-2.073-.1-2.826-.808-.754.808.753 0 0z"/><path id="XMLID_555_" d="m51.296 41.789c-1.104 0-2 .896-2 2v43.379h-9.212l1.268-1.3c.771-.79.756-2.057-.035-2.828-.791-.77-2.057-.757-2.829.035l-4.632 4.747c-.739.759-.742 2.028-.004 2.789l4.632 4.774c.757.78 2.048.799 2.828.043.793-.77.812-2.035.043-2.828l-1.39-1.433h11.33c1.104 0 2-.896 2-2v-45.378c.001-1.104-.894-2-1.999-2z"/><path id="XMLID_168_" d="m91.067 87.822-4.632-4.747c-.772-.792-2.037-.805-2.829-.035-.791.771-.806 2.038-.035 2.828l1.268 1.3h-9.213v-43.379c0-1.104-.896-2-2-2s-2 .896-2 2v45.379c0 1.104.896 2 2 2h11.33l-1.39 1.433c-.769.793-.75 2.059.043 2.828.78.756 2.071.737 2.828-.043l4.632-4.774c.658-.829.79-1.977-.002-2.79z"/></g><path id="XMLID_789_" d="m79.902 17.326c0-.017.001-.035.001-.052 0-9.54-8.015-17.274-17.903-17.274s-17.903 7.734-17.903 17.274c0 .017.001.035.001.052-7.056.527-12.614 6.206-12.614 13.149 0 7.291 6.126 13.201 13.682 13.201h33.667c7.557 0 13.682-5.91 13.682-13.201.001-6.943-5.557-12.622-12.613-13.149z" fill="#30ade0"/><path id="XMLID_174_" d="m54.292 13.969c-1.647 0-2.581-1.96-1.567-3.241 2.201-2.782 5.535-4.378 9.146-4.378 3.372 0 6.564 1.427 8.758 3.914.73.829.651 2.093-.177 2.823-.829.729-2.093.651-2.823-.177-1.435-1.627-3.534-2.561-5.758-2.561-2.381 0-4.571 1.042-6.009 2.86-.395.5-.98.76-1.57.76z" fill="#fff"/></svg>