<svg id="Layer_1" enable-background="new 0 0 124 124" height="512" viewBox="0 0 124 124" width="512" xmlns="http://www.w3.org/2000/svg"><path id="XMLID_1058_" d="m101.375 82.551c-9.788-6.902-19.576-13.803-29.365-20.705-1.75-1.234-4.086-1.209-5.818.061-.768.563-43.268 31.717-43.551 31.924-2.748 2.015-2.769 6.138-.041 8.162 9.446 7.009 18.891 14.018 28.337 21.027 1.746 1.295 4.124 1.307 5.89.029.742-.537 44.226-31.992 44.579-32.247 2.814-2.034 2.798-6.257-.031-8.251z" fill="#cacaca"/><path id="XMLID_1193_" d="m22.641 93.831c-2.749 2.015-2.769 6.138-.041 8.162 9.446 7.009 18.891 14.018 28.337 21.027 1.746 1.295 4.124 1.307 5.89.029.742-.537 4.22-3.053 5.217-3.773l-36.48-27.587c-.691.506-2.639 1.934-2.923 2.142z" fill="#6c6b69"/><path id="XMLID_1195_" d="m101.407 90.803c2.813-2.035 2.797-6.257-.031-8.252-9.788-6.902-19.576-13.803-29.365-20.705-1.749-1.234-4.086-1.209-5.818.061-.768.563-3.878 2.843-4.665 3.42l35.906 28.35c.971-.703 3.62-2.62 3.973-2.874z" fill="#6c6b69"/><path id="XMLID_1007_" d="m90.235 14.147v8.071c0 3.416 7.329 6.167 16.382 6.167s16.383-2.751 16.383-6.167v-8.071z" fill="#30ade0"/><path id="XMLID_1006_" d="m90.235 5.834v8.071c0 3.416 7.329 6.167 16.382 6.167s16.383-2.751 16.383-6.167v-8.071z" fill="#5ab8ec"/><ellipse id="XMLID_1005_" cx="106.618" cy="6.167" fill="#30ade0" rx="16.382" ry="6.167"/><path id="XMLID_1011_" d="m1 14.147v8.071c0 3.416 7.329 6.167 16.382 6.167s16.382-2.751 16.382-6.167v-8.071z" fill="#fdbe4a"/><path id="XMLID_1010_" d="m1 5.834v8.071c0 3.416 7.329 6.167 16.382 6.167s16.382-2.751 16.382-6.167v-8.071z" fill="#ffd169"/><ellipse id="XMLID_1009_" cx="17.382" cy="6.167" fill="#fdbe4a" rx="16.382" ry="6.167"/><path id="XMLID_166_" d="m83.024 16.91-3.892-3.411c-.832-.729-2.095-.646-2.822.186-.711.812-.644 2.032.134 2.767h-7.577c-1.104 0-2 .896-2 2v26.276c0 1.104.896 2 2 2s2-.896 2-2v-24.277h5.49c-.688.741-.729 1.891-.051 2.67.715.819 2.002.908 2.822.193l3.645-3.177c1.102-.699 1.239-2.365.251-3.227z" fill="#454546"/><path id="XMLID_620_" d="m55.132 16.534h-7.576c.776-.735.843-1.954.133-2.766-.728-.831-1.992-.915-2.822-.186l-3.892 3.411c-.986.862-.864 2.516.248 3.224l3.648 3.18c.821.714 2.107.627 2.822-.193.679-.78.638-1.93-.052-2.671h5.49v16.307c0 1.104.896 2 2 2s2-.896 2-2v-18.306c.001-1.104-.894-2-1.999-2z" fill="#454546"/><path id="XMLID_492_" d="m60.061 35.081v21.7h-21.712c0-11.984 9.721-21.7 21.712-21.7z" fill="#e85aa0"/><path id="XMLID_491_" d="m65.786 43.097c10.849 0 19.644 8.79 19.644 19.633s-8.795 19.633-19.644 19.633-19.644-8.79-19.644-19.633h19.644z" fill="#997caa"/></svg>