<svg id="Layer_1" enable-background="new 0 0 124 124" height="512" viewBox="0 0 124 124" width="512" xmlns="http://www.w3.org/2000/svg"><path id="XMLID_800_" d="m0 63.045v23.091c0 9.772 21.26 17.642 47.522 17.642s47.522-7.87 47.522-17.642v-23.091z" fill="#99cf6c"/><path id="XMLID_795_" d="m0 39.782v23.782c0 9.772 21.26 17.642 47.522 17.642s47.522-7.87 47.522-17.642v-23.782z" fill="#78af42"/><path id="XMLID_794_" d="m0 16.691v23.091c0 9.772 21.26 17.642 47.522 17.642s47.522-7.87 47.522-17.642v-23.091z" fill="#99cf6c"/><ellipse id="XMLID_793_" cx="47.522" cy="17.642" fill="#78af42" rx="47.522" ry="17.642"/><ellipse id="XMLID_802_" cx="95.044" cy="94.942" fill="#fdbe4a" rx="28.956" ry="29.058"/><path id="XMLID_159_" d="m90.201 86.763c0-1.587 1.137-3.439 4.341-3.439 2.121 0 3.989.64 5.804 1.677l1.382-3.633c-1.81-1.066-3.777-1.633-5.875-1.748v-4.32h-3.512v4.541c-4.095.785-6.721 3.682-6.721 7.454 0 4.447 3.644 6.484 7.58 8.021 3.405 1.376 4.794 2.804 4.794 4.931 0 2.339-2.024 3.971-4.92 3.971-2.397 0-4.621-.798-6.601-2.11l-1.327 3.69c1.977 1.422 4.473 2.069 6.884 2.175v4.491h3.557v-4.674c4.854-.934 7.032-4.587 7.032-7.853 0-3.901-2.133-6.433-7.131-8.464-4.052-1.67-5.287-2.771-5.287-4.71z" fill="#fff"/></svg>