<svg id="Layer_1" enable-background="new 0 0 124 124" height="512" viewBox="0 0 124 124" width="512" xmlns="http://www.w3.org/2000/svg"><path id="XMLID_930_" d="m0 61.904v21.627c0 9.364 20.404 16.904 45.608 16.904s45.608-7.541 45.608-16.904v-22.124z" fill="#cacaca"/><path id="XMLID_929_" d="m0 39.117v22.787c0 9.364 20.404 16.904 45.608 16.904s45.608-7.541 45.608-16.904v-22.787z" fill="#30ade0"/><path id="XMLID_928_" d="m0 17.904v21.213c0 9.364 20.404 16.904 45.608 16.904s45.608-7.541 45.608-16.904v-21.213z" fill="#cacaca"/><ellipse id="XMLID_927_" cx="45.608" cy="17.904" fill="#32b0e2" rx="45.608" ry="16.904"/><path id="XMLID_1123_" d="m124 94.48v-8.031l-8.236-1.391c-.638-2.909-1.788-5.565-3.384-8.031l4.852-6.703-5.746-5.691-6.767 4.806c-2.426-1.518-5.171-2.656-8.108-3.288l-1.405-8.158h-8.044l-1.405 8.158c-2.937.632-5.618 1.771-8.108 3.352l-6.767-4.806-5.746 5.691 4.852 6.703c-1.532 2.403-2.681 5.122-3.32 8.031l-8.236 1.391v8.031l8.236 1.391c.638 2.909 1.788 5.565 3.32 8.031l-4.852 6.703 5.746 5.691 6.767-4.806c2.426 1.518 5.171 2.656 8.108 3.288l1.406 8.158h8.108l1.405-8.158c2.937-.632 5.618-1.771 8.108-3.352l6.767 4.806 5.746-5.691-4.852-6.703c1.532-2.403 2.681-5.122 3.32-8.031z" fill="#fdbe4a"/><ellipse id="XMLID_925_" cx="91.249" cy="90.496" fill="#fff" rx="13.598" ry="13.469"/></svg>