<svg id="Layer_1" enable-background="new 0 0 124 124" height="512" viewBox="0 0 124 124" width="512" xmlns="http://www.w3.org/2000/svg"><path id="XMLID_4622_" d="m0 0h124v124h-124z" fill="#454546"/><path id="XMLID_595_" d="m4.133 4.133h115.733v115.733h-115.733z" fill="#f7f7f5" transform="matrix(0 1 -1 0 124 0)"/><path id="XMLID_116_" d="m18.424 53.976c-1.104 0-2-.896-2-2v-13.376c0-1.104.896-2 2-2s2 .896 2 2v13.376c0 1.104-.896 2-2 2z" fill="#30ade0"/><path id="XMLID_117_" d="m26.549 53.976c-1.104 0-2-.896-2-2v-18.115c0-1.104.896-2 2-2s2 .896 2 2v18.114c0 1.105-.895 2.001-2 2.001z" fill="#fdbe4a"/><path id="XMLID_118_" d="m34.675 53.976c-1.104 0-2-.896-2-2v-13.376c0-1.104.896-2 2-2s2 .896 2 2v13.376c0 1.104-.896 2-2 2z" fill="#f16953"/><path id="XMLID_119_" d="m42.8 53.976c-1.104 0-2-.896-2-2v-24.204c0-1.104.896-2 2-2s2 .896 2 2v24.203c0 1.105-.895 2.001-2 2.001z" fill="#78af42"/><path id="XMLID_115_" d="m49.556 53.976h-39.223c-1.104 0-2-.896-2-2v-39.072c0-1.104.896-2 2-2s2 .896 2 2v37.071h37.222c1.104 0 2 .896 2 2s-.895 2.001-1.999 2.001z" fill="#cacaca"/><path id="XMLID_121_" d="m97.442 98.089-9.129-8.666-9.129 8.666c-.801.761-2.066.728-2.828-.073-.76-.801-.728-2.067.074-2.827l10.506-9.974c.771-.732 1.982-.732 2.754 0l9.025 8.567 10.356-11.375c.743-.817 2.007-.877 2.826-.132.816.743.876 2.008.132 2.825l-11.731 12.885c-.745.815-2.004.85-2.856.104z" fill="#30ade0"/><path id="XMLID_120_" d="m111.486 115.667h-39.223c-1.104 0-2-.896-2-2v-39.071c0-1.104.896-2 2-2s2 .896 2 2v37.071h37.223c1.104 0 2 .896 2 2s-.896 2-2 2z" fill="#cacaca"/><g fill="#cfcfcf"><path id="XMLID_122_" d="m49.556 81.736h-39.223c-1.104 0-2-.896-2-2s.896-2 2-2h39.222c1.104 0 2 .896 2 2s-.895 2-1.999 2z"/><path id="XMLID_123_" d="m49.556 91.333h-39.223c-1.104 0-2-.896-2-2s.896-2 2-2h39.222c1.104 0 2 .896 2 2s-.895 2-1.999 2z"/><path id="XMLID_124_" d="m49.556 100.93h-39.223c-1.104 0-2-.896-2-2s.896-2 2-2h39.222c1.104 0 2 .896 2 2s-.895 2-1.999 2z"/><path id="XMLID_125_" d="m49.556 110.525h-39.223c-1.104 0-2-.896-2-2s.896-2 2-2h39.222c1.104 0 2 .896 2 2s-.895 2-1.999 2z"/></g><path id="XMLID_126_" d="m95.659 10.333v18.275h18.008c0-10.093-8.063-18.275-18.008-18.275z" fill="#e85aa0"/><path id="XMLID_127_" d="m88.09 17.995c-9.945 0-18.008 8.182-18.008 18.275s8.062 18.275 18.008 18.275 18.008-8.182 18.008-18.275h-18.008z" fill="#997caa"/></svg>