<svg id="Layer_1" enable-background="new 0 0 124 124" height="512" viewBox="0 0 124 124" width="512" xmlns="http://www.w3.org/2000/svg"><path id="XMLID_1212_" d="m15.474 0h93.023c8.549 0 15.503 6.954 15.503 15.503v69.749c0 8.549-6.954 15.503-15.504 15.503h-23.24v20.35c0 2.355-2.737 3.72-4.636 2.348l-30.255-22.668h-34.861c-8.55 0-15.504-6.954-15.504-15.503v-69.779c-.03-8.549 6.924-15.503 15.474-15.503z" fill="#fdbe4a"/><path id="XMLID_830_" d="m52.002 95.756h-35.317c-6.11 0-11.082-4.971-11.082-11.08v-68.007c-.021-6.036 5.021-11.08 11.052-11.08h90.66c6.11 0 11.082 4.971 11.082 11.08v67.977c0 6.11-4.972 11.08-11.082 11.08h-26.678v21.485z" fill="#ffd169"/><g fill="#fff"><path id="XMLID_111_" d="m61.651 64.796c-2.384 0-4.049 1.746-4.049 4.246 0 2.421 1.675 4.18 3.983 4.18 2.384 0 4.049-1.719 4.049-4.18.001-2.5-1.637-4.246-3.983-4.246z"/><path id="XMLID_112_" d="m62.631 27.488c-3.214 0-6.869.749-9.498 2.697l1.665 4.369.137-.104c1.598-1.214 4.157-1.999 6.518-1.999 3.863.062 6.079 2.063 6.079 5.491 0 2.941-1.666 5.479-4.544 8.869-3.13 3.757-4.502 7.593-4.079 11.396l.14 1.818h5.349l-.072-1.835c-.198-3.375.907-6.221 3.694-9.516 3.307-3.927 5.648-7.047 5.648-11.452.001-4.491-2.89-9.734-11.037-9.734z"/></g></svg>