<svg id="Layer_1" enable-background="new 0 0 124 124" height="512" viewBox="0 0 124 124" width="512" xmlns="http://www.w3.org/2000/svg"><path id="XMLID_1145_" d="m77.397 0h-41.706c-3.681 0-6.648 2.97-6.648 6.603v76.773c0 3.656 2.99 6.603 6.648 6.603h56.289c3.681 0 6.648-2.97 6.648-6.603v-65.118z" fill="#cacaca"/><g fill="#f7f7f5"><path id="XMLID_1146_" d="m77.397 0v14.094c0 2.239 1.911 4.164 4.165 4.164h17.065z"/><path id="XMLID_104_" d="m85.102 45.26h-42.556c-1.104 0-2-.896-2-2s.896-2 2-2h42.556c1.104 0 2 .896 2 2s-.896 2-2 2z"/><path id="XMLID_105_" d="m85.102 56.119h-42.556c-1.104 0-2-.896-2-2s.896-2 2-2h42.556c1.104 0 2 .896 2 2s-.896 2-2 2z"/><path id="XMLID_106_" d="m85.102 66.979h-42.556c-1.104 0-2-.896-2-2s.896-2 2-2h42.556c1.104 0 2 .896 2 2s-.896 2-2 2z"/><path id="XMLID_107_" d="m85.102 34.4h-42.556c-1.104 0-2-.896-2-2s.896-2 2-2h42.556c1.104 0 2 .896 2 2s-.896 2-2 2z"/><path id="XMLID_108_" d="m85.102 77.839h-42.556c-1.104 0-2-.896-2-2s.896-2 2-2h42.556c1.104 0 2 .896 2 2s-.896 2-2 2z"/></g><path id="XMLID_4653_" d="m0 124 29.043-53.646 29.042 53.646z" fill="#e85aa0"/><path id="XMLID_91_" d="m29.043 108.921c-1.104 0-2-.896-2-2v-22.718c0-1.104.896-2 2-2s2 .896 2 2v22.718c0 1.104-.896 2-2 2z" fill="#fff"/><path id="XMLID_759_" d="m29.042 117.845c-1.548 0-2.809-1.271-2.809-2.832 0-1.563 1.261-2.834 2.809-2.834 1.551 0 2.812 1.271 2.812 2.834 0 1.561-1.262 2.832-2.812 2.832z" fill="#fff"/><path id="XMLID_784_" d="m123.837 9.576c0-2.849-2.202-5.179-4.894-5.179h-3.262c-2.781 0-4.812 2.396-4.812 5.093v7.078h12.968z" fill="#78af42"/><path id="XMLID_776_" d="m110.95 74.748s0 2.158.082 2.331l4.894 13.725c.515 1.454 2.58 1.466 3.099 0l4.894-13.725c.081-.173.081-2.331.081-2.331" fill="#ffd169"/><path id="XMLID_790_" d="m124 74.748v-58.18h-13.131v58.18" fill="#fdbe4a"/><path id="XMLID_109_" d="m118.073 60.146h5.927v4h-5.927z" fill="#ffd169"/><path id="XMLID_110_" d="m118.073 48.405h5.927v4h-5.927z" fill="#ffd169"/></svg>