<svg id="Layer_1" enable-background="new 0 0 124 124" height="512" viewBox="0 0 124 124" width="512" xmlns="http://www.w3.org/2000/svg"><g fill="#cacaca"><path id="XMLID_73_" d="m62.559 62.961c-1.104 0-2-.896-2-2v-22.428c0-1.104.896-2 2-2s2 .896 2 2v22.428c0 1.104-.896 2-2 2z"/><path id="XMLID_87_" d="m104.966 84.179c-1.104 0-2-.896-2-2v-15.135h-35.094c-1.104 0-2-.896-2-2s.896-2 2-2h37.094c1.104 0 2 .896 2 2v17.135c0 1.104-.896 2-2 2z"/><path id="XMLID_90_" d="m15.063 77.73c-1.104 0-2-.896-2-2v-10.686c0-1.104.896-2 2-2h42.183c1.104 0 2 .896 2 2s-.896 2-2 2h-40.183v8.687c0 1.104-.895 1.999-2 1.999z"/></g><path id="XMLID_1015_" d="m56.151 59.607h12.815v10.874h-12.815z" fill="#997caa"/><path id="XMLID_1147_" d="m55.56 83.001h22.42v37.862h-22.42z" fill="#e85aa0"/><path id="XMLID_92_" d="m71.099 102.017h-8.656c-1.104 0-2-.896-2-2s.896-2 2-2h8.656c1.104 0 2 .896 2 2s-.896 2-2 2z" fill="#f7f7f5"/><path id="XMLID_93_" d="m71.099 93.666h-8.656c-1.104 0-2-.896-2-2s.896-2 2-2h8.656c1.104 0 2 .896 2 2s-.896 2-2 2z" fill="#f7f7f5"/><circle id="XMLID_1023_" cx="66.77" cy="110.789" fill="#f7f7f5" r="3.1"/><path id="XMLID_103_" d="m85.931 106.397v4.715c0 .963.781 1.744 1.744 1.744h15.291v6.437h-5.439c-1.104 0-2 .896-2 2s.896 2 2 2h14.878c1.104 0 2-.896 2-2s-.896-2-2-2h-5.438v-6.437h15.29c.963 0 1.744-.781 1.744-1.744v-4.715z" fill="#cfcfcf"/><path id="XMLID_1129_" d="m124 84.314c0-.963-.781-1.744-1.744-1.744h-34.581c-.963 0-1.744.781-1.744 1.744v22.083h38.069z" fill="#30ade0"/><path id="XMLID_760_" d="m90.064 86.704h29.802v15.559h-29.802z" fill="#fff"/><path id="XMLID_1178_" d="m24.46 75.73h-18.888c-3.116 0-5.572 2.556-5.572 5.584v37.102c0 3.123 2.55 5.584 5.572 5.584h18.888c3.022 0 5.572-2.555 5.572-5.584v-37.102c0-3.123-2.55-5.584-5.572-5.584z" fill="#fdbe4a"/><path id="XMLID_475_" d="m0 118.416c0 3.123 2.55 5.584 5.572 5.584h18.888c3.022 0 5.572-2.555 5.572-5.584v-4.707h-30.032z" fill="#6c6b69"/><path id="XMLID_508_" d="m30.032 81.314c0-3.123-2.55-5.584-5.572-5.584h-18.888c-3.116 0-5.572 2.556-5.572 5.584v4.707h30.032z" fill="#6c6b69"/><path id="XMLID_1105_" d="m40.147 0h44.14v14.214h-44.14z" fill="#454546"/><path id="XMLID_97_" d="m65.928 5.106h11.32v4h-11.32z" fill="#6a6967"/><path id="XMLID_96_" d="m46.997 5.106h3.905v4h-3.905z" fill="#6a6967"/><path id="XMLID_98_" d="m55.178 5.106h4v4h-4z" fill="#6a6967"/><path id="XMLID_1197_" d="m84.288 24.085h-44.14v14.214h6.276v7.016c0 1.104.896 2 2 2s2-.896 2-2v-7.016h23.612c-.009.078-.024.154-.024.235v6.781c0 1.104.896 2 2 2s2-.896 2-2v-6.781c0-.08-.014-.157-.024-.235h6.3z" fill="#454546"/><path id="XMLID_99_" d="m65.928 29.191h11.32v4h-11.32z" fill="#6a6967"/><path id="XMLID_100_" d="m46.997 29.191h3.905v4h-3.905z" fill="#6a6967"/><path id="XMLID_101_" d="m55.178 29.191h4v4h-4z" fill="#6a6967"/></svg>