<svg id="Layer_1" enable-background="new 0 0 124 124" height="512" viewBox="0 0 124 124" width="512" xmlns="http://www.w3.org/2000/svg"><path id="XMLID_1159_" d="m0 0h91.967v111.315h-91.967z" fill="#cacaca"/><path id="XMLID_187_" d="m-5.541 13.807h103.049v83.701h-103.049z" fill="#f7f7f5" transform="matrix(0 1 -1 0 101.641 9.674)"/><path id="XMLID_1152_" d="m9.546 11.105h26.56v16.953h-26.56z" fill="#e85aa0"/><ellipse id="XMLID_1151_" cx="22.826" cy="95.803" fill="#997caa" rx="12.734" ry="4.408"/><path id="XMLID_1150_" d="m22.826 70.603-9.967-9.997 9.967-9.996 9.966 9.996z" fill="#78af42"/><path id="XMLID_1207_" d="m27.354 40.762c-.668-.685-1.708-.784-2.488-.298l.061-7.038c.009-1.104-.878-2.008-1.983-2.018-.006 0-.012 0-.018 0-1.096 0-1.99.884-2 1.982l-.061 7.131c-.787-.548-1.873-.47-2.566.238-.773.789-.761 2.056.028 2.828l3.091 3.03c.782.767 2.082.747 2.843-.041l3.059-2.986c.791-.771.806-2.037.034-2.828-.668-.685.772.791 0 0z" fill="#cacaca"/><path id="XMLID_78_" d="m27.354 81.66c-.667-.683-1.702-.782-2.482-.301l.055-5.548c.011-1.104-.876-2.009-1.98-2.02-.006 0-.013 0-.02 0-1.095 0-1.989.883-2 1.98l-.056 5.652c-.788-.552-1.877-.476-2.572.233-.773.789-.761 2.056.028 2.828l3.091 3.03c.781.766 2.08.747 2.842-.04l3.06-2.987c.791-.769.806-2.036.034-2.827-.666-.683.772.791 0 0z" fill="#cacaca"/><ellipse id="XMLID_1153_" cx="69.688" cy="19.581" fill="#ffd169" rx="12.734" ry="4.408"/><path id="XMLID_76_" d="m52.984 18.151-2.964-3.075c-.767-.795-2.033-.818-2.828-.053-.696.671-.8 1.725-.302 2.51l-5.509-.055c-1.091.005-2.008.875-2.02 1.979-.011 1.104.875 2.01 1.98 2.021l5.622.056c-.57.793-.496 1.901.226 2.6.781.756 2.071.735 2.828-.045l3.011-3.11c.748-.773.724-2.079-.044-2.828z" fill="#cacaca"/><path id="XMLID_72_" d="m97.212 100.611-6.78-7.097 2.806-2.855 6.654 6.966z" fill="#454546"/><ellipse id="XMLID_1179_" cx="73.867" cy="74.737" fill="#30ade0" rx="25.164" ry="24.947"/><path id="XMLID_201_" d="m73.867 95.55c-11.597 0-21.031-9.336-21.031-20.813s9.434-20.814 21.031-20.814c11.596 0 21.03 9.337 21.03 20.814s-9.434 20.813-21.03 20.813z" fill="#fff"/><path id="XMLID_1175_" d="m98.405 105.365 17.351 17.201c1.928 1.911 4.972 1.911 6.798 0 1.928-1.911 1.928-4.929 0-6.74l-17.351-17.201c-1.826-1.811-4.87-1.911-6.798 0-1.827 1.812-1.928 4.93 0 6.74z" fill="#6a6967"/></svg>