<svg id="Layer_1" enable-background="new 0 0 124 124" height="512" viewBox="0 0 124 124" width="512" xmlns="http://www.w3.org/2000/svg"><path id="XMLID_69_" d="m25.055 46.063c-.418 0-.84-.131-1.201-.401l-17.992-13.53c-.883-.664-1.06-1.918-.396-2.801s1.918-1.06 2.801-.396l17.993 13.529c.883.664 1.06 1.918.396 2.801-.394.522-.994.798-1.601.798z" fill="#cacaca"/><path id="XMLID_70_" d="m32.135 46.368c-.637 0-1.263-.303-1.65-.867-.625-.91-.395-2.155.516-2.781l29.084-19.985c.911-.624 2.155-.395 2.781.516.625.91.395 2.155-.516 2.781l-29.085 19.985c-.346.237-.74.351-1.13.351z" fill="#cacaca"/><path id="XMLID_71_" d="m89.014 51.578c-.56 0-1.113-.234-1.505-.682l-22.71-25.912c-.728-.831-.645-2.095.186-2.822.831-.729 2.095-.646 2.822.186l21.589 24.632 26.649-16.654c.938-.587 2.171-.3 2.756.637s.301 2.17-.636 2.756l-28.092 17.555c-.328.205-.695.304-1.059.304z" fill="#cacaca"/><g fill="#e85aa0"><ellipse id="XMLID_4747_" cx="28.327" cy="45.701" rx="4.633" ry="4.685"/><ellipse id="XMLID_4749_" cx="64.49" cy="21.685" rx="4.633" ry="4.685"/><ellipse id="XMLID_4750_" cx="4.633" cy="29.269" rx="4.633" ry="4.685"/><ellipse id="XMLID_4751_" cx="118.112" cy="30.533" rx="4.633" ry="4.685"/></g><path id="XMLID_61_" d="m99.533 85.03-6.289-6.34 2.773-2.884 6.357 6.408z" fill="#cacaca"/><ellipse id="XMLID_892_" cx="78.216" cy="61.157" fill="#30ade0" rx="22.964" ry="23.187"/><path id="XMLID_596_" d="m78.216 80.18c-10.391 0-18.845-8.534-18.845-19.023s8.454-19.023 18.845-19.023 18.845 8.534 18.845 19.023-8.454 19.023-18.845 19.023z" fill="#f7f7f5"/><path id="XMLID_891_" d="m100.578 89.606 15.878 16.056c1.764 1.784 4.55 1.784 6.221 0 1.764-1.784 1.764-4.601 0-6.291l-15.878-16.056c-1.671-1.69-4.457-1.784-6.221 0-1.672 1.69-1.765 4.601 0 6.291z" fill="#f16953"/></svg>