<svg id="Layer_1" enable-background="new 0 0 124 124" height="512" viewBox="0 0 124 124" width="512" xmlns="http://www.w3.org/2000/svg"><path id="XMLID_1215_" d="m7 0h58.469v100.113h-58.469z" fill="#e85aa0"/><path id="XMLID_1209_" d="m23.39 16.429h58.469v100.113h-58.469z" fill="#cdcdcd"/><g fill="#e6e6e6"><ellipse id="XMLID_1208_" cx="52.624" cy="88.021" rx="7.205" ry="7.393"/><path id="XMLID_66_" d="m66.988 59.787h-28.729c-1.104 0-2-.896-2-2s.896-2 2-2h28.729c1.104 0 2 .896 2 2s-.895 2-2 2z"/><path id="XMLID_67_" d="m66.988 40.891h-28.729c-1.104 0-2-.896-2-2s.896-2 2-2h28.729c1.104 0 2 .896 2 2s-.895 2-2 2z"/></g><ellipse id="XMLID_1243_" cx="91.09" cy="97.931" fill="#30ade0" rx="25.91" ry="26.069"/><path id="XMLID_65_" d="m98.627 94.319c-1.104 0-2-.896-2-2v-6.27c0-3.233-2.477-5.864-5.521-5.864s-5.521 2.631-5.521 5.864v6.27c0 1.104-.896 2-2 2s-2-.896-2-2v-6.27c0-5.439 4.271-9.864 9.521-9.864s9.521 4.425 9.521 9.864v6.27c0 1.105-.896 2-2 2z" fill="#fff"/><path id="XMLID_1242_" d="m80.081 92.32v21.669h22.018v-21.669z" fill="#fff"/><path id="XMLID_68_" d="m91.091 106.865c-1.104 0-2-.896-2-2v-3.128c0-1.104.896-2 2-2s2 .896 2 2v3.128c0 1.105-.896 2-2 2z" fill="#cacaca"/></svg>