<svg id="Layer_1" enable-background="new 0 0 124 124" height="512" viewBox="0 0 124 124" width="512" xmlns="http://www.w3.org/2000/svg"><path id="XMLID_1275_" d="m5 75.95v26.97c0 11.677 25.5 21.08 57 21.08s57-9.403 57-21.08v-26.97z" fill="#ffd169"/><path id="XMLID_1274_" d="m5 47.533v28.417c0 11.677 25.5 21.08 57 21.08s57-9.403 57-21.08v-28.417z" fill="#fdbe4a"/><path id="XMLID_1273_" d="m5 21.08v26.453c0 11.677 25.5 21.08 57 21.08s57-9.403 57-21.08v-26.453z" fill="#ffd169"/><ellipse id="XMLID_1272_" cx="62" cy="21.08" fill="#fdbe4a" rx="57" ry="21.08"/><path id="XMLID_762_" d="m79.643 47.81v-8.895c0-4.955-3.959-8.986-8.824-8.986h-17.637c-4.865 0-8.824 4.031-8.824 8.986v8.895h-24.07v57.383h83.425v-57.383zm-31.286-8.895c0-2.749 2.164-4.986 4.824-4.986h17.637c2.66 0 4.824 2.237 4.824 4.986v8.895h-27.285z" fill="#f7f7f5"/><ellipse id="XMLID_1278_" cx="62" cy="76.502" fill="#30ade0" rx="17.696" ry="17.496"/><path id="XMLID_1017_" d="m70.592 74.502h-6.592v-6.485c0-1.104-.896-2-2-2s-2 .896-2 2v6.485h-6.592c-1.104 0-2 .896-2 2s.896 2 2 2h6.592v6.485c0 1.104.896 2 2 2s2-.896 2-2v-6.485h6.592c1.104 0 2-.896 2-2s-.896-2-2-2z" fill="#fff"/></svg>