<svg id="Layer_1" enable-background="new 0 0 124 124" height="512" viewBox="0 0 124 124" width="512" xmlns="http://www.w3.org/2000/svg"><path id="XMLID_18_" d="m108.203 64.557h-14.187c-1.104 0-2-.896-2-2s.896-2 2-2h14.188c1.104 0 2 .896 2 2s-.896 2-2.001 2z" fill="#cfcfcf"/><path id="XMLID_40_" d="m107.589 104.365c-1.104 0-2-.896-2-2v-27.31h-11.42c-1.104 0-2-.896-2-2s.896-2 2-2h13.42c1.104 0 2 .896 2 2v29.31c0 1.105-.896 2-2 2z" fill="#cfcfcf"/><path id="XMLID_43_" d="m107.589 54.059h-13.42c-1.104 0-2-.896-2-2s.896-2 2-2h11.42v-28.466c0-1.104.896-2 2-2s2 .896 2 2v30.466c0 1.104-.896 2-2 2z" fill="#cfcfcf"/><ellipse id="XMLID_4579_" cx="107.436" cy="10.547" fill="#e85aa0" rx="4.509" ry="4.547"/><ellipse id="XMLID_4578_" cx="107.436" cy="113.453" fill="#6c6b69" rx="4.509" ry="4.547"/><ellipse id="XMLID_4564_" cx="119.491" cy="62.767" fill="#997caa" rx="4.509" ry="4.547"/><path id="XMLID_44_" d="m30.033 64.557h-14.187c-1.104 0-2-.896-2-2s.896-2 2-2h14.188c1.104 0 2 .896 2 2s-.896 2-2.001 2z" fill="#cfcfcf"/><path id="XMLID_45_" d="m17.76 104.365c-1.104 0-2-.896-2-2v-29.31c0-1.104.896-2 2-2h12.273c1.104 0 2 .896 2 2s-.896 2-2 2h-10.273v27.31c0 1.105-.896 2-2 2z" fill="#cfcfcf"/><path id="XMLID_46_" d="m30.033 54.059h-12.273c-1.104 0-2-.896-2-2v-30.466c0-1.104.896-2 2-2s2 .896 2 2v28.466h10.273c1.104 0 2 .896 2 2s-.895 2-2 2z" fill="#cfcfcf"/><ellipse id="XMLID_4748_" cx="17.76" cy="113.453" fill="#f16953" rx="4.509" ry="4.547"/><ellipse id="XMLID_4611_" cx="17.76" cy="10.547" fill="#ffd169" rx="4.509" ry="4.547"/><ellipse id="XMLID_4501_" cx="4.509" cy="62.767" fill="#5ab8ec" rx="4.509" ry="4.547"/><path id="XMLID_47_" d="m62 104.71c-1.104 0-2-.896-2-2v-26.531c0-1.104.896-2 2-2s2 .896 2 2v26.531c0 1.104-.896 2-2 2z" fill="#cfcfcf"/><ellipse id="XMLID_4497_" cx="62" cy="113.453" fill="#87d8fb" rx="4.509" ry="4.547"/><path id="XMLID_48_" d="m61.953 51.494c-.001 0-.002 0-.003 0-1.105-.002-1.999-.898-1.997-2.003l.047-27.901c.002-1.104.897-1.997 2-1.997h.003c1.105.002 1.999.898 1.997 2.003l-.047 27.901c-.002 1.104-.896 1.997-2 1.997z" fill="#cfcfcf"/><ellipse id="XMLID_4496_" cx="61.953" cy="10.547" fill="#99cf6c" rx="4.509" ry="4.547"/><g fill="#cfcfcf"><path id="XMLID_49_" d="m25.63 45.612c-1.249 0-2.216-1.182-1.96-2.408 1.33-6.374 6.33-11.02 12.419-11.74 2.216-5.989 8.163-10.058 14.957-10.058 1.057 0 2.101.153 3.103.455 1.058.319 1.656 1.435 1.338 2.492-.318 1.059-1.435 1.655-2.492 1.338-.627-.189-1.283-.285-1.948-.285-5.402 0-10.25 3.56-11.525 8.464-.227.872-1.008 1.485-1.909 1.497-4.854.064-8.977 3.623-10.025 8.653-.199.944-1.031 1.592-1.958 1.592z"/><path id="XMLID_50_" d="m51.252 103.669c-8.893 0-16.127-6.658-16.127-14.843v-1.772c-3.916.673-7.962-.024-11.319-1.907-.964-.54-1.308-1.759-.767-2.722.539-.963 1.761-1.308 2.722-.767 3.145 1.762 7.082 2.154 10.731.937 1.274-.423 2.633.558 2.633 1.897v4.334c0 5.979 5.44 10.843 12.127 10.843.979 0 1.92-.191 2.797-.568 1.015-.436 2.19.034 2.628 1.048.436 1.016-.033 2.191-1.048 2.628-1.379.591-2.852.892-4.377.892z"/><path id="XMLID_51_" d="m98.068 44.928c-.92 0-1.748-.639-1.952-1.574-1.01-4.637-4.997-7.917-9.696-7.978-.894-.012-1.671-.614-1.905-1.477-1.228-4.526-5.921-7.813-11.159-7.813-1.234 0-2.854.178-3.255-1.328-.573-2.15 1.641-2.672 3.255-2.672 6.594 0 12.375 3.792 14.563 9.382 5.929.683 10.802 5.048 12.105 11.033.269 1.23-.698 2.427-1.956 2.427z"/><path id="XMLID_52_" d="m72.948 103.449c-1.927 0-3.81-.498-5.445-1.44-.957-.552-1.286-1.774-.735-2.731.552-.957 1.775-1.284 2.731-.735 1.03.594 2.223.907 3.449.907 6.575 0 11.925-4.771 11.925-10.634v-4.264c0-1.334 1.357-2.328 2.631-1.897 4.126 1.369 8.636.635 11.863-1.766.887-.658 2.141-.475 2.799.412s.475 2.14-.412 2.799c-3.567 2.651-8.317 3.784-12.881 3.009v1.707c0 8.069-7.144 14.633-15.925 14.633z"/><path id="XMLID_53_" d="m43.647 51.494c-1.104 0-2-.896-2-2v-10.051c0-1.104.896-2 2-2s2 .896 2 2v10.051c0 1.105-.895 2-2 2z"/><path id="XMLID_54_" d="m51.677 51.494c-1.104 0-2-.896-2-2v-10.051c0-1.104.896-2 2-2s2 .896 2 2v10.051c0 1.105-.896 2-2 2z"/><path id="XMLID_55_" d="m72.323 51.494c-1.104 0-2-.896-2-2v-10.051c0-1.104.896-2 2-2s2 .896 2 2v10.051c0 1.105-.895 2-2 2z"/><path id="XMLID_56_" d="m80.353 51.494c-1.104 0-2-.896-2-2v-10.051c0-1.104.896-2 2-2s2 .896 2 2v10.051c0 1.105-.896 2-2 2z"/><path id="XMLID_57_" d="m43.647 87.353c-1.104 0-2-.896-2-2v-9.689c0-1.104.896-2 2-2s2 .896 2 2v9.689c0 1.104-.895 2-2 2z"/><path id="XMLID_58_" d="m51.677 87.353c-1.104 0-2-.896-2-2v-9.174c0-1.104.896-2 2-2s2 .896 2 2v9.174c0 1.104-.896 2-2 2z"/><path id="XMLID_59_" d="m72.323 87.353c-1.104 0-2-.896-2-2v-9.689c0-1.104.896-2 2-2s2 .896 2 2v9.689c0 1.104-.895 2-2 2z"/><path id="XMLID_60_" d="m80.353 87.353c-1.104 0-2-.896-2-2v-9.689c0-1.104.896-2 2-2s2 .896 2 2v9.689c0 1.104-.896 2-2 2z"/></g><path id="XMLID_4756_" d="m37.373 49.494h49.162v26.169h-49.162z" fill="#78af42"/></svg>