<svg id="Layer_1" enable-background="new 0 0 124 124" height="512" viewBox="0 0 124 124" width="512" xmlns="http://www.w3.org/2000/svg"><path id="XMLID_1221_" d="m.042 64.792-.042 22.86c0 9.944 21.616 17.953 48.318 17.953s48.318-8.008 48.318-17.953v-22.969z" fill="#cacaca"/><path id="XMLID_1186_" d="m0 40.482v24.201c0 9.944 21.616 17.953 48.318 17.953s48.318-8.008 48.318-17.953v-24.201z" fill="#e85aa0"/><path id="XMLID_1185_" d="m0 17.953v22.529c0 9.944 21.616 17.953 48.318 17.953s48.318-8.008 48.318-17.953v-22.529z" fill="#cacaca"/><ellipse id="XMLID_1184_" cx="48.318" cy="17.953" fill="#e85aa0" rx="48.318" ry="17.953"/><ellipse id="XMLID_1173_" cx="96.636" cy="96.572" fill="#78af42" rx="27.364" ry="27.428"/><path id="XMLID_1019_" d="m109.184 94.51h-10.812v-10.842c0-1.104-.896-2-2-2s-2 .896-2 2v10.842h-10.811c-1.104 0-2 .896-2 2s.896 2 2 2h10.811v10.841c0 1.104.896 2 2 2s2-.896 2-2v-10.841h10.812c1.104 0 2-.896 2-2s-.896-2-2-2z" fill="#f7f7f5"/></svg>