<svg id="Layer_1" enable-background="new 0 0 124 124" height="512" viewBox="0 0 124 124" width="512" xmlns="http://www.w3.org/2000/svg"><path id="XMLID_1253_" d="m0 64.683v22.969c0 9.944 21.616 17.953 48.318 17.953s48.318-8.008 48.318-17.953v-22.969z" fill="#cacaca"/><path id="XMLID_1252_" d="m0 40.482v24.201c0 9.944 21.616 17.953 48.318 17.953s48.318-8.008 48.318-17.953v-24.201z" fill="#30ade0"/><path id="XMLID_1251_" d="m0 17.953v22.529c0 9.944 21.616 17.953 48.318 17.953s48.318-8.008 48.318-17.953v-22.529z" fill="#cacaca"/><ellipse id="XMLID_1250_" cx="48.318" cy="17.953" fill="#30ade0" rx="48.318" ry="17.953"/><ellipse id="XMLID_1248_" cx="96.636" cy="96.572" fill="#f16953" rx="27.364" ry="27.428"/><path id="XMLID_1044_" d="m99.201 96.51 7.666-7.666c.781-.781.781-2.047 0-2.828s-2.048-.781-2.828 0l-7.666 7.666-7.645-7.645c-.781-.781-2.048-.781-2.828 0-.781.781-.781 2.047 0 2.828l7.645 7.645-7.667 7.666c-.781.781-.781 2.047 0 2.828.768.768 2.06.769 2.828 0l7.666-7.666 7.645 7.645c.768.768 2.06.769 2.828 0 .781-.781.781-2.047 0-2.828z" fill="#f7f7f5"/></svg>