<svg id="Layer_1" enable-background="new 0 0 124 124" height="512" viewBox="0 0 124 124" width="512" xmlns="http://www.w3.org/2000/svg"><path id="XMLID_1354_" d="m.127 64.653v22.958c0 9.94 21.304 17.944 47.952 17.944s47.951-8.004 47.951-17.944v-22.958z" fill="#cacaca"/><path id="XMLID_1353_" d="m.127 40.463v24.19c0 9.94 21.304 17.944 47.952 17.944s47.951-8.004 47.951-17.944v-24.19z" fill="#30ade0"/><path id="XMLID_1352_" d="m0 17.944.127 22.519c0 9.94 21.304 17.944 47.952 17.944s47.951-8.004 47.951-17.944l-.103-22.519z" fill="#cacaca"/><ellipse id="XMLID_1351_" cx="47.964" cy="17.944" fill="#30ade0" rx="47.964" ry="17.944"/><ellipse id="XMLID_1349_" cx="96.692" cy="96.585" fill="#f16953" rx="27.308" ry="27.415"/><path id="XMLID_1276_" d="m113.035 83.671-33.37-.005c-1.104 0-2 .896-2 2s.896 2 2 2l4.214.001-.011 24.363c0 1.263 1.022 2.287 2.283 2.287l20.028.003c1.261 0 2.284-1.024 2.284-2.287l-.004-24.363 4.576.001c1.104 0 2-.896 2-2s-.895-2-2-2z" fill="#f7f7f5"/><path id="XMLID_36_" d="m91.905 108.413c-1.104 0-2-.896-2-2v-12.394c0-1.104.896-2 2-2s2 .896 2 2v12.395c0 1.104-.895 1.999-2 1.999z" fill="#f16953"/><path id="XMLID_37_" d="m100.153 108.413c-1.104 0-2-.896-2-2v-12.394c0-1.104.896-2 2-2s2 .896 2 2v12.395c0 1.104-.895 1.999-2 1.999z" fill="#f16953"/><path id="XMLID_35_" d="m100.129 80.852-7.911-.002c-1.104 0-1.999-.896-1.999-2.001 0-1.104.896-1.999 2-1.999h.001l7.91.002c1.104 0 1.999.896 1.999 2.001 0 1.103-.896 1.999-2 1.999z" fill="#f7f7f5"/></svg>