<svg id="Layer_1" enable-background="new 0 0 124 124" height="512" viewBox="0 0 124 124" width="512" xmlns="http://www.w3.org/2000/svg"><path id="XMLID_1388_" d="m0 64.155v23.497c0 9.944 21.616 17.953 48.318 17.953s48.318-8.008 48.318-17.953v-22.969z" fill="#cacaca"/><path id="XMLID_1387_" d="m0 40.482v24.201c0 9.944 21.616 17.953 48.318 17.953s48.318-8.008 48.318-17.953v-24.201z" fill="#e85aa0"/><path id="XMLID_1386_" d="m0 17.953v22.529c0 9.944 21.616 17.953 48.318 17.953s48.318-8.008 48.318-17.953v-22.529z" fill="#cacaca"/><ellipse id="XMLID_1385_" cx="48.318" cy="17.953" fill="#e85aa0" rx="48.318" ry="17.953"/><ellipse id="XMLID_1237_" cx="96.636" cy="96.572" fill="#78af42" rx="27.364" ry="27.428"/><g fill="#f7f7f5"><path id="XMLID_1292_" d="m99.677 78.568c-5.829-.989-11.8.918-15.972 5.091-6.026 6.027-6.937 15.239-2.776 22.254l-.059-.003c-1.087-.037-2.038.804-2.089 1.907-.05 1.104.804 2.039 1.907 2.089l4.34.197c1.11.036 2.1-.868 2.091-1.998v-4.537c0-1.104-.896-2-2-2-.631 0-1.187.298-1.554.755-2.287-5.232-1.307-11.561 2.968-15.836 3.261-3.259 7.922-4.744 12.478-3.976 1.091.192 2.121-.55 2.305-1.639.184-1.088-.549-2.12-1.639-2.304-5.829-.989 1.09.184 0 0z"/><path id="XMLID_32_" d="m112.074 83.169c.037-1.104-.827-2.029-1.931-2.067l-4.34-.148c-1.299-.081-2.343 1.232-2.068 2.479v4.008c0 1.104.896 2 2 2 1.072 0 1.94-.846 1.99-1.905 2.07 2.54 3.198 5.686 3.198 9.005 0 3.815-1.486 7.403-4.186 10.103-3.979 3.978-9.944 5.26-15.199 3.268-1.029-.392-2.188.128-2.579 1.161s.128 2.188 1.161 2.579c2.104.798 4.296 1.186 6.473 1.186 4.778-.001 9.476-1.869 12.973-5.365 6.68-6.68 7.101-17.283 1.227-24.495.734-.278 1.253-.979 1.281-1.809z"/></g></svg>