<svg id="Layer_1" enable-background="new 0 0 124 124" height="512" viewBox="0 0 124 124" width="512" xmlns="http://www.w3.org/2000/svg"><path id="XMLID_1414_" d="m0 64.683v22.969c0 9.944 21.616 17.953 48.318 17.953s48.318-8.008 48.318-17.953v-23.497z" fill="#cacaca"/><path id="XMLID_1413_" d="m0 40.482v24.201c0 9.944 21.616 17.953 48.318 17.953s48.318-8.008 48.318-17.953v-24.201z" fill="#30ade0"/><path id="XMLID_1412_" d="m0 17.953v22.529c0 9.944 21.616 17.953 48.318 17.953s48.318-8.008 48.318-17.953v-22.529z" fill="#cacaca"/><ellipse id="XMLID_1411_" cx="48.318" cy="17.953" fill="#30ade0" rx="48.318" ry="17.953"/><ellipse id="XMLID_1409_" cx="96.636" cy="96.572" fill="#fdbe4a" rx="27.364" ry="27.428"/><path id="XMLID_28_" d="m86.624 95.059c-.624 0-1.239-.291-1.63-.838-.642-.898-.434-2.147.466-2.79l11.672-8.336c.896-.642 2.147-.435 2.79.466.642.898.434 2.147-.466 2.79l-11.672 8.336c-.351.251-.758.372-1.16.372z" fill="#454546"/><path id="XMLID_29_" d="m97.976 110.963c-.456 0-.915-.155-1.291-.474l-10.969-9.281c-.843-.713-.948-1.975-.234-2.818.713-.844 1.974-.949 2.818-.234l10.969 9.281c.843.713.948 1.975.234 2.818-.396.468-.959.708-1.527.708z" fill="#454546"/><g fill="#f7f7f5"><circle id="XMLID_1419_" cx="83.333" cy="96.572" r="5.167"/><circle id="XMLID_1418_" cx="102.601" cy="82.12" r="5.167"/><circle id="XMLID_1417_" cx="102.601" cy="111.023" r="5.167"/></g></svg>