<svg id="Layer_1" enable-background="new 0 0 124 124" height="512" viewBox="0 0 124 124" width="512" xmlns="http://www.w3.org/2000/svg"><path id="XMLID_1441_" d="m0 64.683v22.969c0 9.944 21.641 17.953 48.374 17.953s48.374-8.008 48.374-17.953v-22.969z" fill="#cacaca"/><path id="XMLID_1440_" d="m0 40.482v24.201c0 9.944 21.641 17.953 48.374 17.953s48.374-8.008 48.374-17.953v-24.201z" fill="#78af42"/><path id="XMLID_1439_" d="m0 17.953v22.529c0 9.944 21.641 17.953 48.374 17.953s48.374-8.008 48.374-17.953v-22.529z" fill="#cacaca"/><ellipse id="XMLID_1438_" cx="48.374" cy="17.953" fill="#78af42" rx="48.374" ry="17.953"/><ellipse id="XMLID_1436_" cx="96.604" cy="96.572" fill="#f16953" rx="27.396" ry="27.428"/><path id="XMLID_1468_" d="m114.735 98.89v-4.673l-4.555-.809c-.353-1.693-.989-3.238-1.871-4.673l2.683-3.9-3.178-3.312-3.743 2.796c-1.342-.883-2.86-1.545-4.484-1.913l-.777-4.747h-4.449l-.777 4.747c-1.624.368-3.107 1.03-4.484 1.95l-3.743-2.796-3.178 3.312 2.683 3.9c-.847 1.398-1.483 2.98-1.836 4.673l-4.555.809v4.673l4.555.809c.353 1.693.989 3.238 1.836 4.673l-2.683 3.9 3.178 3.312 3.743-2.796c1.342.883 2.86 1.545 4.484 1.913l.777 4.747h4.484l.777-4.747c1.624-.368 3.107-1.03 4.484-1.95l3.743 2.796 3.178-3.312-2.683-3.9c.847-1.398 1.483-2.98 1.836-4.673z" fill="#f7f7f5"/><path id="XMLID_1472_" d="m91.33 90.266v2.838h3.652v9.774h3.243v-9.774h3.653v-2.838z" fill="#f16953"/></svg>