<svg id="Layer_1" enable-background="new 0 0 124 124" height="512" viewBox="0 0 124 124" width="512" xmlns="http://www.w3.org/2000/svg"><path id="XMLID_859_" d="m0 64.18v22.79c0 9.867 21.616 17.813 48.318 17.813s48.318-7.946 48.318-17.813v-22.79z" fill="#cacaca"/><path id="XMLID_858_" d="m0 40.167v24.013c0 9.867 21.616 17.813 48.318 17.813s48.318-7.946 48.318-17.813v-24.013z" fill="#30ade0"/><path id="XMLID_857_" d="m0 17.813v22.354c0 9.867 21.616 17.813 48.318 17.813s48.318-7.946 48.318-17.813v-22.354z" fill="#cacaca"/><ellipse id="XMLID_856_" cx="48.318" cy="17.813" fill="#30ade0" rx="48.318" ry="17.813"/><ellipse id="XMLID_808_" cx="96.636" cy="96.785" fill="#e85aa0" rx="27.364" ry="27.215"/><path id="XMLID_23_" d="m77.995 105.363c-1.809 0-2.676-2.319-1.317-3.506l11.774-10.287c.754-.658 1.878-.658 2.632 0l10.358 9.05 11.825-11.953c.777-.786 2.043-.792 2.829-.016.785.777.792 2.043.015 2.828l-13.147 13.29c-.744.752-1.942.796-2.738.1l-10.458-9.137-10.458 9.137c-.379.331-.848.494-1.315.494z" fill="#f7f7f5"/></svg>