<svg id="Layer_1" enable-background="new 0 0 124 124" height="512" viewBox="0 0 124 124" width="512" xmlns="http://www.w3.org/2000/svg"><path id="XMLID_998_" d="m0 63.285v22.473c0 9.73 21.188 17.565 47.362 17.565s47.362-7.835 47.362-17.565v-22.989z" fill="#cacaca"/><path id="XMLID_993_" d="m0 39.607v23.678c0 9.73 21.188 17.565 47.362 17.565s47.362-7.835 47.362-17.565v-23.678z" fill="#30ade0"/><path id="XMLID_991_" d="m0 17.565v22.042c0 9.73 21.188 17.565 47.362 17.565s47.362-7.835 47.362-17.565v-22.042z" fill="#cacaca"/><ellipse id="XMLID_990_" cx="47.362" cy="17.565" fill="#30ade0" rx="47.362" ry="17.565"/><ellipse id="XMLID_979_" cx="93.83" cy="94.036" fill="#e85aa0" rx="30.17" ry="29.964"/><path id="XMLID_1515_" d="m98.243 74.405h-15.714c-1.478 0-2.669 1.296-2.669 2.881v33.5c0 1.595 1.201 2.881 2.669 2.881h22.603c1.478 0 2.669-1.296 2.669-2.881v-28.584z" fill="#f7f7f5"/><path id="XMLID_1260_" d="m98.243 74.405v9.674h9.558v-1.878z" fill="#cacaca"/><g fill="#e85aa0"><path id="XMLID_25_" d="m87.242 107.53c-1.104 0-2-.896-2-2v-10.078c0-1.104.896-2 2-2s2 .896 2 2v10.078c0 1.105-.895 2-2 2z"/><path id="XMLID_26_" d="m93.83 107.53c-1.104 0-2-.896-2-2v-6.506c0-1.104.896-2 2-2s2 .896 2 2v6.506c0 1.105-.895 2-2 2z"/><path id="XMLID_27_" d="m100.419 107.53c-1.104 0-2-.896-2-2v-13.433c0-1.104.896-2 2-2s2 .896 2 2v13.434c0 1.104-.896 1.999-2 1.999z"/></g></svg>