<svg id="Layer_1" enable-background="new 0 0 124 124" height="512" viewBox="0 0 124 124" width="512" xmlns="http://www.w3.org/2000/svg"><path id="XMLID_1258_" d="m0 9h124v21.692h-124z" fill="#30ade0"/><path id="XMLID_1262_" d="m0 30.692h124v84.308h-124z" fill="#cacaca"/><g fill="#fff"><path id="XMLID_19_" d="m22.89 18.071h5.539v4h-5.539z"/><path id="XMLID_20_" d="m12.556 18.071h5.54v4h-5.54z"/><path id="XMLID_21_" d="m33.223 18.071h5.54v4h-5.54z"/><path id="XMLID_22_" d="m43.317 18.071h68.127v4h-68.127z"/></g><path id="XMLID_1335_" d="m18.7 67.549v16.807c0 6.906 14.687 12.468 32.83 12.468s32.83-5.562 32.83-12.468v-16.318z" fill="#78af42"/><path id="XMLID_1334_" d="m18.7 51.903v15.646c0 6.906 14.687 12.468 32.83 12.468s32.83-5.562 32.83-12.468v-15.646z" fill="#99cf6c"/><ellipse id="XMLID_1333_" cx="51.53" cy="51.903" fill="#78af42" rx="32.83" ry="12.468"/><ellipse id="XMLID_1331_" cx="84.36" cy="85.349" fill="#fff" rx="20.94" ry="21.255"/><path id="XMLID_24_" d="m70.096 92.486c-1.8 0-2.672-2.298-1.332-3.493l9.01-8.034c.758-.676 1.904-.676 2.662 0l7.578 6.758 8.725-9.001c.771-.794 2.036-.813 2.828-.045.794.77.813 2.035.045 2.828l-10.061 10.379c-.746.772-1.967.814-2.768.102l-7.679-6.848-7.679 6.848c-.38.339-.856.506-1.329.506z" fill="#fdbe4a"/></svg>