<svg id="Layer_1" enable-background="new 0 0 124 124" height="512" viewBox="0 0 124 124" width="512" xmlns="http://www.w3.org/2000/svg"><ellipse id="XMLID_1382_" cx="62.597" cy="66.886" fill="#30ade0" rx="52.621" ry="52.114"/><g fill="#f7f7f5"><path id="XMLID_5_" d="m49.884 42.297c-1.311-.338-2.576-.728-3.805-1.153-2.07 7.569-3.417 15.889-3.725 23.736h4.002c.314-7.856 1.643-15.672 3.528-22.583z"/><path id="XMLID_6_" d="m77.942 97.346c-1.246-.405-2.527-.783-3.87-1.1-3.472 11.086-8.211 18.802-11.985 18.802-.019 0-.037 0-.056 0-1.355 0-2.708-1.096-3.604-2.017-2.89-2.969-5.804-8.919-8.054-16.437-1.319.352-2.591.752-3.82 1.191 2.346 7.88 5.491 14.431 9.013 18.049 1.737 1.784 3.538 2.824 5.367 3.124.553.017 1.105.042 1.663.042.113 0 .223-.008.336-.008 6.243-.779 11.481-10.067 15.01-21.646z"/><path id="XMLID_7_" d="m75.19 92.392c1.33.32 2.605.694 3.847 1.095 2.128-8.113 3.437-16.951 3.717-24.595h-4.004c-.309 8.252-1.657 16.398-3.56 23.5z"/><path id="XMLID_8_" d="m47.214 37.291c1.227.429 2.493.818 3.807 1.153 3.673-11.537 8.794-19.72 12.815-19.72h.069c1.073.025 2.248.707 3.492 2.028 3.086 3.276 5.844 9.555 7.878 17.165 1.3-.389 2.566-.818 3.781-1.296-2.226-8.163-5.281-14.939-8.751-18.623-1.677-1.78-3.436-2.833-5.242-3.163-.691-.032-1.387-.047-2.085-.052-6.12.829-11.882 10.29-15.764 22.508z"/><path id="XMLID_9_" d="m80.039 40.535c-1.231.471-2.492.913-3.803 1.3 1.607 7.229 2.568 15.318 2.591 23.045h4c-.019-8.21-1.047-16.724-2.788-24.345z"/><path id="XMLID_10_" d="m46.283 68.891h-3.998c.05 8.404 1.237 17.189 3.204 25.012 1.233-.433 2.506-.828 3.823-1.18-1.811-7.204-2.987-15.488-3.029-23.832z"/><path id="XMLID_11_" d="m96.964 27.44c-.485-.415-.976-.823-1.476-1.22-4.037 3.68-9.545 7.687-16.431 10.4-10.158 4.003-21.533 4.28-31.843.671-7.661-2.682-13.615-7.02-17.763-10.872-.442.356-.874.723-1.304 1.093l-1.58 1.699c4.506 4.215 11.046 9.006 19.512 11.932 11.008 3.805 23.092 3.552 33.96-.609 7.748-2.966 13.91-7.451 18.351-11.534z"/><path id="XMLID_12_" d="m98.571 104.509c-3.836-3.323-10.507-8.111-19.535-11.023-10.873-3.506-22.764-3.372-33.547.417-7.93 2.787-14.142 7.09-18.537 10.951-.067.059-.121.126-.178.191.987.909 2.011 1.779 3.066 2.611 4.023-3.493 9.62-7.333 16.714-9.871 10.078-3.606 21.213-3.75 31.387-.439 8.152 2.653 14.218 6.949 17.793 10.013 1.046-.841 2.054-1.726 3.032-2.643-.061-.071-.121-.143-.195-.207z"/><path id="XMLID_13_" d="m115.167 64.88h-105.14c-.026.667-.051 1.333-.051 2.006s.026 1.339.051 2.005h105.14c.026-.666.051-1.333.051-2.005 0-.673-.026-1.339-.051-2.006z"/></g><path id="XMLID_1397_" d="m119.304 5h-28.234c-2.595 0-4.706 2.106-4.706 4.695v21.125c0 2.589 2.111 4.695 4.706 4.695h7.054v6.163c0 .715.831 1.127 1.407.711l9.183-6.865h10.581c2.595 0 4.706-2.106 4.706-4.695v-21.134c.008-2.589-2.103-4.695-4.697-4.695z" fill="#e85aa0"/><path id="XMLID_14_" d="m115.456 17.634h-20.548c-1.104 0-2-.896-2-2s.896-2 2-2h20.548c1.104 0 2 .896 2 2s-.895 2-2 2z" fill="#f7f7f5"/><path id="XMLID_15_" d="m115.456 27.439h-20.548c-1.104 0-2-.896-2-2s.896-2 2-2h20.548c1.104 0 2 .896 2 2s-.895 2-2 2z" fill="#f7f7f5"/><path id="XMLID_1108_" d="m4.696 21.695h28.234c2.595 0 4.706 2.106 4.706 4.695v21.124c0 2.589-2.111 4.695-4.706 4.695h-7.054v6.163c0 .715-.831 1.127-1.407.711l-9.183-6.865h-10.58c-2.595.001-4.706-2.105-4.706-4.694v-21.134c-.009-2.589 2.102-4.695 4.696-4.695z" fill="#fdbe4a"/><path id="XMLID_16_" d="m29.092 34.328h-20.548c-1.104 0-2-.896-2-2s.896-2 2-2h20.548c1.104 0 2 .896 2 2s-.896 2-2 2z" fill="#fff"/><path id="XMLID_17_" d="m29.092 44.134h-20.548c-1.104 0-2-.896-2-2s.896-2 2-2h20.548c1.104 0 2 .896 2 2s-.896 2-2 2z" fill="#fff"/></svg>