<svg enable-background="new 0 0 58 50" height="512" viewBox="0 0 58 50" width="512" xmlns="http://www.w3.org/2000/svg"><g fill="#e7eced"><path d="m27 39c-.552 0-1-.448-1-1v-24c0-.552.448-1 1-1s1 .448 1 1v24c0 .552-.448 1-1 1z"/><path d="m42 42h-12c-.552 0-1-.448-1-1s.448-1 1-1h12c.552 0 1 .448 1 1s-.448 1-1 1z"/><path d="m42 12h-12c-.552 0-1-.448-1-1s.448-1 1-1h12c.552 0 1 .448 1 1s-.448 1-1 1z"/><path d="m27 27h-11c-.552 0-1-.448-1-1s.448-1 1-1h11c.552 0 1 .448 1 1s-.448 1-1 1z"/></g><circle cx="27" cy="41" fill="#dd352e" r="3"/><circle cx="27" cy="11" fill="#dd352e" r="3"/><path d="m10 18-2-4h-8v4 16h16v-16z" fill="#ebba16"/><path d="m5 25h-1c-.552 0-1-.448-1-1s.448-1 1-1h1c.552 0 1 .448 1 1s-.448 1-1 1z" fill="#f7e6a1"/><path d="m12 25h-3c-.552 0-1-.448-1-1s.448-1 1-1h3c.552 0 1 .448 1 1s-.448 1-1 1z" fill="#f7e6a1"/><path d="m12 29h-1c-.552 0-1-.448-1-1s.448-1 1-1h1c.552 0 1 .448 1 1s-.448 1-1 1z" fill="#f7e6a1"/><path d="m7 29h-3c-.552 0-1-.448-1-1s.448-1 1-1h3c.552 0 1 .448 1 1s-.448 1-1 1z" fill="#f7e6a1"/><path d="m10 19h-4c-.552 0-1-.448-1-1s.448-1 1-1h4c.552 0 1 .448 1 1s-.448 1-1 1z" fill="#c49a23"/><path d="m52 34-2-4h-8v4 16h16v-16z" fill="#ebba16"/><path d="m47 41h-1c-.552 0-1-.448-1-1s.448-1 1-1h1c.552 0 1 .448 1 1s-.448 1-1 1z" fill="#f7e6a1"/><path d="m54 41h-3c-.552 0-1-.448-1-1s.448-1 1-1h3c.552 0 1 .448 1 1s-.448 1-1 1z" fill="#f7e6a1"/><path d="m54 45h-1c-.552 0-1-.448-1-1s.448-1 1-1h1c.552 0 1 .448 1 1s-.448 1-1 1z" fill="#f7e6a1"/><path d="m49 45h-3c-.552 0-1-.448-1-1s.448-1 1-1h3c.552 0 1 .448 1 1s-.448 1-1 1z" fill="#f7e6a1"/><path d="m52 35h-4c-.552 0-1-.448-1-1s.448-1 1-1h4c.552 0 1 .448 1 1s-.448 1-1 1z" fill="#c49a23"/><path d="m52 4-2-4h-8v4 16h16v-16z" fill="#ebba16"/><path d="m47 11h-1c-.552 0-1-.448-1-1s.448-1 1-1h1c.552 0 1 .448 1 1s-.448 1-1 1z" fill="#f7e6a1"/><path d="m54 11h-3c-.552 0-1-.448-1-1s.448-1 1-1h3c.552 0 1 .448 1 1s-.448 1-1 1z" fill="#f7e6a1"/><path d="m54 15h-1c-.552 0-1-.448-1-1s.448-1 1-1h1c.552 0 1 .448 1 1s-.448 1-1 1z" fill="#f7e6a1"/><path d="m49 15h-3c-.552 0-1-.448-1-1s.448-1 1-1h3c.552 0 1 .448 1 1s-.448 1-1 1z" fill="#f7e6a1"/><path d="m52 5h-4c-.552 0-1-.448-1-1s.448-1 1-1h4c.552 0 1 .448 1 1s-.448 1-1 1z" fill="#c49a23"/></svg>