<svg enable-background="new 0 0 58 50" height="512" viewBox="0 0 58 50" width="512" xmlns="http://www.w3.org/2000/svg"><g fill="#e7eced"><path d="m28.999 21c-.485 0-.911-.354-.987-.848l-2-13c-.084-.546.29-1.057.836-1.141.546-.088 1.056.29 1.14.836l2 13c.084.546-.29 1.057-.836 1.141-.051.008-.103.012-.153.012z"/><path d="m33 23c-.286 0-.571-.122-.769-.359-.354-.425-.296-1.056.128-1.409l18-15c.424-.352 1.055-.296 1.408.128.354.425.296 1.056-.128 1.409l-18 15c-.186.155-.413.231-.639.231z"/><path d="m7 45c-.276 0-.55-.113-.748-.336-.367-.412-.33-1.045.083-1.411l18-16c.413-.367 1.045-.33 1.412.083.367.412.33 1.045-.083 1.411l-18 16c-.19.17-.427.253-.664.253z"/><path d="m24 24c-.134 0-.27-.026-.4-.084l-16-7c-.506-.222-.737-.811-.515-1.316.221-.507.811-.739 1.317-.516l16 7c.506.222.737.811.515 1.316-.165.376-.532.6-.917.6z"/><path d="m44 38c-.226 0-.453-.076-.64-.231l-12-10c-.424-.354-.482-.984-.128-1.409s.984-.479 1.408-.128l12 10c.424.354.482.984.128 1.409-.197.237-.482.359-.768.359z"/></g><circle cx="29" cy="25" fill="#dd352e" r="7"/><circle cx="53" cy="5" fill="#bf4d90" r="5"/><circle cx="5" cy="45" fill="#ebba16" r="5"/><circle cx="7" cy="16" fill="#366db6" r="3"/><circle cx="27" cy="5" fill="#57d8ab" r="3"/><circle cx="45" cy="38" fill="#57abc1" r="3"/></svg>