<svg enable-background="new 0 0 60 59" height="512" viewBox="0 0 60 59" width="512" xmlns="http://www.w3.org/2000/svg"><g fill="#57abc1"><path d="m59 59h-4c-.552 0-1-.448-1-1s.448-1 1-1h4c.552 0 1 .448 1 1s-.448 1-1 1z"/><path d="m24 59h-23c-.552 0-1-.448-1-1s.448-1 1-1h23c.552 0 1 .448 1 1s-.448 1-1 1z"/><path d="m48 59h-12c-.552 0-1-.448-1-1s.448-1 1-1h12c.552 0 1 .448 1 1s-.448 1-1 1z"/></g><path d="m50 20c0-11.371-9.489-20.525-20.981-19.977-10.302.493-18.692 9.037-19.009 19.346-.234 7.607 3.784 14.35 9.857 17.956 4.945 2.936 8.133 8.104 8.133 13.855v4.82c0 1.105.895 2 2 2 1.105 0 2-.895 2-2v-5.104c0-5.617 3.135-10.659 7.988-13.486 5.985-3.485 10.012-10.003 10.012-17.41z" fill="#dd352e"/><path d="m30 6c-3.866 0-7 3.134-7 7v6h4v-6c0-1.657 1.343-3 3-3s3 1.343 3 3v6h4v-6c0-3.866-3.134-7-7-7z" fill="#fff"/><path d="m21 18h18v14h-18z" fill="#ebba16"/><path d="m21 28h18v4h-18z" fill="#e8d39a"/><path d="m30 25c-.552 0-1-.448-1-1v-2c0-.552.448-1 1-1s1 .448 1 1v2c0 .552-.448 1-1 1z" fill="#fff"/><path d="m32 23h-4c-.552 0-1-.448-1-1s.448-1 1-1h4c.552 0 1 .448 1 1s-.448 1-1 1z" fill="#fff"/></svg>