<svg enable-background="new 0 0 60 60" height="512" viewBox="0 0 60 60" width="512" xmlns="http://www.w3.org/2000/svg"><path d="m50 56h-2c-.552 0-1-.447-1-1s.448-1 1-1h2c.552 0 1 .447 1 1s-.448 1-1 1zm-6 0h-2c-.552 0-1-.447-1-1s.448-1 1-1h2c.552 0 1 .447 1 1s-.448 1-1 1zm-6 0h-3c-.552 0-1-.447-1-1s.448-1 1-1h3c.552 0 1 .447 1 1s-.448 1-1 1zm-7 0h-2c-.552 0-1-.447-1-1s.448-1 1-1h2c.552 0 1 .447 1 1s-.448 1-1 1zm-6 0h-2c-.552 0-1-.447-1-1s.448-1 1-1h2c.552 0 1 .447 1 1s-.448 1-1 1zm-6 0h-3c-.552 0-1-.447-1-1s.448-1 1-1h3c.552 0 1 .447 1 1s-.448 1-1 1zm-7 0h-2c-.552 0-1-.447-1-1s.448-1 1-1h2c.552 0 1 .447 1 1s-.448 1-1 1zm-7-5c-.552 0-1-.447-1-1v-3c0-.553.448-1 1-1s1 .447 1 1v3c0 .553-.448 1-1 1zm50-1c-.552 0-1-.447-1-1v-2c0-.553.448-1 1-1s1 .447 1 1v2c0 .553-.448 1-1 1zm0-6c-.552 0-1-.447-1-1v-2c0-.553.448-1 1-1s1 .447 1 1v2c0 .553-.448 1-1 1zm-50 0c-.552 0-1-.447-1-1v-2c0-.553.448-1 1-1s1 .447 1 1v2c0 .553-.448 1-1 1zm50-6c-.552 0-1-.447-1-1v-3c0-.553.448-1 1-1s1 .447 1 1v3c0 .553-.448 1-1 1zm-50 0c-.552 0-1-.447-1-1v-2c0-.553.448-1 1-1s1 .447 1 1v2c0 .553-.448 1-1 1zm0-11c-.552 0-1-.447-1-1v-2c0-.553.448-1 1-1s1 .447 1 1v2c0 .553-.448 1-1 1zm50-1c-.552 0-1-.447-1-1v-2c0-.553.448-1 1-1s1 .447 1 1v2c0 .553-.448 1-1 1zm-50-5c-.552 0-1-.447-1-1v-3c0-.553.448-1 1-1s1 .447 1 1v3c0 .553-.448 1-1 1zm50-1c-.552 0-1-.447-1-1v-3c0-.553.448-1 1-1s1 .447 1 1v3c0 .553-.448 1-1 1zm-50-6c-.552 0-1-.447-1-1v-2c0-.553.448-1 1-1s1 .447 1 1v2c0 .553-.448 1-1 1zm50-1c-.552 0-1-.447-1-1v-2c0-.553.448-1 1-1s1 .447 1 1v2c0 .553-.448 1-1 1zm-5-7h-3c-.552 0-1-.447-1-1s.448-1 1-1h3c.552 0 1 .447 1 1s-.448 1-1 1zm-7 0h-2c-.552 0-1-.447-1-1s.448-1 1-1h2c.552 0 1 .447 1 1s-.448 1-1 1zm-6 0h-2c-.552 0-1-.447-1-1s.448-1 1-1h2c.552 0 1 .447 1 1s-.448 1-1 1zm-6 0h-3c-.552 0-1-.447-1-1s.448-1 1-1h3c.552 0 1 .447 1 1s-.448 1-1 1zm-7 0h-2c-.552 0-1-.447-1-1s.448-1 1-1h2c.552 0 1 .447 1 1s-.448 1-1 1zm-6 0h-2c-.552 0-1-.447-1-1s.448-1 1-1h2c.552 0 1 .447 1 1s-.448 1-1 1zm-6 0h-3c-.552 0-1-.447-1-1s.448-1 1-1h3c.552 0 1 .447 1 1s-.448 1-1 1z" fill="#25ae88"/><g fill="#405163"><path d="m9 10h-8c-.552 0-1-.447-1-1v-8c0-.553.448-1 1-1h8c.552 0 1 .447 1 1v8c0 .553-.448 1-1 1z"/><path d="m9 35h-8c-.552 0-1-.447-1-1v-8c0-.553.448-1 1-1h8c.552 0 1 .447 1 1v8c0 .553-.448 1-1 1z"/><path d="m59 35h-8c-.552 0-1-.447-1-1v-8c0-.553.448-1 1-1h8c.552 0 1 .447 1 1v8c0 .553-.448 1-1 1z"/><path d="m9 60h-8c-.552 0-1-.447-1-1v-8c0-.553.448-1 1-1h8c.552 0 1 .447 1 1v8c0 .553-.448 1-1 1z"/><path d="m59 10h-8c-.552 0-1-.447-1-1v-8c0-.553.448-1 1-1h8c.552 0 1 .447 1 1v8c0 .553-.448 1-1 1z"/><path d="m59 60h-8c-.552 0-1-.447-1-1v-8c0-.553.448-1 1-1h8c.552 0 1 .447 1 1v8c0 .553-.448 1-1 1z"/></g><path clip-rule="evenodd" d="m29.266 12.887c-1.49 1.596-5.332 4.813-12.286 5.093-.543.022-.98.455-.98.999v10.127c0 5.052 1.545 10.062 4.752 13.966 2.208 2.688 5.248 4.928 9.248 4.928s7.04-2.24 9.248-4.928c3.207-3.904 4.752-8.914 4.752-13.966v-10.127c0-.544-.437-.977-.98-.998-6.954-.28-10.796-3.497-12.286-5.093-.4-.43-1.068-.43-1.468-.001z" fill="#1081e0" fill-rule="evenodd"/><path d="m34 30h-8c-.552 0-1-.448-1-1v-4c0-2.757 2.243-5 5-5s5 2.243 5 5v4c0 .552-.448 1-1 1zm-7-2h6v-3c0-1.654-1.346-3-3-3s-3 1.346-3 3z" fill="#fff"/><path d="m35 38h-10c-.552 0-1-.448-1-1v-8c0-.552.448-1 1-1h10c.552 0 1 .448 1 1v8c0 .552-.448 1-1 1z" fill="#ebba16"/><path d="m30 35c-.552 0-1-.448-1-1v-2c0-.552.448-1 1-1s1 .448 1 1v2c0 .552-.448 1-1 1z" fill="#fff"/><path d="m32 33h-4c-.552 0-1-.448-1-1s.448-1 1-1h4c.552 0 1 .448 1 1s-.448 1-1 1z" fill="#fff"/></svg>