<svg enable-background="new 0 0 58 50" height="512" viewBox="0 0 58 50" width="512" xmlns="http://www.w3.org/2000/svg"><path d="m0 2.999v35.002c0 1.656 1.343 2.999 2.999 2.999h17.001l9 9 9-9h17.001c1.656 0 2.999-1.343 2.999-2.999v-35.002c0-1.656-1.343-2.999-2.999-2.999h-52.002c-1.656 0-2.999 1.343-2.999 2.999z" fill="#366db6"/><g fill="#fff"><path d="m46 37h-12c-.552 0-1-.447-1-1s.448-1 1-1h12c.552 0 1 .447 1 1s-.448 1-1 1z"/><path d="m30 37h-11c-.552 0-1-.447-1-1s.448-1 1-1h11c.552 0 1 .447 1 1s-.448 1-1 1z"/><path d="m38 33h-8c-.552 0-1-.447-1-1s.448-1 1-1h8c.552 0 1 .447 1 1s-.448 1-1 1z"/><path d="m15 37h-3c-.552 0-1-.447-1-1s.448-1 1-1h3c.552 0 1 .447 1 1s-.448 1-1 1z"/><path d="m26 33h-14c-.552 0-1-.447-1-1s.448-1 1-1h14c.552 0 1 .447 1 1s-.448 1-1 1z"/><path d="m46 33h-4c-.552 0-1-.447-1-1s.448-1 1-1h4c.552 0 1 .447 1 1s-.448 1-1 1z"/></g><path d="m29 5c-3.314 0-6 2.686-6 6v5h4v-5c0-1.105.896-2 2-2s2 .895 2 2v5h4v-5c0-3.314-2.686-6-6-6z" fill="#e7eced"/><path d="m21 15h16v12h-16z" fill="#ebba16"/><path d="m26 19h6v4h-6z" fill="#405163"/></svg>