<svg enable-background="new 0 0 58 59" height="512" viewBox="0 0 58 59" width="512" xmlns="http://www.w3.org/2000/svg"><path d="m43 3-3-3h-25c-.552 0-1 .448-1 1v21h32v-16z" fill="#e7eced"/><path d="m36 10h-4c-.552 0-1-.448-1-1s.448-1 1-1h4c.552 0 1 .448 1 1s-.448 1-1 1z" fill="#75348b"/><path d="m27.97 10h-9.97c-.552 0-1-.448-1-1s.448-1 1-1h9.97c.552 0 1 .448 1 1s-.448 1-1 1z" fill="#dc691d"/><path d="m20 6h-2c-.552 0-1-.448-1-1s.448-1 1-1h2c.552 0 1 .448 1 1s-.448 1-1 1z" fill="#ebba16"/><path d="m36 6h-12c-.552 0-1-.448-1-1s.448-1 1-1h12c.552 0 1 .448 1 1s-.448 1-1 1z" fill="#dd352e"/><path d="m42 18h-10c-.552 0-1-.448-1-1s.448-1 1-1h10c.552 0 1 .448 1 1s-.448 1-1 1z" fill="#57abc1"/><path d="m27.97 18h-9.97c-.552 0-1-.448-1-1s.448-1 1-1h9.97c.552 0 1 .448 1 1s-.448 1-1 1z" fill="#61b872"/><path d="m20 14h-2c-.552 0-1-.448-1-1s.448-1 1-1h2c.552 0 1 .448 1 1s-.448 1-1 1z" fill="#366db6"/><path d="m42 14h-18c-.552 0-1-.448-1-1s.448-1 1-1h18c.552 0 1 .448 1 1s-.448 1-1 1z" fill="#fc3952"/><path d="m43 3-3-3v6h6z" fill="#afb6bb"/><g fill="#e7eced"><path d="m30 59c-.552 0-1-.448-1-1v-15c0-.552.448-1 1-1s1 .448 1 1v15c0 .552-.448 1-1 1z"/><path d="m26 59c-.552 0-1-.448-1-1v-15c0-.552.448-1 1-1s1 .448 1 1v15c0 .552-.448 1-1 1z"/><path d="m22 59c-.552 0-1-.448-1-1v-15c0-.552.448-1 1-1s1 .448 1 1v15c0 .552-.448 1-1 1z"/><path d="m18 59c-.552 0-1-.448-1-1v-15c0-.552.448-1 1-1s1 .448 1 1v15c0 .552-.448 1-1 1z"/><path d="m14 59c-.552 0-1-.448-1-1v-15c0-.552.448-1 1-1s1 .448 1 1v15c0 .552-.448 1-1 1z"/><path d="m46 59c-.552 0-1-.448-1-1v-15c0-.552.448-1 1-1s1 .448 1 1v15c0 .552-.448 1-1 1z"/><path d="m42 59c-.552 0-1-.448-1-1v-15c0-.552.448-1 1-1s1 .448 1 1v15c0 .552-.448 1-1 1z"/><path d="m38 59c-.552 0-1-.448-1-1v-15c0-.552.448-1 1-1s1 .448 1 1v15c0 .552-.448 1-1 1z"/><path d="m34 59c-.552 0-1-.448-1-1v-15c0-.552.448-1 1-1s1 .448 1 1v15c0 .552-.448 1-1 1z"/></g><path d="m0 22v20c0 .552.448 1 1 1h13 32 11c.552 0 1-.448 1-1v-20c0-.552-.448-1-1-1h-56c-.552 0-1 .448-1 1z" fill="#405163"/><path d="m12 39h36v4h-36z" fill="#677989"/><circle cx="51" cy="28" fill="#fff" r="3"/><path d="m18 27h-14c-.552 0-1-.448-1-1s.448-1 1-1h14c.552 0 1 .448 1 1s-.448 1-1 1z" fill="#dd352e"/><path d="m6 31h-2c-.552 0-1-.448-1-1s.448-1 1-1h2c.552 0 1 .448 1 1s-.448 1-1 1z" fill="#ebba16"/><path d="m18 31h-2c-.552 0-1-.448-1-1s.448-1 1-1h2c.552 0 1 .448 1 1s-.448 1-1 1z" fill="#57abc1"/><path d="m12 31h-2c-.552 0-1-.448-1-1s.448-1 1-1h2c.552 0 1 .448 1 1s-.448 1-1 1z" fill="#61b872"/></svg>