<svg enable-background="new 0 0 28 59" height="512" viewBox="0 0 28 59" width="512" xmlns="http://www.w3.org/2000/svg"><path d="m14 59c-.552 0-1-.447-1-1v-14c0-.553.448-1 1-1s1 .447 1 1v14c0 .553-.448 1-1 1z" fill="#6c797a"/><path d="m14 44c-7.732 0-14-6.268-14-14v-16c0-7.732 6.268-14 14-14 7.732 0 14 6.268 14 14v16c0 7.732-6.268 14-14 14z" fill="#e7eced"/><path d="m14 31c-.552 0-1-.447-1-1v-8c0-.553.448-1 1-1s1 .447 1 1v8c0 .553-.448 1-1 1z" fill="#fff"/><path d="m12 30h4v4h-4z" fill="#28384c"/><circle cx="14" cy="14" fill="#c6e2f7" r="8"/><path d="m14 19c-2.757 0-5-2.243-5-5s2.243-5 5-5c.552 0 1 .447 1 1s-.448 1-1 1c-1.654 0-3 1.346-3 3s1.346 3 3 3 3-1.346 3-3c0-.553.448-1 1-1s1 .447 1 1c0 2.757-2.243 5-5 5z" fill="#28384c"/><path d="m18 39h-8c-.552 0-1-.447-1-1s.448-1 1-1h8c.552 0 1 .447 1 1s-.448 1-1 1z" fill="#6c797a"/><path d="m20 59h-12c-.552 0-1-.447-1-1s.448-1 1-1h12c.552 0 1 .447 1 1s-.448 1-1 1z" fill="#e7eced"/></svg>