<svg enable-background="new 0 0 32 60" height="512" viewBox="0 0 32 60" width="512" xmlns="http://www.w3.org/2000/svg"><path d="m22 60h-12c-.552 0-1-.447-1-1s.448-1 1-1h12c.552 0 1 .447 1 1s-.448 1-1 1z" fill="#7383bf"/><path d="m16 60c-.552 0-1-.447-1-1v-6c0-.553.448-1 1-1s1 .447 1 1v6c0 .553-.448 1-1 1z" fill="#556080"/><path d="m16 19c7.18 0 13 5.82 13 13v8c0 7.18-5.82 13-13 13-7.18 0-13-5.82-13-13v-8c0-7.18 5.82-13 13-13z" fill="#7383bf"/><path d="m18 27h-4c-.552 0-1-.447-1-1s.448-1 1-1h4c.552 0 1 .447 1 1s-.448 1-1 1z" fill="#fff"/><path d="m16 33c-.552 0-1-.447-1-1v-6c0-.553.448-1 1-1s1 .447 1 1v6c0 .553-.448 1-1 1z" fill="#fff"/><circle cx="16" cy="40" fill="#c6e2f7" r="8"/><path d="m16 45c-.552 0-1-.447-1-1s.448-1 1-1c1.654 0 3-1.346 3-3s-1.346-3-3-3-3 1.346-3 3c0 .553-.448 1-1 1s-1-.447-1-1c0-2.757 2.243-5 5-5s5 2.243 5 5-2.243 5-5 5z" fill="#28384c"/><path d="m31 17c-.552 0-1-.447-1-1 0-7.72-6.28-14-14-14s-14 6.28-14 14c0 .553-.448 1-1 1s-1-.447-1-1c0-8.822 7.178-16 16-16s16 7.178 16 16c0 .553-.448 1-1 1z" fill="#8db2c4"/><path d="m27 17c-.552 0-1-.447-1-1 0-5.514-4.486-10-10-10s-10 4.486-10 10c0 .553-.448 1-1 1s-1-.447-1-1c0-6.617 5.383-12 12-12s12 5.383 12 12c0 .553-.448 1-1 1z" fill="#abcadd"/><path d="m23 17c-.552 0-1-.447-1-1 0-3.309-2.691-6-6-6s-6 2.691-6 6c0 .553-.448 1-1 1s-1-.447-1-1c0-4.411 3.589-8 8-8s8 3.589 8 8c0 .553-.448 1-1 1z" fill="#c6e2f7"/></svg>