<svg enable-background="new 0 0 57.58 55.133" height="512" viewBox="0 0 57.58 55.133" width="512" xmlns="http://www.w3.org/2000/svg"><path d="m50.549 27.821-4.624 7.147c-.344.532-.113 1.247.478 1.476l5.785 2.241c.466.18.993-.01 1.235-.447l4.031-7.255c.291-.523.06-1.183-.494-1.411l-5.191-2.133c-.446-.182-.959-.022-1.22.382z" fill="#28384c"/><path d="m21.025 40.506c-2.138 3.081-7.598 6.494-14.025 6.494h-3v4h3c8.596 0 15.841-4.267 18.191-9.452z" fill="#e7eced"/><path d="m17.557 32.819 1.318 6.561c.076.379.363.679.738.773l6.886 1.721c.314.079.647 0 .893-.211l5.196-4.454c.605-.519.39-1.502-.376-1.721l-13.4-3.829c-.72-.204-1.402.426-1.255 1.16z" fill="#afb6bb"/><path d="m6.001 17c-.065 0-.131-.006-.197-.02l-5-1c-.468-.093-.804-.503-.804-.98v-14c0-.553.448-1 1-1s1 .447 1 1v13.181l4.196.839c.542.108.893.635.784 1.177-.094.475-.512.803-.979.803z" fill="#28384c"/><path d="m6.555 52.297-4 2.667c-.665.443-1.555-.034-1.555-.833v-10.262c0-.799.89-1.275 1.555-.832l4 2.667c.278.185.445.497.445.831v4.93c0 .334-.167.646-.445.832z" fill="#afb6bb"/><path d="m7.7 10.901-5.37 16.108c-.18.54.127 1.121.674 1.278l40.284 11.51c.423.121.875-.049 1.114-.418l9.858-15.234c.367-.567.078-1.327-.573-1.507l-44.772-12.385c-.513-.142-1.047.143-1.215.648z" fill="#e7eced"/><path d="m8.883 21c-.104 0-.211-.017-.316-.052-.524-.174-.807-.74-.632-1.265l1.711-5.133c.168-.505.703-.788 1.215-.647l8.406 2.325c.532.147.844.698.697 1.23s-.698.842-1.23.697l-7.491-2.072-1.411 4.232c-.14.42-.53.685-.949.685z" fill="#afb6bb"/></svg>