<svg enable-background="new 0 0 58 58" height="512" viewBox="0 0 58 58" width="512" xmlns="http://www.w3.org/2000/svg"><path d="m43.544 0h-31.088c-1.357 0-2.456 1.099-2.456 2.456v26.544 8 12h36v-26-18-2.544c0-1.357-1.099-2.456-2.456-2.456z" fill="#57abc1"/><path d="m43.544 58h-31.088c-1.357 0-2.456-1.099-2.456-2.456v-9.544h36v9.544c0 1.357-1.099 2.456-2.456 2.456z" fill="#e7eced"/><circle cx="28" cy="52" fill="#afb6bb" r="3"/><path d="m58 23h-26l-4 4v-7-15h30z" fill="#366db6"/><path d="m0 37h20l4 4v-8-4h-24z" fill="#ebba16"/><g fill="#fff"><path d="m48 11h-15c-.552 0-1-.447-1-1s.448-1 1-1h15c.552 0 1 .447 1 1s-.448 1-1 1z"/><path d="m53 11h-1c-.552 0-1-.447-1-1s.448-1 1-1h1c.552 0 1 .447 1 1s-.448 1-1 1z"/><path d="m48 19h-15c-.552 0-1-.447-1-1s.448-1 1-1h15c.552 0 1 .447 1 1s-.448 1-1 1z"/><path d="m53 19h-1c-.552 0-1-.447-1-1s.448-1 1-1h1c.552 0 1 .447 1 1s-.448 1-1 1z"/><path d="m53 15h-15c-.552 0-1-.447-1-1s.448-1 1-1h15c.552 0 1 .447 1 1s-.448 1-1 1z"/><path d="m34 15h-1c-.552 0-1-.447-1-1s.448-1 1-1h1c.552 0 1 .447 1 1s-.448 1-1 1z"/></g></svg>