<svg enable-background="new 0 0 58 58" height="512" viewBox="0 0 58 58" width="512" xmlns="http://www.w3.org/2000/svg"><circle cx="29" cy="29" fill="#25ae88" r="29"/><g fill="#fff"><path d="m42.121 43.571c-.495 0-.926-.368-.99-.872l-.867-6.73c-.071-.548.316-1.049.864-1.12.546-.079 1.049.316 1.119.864l.739 5.738 5.739-.739c.547-.075 1.049.316 1.119.864s-.316 1.049-.864 1.12l-6.73.867c-.043.006-.086.008-.129.008z"/><path d="m29.229 49c-11.028 0-20-8.972-20-20 0-5.267 2.314-10.159 7.076-14.955.389-.392 1.022-.395 1.414-.005.392.389.394 1.022.005 1.414-4.371 4.402-6.495 8.833-6.495 13.545 0 9.925 8.075 18 18 18 2.215 0 4.374-.393 6.416-1.169.516-.194 1.094.064 1.29.58s-.063 1.094-.58 1.29c-2.269.863-4.667 1.3-7.126 1.3z"/><path d="m42.122 43.571c-.251 0-.502-.094-.696-.282-.396-.384-.406-1.018-.022-1.414 3.92-4.042 5.825-8.254 5.825-12.875 0-9.925-8.075-18-18-18-1.596 0-3.195.458-4.741.9l-.214.061c-.533.15-1.084-.156-1.236-.687s.156-1.085.687-1.236l.212-.061c1.68-.48 3.416-.977 5.292-.977 11.028 0 20 8.972 20 20 0 5.166-2.09 9.833-6.389 14.268-.196.202-.457.303-.718.303z"/><path d="m17.606 22.51c-.513 0-.949-.392-.995-.913l-.505-5.764-5.763.505c-.549.056-1.035-.358-1.083-.909-.048-.55.359-1.035.909-1.083l6.76-.592c.549-.051 1.035.359 1.083.909l.592 6.76c.048.55-.359 1.035-.909 1.083-.03.003-.06.004-.089.004z"/></g><circle cx="29" cy="29" fill="#ebba16" r="7"/></svg>