<svg enable-background="new 0 0 50 58" height="512" viewBox="0 0 50 58" width="512" xmlns="http://www.w3.org/2000/svg"><path d="m19.464 55.453v-52.906c0-.585.205-1.117.536-1.547h-17.453c-1.407 0-2.547 1.14-2.547 2.547v50.907c0 1.406 1.14 2.546 2.547 2.546h17.453c-.331-.43-.536-.962-.536-1.547z" fill="#d9dcdd"/><circle cx="7.5" cy="7.5" fill="#28384c" r="2.5"/><path d="m14 9c-.552 0-1-.447-1-1v-1c0-.553.448-1 1-1s1 .447 1 1v1c0 .553-.448 1-1 1z" fill="#fff"/><g fill="#afb6bb"><path d="m18 46h-5c-.552 0-1-.447-1-1s.448-1 1-1h5c.552 0 1 .447 1 1s-.448 1-1 1z"/><path d="m18 50h-7c-.552 0-1-.447-1-1s.448-1 1-1h7c.552 0 1 .447 1 1s-.448 1-1 1z"/><path d="m18 22c-2.761 0-5 2.239-5 5s2.239 5 5 5z"/></g><path d="m18 5h32v49h-32z" fill="#3b5066"/><path d="m50 8h-32v-5.453c0-1.407 1.14-2.547 2.547-2.547h26.907c1.406 0 2.546 1.14 2.546 2.547z" fill="#e7eced"/><path d="m47.453 58h-26.906c-1.407 0-2.547-1.14-2.547-2.547v-5.453h32v5.453c0 1.407-1.14 2.547-2.547 2.547z" fill="#e7eced"/><path d="m34 5h-6c-.552 0-1-.447-1-1s.448-1 1-1h6c.552 0 1 .447 1 1s-.448 1-1 1z" fill="#afb6bb"/><path d="m37 55h-6c-.552 0-1-.447-1-1s.448-1 1-1h6c.552 0 1 .447 1 1s-.448 1-1 1z" fill="#afb6bb"/><path d="m39 5h-1c-.552 0-1-.447-1-1s.448-1 1-1h1c.552 0 1 .447 1 1s-.448 1-1 1z" fill="#afb6bb"/><path d="m25 19h18v7h-18z" fill="#556080"/><path d="m25 31h18v7h-18z" fill="#556080"/><path d="m23 37h22v8h-22z" fill="#7383bf"/><path d="m29 42h-2c-.552 0-1-.447-1-1s.448-1 1-1h2c.552 0 1 .447 1 1s-.448 1-1 1z" fill="#71c3a9"/><path d="m35 42h-2c-.552 0-1-.447-1-1s.448-1 1-1h2c.552 0 1 .447 1 1s-.448 1-1 1z" fill="#f76363"/><path d="m41 42h-2c-.552 0-1-.447-1-1s.448-1 1-1h2c.552 0 1 .447 1 1s-.448 1-1 1z" fill="#a1c8ec"/><path d="m23 25h22v8h-22z" fill="#7383bf"/><path d="m41 30h-7c-.552 0-1-.447-1-1s.448-1 1-1h7c.552 0 1 .447 1 1s-.448 1-1 1z" fill="#ebba16"/><path d="m30 30h-3c-.552 0-1-.447-1-1s.448-1 1-1h3c.552 0 1 .447 1 1s-.448 1-1 1z" fill="#fff"/><path d="m23 13h22v8h-22z" fill="#7383bf"/><path d="m29 18h-2c-.552 0-1-.447-1-1s.448-1 1-1h2c.552 0 1 .447 1 1s-.448 1-1 1z" fill="#ebba16"/><path d="m35 18h-2c-.552 0-1-.447-1-1s.448-1 1-1h2c.552 0 1 .447 1 1s-.448 1-1 1z" fill="#dd352e"/><path d="m41 18h-2c-.552 0-1-.447-1-1s.448-1 1-1h2c.552 0 1 .447 1 1s-.448 1-1 1z" fill="#fff"/></svg>