<svg enable-background="new 0 0 58 58" height="512" viewBox="0 0 58 58" width="512" xmlns="http://www.w3.org/2000/svg"><path d="m27 41h4v11h-4z" fill="#e7eced"/><path d="m55.298 42h-52.596c-1.492 0-2.702-1.21-2.702-2.702v-28.298h58v28.298c0 1.492-1.21 2.702-2.702 2.702z" fill="#ebba16"/><path d="m31.584 24.094h-.002c-.088 0-.12-.108-.047-.157 1.351-.917 2.161-2.541 1.856-4.328-.299-1.752-1.715-3.185-3.497-3.524-2.852-.542-5.349 1.58-5.349 4.273 0 1.484.76 2.791 1.918 3.577.073.049.041.158-.048.158-2.439 0-4.416 1.935-4.416 4.321v5.057c0 1.967 1.162 4.005 3 4.528v4h8v-4c1.838-.523 3-2.562 3-4.528v-5.057c.001-2.385-1.976-4.32-4.415-4.32z" fill="#f7efd0"/><path d="m44.584 26.094h-.002c-.088 0-.12-.108-.047-.157 1.351-.917 2.161-2.541 1.856-4.328-.299-1.752-1.715-3.185-3.497-3.524-2.852-.542-5.349 1.58-5.349 4.273 0 1.484.76 2.791 1.918 3.577.073.049.041.158-.048.158-1.422 0-2.673.669-3.481 1.69.032.209.066.416.066.632v5.057c0 .763-.179 1.533-.5 2.225.507 1.092 1.375 1.983 2.5 2.303v4h8v-4c1.838-.523 3-2.562 3-4.528v-3.057c0-2.386-1.977-4.321-4.416-4.321z" fill="#f7e6a1"/><path d="m13.416 26.094h.002c.088 0 .12-.108.047-.157-1.351-.917-2.161-2.541-1.856-4.328.299-1.752 1.715-3.185 3.497-3.524 2.852-.542 5.349 1.58 5.349 4.273 0 1.484-.76 2.791-1.918 3.577-.073.049-.041.158.048.158 1.422 0 2.673.669 3.481 1.69-.032.209-.066.416-.066.632v5.057c0 .763.179 1.533.5 2.225-.507 1.092-1.375 1.983-2.5 2.303v4h-8v-4c-1.838-.523-3-2.562-3-4.528v-3.057c0-2.386 1.977-4.321 4.416-4.321z" fill="#f7e6a1"/><path d="m24 56h-22c-1.105 0-2-.895-2-2 0-1.105.895-2 2-2h22z" fill="#e7eced"/><path d="m56 56h-22v-4h22c1.105 0 2 .895 2 2 0 1.105-.895 2-2 2z" fill="#e7eced"/><path d="m23 50h12v8h-12z" fill="#afb6bb"/><g fill="#d3c588"><path d="m25 39c-.552 0-1-.448-1-1v-7c0-.552.448-1 1-1s1 .448 1 1v7c0 .552-.448 1-1 1z"/><path d="m33 39c-.552 0-1-.448-1-1v-7c0-.552.448-1 1-1s1 .448 1 1v7c0 .552-.448 1-1 1z"/><path d="m46 39c-.552 0-1-.448-1-1v-6c0-.552.448-1 1-1s1 .448 1 1v6c0 .552-.448 1-1 1z"/><path d="m12 39c-.552 0-1-.448-1-1v-6c0-.552.448-1 1-1s1 .448 1 1v6c0 .552-.448 1-1 1z"/></g><path d="m58 12h-58v-12h16l6 4h36z" fill="#cc9d17"/><path d="m28 9h-24c-.552 0-1-.448-1-1s.448-1 1-1h24c.552 0 1 .448 1 1s-.448 1-1 1z" fill="#af8214"/><path d="m45 9h-13c-.552 0-1-.448-1-1s.448-1 1-1h13c.552 0 1 .448 1 1s-.448 1-1 1z" fill="#af8214"/><path d="m54 9h-5c-.552 0-1-.448-1-1s.448-1 1-1h5c.552 0 1 .448 1 1s-.448 1-1 1z" fill="#af8214"/><path d="m42 38c-.552 0-1 .448-1 1v3h2v-3c0-.552-.448-1-1-1z" fill="#d3c588"/><path d="m16 38c-.552 0-1 .448-1 1v3h2v-3c0-.552-.448-1-1-1z" fill="#d3c588"/><path d="m29 38c-.552 0-1 .448-1 1v3h2v-3c0-.552-.448-1-1-1z" fill="#fff"/></svg>