<svg enable-background="new 0 0 58 58" height="512" viewBox="0 0 58 58" width="512" xmlns="http://www.w3.org/2000/svg"><g fill="#afb6bb"><path d="m24 56h-22c-1.105 0-2-.895-2-2 0-1.105.895-2 2-2h22z"/><path d="m56 56h-23v-4h23c1.105 0 2 .895 2 2 0 1.105-.895 2-2 2z"/><path d="m27 40h4v11h-4z"/></g><path clip-rule="evenodd" d="m0 11v31.5c0 1.933 1.567 3.5 3.5 3.5h23.5 4 23.5c1.933 0 3.5-1.567 3.5-3.5v-31.5z" fill="#e7eced" fill-rule="evenodd"/><path d="m23 50h12v8h-12z" fill="#e7eced"/><path d="m18 29h22v6h-22z" fill="#4b6175"/><path d="m58 12h-58v-8.75c0-1.795 1.455-3.25 3.25-3.25h51.5c1.795 0 3.25 1.455 3.25 3.25z" fill="#556080"/><path d="m4 4h4v4h-4z" fill="#dd352e"/><path d="m12 4h4v4h-4z" fill="#ebba16"/><path d="m20 4h4v4h-4z" fill="#23a24d"/><path d="m15 34h28v8h-28z" fill="#35495e"/><path d="m32 39h-13c-.552 0-1-.448-1-1s.448-1 1-1h13c.552 0 1 .448 1 1s-.448 1-1 1z" fill="#dd352e"/><path d="m39 39h-2c-.552 0-1-.448-1-1s.448-1 1-1h2c.552 0 1 .448 1 1s-.448 1-1 1z" fill="#1081e0"/><path d="m15 22h28v8h-28z" fill="#35495e" transform="matrix(-1 0 0 -1 58 52)"/><path d="m39 27h-13c-.552 0-1-.448-1-1s.448-1 1-1h13c.552 0 1 .448 1 1s-.448 1-1 1z" fill="#61b872"/><path d="m21 27h-2c-.552 0-1-.448-1-1s.448-1 1-1h2c.552 0 1 .448 1 1s-.448 1-1 1z" fill="#ebba16"/></svg>