<svg enable-background="new 0 0 58 58" height="512" viewBox="0 0 58 58" width="512" xmlns="http://www.w3.org/2000/svg"><path d="m24 56h-22c-1.105 0-2-.895-2-2 0-1.105.895-2 2-2h22z" fill="#e7eced"/><path d="m56 56h-23v-4h23c1.105 0 2 .895 2 2 0 1.105-.895 2-2 2z" fill="#e7eced"/><path d="m27 40h4v11h-4z" fill="#e7eced"/><path d="m23 50h12v8h-12z" fill="#afb6bb"/><path d="m22 4-6-4h-16v12 27.298c0 1.492 1.21 2.702 2.702 2.702h52.596c1.492 0 2.702-1.21 2.702-2.702v-27.298-8z" fill="#ebba16"/><g clip-rule="evenodd" fill-rule="evenodd"><path d="m14.591 10.214v-1.8l.414-.414h3.989l.414.414v1.8c1.003.246 1.947.643 2.807 1.164l1.274-1.274h.585l2.821 2.821v.585l-1.274 1.274c.521.86.919 1.804 1.165 2.807h1.8l.414.415v3.989l-.414.414h-1.817c-.239.744-.818 2.122-1.161 2.794l1.287 1.287v.585l-2.821 2.82h-.585l-1.275-1.274c-.86.521-1.804.918-2.807 1.164v1.8l-.413.415h-3.989l-.414-.414v-1.8c-1.003-.246-1.947-.643-2.807-1.164l-1.274 1.274h-.585l-2.821-2.82v-.585l1.274-1.274c-.522-.861-.919-1.804-1.166-2.808h-1.8l-.412-.415v-3.989l.414-.414h1.801c.249-.97.648-1.7 1.177-2.527l-1.314-1.583.026-.557 2.821-2.821h.585l1.274 1.274c.861-.52 1.804-.917 2.807-1.163z" fill="#e7eced"/><path d="m11.999 20.001c0 1.381.56 2.631 1.465 3.536s2.156 1.465 3.537 1.465 2.631-.56 3.536-1.465 1.465-2.155 1.465-3.536-.56-2.631-1.465-3.536c-.906-.905-2.156-1.465-3.537-1.465s-2.631.56-3.537 1.465c-.904.905-1.464 2.155-1.464 3.536z" fill="#afb6bb"/><path d="m42.194 21.661v-1.35l.31-.31h2.992l.31.31v1.35c.752.185 1.46.482 2.105.873l.956-.956h.439l2.116 2.116v.439l-.955.955c.391.645.689 1.353.874 2.105h1.35l.31.31v2.992l-.31.31h-1.363c-.179.558-.614 1.591-.871 2.096l.965.965v.439l-2.116 2.115h-.439l-.956-.955c-.645.391-1.353.689-2.105.873v1.35l-.31.312h-2.992l-.31-.31v-1.35c-.752-.185-1.46-.482-2.105-.873l-.956.955h-.439l-2.116-2.115v-.439l.956-.955c-.391-.645-.689-1.353-.874-2.106h-1.35l-.31-.311v-2.992l.31-.31h1.351c.187-.727.486-1.275.883-1.895l-.985-1.187.019-.418 2.116-2.116h.439l.956.956c.644-.391 1.352-.689 2.105-.873z" fill="#e7eced"/><path d="m41 29.001c0 .828.336 1.578.879 2.121.543.542 1.293.878 2.121.878s1.578-.336 2.121-.879c.543-.542.879-1.292.879-2.12s-.336-1.578-.879-2.121-1.293-.879-2.121-.879-1.578.336-2.121.879c-.543.542-.879 1.292-.879 2.121z" fill="#afb6bb"/></g></svg>