<svg enable-background="new 0 0 42 58" height="512" viewBox="0 0 42 58" width="512" xmlns="http://www.w3.org/2000/svg"><path d="m38.734 0h-35.468c-1.804 0-3.266 1.462-3.266 3.266v4.734 40 6.734c0 1.804 1.462 3.266 3.266 3.266h35.469c1.803 0 3.265-1.462 3.265-3.266v-6.734-40-4.734c0-1.804-1.462-3.266-3.266-3.266z" fill="#e7eced"/><path d="m26 5h-10c-.552 0-1-.448-1-1s.448-1 1-1h10c.552 0 1 .448 1 1s-.448 1-1 1z" fill="#afb6bb"/><path d="m4 8h34v40h-34z" fill="#dd352e"/><path d="m19 51h4v4h-4z" fill="#afb6bb"/><g fill="#fff"><path d="m21.998 34h-1.995c-1.656 0-3.003-1.347-3.003-3.002v-5.995c0-1.656 1.347-3.003 3.002-3.003h1.995c1.656 0 3.003 1.347 3.003 3.002v5.995c0 1.656-1.347 3.003-3.002 3.003zm-1.996-10c-.552 0-1.002.45-1.002 1.002v5.995c0 .553.45 1.003 1.002 1.003h1.995c.553 0 1.003-.45 1.003-1.002v-5.995c0-.553-.45-1.003-1.002-1.003z"/><path d="m14 29h-6c-.332 0-.642-.165-.828-.439s-.224-.624-.1-.932l2-5c.205-.512.787-.76 1.3-.557.513.206.762.787.557 1.3l-1.452 3.628h4.523c.552 0 1 .448 1 1s-.448 1-1 1z"/><path d="m12 34c-.552 0-1-.448-1-1v-7c0-.552.448-1 1-1s1 .448 1 1v7c0 .552-.448 1-1 1z"/><path d="m34 29h-6c-.332 0-.642-.165-.828-.439s-.224-.624-.1-.932l2-5c.205-.512.787-.76 1.3-.557.513.206.762.787.557 1.3l-1.452 3.628h4.523c.552 0 1 .448 1 1s-.448 1-1 1z"/><path d="m32 34c-.552 0-1-.448-1-1v-7c0-.552.448-1 1-1s1 .448 1 1v7c0 .552-.448 1-1 1z"/><path d="m27 40h-19c-.552 0-1-.448-1-1s.448-1 1-1h19c.552 0 1 .448 1 1s-.448 1-1 1z"/><path d="m34 40h-3c-.552 0-1-.448-1-1s.448-1 1-1h3c.552 0 1 .448 1 1s-.448 1-1 1z"/><path d="m34 44h-19c-.552 0-1-.448-1-1s.448-1 1-1h19c.552 0 1 .448 1 1s-.448 1-1 1z"/><path d="m11 44h-3c-.552 0-1-.448-1-1s.448-1 1-1h3c.552 0 1 .448 1 1s-.448 1-1 1z"/><path d="m34 18h-19c-.552 0-1-.448-1-1s.448-1 1-1h19c.552 0 1 .448 1 1s-.448 1-1 1z"/><path d="m11 18h-3c-.552 0-1-.448-1-1s.448-1 1-1h3c.552 0 1 .448 1 1s-.448 1-1 1z"/><path d="m27 14h-19c-.552 0-1-.448-1-1s.448-1 1-1h19c.552 0 1 .448 1 1s-.448 1-1 1z"/><path d="m34 14h-3c-.552 0-1-.448-1-1s.448-1 1-1h3c.552 0 1 .448 1 1s-.448 1-1 1z"/></g></svg>