<svg enable-background="new 0 0 58 41" height="512" viewBox="0 0 58 41" width="512" xmlns="http://www.w3.org/2000/svg"><path d="m51.933 0h-16.933-12-16.933c-1.694 0-3.067 1.373-3.067 3.067v33.933h20c.208.58.758 1 1.407 1h9.186c.649 0 1.199-.42 1.407-1h20v-33.933c0-1.694-1.373-3.067-3.067-3.067z" fill="#e7eced"/><path d="m7 4h44v28h-44z" fill="#fff"/><path d="m22 20.5v5c0 1.381 3.134 2.5 7 2.5s7-1.119 7-2.5v-5z" fill="#ed8a19"/><path d="m13 9h-2c-.552 0-1-.448-1-1s.448-1 1-1h2c.552 0 1 .448 1 1s-.448 1-1 1z" fill="#366db6"/><path d="m19 9h-2c-.552 0-1-.448-1-1s.448-1 1-1h2c.552 0 1 .448 1 1s-.448 1-1 1z" fill="#dd352e"/><path d="m41 29h-2c-.552 0-1-.448-1-1s.448-1 1-1h2c.552 0 1 .448 1 1s-.448 1-1 1z" fill="#75348b"/><path d="m47 29h-2c-.552 0-1-.448-1-1s.448-1 1-1h2c.552 0 1 .448 1 1s-.448 1-1 1z" fill="#61b872"/><path d="m22 15.5v5c0 1.381 3.134 2.5 7 2.5s7-1.119 7-2.5v-5z" fill="#ebba16"/><path d="m22 10.5v5c0 1.381 3.134 2.5 7 2.5s7-1.119 7-2.5v-5z" fill="#ed8a19"/><ellipse cx="29" cy="10.5" fill="#ebba16" rx="7" ry="2.5"/><path d="m35 36c-.208.58-.758 1-1.407 1h-9.185c-.649 0-1.2-.42-1.407-1h-22.002c-.552 0-.999.447-.999.999v3.002c0 .552.447.999.999.999h56.002c.552 0 .999-.447.999-.999v-3.002c0-.552-.447-.999-.999-.999z" fill="#afb6bb"/></svg>