<svg enable-background="new 0 0 58 58" height="512" viewBox="0 0 58 58" width="512" xmlns="http://www.w3.org/2000/svg"><path d="m30.701 6.581-4.402-6.162c-.188-.263-.491-.419-.814-.419h-18.485c-.552 0-1 .448-1 1v3c0 .552.448 1 1 1h15.485c.323 0 .626.156.814.419l4.402 6.162c.188.263.491.419.814.419h29.485v-4c0-.552-.448-1-1-1h-25.485c-.323 0-.626-.156-.814-.419z" fill="#b2871b"/><path d="m27.701 10.581-4.402-6.162c-.188-.263-.491-.419-.814-.419h-18.485c-.552 0-1 .448-1 1v3c0 .552.448 1 1 1h15.485c.323 0 .626.156.814.419l4.402 6.162c.188.263.491.419.814.419h32.485v-4c0-.552-.448-1-1-1h-28.485c-.323 0-.626-.156-.814-.419z" fill="#cc9e1b"/><path d="m0 9v48c0 .552.448 1 1 1h56c.552 0 1-.448 1-1v-41c0-.552-.448-1-1-1h-31.485c-.323 0-.626-.156-.814-.419l-4.402-6.162c-.188-.263-.491-.419-.814-.419h-18.485c-.552 0-1 .448-1 1z" fill="#ebba16"/><circle cx="24" cy="32" fill="#c6e2f7" r="12"/><path d="m24 41c-4.963 0-9-4.037-9-9 0-.553.448-1 1-1s1 .447 1 1c0 3.859 3.14 7 7 7s7-3.141 7-7-3.14-7-7-7c-.552 0-1-.447-1-1s.448-1 1-1c4.963 0 9 4.037 9 9s-4.037 9-9 9z" fill="#1081e0"/><path d="m38 47c-.256 0-.512-.098-.707-.293l-2.629-2.629c-.391-.391-.391-1.023 0-1.414.39-.391 1.024-.391 1.414 0l2.629 2.629c.391.391.391 1.023 0 1.414-.195.195-.451.293-.707.293z" fill="#e7eced"/><g fill="#c5411e"><path d="m34.176 38.338c-.97 1.554-2.283 2.867-3.837 3.838.754.366 1.482.831 2.143 1.349.87.683 2.107.628 2.89-.154s.836-2.019.154-2.89c-.519-.661-.984-1.389-1.35-2.143z"/><path d="m45.071 53.071c-.781.781-2.047.781-2.828 0l-4.243-4.243c-.781-.781-.781-2.047 0-2.828.781-.781 2.047-.781 2.828 0l4.243 4.243c.781.781.781 2.047 0 2.828z"/></g></svg>