<svg enable-background="new 0 0 58 58" height="512" viewBox="0 0 58 58" width="512" xmlns="http://www.w3.org/2000/svg"><path d="m58 33v-8h-3.5c-1.568 0-2.997-.999-3.44-2.504-.462-1.571-1.087-3.071-1.856-4.483-.753-1.382-.459-3.101.654-4.214l2.477-2.477-5.657-5.657-2.477 2.477c-1.113 1.113-2.832 1.406-4.214.653-1.411-.769-2.912-1.394-4.483-1.856-1.505-.442-2.504-1.87-2.504-3.439v-3.5h-8v3.5c0 1.568-.999 2.997-2.504 3.44-1.571.462-3.071 1.087-4.483 1.856-1.382.753-3.101.459-4.214-.653l-2.477-2.477-5.657 5.657 2.477 2.477c1.113 1.113 1.406 2.832.654 4.214-.769 1.411-1.394 2.912-1.856 4.483-.443 1.504-1.871 2.503-3.44 2.503h-3.5v8h3.5c1.568 0 2.997.999 3.44 2.504.462 1.571 1.087 3.071 1.856 4.483.753 1.382.459 3.101-.653 4.214l-2.477 2.477 5.657 5.657 2.477-2.477c1.113-1.113 2.832-1.406 4.214-.653 1.411.769 2.912 1.394 4.483 1.856 1.504.442 2.503 1.87 2.503 3.439v3.5h8v-3.5c0-1.568.999-2.997 2.504-3.44 1.571-.462 3.071-1.087 4.483-1.856 1.382-.753 3.101-.459 4.214.653l2.477 2.477 5.657-5.657-2.477-2.477c-1.113-1.113-1.406-2.832-.653-4.214.769-1.411 1.394-2.912 1.856-4.483.442-1.504 1.87-2.503 3.439-2.503z" fill="#afb6bb"/><circle cx="29" cy="29" fill="#fff" r="18"/><path d="m29 18.714v20.571c.782 1.042 2.027 1.715 3.429 1.715 2.367 0 4.286-1.919 4.286-4.286 1.893 0 3.429-1.535 3.429-3.429 0-1.148-.569-2.157-1.435-2.779 1.331-.47 2.291-1.727 2.291-3.22 0-1.661-1.182-3.045-2.75-3.36.112-.288.179-.598.179-.926 0-1.42-1.151-2.571-2.571-2.571-.308 0-.6.063-.873.163.001-.056.015-.108.015-.163 0-1.894-1.535-3.429-3.429-3.429-1.714 0-2.571 1.714-2.571 1.714z" fill="#b53a54"/><path d="m41 28.286c-.552 0-1-.448-1-1 0-1.339-1.089-2.429-2.429-2.429-1.246 0-2.571.751-2.571 2.143 0 .552-.448 1-1 1s-1-.448-1-1c0-2.323 2.008-4.143 4.571-4.143 2.442 0 4.429 1.987 4.429 4.429 0 .552-.448 1-1 1z" fill="#962f48"/><path d="m32.429 42c-.552 0-1-.448-1-1s.448-1 1-1c1.812 0 3.286-1.474 3.286-3.286 0-1.117-.553-2.343-1.315-2.915-.441-.332-.531-.958-.199-1.4.332-.441.958-.53 1.4-.199 1.264.95 2.114 2.764 2.114 4.514-.001 2.915-2.372 5.286-5.286 5.286z" fill="#962f48"/><path d="m29 18.714v20.571c-.782 1.042-2.027 1.715-3.429 1.715-2.367 0-4.286-1.919-4.286-4.286-1.893 0-3.429-1.535-3.429-3.429 0-1.148.569-2.157 1.435-2.779-1.331-.47-2.291-1.727-2.291-3.22 0-1.661 1.182-3.045 2.75-3.36-.112-.288-.179-.598-.179-.926 0-1.42 1.151-2.571 2.571-2.571.308 0 .6.063.873.163-.001-.056-.015-.108-.015-.163 0-1.894 1.535-3.429 3.429-3.429 1.714 0 2.571 1.714 2.571 1.714z" fill="#cb465f"/><g fill="#962f48"><path d="m17 28.286c-.552 0-1-.448-1-1 0-2.442 1.987-4.429 4.429-4.429 2.563 0 4.571 1.82 4.571 4.143 0 .552-.448 1-1 1s-1-.448-1-1c0-1.392-1.325-2.143-2.571-2.143-1.339 0-2.429 1.089-2.429 2.429 0 .552-.448 1-1 1z"/><path d="m25.571 42c-2.915 0-5.286-2.371-5.286-5.286 0-1.75.85-3.564 2.114-4.514.442-.331 1.068-.242 1.4.199.332.442.242 1.068-.199 1.4-.762.572-1.315 1.798-1.315 2.915 0 1.812 1.474 3.286 3.286 3.286.552 0 1 .448 1 1s-.447 1-1 1z"/></g></svg>