<svg enable-background="new 0 0 58 51" height="512" viewBox="0 0 58 51" width="512" xmlns="http://www.w3.org/2000/svg"><path d="m28.896 10h-5.896-16.934c-1.693 0-3.066 1.373-3.066 3.067v33.933h20c.208.58.758 1 1.407 1h9.186c.649 0 1.199-.42 1.407-1h20v-28.184z" fill="#e7eced"/><path d="m49.983 20h-15.5-1.604c-3.247 0-5.879-2.526-5.879-5.641 0-.121.01-.24.016-.359h-20.016v28h44v-22z" fill="#366db6"/><path d="m11 23c-.552 0-1-.448-1-1v-4c0-.552.448-1 1-1h4c.552 0 1 .448 1 1s-.448 1-1 1h-3v3c0 .552-.448 1-1 1z" fill="#fff"/><path d="m47 39h-4c-.552 0-1-.448-1-1s.448-1 1-1h3v-3c0-.552.448-1 1-1s1 .448 1 1v4c0 .552-.448 1-1 1z" fill="#fff"/><path d="m33 29h-8c-.552 0-1-.448-1-1v-6c0-2.469 1.851-4.59 4.306-4.935.548-.079 1.052.305 1.129.852s-.304 1.052-.851 1.129c-1.473.206-2.584 1.476-2.584 2.954v5h6v-5c0-.523-.144-1.032-.428-1.514-.281-.476-.122-1.088.353-1.369.476-.28 1.089-.122 1.369.354.462.781.706 1.656.706 2.529v6c0 .552-.448 1-1 1z" fill="#e7eced"/><path d="m23 27h12v10h-12z" fill="#ebba16"/><path d="m29 34c-.552 0-1-.448-1-1v-2c0-.552.448-1 1-1s1 .448 1 1v2c0 .552-.448 1-1 1z" fill="#fff"/><path d="m31 32h-4c-.552 0-1-.448-1-1s.448-1 1-1h4c.552 0 1 .448 1 1s-.448 1-1 1z" fill="#fff"/><path d="m53.026 6.944c.103-.419.164-.853.164-1.303 0-3.115-2.633-5.641-5.88-5.641-2.597 0-5.101 1.348-5.879 3.59-.874-.494-1.585-.513-2.672-.513-3.247 0-6.247 2.474-6.247 5.59-3.247 0-5.511 2.577-5.511 5.692s2.631 5.641 5.878 5.641h1.603 15.5 1.069c3.838 0 6.949-2.985 6.949-6.667 0-3.023-2.099-5.573-4.974-6.389z" fill="#c6e2f7"/><path d="m35.499 10.375c-.15 0-.303-.034-.447-.106-.788-.394-1.56-.603-2.233-.603-.552 0-1-.448-1-1s.448-1 1-1c.996 0 2.048.274 3.128.814.494.247.694.848.447 1.342-.175.351-.528.553-.895.553z" fill="#9fbed1"/><path d="m35 46c-.208.58-.758 1-1.407 1h-9.185c-.649 0-1.2-.42-1.407-1h-22.002c-.552 0-.999.447-.999.999v3.002c0 .552.447.999.999.999h56.002c.552 0 .999-.447.999-.999v-3.002c0-.552-.447-.999-.999-.999z" fill="#afb6bb"/></svg>