<svg enable-background="new 0 0 58 58" height="512" viewBox="0 0 58 58" width="512" xmlns="http://www.w3.org/2000/svg"><path d="m30.734 58h-27.468c-1.804 0-3.266-1.462-3.266-3.266v-4.734h34v4.734c0 1.804-1.462 3.266-3.266 3.266z" fill="#eaeff0"/><g fill="#b8bec3"><path d="m20 55h-6c-.552 0-1-.448-1-1s.448-1 1-1h6c.552 0 1 .448 1 1s-.448 1-1 1z"/><path d="m29 55h-4c-.552 0-1-.448-1-1s.448-1 1-1h4c.552 0 1 .448 1 1s-.448 1-1 1z"/><path d="m9 55h-4c-.552 0-1-.448-1-1s.448-1 1-1h4c.552 0 1 .448 1 1s-.448 1-1 1z"/></g><path d="m3.266 0h27.469c1.803 0 3.265 1.462 3.265 3.266v4.734h-34v-4.734c0-1.804 1.462-3.266 3.266-3.266z" fill="#eaeff0"/><path d="m22 5h-10c-.552 0-1-.448-1-1s.448-1 1-1h10c.552 0 1 .448 1 1s-.448 1-1 1z" fill="#b8bec3"/><path d="m0 8h34v42h-34z" fill="#3974bb"/><path d="m20 55h-6c-.552 0-1-.448-1-1s.448-1 1-1h6c.552 0 1 .448 1 1s-.448 1-1 1z" fill="#b8bec3"/><path d="m29 55h-4c-.552 0-1-.448-1-1s.448-1 1-1h4c.552 0 1 .448 1 1s-.448 1-1 1z" fill="#b8bec3"/><path d="m9 55h-4c-.552 0-1-.448-1-1s.448-1 1-1h4c.552 0 1 .448 1 1s-.448 1-1 1z" fill="#b8bec3"/><path d="m57 46h-42c-.552 0-1-.448-1-1v-27h44v27c0 .552-.448 1-1 1z" fill="#e7eced"/><path d="m58 20h-44v-7c0-.552.448-1 1-1h42c.552 0 1 .448 1 1z" fill="#7383bf"/><path d="m20 17h-2c-.552 0-1-.448-1-1s.448-1 1-1h2c.552 0 1 .448 1 1s-.448 1-1 1z" fill="#dd352e"/><path d="m26 17h-2c-.552 0-1-.448-1-1s.448-1 1-1h2c.552 0 1 .448 1 1s-.448 1-1 1z" fill="#ebba16"/><path d="m32 17h-2c-.552 0-1-.448-1-1s.448-1 1-1h2c.552 0 1 .448 1 1s-.448 1-1 1z" fill="#23a24d"/><path d="m4 39h6v6h-6z" fill="#dc691d"/><path d="m4 13h6v6h-6z" fill="#61b872"/><path d="m4 23h6v12h-6z" fill="#ebba16"/><path d="m40 34h-8c-.552 0-1-.448-1-1v-4c0-2.757 2.243-5 5-5s5 2.243 5 5v4c0 .552-.448 1-1 1zm-7-2h6v-3c0-1.654-1.346-3-3-3s-3 1.346-3 3z" fill="#fff"/><path d="m18 29c-.552 0-1-.448-1-1v-4c0-.552.448-1 1-1h4c.552 0 1 .448 1 1s-.448 1-1 1h-3v3c0 .552-.448 1-1 1z" fill="#dd352e"/><path d="m54 43h-4c-.552 0-1-.448-1-1s.448-1 1-1h3v-3c0-.552.448-1 1-1s1 .448 1 1v4c0 .552-.448 1-1 1z" fill="#dd352e"/><path d="m30 32h12v10h-12z" fill="#ebba16"/><path d="m36 39c-.552 0-1-.448-1-1v-2c0-.552.448-1 1-1s1 .448 1 1v2c0 .552-.448 1-1 1z" fill="#fff"/><path d="m38 37h-4c-.552 0-1-.448-1-1s.448-1 1-1h4c.552 0 1 .448 1 1s-.448 1-1 1z" fill="#fff"/></svg>