<svg enable-background="new 0 0 58 58" height="512" viewBox="0 0 58 58" width="512" xmlns="http://www.w3.org/2000/svg"><g clip-rule="evenodd" fill-rule="evenodd"><path d="m54.5 58h-51c-1.933 0-3.5-1.567-3.5-3.5v-44.5h58v44.5c0 1.933-1.567 3.5-3.5 3.5z" fill="#e7eced"/><path d="m58 12h-58v-8.5c0-1.933 1.567-3.5 3.5-3.5h51c1.933 0 3.5 1.567 3.5 3.5z" fill="#556080"/><path d="m4 4h4v4h-4z" fill="#dd352e"/><path d="m12 4h4v4h-4z" fill="#ebba16"/><path d="m20 4h4v4h-4z" fill="#23a24d"/></g><path d="m12 27c-.256 0-.512-.098-.707-.293l-3-3c-.391-.391-.391-1.023 0-1.414.39-.391 1.024-.391 1.414 0l3 3c.391.391.391 1.023 0 1.414-.195.195-.451.293-.707.293z" fill="#23a24d"/><path d="m11.999 27c-.201 0-.404-.061-.581-.186-.449-.321-.553-.946-.232-1.395l5-7c.321-.45.946-.553 1.395-.233.449.321.553.946.232 1.395l-5 7c-.194.273-.502.419-.814.419z" fill="#23a24d"/><path d="m12 31c-2.316 0-4.405-1.577-4.968-3.75-.138-.534.183-1.08.717-1.219.534-.136 1.08.183 1.219.718.332 1.283 1.636 2.251 3.032 2.251s2.7-.968 3.032-2.25c.138-.535.684-.853 1.219-.718.535.139.856.685.717 1.219-.563 2.172-2.652 3.749-4.968 3.749z" fill="#ebba16"/><path d="m10.001 20.54c-.344 0-.678-.177-.864-.495-.279-.477-.118-1.089.358-1.368 1.121-.656 2.508-.843 3.757-.518.535.139.855.685.716 1.219s-.686.855-1.219.716c-.743-.193-1.575-.083-2.244.309-.159.093-.333.137-.504.137z" fill="#ebba16"/><path d="m46 27c-.256 0-.512-.098-.707-.293l-3-3c-.391-.391-.391-1.023 0-1.414.39-.391 1.024-.391 1.414 0l3 3c.391.391.391 1.023 0 1.414-.195.195-.451.293-.707.293z" fill="#23a24d"/><path d="m45.999 27c-.201 0-.404-.061-.581-.186-.449-.321-.553-.946-.232-1.395l5-7c.321-.45.945-.553 1.395-.233.449.321.553.946.232 1.395l-5 7c-.194.273-.502.419-.814.419z" fill="#23a24d"/><path d="m46 31c-2.316 0-4.405-1.577-4.968-3.75-.138-.534.183-1.08.717-1.219.534-.136 1.08.183 1.219.718.332 1.283 1.636 2.251 3.032 2.251s2.7-.968 3.032-2.25c.138-.535.685-.853 1.219-.718.535.139.856.685.717 1.219-.563 2.172-2.652 3.749-4.968 3.749z" fill="#ebba16"/><path d="m44.001 20.54c-.344 0-.678-.177-.864-.495-.279-.477-.118-1.089.358-1.368 1.121-.656 2.507-.843 3.757-.518.535.139.855.685.716 1.219s-.685.855-1.219.716c-.743-.193-1.575-.083-2.244.309-.159.093-.333.137-.504.137z" fill="#ebba16"/><path d="m24 20h10v10h-10z" fill="#dd352e"/><path d="m29 47c-.256 0-.512-.098-.707-.293l-3-3c-.391-.391-.391-1.023 0-1.414.39-.391 1.024-.391 1.414 0l3 3c.391.391.391 1.023 0 1.414-.195.195-.451.293-.707.293z" fill="#23a24d"/><path d="m28.999 47c-.201 0-.404-.061-.581-.186-.449-.321-.553-.946-.232-1.395l5-7c.321-.449.946-.552 1.395-.233.449.321.553.946.232 1.395l-5 7c-.194.273-.502.419-.814.419z" fill="#23a24d"/><path d="m29 51c-2.316 0-4.405-1.577-4.968-3.75-.138-.534.183-1.08.717-1.219.533-.137 1.08.183 1.219.718.332 1.283 1.636 2.251 3.032 2.251s2.7-.968 3.032-2.25c.138-.535.685-.854 1.219-.718.535.139.856.685.717 1.219-.563 2.172-2.652 3.749-4.968 3.749z" fill="#ebba16"/><path d="m27.001 40.54c-.344 0-.678-.177-.864-.495-.279-.477-.118-1.089.358-1.368 1.122-.656 2.507-.843 3.757-.518.535.139.855.685.716 1.219-.139.535-.685.857-1.219.716-.743-.193-1.575-.083-2.244.309-.159.093-.333.137-.504.137z" fill="#ebba16"/><path d="m7 40h10v10h-10z" fill="#dc691d"/><path d="m41 40h10v10h-10z" fill="#c5411e"/></svg>