<svg enable-background="new 0 0 58 58" height="512" viewBox="0 0 58 58" width="512" xmlns="http://www.w3.org/2000/svg"><path d="m17.691 18.691c-.256 0-.512-.098-.707-.293l-5.741-5.741c-.391-.391-.391-1.023 0-1.414.39-.391 1.024-.391 1.414 0l5.741 5.741c.391.391.391 1.023 0 1.414-.195.195-.451.293-.707.293z" fill="#e7eced"/><path d="m40.309 18.691c-.256 0-.512-.098-.707-.293-.391-.391-.391-1.023 0-1.414l5.741-5.741c.391-.391 1.023-.391 1.414 0s.391 1.023 0 1.414l-5.741 5.741c-.195.195-.451.293-.707.293z" fill="#e7eced"/><path d="m46.05 47.05c-.256 0-.512-.098-.707-.293l-5.737-5.737c-.391-.391-.391-1.023 0-1.414s1.023-.391 1.414 0l5.737 5.737c.391.391.391 1.023 0 1.414-.195.196-.451.293-.707.293z" fill="#e7eced"/><path d="m11.95 47.05c-.256 0-.512-.098-.707-.293-.391-.391-.391-1.023 0-1.414l5.741-5.741c.39-.391 1.024-.391 1.414 0 .391.391.391 1.023 0 1.414l-5.741 5.741c-.195.196-.451.293-.707.293z" fill="#e7eced"/><circle cx="29" cy="29" fill="#7383bf" r="16"/><g fill="#556080"><path d="m29 46c-9.374 0-17-7.626-17-17s7.626-17 17-17 17 7.626 17 17-7.626 17-17 17zm0-32c-8.271 0-15 6.729-15 15s6.729 15 15 15 15-6.729 15-15-6.729-15-15-15z"/><path d="m29 46c-5.047 0-9-7.467-9-17s3.953-17 9-17 9 7.467 9 17-3.953 17-9 17zm0-32c-3.794 0-7 6.869-7 15s3.206 15 7 15 7-6.869 7-15-3.206-15-7-15z"/><path d="m45 30h-32c-.552 0-1-.448-1-1s.448-1 1-1h32c.552 0 1 .448 1 1s-.448 1-1 1z"/><path d="m29 46c-.552 0-1-.448-1-1v-32c0-.552.448-1 1-1s1 .448 1 1v32c0 .552-.448 1-1 1z"/><path d="m29 24c-4.776 0-9.35-1.606-12.878-4.522-.206-.17-.335-.415-.359-.681s.059-.53.231-.734c3.243-3.853 7.984-6.063 13.006-6.063s9.763 2.21 13.006 6.063c.172.204.255.468.231.734s-.153.511-.359.681c-3.528 2.916-8.102 4.522-12.878 4.522zm-10.778-5.423c3.045 2.214 6.831 3.423 10.778 3.423s7.733-1.209 10.778-3.423c-2.823-2.921-6.695-4.577-10.778-4.577s-7.955 1.656-10.778 4.577z"/><path d="m29 46c-5.023 0-9.764-2.21-13.006-6.063-.172-.204-.255-.468-.231-.734s.153-.511.359-.681c3.528-2.916 8.101-4.522 12.878-4.522 4.776 0 9.35 1.606 12.878 4.522.206.17.334.415.359.681.024.266-.059.53-.231.734-3.243 3.853-7.984 6.063-13.006 6.063zm-10.778-6.577c2.822 2.921 6.695 4.577 10.778 4.577s7.956-1.656 10.778-4.577c-3.045-2.214-6.831-3.423-10.778-3.423s-7.734 1.209-10.778 3.423z"/></g><circle cx="7" cy="51" fill="#ebba16" r="7"/><path d="m4 52c-.552 0-1-.448-1-1 0-2.206 1.794-4 4-4 .552 0 1 .448 1 1s-.448 1-1 1c-1.103 0-2 .897-2 2 0 .552-.448 1-1 1z" fill="#dc691d"/><circle cx="51" cy="51" fill="#ebba16" r="7"/><path d="m48 52c-.552 0-1-.448-1-1 0-2.206 1.794-4 4-4 .552 0 1 .448 1 1s-.448 1-1 1c-1.103 0-2 .897-2 2 0 .552-.448 1-1 1z" fill="#dc691d"/><circle cx="7" cy="7" fill="#ebba16" r="7"/><path d="m4 8c-.552 0-1-.448-1-1 0-2.206 1.794-4 4-4 .552 0 1 .448 1 1s-.448 1-1 1c-1.103 0-2 .897-2 2 0 .552-.448 1-1 1z" fill="#dc691d"/><circle cx="51" cy="7" fill="#ebba16" r="7"/><path d="m48 8c-.552 0-1-.448-1-1 0-2.206 1.794-4 4-4 .552 0 1 .448 1 1s-.448 1-1 1c-1.103 0-2 .897-2 2 0 .552-.448 1-1 1z" fill="#dc691d"/></svg>