<svg enable-background="new 0 0 58 58" height="512" viewBox="0 0 58 58" width="512" xmlns="http://www.w3.org/2000/svg"><g clip-rule="evenodd" fill-rule="evenodd"><path d="m54.5 58h-51c-1.933 0-3.5-1.567-3.5-3.5v-44.5h58v44.5c0 1.933-1.567 3.5-3.5 3.5z" fill="#e7eced"/><path d="m58 12h-58v-8.5c0-1.933 1.567-3.5 3.5-3.5h51c1.933 0 3.5 1.567 3.5 3.5z" fill="#556080"/><path d="m4 4h4v4h-4z" fill="#dd352e"/><path d="m12 4h4v4h-4z" fill="#ebba16"/><path d="m20 4h4v4h-4z" fill="#23a24d"/></g><path d="m4 16h50v38h-50z" fill="#fff"/><path d="m43 47h-19.97c-.552 0-1-.447-1-1s.448-1 1-1h19.97c.552 0 1 .447 1 1s-.448 1-1 1z" fill="#61b872"/><path d="m19 47h-4c-.552 0-1-.447-1-1s.448-1 1-1h4c.552 0 1 .447 1 1s-.448 1-1 1z" fill="#ebba16"/><path d="m21 51h-6c-.552 0-1-.447-1-1s.448-1 1-1h6c.552 0 1 .447 1 1s-.448 1-1 1z" fill="#cb465f"/><path d="m43 51h-4c-.552 0-1-.447-1-1s.448-1 1-1h4c.552 0 1 .447 1 1s-.448 1-1 1z" fill="#dc691d"/><path d="m35 51h-10c-.552 0-1-.447-1-1s.448-1 1-1h10c.552 0 1 .447 1 1s-.448 1-1 1z" fill="#75348b"/><path d="m40 27-3.203 3.486c-4.306 4.685-11.287 4.685-15.593 0l-3.204-3.486 3.203-3.486c4.306-4.685 11.287-4.685 15.593 0z" fill="#57abc1"/><circle cx="29" cy="27" fill="#33636c" r="3"/><path d="m34 42h-10c-1.105 0-2-.895-2-2 0-1.105.895-2 2-2h10c1.105 0 2 .895 2 2 0 1.105-.895 2-2 2z" fill="#dd352e"/></svg>