<svg enable-background="new 0 0 58 58" height="512" viewBox="0 0 58 58" width="512" xmlns="http://www.w3.org/2000/svg"><path d="m53.913 27c-.967-12.21-10.703-21.946-22.913-22.913v-.087h-4v.087c-12.21.967-21.946 10.703-22.913 22.913h-.087v4h.087c.967 12.21 10.703 21.946 22.913 22.913v.087h4v-.087c12.21-.967 21.946-10.703 22.913-22.913h.087v-4zm-4.014 4c-.946 10-8.899 17.953-18.899 18.899v.101h-4v-.101c-10-.946-17.953-8.899-18.899-18.899h-.101v-4h.101c.946-10 8.899-17.953 18.899-18.899v-.101h4v.101c10 .946 17.953 8.899 18.899 18.899h.101v4z" fill="#61b872"/><path d="m46 30v-2c0-.552.448-1 1-1h10c.552 0 1 .448 1 1v2c0 .552-.448 1-1 1h-10c-.552 0-1-.448-1-1z" fill="#3d6f44"/><path d="m0 30v-2c0-.552.448-1 1-1h10c.552 0 1 .448 1 1v2c0 .552-.448 1-1 1h-10c-.552 0-1-.448-1-1z" fill="#3d6f44"/><path d="m29 18c-3.314 0-6 2.686-6 6v5h4v-5c0-1.105.896-2 2-2s2 .895 2 2v5h4v-5c0-3.314-2.686-6-6-6z" fill="#e7eced"/><path d="m30 12h-2c-.552 0-1-.448-1-1v-10c0-.552.448-1 1-1h2c.552 0 1 .448 1 1v10c0 .552-.448 1-1 1z" fill="#3d6f44"/><path d="m30 58h-2c-.552 0-1-.448-1-1v-10c0-.552.448-1 1-1h2c.552 0 1 .448 1 1v10c0 .552-.448 1-1 1z" fill="#3d6f44"/><path d="m36 40h-14c-.552 0-1-.448-1-1v-10c0-.552.448-1 1-1h14c.552 0 1 .448 1 1v10c0 .552-.448 1-1 1z" fill="#ebba16"/><path d="m26 32h6v4h-6z" fill="#405163"/></svg>