<svg enable-background="new 0 0 58 58" height="512" viewBox="0 0 58 58" width="512" xmlns="http://www.w3.org/2000/svg"><g fill="#afb6bb"><path d="m9 33c-.552 0-1-.447-1-1v-18c0-.553.448-1 1-1s1 .447 1 1v18c0 .553-.448 1-1 1z"/><path d="m49 33c-.552 0-1-.447-1-1v-18c0-.553.448-1 1-1s1 .447 1 1v18c0 .553-.448 1-1 1z"/><path d="m18 12h-6c-.552 0-1-.447-1-1s.448-1 1-1h6c.552 0 1 .447 1 1s-.448 1-1 1z"/><path d="m46 12h-6c-.552 0-1-.447-1-1s.448-1 1-1h6c.552 0 1 .447 1 1s-.448 1-1 1z"/></g><path d="m37 22h-16c-1.657 0-3-1.343-3-3v-16c0-1.657 1.343-3 3-3h16c1.657 0 3 1.343 3 3v16c0 1.657-1.343 3-3 3z" fill="#25ae88"/><path d="m18 54h-18v-20.004c0-1.102.894-1.996 1.996-1.996h14.008c1.102 0 1.996.894 1.996 1.996z" fill="#ebba16"/><path d="m58 54h-18v-20.004c0-1.102.894-1.996 1.996-1.996h14.008c1.102 0 1.996.894 1.996 1.996z" fill="#ebba16"/><path d="m26 10c-.552 0-1-.447-1-1v-3h-3c-.552 0-1-.447-1-1s.448-1 1-1h4c.552 0 1 .447 1 1v4c0 .553-.448 1-1 1z" fill="#fff"/><path d="m36 18h-4c-.552 0-1-.447-1-1v-4c0-.553.448-1 1-1s1 .447 1 1v3h3c.552 0 1 .447 1 1s-.448 1-1 1z" fill="#fff"/><path d="m23.001 16.607c-.339 0-.67-.172-.858-.484-.748-1.241-1.143-2.667-1.143-4.123 0-3.073 1.794-5.911 4.571-7.229.499-.234 1.096-.023 1.332.475.237.499.025 1.095-.474 1.332-2.083.988-3.429 3.117-3.429 5.422 0 1.093.296 2.161.856 3.092.285.473.132 1.087-.341 1.372-.161.098-.339.143-.514.143z" fill="#fff"/><path d="m32.001 17.745c-.316 0-.627-.149-.821-.428-.316-.453-.205-1.076.248-1.393 1.611-1.122 2.572-2.963 2.572-4.924 0-.9-.194-1.765-.577-2.571-.237-.498-.025-1.095.474-1.332.499-.234 1.095-.024 1.332.475.512 1.074.771 2.229.771 3.428 0 2.614-1.281 5.068-3.428 6.565-.174.122-.374.18-.571.18z" fill="#fff"/><path d="m16.004 58h-14.008c-1.102 0-1.996-.894-1.996-1.996v-4.004h18v4.004c0 1.102-.894 1.996-1.996 1.996z" fill="#e7eced"/><path d="m11 56h-4c-.552 0-1-.447-1-1s.448-1 1-1h4c.552 0 1 .447 1 1s-.448 1-1 1z" fill="#afb6bb"/><path d="m11.504 36h-5.008c-.826 0-1.496-.67-1.496-1.496v-2.504h8v2.504c0 .826-.67 1.496-1.496 1.496z" fill="#e7eced"/><path d="m56.004 58h-14.008c-1.102 0-1.996-.894-1.996-1.996v-4.004h18v4.004c0 1.102-.894 1.996-1.996 1.996z" fill="#e7eced"/><path d="m51 56h-4c-.552 0-1-.447-1-1s.448-1 1-1h4c.552 0 1 .447 1 1s-.448 1-1 1z" fill="#afb6bb"/><path d="m51.504 36h-5.009c-.825 0-1.495-.67-1.495-1.496v-2.504h8v2.504c0 .826-.67 1.496-1.496 1.496z" fill="#e7eced"/><circle cx="9" cy="11" fill="#7383bf" r="3"/><circle cx="49" cy="11" fill="#7383bf" r="3"/></svg>