<svg enable-background="new 0 0 58 50" height="512" viewBox="0 0 58 50" width="512" xmlns="http://www.w3.org/2000/svg"><path d="m55.992 0h-19.984c-1.109 0-2.008.899-2.008 2.008v45.983c0 1.11.899 2.009 2.008 2.009h19.983c1.11 0 2.009-.899 2.009-2.008v-21.992-4-19.992c0-1.109-.899-2.008-2.008-2.008z" fill="#e7eced"/><path d="m38 8v30h16v-12-4-14z" fill="#ebba16"/><path d="m44 42h4v4h-4z" fill="#afb6bb" transform="matrix(-1 0 0 -1 92 88)"/><path d="m42.999 4h6.001c1.105 0 2-.895 2-1.999v-2.001h-10v2.001c0 1.104.895 1.999 1.999 1.999z" fill="#afb6bb"/><path d="m21.992 0h-19.984c-1.109 0-2.008.899-2.008 2.008v45.983c0 1.11.899 2.009 2.008 2.009h19.983c1.11 0 2.009-.899 2.009-2.008v-21.992-4-19.992c0-1.109-.899-2.008-2.008-2.008z" fill="#e7eced"/><path d="m4 8v30h16v-12-4-14z" fill="#ebba16"/><path d="m50 24-8-7v5h-13-13v-5l-8 7 8 7v-5h13 13v5z" fill="#25ae88"/><g fill="#afb6bb"><path d="m10 42h4v4h-4z" transform="matrix(-1 0 0 -1 24 88)"/><path d="m8.999 4h6.001c1.105 0 2-.895 2-1.999v-2.001h-10v2.001c0 1.104.895 1.999 1.999 1.999z"/></g></svg>