<svg enable-background="new 0 0 58 55" height="512" viewBox="0 0 58 55" width="512" xmlns="http://www.w3.org/2000/svg"><path d="m0 0v20h25.008 4.992 11v-20z" fill="#e7eced"/><path id="Stroke-1964_1_" d="m34.992 30c0-1.33-1.042-3-2.542-3-1.458 0-2.442 1.67-2.442 3l-.008-10c0-1.458-1.029-3-2.508-3-1.458 0-2.492 1.542-2.484 3v18c-.008.084-1.039-5.492-2.864-7.317-1.504-1.504-5.808-.497-3.455 2.764 1.649 2.284 2.319 7.006 2.319 9.553 0 6.161 4.992 8 4.992 8v1c0 1.141-.008 3 2.066 3h12.445c2.523 0 2.481-1.859 2.489-3v-1c2.246-2.994 2.008-2.125 2.008-9v-7c0-1.33-1.037-3-2.537-3-1.479 0-2.463 1.67-2.463 3v-3c0-1.33-1.037-3-2.578-3-1.438 0-2.422 1.67-2.422 3z" fill="#fbce9d"/><path d="m40 0h18v20h-18z" fill="#366db6"/><path d="m48 13c-2.206 0-4-1.794-4-4s1.794-4 4-4 4 1.794 4 4-1.794 4-4 4zm0-6c-1.103 0-2 .897-2 2s.897 2 2 2 2-.897 2-2-.897-2-2-2z" fill="#fff"/><path d="m53 15c-.256 0-.512-.098-.707-.293l-2.879-2.879c-.391-.391-.391-1.023 0-1.414s1.024-.391 1.414 0l2.879 2.879c.391.391.391 1.023 0 1.414-.195.195-.451.293-.707.293z" fill="#fff"/><g fill="#57abc1"><path d="m12 15c-.552 0-1-.447-1-1v-6.004c0-.549-.447-.996-.996-.996h-2.008c-.549 0-.996.447-.996.996v6.004c0 .553-.448 1-1 1s-1-.447-1-1v-6.004c0-1.652 1.344-2.996 2.996-2.996h2.008c1.652 0 2.996 1.344 2.996 2.996v6.004c0 .553-.448 1-1 1z"/><path d="m12 11h-6c-.552 0-1-.447-1-1s.448-1 1-1h6c.552 0 1 .447 1 1s-.448 1-1 1z"/><path d="m22 11h-4c-.552 0-1-.447-1-1v-4c0-.553.448-1 1-1h4c.552 0 1 .447 1 1v4c0 .553-.448 1-1 1zm-3-2h2v-2h-2z"/><path d="m24 15h-6c-.552 0-1-.447-1-1v-4c0-.553.448-1 1-1h6c.552 0 1 .447 1 1v4c0 .553-.448 1-1 1zm-5-2h4v-2h-4z"/><path d="m34 15h-2.004c-1.652 0-2.996-1.344-2.996-2.996v-4.008c0-1.652 1.344-2.996 2.996-2.996h2.004c.552 0 1 .447 1 1s-.448 1-1 1h-2.004c-.549 0-.996.447-.996.996v4.008c0 .549.447.996.996.996h2.004c.552 0 1 .447 1 1s-.448 1-1 1z"/></g><path d="m40.008 38c-.552 0-1-.447-1-1v-3c0-.553.448-1 1-1s1 .447 1 1v3c0 .553-.448 1-1 1z" fill="#ea7f5f"/><path d="m35.008 37c-.552 0-1-.447-1-1v-4c0-.553.448-1 1-1s1 .447 1 1v4c0 .553-.448 1-1 1z" fill="#ea7f5f"/><path d="m30 37h-.001c-.552-.001-1-.449-.999-1.001l.008-7c.001-.552.448-.999 1-.999h.001c.552.001 1 .449.999 1.001l-.008 7c-.001.552-.448.999-1 .999z" fill="#ea7f5f"/></svg>