<svg enable-background="new 0 0 32 58" height="512" viewBox="0 0 32 58" width="512" xmlns="http://www.w3.org/2000/svg"><path d="m29.385 0h-26.77c-1.444 0-2.615 1.171-2.615 2.615v17.385 8 27.385c0 1.444 1.171 2.615 2.615 2.615h26.771c1.443 0 2.614-1.171 2.614-2.615v-27.385-8-17.385c0-1.444-1.171-2.615-2.615-2.615z" fill="#e7eced"/><g fill="#afb6bb"><path d="m21 4h-10c-.552 0-1-.447-1-1s.448-1 1-1h10c.552 0 1 .447 1 1s-.448 1-1 1z"/><path d="m28 4h-1c-.552 0-1-.447-1-1s.448-1 1-1h1c.552 0 1 .447 1 1s-.448 1-1 1z"/><path d="m17.241 55h-2.483c-.971 0-1.758-.787-1.758-1.759v-.483c0-.971.787-1.758 1.759-1.758h2.483c.971 0 1.758.787 1.758 1.759v.483c0 .971-.787 1.758-1.759 1.758z"/></g><path d="m0 6h32v42h-32z" fill="#ebba16"/><path d="m5 29h22v7h-22z" fill="#4b6175"/><path d="m5 17h22v7h-22z" fill="#4b6175"/><path d="m3 23h26v8h-26z" fill="#35495e"/><path d="m23 28h-7c-.552 0-1-.448-1-1s.448-1 1-1h7c.552 0 1 .448 1 1s-.448 1-1 1z" fill="#cb465f"/><path d="m12 28h-3c-.552 0-1-.448-1-1s.448-1 1-1h3c.552 0 1 .448 1 1s-.448 1-1 1z" fill="#dc691d"/><path d="m3 11h26v8h-26z" fill="#35495e"/><path d="m11 16h-2c-.552 0-1-.448-1-1s.448-1 1-1h2c.552 0 1 .448 1 1s-.448 1-1 1z" fill="#dd352e"/><path d="m17 16h-2c-.552 0-1-.448-1-1s.448-1 1-1h2c.552 0 1 .448 1 1s-.448 1-1 1z" fill="#ebba16"/><path d="m23 16h-2c-.552 0-1-.448-1-1s.448-1 1-1h2c.552 0 1 .448 1 1s-.448 1-1 1z" fill="#61b872"/><path d="m3 35h26v8h-26z" fill="#35495e"/><path d="m11 40h-2c-.552 0-1-.448-1-1s.448-1 1-1h2c.552 0 1 .448 1 1s-.448 1-1 1z" fill="#1081e0"/><path d="m17 40h-2c-.552 0-1-.448-1-1s.448-1 1-1h2c.552 0 1 .448 1 1s-.448 1-1 1z" fill="#61b872"/><path d="m23 40h-2c-.552 0-1-.448-1-1s.448-1 1-1h2c.552 0 1 .448 1 1s-.448 1-1 1z" fill="#57abc1"/></svg>