<svg enable-background="new 0 0 58 58" height="512" viewBox="0 0 58 58" width="512" xmlns="http://www.w3.org/2000/svg"><path d="m29 43c-.552 0-1-.447-1-1v-16c0-.553.448-1 1-1s1 .447 1 1v16c0 .553-.448 1-1 1z" fill="#e7eced"/><path d="m33.925 23.847c1.171-.783 2.445-1.458 3.447-2.462.92-.922 1.338-1.936 2.038-2.991.438-.661 1.105-.851 1.719-.743.554-1.447.871-3.01.871-4.651 0-1.314-.199-2.581-.562-3.776-.411.027-.837-.129-1.201-.555-.97-1.136-1.671-2.561-2.76-3.584-1.047-.983-2.365-1.619-3.396-2.634-.499-.491-.59-1.069-.435-1.58-1.445-.555-3.007-.871-4.646-.871-2.5 0-4.826.718-6.808 1.941.044.037.091.067.133.109.595.595.72 1.831 0 2.4-.83.656-1.578 1.398-2.298 2.171-.597.641-1.371 1.316-1.546 2.205-.224 1.138-1.248 1.409-2.099 1.099-.241.988-.382 2.014-.382 3.075 0 3.535 1.416 6.736 3.705 9.079.159-.12.344-.218.562-.278.82-.225 1.935.281 2.088 1.185.005.021.006.03.009.045.048.024.262.166.3.187.052.029.439.221.308.162.322.144 1.082.365 1.604.483.774.174 1.265.965 1.237 1.727 1.022.258 2.085.41 3.187.41 1.455 0 2.849-.249 4.155-.69-.018-.537.205-1.085.77-1.463z" fill="#1081e0"/><path d="m26 46h-8c-.552 0-1-.447-1-1s.448-1 1-1h8c.552 0 1 .447 1 1s-.448 1-1 1z" fill="#e7eced"/><path d="m40 46h-8c-.552 0-1-.447-1-1s.448-1 1-1h8c.552 0 1 .447 1 1s-.448 1-1 1z" fill="#e7eced"/><circle cx="29" cy="45" fill="#7383bf" r="3"/><path d="m26.982 11.237c-1.732-.041-3.025-1.876-2.234-3.494.051-.105.111-.207.151-.317.341-.947.131-2.451-.161-3.382-.17-.54-.439-1.062-.861-1.448-.218-.199-.47-.356-.745-.466-.177-.071-.778-.305-.954-.197-2.907 1.796-5.051 4.705-5.842 8.133.555.477 1.291.687 2.024.653 1.478-.068 4.558.034 4.558 2.07 0 1.474-.605 2.542-1.149 3.205-.876 1.067-1.562 2.287-1.868 3.633-.172.756-.279 1.597-.22 2.432.011.153.536.522.654.628.24.215.489.421.744.618.529.407 1.089.774 1.674 1.095.591.324 1.206.602 1.84.831.245.088 1.669.646 1.663.297-.007-.41-.039-.819-.097-1.225-.043-.3-.099-.605-.049-.904.065-.39.304-.729.581-1.011 2.069-2.107 5.712-4.123 4.477-7.667-.071-.203-.156-.4-.251-.593-1.167-2.343-2.787-2.864-3.935-2.891z" fill="#61b872"/><path d="m41.201 17.497-1.126-1.126c-.372-.362-.964-.481-1.784-.481-2.002 0-2.669 3.395-2.669 3.395 0 1.358-1.324 1.901-1.324 1.901s-3.351.843-2.407 2.407l1.074 1.79c3.81-1.219 6.857-4.148 8.236-7.886z" fill="#61b872"/><path d="m33.517.807-.184.155c-.435.57-.544 1.094-.46 1.857-1.964 1.818-.49 3.909.146 4.81.736 1.044 2.778 3.018 5.235 3.018 1.015 0 1.986-.346 2.808-1l.354-.282.054-.045c-1.161-3.936-4.132-7.097-7.953-8.513z" fill="#61b872"/><g fill="#ebba16"><path d="m11 21c-4.411 0-8-3.589-8-8s3.589-8 8-8c.552 0 1 .447 1 1s-.448 1-1 1c-3.308 0-6 2.691-6 6s2.692 6 6 6c.552 0 1 .447 1 1s-.448 1-1 1z"/><path d="m11 17c-2.206 0-4-1.794-4-4s1.794-4 4-4c.552 0 1 .447 1 1s-.448 1-1 1c-1.103 0-2 .897-2 2s.897 2 2 2c.552 0 1 .447 1 1s-.448 1-1 1z"/><path d="m47 21c-.552 0-1-.447-1-1s.448-1 1-1c3.308 0 6-2.691 6-6s-2.692-6-6-6c-.552 0-1-.447-1-1s.448-1 1-1c4.411 0 8 3.589 8 8s-3.589 8-8 8z"/><path d="m47 17c-.552 0-1-.447-1-1s.448-1 1-1c1.103 0 2-.897 2-2s-.897-2-2-2c-.552 0-1-.447-1-1s.448-1 1-1c2.206 0 4 1.794 4 4s-1.794 4-4 4z"/></g><path d="m18 54h-18v-20.004c0-1.102.894-1.996 1.996-1.996h14.008c1.102 0 1.996.894 1.996 1.996z" fill="#35495e"/><path d="m58 54h-18v-20.004c0-1.102.894-1.996 1.996-1.996h14.008c1.102 0 1.996.894 1.996 1.996z" fill="#35495e"/><path d="m16.004 58h-14.008c-1.102 0-1.996-.894-1.996-1.996v-4.004h18v4.004c0 1.102-.894 1.996-1.996 1.996z" fill="#e7eced"/><path d="m11 56h-4c-.552 0-1-.447-1-1s.448-1 1-1h4c.552 0 1 .447 1 1s-.448 1-1 1z" fill="#afb6bb"/><path d="m11.504 36h-5.008c-.826 0-1.496-.67-1.496-1.496v-2.504h8v2.504c0 .826-.67 1.496-1.496 1.496z" fill="#e7eced"/><path d="m56.004 58h-14.008c-1.102 0-1.996-.894-1.996-1.996v-4.004h18v4.004c0 1.102-.894 1.996-1.996 1.996z" fill="#e7eced"/><path d="m51 56h-4c-.552 0-1-.447-1-1s.448-1 1-1h4c.552 0 1 .447 1 1s-.448 1-1 1z" fill="#afb6bb"/><path d="m51.504 36h-5.009c-.825 0-1.495-.67-1.495-1.496v-2.504h8v2.504c0 .826-.67 1.496-1.496 1.496z" fill="#e7eced"/></svg>