<svg enable-background="new 0 0 58 58" height="512" viewBox="0 0 58 58" width="512" xmlns="http://www.w3.org/2000/svg"><path d="m0 35.5v7c0 1.933 4.477 3.5 10 3.5s10-1.567 10-3.5v-7z" fill="#d3ceed"/><path d="m0 28.5v7c0 1.933 4.477 3.5 10 3.5s10-1.567 10-3.5v-7z" fill="#b1aece"/><path d="m0 21.5v7c0 1.933 4.477 3.5 10 3.5s10-1.567 10-3.5v-7z" fill="#d3ceed"/><path d="m0 14.5v7c0 1.933 4.477 3.5 10 3.5s10-1.567 10-3.5v-7z" fill="#b1aece"/><path d="m44 52h-13c-2.206 0-4-1.794-4-4v-36c0-2.206 1.794-4 4-4h13c.552 0 1 .447 1 1s-.448 1-1 1h-13c-1.103 0-2 .897-2 2v36c0 1.103.897 2 2 2h13c.552 0 1 .447 1 1s-.448 1-1 1z" fill="#61b872"/><path d="m44 31h-19c-.552 0-1-.447-1-1s.448-1 1-1h19c.552 0 1 .447 1 1s-.448 1-1 1z" fill="#61b872"/><path d="m52 4-2-4h-6v5 11h14v-12z" fill="#ebba16"/><ellipse cx="10" cy="14.5" fill="#d3ceed" rx="10" ry="3.5"/><path d="m53 9h-4c-.552 0-1-.447-1-1s.448-1 1-1h4c.552 0 1 .447 1 1s-.448 1-1 1z" fill="#f7e6a1"/><path d="m53 13h-4c-.552 0-1-.447-1-1s.448-1 1-1h4c.552 0 1 .447 1 1s-.448 1-1 1z" fill="#f7e6a1"/><path d="m52 5h-4c-.552 0-1-.447-1-1s.448-1 1-1h4c.552 0 1 .447 1 1s-.448 1-1 1z" fill="#cc9d17"/><path d="m52 25-2-4h-6v5 11h14v-12z" fill="#ebba16"/><path d="m53 30h-4c-.552 0-1-.447-1-1s.448-1 1-1h4c.552 0 1 .447 1 1s-.448 1-1 1z" fill="#f7e6a1"/><path d="m53 34h-4c-.552 0-1-.447-1-1s.448-1 1-1h4c.552 0 1 .447 1 1s-.448 1-1 1z" fill="#f7e6a1"/><path d="m52 26h-4c-.552 0-1-.447-1-1s.448-1 1-1h4c.552 0 1 .447 1 1s-.448 1-1 1z" fill="#cc9d17"/><path d="m52 46-2-4h-6v5 11h14v-12z" fill="#ebba16"/><path d="m53 51h-4c-.552 0-1-.447-1-1s.448-1 1-1h4c.552 0 1 .447 1 1s-.448 1-1 1z" fill="#f7e6a1"/><path d="m53 55h-4c-.552 0-1-.447-1-1s.448-1 1-1h4c.552 0 1 .447 1 1s-.448 1-1 1z" fill="#f7e6a1"/><path d="m52 47h-4c-.552 0-1-.447-1-1s.448-1 1-1h4c.552 0 1 .447 1 1s-.448 1-1 1z" fill="#cc9d17"/></svg>