<svg enable-background="new 0 0 58 59" height="512" viewBox="0 0 58 59" width="512" xmlns="http://www.w3.org/2000/svg"><path d="m57 6h-4v-4c0-1.105.895-2 2-2 1.105 0 2 .895 2 2z" fill="#ebba16"/><path d="m55 59c-.552 0-1-.447-1-1v-4c0-.553.448-1 1-1s1 .447 1 1v4c0 .553-.448 1-1 1z" fill="#f7e6a1"/><path d="m53 49h4v5h-4z" fill="#ebba16"/><path d="m42 0h-38v8 49c0 .552.448 1 1 1h40c.552 0 1-.448 1-1v-53c0-2.209-1.791-4-4-4z" fill="#e7eced"/><path d="m39.504 8c.381 0 .539-.49.225-.707-1.045-.722-1.729-1.927-1.729-3.293 0-2.209 1.791-4 4-4h-37.828c-2.089 0-3.955 1.527-4.153 3.607-.228 2.386 1.642 4.393 3.981 4.393z" fill="#afb6bb"/><path d="m39 29h-8c-.552 0-1-.447-1-1s.448-1 1-1h8c.552 0 1 .447 1 1s-.448 1-1 1z" fill="#366db6"/><path d="m27 29h-10c-.552 0-1-.447-1-1s.448-1 1-1h10c.552 0 1 .447 1 1s-.448 1-1 1z" fill="#a485be"/><path d="m31 25h-11c-.552 0-1-.447-1-1s.448-1 1-1h11c.552 0 1 .447 1 1s-.448 1-1 1z" fill="#23a24d"/><path d="m13 29h-2c-.552 0-1-.447-1-1s.448-1 1-1h2c.552 0 1 .447 1 1s-.448 1-1 1z" fill="#366db6"/><path d="m16 25h-5c-.552 0-1-.447-1-1s.448-1 1-1h5c.552 0 1 .447 1 1s-.448 1-1 1z" fill="#ebba16"/><path d="m39 25h-4c-.552 0-1-.447-1-1s.448-1 1-1h4c.552 0 1 .447 1 1s-.448 1-1 1z" fill="#dc691d"/><path d="m31 53h-11c-.552 0-1-.447-1-1s.448-1 1-1h11c.552 0 1 .447 1 1s-.448 1-1 1z" fill="#a485be"/><path d="m16 53h-5c-.552 0-1-.447-1-1s.448-1 1-1h5c.552 0 1 .447 1 1s-.448 1-1 1z" fill="#f76363"/><path d="m39 53h-4c-.552 0-1-.447-1-1s.448-1 1-1h4c.552 0 1 .447 1 1s-.448 1-1 1z" fill="#ebba16"/><path d="m11 42h6v6h-6z" fill="#ebba16"/><path d="m11 32h28v6h-28z" fill="#dd352e"/><path d="m33 42h6v6h-6z" fill="#dc691d"/><path d="m22 42h6v6h-6z" fill="#23a24d"/><path d="m11 14h6v6h-6z" fill="#366db6"/><path d="m33 14h6v6h-6z" fill="#a485be"/><path d="m22 14h6v6h-6z" fill="#f76363"/><path d="m57 50h-4c-.552 0-1-.448-1-1v-43c0-.552.448-1 1-1h4c.552 0 1 .448 1 1v43c0 .552-.448 1-1 1z" fill="#7383bf"/><g fill="#556080"><path d="m52 11h6v6h-6z"/><path d="m52 38h6v6h-6z"/></g></svg>