<svg enable-background="new 0 0 58 41" height="512" viewBox="0 0 58 41" width="512" xmlns="http://www.w3.org/2000/svg"><path d="m51.933 0h-16.933-12-16.933c-1.694 0-3.067 1.373-3.067 3.067v33.933h20c.208.58.758 1 1.407 1h9.186c.649 0 1.199-.42 1.407-1h20v-33.933c0-1.694-1.373-3.067-3.067-3.067z" fill="#e7eced"/><path d="m35 36c-.208.58-.758 1-1.407 1h-9.185c-.649 0-1.2-.42-1.407-1h-22.002c-.552 0-.999.447-.999.999v3.002c0 .552.447.999.999.999h56.002c.552 0 .999-.447.999-.999v-3.002c0-.552-.447-.999-.999-.999z" fill="#afb6bb"/><path d="m7 4v28h6.103c.054-.8.591-1.561 1.624-1.56 9.447.006 18.894.09 28.34.096.992.001 1.526.701 1.616 1.464h6.317v-28z" fill="#366db6"/><path d="m29 10c-9.389 0-17 7.611-17 17 0 1.74.264 3.419.75 5h32.5c.486-1.581.75-3.26.75-5 0-9.389-7.611-17-17-17z" fill="#fff"/><path d="m16 28c-.552 0-1-.447-1-1 0-7.72 6.28-14 14-14 .552 0 1 .447 1 1s-.448 1-1 1c-6.617 0-12 5.383-12 12 0 .553-.448 1-1 1z" fill="#dd352e"/><path d="m31.121 23.879c-.256 0-.512-.098-.707-.293-.391-.391-.391-1.023 0-1.414l5.879-5.879c.391-.391 1.024-.391 1.414 0 .391.391.391 1.023 0 1.414l-5.879 5.879c-.196.195-.452.293-.707.293z" fill="#28384c"/><circle cx="29" cy="25" fill="#ebba16" r="3"/></svg>