<svg enable-background="new 0 0 58 48" height="512" viewBox="0 0 58 48" width="512" xmlns="http://www.w3.org/2000/svg"><path d="m51.933 7h-16.933v-5.004c0-1.102-.894-1.996-1.996-1.996h-8.008c-1.102 0-1.996.894-1.996 1.996v5.004h-16.933c-1.694 0-3.067 1.373-3.067 3.067v33.933h20c.208.58.758 1 1.407 1h9.186c.649 0 1.199-.42 1.407-1h20v-33.933c0-1.694-1.373-3.067-3.067-3.067z" fill="#e7eced"/><path d="m27 3h4v4h-4z" fill="#28384c"/><path d="m35 43c-.208.58-.758 1-1.407 1h-9.185c-.649 0-1.2-.42-1.407-1h-22.002c-.552 0-.999.447-.999.999v3.002c0 .552.447.999.999.999h56.002c.552 0 .999-.447.999-.999v-3.002c0-.552-.447-.999-.999-.999z" fill="#afb6bb"/><path d="m7 11h44v28h-44z" fill="#366db6"/><path d="m34.299 29.569c-.099-.028-.199-.055-.299-.081-.348-.089-.676-.212-1.001-.37-.456-.221-.706-.653-.785-1.123-.071.003-.141 0-.214.005h-6c-.049-.003-.095-.001-.143-.003.017.087.032.175.036.265.042.926-.808 1.674-1.692 1.692.325-.007-.092.031-.188.062-.16.052-.316.109-.479.156-.585.169-1.16-.014-1.572-.393-.617.859-.962 1.97-.962 3.221v6h16v-6c0-1.211-.324-2.29-.905-3.137-.583.245-1.3.114-1.796-.294z" fill="#dd352e"/><path d="m32 28-3 3-3-3c-1.658-.014-3.312.706-4.112 1.888l7.112 6.112 7.112-6.112c-.8-1.182-2.454-1.902-4.112-1.888z" fill="#ebba16"/><path d="m32.081 19h-6.161c-1.183.888-1.92 2.299-1.92 4 0 1.922.458 4.085 2 5h6c1.542-.915 2-3.078 2-5 0-1.701-.737-3.112-1.919-4z" fill="#fbce9d"/><path d="m35 19h-12l1-4h10z" fill="#ebba16"/><path d="m37 20h-16c-.552 0-1-.447-1-1s.448-1 1-1h16c.552 0 1 .447 1 1s-.448 1-1 1z" fill="#dc691d"/></svg>