<svg enable-background="new 0 0 58 54" height="512" viewBox="0 0 58 54" width="512" xmlns="http://www.w3.org/2000/svg"><path d="m50 0h-42-4.999c-1.657 0-3.001 1.344-3.001 3.001v31.999h8 15 12 15 8v-31.999c0-1.657-1.344-3.001-3.001-3.001z" fill="#d2d7d8"/><path d="m4 4h50v30h-50z" fill="#43566b"/><path d="m34 42v-2h-10v2c0 4.422-1.578 8-6 8v1h22v-1c-4.422 0-6-3.578-6-8z" fill="#afb6bb"/><path d="m54.999 42h-51.998c-1.657 0-3.001-1.344-3.001-3.001v-4.999h58v4.999c0 1.657-1.344 3.001-3.001 3.001z" fill="#e7eced"/><path d="m32 39h-6c-.552 0-1-.448-1-1s.448-1 1-1h6c.552 0 1 .448 1 1s-.448 1-1 1z" fill="#afb6bb"/><path d="m42 54h-26c-1.105 0-2-.895-2-2 0-1.105.895-2 2-2h26c1.105 0 2 .895 2 2 0 1.105-.895 2-2 2z" fill="#e7eced"/><path d="m38.001 30h-18.002c-1.104 0-1.999-.895-1.999-1.999v-18.002c0-1.104.895-1.999 1.999-1.999h18.002c1.104 0 1.999.895 1.999 1.999v18.002c0 1.104-.895 1.999-1.999 1.999z" fill="#28384c"/><path d="m23 13v8h2v4h8v-4h2v-8z" fill="#ebba16"/><path d="m9 8h4v4h-4z" fill="#dd352e"/><path d="m9 26h4v4h-4z" fill="#ebba16"/><path d="m9 17h4v4h-4z" fill="#61b872"/><path d="m45 8h4v4h-4z" fill="#7383bf"/><path d="m45 26h4v4h-4z" fill="#57abc1"/><path d="m45 17h4v4h-4z" fill="#cb465f"/><g fill="#fff"><path d="m30 13v3c0 .552.448 1 1 1s1-.448 1-1v-3z"/><path d="m26 13v3c0 .552.448 1 1 1s1-.448 1-1v-3z"/><path d="m29 22c-.552 0-1 .448-1 1v2h2v-2c0-.552-.448-1-1-1z"/></g></svg>