<svg enable-background="new 0 0 58 54" height="512" viewBox="0 0 58 54" width="512" xmlns="http://www.w3.org/2000/svg"><path d="m50 0h-42-4.999c-1.657 0-3.001 1.344-3.001 3.001v31.999h8 15 12 15 8v-31.999c0-1.657-1.344-3.001-3.001-3.001z" fill="#d2d7d8"/><path d="m4 4h50v30h-50z" fill="#ebba16"/><g fill="#fff"><path d="m29 25c-.552 0-1-.448-1-1v-10c0-.552.448-1 1-1s1 .448 1 1v10c0 .552-.448 1-1 1z"/><path d="m44 20h-30c-.552 0-1-.448-1-1s.448-1 1-1h30c.552 0 1 .448 1 1s-.448 1-1 1z"/><path d="m44 25c-.552 0-1-.448-1-1v-5c0-.552.448-1 1-1s1 .448 1 1v5c0 .552-.448 1-1 1z"/><path d="m14 25c-.552 0-1-.448-1-1v-5c0-.552.448-1 1-1s1 .448 1 1v5c0 .552-.448 1-1 1z"/></g><path d="m34 42v-2h-10v2c0 4.422-1.578 8-6 8v1h22v-1c-4.422 0-6-3.578-6-8z" fill="#afb6bb"/><path d="m54.999 42h-51.998c-1.657 0-3.001-1.344-3.001-3.001v-4.999h58v4.999c0 1.657-1.344 3.001-3.001 3.001z" fill="#e7eced"/><path d="m32 39h-6c-.552 0-1-.448-1-1s.448-1 1-1h6c.552 0 1 .448 1 1s-.448 1-1 1z" fill="#afb6bb"/><path d="m42 54h-26c-1.105 0-2-.895-2-2 0-1.105.895-2 2-2h26c1.105 0 2 .895 2 2 0 1.105-.895 2-2 2z" fill="#e7eced"/><circle cx="29" cy="11" fill="#c5411e" r="3"/><path d="m24 24h10v6h-10z" fill="#c5411e"/><path d="m39 24h10v6h-10z" fill="#c5411e"/><path d="m9 24h10v6h-10z" fill="#c5411e"/></svg>