<svg height="512pt" viewBox="0 0 512 512" width="512pt" xmlns="http://www.w3.org/2000/svg"><path d="m158.898438 370.757812h194.203124v79.449219h-194.203124zm0 0" fill="#a9b0bb"/><path d="m406.070312 512h-300.140624c-4.875 0-8.828126-3.953125-8.828126-8.828125v-26.480469l17.65625-8.828125h282.484376l17.65625 8.828125v26.480469c0 4.875-3.953126 8.828125-8.828126 8.828125zm0 0" fill="#a9b0bb"/><path d="m414.898438 476.691406-61.796876-44.140625h-194.203124l-61.796876 44.140625zm0 0" fill="#cad0d7"/><path d="m512 317.792969v44.136719c0 14.628906-11.855469 26.484374-26.484375 26.484374h-459.03125c-14.628906 0-26.484375-11.855468-26.484375-26.484374v-44.136719l8.828125-8.828125h494.34375zm0 0" fill="#cad0d7"/><path d="m512 26.484375v291.308594h-512v-291.308594c0-14.628906 11.855469-26.484375 26.484375-26.484375h459.03125c14.628906 0 26.484375 11.855469 26.484375 26.484375zm0 0" fill="#4fc0e8"/><path d="m335.449219 388.414062h17.652343v44.136719h-17.652343zm0 0" fill="#979faa"/><path d="m414.898438 476.691406v26.480469c0 4.875-3.953126 8.828125-8.828126 8.828125h-17.65625c4.875 0 8.828126-3.953125 8.828126-8.828125v-26.480469zm0 0" fill="#979faa"/><path d="m414.898438 476.691406h-17.65625l-61.792969-44.140625h17.652343zm0 0" fill="#a9b0bb"/><path d="m512 317.792969v44.136719c0 14.628906-11.855469 26.484374-26.484375 26.484374h-17.652344c14.625 0 26.480469-11.855468 26.480469-26.484374v-44.136719zm0 0" fill="#a9b0bb"/><path d="m512 26.484375v291.308594h-17.65625v-291.308594c0-14.628906-11.855469-26.484375-26.480469-26.484375h17.652344c14.628906 0 26.484375 11.855469 26.484375 26.484375zm0 0" fill="#3aadd9"/><path d="m273.65625 361.929688h-35.3125c-4.875 0-8.828125-3.949219-8.828125-8.828126 0-4.875 3.953125-8.824218 8.828125-8.824218h35.3125c4.875 0 8.828125 3.949218 8.828125 8.824218 0 4.878907-3.953125 8.828126-8.828125 8.828126zm0 0" fill="#a9b0bb"/><g fill="#b4df80"><path d="m200.449219 82.035156c-3.449219-3.445312-9.035157-3.445312-12.484375 0l-70.621094 70.621094c-3.445312 3.445312-3.445312 9.035156 0 12.480469l70.621094 70.621093c3.464844 3.347657 8.96875 3.296876 12.375-.105468 3.40625-3.40625 3.453125-8.914063.109375-12.375l-64.378907-64.378906 64.378907-64.382813c3.445312-3.445313 3.445312-9.035156 0-12.480469zm0 0"/><path d="m394.65625 152.65625-70.621094-70.621094c-3.464844-3.347656-8.96875-3.296875-12.375.105469-3.40625 3.40625-3.453125 8.914063-.109375 12.375l64.378907 64.382813-64.378907 64.378906c-2.292969 2.214844-3.214843 5.496094-2.40625 8.582031.808594 3.089844 3.21875 5.5 6.304688 6.304687 3.085937.808594 6.367187-.109374 8.585937-2.40625l70.621094-70.621093c3.445312-3.445313 3.445312-9.035157 0-12.480469zm0 0"/><path d="m285.589844 80.003906c-2.195313-.824218-4.628906-.746094-6.761719.226563-2.136719.96875-3.796875 2.75-4.617187 4.945312l-52.964844 141.242188c-.824219 2.195312-.742188 4.625.230468 6.757812.96875 2.132813 2.746094 3.792969 4.941407 4.613281.992187.363282 2.042969.550782 3.097656.554688 3.683594.003906 6.980469-2.28125 8.273437-5.726562l52.964844-141.242188c.824219-2.191406.742188-4.625-.226562-6.753906-.96875-2.132813-2.746094-3.792969-4.9375-4.617188zm0 0"/></g></svg>