<svg height="512pt" viewBox="0 -35 512 512" width="512pt" xmlns="http://www.w3.org/2000/svg"><path d="m485.515625 397.242188-27.363281 34.195312c-5.023438 6.28125-12.632813 9.941406-20.675782 9.941406h-362.953124c-8.042969 0-15.652344-3.660156-20.675782-9.941406l-27.363281-34.195312v-17.65625h459.03125zm0 0" fill="#636c77"/><path d="m476.691406 370.757812v-353.101562c-.03125-9.738281-7.917968-17.6289062-17.65625-17.65625h-406.070312c-9.738282.0273438-17.625 7.917969-17.65625 17.65625v353.101562zm0 0" fill="#636c77"/><path d="m389.5625 35.308594h42.988281c4.875 0 8.828125 3.953125 8.828125 8.828125v238.347656c0 4.875-3.953125 8.824219-8.828125 8.824219h-353.101562c-4.875 0-8.828125-3.949219-8.828125-8.824219v-238.347656c0-4.875 3.953125-8.828125 8.828125-8.828125zm0 0" fill="#4fc0e8"/><path d="m512 344.277344v35.308594c-.027344 9.738281-7.917969 17.625-17.65625 17.65625h-476.6875c-9.738281-.03125-17.6289062-7.917969-17.65625-17.65625v-35.308594c.0273438-9.738282 7.917969-17.628906 17.65625-17.65625h158.894531c4.875 0 8.828125 3.953125 8.828125 8.828125v8.828125c0 4.875 3.953125 8.824218 8.828125 8.824218h123.585938c4.875 0 8.828125-3.949218 8.828125-8.824218v-8.828125c0-4.875 3.953125-8.828125 8.828125-8.828125h158.894531c9.738281.027344 17.628906 7.917968 17.65625 17.65625zm0 0" fill="#a9b0bb"/><path d="m388.414062 220.691406v26.480469c0 4.875-3.953124 8.828125-8.828124 8.828125h-123.585938v-44.136719h123.585938c4.875 0 8.828124 3.949219 8.828124 8.828125zm0 0" fill="#f4f6f8"/><path d="m308.964844 123.585938c0 29.253906-23.710938 52.964843-52.964844 52.964843s-52.964844-23.710937-52.964844-52.964843c0-29.25 23.710938-52.964844 52.964844-52.964844s52.964844 23.714844 52.964844 52.964844zm0 0" fill="#e4e8eb"/><path d="m273.65625 123.585938c0 9.75-7.90625 17.65625-17.65625 17.65625s-17.65625-7.90625-17.65625-17.65625 7.90625-17.65625 17.65625-17.65625 17.65625 7.90625 17.65625 17.65625zm0 0" fill="#a9b0bb"/><path d="m264.828125 211.863281v44.136719h-132.414063c-4.875 0-8.828124-3.953125-8.828124-8.828125v-26.480469c0-4.878906 3.953124-8.828125 8.828124-8.828125zm0 0" fill="#b4df80"/><path d="m485.515625 397.242188-27.363281 34.160156c-4.992188 6.316406-12.605469 9.992187-20.65625 9.976562h-17.65625c8.050781.015625 15.664062-3.660156 20.65625-9.976562l27.367187-34.160156zm0 0" fill="#545d66"/><path d="m476.691406 17.65625v308.964844h-17.65625v-308.964844c-.03125-9.738281-7.917968-17.6289062-17.65625-17.65625h17.65625c9.738282.0273438 17.625 7.917969 17.65625 17.65625zm0 0" fill="#545d66"/><path d="m512 344.277344v35.308594c-.027344 9.738281-7.917969 17.625-17.65625 17.65625h-17.652344c9.75 0 17.652344-7.90625 17.652344-17.65625v-35.308594c-.027344-9.738282-7.914062-17.628906-17.652344-17.65625h17.652344c9.738281.027344 17.628906 7.917968 17.65625 17.65625zm0 0" fill="#939aa5"/><path d="m194.207031 353.101562h-17.65625c-4.875 0-8.828125-3.949218-8.828125-8.824218v-8.828125c0-4.875-3.949218-8.828125-8.824218-8.828125h17.652343c4.875 0 8.828125 3.953125 8.828125 8.828125v8.828125c0 4.875 3.953125 8.824218 8.828125 8.824218zm0 0" fill="#939aa5"/><path d="m264.828125 123.585938c0 4.875-3.953125 8.828124-8.828125 8.828124s-8.828125-3.953124-8.828125-8.828124 3.953125-8.828126 8.828125-8.828126 8.828125 3.953126 8.828125 8.828126zm0 0" fill="#4fc0e8"/><path d="m44.136719 370.757812h-8.828125c-4.875 0-8.824219-3.953124-8.824219-8.828124s3.949219-8.828126 8.824219-8.828126h8.828125c4.875 0 8.828125 3.953126 8.828125 8.828126s-3.953125 8.828124-8.828125 8.828124zm0 0" fill="#ffd67b"/><path d="m88.277344 370.757812h-8.828125c-4.875 0-8.828125-3.953124-8.828125-8.828124s3.953125-8.828126 8.828125-8.828126h8.828125c4.875 0 8.824218 3.953126 8.824218 8.828126s-3.949218 8.828124-8.824218 8.828124zm0 0" fill="#ffd67b"/><path d="m161.484375 152.65625-2.585937 2.585938v-40.484376c0-4.875-3.953126-8.828124-8.828126-8.828124s-8.828124 3.953124-8.828124 8.828124v40.484376l-2.585938-2.585938c-3.464844-3.347656-8.972656-3.296875-12.375.105469-3.40625 3.40625-3.453125 8.914062-.109375 12.375l17.65625 17.65625c.820313.824219 1.800781 1.476562 2.878906 1.914062 2.15625.90625 4.585938.90625 6.742188 0 1.078125-.4375 2.054687-1.089843 2.878906-1.914062l17.65625-17.65625c3.34375-3.460938 3.296875-8.96875-.109375-12.375-3.40625-3.402344-8.910156-3.453125-12.375-.105469zm0 0" fill="#f4f6f8"/><path d="m385.828125 152.65625c-3.449219-3.445312-9.035156-3.445312-12.484375 0l-2.585938 2.585938v-40.484376c0-4.875-3.953124-8.828124-8.828124-8.828124s-8.828126 3.953124-8.828126 8.828124v40.484376l-2.585937-2.585938c-3.460937-3.347656-8.96875-3.296875-12.375.105469-3.402344 3.40625-3.453125 8.914062-.105469 12.375l17.65625 17.65625c.820313.824219 1.800782 1.476562 2.875 1.914062 2.15625.90625 4.589844.90625 6.746094 0 1.078125-.4375 2.054688-1.089843 2.878906-1.914062l17.652344-17.65625c3.441406-3.449219 3.433594-9.039063-.015625-12.480469zm0 0" fill="#f4f6f8"/><g fill="#89c053"><path d="m196.679688 211.863281-35.3125 44.136719h-22.597657l35.308594-44.136719zm0 0"/><path d="m249.644531 211.863281-35.3125 44.136719h-22.597656l35.3125-44.136719zm0 0"/></g></svg>