<svg height="512pt" viewBox="0 0 512 512" width="512pt" xmlns="http://www.w3.org/2000/svg"><path d="m494.34375 512h-476.6875c-9.75 0-17.65625-7.90625-17.65625-17.65625v-17.652344l8.828125-8.828125h494.34375l8.828125 8.828125v17.652344c0 9.75-7.90625 17.65625-17.65625 17.65625zm0 0" fill="#457393"/><path d="m512 476.691406-47.308594-157.679687c-3.359375-11.199219-13.667968-18.871094-25.359375-18.875h-366.664062c-11.691407.003906-22 7.675781-25.359375 18.875l-47.308594 157.679687" fill="#5e8faa"/><g fill="#457393"><path d="m90.210938 441.378906h-25.9375c-2.71875 0-5.285157-1.253906-6.957032-3.394531-1.675781-2.144531-2.265625-4.941406-1.605468-7.578125l4.414062-17.65625c.984375-3.925781 4.511719-6.679688 8.5625-6.679688h25.933594c2.722656 0 5.289062 1.25 6.960937 3.394532 1.671875 2.144531 2.265625 4.9375 1.605469 7.578125l-4.414062 17.652343c-.984376 3.929688-4.515626 6.683594-8.5625 6.683594zm0 0"/><path d="m107.863281 370.757812h-25.933593c-2.71875 0-5.289063-1.253906-6.960938-3.394531-1.671875-2.144531-2.261719-4.941406-1.601562-7.578125l4.414062-17.65625c.984375-3.925781 4.511719-6.679687 8.5625-6.679687h25.933594c2.71875 0 5.285156 1.253906 6.960937 3.394531 1.671875 2.144531 2.261719 4.941406 1.601563 7.578125l-4.414063 17.652344c-.984375 3.929687-4.511719 6.683593-8.5625 6.683593zm0 0"/><path d="m169.65625 441.378906h-25.933594c-2.71875 0-5.285156-1.253906-6.960937-3.394531-1.671875-2.144531-2.261719-4.941406-1.601563-7.578125l4.414063-17.65625c.984375-3.925781 4.511719-6.679688 8.5625-6.679688h25.933593c2.71875 0 5.289063 1.25 6.960938 3.394532 1.671875 2.144531 2.261719 4.9375 1.601562 7.578125l-4.414062 17.652343c-.984375 3.929688-4.511719 6.683594-8.5625 6.683594zm0 0"/><path d="m187.3125 370.757812h-25.933594c-2.722656 0-5.289062-1.253906-6.960937-3.394531-1.671875-2.144531-2.265625-4.941406-1.605469-7.578125l4.414062-17.65625c.984376-3.925781 4.515626-6.679687 8.5625-6.679687h25.9375c2.71875 0 5.285157 1.253906 6.957032 3.394531 1.675781 2.144531 2.265625 4.941406 1.605468 7.578125l-4.414062 17.652344c-.984375 3.929687-4.511719 6.683593-8.5625 6.683593zm0 0"/><path d="m271.175781 370.757812h-30.351562c-2.71875 0-5.285157-1.253906-6.957031-3.394531-1.671876-2.144531-2.265626-4.941406-1.605469-7.578125l4.414062-17.65625c.984375-3.925781 4.515625-6.679687 8.5625-6.679687h21.523438c4.046875 0 7.578125 2.753906 8.5625 6.679687l4.414062 17.65625c.660157 2.636719.066407 5.433594-1.605469 7.578125-1.671874 2.140625-4.238281 3.394531-6.957031 3.394531zm0 0"/><path d="m280.003906 441.378906h-48.007812c-2.71875 0-5.285156-1.253906-6.957032-3.394531-1.671874-2.144531-2.265624-4.941406-1.605468-7.578125l4.414062-17.65625c.984375-3.925781 4.515625-6.679688 8.5625-6.679688h39.179688c4.046875 0 7.578125 2.753907 8.5625 6.679688l4.414062 17.65625c.660156 2.636719.066406 5.433594-1.605468 7.578125-1.671876 2.140625-4.238282 3.394531-6.957032 3.394531zm0 0"/><path d="m342.34375 441.378906h25.933594c2.71875 0 5.285156-1.253906 6.960937-3.394531 1.671875-2.144531 2.261719-4.941406 1.601563-7.578125l-4.414063-17.65625c-.984375-3.925781-4.511719-6.679688-8.5625-6.679688h-25.933593c-2.71875 0-5.289063 1.25-6.960938 3.394532-1.671875 2.144531-2.261719 4.9375-1.601562 7.578125l4.414062 17.652343c.984375 3.929688 4.511719 6.683594 8.5625 6.683594zm0 0"/><path d="m324.6875 370.757812h25.933594c2.722656 0 5.289062-1.253906 6.960937-3.394531 1.671875-2.144531 2.265625-4.941406 1.605469-7.578125l-4.414062-17.65625c-.984376-3.925781-4.515626-6.679687-8.5625-6.679687h-25.9375c-2.71875 0-5.285157 1.253906-6.957032 3.394531-1.675781 2.144531-2.265625 4.941406-1.605468 7.578125l4.414062 17.652344c.984375 3.929687 4.511719 6.683593 8.5625 6.683593zm0 0"/><path d="m421.789062 441.378906h25.9375c2.71875 0 5.285157-1.253906 6.957032-3.394531 1.675781-2.144531 2.265625-4.941406 1.605468-7.578125l-4.414062-17.65625c-.984375-3.925781-4.511719-6.679688-8.5625-6.679688h-25.933594c-2.722656 0-5.289062 1.25-6.960937 3.394532-1.671875 2.144531-2.265625 4.9375-1.605469 7.578125l4.414062 17.652343c.984376 3.929688 4.515626 6.683594 8.5625 6.683594zm0 0"/><path d="m404.136719 370.757812h25.933593c2.71875 0 5.289063-1.253906 6.960938-3.394531 1.671875-2.144531 2.261719-4.941406 1.601562-7.578125l-4.414062-17.65625c-.984375-3.925781-4.511719-6.679687-8.5625-6.679687h-25.933594c-2.71875 0-5.285156 1.253906-6.960937 3.394531-1.671875 2.144531-2.261719 4.941406-1.601563 7.578125l4.414063 17.652344c.984375 3.929687 4.511719 6.683593 8.5625 6.683593zm0 0"/></g><path d="m70.621094 52.964844-8.828125 17.65625v176.550781c.027343 9.738281 7.917969 17.625 17.65625 17.65625h353.101562c9.738281-.03125 17.628907-7.917969 17.65625-17.65625v-176.550781l-8.828125-17.65625zm0 0" fill="#a9b0bb"/><path d="m450.207031 70.621094v176.550781c-.027343 9.738281-7.917969 17.625-17.65625 17.65625h-211.859375v-194.207031zm0 0" fill="#636c77"/><path d="m450.207031 17.65625v52.964844h-388.414062v-52.964844c.027343-9.738281 7.917969-17.6289062 17.65625-17.65625h353.101562c9.738281.0273438 17.628907 7.917969 17.65625 17.65625zm0 0" fill="#cad0d7"/><path d="m512 476.691406v17.652344c-.027344 9.738281-7.917969 17.628906-17.65625 17.65625h-17.652344c9.738282-.027344 17.625-7.917969 17.652344-17.65625v-17.652344zm0 0" fill="#365972"/><path d="m512 476.691406h-17.65625l-2.648438-8.828125-44.667968-148.835937c-3.347656-11.195313-13.644532-18.875-25.332032-18.890625h17.652344c11.691406.015625 21.984375 7.695312 25.335938 18.890625zm0 0" fill="#457393"/><path d="m450.207031 70.621094v176.550781c-.027343 9.738281-7.917969 17.625-17.65625 17.65625h-17.652343c9.738281-.03125 17.625-7.917969 17.652343-17.65625v-176.550781zm0 0" fill="#535e68"/><path d="m450.207031 17.65625v52.964844h-17.65625v-52.964844c-.027343-9.738281-7.914062-17.6289062-17.652343-17.65625h17.652343c9.738281.0273438 17.628907 7.917969 17.65625 17.65625zm0 0" fill="#a9b0bb"/><path d="m105.929688 44.136719h-8.828126c-4.875 0-8.824218-3.949219-8.824218-8.828125 0-4.875 3.949218-8.824219 8.824218-8.824219h8.828126c4.875 0 8.828124 3.949219 8.828124 8.824219 0 4.878906-3.953124 8.828125-8.828124 8.828125zm0 0" fill="#d94452"/><path d="m150.070312 44.136719h-8.828124c-4.875 0-8.828126-3.949219-8.828126-8.828125 0-4.875 3.953126-8.824219 8.828126-8.824219h8.828124c4.875 0 8.828126 3.949219 8.828126 8.824219 0 4.878906-3.953126 8.828125-8.828126 8.828125zm0 0" fill="#f5b945"/><path d="m194.207031 44.136719h-8.828125c-4.875 0-8.828125-3.949219-8.828125-8.828125 0-4.875 3.953125-8.824219 8.828125-8.824219h8.828125c4.875 0 8.828125 3.949219 8.828125 8.824219 0 4.878906-3.953125 8.828125-8.828125 8.828125zm0 0" fill="#89c053"/><path d="m105.929688 123.585938h-8.828126c-4.875 0-8.824218-3.953126-8.824218-8.828126s3.949218-8.828124 8.824218-8.828124h8.828126c4.875 0 8.828124 3.953124 8.828124 8.828124s-3.953124 8.828126-8.828124 8.828126zm0 0" fill="#b4df80"/><path d="m185.378906 123.585938h-44.136718c-4.875 0-8.828126-3.953126-8.828126-8.828126s3.953126-8.828124 8.828126-8.828124h44.136718c4.875 0 8.828125 3.953124 8.828125 8.828124s-3.953125 8.828126-8.828125 8.828126zm0 0" fill="#eb5463"/><path d="m105.929688 158.898438h-8.828126c-4.875 0-8.824218-3.953126-8.824218-8.828126s3.949218-8.828124 8.824218-8.828124h8.828126c4.875 0 8.828124 3.953124 8.828124 8.828124s-3.953124 8.828126-8.828124 8.828126zm0 0" fill="#b4df80"/><path d="m185.378906 158.898438h-44.136718c-4.875 0-8.828126-3.953126-8.828126-8.828126s3.953126-8.828124 8.828126-8.828124h44.136718c4.875 0 8.828125 3.953124 8.828125 8.828124s-3.953125 8.828126-8.828125 8.828126zm0 0" fill="#eb5463"/><path d="m105.929688 194.207031h-8.828126c-4.875 0-8.824218-3.953125-8.824218-8.828125s3.949218-8.828125 8.824218-8.828125h8.828126c4.875 0 8.828124 3.953125 8.828124 8.828125s-3.953124 8.828125-8.828124 8.828125zm0 0" fill="#b4df80"/><path d="m185.378906 194.207031h-44.136718c-4.875 0-8.828126-3.953125-8.828126-8.828125s3.953126-8.828125 8.828126-8.828125h44.136718c4.875 0 8.828125 3.953125 8.828125 8.828125s-3.953125 8.828125-8.828125 8.828125zm0 0" fill="#eb5463"/><path d="m105.929688 229.515625h-8.828126c-4.875 0-8.824218-3.949219-8.824218-8.824219 0-4.878906 3.949218-8.828125 8.824218-8.828125h8.828126c4.875 0 8.828124 3.949219 8.828124 8.828125 0 4.875-3.953124 8.824219-8.828124 8.824219zm0 0" fill="#b4df80"/><path d="m185.378906 229.515625h-44.136718c-4.875 0-8.828126-3.949219-8.828126-8.824219 0-4.878906 3.953126-8.828125 8.828126-8.828125h44.136718c4.875 0 8.828125 3.949219 8.828125 8.828125 0 4.875-3.953125 8.824219-8.828125 8.824219zm0 0" fill="#eb5463"/><path d="m291.308594 211.863281c-2.339844 0-4.585938-.933593-6.238282-2.585937l-35.3125-35.3125c-3.445312-3.445313-3.445312-9.035156 0-12.480469l35.3125-35.3125c3.460938-3.34375 8.96875-3.296875 12.375.109375 3.402344 3.402344 3.453126 8.910156.105469 12.375l-29.070312 29.066406 29.070312 29.070313c2.523438 2.523437 3.28125 6.320312 1.914063 9.621093-1.367188 3.296876-4.585938 5.445313-8.15625 5.449219zm0 0" fill="#b4df80"/><path d="m379.585938 211.863281c-3.570313-.003906-6.789063-2.152343-8.152344-5.449219-1.367188-3.300781-.613282-7.097656 1.910156-9.621093l29.070312-29.070313-29.070312-29.066406c-3.34375-3.464844-3.296875-8.972656.109375-12.375 3.40625-3.40625 8.910156-3.453125 12.375-.109375l35.308594 35.3125c3.445312 3.445313 3.445312 9.035156 0 12.480469l-35.308594 35.3125c-1.65625 1.652344-3.902344 2.585937-6.242187 2.585937zm0 0" fill="#b4df80"/><path d="m326.621094 211.863281c-.722656 0-1.445313-.085937-2.144532-.265625-2.273437-.566406-4.226562-2.015625-5.433593-4.023437-1.203125-2.007813-1.5625-4.414063-.992188-6.683594l17.652344-70.621094c1.214844-4.699219 5.988281-7.535156 10.695313-6.359375 4.703124 1.179688 7.578124 5.933594 6.429687 10.648438l-17.652344 70.621094c-.984375 3.925781-4.507812 6.679687-8.554687 6.683593zm0 0" fill="#b4df80"/></svg>