<svg height="512pt" viewBox="0 -8 512 511" width="512pt" xmlns="http://www.w3.org/2000/svg"><path d="m408.574219 136.402344c-9.386719-80.917969-80.3125-140.4375-161.632813-135.632813-81.320312 4.808594-144.746094 72.261719-144.542968 153.722657 0 2.902343.085937 5.71875.257812 8.535156 2.132812 39.316406 19.339844 76.296875 48.042969 103.25 23.691406 22.472656 37.085937 53.707031 37.035156 86.359375v23.722656h136.53125v-23.722656c-.0625-32.699219 13.367187-63.972657 37.121094-86.441407 28.691406-26.921874 45.871093-63.882812 47.957031-103.167968.507812-8.882813.25-17.789063-.769531-26.625zm0 0" fill="#ffd67b"/><path d="m256 495.824219c-15.84375 0-31.035156-6.292969-42.238281-17.492188-11.203125-11.203125-17.496094-26.398437-17.496094-42.238281l8.535156-8.535156h102.398438l8.535156 8.535156c0 15.839844-6.292969 31.035156-17.496094 42.238281-11.203125 11.199219-26.394531 17.492188-42.238281 17.492188zm0 0" fill="#cad0d7"/><path d="m179.199219 401.960938h153.601562c9.425781 0 17.066407 7.640624 17.066407 17.066406 0 9.425781-7.640626 17.066406-17.066407 17.066406h-153.601562c-9.425781 0-17.066407-7.640625-17.066407-17.066406 0-9.425782 7.640626-17.066406 17.066407-17.066406zm0 0" fill="#cad0d7"/><path d="m179.199219 367.824219h153.601562c9.425781 0 17.066407 7.640625 17.066407 17.066406s-7.640626 17.070313-17.066407 17.070313h-153.601562c-9.425781 0-17.066407-7.644532-17.066407-17.070313s7.640626-17.066406 17.066407-17.066406zm0 0" fill="#cad0d7"/><path d="m290.132812 258.855469c0 14.136719-11.460937 25.597656-25.597656 25.597656-6.3125.015625-12.398437-2.328125-17.070312-6.570313v89.941407h-59.730469v-15.1875c.050781-32.652344-13.34375-63.886719-37.035156-86.359375-28.703125-26.953125-45.910157-63.933594-48.042969-103.25h40.449219c-4.242188-4.671875-6.585938-10.757813-6.570313-17.066406 0-14.140626 11.460938-25.601563 25.597656-25.601563 14.140626 0 25.601563 11.460937 25.601563 25.601563.011719 6.308593-2.332031 12.394531-6.570313 17.066406h66.300782v76.796875c4.671875-4.238281 10.757812-6.582031 17.070312-6.570313 14.136719 0 25.597656 11.460938 25.597656 25.601563zm0 0" fill="#f5b945"/><path d="m409.34375 163.027344h-57.515625c4.242187 4.667968 6.585937 10.753906 6.570313 17.066406 0 14.136719-11.460938 25.597656-25.597657 25.597656-14.140625 0-25.601562-11.460937-25.601562-25.597656-.011719-6.3125 2.328125-12.398438 6.570312-17.066406h-66.304687v-66.304688c-4.667969 4.242188-10.753906 6.582032-17.066406 6.570313-14.136719 0-25.597657-11.460938-25.597657-25.601563 0-14.136718 11.460938-25.597656 25.597657-25.597656 6.3125-.015625 12.398437 2.328125 17.066406 6.570312v-57.515624c81.054687-4.714844 151.71875 54.609374 161.109375 135.253906 1.019531 8.835937 1.277343 17.742187.769531 26.625zm0 0" fill="#f5b945"/><path d="m409.34375 163.027344c-2.085938 39.285156-19.265625 76.246094-47.957031 103.167968-23.753907 22.46875-37.183594 53.742188-37.121094 86.441407v15.1875h-25.597656v-15.1875c-.0625-32.699219 13.367187-63.972657 37.117187-86.441407 28.691406-26.921874 45.871094-63.882812 47.957032-103.167968zm0 0" fill="#efc165"/><path d="m409.34375 163.027344h-25.601562c4.742187-81.355469-55.027344-152.183594-136.019532-161.195313h-.257812v-.683593c81.054687-4.714844 151.71875 54.609374 161.109375 135.253906 1.019531 8.835937 1.277343 17.742187.769531 26.625zm0 0" fill="#e8aa3d"/><path d="m349.867188 419.027344c-.070313 9.394531-7.671876 16.996094-17.066407 17.066406h-153.601562c-6.089844-.007812-11.714844-3.257812-14.761719-8.535156h151.296875c9.394531-.070313 16.996094-7.667969 17.066406-17.066406-.007812-2.996094-.800781-5.941407-2.304687-8.53125h2.304687c9.414063.027343 17.039063 7.652343 17.066407 17.066406zm0 0" fill="#bac1c6"/><path d="m349.867188 384.890625c-.070313 9.398437-7.671876 17-17.066407 17.070313h-153.601562c-6.089844-.007813-11.714844-3.261719-14.761719-8.535157h151.296875c9.394531-.070312 16.996094-7.671875 17.066406-17.066406-.007812-2.996094-.800781-5.941406-2.304687-8.535156h2.304687c9.414063.03125 17.039063 7.652343 17.066407 17.066406zm0 0" fill="#bac1c6"/><path d="m315.734375 436.09375c0 15.839844-6.292969 31.035156-17.496094 42.238281-11.203125 11.199219-26.394531 17.492188-42.238281 17.492188-2.859375.035156-5.714844-.191407-8.535156-.679688 12.78125-1.746093 24.625-7.65625 33.707031-16.8125 11.238281-11.179687 17.535156-26.390625 17.496094-42.238281zm0 0" fill="#bac1c6"/><g fill="#ffd67b"><path d="m503.464844 163.027344h-59.730469c-4.714844 0-8.535156-3.820313-8.535156-8.535156 0-4.710938 3.820312-8.53125 8.535156-8.53125h59.730469c4.714844 0 8.535156 3.820312 8.535156 8.53125 0 4.714843-3.820312 8.535156-8.535156 8.535156zm0 0"/><path d="m418.59375 69.160156c-3.863281 0-7.242188-2.59375-8.242188-6.324218-1-3.730469.632813-7.667969 3.976563-9.601563l51.71875-29.867187c4.078125-2.316407 9.261719-.910157 11.609375 3.152343 2.34375 4.0625.972656 9.257813-3.074219 11.628907l-51.722656 29.867187c-1.292969.753906-2.765625 1.148437-4.265625 1.144531zm0 0"/><path d="m470.296875 286.757812c-1.496094.003907-2.96875-.390624-4.265625-1.140624l-51.722656-29.867188c-2.660156-1.515625-4.308594-4.339844-4.3125-7.402344-.007813-3.058594 1.625-5.890625 4.28125-7.417968 2.65625-1.523438 5.925781-1.507813 8.566406.039062l51.71875 29.867188c3.347656 1.929687 4.976562 5.867187 3.976562 9.597656-1 3.730468-4.378906 6.324218-8.242187 6.324218zm0 0"/><path d="m68.265625 163.027344h-59.730469c-4.714844 0-8.535156-3.820313-8.535156-8.535156 0-4.710938 3.820312-8.53125 8.535156-8.53125h59.730469c4.714844 0 8.535156 3.820312 8.535156 8.53125 0 4.714843-3.820312 8.535156-8.535156 8.535156zm0 0"/><path d="m93.40625 69.160156c-1.5.003906-2.972656-.390625-4.265625-1.144531l-51.722656-29.867187c-2.660157-1.511719-4.308594-4.335938-4.316407-7.398438-.003906-3.0625 1.628907-5.894531 4.285157-7.417969 2.65625-1.527343 5.921875-1.511719 8.566406.035157l51.71875 29.867187c3.34375 1.933594 4.976563 5.871094 3.976563 9.601563-1 3.730468-4.378907 6.324218-8.242188 6.324218zm0 0"/><path d="m41.703125 286.757812c-3.863281 0-7.242187-2.59375-8.242187-6.324218-1-3.730469.628906-7.667969 3.976562-9.597656l51.71875-29.867188c4.078125-2.316406 9.261719-.910156 11.609375 3.152344 2.34375 4.0625.96875 9.253906-3.074219 11.628906l-51.722656 29.867188c-1.296875.75-2.769531 1.144531-4.265625 1.140624zm0 0"/></g></svg>