<svg height="512pt" viewBox="0 0 512 512" width="512pt" xmlns="http://www.w3.org/2000/svg"><path d="m512 61.792969v432.550781c-.027344 9.738281-7.917969 17.628906-17.65625 17.65625h-450.207031c-11.703125 0-22.929688-4.648438-31.210938-12.925781-8.277343-8.28125-12.925781-19.507813-12.925781-31.210938 0-24.367187 88.277344-423.726562 88.277344-423.726562h406.066406c9.738281.03125 17.628906 7.917969 17.65625 17.65625zm0 0" fill="#5e9cea"/><path d="m427.167969 291.308594c28.863281-59.378906 12.738281-130.835938-38.832031-172.066406-51.570313-41.226563-124.824219-41.226563-176.394532 0-51.570312 41.230468-67.699218 112.6875-38.832031 172.066406" fill="#e4e8eb"/><path d="m467.863281 423.722656v26.484375c-.03125 9.738281-7.917969 17.625-17.65625 17.65625h-300.136719c-9.738281-.03125-17.628906-7.917969-17.65625-17.65625v-26.484375l8.828126-17.652344h317.792968zm0 0" fill="#f2a149"/><path d="m467.863281 308.964844v114.757812h-335.449219v-114.757812c.027344-9.738282 7.917969-17.625 17.65625-17.65625h300.136719c9.738281.03125 17.625 7.917968 17.65625 17.65625zm0 0" fill="#fab153"/><path d="m361.929688 229.515625c0 34.128906-27.664063 61.792969-61.792969 61.792969-34.125 0-61.792969-27.664063-61.792969-61.792969 0-34.125 27.667969-61.792969 61.792969-61.792969 34.128906 0 61.792969 27.667969 61.792969 61.792969zm0 0" fill="#cad0d7"/><path d="m256 326.621094h88.277344c9.75 0 17.652344 7.902344 17.652344 17.65625 0 9.75-7.902344 17.652344-17.652344 17.652344h-88.277344c-9.75 0-17.65625-7.902344-17.65625-17.652344 0-9.753906 7.90625-17.65625 17.65625-17.65625zm0 0" fill="#e4e8eb"/><path d="m88.277344 44.136719v423.726562c0-24.378906-19.761719-44.140625-44.140625-44.140625-24.375 0-44.136719 19.761719-44.136719 44.140625v-423.726562c0-24.375 19.761719-44.136719 44.136719-44.136719 24.378906 0 44.140625 19.761719 44.140625 44.136719zm0 0" fill="#4a88da"/><path d="m512 61.792969v432.550781c-.027344 9.738281-7.917969 17.628906-17.65625 17.65625h-31.601562c9.738281-.027344 17.625-7.917969 17.65625-17.65625v-432.550781c-.03125-9.738281-7.917969-17.625-17.65625-17.65625h31.601562c9.738281.03125 17.628906 7.917969 17.65625 17.65625zm0 0" fill="#4a88da"/><path d="m361.929688 344.277344c.019531 1.492187-.1875 2.980468-.617188 4.414062-2.007812-7.777344-9.007812-13.21875-17.035156-13.242187h-88.277344c-4.683594-.027344-9.175781 1.855469-12.445312 5.207031-2.257813 2.191406-3.847657 4.976562-4.59375 8.035156-.425782-1.433594-.632813-2.921875-.617188-4.414062.074219-9.722656 7.9375-17.585938 17.65625-17.65625h88.277344c9.738281.027344 17.625 7.917968 17.652344 17.65625zm0 0" fill="#cad0d7"/><path d="m194.207031 238.34375c-4.875 0-8.828125-3.949219-8.828125-8.828125.113282-44.828125 26.226563-85.519531 66.929688-104.304687 2.882812-1.425782 6.308594-1.175782 8.949218.65625 2.640626 1.832031 4.078126 4.953124 3.753907 8.148437-.328125 3.199219-2.367188 5.964844-5.320313 7.226563-34.453125 15.894531-56.554687 50.332031-56.65625 88.273437 0 4.878906-3.953125 8.828125-8.828125 8.828125zm0 0" fill="#fff"/><path d="m291.308594 132.785156c-4.875.199219-8.988282-3.589844-9.1875-8.464844-.199219-4.875 3.589844-8.992187 8.464844-9.191406 3.152343-.265625 6.347656-.398437 9.5625-.398437 4.875 0 8.824218 3.953125 8.824218 8.828125s-3.949218 8.828125-8.824218 8.828125c-2.738282 0-5.421876.117187-8.097657.335937-.246093.035156-.492187.054688-.742187.0625zm0 0" fill="#fff"/><path d="m317.792969 229.515625c0 9.753906-7.90625 17.65625-17.65625 17.65625s-17.652344-7.902344-17.652344-17.65625c0-9.75 7.902344-17.652344 17.652344-17.652344s17.65625 7.902344 17.65625 17.652344zm0 0" fill="#5e9cea"/></svg>