<svg height="512pt" viewBox="0 0 512 512.00249" width="512pt" xmlns="http://www.w3.org/2000/svg"><g fill="#365972"><path d="m467.773438 277.363281c-.648438 43.6875-14.902344 86.085938-40.78125 121.289063-3.636719-4.796875-7.878907-9.097656-12.625-12.796875 21.710937-30.445313 34.101562-66.542969 35.664062-103.902344 6.089844-.757813 12.054688-2.300781 17.742188-4.589844zm0 0"/><path d="m423.109375 143.625c-5.949219 1.5625-11.652344 3.9375-16.949219 7.0625-21.816406-26.707031-50.371094-47.097656-82.714844-59.058594 1.796876-5.753906 2.835938-11.71875 3.089844-17.742187 38.195313 13.53125 71.714844 37.734375 96.574219 69.738281zm0 0"/><path d="m188.558594 91.628906c-32.34375 11.960938-60.902344 32.351563-82.714844 59.058594-5.296875-3.125-11-5.5-16.949219-7.0625 24.859375-32.003906 58.375-56.207031 96.574219-69.738281.253906 6.023437 1.292969 11.988281 3.089844 17.742187zm0 0"/><path d="m97.632812 385.855469c-4.742187 3.699219-8.988281 8-12.621093 12.796875-25.878907-35.203125-40.136719-77.601563-40.785157-121.289063 5.691407 2.289063 11.65625 3.832031 17.746094 4.589844 1.5625 37.359375 13.953125 73.457031 35.660156 103.902344zm0 0"/><path d="m310.554688 478.367188c-35.742188 9.535156-73.363282 9.535156-109.109376 0 3.132813-5.109376 5.59375-10.597657 7.328126-16.332032 31.007812 7.769532 63.449218 7.769532 94.457031 0 1.730469 5.734375 4.195312 11.222656 7.324219 16.332032zm0 0"/></g><path d="m326.621094 70.621094c0 1.058594 0 2.207031-.085938 3.265625-.253906 6.023437-1.292968 11.988281-3.089844 17.742187-9.175781 29.542969-36.511718 49.675782-67.445312 49.675782s-58.265625-20.132813-67.441406-49.675782c-1.796875-5.753906-2.835938-11.71875-3.089844-17.742187-.089844-1.058594-.089844-2.207031-.089844-3.265625 0-39.003906 31.621094-70.621094 70.621094-70.621094 39.003906 0 70.621094 31.617188 70.621094 70.621094zm0 0" fill="#cad0d7"/><path d="m512 211.863281c.019531 34.289063-24.597656 63.632813-58.367188 69.582031-33.769531 5.949219-66.929687-13.21875-78.632812-45.449218-11.703125-32.230469 1.4375-68.207032 31.160156-85.308594 5.296875-3.125 11-5.5 16.949219-7.0625 5.957031-1.605469 12.101563-2.40625 18.269531-2.382812 18.730469 0 36.695313 7.441406 49.9375 20.683593 13.246094 13.242188 20.683594 31.207031 20.683594 49.9375zm0 0" fill="#ffd67b"/><path d="m141.242188 211.863281c0 39-31.617188 70.621094-70.621094 70.621094-39 0-70.621094-31.621094-70.621094-70.621094 0-39.003906 31.621094-70.621093 70.621094-70.621093 6.171875-.023438 12.316406.777343 18.273437 2.382812 5.949219 1.5625 11.652344 3.9375 16.949219 7.0625 21.925781 12.558594 35.4375 35.90625 35.398438 61.175781zm0 0" fill="#ac92ea"/><path d="m211.863281 441.378906c-.015625 13.050782-3.621093 25.847656-10.417969 36.988282-13.71875 22.039062-38.429687 34.773437-64.34375 33.160156-25.910156-1.617188-48.847656-17.320313-59.726562-40.894532-10.878906-23.570312-7.949219-51.214843 7.636719-71.980468 3.632812-4.796875 7.878906-9.097656 12.621093-12.796875 21.257813-16.691407 50.175782-19.78125 74.484376-7.96875 24.304687 11.816406 39.738281 36.464843 39.746093 63.492187zm0 0" fill="#eb5463"/><path d="m441.378906 441.378906c0 34.96875-25.59375 64.671875-60.175781 69.839844-34.582031 5.171875-67.746094-15.746094-77.972656-49.183594-2.0625-6.691406-3.105469-13.652344-3.089844-20.65625.007813-27.027344 15.4375-51.675781 39.746094-63.492187 24.304687-11.8125 53.222656-8.722657 74.480469 7.96875 4.746093 3.699219 8.988281 8 12.625 12.796875 9.351562 12.28125 14.40625 27.292968 14.386718 42.726562zm0 0" fill="#fa6c51"/><path d="m344.277344 273.65625c0 48.753906-39.523438 88.273438-88.277344 88.273438s-88.273438-39.519532-88.273438-88.273438 39.519532-88.277344 88.273438-88.277344 88.277344 39.523438 88.277344 88.277344zm0 0" fill="#636c77"/><path d="m344.277344 273.65625c0 48.753906-39.523438 88.273438-88.277344 88.273438-2.910156 0-5.824219-.175782-8.648438-.441407 45.109376-4.527343 79.457032-42.492187 79.457032-87.832031s-34.347656-83.308594-79.457032-87.835938c2.824219-.265624 5.738282-.441406 8.648438-.441406 48.753906 0 88.277344 39.523438 88.277344 88.277344zm0 0" fill="#505a63"/><path d="m326.621094 70.621094c0 1.058594 0 2.207031-.085938 3.265625-.253906 6.023437-1.292968 11.988281-3.089844 17.742187-9.199218 29.519532-36.527343 49.621094-67.445312 49.613282-2.953125.015624-5.902344-.191407-8.828125-.617188 27.472656-3.390625 50.40625-22.5625 58.617187-48.996094 1.796876-5.753906 2.835938-11.71875 3.089844-17.742187.085938-1.058594.085938-2.207031.085938-3.265625.015625-35.597656-26.472656-65.640625-61.792969-70.089844 2.929687-.355469 5.878906-.53515625 8.828125-.53125 39.003906 0 70.621094 31.617188 70.621094 70.621094zm0 0" fill="#a9b0bb"/><path d="m512 211.863281c0 39-31.617188 70.621094-70.621094 70.621094-2.949218 0-5.898437-.175781-8.824218-.53125 6.027343-.757813 11.933593-2.300781 17.566406-4.589844 29.851562-11.996093 47.820312-42.648437 43.707031-74.558593-4.113281-31.90625-29.269531-57-61.1875-61.035157 20.09375-2.472656 40.28125 3.785157 55.457031 17.183594 15.171875 13.402344 23.875 32.664063 23.902344 52.910156zm0 0" fill="#f5b945"/><path d="m141.242188 211.863281c0 20.238281-8.679688 39.5-23.839844 52.90625-15.164063 13.40625-35.347656 19.664063-55.429688 17.183594 30.070313-3.859375 54.324219-26.480469 60.261719-56.214844 5.941406-29.730469-7.761719-59.9375-34.046875-75.050781-5.296875-3.125-11-5.5-16.949219-7.0625-3.117187-.890625-6.308593-1.507812-9.53125-1.855469 2.957031-.351562 5.933594-.53125 8.914063-.527343 6.171875-.023438 12.316406.777343 18.273437 2.382812 5.949219 1.5625 11.652344 3.9375 16.949219 7.0625 21.925781 12.558594 35.4375 35.90625 35.398438 61.175781zm0 0" fill="#9579da"/><path d="m211.863281 441.378906c-.015625 13.050782-3.621093 25.847656-10.417969 36.988282-12.855468 20.914062-35.652343 33.648437-60.203124 33.632812-2.980469.003906-5.957032-.175781-8.914063-.53125 21.285156-2.660156 40.214844-14.835938 51.464844-33.101562 12.53125-20.410157 13.867187-45.785157 3.542969-67.394532-10.328126-21.613281-30.902344-36.519531-54.65625-39.597656 2.835937-.425781 5.695312-.632812 8.5625-.617188 39.003906 0 70.621093 31.617188 70.621093 70.621094zm0 0" fill="#d94452"/><path d="m441.378906 441.378906c-.027344 20.246094-8.730468 39.507813-23.902344 52.910156-15.171874 13.398438-35.363281 19.65625-55.457031 17.179688 25.039063-3.175781 46.476563-19.46875 56.234375-42.742188 9.761719-23.273437 6.363282-49.988281-8.917968-70.074218-11.542969-15.167969-28.742188-25.011719-47.667969-27.277344 3.011719-.425781 6.050781-.632812 9.09375-.617188 15.816406-.011718 31.179687 5.304688 43.605469 15.097657 4.746093 3.699219 8.988281 8 12.625 12.796875 9.351562 12.28125 14.40625 27.292968 14.386718 42.726562zm0 0" fill="#e85841"/><path d="m88.277344 185.378906c4.875 0 8.828125-3.953125 8.828125-8.828125s-3.953125-8.828125-8.828125-8.828125h-26.484375c-9.75 0-17.652344 7.90625-17.652344 17.65625v17.65625c0 9.75 7.902344 17.65625 17.652344 17.65625h8.828125c4.875 0 8.828125 3.949219 8.828125 8.824219 0 4.878906-3.953125 8.828125-8.828125 8.828125h-17.65625c-4.875 0-8.824219 3.953125-8.824219 8.828125s3.949219 8.828125 8.824219 8.828125h17.65625c14.625 0 26.484375-11.855469 26.484375-26.484375 0-14.625-11.859375-26.480469-26.484375-26.480469h-8.828125v-17.65625zm0 0" fill="#fff"/><path d="m273.65625 97.101562h-8.828125v-61.792968c0-3.566406-2.152344-6.785156-5.449219-8.152344s-7.09375-.609375-9.617187 1.914062l-17.65625 17.652344c-3.347657 3.464844-3.296875 8.972656.105469 12.375 3.40625 3.40625 8.914062 3.453125 12.375.109375l2.585937-2.585937v40.480468h-8.824219c-4.875 0-8.828125 3.953126-8.828125 8.828126s3.953125 8.828124 8.828125 8.828124h35.308594c4.875 0 8.828125-3.953124 8.828125-8.828124s-3.953125-8.828126-8.828125-8.828126zm0 0" fill="#fff"/><path d="m459.035156 238.34375h-14.40625c12.871094-13.980469 23.234375-28.503906 23.234375-44.136719 0-14.625-11.855469-26.484375-26.484375-26.484375-14.625 0-26.480468 11.859375-26.480468 26.484375 0 4.875 3.953124 8.828125 8.828124 8.828125s8.828126-3.953125 8.828126-8.828125 3.949218-8.828125 8.824218-8.828125c4.878906 0 8.828125 3.953125 8.828125 8.828125 0 14-16.640625 30.632813-32.722656 46.722657-2.523437 2.527343-3.277344 6.324218-1.914063 9.621093 1.367188 3.296875 4.585938 5.449219 8.15625 5.449219h35.308594c4.875 0 8.828125-3.953125 8.828125-8.828125s-3.953125-8.828125-8.828125-8.828125zm0 0" fill="#fff"/><path d="m370.761719 397.242188h-8.828125c-4.875 0-8.828125 3.953124-8.828125 8.828124s3.953125 8.828126 8.828125 8.828126h8.828125c4.875 0 8.824219 3.949218 8.824219 8.824218s-3.949219 8.828125-8.824219 8.828125c-4.878907 0-8.828125 3.953125-8.828125 8.828125s3.949218 8.828125 8.828125 8.828125c4.875 0 8.824219 3.953125 8.824219 8.828125s-3.949219 8.828125-8.824219 8.828125h-8.828125c-4.875 0-8.828125 3.949219-8.828125 8.828125 0 4.875 3.953125 8.824219 8.828125 8.824219h8.828125c10.464843.046875 19.96875-6.101563 24.214843-15.664063 4.246094-9.566406 2.433594-20.738281-4.621093-28.472656 7.054687-7.730468 8.867187-18.902344 4.621093-28.46875-4.246093-9.566406-13.75-15.714844-24.214843-15.667968zm0 0" fill="#fff"/><path d="m167.726562 441.378906h-8.828124c0-4.875-3.953126-8.828125-8.828126-8.828125s-8.828124 3.953125-8.828124 8.828125h-17.65625l24.152343-29.792968c2.105469-2.433594 2.714844-5.820313 1.597657-8.839844-1.121094-3.015625-3.792969-5.183594-6.972657-5.660156-3.183593-.476563-6.371093.820312-8.324219 3.378906l-24.167968 29.800781c-4.300782 5.25-5.164063 12.515625-2.207032 18.625 2.921876 6.222656 9.191407 10.179687 16.066407 10.144531h17.511719v17.65625c0 4.875 3.953124 8.824219 8.828124 8.824219s8.828126-3.949219 8.828126-8.824219v-17.65625h8.828124c4.875 0 8.828126-3.953125 8.828126-8.828125s-3.953126-8.828125-8.828126-8.828125zm0 0" fill="#fff"/><path d="m211.863281 300.136719c-3.363281.019531-6.441406-1.875-7.945312-4.878907l-8.828125-17.65625c-1.242188-2.484374-1.242188-5.40625 0-7.890624l8.828125-17.65625c2.179687-4.363282 7.484375-6.132813 11.847656-3.957032 4.363281 2.179688 6.132813 7.484375 3.953125 11.847656l-6.8125 13.710938 6.859375 13.707031c1.367187 2.738281 1.21875 5.988281-.390625 8.589844s-4.453125 4.1875-7.511719 4.183594zm0 0" fill="#b4df80"/><path d="m300.140625 300.136719c-3.058594 0-5.898437-1.585938-7.507813-4.1875-1.605468-2.601563-1.753906-5.847657-.386718-8.585938l6.851562-13.707031-6.902344-13.710938c-2.179687-4.363281-.410156-9.667968 3.953126-11.847656 4.363281-2.175781 9.667968-.40625 11.847656 3.957032l8.828125 17.65625c1.242187 2.484374 1.242187 5.40625 0 7.890624l-8.828125 17.65625c-1.488282 2.976563-4.527344 4.863282-7.855469 4.878907zm0 0" fill="#b4df80"/><path d="m247.171875 300.136719c-3.054687 0-5.894531-1.585938-7.503906-4.1875-1.605469-2.601563-1.753907-5.847657-.386719-8.585938l17.65625-35.308593c2.179688-4.363282 7.484375-6.132813 11.847656-3.957032 4.363282 2.179688 6.132813 7.484375 3.953125 11.847656l-17.65625 35.3125c-1.496093 2.996094-4.558593 4.886719-7.910156 4.878907zm0 0" fill="#b4df80"/></svg>