<svg height="512pt" viewBox="-61 0 511 512" width="512pt" xmlns="http://www.w3.org/2000/svg"><path d="m388.914062 70.621094v423.722656c0 9.75-7.90625 17.65625-17.65625 17.65625h-353.101562c-9.75 0-17.65625-7.90625-17.65625-17.65625v-476.6875c0-9.75 7.90625-17.65625 17.65625-17.65625h300.136719zm0 0" fill="#e4e8eb"/><path d="m388.914062 70.621094h-52.964843c-9.738281-.03125-17.628907-7.917969-17.65625-17.65625v-52.964844zm0 0" fill="#cad0d7"/><path d="m88.777344 256h211.859375c9.75 0 17.65625 7.90625 17.65625 17.65625v17.652344c0 9.753906-7.90625 17.65625-17.65625 17.65625h-211.859375c-9.753906 0-17.65625-7.902344-17.65625-17.65625v-17.652344c0-9.75 7.902344-17.65625 17.65625-17.65625zm0 0" fill="#5e9cea"/><path d="m88.777344 423.722656h211.859375c9.75 0 17.65625 7.90625 17.65625 17.65625v17.65625c0 9.75-7.90625 17.65625-17.65625 17.65625h-211.859375c-9.753906 0-17.65625-7.90625-17.65625-17.65625v-17.65625c0-9.75 7.902344-17.65625 17.65625-17.65625zm0 0" fill="#5e9cea"/><path d="m388.914062 70.621094v423.722656c-.03125 9.738281-7.917968 17.628906-17.65625 17.65625h-17.65625c9.742188-.027344 17.628907-7.917969 17.65625-17.65625v-423.722656zm0 0" fill="#cad0d7"/><path d="m318.292969 0v17.65625l-17.65625-17.65625zm0 0" fill="#cad0d7"/><path d="m388.914062 70.621094h-17.65625l-52.964843-52.964844v-17.65625zm0 0" fill="#a9b0bb"/><g fill="#89c053"><path d="m150.570312 141.242188c-2.34375 0-4.585937-.933594-6.242187-2.585938l-35.3125-35.3125c-3.445313-3.445312-3.445313-9.035156 0-12.480469l35.3125-35.3125c2.214844-2.292969 5.5-3.214843 8.585937-2.40625 3.085938.808594 5.496094 3.21875 6.304688 6.304688.804688 3.085937-.113281 6.367187-2.410156 8.585937l-29.066406 29.066406 29.066406 29.070313c2.523437 2.527344 3.28125 6.320313 1.914062 9.621094-1.367187 3.296875-4.582031 5.449219-8.152344 5.449219zm0 0"/><path d="m238.84375 141.242188c-3.570312 0-6.785156-2.152344-8.152344-5.449219-1.367187-3.300781-.613281-7.09375 1.914063-9.621094l29.066406-29.070313-29.066406-29.066406c-2.296875-2.21875-3.21875-5.5-2.410157-8.585937.808594-3.085938 3.21875-5.496094 6.304688-6.304688 3.085938-.808593 6.371094.113281 8.585938 2.40625l35.308593 35.3125c3.449219 3.445313 3.449219 9.035157 0 12.480469l-35.308593 35.3125c-1.65625 1.652344-3.898438 2.585938-6.242188 2.585938zm0 0"/><path d="m185.878906 141.242188c-.722656.003906-1.445312-.085938-2.144531-.265626-2.273437-.566406-4.226563-2.015624-5.433594-4.023437-1.203125-2.007813-1.5625-4.414063-.992187-6.683594l17.65625-70.621093c1.210937-4.695313 5.984375-7.535157 10.691406-6.355469 4.703125 1.175781 7.578125 5.929687 6.433594 10.644531l-17.65625 70.621094c-.984375 3.925781-4.507813 6.679687-8.554688 6.683594zm0 0"/><path d="m188.457031 226.921875c.820313.824219 1.800781 1.476563 2.878907 1.914063 2.15625.90625 4.585937.90625 6.742187 0 1.078125-.4375 2.054687-1.089844 2.878906-1.914063l17.65625-17.65625c3.34375-3.460937 3.296875-8.96875-.109375-12.375-3.40625-3.402344-8.910156-3.453125-12.375-.105469l-2.59375 2.59375v-22.828125c0-4.875-3.953125-8.828125-8.828125-8.828125s-8.828125 3.953125-8.828125 8.828125v22.828125l-2.585937-2.585937c-3.464844-3.34375-8.96875-3.296875-12.375.109375-3.40625 3.402344-3.453125 8.910156-.105469 12.375zm0 0"/><path d="m206.121094 364.515625-2.585938 2.589844v-22.828125c0-4.875-3.953125-8.828125-8.828125-8.828125s-8.828125 3.953125-8.828125 8.828125v22.828125l-2.585937-2.589844c-3.464844-3.34375-8.96875-3.296875-12.375.109375s-3.453125 8.910156-.105469 12.375l17.652344 17.65625c1.65625 1.660156 3.90625 2.59375 6.25 2.59375 2.347656 0 4.59375-.933594 6.25-2.59375l17.65625-17.65625c3.34375-3.464844 3.296875-8.96875-.109375-12.375-3.402344-3.40625-8.910157-3.453125-12.375-.109375zm0 0"/></g></svg>