<svg height="512pt" viewBox="0 0 512 512.00771" width="512pt" xmlns="http://www.w3.org/2000/svg"><path d="m463.539062 333.328125-154.570312 99.222656c-8.570312 3.003907-17.910156 3.003907-26.480469 0l-45.464843-44.136719 110.082031-40.429687 74.238281-28.074219c12.878906-4.6875 27.304688-1.484375 36.988281 8.210938zm0 0" fill="#937661"/><path d="m512.003906 17.65625v185.378906c-.027344 9.738282-7.917968 17.625-17.65625 17.65625h-164.722656c-1.953125-.023437-3.855469.632813-5.382812 1.851563l-62.851563 58.085937c-2.664063 2.050782-6.257813 2.410156-9.277344.929688-3.015625-1.480469-4.929687-4.542969-4.9375-7.902344v-44.140625c0-4.875-3.953125-8.824219-8.828125-8.824219h-26.480468c-9.738282-.03125-17.628907-7.917968-17.65625-17.65625v-185.378906c.027343-9.738281 7.917968-17.6289062 17.65625-17.65625h282.480468c9.738282.0273438 17.628906 7.917969 17.65625 17.65625zm0 0" fill="#457393"/><path d="m17.660156 317.792969h52.964844c9.75 0 17.65625 7.90625 17.65625 17.65625v123.585937c0 9.75-7.90625 17.65625-17.65625 17.65625h-52.964844c-9.75 0-17.65624975-7.90625-17.65624975-17.65625v-123.585937c0-9.75 7.90624975-17.65625 17.65624975-17.65625zm0 0" fill="#ac92ea"/><path d="m512.003906 338.625c-.011718 5.84375-2.671875 11.363281-7.238281 15.007812l-188.292969 150.953126c-9.035156 7.015624-20.914062 9.222656-31.867187 5.914062l-179.640625-57.46875c-5.464844-1.664062-11.320313-1.511719-16.683594.441406l-8.828125-3.265625-8.828125-105.929687 17.566406-1.324219 47.84375-20.65625c12.582032-4.503906 26.09375-5.75 39.285156-3.621094l171.609376 29.308594h.175781l15.09375 2.558594c9.839843 1.542969 16.828125 10.398437 16.042969 20.324219-.785157 9.929687-9.085938 17.574218-19.042969 17.546874h-122.175781l53.144531 33.015626c5.359375 3.027343 11.910156 3.0625 17.300781.085937l156.070312-88.1875 20.128907-11.386719c9.214843-5.097656 20.820312-1.78125 25.953125 7.414063 1.558594 2.84375 2.378906 6.03125 2.382812 9.269531zm0 0" fill="#a38671"/><path d="m512.003906 338.625c-.011718 5.84375-2.671875 11.363281-7.238281 15.007812l-188.292969 150.953126c-9.035156 7.015624-20.914062 9.222656-31.867187 5.914062l-8.386719-2.648438c1.761719-.953124 3.445312-2.046874 5.03125-3.265624l188.292969-150.953126c7.320312-5.828124 9.371093-16.082031 4.855469-24.277343-.300782-.5625-.65625-1.09375-1.058594-1.585938l10.328125-5.828125c9.214843-5.097656 20.820312-1.78125 25.953125 7.414063 1.558594 2.84375 2.378906 6.03125 2.382812 9.269531zm0 0" fill="#937661"/><path d="m303.144531 220.691406 26.480469-.003906c-1.953125-.019531-3.855469.636719-5.382812 1.855469l-62.851563 58.085937c-2.664063 2.050782-6.257813 2.410156-9.277344.929688-3.015625-1.480469-4.929687-4.542969-4.9375-7.902344v-4.328125l50.582031-46.785156c1.527344-1.21875 3.429688-1.875 5.386719-1.851563zm0 0" fill="#365972"/><path d="m512.003906 17.65625v185.378906c-.027344 9.738282-7.917968 17.625-17.65625 17.65625h-26.480468c9.738281-.03125 17.625-7.917968 17.652343-17.65625v-185.378906c-.027343-9.738281-7.914062-17.6289062-17.652343-17.65625h26.480468c9.738282.0273438 17.628906 7.917969 17.65625 17.65625zm0 0" fill="#365972"/><path d="m88.28125 335.449219v123.585937c-.03125 9.738282-7.917969 17.625-17.65625 17.65625h-17.65625c9.738281-.03125 17.625-7.917968 17.65625-17.65625v-123.585937c-.03125-9.738281-7.917969-17.628907-17.65625-17.65625h17.65625c9.738281.027343 17.625 7.917969 17.65625 17.65625zm0 0" fill="#9579da"/><path d="m308.96875 123.585938c-2.339844 0-4.585938-.929688-6.242188-2.585938l-35.308593-35.3125c-3.445313-3.445312-3.445313-9.03125 0-12.480469l35.308593-35.308593c2.21875-2.296876 5.5-3.214844 8.585938-2.410157 3.085938.808594 5.496094 3.21875 6.304688 6.304688.808593 3.085937-.113282 6.371093-2.40625 8.585937l-29.070313 29.070313 29.070313 29.066406c2.523437 2.527344 3.277343 6.324219 1.914062 9.621094-1.367188 3.296875-4.585938 5.449219-8.15625 5.449219zm0 0" fill="#b4df80"/><path d="m397.246094 123.585938c-3.570313 0-6.789063-2.152344-8.15625-5.449219-1.363282-3.296875-.609375-7.09375 1.914062-9.621094l29.070313-29.066406-29.070313-29.070313c-3.34375-3.464844-3.296875-8.96875.109375-12.375 3.402344-3.40625 8.910157-3.453125 12.375-.105468l35.308594 35.308593c3.445313 3.449219 3.445313 9.035157 0 12.480469l-35.308594 35.3125c-1.65625 1.65625-3.902343 2.585938-6.242187 2.585938zm0 0" fill="#b4df80"/><path d="m344.28125 123.585938c-.726562.003906-1.445312-.085938-2.148438-.265626-2.269531-.566406-4.226562-2.011718-5.429687-4.019531-1.207031-2.011719-1.5625-4.414062-.996094-6.6875l17.65625-70.621093c1.210938-4.695313 5.988281-7.535157 10.691407-6.355469 4.707031 1.179687 7.578124 5.933593 6.433593 10.644531l-17.65625 70.621094c-.980469 3.925781-4.507812 6.679687-8.550781 6.683594zm0 0" fill="#b4df80"/><g fill="#fff"><path d="m459.039062 158.898438h-17.65625c-4.875 0-8.828124-3.953126-8.828124-8.828126s3.953124-8.828124 8.828124-8.828124h17.65625c4.875 0 8.828126 3.953124 8.828126 8.828124s-3.953126 8.828126-8.828126 8.828126zm0 0"/><path d="m397.246094 158.898438h-150.070313c-4.875 0-8.828125-3.953126-8.828125-8.828126s3.953125-8.828124 8.828125-8.828124h150.070313c4.875 0 8.828125 3.953124 8.828125 8.828124s-3.953125 8.828126-8.828125 8.828126zm0 0"/><path d="m459.039062 194.207031h-8.828124c-4.875 0-8.828126-3.953125-8.828126-8.828125s3.953126-8.828125 8.828126-8.828125h8.828124c4.875 0 8.828126 3.953125 8.828126 8.828125s-3.953126 8.828125-8.828126 8.828125zm0 0"/><path d="m414.902344 194.207031h-105.933594c-4.875 0-8.828125-3.953125-8.828125-8.828125s3.953125-8.828125 8.828125-8.828125h105.933594c4.875 0 8.824218 3.953125 8.824218 8.828125s-3.949218 8.828125-8.824218 8.828125zm0 0"/><path d="m273.660156 194.207031h-26.484375c-4.875 0-8.828125-3.953125-8.828125-8.828125s3.953125-8.828125 8.828125-8.828125h26.484375c4.875 0 8.828125 3.953125 8.828125 8.828125s-3.953125 8.828125-8.828125 8.828125zm0 0"/></g><path d="m52.96875 361.929688h-17.65625c-4.875 0-8.824219-3.949219-8.824219-8.828126 0-4.875 3.949219-8.824218 8.824219-8.824218h17.65625c4.875 0 8.828125 3.949218 8.828125 8.824218 0 4.878907-3.953125 8.828126-8.828125 8.828126zm0 0" fill="#9579da"/><path d="m52.96875 450.207031h-17.65625c-4.875 0-8.824219-3.953125-8.824219-8.828125s3.949219-8.828125 8.824219-8.828125h17.65625c4.875 0 8.828125 3.953125 8.828125 8.828125s-3.953125 8.828125-8.828125 8.828125zm0 0" fill="#9579da"/><path d="m378.175781 370.757812c-.273437 4.566407-2.222656 8.875-5.472656 12.09375-3.601563 3.550782-8.449219 5.546876-13.503906 5.5625h-157.484375c-4.875 0-8.828125-3.953124-8.828125-8.828124s3.953125-8.828126 8.828125-8.828126zm0 0" fill="#937661"/></svg>