<svg height="512pt" viewBox="0 0 512 512.12351" width="512pt" xmlns="http://www.w3.org/2000/svg"><path d="m220.75 512.125h-211.859375c-4.875 0-8.828125-3.953125-8.828125-8.828125v-26.484375l8.828125-8.828125h211.859375l8.828125 8.828125v26.484375c0 4.875-3.953125 8.828125-8.828125 8.828125zm0 0" fill="#cad0d7"/><path d="m211.921875 406.191406 17.65625 70.621094h-229.515625l17.65625-70.621094 8.824219-8.828125h176.554687zm0 0" fill="#e4e8eb"/><path d="m211.921875 291.433594.003906 114.757812h-194.207031v-114.757812c0-4.875 3.949219-8.828125 8.824219-8.828125h176.554687c.75-.011719 1.496094.109375 2.207032.355469.425781.042968.84375.164062 1.234374.351562 2.140626.84375 3.832032 2.539062 4.679688 4.679688.1875.386718.304688.804687.351562 1.234374.246094.710938.367188 1.457032.351563 2.207032zm0 0" fill="#4fc0e8"/><path d="m79.511719 476.8125 7.941406-31.964844c.496094-1.980468 2.285156-3.363281 4.328125-3.34375h46.078125c2.027344 0 3.792969 1.378906 4.28125 3.34375l7.988281 31.964844zm0 0" fill="#a9b0bb"/><path d="m503.234375 512.125h-211.863281c-4.875 0-8.828125-3.953125-8.828125-8.828125v-26.484375l8.828125-8.828125h211.863281l8.828125 8.828125v26.484375c0 4.875-3.953125 8.828125-8.828125 8.828125zm0 0" fill="#cad0d7"/><path d="m494.40625 406.191406 17.65625 70.621094h-229.519531l17.65625-70.621094 8.828125-8.828125h176.550781zm0 0" fill="#e4e8eb"/><path d="m494.40625 291.433594v114.757812h-194.207031v-114.757812c0-4.875 3.953125-8.828125 8.828125-8.828125h176.550781c.75-.011719 1.5.109375 2.207031.355469.429688.042968.847656.164062 1.238282.351562 2.136718.84375 3.832031 2.539062 4.675781 4.679688.1875.386718.308593.804687.355469 1.234374.246093.710938.363281 1.457032.351562 2.207032zm0 0" fill="#4fc0e8"/><path d="m361.992188 476.8125 7.988281-31.964844c.492187-1.964844 2.257812-3.34375 4.28125-3.34375h46.082031c2.023438 0 3.789062 1.378906 4.28125 3.34375l7.988281 31.964844zm0 0" fill="#a9b0bb"/><path d="m379.648438 123.710938c.03125 25.269531-7.734376 49.929687-22.246094 70.621093-23.078125 33.171875-60.929688 52.949219-101.339844 52.949219s-78.261719-19.777344-101.339844-52.949219c-30.488281-43.679687-29.5625-101.980469 2.304688-144.667969 31.863281-42.683593 87.492187-60.152343 138.039062-43.339843s84.632813 64.117187 84.582032 117.386719zm0 0" fill="#eb5463"/><path d="m344.335938 123.710938c0 48.753906-39.519532 88.273437-88.273438 88.273437s-88.277344-39.519531-88.277344-88.273437c0-48.753907 39.523438-88.277344 88.277344-88.277344s88.273438 39.523437 88.273438 88.277344zm0 0" fill="#f76c82"/><path d="m211.921875 291.433594v114.757812h-17.652344v-114.757812c.015625-1.0625-.195312-2.117188-.617187-3.089844-1.257813-3.449219-4.539063-5.742188-8.210938-5.738281h17.65625c.75-.011719 1.496094.109375 2.207032.355469.429687.035156.851562.152343 1.234374.351562 2.140626.84375 3.832032 2.539062 4.679688 4.679688.195312.382812.316406.804687.351562 1.234374.246094.710938.367188 1.457032.351563 2.207032zm0 0" fill="#3aadd9"/><path d="m229.578125 476.8125h-17.65625l-17.652344-70.621094h17.652344zm0 0" fill="#cad0d7"/><path d="m494.40625 291.433594v114.757812h-17.65625v-114.757812c.019531-1.0625-.191406-2.117188-.617188-3.089844-1.253906-3.449219-4.539062-5.742188-8.210937-5.738281h17.65625c.75-.011719 1.5.109375 2.207031.355469.433594.035156.851563.152343 1.238282.351562 2.136718.84375 3.832031 2.539062 4.675781 4.679688.199219.382812.320312.804687.355469 1.234374.246093.710938.363281 1.457032.351562 2.207032zm0 0" fill="#3aadd9"/><path d="m512.0625 476.8125h-17.65625l-17.65625-70.621094h17.65625zm0 0" fill="#cad0d7"/><path d="m229.578125 476.8125v26.484375c0 4.875-3.953125 8.828125-8.828125 8.828125h-17.652344c4.875 0 8.824219-3.953125 8.824219-8.828125v-26.484375zm0 0" fill="#a9b0bb"/><path d="m512.0625 476.8125v26.484375c0 4.875-3.953125 8.828125-8.828125 8.828125h-17.65625c4.875 0 8.828125-3.953125 8.828125-8.828125v-26.484375zm0 0" fill="#a9b0bb"/><path d="m379.648438 123.710938c-.074219 68.222656-55.363282 123.511718-123.585938 123.585937-3.003906 0-5.914062-.089844-8.828125-.355469 64.449219-4.882812 114.25-58.597656 114.25-123.230468 0-64.632813-49.800781-118.351563-114.25-123.234376 2.914063-.265624 5.824219-.351562 8.828125-.351562 68.222656.070312 123.511719 55.359375 123.585938 123.585938zm0 0" fill="#d94452"/><g fill="#66d4f1"><path d="m59.292969 341.839844-35.308594 35.308594c-1.679687 1.632812-3.925781 2.550781-6.265625 2.5625v-21.363282l29.039062-29.042968c3.464844-3.460938 9.074219-3.460938 12.535157 0 3.464843 3.460937 3.464843 9.074218 0 12.535156zm0 0"/><path d="m114.820312 282.605469c.007813 2.347656-.914062 4.597656-2.558593 6.269531l-26.484375 26.480469c-3.480469 3.414062-9.054688 3.414062-12.535156 0-3.441407-3.46875-3.441407-9.066407 0-12.535157l20.214843-20.214843zm0 0"/><path d="m182.882812 377.148438-29.042968 29.042968h-21.363282c-.007812-2.34375.914063-4.597656 2.558594-6.265625l35.3125-35.3125c3.460938-3.460937 9.070313-3.460937 12.535156 0 3.460938 3.460938 3.460938 9.074219 0 12.535157zm0 0"/><path d="m94.605469 385.976562-20.214844 20.214844h-21.363281c-.007813-2.34375.914062-4.597656 2.558594-6.265625l26.484374-26.484375c3.460938-3.460937 9.074219-3.460937 12.535157 0 3.460937 3.460938 3.460937 9.074219 0 12.535156zm0 0"/><path d="m194.269531 291.433594v21.363281l-55.527343 55.523437c-3.480469 3.414063-9.054688 3.414063-12.535157 0-3.441406-3.46875-3.441406-9.0625 0-12.535156l67.445313-67.441406c.421875.972656.632812 2.027344.617187 3.089844zm0 0"/><path d="m341.777344 341.839844-35.308594 35.308594c-1.679688 1.632812-3.925781 2.550781-6.269531 2.5625v-21.363282l29.042969-29.042968c3.460937-3.460938 9.074218-3.460938 12.535156 0 3.460937 3.460937 3.460937 9.074218 0 12.535156zm0 0"/><path d="m397.304688 282.605469c.003906 2.347656-.914063 4.597656-2.5625 6.269531l-26.480469 26.480469c-3.480469 3.414062-9.054688 3.414062-12.535157 0-3.445312-3.46875-3.445312-9.066407 0-12.535157l20.214844-20.214843zm0 0"/><path d="m465.363281 377.148438-29.042969 29.042968h-21.363281c-.003906-2.34375.914063-4.597656 2.5625-6.265625l35.308594-35.3125c3.460937-3.460937 9.074219-3.460937 12.535156 0 3.460938 3.460938 3.460938 9.074219 0 12.535157zm0 0"/><path d="m377.089844 385.976562-20.21875 20.214844h-21.359375c-.007813-2.34375.910156-4.597656 2.558593-6.265625l26.484376-26.484375c3.460937-3.460937 9.070312-3.460937 12.535156 0 3.460937 3.460938 3.460937 9.074219 0 12.535156zm0 0"/><path d="m476.75 291.433594v21.363281l-55.523438 55.523437c-3.480468 3.414063-9.054687 3.414063-12.535156 0-3.441406-3.46875-3.441406-9.0625 0-12.535156l67.441406-67.441406c.425782.972656.636719 2.027344.617188 3.089844zm0 0"/></g><path d="m268.542969 123.710938 29.070312-29.070313c3.34375-3.464844 3.296875-8.96875-.109375-12.375-3.402344-3.40625-8.910156-3.453125-12.371094-.105469l-29.070312 29.066406-29.070312-29.066406c-3.464844-3.347656-8.96875-3.300781-12.375.105469s-3.453126 8.910156-.105469 12.375l29.066406 29.070313-29.066406 29.066406c-2.296875 2.21875-3.214844 5.5-2.410157 8.585937.808594 3.085938 3.21875 5.496094 6.304688 6.304688 3.085938.808593 6.371094-.113281 8.585938-2.40625l29.070312-29.070313 29.070312 29.070313c3.460938 3.34375 8.96875 3.296875 12.371094-.109375 3.40625-3.402344 3.453125-8.910156.109375-12.375zm0 0" fill="#f4f6f8"/><path d="m169.640625 211.984375h-45.992187c-9.941407.207031-17.835938 8.421875-17.65625 18.363281v52.257813h-17.65625v-52.257813c-.183594-19.695312 15.621093-35.8125 35.3125-36.015625h31.074218c4.414063 6.335938 9.40625 12.246094 14.917969 17.652344zm0 0" fill="#457393"/><path d="m423.785156 230.347656v52.257813h-17.65625v-52.257813c.183594-9.941406-7.714844-18.15625-17.652344-18.363281h-45.992187c5.511719-5.40625 10.503906-11.316406 14.917969-17.652344h31.074218c19.691407.203125 35.496094 16.320313 35.308594 36.015625zm0 0" fill="#457393"/></svg>