<svg height="512pt" viewBox="0 0 512 512.02047" width="512pt" xmlns="http://www.w3.org/2000/svg"><path d="m317.503906 55.632812c1.691406 16.558594-3.386718 33.097657-14.082031 45.851563-7.566406 8.59375-11.855469 19.589844-12.101563 31.039063v35.222656h-70.621093v-33.546875c-.289063-12.320313-4.808594-24.164063-12.800781-33.542969-15.800782-19.539062-18.199219-46.699219-6.0625-68.703125 12.136718-22.003906 36.386718-34.46875 61.34375-31.527344 28.761718 3.488281 51.300781 26.390625 54.324218 55.207031zm0 0" fill="#f5b945"/><path d="m52.976562 432.570312h123.585938v52.96875h-123.585938zm0 0" fill="#a9b0bb"/><path d="m291.320312 185.398438v26.484374c-.054687 14.605469-11.878906 26.429688-26.484374 26.484376h-17.652344c-14.605469-.054688-26.429688-11.878907-26.484375-26.484376v-26.484374zm0 0" fill="#cad0d7"/><path d="m185.742188 512.019531h-141.945313c-3.394531-.152343-6.402344-2.226562-7.753906-5.34375-1.351563-3.113281-.808594-6.726562 1.394531-9.308593l15.539062-20.65625h123.585938l15.535156 20.65625c2.207032 2.582031 2.75 6.195312 1.398438 9.308593-1.351563 3.117188-4.359375 5.191407-7.753906 5.34375zm0 0" fill="#cad0d7"/><path d="m229.527344 397.261719v26.484375c-.027344 9.738281-7.917969 17.625-17.65625 17.652344h-194.207032c-9.738281-.027344-17.6249995-7.914063-17.6523432-17.652344v-26.484375zm0 0" fill="#cad0d7"/><path d="m229.527344 291.332031v105.929688h-229.5156252v-105.929688c.0273437-9.738281 7.9140622-17.628906 17.6523432-17.65625h194.207032c9.738281.027344 17.628906 7.917969 17.65625 17.65625zm0 0" fill="#4fc0e8"/><path d="m308.976562 176.570312c-.074218 9.722657-7.933593 17.585938-17.65625 17.65625h-70.621093c-9.738281-.027343-17.625-7.914062-17.65625-17.65625.074219-9.71875 7.9375-17.582031 17.65625-17.652343h70.621093c9.738282.027343 17.625 7.914062 17.65625 17.652343zm0 0" fill="#e4e8eb"/><path d="m335.457031 432.570312h123.585938v52.96875h-123.585938zm0 0" fill="#a9b0bb"/><path d="m468.226562 512.019531h-141.949218c-3.390625-.152343-6.398438-2.226562-7.75-5.34375-1.351563-3.113281-.8125-6.726562 1.394531-9.308593l15.535156-20.65625h123.585938l15.539062 20.65625c2.203125 2.582031 2.746094 6.195312 1.394531 9.308593-1.351562 3.117188-4.359374 5.191407-7.75 5.34375zm0 0" fill="#cad0d7"/><path d="m512.011719 397.261719v26.484375c-.03125 9.738281-7.917969 17.625-17.65625 17.652344h-194.207031c-9.738282-.027344-17.625-7.914063-17.65625-17.652344v-26.484375zm0 0" fill="#cad0d7"/><path d="m512.011719 291.332031v105.929688h-229.519531v-105.929688c.03125-9.738281 7.917968-17.628906 17.65625-17.65625h194.207031c9.738281.027344 17.625 7.917969 17.65625 17.65625zm0 0" fill="#4fc0e8"/><path d="m303.414062 101.449219c-7.574218 8.605469-11.855468 19.613281-12.09375 31.074219v26.394531h-17.65625v-26.394531c.238282-11.460938 4.523438-22.46875 12.09375-31.074219 14.394532-17.152344 18.359376-40.757813 10.367188-61.675781-7.992188-20.917969-26.691406-35.863282-48.855469-39.046876 5.261719-.7968745 10.605469-.886718 15.890625-.265624 28.761719 3.484374 51.3125 26.363281 54.378906 55.171874 1.675782 16.554688-3.417968 33.082032-14.125 45.816407zm0 0" fill="#e8aa3d"/><path d="m291.320312 194.226562v17.65625c0 14.625-11.855468 26.484376-26.484374 26.484376h-17.652344c14.625 0 26.480468-11.859376 26.480468-26.484376v-17.65625zm0 0" fill="#bac1c6"/><path d="m308.976562 176.570312c-.074218 9.722657-7.933593 17.585938-17.65625 17.65625h-17.65625c9.722657-.070312 17.585938-7.933593 17.65625-17.65625-.027343-9.738281-7.917968-17.625-17.65625-17.652343h17.65625c9.738282.027343 17.625 7.914062 17.65625 17.652343zm0 0" fill="#cad0d7"/><path d="m229.527344 397.261719v26.484375c-.027344 9.738281-7.917969 17.625-17.65625 17.652344h-17.652344c9.738281-.027344 17.625-7.914063 17.652344-17.652344v-26.484375zm0 0" fill="#a9b0bb"/><path d="m229.527344 291.332031v105.929688h-17.65625v-105.929688c.023437-3.785156-1.183594-7.472656-3.441406-10.507812-3.34375-4.488281-8.613282-7.140625-14.210938-7.148438h17.652344c9.738281.027344 17.628906 7.917969 17.65625 17.65625zm0 0" fill="#3aadd9"/><path d="m158.90625 441.398438h17.65625v35.3125h-17.65625zm0 0" fill="#979faa"/><path d="m512.011719 397.261719v26.484375c-.03125 9.738281-7.917969 17.625-17.65625 17.652344h-17.65625c9.738281-.027344 17.625-7.914063 17.65625-17.652344v-26.484375zm0 0" fill="#a9b0bb"/><path d="m512.011719 291.332031v105.929688h-17.65625v-105.929688c.023437-3.785156-1.1875-7.472656-3.441407-10.507812-3.347656-4.488281-8.613281-7.140625-14.214843-7.148438h17.65625c9.738281.027344 17.625 7.917969 17.65625 17.65625zm0 0" fill="#3aadd9"/><path d="m441.390625 441.398438h17.652344v35.3125h-17.652344zm0 0" fill="#979faa"/><path d="m185.742188 512.019531h-17.65625c3.394531-.152343 6.402343-2.226562 7.753906-5.34375 1.351562-3.113281.808594-6.726562-1.398438-9.308593l-15.535156-20.65625h17.65625l15.535156 20.65625c2.207032 2.582031 2.75 6.195312 1.398438 9.308593-1.351563 3.117188-4.359375 5.191407-7.753906 5.34375zm0 0" fill="#a9b0bb"/><path d="m468.226562 512.019531h-17.65625c3.390626-.152343 6.402344-2.226562 7.75-5.34375 1.351563-3.113281.8125-6.726562-1.394531-9.308593l-15.535156-20.65625h17.652344l15.539062 20.65625c2.203125 2.582031 2.746094 6.195312 1.394531 9.308593-1.351562 3.117188-4.359374 5.191407-7.75 5.34375zm0 0" fill="#a9b0bb"/><g fill="#66d4f1"><path d="m76.898438 332.910156-64.351563 64.351563h-12.5351562v-12.535157l64.3515622-64.351562c3.460938-3.464844 9.074219-3.464844 12.535157 0 3.460937 3.460938 3.460937 9.070312 0 12.535156zm0 0"/><path d="m132.425781 273.675781c.003907 2.34375-.914062 4.597657-2.5625 6.265625l-26.480469 26.484375c-3.484374 3.414063-9.054687 3.414063-12.535156 0-3.445312-3.46875-3.445312-9.066406 0-12.535156l20.214844-20.214844zm0 0"/><path d="m200.484375 368.21875-29.042969 29.042969h-21.363281c-.003906-2.34375.914063-4.597657 2.5625-6.265625l35.308594-35.3125c3.460937-3.460938 9.074219-3.460938 12.535156 0 3.460937 3.460937 3.460937 9.074218 0 12.535156zm0 0"/><path d="m112.207031 377.046875-20.214843 20.214844h-21.359376c-.007812-2.34375.910157-4.597657 2.558594-6.265625l26.480469-26.484375c3.464844-3.460938 9.074219-3.460938 12.535156 0 3.464844 3.460937 3.464844 9.074219 0 12.535156zm0 0"/><path d="m208.429688 280.824219-69.738282 69.738281c-3.480468 3.414062-9.054687 3.414062-12.535156 0-3.441406-3.46875-3.441406-9.0625 0-12.535156l64.351562-64.351563h3.710938c5.597656.007813 10.867188 2.660157 14.210938 7.148438zm0 0"/><path d="m359.382812 332.910156-64.355468 64.351563h-12.535156v-12.535157l64.355468-64.351562c2.238282-2.242188 5.5-3.113281 8.558594-2.296875 3.058594.820313 5.449219 3.210937 6.269531 6.269531.820313 3.058594-.054687 6.320313-2.292969 8.5625zm0 0"/><path d="m414.90625 273.675781c.007812 2.34375-.914062 4.597657-2.558594 6.265625l-26.484375 26.484375c-3.480469 3.414063-9.054687 3.414063-12.535156 0-3.441406-3.46875-3.441406-9.066406 0-12.535156l20.214844-20.214844zm0 0"/><path d="m482.96875 368.21875-29.042969 29.042969h-21.363281c-.007812-2.34375.914062-4.597657 2.558594-6.265625l35.3125-35.3125c3.460937-3.460938 9.074218-3.460938 12.535156 0 3.460938 3.460937 3.460938 9.074218 0 12.535156zm0 0"/><path d="m394.691406 377.046875-20.214844 20.214844h-21.363281c-.007812-2.34375.914063-4.597657 2.558594-6.265625l26.484375-26.484375c3.460938-3.460938 9.074219-3.460938 12.535156 0 3.460938 3.460937 3.460938 9.074219 0 12.535156zm0 0"/><path d="m490.914062 280.824219-69.738281 69.738281c-3.484375 3.414062-9.054687 3.414062-12.535156 0-3.445313-3.46875-3.445313-9.0625 0-12.535156l64.351563-64.351563h3.707031c5.601562.007813 10.867187 2.660157 14.214843 7.148438zm0 0"/></g><path d="m276.375 87.589844c-3.429688 0-6.550781-1.988282-8-5.097656-1.453125-3.109376-.96875-6.777344 1.238281-9.40625 3.058594-3.695313 4.484375-8.472657 3.953125-13.242188-1.039062-8.027344-7.292968-14.382812-15.304687-15.554688-.746094-.089843-1.5-.132812-2.25-.128906-4.875 0-8.828125-3.953125-8.828125-8.828125s3.953125-8.828125 8.828125-8.828125c1.421875 0 2.847656.082032 4.261719.246094 12.851562 1.550781 23.824218 10.007812 28.59375 22.042969 4.769531 12.03125 2.574218 25.710937-5.722657 35.644531-1.679687 2-4.15625 3.15625-6.769531 3.152344zm0 0" fill="#ffd67b"/><path d="m406.078125 247.191406v26.484375h-17.652344v-26.484375c-.03125-9.738281-7.917969-17.625-17.65625-17.652344h-86.246093c4.386718-4.832031 6.8125-11.128906 6.796874-17.65625h79.449219c19.5 0 35.308594 15.808594 35.308594 35.308594zm0 0" fill="#457393"/><path d="m227.496094 229.539062h-86.246094c-9.738281.027344-17.625 7.914063-17.652344 17.652344v26.484375h-17.65625v-26.484375c0-19.5 15.808594-35.308594 35.308594-35.308594h79.449219c-.015625 6.527344 2.410156 12.824219 6.796875 17.65625zm0 0" fill="#457393"/><path d="m158.90625 70.640625h-35.308594c-4.875 0-8.828125-3.953125-8.828125-8.828125s3.953125-8.828125 8.828125-8.828125h35.308594c4.875 0 8.828125 3.953125 8.828125 8.828125s-3.953125 8.828125-8.828125 8.828125zm0 0" fill="#f5b945"/><path d="m164.769531 37.421875c-1.03125 0-2.050781-.175781-3.019531-.527344l-33.183594-12.070312c-3.023437-1.03125-5.25-3.621094-5.824218-6.761719-.574219-3.140625.589843-6.351562 3.050781-8.386719 2.460937-2.039062 5.832031-2.585937 8.8125-1.4375l33.171875 12.085938c4.015625 1.46875 6.398437 5.605469 5.660156 9.816406-.742188 4.210937-4.394531 7.289063-8.667969 7.300781zm0 0" fill="#f5b945"/><path d="m131.585938 115.925781c-4.289063.003907-7.957032-3.074219-8.703126-7.292969-.742187-4.222656 1.652344-8.367187 5.683594-9.832031l33.183594-12.066406c2.984375-1.175781 6.375-.640625 8.851562 1.402344 2.476563 2.042969 3.648438 5.269531 3.0625 8.425781-.585937 3.152344-2.839843 5.742188-5.886718 6.757812l-33.171875 12.066407c-.96875.355469-1.988281.539062-3.019531.539062zm0 0" fill="#f5b945"/><path d="m388.425781 70.640625h-35.3125c-4.875 0-8.828125-3.953125-8.828125-8.828125s3.953125-8.828125 8.828125-8.828125h35.3125c4.875 0 8.824219 3.953125 8.824219 8.828125s-3.949219 8.828125-8.824219 8.828125zm0 0" fill="#f5b945"/><path d="m347.261719 37.421875c-4.257813-.03125-7.890625-3.097656-8.628907-7.292969-.742187-4.191406 1.617188-8.316406 5.609376-9.804687l33.183593-12.066407c4.546875-1.558593 9.507813.8125 11.152344 5.332032 1.644531 4.519531-.628906 9.523437-5.113281 11.253906l-33.183594 12.050781c-.96875.351563-1.992188.527344-3.019531.527344zm0 0" fill="#f5b945"/><path d="m380.480469 115.925781c-1.03125 0-2.054688-.183593-3.019531-.539062l-33.21875-12.082031c-3.023438-1.035157-5.25-3.621094-5.824219-6.765626-.574219-3.140624.589843-6.347656 3.050781-8.386718 2.460938-2.039063 5.832031-2.585938 8.8125-1.4375l33.183594 12.070312c4.027344 1.460938 6.425781 5.605469 5.679687 9.828125-.742187 4.222657-4.414062 7.300781-8.699219 7.296875zm0 0" fill="#f5b945"/></svg>