<svg height="512pt" viewBox="-18 0 512 512.00003" width="512pt" xmlns="http://www.w3.org/2000/svg"><path d="m141.242188 388.414062h194.207031v61.792969h-194.207031zm0 0" fill="#a9b0bb"/><path d="m388.414062 512h-300.136718c-4.875 0-8.828125-3.953125-8.828125-8.828125v-26.480469l17.652343-8.828125h282.484376l17.65625 8.828125v26.480469c0 4.875-3.953126 8.828125-8.828126 8.828125zm0 0" fill="#a9b0bb"/><path d="m397.242188 476.691406-61.792969-44.140625h-194.207031l-61.792969 44.140625zm0 0" fill="#cad0d7"/><path d="m476.691406 335.449219v44.136719c0 14.625-11.859375 26.484374-26.484375 26.484374h-423.722656c-14.628906 0-26.484375-11.859374-26.484375-26.484374v-44.136719l8.828125-17.65625h459.035156zm0 0" fill="#cad0d7"/><path d="m476.691406 79.449219v256h-476.691406v-256c0-14.625 11.855469-26.484375 26.484375-26.484375h423.722656c14.625 0 26.484375 11.859375 26.484375 26.484375zm0 0" fill="#4fc0e8"/><path d="m387.265625 168.164062c1.53125-12.015624 1.53125-24.175781 0-36.191406l-29.128906-11.644531c-2.96875-11.945313-7.714844-23.378906-14.082031-33.914063l12.359374-28.847656c-7.410156-9.589844-16.011718-18.191406-25.601562-25.601562l-28.847656 12.359375c-10.53125-6.382813-21.964844-11.144531-33.914063-14.125l-11.609375-29.050781c-12.015625-1.53125-24.175781-1.53125-36.191406 0l-11.644531 29.128906c-11.949219 2.980468-23.382813 7.742187-33.917969 14.125l-28.847656-12.359375c-9.585938 7.410156-18.191406 16.011719-25.597656 25.601562l12.355468 28.847657c-6.367187 10.535156-11.113281 21.96875-14.078125 33.917968l-29.132812 11.640625c-1.527344 12.015625-1.527344 24.179688 0 36.195313l29.132812 11.640625c2.964844 11.949219 7.710938 23.382812 14.078125 33.917969l-12.355468 28.847656c7.40625 9.589844 16.011718 18.191406 25.597656 25.601562l28.847656-12.359375c10.535156 6.367188 21.96875 11.113281 33.917969 14.078125l11.644531 29.132813c12.015625 1.53125 24.175781 1.53125 36.191406 0l11.644532-29.132813c11.945312-2.964844 23.378906-7.710937 33.914062-14.078125l28.847656 12.359375c9.589844-7.410156 18.191406-16.011718 25.601563-25.601562l-12.359375-28.847656c6.367187-10.535157 11.113281-21.96875 14.082031-33.917969zm0 0" fill="#457393"/><path d="m317.792969 406.070312h17.65625v26.480469h-17.65625zm0 0" fill="#979faa"/><path d="m397.242188 476.691406v26.480469c0 4.875-3.953126 8.828125-8.828126 8.828125h-17.65625c4.875 0 8.828126-3.953125 8.828126-8.828125v-26.480469zm0 0" fill="#979faa"/><path d="m397.242188 476.691406h-17.65625l-61.792969-44.140625h17.65625zm0 0" fill="#a9b0bb"/><path d="m476.691406 335.449219v44.136719c0 14.625-11.859375 26.484374-26.484375 26.484374h-17.65625c14.628907 0 26.484375-11.859374 26.484375-26.484374v-44.136719zm0 0" fill="#a9b0bb"/><path d="m476.691406 79.449219v256h-17.65625v-256c0-14.625-11.855468-26.484375-26.484375-26.484375h17.65625c14.625 0 26.484375 11.859375 26.484375 26.484375zm0 0" fill="#3aadd9"/><path d="m388.414062 150.070312c.019532 6.050782-.363281 12.09375-1.148437 18.09375l-29.128906 11.652344c-2.964844 11.9375-7.695313 23.363282-14.039063 33.898438l12.359375 28.867187c-7.441406 9.558594-16.039062 18.160157-25.597656 25.601563l-17.566406-7.503906c1.585937-1.5 3.175781-3.003907 4.675781-4.503907 4.304688-4.253906 8.316406-8.796875 12.007812-13.59375l-12.359374-28.867187c6.34375-10.535156 11.074218-21.960938 14.035156-33.898438l29.132812-11.652344c1.527344-12.015624 1.527344-24.175781 0-36.191406l-29.132812-11.652344c-2.960938-11.9375-7.691406-23.363281-14.035156-33.898437l12.359374-28.867187c-3.691406-4.796876-7.703124-9.339844-12.007812-13.59375-1.5-1.5-3.089844-3-4.675781-4.5l17.566406-7.503907c9.558594 7.441407 18.15625 16.039063 25.597656 25.597657l-12.359375 28.867187c6.34375 10.535156 11.074219 21.960937 14.039063 33.898437l29.128906 11.652344c.785156 6 1.167969 12.046875 1.148437 18.097656zm0 0" fill="#365972"/><path d="m256 379.585938h-35.308594c-4.878906 0-8.828125-3.953126-8.828125-8.828126s3.949219-8.828124 8.828125-8.828124h35.308594c4.875 0 8.828125 3.953124 8.828125 8.828124s-3.953125 8.828126-8.828125 8.828126zm0 0" fill="#a9b0bb"/><g fill="#b4df80"><path d="m185.378906 203.035156c-2.339844 0-4.585937-.929687-6.242187-2.585937l-44.136719-44.140625c-3.445312-3.445313-3.445312-9.035156 0-12.480469l44.136719-44.136719c3.464843-3.347656 8.972656-3.300781 12.375.105469 3.40625 3.40625 3.453125 8.910156.109375 12.375l-37.898438 37.898437 37.898438 37.894532c2.523437 2.527344 3.277344 6.320312 1.910156 9.621094-1.363281 3.296874-4.582031 5.449218-8.152344 5.449218zm0 0"/><path d="m291.308594 203.035156c-3.566406 0-6.785156-2.152344-8.152344-5.449218-1.367188-3.300782-.609375-7.09375 1.914062-9.621094l37.894532-37.894532-37.894532-37.898437c-3.347656-3.464844-3.296874-8.96875.105469-12.375 3.40625-3.40625 8.910157-3.453125 12.375-.105469l44.136719 44.136719c3.449219 3.445313 3.449219 9.035156 0 12.480469l-44.136719 44.140625c-1.65625 1.65625-3.898437 2.585937-6.242187 2.585937zm0 0"/><path d="m220.691406 203.035156c-1.125.003906-2.234375-.210937-3.277344-.628906-2.175781-.867188-3.917968-2.5625-4.839843-4.714844-.925781-2.152344-.953125-4.585937-.085938-6.757812l35.3125-88.277344c1.167969-2.929688 3.8125-5.011719 6.933594-5.464844 3.125-.453125 6.25.796875 8.203125 3.273438 1.953125 2.480468 2.433594 5.8125 1.261719 8.742187l-35.308594 88.273438c-1.339844 3.355469-4.589844 5.554687-8.199219 5.554687zm0 0"/></g></svg>