<svg height="512pt" viewBox="0 0 512 512.00036" width="512pt" xmlns="http://www.w3.org/2000/svg"><path d="m8.828125 52.964844-8.828125 17.65625v317.792968c.0273438 9.738282 7.917969 17.625 17.65625 17.65625h388.414062c9.738282-.03125 17.625-7.917968 17.652344-17.65625v-317.792968l-8.824218-17.65625zm0 0" fill="#a9b0bb"/><path d="m423.722656 70.621094v317.792968c-.027344 9.738282-7.914062 17.625-17.652344 17.65625h-247.171874v-335.449218zm0 0" fill="#636c77"/><path d="m423.722656 17.65625v52.964844h-423.722656v-52.964844c.0273438-9.738281 7.917969-17.6289062 17.65625-17.65625h388.414062c9.738282.0273438 17.625 7.917969 17.652344 17.65625zm0 0" fill="#cad0d7"/><path d="m467.863281 361.929688c0 58.503906-47.429687 105.933593-105.933593 105.933593-58.503907 0-105.929688-47.429687-105.929688-105.933593 0-58.503907 47.425781-105.929688 105.929688-105.929688 58.503906 0 105.933593 47.425781 105.933593 105.929688zm0 0" fill="#66d4f1"/><path d="m453.207031 415.78125 51.023438 51.023438c10.328125 10.335937 10.328125 27.085937 0 37.425781-4.957031 4.972656-11.691407 7.769531-18.714844 7.769531-7.019531 0-13.753906-2.796875-18.710937-7.769531l-51.023438-51.023438zm0 0" fill="#a38671"/><path d="m423.722656 275.863281v112.550781c-.027344 9.738282-7.914062 17.625-17.652344 17.65625h-140.535156c-8.792968-19.332031-11.589844-40.855468-8.035156-61.792968.9375-6.027344 2.472656-11.941406 4.589844-17.65625 3.25-9.460938 7.894531-18.386719 13.773437-26.484375 4.660157-6.453125 10.019531-12.375 15.976563-17.652344 31.40625-27.683594 76.164062-34.289063 114.230468-16.863281 6.21875 2.804687 12.132813 6.234375 17.652344 10.242187zm0 0" fill="#3aadd9"/><path d="m423.722656 70.621094v205.242187c-5.519531-4.007812-11.433594-7.4375-17.652344-10.242187v-195zm0 0" fill="#535e68"/><path d="m423.722656 275.863281v112.550781c-.027344 9.738282-7.914062 17.625-17.652344 17.65625h-17.65625c9.738282-.03125 17.625-7.917968 17.65625-17.65625v-122.792968c6.21875 2.804687 12.132813 6.234375 17.652344 10.242187zm0 0" fill="#2a99bc"/><path d="m423.722656 17.65625v52.964844h-17.652344v-52.964844c-.03125-9.738281-7.917968-17.6289062-17.65625-17.65625h17.65625c9.738282.0273438 17.625 7.917969 17.652344 17.65625zm0 0" fill="#a9b0bb"/><path d="m504.230469 504.230469c-4.9375 5.003906-11.683594 7.804687-18.714844 7.769531-3.164063.015625-6.308594-.550781-9.265625-1.675781 3.570312-1.28125 6.800781-3.367188 9.445312-6.09375 10.324219-10.339844 10.324219-27.089844 0-37.425781l-33.722656-33.722657c2.738282-3.5 5.273438-7.15625 7.589844-10.945312l44.667969 44.667969c10.328125 10.335937 10.328125 27.085937 0 37.425781zm0 0" fill="#937661"/><g fill="#b4df80"><path d="m238.34375 229.515625c-2.339844 0-4.585938-.929687-6.238281-2.585937l-44.140625-44.136719c-3.445313-3.449219-3.445313-9.035157 0-12.480469l44.140625-44.140625c3.460937-3.34375 8.96875-3.296875 12.375.109375 3.402343 3.402344 3.449219 8.910156.105469 12.375l-37.898438 37.894531 37.898438 37.898438c2.523437 2.523437 3.277343 6.320312 1.914062 9.617187-1.367188 3.300782-4.585938 5.449219-8.15625 5.449219zm0 0"/><path d="m344.277344 229.515625c-3.570313 0-6.789063-2.148437-8.15625-5.449219-1.363282-3.296875-.609375-7.09375 1.914062-9.617187l37.898438-37.898438-37.898438-37.894531c-3.34375-3.464844-3.296875-8.972656.105469-12.375 3.40625-3.40625 8.914063-3.453125 12.375-.109375l44.140625 44.140625c3.445312 3.445312 3.445312 9.03125 0 12.480469l-44.140625 44.136719c-1.652344 1.65625-3.898437 2.585937-6.238281 2.585937zm0 0"/><path d="m273.65625 229.515625c-1.121094.003906-2.234375-.207031-3.277344-.625-2.175781-.867187-3.914062-2.566406-4.839844-4.71875-.921874-2.152344-.953124-4.582031-.085937-6.757813l35.3125-88.273437c1.808594-4.53125 6.945313-6.738281 11.476563-4.925781 4.527343 1.808594 6.734374 6.945312 4.925781 11.472656l-35.3125 88.277344c-1.339844 3.355468-4.589844 5.554687-8.199219 5.550781zm0 0"/></g><path d="m370.757812 300.136719h-8.828124c-4.875 0-8.824219-3.949219-8.824219-8.828125 0-4.875 3.949219-8.824219 8.824219-8.824219h8.828124c4.875 0 8.828126 3.949219 8.828126 8.824219 0 4.878906-3.953126 8.828125-8.828126 8.828125zm0 0" fill="#2291aa"/><path d="m291.839844 282.484375c-5.957032 5.277344-11.316406 11.199219-15.976563 17.652344h-64c-4.875 0-8.828125-3.949219-8.828125-8.828125 0-4.875 3.953125-8.824219 8.828125-8.824219zm0 0" fill="#f4f6f8"/><path d="m335.449219 291.308594c0 4.878906-3.953125 8.828125-8.828125 8.828125h-50.757813c4.660157-6.453125 10.019531-12.375 15.976563-17.652344h34.78125c4.875 0 8.828125 3.949219 8.828125 8.824219zm0 0" fill="#2291aa"/><path d="m370.757812 344.277344h-44.136718c-4.875 0-8.828125-3.953125-8.828125-8.828125s3.953125-8.828125 8.828125-8.828125h44.136718c4.875 0 8.828126 3.953125 8.828126 8.828125s-3.953126 8.828125-8.828126 8.828125zm0 0" fill="#2291aa"/><path d="m262.089844 326.621094c-2.117188 5.714844-3.652344 11.628906-4.589844 17.65625h-45.636719c-4.875 0-8.828125-3.953125-8.828125-8.828125s3.953125-8.828125 8.828125-8.828125zm0 0" fill="#f4f6f8"/><path d="m300.136719 335.449219c0 4.875-3.949219 8.828125-8.828125 8.828125h-33.808594c.9375-6.027344 2.472656-11.941406 4.589844-17.65625h29.21875c4.878906 0 8.828125 3.953125 8.828125 8.828125zm0 0" fill="#2291aa"/><path d="m44.136719 44.136719h-8.828125c-4.875 0-8.824219-3.949219-8.824219-8.828125 0-4.875 3.949219-8.824219 8.824219-8.824219h8.828125c4.875 0 8.828125 3.949219 8.828125 8.824219 0 4.878906-3.953125 8.828125-8.828125 8.828125zm0 0" fill="#d94452"/><path d="m88.277344 44.136719h-8.828125c-4.875 0-8.828125-3.949219-8.828125-8.828125 0-4.875 3.953125-8.824219 8.828125-8.824219h8.828125c4.875 0 8.828125 3.949219 8.828125 8.824219 0 4.878906-3.953125 8.828125-8.828125 8.828125zm0 0" fill="#f5b945"/><path d="m132.414062 44.136719h-8.828124c-4.875 0-8.828126-3.949219-8.828126-8.828125 0-4.875 3.953126-8.824219 8.828126-8.824219h8.828124c4.875 0 8.828126 3.949219 8.828126 8.824219 0 4.878906-3.953126 8.828125-8.828126 8.828125zm0 0" fill="#89c053"/><path d="m44.136719 123.585938h-8.828125c-4.875 0-8.824219-3.953126-8.824219-8.828126s3.949219-8.828124 8.824219-8.828124h8.828125c4.875 0 8.828125 3.953124 8.828125 8.828124s-3.953125 8.828126-8.828125 8.828126zm0 0" fill="#b4df80"/><path d="m123.585938 123.585938h-44.136719c-4.875 0-8.828125-3.953126-8.828125-8.828126s3.953125-8.828124 8.828125-8.828124h44.136719c4.875 0 8.828124 3.953124 8.828124 8.828124s-3.953124 8.828126-8.828124 8.828126zm0 0" fill="#eb5463"/><path d="m44.136719 158.898438h-8.828125c-4.875 0-8.824219-3.953126-8.824219-8.828126s3.949219-8.828124 8.824219-8.828124h8.828125c4.875 0 8.828125 3.953124 8.828125 8.828124s-3.953125 8.828126-8.828125 8.828126zm0 0" fill="#b4df80"/><path d="m123.585938 158.898438h-44.136719c-4.875 0-8.828125-3.953126-8.828125-8.828126s3.953125-8.828124 8.828125-8.828124h44.136719c4.875 0 8.828124 3.953124 8.828124 8.828124s-3.953124 8.828126-8.828124 8.828126zm0 0" fill="#eb5463"/><path d="m44.136719 194.207031h-8.828125c-4.875 0-8.824219-3.953125-8.824219-8.828125s3.949219-8.828125 8.824219-8.828125h8.828125c4.875 0 8.828125 3.953125 8.828125 8.828125s-3.953125 8.828125-8.828125 8.828125zm0 0" fill="#b4df80"/><path d="m123.585938 194.207031h-44.136719c-4.875 0-8.828125-3.953125-8.828125-8.828125s3.953125-8.828125 8.828125-8.828125h44.136719c4.875 0 8.828124 3.953125 8.828124 8.828125s-3.953124 8.828125-8.828124 8.828125zm0 0" fill="#eb5463"/><path d="m44.136719 229.515625h-8.828125c-4.875 0-8.824219-3.949219-8.824219-8.824219 0-4.878906 3.949219-8.828125 8.824219-8.828125h8.828125c4.875 0 8.828125 3.949219 8.828125 8.828125 0 4.875-3.953125 8.824219-8.828125 8.824219zm0 0" fill="#b4df80"/><path d="m123.585938 229.515625h-44.136719c-4.875 0-8.828125-3.949219-8.828125-8.824219 0-4.878906 3.953125-8.828125 8.828125-8.828125h44.136719c4.875 0 8.828124 3.949219 8.828124 8.828125 0 4.875-3.953124 8.824219-8.828124 8.824219zm0 0" fill="#eb5463"/><path d="m44.136719 264.828125h-8.828125c-4.875 0-8.824219-3.953125-8.824219-8.828125s3.949219-8.828125 8.824219-8.828125h8.828125c4.875 0 8.828125 3.953125 8.828125 8.828125s-3.953125 8.828125-8.828125 8.828125zm0 0" fill="#b4df80"/><path d="m123.585938 264.828125h-44.136719c-4.875 0-8.828125-3.953125-8.828125-8.828125s3.953125-8.828125 8.828125-8.828125h44.136719c4.875 0 8.828124 3.953125 8.828124 8.828125s-3.953124 8.828125-8.828124 8.828125zm0 0" fill="#eb5463"/><path d="m44.136719 300.136719h-8.828125c-4.875 0-8.824219-3.949219-8.824219-8.828125 0-4.875 3.949219-8.824219 8.824219-8.824219h8.828125c4.875 0 8.828125 3.949219 8.828125 8.824219 0 4.878906-3.953125 8.828125-8.828125 8.828125zm0 0" fill="#b4df80"/><path d="m123.585938 300.136719h-44.136719c-4.875 0-8.828125-3.949219-8.828125-8.828125 0-4.875 3.953125-8.824219 8.828125-8.824219h44.136719c4.875 0 8.828124 3.949219 8.828124 8.824219 0 4.878906-3.953124 8.828125-8.828124 8.828125zm0 0" fill="#eb5463"/><path d="m44.136719 335.449219h-8.828125c-4.875 0-8.824219-3.953125-8.824219-8.828125s3.949219-8.828125 8.824219-8.828125h8.828125c4.875 0 8.828125 3.953125 8.828125 8.828125s-3.953125 8.828125-8.828125 8.828125zm0 0" fill="#b4df80"/><path d="m123.585938 335.449219h-44.136719c-4.875 0-8.828125-3.953125-8.828125-8.828125s3.953125-8.828125 8.828125-8.828125h44.136719c4.875 0 8.828124 3.953125 8.828124 8.828125s-3.953124 8.828125-8.828124 8.828125zm0 0" fill="#eb5463"/><path d="m44.136719 370.757812h-8.828125c-4.875 0-8.824219-3.953124-8.824219-8.828124s3.949219-8.828126 8.824219-8.828126h8.828125c4.875 0 8.828125 3.953126 8.828125 8.828126s-3.953125 8.828124-8.828125 8.828124zm0 0" fill="#b4df80"/><path d="m123.585938 370.757812h-44.136719c-4.875 0-8.828125-3.953124-8.828125-8.828124s3.953125-8.828126 8.828125-8.828126h44.136719c4.875 0 8.828124 3.953126 8.828124 8.828126s-3.953124 8.828124-8.828124 8.828124zm0 0" fill="#eb5463"/><path d="m361.929688 247.171875c-63.3125.042969-114.613282 51.390625-114.597657 114.707031.015625 63.3125 51.335938 114.636719 114.652344 114.652344s114.660156-51.285156 114.707031-114.601562c-.058594-63.355469-51.40625-114.699219-114.761718-114.757813zm0 211.863281c-53.628907 0-97.101563-43.476562-97.101563-97.105468 0-53.628907 43.472656-97.101563 97.101563-97.101563 53.628906 0 97.105468 43.472656 97.105468 97.101563-.035156 53.617187-43.488281 97.070312-97.105468 97.105468zm0 0" fill="#f5b945"/></svg>