<svg height="512pt" viewBox="0 0 512 512" width="512pt" xmlns="http://www.w3.org/2000/svg"><path d="m317.792969 361.929688v105.933593c0 24.371094-71.140625 44.136719-158.894531 44.136719-87.757813 0-158.898438-19.765625-158.898438-44.136719v-105.933593zm0 0" fill="#457393"/><path d="m317.792969 361.929688c0-24.375-71.140625-44.136719-158.894531-44.136719-87.757813 0-158.898438 19.761719-158.898438 44.136719 0 24.378906 71.140625 44.140624 158.898438 44.140624 87.753906 0 158.894531-19.761718 158.894531-44.140624zm0 0" fill="#5e8faa"/><path d="m317.792969 203.035156v97.101563c0 24.375-71.140625 44.140625-158.894531 44.140625-87.757813 0-158.898438-19.765625-158.898438-44.140625v-97.101563zm0 0" fill="#457393"/><path d="m317.792969 203.035156c0-24.378906-71.140625-44.136718-158.894531-44.136718-87.757813 0-158.898438 19.757812-158.898438 44.136718 0 24.375 71.140625 44.136719 158.898438 44.136719 87.753906 0 158.894531-19.761719 158.894531-44.136719zm0 0" fill="#5e8faa"/><path d="m317.792969 44.136719v97.105469c0 24.371093-71.140625 44.136718-158.894531 44.136718-87.757813 0-158.898438-19.765625-158.898438-44.136718v-97.105469zm0 0" fill="#457393"/><path d="m291.308594 282.484375h194.207031c14.628906 0 26.484375 11.855469 26.484375 26.480469v176.550781c0 14.628906-11.855469 26.484375-26.484375 26.484375h-194.207031c-14.625 0-26.480469-11.855469-26.480469-26.484375v-176.550781c0-14.625 11.855469-26.480469 26.480469-26.480469zm0 0" fill="#a9b0bb"/><path d="m317.792969 44.136719c0-24.375-71.140625-44.136719-158.894531-44.136719-87.757813 0-158.898438 19.761719-158.898438 44.136719 0 24.378906 71.140625 44.140625 158.898438 44.140625 87.753906 0 158.894531-19.761719 158.894531-44.140625zm0 0" fill="#5e8faa"/><path d="m512 308.964844v176.550781c0 14.628906-11.855469 26.484375-26.484375 26.484375h-17.652344c14.625 0 26.480469-11.855469 26.480469-26.484375v-176.550781c0-14.625-11.855469-26.480469-26.480469-26.480469h17.652344c14.628906 0 26.484375 11.855469 26.484375 26.480469zm0 0" fill="#949ca8"/><path d="m51.542969 456.261719c-.726563 0-1.453125-.089844-2.160157-.273438-3.097656-.777343-6.070312-1.589843-8.925781-2.445312-4.542969-1.476563-7.089843-6.300781-5.742187-10.886719 1.347656-4.582031 6.101562-7.261719 10.722656-6.042969 2.644531.777344 5.402344 1.535157 8.25 2.257813 4.324219 1.085937 7.164062 5.222656 6.617188 9.644531-.546876 4.421875-4.304688 7.746094-8.761719 7.746094zm0 0" fill="#b4df80"/><path d="m94.457031 464.082031c-.367187.003907-.734375-.019531-1.097656-.070312-2.972656-.371094-5.886719-.75-8.765625-1.15625-4.828125-.695313-8.179688-5.171875-7.484375-10s5.171875-8.179688 10-7.484375c2.765625.40625 5.570313.773437 8.421875 1.128906 4.617188.585938 7.984375 4.652344 7.699219 9.296875-.285157 4.640625-4.125 8.269531-8.773438 8.285156zm0 0" fill="#b4df80"/><path d="m51.542969 288.539062c-.726563 0-1.453125-.09375-2.160157-.273437-3.097656-.777344-6.070312-1.59375-8.925781-2.445313-4.542969-1.476562-7.089843-6.300781-5.742187-10.886718 1.347656-4.585938 6.101562-7.261719 10.722656-6.046875 2.644531.777343 5.402344 1.539062 8.25 2.261719 4.324219 1.082031 7.164062 5.21875 6.617188 9.644531-.546876 4.421875-4.304688 7.746093-8.761719 7.746093zm0 0" fill="#b4df80"/><path d="m94.457031 296.359375c-.367187.003906-.734375-.019531-1.097656-.070313-2.972656-.371093-5.886719-.75-8.765625-1.15625-4.828125-.695312-8.179688-5.171874-7.484375-10 .695313-4.832031 5.171875-8.183593 10-7.488281 2.765625.40625 5.570313.777344 8.421875 1.128907 4.617188.589843 7.984375 4.65625 7.699219 9.296874-.285157 4.644532-4.125 8.269532-8.773438 8.289063zm0 0" fill="#b4df80"/><g fill="#fff"><path d="m361.929688 344.277344c0-14.628906-11.855469-26.484375-26.480469-26.484375-14.628907 0-26.484375 11.855469-26.484375 26.484375v17.652344c0 14.628906 11.855468 26.484374 26.484375 26.484374 14.625 0 26.480469-11.855468 26.480469-26.484374zm-17.652344 17.652344c0 4.875-3.953125 8.828124-8.828125 8.828124s-8.828125-3.953124-8.828125-8.828124v-17.652344c0-4.875 3.953125-8.828125 8.828125-8.828125s8.828125 3.953125 8.828125 8.828125zm0 0"/><path d="m406.070312 370.757812v-44.136718c-.003906-3.570313-2.152343-6.789063-5.449218-8.152344-3.300782-1.367188-7.097656-.613281-9.621094 1.910156l-8.828125 8.828125c-2.523437 2.523438-3.277344 6.320313-1.910156 9.621094 1.363281 3.296875 4.582031 5.445313 8.152343 5.449219v26.480468c-4.875 0-8.828124 3.953126-8.828124 8.828126s3.953124 8.828124 8.828124 8.828124h17.65625c4.875 0 8.828126-3.953124 8.828126-8.828124s-3.953126-8.828126-8.828126-8.828126zm0 0"/><path d="m432.550781 379.585938c0 4.875 3.953125 8.828124 8.828125 8.828124h17.65625c4.875 0 8.828125-3.953124 8.828125-8.828124s-3.953125-8.828126-8.828125-8.828126v-44.136718c0-3.570313-2.152344-6.789063-5.449218-8.152344-3.300782-1.367188-7.09375-.613281-9.621094 1.910156l-8.828125 8.828125c-2.523438 2.523438-3.277344 6.320313-1.910157 9.621094 1.363282 3.296875 4.582032 5.445313 8.152344 5.449219v26.480468c-4.875 0-8.828125 3.953126-8.828125 8.828126zm0 0"/><path d="m441.378906 406.070312c-14.625 0-26.480468 11.855469-26.480468 26.480469v17.65625c0 14.625 11.855468 26.484375 26.480468 26.484375s26.484375-11.859375 26.484375-26.484375v-17.65625c0-14.625-11.859375-26.480469-26.484375-26.480469zm8.828125 44.136719c0 4.875-3.953125 8.828125-8.828125 8.828125s-8.828125-3.953125-8.828125-8.828125v-17.65625c0-4.875 3.953125-8.828125 8.828125-8.828125s8.828125 3.953125 8.828125 8.828125zm0 0"/><path d="m335.449219 459.035156v-44.136718c0-3.570313-2.152344-6.789063-5.449219-8.15625-3.300781-1.367188-7.097656-.609376-9.621094 1.914062l-8.828125 8.828125c-2.523437 2.523437-3.277343 6.320313-1.910156 9.617187 1.363281 3.296876 4.582031 5.449219 8.152344 5.449219v26.484375c-4.875 0-8.828125 3.953125-8.828125 8.828125s3.953125 8.828125 8.828125 8.828125h17.65625c4.875 0 8.828125-3.953125 8.828125-8.828125s-3.953125-8.828125-8.828125-8.828125zm0 0"/><path d="m388.414062 459.035156v-44.136718c0-3.570313-2.152343-6.789063-5.449218-8.15625-3.300782-1.367188-7.09375-.609376-9.621094 1.914062l-8.828125 8.828125c-2.523437 2.523437-3.277344 6.320313-1.910156 9.617187 1.367187 3.296876 4.582031 5.449219 8.152343 5.449219v26.484375c-4.875 0-8.828124 3.953125-8.828124 8.828125s3.953124 8.828125 8.828124 8.828125h17.65625c4.875 0 8.828126-3.953125 8.828126-8.828125s-3.953126-8.828125-8.828126-8.828125zm0 0"/></g><path d="m51.542969 129.640625c-.726563 0-1.453125-.089844-2.160157-.273437-3.097656-.777344-6.070312-1.589844-8.925781-2.445313-4.542969-1.476563-7.089843-6.300781-5.742187-10.882813 1.347656-4.585937 6.101562-7.265624 10.722656-6.046874 2.644531.777343 5.402344 1.535156 8.25 2.257812 4.324219 1.085938 7.164062 5.222656 6.617188 9.644531-.546876 4.425781-4.304688 7.746094-8.761719 7.746094zm0 0" fill="#b4df80"/><path d="m94.457031 137.464844c-.367187 0-.734375-.023438-1.097656-.074219-2.972656-.367187-5.886719-.75-8.765625-1.15625-3.121094-.449219-5.769531-2.53125-6.941406-5.460937-1.171875-2.929688-.695313-6.261719 1.257812-8.742188 1.949219-2.480469 5.078125-3.730469 8.199219-3.28125 2.765625.40625 5.570313.777344 8.421875 1.128906 4.617188.585938 7.984375 4.652344 7.699219 9.296875-.285157 4.640625-4.125 8.269531-8.773438 8.289063zm0 0" fill="#b4df80"/><path d="m251.683594 52.964844c-.632813 0-1.261719-.0625-1.878906-.195313-29.914063-6.078125-60.386719-8.972656-90.90625-8.632812-30.53125-.339844-61.007813 2.554687-90.925782 8.632812-4.769531 1.035157-9.472656-1.992187-10.503906-6.761719-1.035156-4.765624 1.992188-9.46875 6.761719-10.503906 31.148437-6.332031 62.878906-9.355468 94.667969-9.019531 31.777343-.335937 63.503906 2.691406 94.648437 9.019531 4.421875.945313 7.414063 5.074219 6.933594 9.570313-.476563 4.496093-4.277344 7.902343-8.796875 7.890625zm0 0" fill="#75a7bc"/><path d="m467.863281 229.515625v17.65625c0 4.875-3.953125 8.828125-8.828125 8.828125s-8.828125-3.953125-8.828125-8.828125v-17.65625c0-34.125-27.664062-61.792969-61.792969-61.792969-34.128906 0-61.792968 27.667969-61.792968 61.792969v52.96875h-17.65625v-52.96875c0-43.875 35.570312-79.445313 79.449218-79.445313 43.878907 0 79.449219 35.570313 79.449219 79.445313zm0 0" fill="#424852"/></svg>