<svg height="512pt" viewBox="0 0 512.01209 512" width="512pt" xmlns="http://www.w3.org/2000/svg"><path d="m404.582031 70.625c14.257813-.304688 26.378907 10.359375 27.894531 24.542969.539063 7.335937-2 14.570312-7.007812 19.960937-5.003906 5.394532-12.03125 8.457032-19.386719 8.464844h-271.980469c-3.402343.066406-6.476562 2.046875-7.941406 5.117188-12.535156 23.957031-37.320312 38.984374-64.355468 39.019531-25.84375-.019531-49.5-14.503907-61.261719-37.515625-.75-1.382813-.722657-3.054688.074219-4.40625.792968-1.355469 2.238281-2.195313 3.808593-2.214844h57.378907c4.875 0 8.828124-3.953125 8.828124-8.828125v-35.3125c0-4.875-3.953124-8.828125-8.828124-8.828125h-57.378907c-1.570312-.019531-3.015625-.859375-3.808593-2.214844-.796876-1.351562-.824219-3.023437-.074219-4.402344 12.414062-23.339843 36.804687-37.808593 63.238281-37.511718 26.429688.296875 50.492188 15.3125 62.378906 38.921875 1.425782 3.117187 4.515625 5.144531 7.941406 5.207031zm0 0" fill="#636c77"/><path d="m220.703125 512.007812h-211.863281c-4.875 0-8.8281252-3.953124-8.8281252-8.828124v-26.484376l8.8281252-8.828124h211.863281l8.828125 8.828124v26.484376c0 4.875-3.953125 8.828124-8.828125 8.828124zm0 0" fill="#cad0d7"/><path d="m211.875 406.074219 17.65625 70.621093h-229.5195312l17.6562502-70.621093 8.828125-8.828125h176.550781zm0 0" fill="#e4e8eb"/><path d="m211.875 291.316406v114.757813h-194.207031v-114.757813c0-4.875 3.953125-8.828125 8.828125-8.828125h176.550781c.75-.011719 1.496094.109375 2.207031.355469.429688.042969.847656.164062 1.234375.351562 2.140625.84375 3.835938 2.539063 4.679688 4.679688.1875.386719.308593.804688.351562 1.234375.246094.710937.367188 1.457031.355469 2.207031zm0 0" fill="#4fc0e8"/><path d="m79.460938 476.695312 7.945312-31.964843c.492188-1.980469 2.28125-3.363281 4.324219-3.34375h46.082031c2.023438 0 3.789062 1.378906 4.28125 3.34375l7.988281 31.964843zm0 0" fill="#a9b0bb"/><path d="m503.183594 512.007812h-211.859375c-4.878907 0-8.828125-3.953124-8.828125-8.828124v-26.484376l8.828125-8.828124h211.859375l8.828125 8.828124v26.484376c0 4.875-3.953125 8.828124-8.828125 8.828124zm0 0" fill="#cad0d7"/><path d="m494.355469 406.074219 17.65625 70.621093h-229.515625l17.652344-70.621093 8.828124-8.828125h176.554688zm0 0" fill="#e4e8eb"/><path d="m494.355469 291.316406.003906 114.757813h-194.210937v-114.757813c0-4.875 3.953124-8.828125 8.828124-8.828125h176.554688c.75-.011719 1.496094.109375 2.203125.355469.429687.042969.847656.164062 1.238281.351562 2.140625.84375 3.832032 2.539063 4.679688 4.679688.1875.386719.304687.804688.351562 1.234375.246094.710937.367188 1.457031.351563 2.207031zm0 0" fill="#4fc0e8"/><path d="m361.941406 476.695312 7.992188-31.964843c.488281-1.964844 2.253906-3.34375 4.28125-3.34375h46.078125c2.027343 0 3.792969 1.378906 4.28125 3.34375l7.988281 31.964843zm0 0" fill="#a9b0bb"/><path d="m370.769531 35.316406v30.898438c-.011719 1.480468-.15625 2.957031-.441406 4.410156-2.085937 10.289062-11.132813 17.679688-21.625 17.679688-10.496094 0-19.539063-7.390626-21.628906-17.679688-.28125-1.453125-.429688-2.929688-.441407-4.410156v-30.898438c.027344-9.738281 7.917969-17.625 17.65625-17.65625h8.828126c9.75 0 17.652343 7.90625 17.652343 17.65625zm0 0" fill="#e3b692"/><path d="m326.632812 17.660156v48.554688c-.011718 1.480468-.160156 2.957031-.441406 4.410156-2.089844 10.289062-11.132812 17.679688-21.628906 17.679688s-19.539062-7.390626-21.625-17.679688c-.285156-1.453125-.429688-2.929688-.441406-4.410156v-48.554688c.027344-9.738281 7.914062-17.6249998 17.652344-17.6523435h8.828124c9.75 0 17.65625 7.9023435 17.65625 17.6523435zm0 0" fill="#e3b692"/><path d="m282.496094 26.488281v39.726563c-.011719 1.480468-.160156 2.957031-.441406 4.410156-1.816407 8.84375-8.835938 15.6875-17.722657 17.28125-8.882812 1.59375-17.84375-2.382812-22.621093-10.039062 1.703124-2.171876 3.019531-4.621094 3.882812-7.242188 1.0625-2.789062 1.601562-5.75 1.589844-8.738281.023437-2.355469-.894532-4.625-2.554688-6.296875-1.65625-1.675782-3.914062-2.617188-6.273437-2.617188v-26.484375c.03125-9.738281 7.917969-17.625 17.65625-17.65625h8.828125c9.738281.03125 17.625 7.917969 17.65625 17.65625zm0 0" fill="#e3b692"/><path d="m238.355469 35.316406v26.484375c-.011719 1.480469-.15625 2.957031-.441407 4.414063-1.816406 8.839844-8.832031 15.683594-17.71875 17.277344-8.882812 1.59375-17.84375-2.382813-22.621093-10.039063 1.675781-2.121094 1.5-11.652344-3.355469-11.652344v-26.484375c.03125-9.738281 7.917969-17.625 17.65625-17.65625h8.828125c9.738281.03125 17.625 7.917969 17.652344 17.65625zm0 0" fill="#e3b692"/><path d="m370.769531 123.59375v20.65625c.007813 9.367188-3.707031 18.351562-10.328125 24.980469l-5.824218 5.828125c-5.207032 5.191406-8.636719 11.894531-9.800782 19.15625-.351562 1.921875-.527344 3.871094-.527344 5.824218v20.65625c0 4.875-3.953124 8.828126-8.828124 8.828126h-114.757813c-4.875 0-8.828125-3.953126-8.828125-8.828126v-15.625c.019531-3.664062-.457031-7.316406-1.414062-10.855468-2.082032-8.503906-6.699219-16.167969-13.242188-21.984375l-41.929688-37.691407c-3.847656-2.933593-7.007812-6.667968-9.269531-10.945312-3.125-5.425781-4.765625-11.574219-4.765625-17.832031 1.234375-8.027344 3.738282-15.804688 7.414063-23.042969 1.960937-4.359375 4.515625-8.429688 7.59375-12.09375 9.382812-11.054688 23.101562-17.492188 37.605469-17.652344h44.488281c2.359375 0 4.617187.941406 6.273437 2.617188 1.660156 1.671875 2.578125 3.941406 2.554688 6.296875.011718 2.988281-.527344 5.949219-1.589844 8.738281-.863281 2.621094-2.179688 5.070312-3.882812 7.242188-.695313.9375-1.460938 1.824218-2.292969 2.644531-.785157.785156-1.609375 1.519531-2.472657 2.207031-4.65625 3.589844-10.367187 5.542969-16.242187 5.5625h-17.65625c-9.5625.039062-17.375 7.65625-17.65625 17.214844-.035156 2.453125.917969 4.816406 2.644531 6.5625 1.726563 1.742187 4.082032 2.71875 6.535156 2.707031 8.460938.109375 16.601563 3.242187 22.953126 8.828125zm0 0" fill="#efc7a4"/><path d="m211.875 291.316406v114.757813h-17.65625v-114.757813c.015625-1.0625-.191406-2.117187-.617188-3.089844-1.257812-3.449218-4.539062-5.742187-8.210937-5.738281h17.65625c.75-.011719 1.496094.109375 2.207031.355469.429688.03125.851563.152344 1.234375.351562 2.140625.84375 3.835938 2.539063 4.679688 4.679688.199219.382812.316406.804688.351562 1.234375.246094.710937.367188 1.457031.355469 2.207031zm0 0" fill="#3aadd9"/><path d="m229.53125 476.695312h-17.65625l-17.65625-70.621093h17.65625zm0 0" fill="#cad0d7"/><path d="m229.53125 476.695312v26.484376c0 4.875-3.953125 8.828124-8.828125 8.828124h-17.65625c4.875 0 8.828125-3.953124 8.828125-8.828124v-26.484376zm0 0" fill="#a9b0bb"/><path d="m494.355469 291.316406v114.757813h-17.652344v-114.757813c.015625-1.0625-.195313-2.117187-.621094-3.089844-1.253906-3.449218-4.535156-5.742187-8.207031-5.738281h17.65625c.75-.011719 1.496094.109375 2.203125.355469.433594.03125.851563.152344 1.238281.351562 2.140625.84375 3.832032 2.539063 4.679688 4.679688.195312.382812.316406.804688.351562 1.234375.246094.710937.367188 1.457031.351563 2.207031zm0 0" fill="#3aadd9"/><path d="m512.011719 476.695312h-17.65625l-17.652344-70.621093h17.652344zm0 0" fill="#cad0d7"/><path d="m512.011719 476.695312v26.484376c0 4.875-3.953125 8.828124-8.828125 8.828124h-17.652344c4.875 0 8.824219-3.953124 8.824219-8.828124v-26.484376zm0 0" fill="#a9b0bb"/><path d="m370.769531 35.316406v30.898438c-.011719 1.480468-.15625 2.957031-.441406 4.410156-2.097656 10.277344-11.136719 17.660156-21.625 17.65625-3.039063-.027344-6.039063-.65625-8.828125-1.851562 6.609375-2.835938 11.398438-8.75 12.800781-15.804688.28125-1.453125.429688-2.929688.441407-4.410156v-30.898438c.023437-8.019531-5.390626-15.03125-13.15625-17.039062 1.402343-.429688 2.863281-.640625 4.328124-.617188h8.828126c9.75 0 17.652343 7.90625 17.652343 17.65625zm0 0" fill="#d3a484"/><path d="m370.769531 123.59375v20.65625c.007813 9.367188-3.707031 18.351562-10.328125 24.980469l-5.824218 5.828125c-5.207032 5.191406-8.636719 11.894531-9.800782 19.15625-.351562 1.921875-.527344 3.871094-.527344 5.824218v20.65625c0 4.875-3.953124 8.828126-8.828124 8.828126h-17.65625c4.875 0 8.828124-3.953126 8.828124-8.828126v-20.65625c0-1.953124.179688-3.902343.53125-5.824218 1.160157-7.261719 4.589844-13.964844 9.796876-19.15625l5.828124-5.828125c6.617188-6.628907 10.332032-15.613281 10.328126-24.980469v-20.65625zm0 0" fill="#e3b692"/><path d="m134.101562 123.59375c-3.402343.066406-6.476562 2.046875-7.941406 5.117188-12.535156 23.957031-37.320312 38.984374-64.355468 39.019531-2.925782.019531-5.847657-.1875-8.738282-.617188 23.675782-2.886719 44.414063-17.25 55.4375-38.402343 1.46875-3.070313 4.539063-5.050782 7.945313-5.117188zm0 0" fill="#515d68"/><path d="m134.101562 70.625h-17.652343c-3.429688-.0625-6.519531-2.089844-7.945313-5.207031-10.59375-21.007813-30.945312-35.371094-54.289062-38.3125 2.890625-.425781 5.8125-.628907 8.738281-.617188 26.726563.015625 51.167969 15.070313 63.207031 38.929688 1.425782 3.117187 4.515625 5.144531 7.941406 5.207031zm0 0" fill="#515d68"/><path d="m432.476562 95.167969c.539063 7.335937-2 14.570312-7.007812 19.960937-5.003906 5.394532-12.03125 8.457032-19.386719 8.464844h-17.65625c7.359375-.007812 14.382813-3.070312 19.390625-8.464844 5.003906-5.390625 7.542969-12.625 7.003906-19.960937-1.515624-14.183594-13.632812-24.847657-27.894531-24.542969h17.65625c14.257813-.304688 26.378907 10.359375 27.894531 24.542969zm0 0" fill="#515d68"/><g fill="#66d4f1"><path d="m59.246094 341.722656-35.3125 35.308594c-1.675782 1.632812-3.925782 2.550781-6.265625 2.5625v-21.363281l29.042969-29.042969c3.460937-3.460938 9.074218-3.460938 12.535156 0 3.460937 3.460938 3.460937 9.074219 0 12.535156zm0 0"/><path d="m182.832031 377.03125-29.042969 29.042969h-21.363281c-.007812-2.34375.914063-4.597657 2.558594-6.265625l35.3125-35.3125c3.460937-3.460938 9.074219-3.460938 12.535156 0 3.460938 3.460937 3.460938 9.074218 0 12.535156zm0 0"/><path d="m94.554688 385.859375-20.214844 20.214844h-21.363282c-.003906-2.34375.914063-4.597657 2.5625-6.265625l26.480469-26.484375c3.460938-3.460938 9.074219-3.460938 12.535157 0 3.460937 3.460937 3.460937 9.074219 0 12.535156zm0 0"/><path d="m194.21875 291.316406v21.363282l-55.523438 55.523437c-3.484374 3.414063-9.054687 3.414063-12.535156 0-3.445312-3.46875-3.445312-9.0625 0-12.535156l67.441406-67.441407c.425782.972657.632813 2.027344.617188 3.089844zm0 0"/><path d="m341.726562 341.722656-35.308593 35.308594c-1.679688 1.632812-3.925781 2.550781-6.269531 2.5625v-21.363281l29.042968-29.042969c3.460938-3.460938 9.074219-3.460938 12.535156 0 3.460938 3.460938 3.460938 9.074219 0 12.535156zm0 0"/><path d="m465.3125 377.03125-29.042969 29.042969h-21.359375c-.007812-2.34375.910156-4.597657 2.558594-6.265625l35.308594-35.3125c3.464844-3.460938 9.074218-3.460938 12.535156 0 3.464844 3.460937 3.464844 9.074218 0 12.535156zm0 0"/><path d="m377.039062 385.859375-20.214843 20.214844h-21.363281c-.007813-2.34375.914062-4.597657 2.558593-6.265625l26.484375-26.484375c3.460938-3.460938 9.074219-3.460938 12.535156 0 3.460938 3.460937 3.460938 9.074219 0 12.535156zm0 0"/><path d="m476.703125 291.316406v21.363282l-55.527344 55.523437c-3.480469 3.414063-9.054687 3.414063-12.535156 0-3.441406-3.46875-3.441406-9.0625 0-12.535156l67.441406-67.441407c.425781.972657.636719 2.027344.621094 3.089844zm0 0"/></g><path d="m242.945312 142.394531c0 4.875-3.949218 8.828125-8.824218 8.828125s-8.828125-3.953125-8.828125-8.828125c.003906-7.050781-2.789063-13.8125-7.769531-18.800781h21.1875c2.824218 5.863281 4.273437 12.292969 4.234374 18.800781zm0 0" fill="#e3b692"/><path d="m211.875 326.625h88.273438v17.65625h-88.273438zm0 0" fill="#457393"/><path d="m211.875 205.070312v6.796876h-70.621094c-9.941406.207031-17.835937 8.421874-17.65625 18.363281v52.257812h-17.65625v-52.257812c-.183594-19.695313 15.621094-35.8125 35.3125-36.015625h69.207032c.957031 3.539062 1.433593 7.191406 1.414062 10.855468zm0 0" fill="#457393"/><path d="m423.734375 230.230469v52.257812h-17.652344v-52.257812c.179688-9.941407-7.714843-18.15625-17.65625-18.363281h-44.136719v-11.828126c0-1.953124.175782-3.902343.527344-5.824218h43.609375c19.691407.203125 35.496094 16.320312 35.308594 36.015625zm0 0" fill="#457393"/></svg>