<svg height="512pt" viewBox="0 0 512 512" width="512pt" xmlns="http://www.w3.org/2000/svg"><path d="m8.828125 52.964844-8.828125 17.65625v282.480468c.0273438 9.742188 7.917969 17.628907 17.65625 17.65625h335.445312c18.539063 0 26.484376-7.945312 26.484376-17.65625v-282.480468l-8.828126-17.65625zm0 0" fill="#a9b0bb"/><path d="m379.585938 70.621094v282.480468c-.027344 9.742188-7.917969 17.628907-17.65625 17.65625h-203.03125v-300.136718zm0 0" fill="#636c77"/><path d="m379.585938 17.65625v52.964844h-379.585938v-52.964844c.0273438-9.738281 7.917969-17.6289062 17.65625-17.65625h344.273438c9.738281.0273438 17.628906 7.917969 17.65625 17.65625zm0 0" fill="#cad0d7"/><path d="m512 185.378906v317.792969c0 4.875-3.953125 8.828125-8.828125 8.828125h-282.480469c-4.878906 0-8.828125-3.953125-8.828125-8.828125v-370.757813c0-4.875 3.949219-8.828124 8.828125-8.828124h229.515625zm0 0" fill="#e4e8eb"/><path d="m450.207031 176.550781v-52.964843l61.792969 61.792968h-52.964844c-4.875 0-8.828125-3.953125-8.828125-8.828125zm0 0" fill="#cad0d7"/><path d="m512 185.378906v317.792969c0 4.875-3.953125 8.828125-8.828125 8.828125h-17.65625c4.878906 0 8.828125-3.953125 8.828125-8.828125v-317.792969l-61.792969-61.792968h17.65625zm0 0" fill="#cad0d7"/><path d="m512 185.378906h-17.65625l-44.136719-44.136718v-17.65625zm0 0" fill="#b9c0c6"/><path d="m361.929688 70.621094h17.65625v52.964844h-17.65625zm0 0" fill="#4f5860"/><path d="m379.585938 17.65625v52.964844h-17.65625v-52.964844c-.027344-9.738281-7.914063-17.6289062-17.652344-17.65625h17.652344c9.738281.0273438 17.628906 7.917969 17.65625 17.65625zm0 0" fill="#b9c0c6"/><path d="m44.136719 44.136719h-8.828125c-4.875 0-8.824219-3.949219-8.824219-8.828125 0-4.875 3.949219-8.824219 8.824219-8.824219h8.828125c4.875 0 8.828125 3.949219 8.828125 8.824219 0 4.878906-3.953125 8.828125-8.828125 8.828125zm0 0" fill="#d94452"/><path d="m88.277344 44.136719h-8.828125c-4.875 0-8.828125-3.949219-8.828125-8.828125 0-4.875 3.953125-8.824219 8.828125-8.824219h8.828125c4.875 0 8.824218 3.949219 8.824218 8.824219 0 4.878906-3.949218 8.828125-8.824218 8.828125zm0 0" fill="#f5b945"/><path d="m132.414062 44.136719h-8.828124c-4.875 0-8.828126-3.949219-8.828126-8.828125 0-4.875 3.953126-8.824219 8.828126-8.824219h8.828124c4.875 0 8.828126 3.949219 8.828126 8.824219 0 4.878906-3.953126 8.828125-8.828126 8.828125zm0 0" fill="#89c053"/><path d="m44.136719 123.585938h-8.828125c-4.875 0-8.824219-3.953126-8.824219-8.828126s3.949219-8.828124 8.824219-8.828124h8.828125c4.875 0 8.828125 3.953124 8.828125 8.828124s-3.953125 8.828126-8.828125 8.828126zm0 0" fill="#b4df80"/><path d="m123.585938 123.585938h-44.136719c-4.875 0-8.828125-3.953126-8.828125-8.828126s3.953125-8.828124 8.828125-8.828124h44.136719c4.875 0 8.828124 3.953124 8.828124 8.828124s-3.953124 8.828126-8.828124 8.828126zm0 0" fill="#eb5463"/><path d="m44.136719 158.898438h-8.828125c-4.875 0-8.824219-3.953126-8.824219-8.828126s3.949219-8.828124 8.824219-8.828124h8.828125c4.875 0 8.828125 3.953124 8.828125 8.828124s-3.953125 8.828126-8.828125 8.828126zm0 0" fill="#b4df80"/><path d="m123.585938 158.898438h-44.136719c-4.875 0-8.828125-3.953126-8.828125-8.828126s3.953125-8.828124 8.828125-8.828124h44.136719c4.875 0 8.828124 3.953124 8.828124 8.828124s-3.953124 8.828126-8.828124 8.828126zm0 0" fill="#eb5463"/><path d="m44.136719 194.207031h-8.828125c-4.875 0-8.824219-3.953125-8.824219-8.828125s3.949219-8.828125 8.824219-8.828125h8.828125c4.875 0 8.828125 3.953125 8.828125 8.828125s-3.953125 8.828125-8.828125 8.828125zm0 0" fill="#b4df80"/><path d="m123.585938 194.207031h-44.136719c-4.875 0-8.828125-3.953125-8.828125-8.828125s3.953125-8.828125 8.828125-8.828125h44.136719c4.875 0 8.828124 3.953125 8.828124 8.828125s-3.953124 8.828125-8.828124 8.828125zm0 0" fill="#eb5463"/><path d="m44.136719 229.515625h-8.828125c-4.875 0-8.824219-3.949219-8.824219-8.824219 0-4.878906 3.949219-8.828125 8.824219-8.828125h8.828125c4.875 0 8.828125 3.949219 8.828125 8.828125 0 4.875-3.953125 8.824219-8.828125 8.824219zm0 0" fill="#b4df80"/><path d="m123.585938 229.515625h-44.136719c-4.875 0-8.828125-3.949219-8.828125-8.824219 0-4.878906 3.953125-8.828125 8.828125-8.828125h44.136719c4.875 0 8.828124 3.949219 8.828124 8.828125 0 4.875-3.953124 8.824219-8.828124 8.824219zm0 0" fill="#eb5463"/><path d="m44.136719 264.828125h-8.828125c-4.875 0-8.824219-3.953125-8.824219-8.828125s3.949219-8.828125 8.824219-8.828125h8.828125c4.875 0 8.828125 3.953125 8.828125 8.828125s-3.953125 8.828125-8.828125 8.828125zm0 0" fill="#b4df80"/><path d="m123.585938 264.828125h-44.136719c-4.875 0-8.828125-3.953125-8.828125-8.828125s3.953125-8.828125 8.828125-8.828125h44.136719c4.875 0 8.828124 3.953125 8.828124 8.828125s-3.953124 8.828125-8.828124 8.828125zm0 0" fill="#eb5463"/><path d="m44.136719 300.136719h-8.828125c-4.875 0-8.824219-3.949219-8.824219-8.828125 0-4.875 3.949219-8.824219 8.824219-8.824219h8.828125c4.875 0 8.828125 3.949219 8.828125 8.824219 0 4.878906-3.953125 8.828125-8.828125 8.828125zm0 0" fill="#b4df80"/><path d="m123.585938 300.136719h-44.136719c-4.875 0-8.828125-3.949219-8.828125-8.828125 0-4.875 3.953125-8.824219 8.828125-8.824219h44.136719c4.875 0 8.828124 3.949219 8.828124 8.824219 0 4.878906-3.953124 8.828125-8.828124 8.828125zm0 0" fill="#eb5463"/><path d="m44.136719 335.449219h-8.828125c-4.875 0-8.824219-3.953125-8.824219-8.828125s3.949219-8.828125 8.824219-8.828125h8.828125c4.875 0 8.828125 3.953125 8.828125 8.828125s-3.953125 8.828125-8.828125 8.828125zm0 0" fill="#b4df80"/><path d="m123.585938 335.449219h-44.136719c-4.875 0-8.828125-3.953125-8.828125-8.828125s3.953125-8.828125 8.828125-8.828125h44.136719c4.875 0 8.828124 3.953125 8.828124 8.828125s-3.953124 8.828125-8.828124 8.828125zm0 0" fill="#eb5463"/><path d="m317.792969 326.621094h-61.792969c-9.75 0-17.65625-7.90625-17.65625-17.65625v-70.621094c0-9.75 7.90625-17.652344 17.65625-17.652344h52.964844c4.875 0 8.828125 3.949219 8.828125 8.824219 0 4.878906-3.953125 8.828125-8.828125 8.828125h-52.964844v70.621094h61.792969c4.875 0 8.828125 3.953125 8.828125 8.828125s-3.953125 8.828125-8.828125 8.828125zm0 0" fill="#5e8faa"/><path d="m300.136719 291.308594c-2.339844 0-4.585938-.929688-6.238281-2.585938l-17.65625-17.652344c-3.347657-3.464843-3.296876-8.972656.105468-12.375 3.40625-3.40625 8.914063-3.453124 12.375-.109374l11.414063 11.414062 37.898437-37.894531c3.464844-3.347657 8.96875-3.300781 12.375.105469s3.453125 8.910156.105469 12.375l-44.136719 44.136718c-1.65625 1.65625-3.898437 2.585938-6.242187 2.585938zm0 0" fill="#9ed26a"/><g fill="#5e8faa"><path d="m467.863281 247.171875h-79.449219c-4.875 0-8.828124-3.953125-8.828124-8.828125s3.953124-8.828125 8.828124-8.828125h79.449219c4.875 0 8.828125 3.953125 8.828125 8.828125s-3.953125 8.828125-8.828125 8.828125zm0 0"/><path d="m467.863281 282.484375h-8.828125c-4.875 0-8.828125-3.953125-8.828125-8.828125s3.953125-8.828125 8.828125-8.828125h8.828125c4.875 0 8.828125 3.953125 8.828125 8.828125s-3.953125 8.828125-8.828125 8.828125zm0 0"/><path d="m423.722656 282.484375h-35.308594c-4.875 0-8.828124-3.953125-8.828124-8.828125s3.953124-8.828125 8.828124-8.828125h35.308594c4.875 0 8.828125 3.953125 8.828125 8.828125s-3.953125 8.828125-8.828125 8.828125zm0 0"/><path d="m467.863281 317.792969h-79.449219c-4.875 0-8.828124-3.953125-8.828124-8.828125s3.953124-8.828125 8.828124-8.828125h79.449219c4.875 0 8.828125 3.953125 8.828125 8.828125s-3.953125 8.828125-8.828125 8.828125zm0 0"/><path d="m317.792969 459.035156h-61.792969c-9.75 0-17.65625-7.90625-17.65625-17.65625v-70.621094c0-9.75 7.90625-17.65625 17.65625-17.65625h52.964844c4.875 0 8.828125 3.953126 8.828125 8.828126s-3.953125 8.828124-8.828125 8.828124h-52.964844v70.621094h61.792969c4.875 0 8.828125 3.953125 8.828125 8.828125s-3.953125 8.828125-8.828125 8.828125zm0 0"/></g><path d="m300.136719 423.722656c-2.339844 0-4.585938-.929687-6.238281-2.585937l-17.65625-17.652344c-3.347657-3.464844-3.296876-8.972656.105468-12.375 3.40625-3.40625 8.914063-3.453125 12.375-.109375l11.414063 11.414062 37.898437-37.898437c3.464844-3.34375 8.96875-3.296875 12.375.109375s3.453125 8.910156.105469 12.375l-44.136719 44.136719c-1.65625 1.65625-3.898437 2.585937-6.242187 2.585937zm0 0" fill="#9ed26a"/><path d="m467.863281 379.585938h-79.449219c-4.875 0-8.828124-3.953126-8.828124-8.828126s3.953124-8.828124 8.828124-8.828124h79.449219c4.875 0 8.828125 3.953124 8.828125 8.828124s-3.953125 8.828126-8.828125 8.828126zm0 0" fill="#5e8faa"/><path d="m423.722656 414.898438h-35.308594c-4.875 0-8.828124-3.953126-8.828124-8.828126s3.953124-8.828124 8.828124-8.828124h35.308594c4.875 0 8.828125 3.953124 8.828125 8.828124s-3.953125 8.828126-8.828125 8.828126zm0 0" fill="#5e8faa"/><path d="m467.863281 450.207031h-79.449219c-4.875 0-8.828124-3.953125-8.828124-8.828125s3.953124-8.828125 8.828124-8.828125h79.449219c4.875 0 8.828125 3.953125 8.828125 8.828125s-3.953125 8.828125-8.828125 8.828125zm0 0" fill="#5e8faa"/></svg>