<svg height="512pt" viewBox="0 0 512 512" width="512pt" xmlns="http://www.w3.org/2000/svg"><path d="m35.308594 114.738281h-17.652344c-9.75 0-17.65625 7.902344-17.65625 17.65625v335.445313c0 9.753906 7.90625 17.65625 17.65625 17.65625h192.539062c6.289063 0 12.09375 3.367187 15.21875 8.828125 6.304688 10.933593 17.964844 17.667969 30.585938 17.667969s24.28125-6.734376 30.585938-17.667969c3.125-5.460938 8.929687-8.828125 15.21875-8.828125h192.539062c9.75 0 17.65625-7.902344 17.65625-17.65625v-335.445313c0-9.753906-7.90625-17.65625-17.65625-17.65625zm0 0" fill="#eb5463"/><path d="m256 79.425781v397.242188c-.054688-14.601563-11.878906-26.429688-26.484375-26.480469h-176.550781c-9.738282-.03125-17.625-7.917969-17.65625-17.65625v-335.449219c.03125-9.738281 7.917968-17.625 17.65625-17.65625zm0 0" fill="#e4e8eb"/><path d="m476.691406 97.082031v335.449219c-.03125 9.738281-7.917968 17.625-17.65625 17.65625h-176.550781c-14.605469.050781-26.429687 11.878906-26.484375 26.480469v-397.242188h203.035156c9.738282.03125 17.625 7.917969 17.65625 17.65625zm0 0" fill="#e4e8eb"/><path d="m291.308594 220.667969v26.484375c0 2.386718-.324219 4.761718-.96875 7.0625-2.804688 10.003906-11.1875 17.457031-21.453125 19.066406-1.335938.253906-2.695313.371094-4.058594.351562h-17.65625c-14.601563-.050781-26.429687-11.878906-26.480469-26.480468v-26.484375zm0 0" fill="#bac1c6"/><path d="m308.964844 176.53125c-.070313 9.71875-7.933594 17.582031-17.65625 17.65625h-70.617188c-9.742187-.03125-17.628906-7.917969-17.65625-17.65625-.007812-4.058594 1.394532-7.988281 3.972656-11.125.386719-.460938.800782-.902344 1.234376-1.324219 3.269531-3.351562 7.761718-5.230469 12.449218-5.207031h70.617188c9.742187.03125 17.628906 7.917969 17.65625 17.65625zm0 0" fill="#bac1c6"/><path d="m308.964844 211.839844c-.070313 9.722656-7.933594 17.585937-17.65625 17.65625h-70.617188c-9.742187-.027344-17.628906-7.917969-17.65625-17.65625.070313-9.71875 7.933594-17.582032 17.65625-17.652344h70.617188c9.742187.027344 17.628906 7.914062 17.65625 17.652344zm0 0" fill="#cad0d7"/><path d="m303.402344 101.40625c-7.570313 8.605469-11.855469 19.613281-12.09375 31.074219v26.394531h-70.617188v-24.714844c-.296875-12.320312-4.816406-24.164062-12.800781-33.546875-15.773437-19.535156-18.160156-46.675781-6.03125-68.660156 12.125-21.988281 36.351563-34.453125 61.289063-31.53125 28.765624 3.484375 51.3125 26.359375 54.378906 55.171875 1.675781 16.550781-3.417969 33.078125-14.125 45.8125zm0 0" fill="#f5b945"/><path d="m264.828125 273.632812v183.351563c-5.660156 4.96875-8.882813 12.152344-8.828125 19.683594.054688-7.53125-3.167969-14.714844-8.828125-19.683594v-183.351563zm0 0" fill="#a9b0bb"/><path d="m303.402344 101.40625c-7.570313 8.605469-11.855469 19.613281-12.09375 31.074219v26.394531h-17.652344v-26.394531c.234375-11.460938 4.519531-22.46875 12.09375-31.074219 14.390625-17.152344 18.359375-40.757812 10.367188-61.675781-7.992188-20.914063-26.691407-35.859375-48.855469-39.046875 5.261719-.796875 10.605469-.882813 15.886719-.261719 28.765624 3.484375 51.3125 26.359375 54.378906 55.171875 1.675781 16.550781-3.417969 33.078125-14.125 45.8125zm0 0" fill="#e8aa3d"/><path d="m291.308594 229.496094v17.65625c0 14.625-11.855469 26.480468-26.480469 26.480468h-17.65625c14.625 0 26.484375-11.855468 26.484375-26.480468v-17.65625zm0 0" fill="#a6aeb2"/><path d="m308.964844 176.53125c-.070313 9.71875-7.933594 17.582031-17.65625 17.65625h-17.652344c9.71875-.074219 17.582031-7.9375 17.652344-17.65625-.027344-9.738281-7.914063-17.625-17.652344-17.65625h17.652344c9.742187.03125 17.628906 7.917969 17.65625 17.65625zm0 0" fill="#a6aeb2"/><path d="m308.964844 211.839844c-.070313 9.722656-7.933594 17.585937-17.65625 17.65625h-17.652344c9.71875-.070313 17.582031-7.933594 17.652344-17.65625-.027344-9.738282-7.914063-17.625-17.652344-17.652344h17.652344c9.742187.027344 17.628906 7.914062 17.65625 17.652344zm0 0" fill="#bac1c6"/><path d="m512 132.394531v335.445313c-.027344 9.738281-7.917969 17.628906-17.65625 17.65625h-17.652344c9.738282-.027344 17.625-7.917969 17.652344-17.65625v-335.445313c-.027344-9.738281-7.914062-17.628906-17.652344-17.65625h17.652344c9.738281.027344 17.628906 7.917969 17.65625 17.65625zm0 0" fill="#d94452"/><path d="m301.816406 485.496094c-6.300781.007812-12.121094 3.371094-15.273437 8.828125-6.273438 10.941406-17.929688 17.679687-30.542969 17.65625-2.980469.027343-5.953125-.359375-8.828125-1.148438 9.183594-2.320312 17.023437-8.28125 21.714844-16.507812 3.152343-5.457031 8.972656-8.820313 15.273437-8.828125zm0 0" fill="#d94452"/><path d="m476.691406 97.082031v335.449219c-.03125 9.738281-7.917968 17.625-17.65625 17.65625h-17.65625c9.738282-.03125 17.625-7.917969 17.65625-17.65625v-335.449219c-.03125-9.738281-7.917968-17.625-17.65625-17.65625h17.65625c9.738282.03125 17.625 7.917969 17.65625 17.65625zm0 0" fill="#cad0d7"/><path d="m97.101562 194.1875c-2.339843-.003906-4.585937-.933594-6.238281-2.589844l-26.484375-26.480468c-3.445312-3.449219-3.445312-9.035157 0-12.484376l26.484375-26.480468c3.460938-3.347656 8.96875-3.296875 12.375.105468 3.402344 3.40625 3.453125 8.914063.105469 12.375l-20.242188 20.242188 20.242188 20.242188c2.523438 2.523437 3.28125 6.320312 1.914062 9.621093-1.367187 3.296875-4.585937 5.445313-8.15625 5.449219zm0 0" fill="#9ed26a"/><path d="m132.414062 194.1875c-3.058593-.003906-5.898437-1.585938-7.503906-4.1875-1.609375-2.601562-1.753906-5.851562-.386718-8.585938l26.480468-52.96875c1.410156-2.820312 4.21875-4.675781 7.367188-4.867187 3.152344-.191406 6.164062 1.3125 7.902344 3.945313 1.738281 2.632812 1.941406 5.992187.53125 8.816406l-26.480469 52.964844c-1.496094 2.996093-4.5625 4.886718-7.910157 4.882812zm0 0" fill="#9ed26a"/><path d="m317.792969 406.046875c-2.339844 0-4.585938-.929687-6.242188-2.585937l-26.480469-26.480469c-3.445312-3.449219-3.445312-9.035157 0-12.484375l26.480469-26.480469c3.464844-3.347656 8.972657-3.300781 12.375.105469 3.40625 3.40625 3.453125 8.910156.109375 12.375l-20.242187 20.242187 20.242187 20.242188c2.523438 2.523437 3.277344 6.320312 1.910156 9.617187-1.363281 3.300782-4.582031 5.449219-8.152343 5.449219zm0 0" fill="#9ed26a"/><path d="m414.898438 406.046875c-3.570313 0-6.789063-2.148437-8.15625-5.449219-1.367188-3.296875-.609376-7.09375 1.914062-9.617187l20.242188-20.242188-20.242188-20.242187c-3.347656-3.464844-3.296875-8.96875.105469-12.375 3.40625-3.40625 8.914062-3.453125 12.375-.105469l26.484375 26.480469c3.445312 3.449218 3.445312 9.035156 0 12.484375l-26.484375 26.480469c-1.652344 1.65625-3.898438 2.585937-6.238281 2.585937zm0 0" fill="#9ed26a"/><path d="m353.101562 406.046875c-3.054687 0-5.894531-1.585937-7.503906-4.1875-1.605468-2.601563-1.753906-5.847656-.386718-8.585937l26.484374-52.964844c2.179688-4.363282 7.480469-6.132813 11.84375-3.953125 4.367188 2.179687 6.136719 7.480469 3.957032 11.84375l-26.484375 52.96875c-1.496094 2.996093-4.558594 4.886719-7.910157 4.878906zm0 0" fill="#9ed26a"/><g fill="#636c77"><path d="m167.722656 238.324219h-97.101562c-4.875 0-8.828125-3.953125-8.828125-8.828125s3.953125-8.828125 8.828125-8.828125h97.101562c4.875 0 8.828125 3.953125 8.828125 8.828125s-3.953125 8.828125-8.828125 8.828125zm0 0"/><path d="m176.550781 273.632812h-105.929687c-4.875 0-8.828125-3.949218-8.828125-8.824218 0-4.878906 3.953125-8.828125 8.828125-8.828125h105.929687c4.875 0 8.828125 3.949219 8.828125 8.828125 0 4.875-3.953125 8.824218-8.828125 8.824218zm0 0"/><path d="m176.550781 414.875h-105.929687c-4.875 0-8.828125-3.953125-8.828125-8.828125s3.953125-8.828125 8.828125-8.828125h105.929687c4.875 0 8.828125 3.953125 8.828125 8.828125s-3.953125 8.828125-8.828125 8.828125zm0 0"/><path d="m141.242188 308.945312h-70.621094c-4.875 0-8.828125-3.953124-8.828125-8.828124s3.953125-8.828126 8.828125-8.828126h70.621094c4.875 0 8.828124 3.953126 8.828124 8.828126s-3.953124 8.828124-8.828124 8.828124zm0 0"/><path d="m203.035156 308.945312h-26.484375c-4.875 0-8.828125-3.953124-8.828125-8.828124s3.953125-8.828126 8.828125-8.828126h26.484375c4.875 0 8.828125 3.953126 8.828125 8.828126s-3.953125 8.828124-8.828125 8.828124zm0 0"/><path d="m158.898438 344.253906h-88.277344c-4.875 0-8.828125-3.949218-8.828125-8.828125 0-4.875 3.953125-8.824219 8.828125-8.824219h88.277344c4.875 0 8.824218 3.949219 8.824218 8.824219 0 4.878907-3.949218 8.828125-8.824218 8.828125zm0 0"/><path d="m203.035156 344.253906h-8.828125c-4.875 0-8.828125-3.949218-8.828125-8.828125 0-4.875 3.953125-8.824219 8.828125-8.824219h8.828125c4.875 0 8.828125 3.949219 8.828125 8.824219 0 4.878907-3.953125 8.828125-8.828125 8.828125zm0 0"/><path d="m203.035156 379.566406h-88.277344c-4.875 0-8.828124-3.953125-8.828124-8.828125s3.953124-8.828125 8.828124-8.828125h88.277344c4.875 0 8.828125 3.953125 8.828125 8.828125s-3.953125 8.828125-8.828125 8.828125zm0 0"/><path d="m79.449219 379.566406h-8.828125c-4.875 0-8.828125-3.953125-8.828125-8.828125s3.953125-8.828125 8.828125-8.828125h8.828125c4.875 0 8.828125 3.953125 8.828125 8.828125s-3.953125 8.828125-8.828125 8.828125zm0 0"/><path d="m423.722656 132.394531h-79.445312c-4.875 0-8.828125-3.953125-8.828125-8.828125s3.953125-8.828125 8.828125-8.828125h79.445312c4.875 0 8.828125 3.953125 8.828125 8.828125s-3.953125 8.828125-8.828125 8.828125zm0 0"/><path d="m423.722656 167.703125h-79.445312c-4.875 0-8.828125-3.953125-8.828125-8.828125s3.953125-8.828125 8.828125-8.828125h79.445312c4.875 0 8.828125 3.953125 8.828125 8.828125s-3.953125 8.828125-8.828125 8.828125zm0 0"/><path d="m423.722656 308.945312h-132.414062c-4.875 0-8.824219-3.953124-8.824219-8.828124s3.949219-8.828126 8.824219-8.828126h132.414062c4.875 0 8.828125 3.953126 8.828125 8.828126s-3.953125 8.828124-8.828125 8.828124zm0 0"/><path d="m423.722656 203.011719h-79.445312c-4.875 0-8.828125-3.949219-8.828125-8.824219s3.953125-8.828125 8.828125-8.828125h79.445312c4.875 0 8.828125 3.953125 8.828125 8.828125s-3.953125 8.824219-8.828125 8.824219zm0 0"/><path d="m423.722656 238.324219h-79.445312c-4.875 0-8.828125-3.953125-8.828125-8.828125s3.953125-8.828125 8.828125-8.828125h79.445312c4.875 0 8.828125 3.953125 8.828125 8.828125s-3.953125 8.828125-8.828125 8.828125zm0 0"/><path d="m379.585938 273.632812h-52.964844c-4.875 0-8.828125-3.949218-8.828125-8.824218 0-4.878906 3.953125-8.828125 8.828125-8.828125h52.964844c4.875 0 8.828124 3.949219 8.828124 8.828125 0 4.875-3.953124 8.824218-8.828124 8.824218zm0 0"/><path d="m423.722656 273.632812h-8.824218c-4.878907 0-8.828126-3.949218-8.828126-8.824218 0-4.878906 3.949219-8.828125 8.828126-8.828125h8.824218c4.875 0 8.828125 3.949219 8.828125 8.828125 0 4.875-3.953125 8.824218-8.828125 8.824218zm0 0"/></g><path d="m276.367188 87.546875c-3.433594.003906-6.554688-1.984375-8.003907-5.09375-1.449219-3.113281-.964843-6.78125 1.238281-9.40625 3.058594-3.699219 4.484376-8.476563 3.957032-13.242187-1.042969-8.027344-7.296875-14.382813-15.308594-15.554688-.746094-.089844-1.496094-.136719-2.25-.132812-4.875 0-8.828125-3.953126-8.828125-8.828126s3.953125-8.828124 8.828125-8.828124c1.425781 0 2.847656.082031 4.265625.25 12.847656 1.550781 23.820313 10.007812 28.589844 22.039062 4.773437 12.035156 2.578125 25.710938-5.71875 35.648438-1.679688 2-4.160157 3.152343-6.769531 3.148437zm0 0" fill="#ffd67b"/></svg>