<svg height="512pt" viewBox="0 0 512 512.00586" width="512pt" xmlns="http://www.w3.org/2000/svg"><path d="m419.488281 253.792969c2.851563-13.792969 4.273438-27.84375 4.238281-41.929688 0-117.007812-94.851562-211.863281-211.863281-211.863281-117.007812 0-211.85937475 94.855469-211.85937475 211.863281 0 117.007813 94.85156275 211.859375 211.85937475 211.859375 14.085938.035156 28.140625-1.382812 41.933594-4.234375zm0 0" fill="#e4e8eb"/><path d="m175.433594 52.019531 9.269531 52.453125c.808594 4.316406-1.730469 8.558594-5.914063 9.890625-30.851562 9.4375-55 33.585938-64.441406 64.441407-1.332031 4.183593-5.570312 6.71875-9.886718 5.914062l-52.453126-9.269531c-2.394531-.402344-4.515624-1.78125-5.855468-3.808594-1.335938-2.023437-1.773438-4.511719-1.207032-6.875 15.34375-58.65625 61.148438-104.46875 119.808594-119.816406 2.359375-.566407 4.851563-.125 6.875 1.214843 2.027344 1.339844 3.402344 3.460938 3.804688 5.855469zm0 0" fill="#f4f6f8"/><path d="m191.648438 270.210938c-27.316407-9.421876-44.457032-36.519532-41.261719-65.242188 3.191406-28.722656 25.863281-51.394531 54.585937-54.585938 28.71875-3.195312 55.820313 13.945313 65.242188 41.265626zm0 0" fill="#cad0d7"/><path d="m207.894531 237.992188c-13.46875-2.011719-23.214843-13.902344-22.542969-27.5.671876-13.597657 11.546876-24.472657 25.144532-25.144532s25.488281 9.078125 27.5 22.542969" fill="#a9b0bb"/><path d="m432.554688 308.964844c0 68.253906-55.332032 123.585937-123.585938 123.585937s-123.585938-55.332031-123.585938-123.585937 55.332032-123.585938 123.585938-123.585938 123.585938 55.332032 123.585938 123.585938zm0 0" fill="#4fc0e8"/><path d="m413.046875 375.613281 91.1875 91.191407c10.328125 10.335937 10.328125 27.085937 0 37.425781-4.957031 4.972656-11.691406 7.769531-18.714844 7.769531-7.023437 0-13.753906-2.796875-18.714843-7.769531l-91.1875-91.1875zm0 0" fill="#a38671"/><path d="m406.515625 443.9375 37.425781-37.425781 24.980469 24.980469-37.425781 37.425781zm0 0" fill="#cad0d7"/><path d="m504.234375 504.230469c-7.867187 7.882812-19.828125 10-29.925781 5.296875 2.753906-1.335938 5.261718-3.125 7.414062-5.296875 10.328125-10.339844 10.328125-27.089844 0-37.425781l-79.886718-79.890626 11.210937-11.300781 91.1875 91.191407c10.328125 10.335937 10.328125 27.085937 0 37.425781zm0 0" fill="#937661"/><path d="m468.925781 431.492188-11.210937 11.300781-24.984375-24.984375 11.210937-11.296875zm0 0" fill="#a9b0bb"/><path d="m423.726562 211.863281c.023438 9.332031-.625 18.65625-1.941406 27.894531-8.804687-14.296874-20.210937-26.8125-33.632812-36.898437-4.496094-106.605469-87.613282-193.203125-193.941406-202.066406 5.824218-.527344 11.738281-.792969 17.652343-.792969 116.996094.0273438 211.835938 94.867188 211.863281 211.863281zm0 0" fill="#cad0d7"/><g fill="#66d4f1"><path d="m193.769531 362.371094c-3.570312 0-6.789062-2.148438-8.15625-5.449219-1.363281-3.296875-.609375-7.09375 1.914063-9.617187l79.890625-79.890626c3.460937-3.34375 8.96875-3.296874 12.375.109376 3.402343 3.402343 3.453125 8.910156.105469 12.371093l-79.890626 79.890625c-1.652343 1.65625-3.898437 2.585938-6.238281 2.585938zm0 0"/><path d="m300.140625 256c-3.570313 0-6.789063-2.152344-8.152344-5.449219-1.367187-3.296875-.613281-7.09375 1.910157-9.621093l26.484374-26.480469c3.464844-3.347657 8.96875-3.296875 12.375.105469 3.40625 3.40625 3.453126 8.914062.105469 12.375l-26.480469 26.484374c-1.65625 1.65625-3.902343 2.585938-6.242187 2.585938zm0 0"/><path d="m313.382812 401.65625c-3.570312 0-6.789062-2.152344-8.15625-5.449219-1.363281-3.300781-.609374-7.097656 1.914063-9.621093l83.863281-83.863282c3.464844-3.34375 8.96875-3.296875 12.375.109375 3.402344 3.40625 3.453125 8.910157.105469 12.375l-83.859375 83.863281c-1.65625 1.652344-3.902344 2.585938-6.242188 2.585938zm0 0"/><path d="m251.589844 384c-3.570313 0-6.789063-2.152344-8.15625-5.449219-1.363282-3.296875-.609375-7.09375 1.914062-9.621093l57.378906-57.378907c3.464844-3.34375 8.96875-3.296875 12.375.109375s3.453126 8.910156.109376 12.375l-57.378907 57.378906c-1.65625 1.65625-3.902343 2.585938-6.242187 2.585938zm0 0"/><path d="m335.453125 300.136719c-3.570313 0-6.789063-2.148438-8.15625-5.449219-1.367187-3.296875-.609375-7.09375 1.914063-9.617188l65.148437-65.148437c3.460937-3.34375 8.96875-3.296875 12.371094.105469 3.40625 3.40625 3.453125 8.914062.109375 12.375l-65.148438 65.148437c-1.652344 1.65625-3.898437 2.585938-6.238281 2.585938zm0 0"/></g><path d="m308.96875 441.378906c-73.128906 0-132.414062-59.285156-132.414062-132.414062s59.285156-132.414063 132.414062-132.414063 132.414062 59.285157 132.414062 132.414063c-.082031 73.097656-59.320312 132.332031-132.414062 132.414062zm0-247.171875c-63.378906 0-114.757812 51.378907-114.757812 114.757813s51.378906 114.757812 114.757812 114.757812 114.757812-51.378906 114.757812-114.757812c-.074218-63.347656-51.410156-114.683594-114.757812-114.757813zm0 0" fill="#f5b945"/></svg>