<svg height="512pt" viewBox="0 0 512 512" width="512pt" xmlns="http://www.w3.org/2000/svg"><path d="m512 370.722656v97.105469c0 24.371094-73.117188 44.136719-163.308594 44.136719s-163.3125-19.765625-163.3125-44.136719v-97.105469zm0 0" fill="#457393"/><path d="m512 370.722656c0-24.375-73.117188-44.136718-163.308594-44.136718-90.195312 0-163.3125 19.761718-163.3125 44.136718 0 24.378906 73.117188 44.136719 163.3125 44.136719 90.191406 0 163.308594-19.757813 163.308594-44.136719zm0 0" fill="#5e8faa"/><path d="m512 220.65625v97.101562c0 24.371094-73.117188 44.136719-163.308594 44.136719s-163.3125-19.765625-163.3125-44.136719v-97.101562zm0 0" fill="#457393"/><path d="m512 220.65625c0-24.378906-73.117188-44.140625-163.308594-44.140625-90.195312 0-163.3125 19.761719-163.3125 44.140625 0 24.375 73.117188 44.136719 163.3125 44.136719 90.191406 0 163.308594-19.761719 163.308594-44.136719zm0 0" fill="#5e8faa"/><path d="m379.585938 8.863281c-.03125-2.589843 1.082031-5.058593 3.046874-6.746093 1.960938-1.6875 4.570313-2.421876 7.121094-2.003907 24.847656 4.890625 42.773438 26.664063 42.796875 51.988281v72.386719c-.039062 2.125-.925781 4.148438-2.457031 5.621094-1.535156 1.472656-3.589844 2.277344-5.714844 2.234375-8.75-.066406-16.316406 6.078125-18.046875 14.652344-.890625 5.109375.507813 10.351562 3.828125 14.335937 3.316406 3.984375 8.21875 6.308594 13.40625 6.355469 2.304688-.097656 4.550782.734375 6.238282 2.304688 1.6875 1.570312 2.679687 3.75 2.746093 6.054687v35.78125c0 4.875-3.953125 8.828125-8.828125 8.828125h-70.621094c-4.875 0-8.824218-3.953125-8.824218-8.828125v-35.117187c-.109375-4.828126 3.679687-8.847657 8.507812-9.023438 5.410156.082031 10.558594-2.316406 13.980469-6.503906 3.417969-4.191406 4.738281-9.714844 3.578125-15-2.082031-8.265625-9.601562-13.992188-18.125-13.804688h-193.320312v-52.964844h185.378906c19.5 0 35.308594-15.808593 35.308594-35.3125zm0 0" fill="#cad0d7"/><path d="m8.828125 70.585938h158.894531c4.875 0 8.828125 3.953124 8.828125 8.828124v52.964844c0 4.875-3.953125 8.828125-8.828125 8.828125h-158.894531c-4.875 0-8.828125-3.953125-8.828125-8.828125v-52.964844c0-4.875 3.953125-8.828124 8.828125-8.828124zm0 0" fill="#a38671"/><path d="m291.308594 79.414062h44.140625v52.964844h-44.140625zm0 0" fill="#a9b0bb"/><path d="m406.332031 147.03125c-.878906 5.101562.523438 10.332031 3.835938 14.304688 3.3125 3.976562 8.203125 6.300781 13.378906 6.351562 2.3125-.097656 4.5625.734375 6.257813 2.3125 1.691406 1.574219 2.679687 3.761719 2.746093 6.074219v35.753906c0 4.875-3.953125 8.828125-8.828125 8.828125h-26.480468c4.875 0 8.828124-3.953125 8.828124-8.828125v-35.753906c-.066406-2.3125-1.058593-4.5-2.75-6.074219-1.691406-1.578125-3.945312-2.410156-6.253906-2.3125-5.175781-.050781-10.066406-2.375-13.378906-6.351562-3.316406-3.972657-4.714844-9.203126-3.835938-14.304688 1.738282-8.554688 9.277344-14.6875 18.007813-14.652344 2.132813.054688 4.199219-.746094 5.738281-2.21875 1.542969-1.476562 2.433594-3.503906 2.472656-5.636718v-72.386719c-.011718-18.769531-9.949218-36.128907-26.132812-45.640625 1.101562-4.355469 5.375-7.128906 9.800781-6.355469 24.855469 4.886719 42.789063 26.664063 42.8125 51.996094v72.386719c-.039062 2.132812-.925781 4.160156-2.46875 5.636718-1.542969 1.472656-3.605469 2.273438-5.738281 2.21875-8.730469-.035156-16.269531 6.097656-18.011719 14.652344zm0 0" fill="#a9b0bb"/><path d="m176.550781 79.414062v52.964844c0 4.875-3.953125 8.828125-8.828125 8.828125h-26.480468c4.875 0 8.828124-3.953125 8.828124-8.828125v-52.964844c0-4.875-3.953124-8.828124-8.828124-8.828124h26.480468c4.875 0 8.828125 3.953124 8.828125 8.828124zm0 0" fill="#937661"/><g fill="#b4df80"><path d="m238.34375 456.226562c-.75 0-1.496094-.089843-2.222656-.273437-3.179688-.777344-6.234375-1.589844-9.171875-2.445313-2.292969-.605468-4.238281-2.109374-5.402344-4.171874s-1.445313-4.507813-.777344-6.78125c1.480469-4.738282 6.5-7.402344 11.253907-5.976563 2.730468.777344 5.558593 1.527344 8.484374 2.257813 2.316407.515624 4.332032 1.941406 5.585938 3.957031s1.644531 4.453125 1.078125 6.761719c-1.078125 3.976562-4.707031 6.71875-8.828125 6.671874zm0 0"/><path d="m282.484375 464.046875c-.375.003906-.75-.019531-1.121094-.070313-3.054687-.371093-6.058593-.75-9.015625-1.15625-2.347656-.296874-4.480468-1.523437-5.925781-3.398437-1.441406-1.878906-2.078125-4.253906-1.761719-6.601563.796875-4.890624 5.378906-8.226562 10.273438-7.484374 2.835937.402343 5.730468.773437 8.660156 1.128906 2.371094.234375 4.546875 1.414062 6.035156 3.277344 1.484375 1.863281 2.15625 4.246093 1.859375 6.609374-.648437 4.460938-4.5 7.753907-9.003906 7.695313zm0 0"/><path d="m238.34375 306.160156c-.75 0-1.496094-.09375-2.222656-.277344-3.179688-.773437-6.234375-1.589843-9.171875-2.441406-2.292969-.605468-4.238281-2.113281-5.402344-4.175781s-1.445313-4.507813-.777344-6.78125c1.480469-4.738281 6.5-7.402344 11.253907-5.976563 2.730468.777344 5.558593 1.53125 8.484374 2.261719 2.316407.511719 4.332032 1.9375 5.585938 3.957031 1.253906 2.015626 1.644531 4.453126 1.078125 6.757813-1.078125 3.976563-4.707031 6.722656-8.828125 6.675781zm0 0"/><path d="m282.484375 313.980469c-.375 0-.75-.023438-1.121094-.070313-3.054687-.371094-6.058593-.75-9.015625-1.15625-2.347656-.300781-4.480468-1.523437-5.925781-3.402344-1.441406-1.878906-2.078125-4.253906-1.761719-6.601562.796875-4.886719 5.378906-8.226562 10.273438-7.484375 2.835937.40625 5.730468.777344 8.660156 1.128906 2.371094.234375 4.546875 1.417969 6.035156 3.277344 1.484375 1.863281 2.15625 4.246094 1.859375 6.609375-.648437 4.460938-4.5 7.753906-9.003906 7.699219zm0 0"/></g><path d="m44.136719 114.722656h-8.828125c-4.875 0-8.824219-3.953125-8.824219-8.828125s3.949219-8.828125 8.824219-8.828125h8.828125c4.875 0 8.828125 3.953125 8.828125 8.828125s-3.953125 8.828125-8.828125 8.828125zm0 0" fill="#937661"/><path d="m88.277344 114.722656h-8.828125c-4.875 0-8.828125-3.953125-8.828125-8.828125s3.953125-8.828125 8.828125-8.828125h8.828125c4.875 0 8.824218 3.953125 8.824218 8.828125s-3.949218 8.828125-8.824218 8.828125zm0 0" fill="#937661"/><path d="m132.414062 114.722656h-8.828124c-4.875 0-8.828126-3.953125-8.828126-8.828125s3.953126-8.828125 8.828126-8.828125h8.828124c4.875 0 8.828126 3.953125 8.828126 8.828125s-3.953126 8.828125-8.828126 8.828125zm0 0" fill="#937661"/></svg>