<svg height="512pt" viewBox="0 0 512.0222 512" width="512pt" xmlns="http://www.w3.org/2000/svg"><path d="m476.691406 441.355469v-361.929688c-.03125-9.738281-7.917968-17.625-17.65625-17.65625h-406.070312c-9.738282.03125-17.625 7.917969-17.65625 17.65625v361.929688zm0 0" fill="#636c77"/><path d="m389.5625 97.082031h42.988281c4.875 0 8.828125 3.953125 8.828125 8.828125v247.171875c0 4.875-3.953125 8.828125-8.828125 8.828125h-353.101562c-4.875 0-8.828125-3.953125-8.828125-8.828125v-247.171875c0-4.875 3.953125-8.828125 8.828125-8.828125zm0 0" fill="#4fc0e8"/><path d="m317.792969 229.496094c0 53.628906-43.472657 97.101562-97.101563 97.101562s-97.105468-43.472656-97.105468-97.101562 43.476562-97.105469 97.105468-97.105469 97.101563 43.476563 97.101563 97.105469zm0 0" fill="#e4e8eb"/><path d="m247.171875 229.496094c0 14.625-11.855469 26.480468-26.480469 26.480468-14.628906 0-26.484375-11.855468-26.484375-26.480468 0-14.628906 11.855469-26.484375 26.484375-26.484375 14.625 0 26.480469 11.855469 26.480469 26.484375zm0 0" fill="#cad0d7"/><path d="m485.515625 467.839844-27.363281 34.199218c-5.023438 6.28125-12.632813 9.9375-20.675782 9.9375h-362.953124c-8.042969 0-15.652344-3.65625-20.675782-9.9375l-27.363281-34.199218v-17.65625h459.03125zm0 0" fill="#636c77"/><path d="m512 414.875v35.308594c-.027344 9.738281-7.917969 17.628906-17.65625 17.65625h-476.6875c-9.738281-.027344-17.6289062-7.917969-17.65625-17.65625v-35.308594c.0273438-9.738281 7.917969-17.625 17.65625-17.65625h158.894531c4.875 0 8.828125 3.953125 8.828125 8.828125v8.828125c0 4.875 3.953125 8.828125 8.828125 8.828125h123.585938c4.875 0 8.828125-3.953125 8.828125-8.828125v-8.828125c0-4.875 3.953125-8.828125 8.828125-8.828125h158.894531c9.738281.03125 17.628906 7.917969 17.65625 17.65625zm0 0" fill="#a9b0bb"/><path d="m484.988281 186.0625c-2.519531 2.921875-3.707031 6.761719-3.265625 10.59375l3.972656 36.28125c.8125 6.328125-2.957031 12.351562-9.003906 14.390625-.371094.15625-.753906.273437-1.148437.351563l-16.507813 3.441406-17.742187 3.707031c-3.722657.816406-6.894531 3.242187-8.652344 6.621094l-17.125 31.867187c-3.121094 5.984375-10.40625 8.441406-16.507813 5.5625l-31.78125-15.183594c-3.332031-1.675781-7.261718-1.675781-10.59375 0l-31.777343 15.183594c-6.105469 2.878906-13.390625.421875-16.507813-5.5625l-17.125-31.867187c-1.761718-3.378907-4.929687-5.804688-8.652344-6.621094l-34.25-7.148437c-6.667968-1.578126-11.058593-7.949219-10.152343-14.742188l3.972656-36.28125c.4375-3.832031-.746094-7.671875-3.265625-10.59375l-23.660156-26.921875c-4.5-5.226563-4.5-12.960937 0-18.1875l23.660156-26.921875c2.519531-2.921875 3.703125-6.761719 3.265625-10.59375l-3.972656-36.28125c-.226563-1.8125-.046875-3.652344.53125-5.386719 1.1875-4.679687 4.90625-8.296875 9.621093-9.355469l34.25-7.152343c3.722657-.8125 6.890626-3.238281 8.652344-6.621094l17.125-31.867187c3.117188-5.980469 10.402344-8.4375 16.507813-5.558594l31.777343 15.183594c3.332032 1.675781 7.261719 1.675781 10.59375 0l31.78125-15.183594c6.101563-2.878906 13.386719-.421875 16.507813 5.558594l17.125 31.867187c1.757813 3.382813 4.929687 5.808594 8.652344 6.621094l34.25 7.152343c6.667969 1.578126 11.054687 7.949219 10.152343 14.742188l-3.972656 36.28125c-.441406 3.832031.746094 7.671875 3.265625 10.59375l23.65625 26.921875c4.503907 5.226563 4.503907 12.960937 0 18.1875zm0 0" fill="#eb5463"/><path d="m485.515625 467.839844-27.363281 34.164062c-4.992188 6.3125-12.605469 9.988282-20.65625 9.972656h-17.65625c8.050781.015626 15.664062-3.660156 20.65625-9.972656l27.367187-34.164062zm0 0" fill="#545d66"/><path d="m476.691406 247.328125v149.890625h-17.65625v-146.097656l16.507813-3.441406c.394531-.078126.777343-.195313 1.148437-.351563zm0 0" fill="#545d66"/><path d="m512 414.875v35.308594c-.027344 9.738281-7.917969 17.628906-17.65625 17.65625h-17.652344c9.75 0 17.652344-7.90625 17.652344-17.65625v-35.308594c-.027344-9.738281-7.914062-17.625-17.652344-17.65625h17.652344c9.738281.03125 17.628906 7.917969 17.65625 17.65625zm0 0" fill="#939aa5"/><path d="m194.207031 423.703125h-17.65625c-4.875 0-8.828125-3.953125-8.828125-8.828125v-8.828125c0-4.875-3.949218-8.828125-8.824218-8.828125h17.652343c4.875 0 8.828125 3.953125 8.828125 8.828125v8.828125c0 4.875 3.953125 8.828125 8.828125 8.828125zm0 0" fill="#939aa5"/><path d="m484.988281 186.0625c-2.519531 2.921875-3.707031 6.761719-3.265625 10.59375l3.972656 36.28125c.8125 6.328125-2.957031 12.351562-9.003906 14.390625-.371094.15625-.753906.273437-1.148437.351563l-16.507813 3.441406-17.742187 3.707031c-3.722657.816406-6.894531 3.242187-8.652344 6.621094l-17.125 31.867187c-3.121094 5.984375-10.40625 8.441406-16.507813 5.5625l-6.796874-3.265625c.628906-.691406 1.160156-1.464843 1.585937-2.296875l17.128906-31.867187c1.757813-3.378907 4.925781-5.804688 8.648438-6.621094l17.746093-3.707031 16.507813-3.441406c.390625-.078126.777344-.195313 1.144531-.351563 6.050782-2.039063 9.820313-8.0625 9.003906-14.390625l-3.972656-36.28125c-.4375-3.832031.746094-7.671875 3.269532-10.59375l23.65625-26.921875c4.503906-5.226563 4.503906-12.960937 0-18.1875l-23.65625-26.921875c-2.523438-2.921875-3.707032-6.761719-3.269532-10.59375l3.972656-36.28125c.90625-6.792969-3.480468-13.164062-10.148437-14.742188l-34.253906-7.152343c-3.722657-.8125-6.890625-3.238281-8.648438-6.621094l-17.128906-31.867187c-.425781-.832032-.957031-1.601563-1.585937-2.292969l6.796874-3.265625c6.101563-2.878906 13.386719-.421875 16.507813 5.558594l17.125 31.867187c1.757813 3.382813 4.929687 5.808594 8.652344 6.621094l34.25 7.152343c6.667969 1.578126 11.054687 7.949219 10.152343 14.742188l-3.972656 36.28125c-.441406 3.832031.746094 7.671875 3.265625 10.59375l23.65625 26.921875c4.503907 5.226563 4.503907 12.960937 0 18.1875zm0 0" fill="#d94452"/><path d="m44.136719 441.355469h-8.828125c-4.875 0-8.824219-3.949219-8.824219-8.824219 0-4.878906 3.949219-8.828125 8.824219-8.828125h8.828125c4.875 0 8.828125 3.949219 8.828125 8.828125 0 4.875-3.953125 8.824219-8.828125 8.824219zm0 0" fill="#ffd67b"/><path d="m88.277344 441.355469h-8.828125c-4.875 0-8.828125-3.949219-8.828125-8.824219 0-4.878906 3.953125-8.828125 8.828125-8.828125h8.828125c4.875 0 8.824218 3.949219 8.824218 8.828125 0 4.875-3.949218 8.824219-8.824218 8.824219zm0 0" fill="#ffd67b"/><g fill="#f4f6f8"><path d="m308.964844 114.734375c-4.875 0-8.828125 3.953125-8.828125 8.828125v23.835938l-19.136719-28.707032c-2.15625-3.234375-6.171875-4.675781-9.890625-3.554687-3.722656 1.121093-6.269531 4.542969-6.28125 8.425781v52.96875c0 4.875 3.953125 8.824219 8.828125 8.824219s8.828125-3.949219 8.828125-8.824219v-23.835938l19.136719 28.707032c2.15625 3.234375 6.171875 4.675781 9.890625 3.554687 3.722656-1.121093 6.269531-4.542969 6.28125-8.425781v-52.96875c0-4.875-3.953125-8.828125-8.828125-8.828125zm0 0"/><path d="m361.929688 132.390625c4.875 0 8.828124-3.953125 8.828124-8.828125s-3.953124-8.828125-8.828124-8.828125h-17.652344c-4.875 0-8.828125 3.953125-8.828125 8.828125v52.96875c0 4.875 3.953125 8.824219 8.828125 8.824219h17.652344c4.875 0 8.828124-3.949219 8.828124-8.824219 0-4.878906-3.953124-8.828125-8.828124-8.828125h-8.828126v-8.828125c4.878907 0 8.828126-3.953125 8.828126-8.828125s-3.949219-8.828125-8.828126-8.828125v-8.828125zm0 0"/><path d="m450.207031 114.734375c-4.875 0-8.828125 3.953125-8.828125 8.828125v31.65625l-11.414062-11.414062c-3.445313-3.445313-9.035156-3.445313-12.480469 0l-11.414063 11.414062v-31.65625c0-4.875-3.953124-8.828125-8.828124-8.828125s-8.828126 3.953125-8.828126 8.828125v52.96875c0 3.566406 2.152344 6.785156 5.449219 8.152344 3.296875 1.367187 7.09375.609375 9.621094-1.914063l20.238281-20.242187 20.242188 20.242187c1.65625 1.65625 3.902344 2.585938 6.242187 2.585938 1.160157.003906 2.308594-.222657 3.378907-.667969 3.300781-1.367188 5.449218-4.589844 5.449218-8.15625v-52.96875c0-4.875-3.953125-8.828125-8.828125-8.828125zm0 0"/></g><path d="m203.035156 297.546875c-.855468-.003906-1.707031-.128906-2.523437-.371094-33.546875-10.035156-54.695313-43.109375-49.726563-77.769531.449219-3.125 2.53125-5.769531 5.464844-6.941406 2.929688-1.171875 6.261719-.691406 8.742188 1.261718 2.480468 1.953126 3.730468 5.078126 3.277343 8.203126-.363281 2.503906-.542969 5.035156-.546875 7.566406.117188 23.386718 15.457032 43.96875 37.835938 50.765625 4.195312 1.257812 6.835937 5.398437 6.203125 9.734375-.632813 4.332031-4.347657 7.546875-8.726563 7.550781zm0 0" fill="#fff"/><path d="m177.488281 194.183594c-3.589843.003906-6.824219-2.167969-8.179687-5.492188-1.359375-3.320312-.566406-7.136718 2-9.644531 2.792968-2.734375 5.804687-5.230469 9.003906-7.46875 3.996094-2.738281 9.449219-1.746094 12.222656 2.222656 2.777344 3.96875 1.835938 9.433594-2.105468 12.246094-2.410157 1.683594-4.671876 3.566406-6.773438 5.621094-1.648438 1.613281-3.863281 2.515625-6.167969 2.515625zm0 0" fill="#fff"/></svg>