<svg height="512pt" viewBox="-27 0 512 512" width="512pt" xmlns="http://www.w3.org/2000/svg"><path d="m79.460938 282.484375-8.828126 17.652344v194.207031c.027344 9.738281 7.917969 17.628906 17.65625 17.65625h353.101563c9.738281-.027344 17.625-7.917969 17.65625-17.65625v-194.207031l-8.828125-17.652344zm0 0" fill="#a9b0bb"/><path d="m459.046875 300.136719v194.207031c-.03125 9.738281-7.917969 17.628906-17.65625 17.65625h-211.859375v-211.863281zm0 0" fill="#636c77"/><path d="m459.046875 247.171875v52.964844h-388.414063v-52.964844c.027344-9.738281 7.917969-17.625 17.65625-17.65625h353.101563c9.738281.03125 17.625 7.917969 17.65625 17.65625zm0 0" fill="#cad0d7"/><path d="m414.910156 406.070312c0 39-31.621094 70.621094-70.621094 70.621094-39.003906 0-70.621093-31.621094-70.621093-70.621094 0-39.003906 31.617187-70.621093 70.621093-70.621093 39 0 70.621094 31.617187 70.621094 70.621093zm0 0" fill="#eb5463"/><path d="m404.589844 70.621094c14.261718-.304688 26.378906 10.355468 27.894531 24.539062.539063 7.339844-2 14.574219-7.007813 19.964844-5.007812 5.394531-12.035156 8.457031-19.394531 8.460938h-271.96875c-3.40625.066406-6.480469 2.050781-7.945312 5.121093-12.535157 23.957031-37.324219 38.984375-64.363281 39.015625-25.84375-.015625-49.5-14.503906-61.261719-37.515625-.75-1.378906-.722657-3.050781.074219-4.40625.792968-1.355469 2.238281-2.195312 3.808593-2.214843h57.378907c4.875 0 8.828124-3.953126 8.828124-8.828126v-35.308593c0-4.875-3.953124-8.828125-8.828124-8.828125h-57.378907c-1.570312-.019532-3.015625-.859375-3.808593-2.214844-.796876-1.355469-.824219-3.027344-.074219-4.40625 12.414062-23.339844 36.804687-37.804688 63.238281-37.507812 26.429688.296874 50.492188 15.308593 62.378906 38.921874 1.425782 3.117188 4.515625 5.140626 7.941406 5.207032zm0 0" fill="#636c77"/><g fill="#e3b692"><path d="m370.769531 35.308594v30.898437c-.011719 1.480469-.15625 2.960938-.441406 4.414063-2.085937 10.285156-11.132813 17.675781-21.625 17.675781-10.496094 0-19.539063-7.390625-21.628906-17.675781-.28125-1.453125-.429688-2.933594-.441407-4.414063v-30.898437c.027344-9.738282 7.917969-17.625 17.65625-17.652344h8.828126c9.75 0 17.652343 7.902344 17.652343 17.652344zm0 0"/><path d="m326.632812 17.65625v48.550781c-.011718 1.480469-.160156 2.960938-.441406 4.414063-2.089844 10.285156-11.132812 17.675781-21.628906 17.675781s-19.539062-7.390625-21.625-17.675781c-.285156-1.453125-.429688-2.933594-.441406-4.414063v-48.550781c.027344-9.738281 7.914062-17.6289062 17.652344-17.65625h8.828124c9.75 0 17.65625 7.90625 17.65625 17.65625zm0 0"/><path d="m282.496094 26.484375v39.722656c-.011719 1.480469-.160156 2.960938-.441406 4.414063-1.816407 8.839844-8.835938 15.6875-17.722657 17.28125-8.882812 1.59375-17.84375-2.382813-22.621093-10.042969 1.703124-2.171875 3.019531-4.621094 3.882812-7.238281 1.0625-2.792969 1.601562-5.753906 1.589844-8.738282.023437-2.359374-.894532-4.625-2.554688-6.300781-1.65625-1.675781-3.914062-2.617187-6.273437-2.617187v-26.480469c.03125-9.738281 7.917969-17.628906 17.65625-17.65625h8.828125c9.738281.027344 17.625 7.917969 17.65625 17.65625zm0 0"/><path d="m238.355469 35.308594v26.484375c-.011719 1.480469-.15625 2.960937-.441407 4.414062-1.816406 8.84375-8.832031 15.6875-17.71875 17.28125-8.882812 1.59375-17.84375-2.382812-22.621093-10.042969 1.675781-2.117187 1.5-11.652343-3.355469-11.652343v-26.484375c.03125-9.738282 7.917969-17.625 17.65625-17.652344h8.828125c9.738281.027344 17.625 7.914062 17.652344 17.652344zm0 0"/></g><path d="m370.769531 123.585938v20.65625c.007813 9.367187-3.707031 18.355468-10.328125 24.984374l-5.824218 5.824219c-5.203126 5.191407-8.628907 11.898438-9.789063 19.15625-.351563 1.921875-.53125 3.871094-.53125 5.824219v20.660156c0 4.875-3.953125 8.824219-8.828125 8.824219h-114.765625c-4.875 0-8.828125-3.949219-8.828125-8.824219v-15.625c.019531-3.667968-.457031-7.320312-1.414062-10.859375-2.082032-8.5-6.699219-16.167969-13.242188-21.980469l-41.929688-37.695312c-3.84375-2.933594-7.003906-6.667969-9.261718-10.945312-3.125-5.421876-4.773438-11.570313-4.773438-17.832032 1.234375-8.023437 3.738282-15.800781 7.414063-23.039062 1.960937-4.363282 4.515625-8.433594 7.59375-12.09375 9.382812-11.054688 23.101562-17.496094 37.605469-17.65625h44.488281c2.359375 0 4.617187.941406 6.273437 2.617187 1.660156 1.675781 2.578125 3.941407 2.554688 6.300781.011718 2.984376-.527344 5.945313-1.589844 8.738282-.863281 2.617187-2.179688 5.066406-3.882812 7.238281-.695313.941406-1.460938 1.828125-2.292969 2.648437-.785157.78125-1.609375 1.519532-2.472657 2.207032-4.65625 3.589844-10.367187 5.542968-16.242187 5.5625h-17.65625c-9.5625.039062-17.375 7.652344-17.65625 17.210937-.035156 2.457031.917969 4.824219 2.648437 6.566407 1.726563 1.742187 4.085938 2.71875 6.542969 2.703124 8.457031.113282 16.597657 3.242188 22.949219 8.828126zm0 0" fill="#efc7a4"/><path d="m459.046875 300.136719v194.207031c-.03125 9.738281-7.917969 17.628906-17.65625 17.65625h-17.65625c9.742187-.027344 17.628906-7.917969 17.65625-17.65625v-194.207031zm0 0" fill="#535e68"/><path d="m459.046875 247.171875v52.964844h-17.65625v-52.964844c-.027344-9.738281-7.914063-17.625-17.65625-17.65625h17.65625c9.738281.03125 17.625 7.917969 17.65625 17.65625zm0 0" fill="#a9b0bb"/><path d="m370.769531 35.308594v30.898437c-.011719 1.480469-.15625 2.960938-.441406 4.414063-2.097656 10.277344-11.136719 17.65625-21.625 17.65625-3.039063-.03125-6.039063-.660156-8.828125-1.855469 6.613281-2.832031 11.40625-8.746094 12.808594-15.800781.277344-1.457032.421875-2.933594.433594-4.414063v-30.898437c.023437-8.015625-5.390626-15.03125-13.15625-17.035156 1.402343-.433594 2.863281-.640626 4.328124-.617188h8.828126c9.75 0 17.652343 7.902344 17.652343 17.652344zm0 0" fill="#d3a484"/><path d="m370.769531 123.585938v20.65625c.007813 9.367187-3.707031 18.355468-10.328125 24.984374l-5.824218 5.824219c-5.203126 5.191407-8.628907 11.898438-9.789063 19.15625-.351563 1.921875-.53125 3.871094-.53125 5.824219v20.660156c0 4.875-3.953125 8.824219-8.828125 8.824219h-17.664062c4.875 0 8.828124-3.949219 8.828124-8.824219v-20.660156c0-1.953125.179688-3.902344.53125-5.824219 1.160157-7.257812 4.589844-13.964843 9.796876-19.15625l5.828124-5.824219c6.617188-6.628906 10.332032-15.617187 10.328126-24.984374v-20.65625zm0 0" fill="#e3b692"/><path d="m134.113281 123.585938c-3.40625.066406-6.480469 2.050781-7.945312 5.121093-12.535157 23.957031-37.324219 38.984375-64.363281 39.015625-2.925782.023438-5.847657-.183594-8.738282-.617187 23.675782-2.882813 44.414063-17.246094 55.4375-38.398438 1.46875-3.070312 4.539063-5.054687 7.945313-5.121093zm0 0" fill="#515d68"/><path d="m134.113281 70.621094h-17.65625c-3.429687-.066406-6.515625-2.089844-7.945312-5.207032-10.59375-21.011718-30.945313-35.371093-54.289063-38.3125 2.894532-.425781 5.816406-.632812 8.738282-.617187 26.726562.015625 51.167968 15.066406 63.207031 38.929687 1.425781 3.117188 4.515625 5.140626 7.945312 5.207032zm0 0" fill="#515d68"/><path d="m432.484375 95.160156c.539063 7.339844-2 14.574219-7.007813 19.964844-5.007812 5.394531-12.035156 8.457031-19.394531 8.460938h-17.65625c7.359375-.003907 14.382813-3.070313 19.390625-8.460938 5.003906-5.394531 7.542969-12.625 7.003906-19.964844-1.515624-14.179687-13.628906-24.839844-27.886718-24.539062h17.65625c14.261718-.304688 26.378906 10.355468 27.894531 24.539062zm0 0" fill="#515d68"/><path d="m414.910156 406.070312c0 39-31.621094 70.621094-70.621094 70.621094-2.953124 0-5.898437-.175781-8.828124-.53125 35.394531-4.359375 61.988281-34.425781 61.988281-70.089844 0-35.664062-26.59375-65.734374-61.988281-70.09375 2.929687-.355468 5.875-.53125 8.828124-.527343 39 0 70.621094 31.617187 70.621094 70.621093zm0 0" fill="#d94452"/><path d="m114.769531 273.65625h-8.828125c-4.875 0-8.824218-3.953125-8.824218-8.828125s3.949218-8.828125 8.824218-8.828125h8.828125c4.875 0 8.828125 3.953125 8.828125 8.828125s-3.953125 8.828125-8.828125 8.828125zm0 0" fill="#d94452"/><path d="m158.910156 273.65625h-8.828125c-4.875 0-8.828125-3.953125-8.828125-8.828125s3.953125-8.828125 8.828125-8.828125h8.828125c4.875 0 8.824219 3.953125 8.824219 8.828125s-3.949219 8.828125-8.824219 8.828125zm0 0" fill="#f5b945"/><path d="m203.046875 273.65625h-8.828125c-4.875 0-8.828125-3.953125-8.828125-8.828125s3.953125-8.828125 8.828125-8.828125h8.828125c4.875 0 8.828125 3.953125 8.828125 8.828125s-3.953125 8.828125-8.828125 8.828125zm0 0" fill="#89c053"/><path d="m114.769531 344.277344h-8.828125c-4.875 0-8.824218-3.953125-8.824218-8.828125s3.949218-8.828125 8.824218-8.828125h8.828125c4.875 0 8.828125 3.953125 8.828125 8.828125s-3.953125 8.828125-8.828125 8.828125zm0 0" fill="#b4df80"/><path d="m194.21875 344.277344h-44.136719c-4.875 0-8.828125-3.953125-8.828125-8.828125s3.953125-8.828125 8.828125-8.828125h44.136719c4.875 0 8.828125 3.953125 8.828125 8.828125s-3.953125 8.828125-8.828125 8.828125zm0 0" fill="#eb5463"/><path d="m114.769531 379.585938h-8.828125c-4.875 0-8.824218-3.953126-8.824218-8.828126s3.949218-8.828124 8.824218-8.828124h8.828125c4.875 0 8.828125 3.953124 8.828125 8.828124s-3.953125 8.828126-8.828125 8.828126zm0 0" fill="#b4df80"/><path d="m194.21875 379.585938h-44.136719c-4.875 0-8.828125-3.953126-8.828125-8.828126s3.953125-8.828124 8.828125-8.828124h44.136719c4.875 0 8.828125 3.953124 8.828125 8.828124s-3.953125 8.828126-8.828125 8.828126zm0 0" fill="#eb5463"/><path d="m114.769531 414.898438h-8.828125c-4.875 0-8.824218-3.953126-8.824218-8.828126s3.949218-8.828124 8.824218-8.828124h8.828125c4.875 0 8.828125 3.953124 8.828125 8.828124s-3.953125 8.828126-8.828125 8.828126zm0 0" fill="#b4df80"/><path d="m194.21875 414.898438h-44.136719c-4.875 0-8.828125-3.953126-8.828125-8.828126s3.953125-8.828124 8.828125-8.828124h44.136719c4.875 0 8.828125 3.953124 8.828125 8.828124s-3.953125 8.828126-8.828125 8.828126zm0 0" fill="#eb5463"/><path d="m114.769531 450.207031h-8.828125c-4.875 0-8.824218-3.953125-8.824218-8.828125s3.949218-8.828125 8.824218-8.828125h8.828125c4.875 0 8.828125 3.953125 8.828125 8.828125s-3.953125 8.828125-8.828125 8.828125zm0 0" fill="#b4df80"/><path d="m194.21875 450.207031h-44.136719c-4.875 0-8.828125-3.953125-8.828125-8.828125s3.953125-8.828125 8.828125-8.828125h44.136719c4.875 0 8.828125 3.953125 8.828125 8.828125s-3.953125 8.828125-8.828125 8.828125zm0 0" fill="#eb5463"/><path d="m114.769531 485.515625h-8.828125c-4.875 0-8.824218-3.949219-8.824218-8.824219 0-4.878906 3.949218-8.828125 8.824218-8.828125h8.828125c4.875 0 8.828125 3.949219 8.828125 8.828125 0 4.875-3.953125 8.824219-8.828125 8.824219zm0 0" fill="#b4df80"/><path d="m194.21875 485.515625h-44.136719c-4.875 0-8.828125-3.949219-8.828125-8.824219 0-4.878906 3.953125-8.828125 8.828125-8.828125h44.136719c4.875 0 8.828125 3.949219 8.828125 8.828125 0 4.875-3.953125 8.824219-8.828125 8.824219zm0 0" fill="#eb5463"/><path d="m356.769531 406.070312 20.242188-20.242187c3.34375-3.464844 3.296875-8.96875-.109375-12.375-3.402344-3.40625-8.910156-3.453125-12.371094-.109375l-20.242188 20.242188-20.242187-20.242188c-3.464844-3.34375-8.96875-3.296875-12.375.109375s-3.453125 8.910156-.109375 12.375l20.242188 20.242187-20.242188 20.242188c-2.292969 2.214844-3.214844 5.496094-2.40625 8.582031.808594 3.085938 3.21875 5.496094 6.304688 6.304688 3.085937.808593 6.367187-.113281 8.585937-2.40625l20.242187-20.242188 20.242188 20.242188c3.460938 3.34375 8.96875 3.296875 12.371094-.109375 3.40625-3.402344 3.453125-8.910156.109375-12.371094zm0 0" fill="#fff"/><path d="m242.957031 142.390625c0 4.875-3.953125 8.824219-8.828125 8.824219s-8.828125-3.949219-8.828125-8.824219c.003907-7.050781-2.789062-13.8125-7.769531-18.804687h21.1875c2.824219 5.863281 4.273438 12.292968 4.238281 18.804687zm0 0" fill="#e3b692"/></svg>