<svg height="512pt" viewBox="0 0 512.00318 512" width="512pt" xmlns="http://www.w3.org/2000/svg"><path d="m265.558594 317.792969h-66.292969c-3.300781.035156-6.53125.949219-9.359375 2.648437l-123.40625 75.476563c-2.726562 1.71875-6.171875 1.8125-8.988281.253906-2.816407-1.5625-4.558594-4.535156-4.546875-7.757813v-52.964843c-.027344-9.738281-7.914063-17.625-17.65625-17.65625h-17.652344c-9.738281-.027344-17.6289062-7.914063-17.65625-17.652344v-282.484375c.0273438-9.738281 7.917969-17.625 17.65625-17.65625h370.757812c9.738282.03125 17.625 7.917969 17.65625 17.65625v247.878906zm0 0" fill="#9ed26a"/><path d="m335.449219 264.828125c-4.316407-12.210937-9.558594-24.074219-15.6875-35.484375-1.050781-2.632812-3.328125-4.578125-6.089844-5.210938l-66.5-21.097656h-88.273437l-66.472657 21.097656c-2.761719.632813-5.039062 2.578126-6.09375 5.210938-4.652343 11.371094-7.820312 23.300781-9.417969 35.484375zm0 0" fill="#ffd67b"/><path d="m467.863281 361.933594c.035157 50.609375-35.730469 94.175781-85.378906 103.996094-49.644531 9.816406-99.304687-16.851563-118.539063-63.664063-19.230468-46.8125-2.664062-100.691406 39.546876-128.609375 7.464843-5.085938 15.605468-9.097656 24.1875-11.917969 11.019531-3.800781 22.59375-5.742187 34.25-5.738281 58.503906 0 105.933593 47.429688 105.933593 105.933594zm0 0" fill="#66d4f1"/><path d="m453.234375 415.78125 51.023437 51.023438c10.328126 10.339843 10.328126 27.089843 0 37.429687-4.957031 4.972656-11.691406 7.765625-18.714843 7.765625-7.023438 0-13.753907-2.792969-18.714844-7.765625l-51.046875-51.023437zm0 0" fill="#a38671"/><path d="m241.285156 173.90625 5.886719 29.128906s-8.828125 26.484375-44.136719 26.484375c-35.3125 0-44.136718-26.484375-44.136718-26.484375l5.914062-29.128906zm0 0" fill="#937661"/><path d="m271.007812 121.894531c-.9375 1.710938-1.695312 3.253907-2.347656 4.542969-1.386718 2.957031-2.097656 6.183594-2.074218 9.445312 0 3.179688-1.230469 9.457032-11.777344 9.457032-.058594 7.046875-1.664063 13.996094-4.707032 20.355468-5.910156 6.777344-13.328124 12.074219-21.660156 15.457032-1.113281.503906-2.109375 1.234375-2.921875 2.144531-5.707031 6.539063-13.820312 10.476563-22.484375 10.910156-8.632812-.476562-16.710937-4.410156-22.414062-10.910156-.777344-.90625-1.742188-1.636719-2.824219-2.144531-8.351563-3.402344-15.800781-8.691406-21.761719-15.457032-2.984375-6.375-4.5625-13.316406-4.617187-20.355468-10.636719 0-11.863281-6.277344-11.773438-9.457032.03125-3.273437-.707031-6.507812-2.164062-9.445312-.566407-1.289062-1.410157-2.832031-2.355469-4.542969-7.53125-13.058593 2.074219-21.300781 11.476562-17.355469.035157 0-18.902343-69.226562 56.433594-69.226562 75.332032 0 56.425782 69.3125 56.425782 69.3125 9.4375-4.121094 19.136718 4.210938 11.546874 17.269531zm0 0" fill="#a38671"/><path d="m406.070312 17.65625v247.878906h-.089843c-8.398438-3.851562-17.273438-6.554687-26.394531-8.03125v-239.847656c-.027344-9.738281-7.917969-17.625-17.65625-17.65625h26.484374c9.738282.03125 17.625 7.917969 17.65625 17.65625zm0 0" fill="#89c053"/><path d="m504.230469 504.234375c-4.9375 5-11.683594 7.800781-18.714844 7.765625-3.164063.019531-6.308594-.550781-9.265625-1.675781 3.570312-1.28125 6.800781-3.363281 9.445312-6.089844 10.324219-10.339844 10.324219-27.089844 0-37.429687l-41.757812-41.753907 9.269531-9.269531 51.023438 51.023438c10.328125 10.339843 10.328125 27.089843 0 37.429687zm0 0" fill="#937661"/><path d="m327.679688 261.738281c-8.582032 2.820313-16.722657 6.832031-24.1875 11.917969h-250.527344c-4.875 0-8.828125-3.953125-8.828125-8.828125s3.953125-8.828125 8.828125-8.828125h266.503906c3.679688-.03125 6.976562 2.273438 8.210938 5.738281zm0 0" fill="#89c053"/><g fill="#8ae9ff"><path d="m263.203125 408.964844c-3.570313 0-6.789063-2.148438-8.152344-5.449219-1.367187-3.296875-.613281-7.09375 1.910157-9.617187l68.484374-68.476563c3.464844-3.34375 8.972657-3.296875 12.375.105469 3.40625 3.40625 3.453126 8.914062.109376 12.375l-68.484376 68.476562c-1.65625 1.65625-3.902343 2.585938-6.242187 2.585938zm0 0"/><path d="m354.390625 317.792969c-3.570313.003906-6.792969-2.144531-8.160156-5.445313-1.367188-3.296875-.613281-7.097656 1.910156-9.621094l17.03125-17.027343c3.460937-3.347657 8.96875-3.300781 12.375.105469 3.402344 3.40625 3.453125 8.910156.105469 12.375l-17.019532 17.027343c-1.65625 1.65625-3.898437 2.585938-6.242187 2.585938zm0 0"/><path d="m373.300781 435.078125c-3.570312 0-6.789062-2.152344-8.152343-5.449219-1.367188-3.296875-.613282-7.09375 1.910156-9.621094l57.378906-57.378906c3.449219-3.457031 9.046875-3.46875 12.507812-.019531 3.457032 3.445313 3.46875 9.042969.019532 12.503906l-57.378906 57.378907c-1.664063 1.664062-3.929688 2.597656-6.285157 2.585937zm0 0"/><path d="m317.183594 423.097656c-3.570313 0-6.789063-2.148437-8.152344-5.449218-1.367188-3.296876-.613281-7.09375 1.910156-9.617188l44.808594-44.773438c3.464844-3.347656 8.972656-3.296874 12.375.105469 3.40625 3.40625 3.453125 8.910157.109375 12.375l-44.773437 44.773438c-1.664063 1.664062-3.921876 2.597656-6.277344 2.585937zm0 0"/><path d="m384.652344 355.628906c-3.570313 0-6.785156-2.152344-8.152344-5.449218-1.367188-3.296876-.613281-7.09375 1.914062-9.617188l55.832032-55.84375c3.464844-3.347656 8.96875-3.296875 12.375.105469 3.40625 3.40625 3.453125 8.910156.109375 12.375l-55.835938 55.84375c-1.65625 1.65625-3.898437 2.585937-6.242187 2.585937zm0 0"/></g><path d="m35.308594 97.105469c-4.875 0-8.824219-3.953125-8.824219-8.828125v-44.136719c0-9.75 7.902344-17.65625 17.652344-17.65625h44.140625c4.875 0 8.824218 3.953125 8.824218 8.828125s-3.949218 8.828125-8.824218 8.828125h-44.140625v44.136719c0 4.875-3.949219 8.828125-8.828125 8.828125zm0 0" fill="#b4df80"/><path d="m370.757812 97.105469c-4.875 0-8.828124-3.953125-8.828124-8.828125v-44.136719h-44.136719c-4.875 0-8.828125-3.953125-8.828125-8.828125s3.953125-8.828125 8.828125-8.828125h44.136719c9.753906 0 17.65625 7.90625 17.65625 17.65625v44.136719c0 4.875-3.953126 8.828125-8.828126 8.828125zm0 0" fill="#b4df80"/><path d="m361.929688 476.691406c-50.636719.015625-95.296876-33.171875-109.886719-81.664062-14.585938-48.492188 4.34375-100.8125 46.585937-128.742188 8.125-5.523437 16.984375-9.878906 26.324219-12.933594 11.898437-4.09375 24.394531-6.179687 36.976563-6.175781 63.378906 0 114.761718 51.378907 114.761718 114.757813s-51.382812 114.757812-114.761718 114.757812zm0-211.863281c-10.679688.011719-21.289063 1.800781-31.378907 5.296875-7.832031 2.570312-15.257812 6.230469-22.070312 10.867188-40.117188 26.601562-54.664063 78.59375-34.179688 122.152343 20.488281 43.558594 69.808594 65.511719 115.882813 51.578125 46.074218-13.929687 74.96875-59.539062 67.886718-107.148437-7.085937-47.609375-48.003906-82.828125-96.140624-82.746094zm0 0" fill="#f5b945"/></svg>