<svg height="512pt" viewBox="0 -5 512.17101 512" width="512pt" xmlns="http://www.w3.org/2000/svg"><path d="m405.867188 228.902344c32.953124 98.222656-11.273438 205.730468-103.796876 252.335937-92.527343 46.605469-205.242187 18.144531-264.550781-66.800781-59.304687-84.941406-47.1875-200.5625 28.441407-271.363281 75.632812-70.800781 191.800781-75.273438 272.652343-10.496094 28.625 27.082031 51.441407 59.703125 67.0625 95.882813zm0 0" fill="#b3a4ee"/><path d="m419.925781 99.773438c-7.445312 8.460937-11.65625 19.28125-11.890625 30.546874v17.269532h-69.421875v-15.621094c-.289062-12.109375-4.734375-23.75-12.585937-32.976562-15.503906-19.203126-17.847656-45.882813-5.925782-67.496094 11.917969-21.613282 35.734376-33.867188 60.25-30.996094 28.277344 3.425781 50.441407 25.914062 53.457032 54.234375 1.648437 16.273437-3.359375 32.519531-13.882813 45.039063zm0 0" fill="#f5b945"/><path d="m408.035156 199.660156v26.03125c0 2.347656-.320312 4.683594-.953125 6.941406-2.757812 9.835938-10.996093 17.164063-21.089843 18.746094-1.316407.25-2.652344.363282-3.992188.347656h-17.355469c-14.355469-.054687-25.980469-11.679687-26.03125-26.035156v-26.03125zm0 0" fill="#e4e8eb"/><path d="m425.390625 156.269531c-.070313 9.554688-7.800781 17.285157-17.355469 17.355469h-69.421875c-9.574219-.027344-17.328125-7.78125-17.359375-17.355469-.007812-3.988281 1.375-7.855469 3.90625-10.933593.382813-.457032.789063-.890626 1.214844-1.304688 3.214844-3.296875 7.632812-5.144531 12.238281-5.117188h69.421875c9.574219.027344 17.328125 7.78125 17.355469 17.355469zm0 0" fill="#e4e8eb"/><path d="m425.390625 190.980469c-.070313 9.554687-7.800781 17.285156-17.355469 17.355469h-69.421875c-9.574219-.027344-17.328125-7.78125-17.359375-17.355469.074219-9.554688 7.800782-17.285157 17.359375-17.355469h69.421875c9.574219.027344 17.328125 7.78125 17.355469 17.355469zm0 0" fill="#cad0d7"/><path d="m419.925781 99.773438c-7.445312 8.460937-11.65625 19.28125-11.890625 30.546874v8.59375h-17.355468v-8.59375c.234374-11.265624 4.445312-22.085937 11.886718-30.546874 14.148438-16.863282 18.050782-40.066407 10.191406-60.628907-7.855468-20.5625-26.238281-35.253906-48.027343-38.386719 5.171875-.7812495 10.425781-.871093 15.621093-.257812 28.277344 3.425781 50.441407 25.914062 53.457032 54.234375 1.648437 16.273437-3.359375 32.519531-13.882813 45.039063zm0 0" fill="#e8aa3d"/><path d="m338.613281 132.578125v6.335937c-4.605469-.027343-9.023437 1.820313-12.238281 5.117188-.425781.414062-.832031.847656-1.214844 1.304688-3.992187-4.339844-8.242187-8.59375-12.582031-12.757813-33.363281-26.847656-74.238281-42.675781-116.980469-45.300781 51.65625-3.304688 102.679688 12.855468 143.015625 45.300781zm0 0" fill="#ac92ea"/><path d="m416.105469 310.996094c-8.027344 101.089844-87.453125 181.835937-188.398438 191.523437-10.734375.964844-21.527343 1.109375-32.28125.433594 2.082031-.085937 4.164063-.261719 6.246094-.433594 100.945313-9.6875 180.371094-90.433593 188.398437-191.523437 1.554688-19.964844.179688-40.050782-4.078124-59.617188 10.09375-1.582031 18.332031-8.910156 21.089843-18.746094 7.992188 25.304688 11.054688 51.90625 9.023438 78.363282zm0 0" fill="#ac92ea"/><path d="m408.035156 208.335938v17.355468c0 14.378906-11.65625 26.035156-26.035156 26.035156h-17.355469c14.378907 0 26.035157-11.65625 26.035157-26.035156v-17.355468zm0 0" fill="#cad0d7"/><path d="m425.390625 156.269531c-.070313 9.554688-7.800781 17.285157-17.355469 17.355469h-17.355468c9.554687-.070312 17.285156-7.800781 17.355468-17.355469-.027344-9.574219-7.78125-17.328125-17.355468-17.355469h17.355468c9.574219.027344 17.328125 7.78125 17.355469 17.355469zm0 0" fill="#cad0d7"/><path d="m425.390625 190.980469c-.070313 9.554687-7.800781 17.285156-17.355469 17.355469h-17.355468c9.554687-.070313 17.285156-7.800782 17.355468-17.355469-.027344-9.574219-7.78125-17.328125-17.355468-17.355469h17.355468c9.574219.027344 17.328125 7.78125 17.355469 17.355469zm0 0" fill="#bac1c6"/><path d="m393.34375 86.152344c-3.375 0-6.441406-1.957032-7.867188-5.011719-1.425781-3.058594-.949218-6.664063 1.21875-9.25 3.007813-3.632813 4.410157-8.328125 3.890626-13.015625-1.027344-7.890625-7.175782-14.140625-15.050782-15.289062-.734375-.089844-1.472656-.132813-2.210937-.132813-4.792969 0-8.679688-3.882813-8.679688-8.675781 0-4.792969 3.886719-8.679688 8.679688-8.679688 1.398437 0 2.800781.082032 4.191406.246094 12.632813 1.523438 23.417969 9.835938 28.109375 21.667969 4.6875 11.828125 2.53125 25.273437-5.625 35.039062-1.652344 1.96875-4.089844 3.101563-6.65625 3.101563zm0 0" fill="#ffd67b"/><path d="m247.492188 347.183594h-21.695313c-4.792969 0-8.675781-3.886719-8.675781-8.679688 0-4.789062 3.882812-8.675781 8.675781-8.675781h21.695313c7.191406 0 13.019531-5.828125 13.019531-13.015625 0-7.191406-5.828125-13.019531-13.019531-13.019531-16.773438 0-30.371094-13.597657-30.371094-30.371094 0-16.777344 13.597656-30.375 30.371094-30.375h13.019531c4.789062 0 8.675781 3.886719 8.675781 8.679687 0 4.792969-3.886719 8.675782-8.675781 8.675782h-13.019531c-7.1875 0-13.015626 5.828125-13.015626 13.019531 0 7.1875 5.828126 13.015625 13.015626 13.015625 16.773437 0 30.375 13.597656 30.375 30.375 0 16.773438-13.601563 30.371094-30.375 30.371094zm0 0" fill="#fff"/><path d="m169.390625 347.183594c-16.773437 0-30.371094-13.597656-30.371094-30.371094v-43.390625c0-16.777344 13.597657-30.375 30.371094-30.375s30.375 13.597656 30.375 30.375v43.390625c0 16.773438-13.601563 30.371094-30.375 30.371094zm0-86.78125c-7.1875 0-13.015625 5.828125-13.015625 13.019531v43.390625c0 7.1875 5.828125 13.015625 13.015625 13.015625 7.191406 0 13.019531-5.828125 13.019531-13.015625v-43.390625c0-7.191406-5.828125-13.019531-13.019531-13.019531zm0 0" fill="#fff"/><path d="m102.882812 277.101562c-.507812 0-1.015624-.046874-1.519531-.140624l-51.5625-9.121094c-4.804687-.847656-9.035156-3.664063-11.671875-7.765625-2.566406-3.988281-3.351562-8.867188-2.171875-13.460938 15.882813-60.699219 63.285157-108.101562 123.984375-123.980469 4.59375-1.1875 9.472656-.398437 13.460938 2.167969 4.101562 2.640625 6.914062 6.871094 7.765625 11.671875l9.121093 51.566406c.71875 4.664063-2.421874 9.046876-7.066406 9.867188-4.648437.820312-9.097656-2.222656-10.023437-6.847656l-9.109375-51.574219c-54.511719 14.359375-97.058594 56.972656-111.332032 111.503906l51.625 8.886719c4.4375.777344 7.539063 4.816406 7.148438 9.300781s-4.144531 7.925781-8.648438 7.925781zm0 0" fill="#cbc2ff"/><path d="m252.1875 467.609375c-3.277344-.003906-6.484375-.945313-9.242188-2.71875-4.101562-2.632813-6.917968-6.863281-7.765624-11.664063l-9.113282-51.570312c-.695312-4.65625 2.441406-9.015625 7.078125-9.832031 4.632813-.820313 9.074219 2.207031 10.007813 6.820312l9.113281 51.5625c54.503906-14.363281 97.046875-56.96875 111.328125-111.492187l-51.625-8.886719c-4.609375-.9375-7.636719-5.375-6.820312-10.011719.816406-4.632812 5.179687-7.773437 9.832031-7.074218l51.574219 9.109374c4.800781.851563 9.027343 3.667969 11.664062 7.769532 2.566406 3.992187 3.351562 8.871094 2.167969 13.464844-15.878907 60.695312-63.277344 108.09375-123.972657 123.976562-1.378906.359375-2.800781.542969-4.226562.546875zm0 0" fill="#cbc2ff"/><g fill="#f5b945"><path d="m277.867188 69.488281h-34.714844c-4.789063 0-8.675782-3.886719-8.675782-8.675781 0-4.792969 3.886719-8.679688 8.675782-8.679688h34.714844c4.792968 0 8.675781 3.886719 8.675781 8.679688 0 4.789062-3.882813 8.675781-8.675781 8.675781zm0 0"/><path d="m283.628906 36.832031c-1.011718.003907-2.015625-.175781-2.96875-.519531l-32.621094-11.863281c-2.96875-1.015625-5.160156-3.558594-5.726562-6.648438-.5625-3.089843.582031-6.242187 3.003906-8.246093 2.417969-2 5.730469-2.542969 8.660156-1.410157l32.609376 11.878907c3.949218 1.445312 6.292968 5.511718 5.5625 9.652343-.726563 4.140625-4.316407 7.164063-8.519532 7.175781zm0 0"/><path d="m503.492188 69.488281h-34.710938c-4.792969 0-8.679688-3.886719-8.679688-8.675781 0-4.792969 3.886719-8.679688 8.679688-8.679688h34.710938c4.792968 0 8.679687 3.886719 8.679687 8.679688 0 4.789062-3.886719 8.675781-8.679687 8.675781zm0 0"/><path d="m463.027344 36.832031c-4.179688-.050781-7.726563-3.070312-8.445313-7.1875-.714843-4.117187 1.605469-8.160156 5.519531-9.621093l32.621094-11.863282c2.9375-1.15625 6.269532-.628906 8.703125 1.378906 2.4375 2.007813 3.589844 5.179688 3.011719 8.28125-.578125 3.105469-2.792969 5.648438-5.785156 6.648438l-32.65625 11.84375c-.953125.34375-1.957032.523438-2.96875.519531zm0 0"/><path d="m495.683594 114.007812c-1.011719-.003906-2.019532-.183593-2.96875-.53125l-32.613282-11.878906c-2.96875-1.015625-5.160156-3.558594-5.726562-6.648437-.5625-3.089844.585938-6.242188 3.003906-8.246094 2.417969-2.003906 5.730469-2.542969 8.660156-1.410156l32.613282 11.859375c3.957031 1.4375 6.3125 5.511718 5.585937 9.660156-.730469 4.148438-4.335937 7.175781-8.546875 7.175781zm0 0"/></g></svg>