<svg height="511pt" viewBox="0 0 511 511.89514" width="511pt" xmlns="http://www.w3.org/2000/svg"><path d="m503.914062 264.429688v221.867187c-.03125 9.414063-7.652343 17.035156-17.066406 17.066406h-187.734375c-9.414062-.03125-17.039062-7.652343-17.066406-17.066406v-221.867187l8.53125-8.535157h204.800781zm0 0" fill="#636c77"/><path d="m230.847656 76.695312v204.800782l-34.136718 34.132812h-170.664063c-9.414063-.027344-17.039063-7.652344-17.066406-17.066406v-221.867188l8.53125-8.535156h204.800781zm0 0" fill="#636c77"/><path d="m230.847656 25.496094v51.199218h-221.867187v-51.199218c.027343-9.414063 7.652343-17.039063 17.066406-17.066406h187.734375c9.410156.027343 17.035156 7.652343 17.066406 17.066406zm0 0" fill="#cad0d7"/><path d="m316.179688 196.160156h170.667968c9.414063.03125 17.035156 7.65625 17.066406 17.066406v51.203126h-221.867187v-34.132813zm0 0" fill="#cad0d7"/><path d="m230.847656 76.695312v204.800782l-34.136718 34.132812h-17.066407l34.136719-34.132812v-204.800782zm0 0" fill="#535e68"/><path d="m230.847656 25.496094v51.199218h-17.066406v-51.199218c-.03125-9.414063-7.65625-17.039063-17.070312-17.066406h17.070312c9.410156.027343 17.035156 7.652343 17.066406 17.066406zm0 0" fill="#a9b0bb"/><path d="m503.914062 264.429688v221.867187c-.03125 9.414063-7.652343 17.035156-17.066406 17.066406v-238.933593zm0 0" fill="#535e68"/><path d="m503.914062 213.226562v51.203126h-17.066406v-51.203126c-.03125-9.410156-7.65625-17.035156-17.066406-17.066406h17.066406c9.414063.03125 17.035156 7.65625 17.066406 17.066406zm0 0" fill="#a9b0bb"/><path d="m51.644531 51.09375h-8.53125c-4.714843 0-8.535156-3.820312-8.535156-8.53125 0-4.714844 3.820313-8.535156 8.535156-8.535156h8.53125c4.714844 0 8.535157 3.820312 8.535157 8.535156 0 4.710938-3.820313 8.53125-8.535157 8.53125zm0 0" fill="#d94452"/><path d="m94.3125 51.09375h-8.53125c-4.714844 0-8.535156-3.820312-8.535156-8.53125 0-4.714844 3.820312-8.535156 8.535156-8.535156h8.53125c4.714844 0 8.535156 3.820312 8.535156 8.535156 0 4.710938-3.820312 8.53125-8.535156 8.53125zm0 0" fill="#89c053"/><g fill="#b4df80"><path d="m77.246094 187.628906c-2.261719 0-4.433594-.898437-6.03125-2.5l-34.136719-34.132812c-3.328125-3.332032-3.328125-8.734375 0-12.066406l34.136719-34.132813c3.347656-3.234375 8.667968-3.1875 11.960937.101563 3.289063 3.292968 3.335938 8.613281.101563 11.964843l-28.097656 28.097657 28.097656 28.101562c2.441406 2.441406 3.171875 6.109375 1.851562 9.296875-1.320312 3.1875-4.433594 5.269531-7.882812 5.269531zm0 0"/><path d="m162.578125 187.628906c-3.449219 0-6.558594-2.082031-7.878906-5.269531-1.324219-3.1875-.59375-6.855469 1.847656-9.296875l28.101563-28.101562-28.101563-28.097657c-3.234375-3.351562-3.1875-8.671875.101563-11.964843 3.292968-3.289063 8.617187-3.335938 11.964843-.101563l34.132813 34.132813c3.332031 3.332031 3.332031 8.734374 0 12.066406l-34.132813 34.132812c-1.601562 1.601563-3.769531 2.5-6.035156 2.5zm0 0"/><path d="m111.378906 187.628906c-.699218 0-1.394531-.089844-2.074218-.257812-4.570313-1.140625-7.351563-5.769532-6.210938-10.339844l17.066406-68.269531c.679688-3.019531 2.941406-5.433594 5.910156-6.308594s6.179688-.074219 8.390626 2.09375c2.210937 2.167969 3.074218 5.359375 2.253906 8.347656l-17.066406 68.265625c-.949219 3.796875-4.355469 6.464844-8.269532 6.46875zm0 0"/></g><path d="m119.914062 204.695312c-18.851562 0-34.132812 15.28125-34.132812 34.132813v42.667969c0 4.710937 3.820312 8.53125 8.53125 8.53125 4.714844 0 8.535156-3.820313 8.535156-8.53125v-17.066406h34.132813v17.066406c0 4.710937 3.820312 8.53125 8.53125 8.53125 4.714843 0 8.535156-3.820313 8.535156-8.53125v-42.667969c0-18.851563-15.28125-34.132813-34.132813-34.132813zm-17.066406 42.667969v-8.535156c0-9.425781 7.640625-17.066406 17.066406-17.066406 9.425782 0 17.066407 7.640625 17.066407 17.066406v8.535156zm0 0" fill="#f76c82"/><path d="m324.710938 238.828125h-8.53125c-4.714844 0-8.535157-3.820313-8.535157-8.53125 0-4.714844 3.820313-8.535156 8.535157-8.535156h8.53125c4.714843 0 8.535156 3.820312 8.535156 8.535156 0 4.710937-3.820313 8.53125-8.535156 8.53125zm0 0" fill="#d94452"/><path d="m367.378906 238.828125h-8.53125c-4.714844 0-8.535156-3.820313-8.535156-8.53125 0-4.714844 3.820312-8.535156 8.535156-8.535156h8.53125c4.714844 0 8.535156 3.820312 8.535156 8.535156 0 4.710937-3.820312 8.53125-8.535156 8.53125zm0 0" fill="#89c053"/><path d="m350.3125 375.363281c-2.261719-.003906-4.433594-.902343-6.03125-2.5l-34.136719-34.136719c-3.328125-3.332031-3.328125-8.730468 0-12.066406l34.136719-34.132812c3.347656-3.234375 8.667969-3.1875 11.960938.105468 3.292968 3.292969 3.335937 8.613282.105468 11.960938l-28.101562 28.101562 28.101562 28.101563c2.4375 2.4375 3.167969 6.109375 1.847656 9.296875-1.320312 3.1875-4.433593 5.265625-7.882812 5.269531zm0 0" fill="#b4df80"/><path d="m435.644531 375.363281c-3.449219-.003906-6.558593-2.082031-7.878906-5.269531s-.59375-6.859375 1.847656-9.296875l28.101563-28.101563-28.101563-28.101562c-3.234375-3.347656-3.1875-8.667969.105469-11.960938 3.289062-3.292968 8.613281-3.339843 11.960938-.105468l34.132812 34.132812c3.332031 3.335938 3.332031 8.734375 0 12.066406l-34.132812 34.136719c-1.601563 1.597657-3.769532 2.496094-6.035157 2.5zm0 0" fill="#b4df80"/><path d="m384.445312 375.363281c-.699218-.003906-1.394531-.089843-2.074218-.257812-4.570313-1.140625-7.351563-5.769531-6.210938-10.34375l17.066406-68.265625c.679688-3.019532 2.941407-5.433594 5.910157-6.3125 2.96875-.875 6.179687-.074219 8.390625 2.09375 2.210937 2.167968 3.074218 5.363281 2.253906 8.347656l-17.066406 68.269531c-.945313 3.796875-4.355469 6.460938-8.269532 6.46875zm0 0" fill="#b4df80"/><path d="m415.164062 430.582031c2.214844-3.816406 3.390626-8.144531 3.414063-12.554687 0-14.136719-11.460937-25.597656-25.597656-25.597656h-17.066407c-4.714843 0-8.535156 3.820312-8.535156 8.53125v68.265624c0 4.714844 3.820313 8.535157 8.535156 8.535157h25.597657c11.398437.027343 21.433593-7.5 24.601562-18.445313 3.167969-10.949218-1.296875-22.671875-10.949219-28.734375zm-30.71875-21.085937h8.535157c4.710937 0 8.53125 3.820312 8.53125 8.53125 0 4.714844-3.820313 8.535156-8.53125 8.535156h-8.535157zm17.066407 51.199218h-17.066407v-17.066406h17.066407c4.714843 0 8.535156 3.820313 8.535156 8.53125 0 4.714844-3.820313 8.535156-8.535156 8.535156zm0 0" fill="#66d4f1"/><path d="m8.980469 511.894531c-3.453125 0-6.5625-2.078125-7.882813-5.265625-1.320312-3.191406-.589844-6.859375 1.847656-9.300781l494.933594-494.933594c3.347656-3.234375 8.671875-3.1875 11.960938.105469 3.292968 3.289062 3.339844 8.613281.105468 11.960938l-494.933593 494.933593c-1.597657 1.601563-3.769531 2.5-6.03125 2.5zm0 0" fill="#457393"/></svg>