<svg height="512pt" viewBox="-18 0 512 512" width="512pt" xmlns="http://www.w3.org/2000/svg"><path d="m141.242188 388.414062h194.207031v61.792969h-194.207031zm0 0" fill="#a9b0bb"/><path d="m388.414062 512h-300.136718c-4.875 0-8.828125-3.953125-8.828125-8.828125v-26.480469l17.652343-8.828125h282.484376l17.65625 8.828125v26.480469c0 4.875-3.953126 8.828125-8.828126 8.828125zm0 0" fill="#a9b0bb"/><path d="m397.242188 476.691406-61.792969-44.140625h-194.207031l-61.792969 44.140625zm0 0" fill="#cad0d7"/><path d="m476.691406 335.449219v44.136719c0 14.625-11.859375 26.484374-26.484375 26.484374h-423.722656c-14.628906 0-26.484375-11.859374-26.484375-26.484374v-44.136719l8.828125-17.65625h459.035156zm0 0" fill="#cad0d7"/><path d="m476.691406 79.449219v256h-476.691406v-256c0-14.628907 11.855469-26.484375 26.484375-26.484375h423.722656c14.625 0 26.484375 11.855468 26.484375 26.484375zm0 0" fill="#4fc0e8"/><path d="m414.898438 335.449219v-13.417969c.035156-7.753906-5.027344-14.613281-12.449219-16.863281l-102.3125-31.511719h-123.585938l-102.3125 31.511719c-7.417969 2.25-12.480469 9.109375-12.445312 16.863281v13.417969zm0 0" fill="#ffd67b"/><path d="m293.429688 233.402344 6.707031 40.253906s-8.207031 26.480469-61.792969 26.480469c-53.582031 0-61.792969-26.480469-61.792969-26.480469l6.710938-40.253906zm0 0" fill="#efc7a4"/><path d="m331.742188 159.25c-1.324219 2.472656-2.472657 4.679688-3.269532 6.621094-1.964844 4.320312-2.960937 9.023437-2.910156 13.769531.085938 4.589844-1.589844 13.859375-16.15625 13.859375-.074219 10.226562-2.269531 20.328125-6.445312 29.660156-5.292969 9.710938-23.214844 19.332032-29.835938 22.6875-1.53125.691406-2.886719 1.71875-3.972656 3.003906-7.605469 9.371094-18.765625 15.160157-30.808594 15.976563-12.042969-.816406-23.203125-6.605469-30.808594-15.976563-1.082031-1.285156-2.441406-2.3125-3.972656-3.003906-6.617188-3.355468-24.628906-12.976562-29.835938-22.6875-4.175781-9.332031-6.371093-19.433594-6.445312-29.660156-14.5625 0-16.242188-9.269531-16.066406-13.859375-.023438-4.75-1.046875-9.441406-3-13.769531-.792969-1.941406-1.941406-4.148438-3.265625-6.621094-10.417969-19.066406 2.914062-31.160156 15.800781-25.335938h.089844l-1.058594-10.328124h157.128906l-1.058594 10.328124c12.976563-5.914062 26.304688 6.179688 15.890626 25.335938zm0 0" fill="#f4d0b5"/><path d="m326.621094 88.277344c-4.414063-30.015625-20.128906-67.796875-61.792969-76.625l-52.964844-.175782c-41.71875 8.648438-57.378906 46.609376-61.792969 76.800782zm0 0" fill="#f2a149"/><path d="m159.78125 123.585938h-18.539062c-9.738282-.027344-17.625-7.917969-17.65625-17.65625.074218-9.71875 7.933593-17.582032 17.65625-17.652344h194.207031c9.738281.027344 17.625 7.914062 17.652343 17.652344-.070312 9.722656-7.933593 17.585937-17.652343 17.65625zm0 0" fill="#fab153"/><path d="m220.691406 0h35.308594c4.875 0 8.828125 3.953125 8.828125 8.828125v79.449219h-52.964844v-79.449219c0-4.875 3.949219-8.828125 8.828125-8.828125zm0 0" fill="#ffba6e"/><path d="m317.792969 406.070312h17.65625v26.480469h-17.65625zm0 0" fill="#979faa"/><path d="m397.242188 476.691406v26.480469c0 4.875-3.953126 8.828125-8.828126 8.828125h-17.65625c4.875 0 8.828126-3.953125 8.828126-8.828125v-26.480469zm0 0" fill="#979faa"/><path d="m397.242188 476.691406h-17.65625l-61.792969-44.140625h17.65625zm0 0" fill="#a9b0bb"/><path d="m476.691406 79.449219v256h-17.65625v-256c0-14.628907-11.855468-26.484375-26.484375-26.484375h17.65625c14.625 0 26.484375 11.855468 26.484375 26.484375zm0 0" fill="#3aadd9"/><path d="m476.691406 335.449219v44.136719c0 14.625-11.859375 26.484374-26.484375 26.484374h-17.65625c14.628907 0 26.484375-11.859374 26.484375-26.484374v-44.136719zm0 0" fill="#a9b0bb"/><path d="m326.621094 88.277344h-17.65625c-3.707032-25.335938-15.535156-56.234375-44.136719-70.355469v-6.269531c41.664063 8.828125 57.378906 46.609375 61.792969 76.625zm0 0" fill="#e2903d"/><path d="m353.101562 105.929688c-.070312 9.722656-7.933593 17.585937-17.652343 17.65625h-17.65625c9.722656-.070313 17.582031-7.933594 17.65625-17.65625-.03125-9.738282-7.917969-17.625-17.65625-17.652344h17.65625c9.738281.027344 17.625 7.914062 17.652343 17.652344zm0 0" fill="#f2a149"/><path d="m264.828125 8.828125v79.449219h-17.65625v-79.449219c0-4.875-3.953125-8.828125-8.828125-8.828125h17.65625c4.875 0 8.828125 3.953125 8.828125 8.828125zm0 0" fill="#fab153"/><path d="m300.136719 273.65625s-8.207031 26.480469-61.792969 26.480469c-3 0-5.914062-.085938-8.648438-.261719 45.019532-2.914062 52.257813-26.21875 52.257813-26.21875l-4.945313-29.75c5.722657-3.101562 11.207032-6.613281 16.421876-10.503906zm0 0" fill="#e3b692"/><path d="m331.742188 159.25c-1.324219 2.472656-2.472657 4.679688-3.269532 6.621094-1.964844 4.320312-2.960937 9.023437-2.910156 13.769531.085938 4.589844-1.589844 13.859375-16.15625 13.859375-.074219 10.226562-2.269531 20.328125-6.445312 29.660156-2.488282 3.996094-5.726563 7.472656-9.53125 10.242188-5.214844 3.890625-10.699219 7.402344-16.421876 10.503906-1.5.707031-2.824218 1.414062-3.882812 1.941406-1.53125.691406-2.886719 1.71875-3.972656 3.003906-7.605469 9.371094-18.765625 15.160157-30.808594 15.976563-2.984375.003906-5.957031-.414063-8.828125-1.238281 8.558594-2.769532 16.171875-7.875 21.980469-14.738282 1.085937-1.285156 2.441406-2.3125 3.972656-3.003906 6.957031-3.457031 13.601562-7.5 19.863281-12.09375.128907-.136718.277344-.257812.441407-.351562 3.808593-2.769532 7.042968-6.246094 9.535156-10.242188 4.175781-9.332031 6.367187-19.433594 6.441406-29.660156 14.566406 0 16.246094-9.269531 16.15625-13.859375-.046875-4.746094.945312-9.449219 2.914062-13.769531.792969-1.941406 1.941407-4.148438 3.265626-6.621094 10.417968-19.15625-2.914063-31.25-15.890626-25.335938l1.058594-10.328124h17.65625l-1.058594 10.328124c12.976563-5.914062 26.304688 6.179688 15.890626 25.335938zm0 0" fill="#efc7a4"/><path d="m414.898438 322.03125v13.417969h-26.484376v-13.417969c.035157-7.753906-5.027343-14.613281-12.445312-16.863281l-79.980469-24.628907c1.785157-2.027343 3.191407-4.359374 4.148438-6.882812l102.3125 31.511719c7.421875 2.25 12.484375 9.109375 12.449219 16.863281zm0 0" fill="#fdcd56"/><path d="m256 379.585938h-35.308594c-4.878906 0-8.828125-3.953126-8.828125-8.828126s3.949219-8.828124 8.828125-8.828124h35.308594c4.875 0 8.828125 3.953124 8.828125 8.828124s-3.953125 8.828126-8.828125 8.828126zm0 0" fill="#a9b0bb"/></svg>