<svg height="512pt" viewBox="0 0 512.09701 512" width="512pt" xmlns="http://www.w3.org/2000/svg"><path d="m414.988281 362.023438v105.929687c0 24.375-71.140625 44.140625-158.898437 44.140625-87.753906 0-158.894532-19.765625-158.894532-44.140625v-105.929687zm0 0" fill="#457393"/><path d="m414.988281 362.023438c0-24.378907-71.140625-44.136719-158.898437-44.136719-87.753906 0-158.894532 19.757812-158.894532 44.136719 0 24.375 71.140626 44.136718 158.894532 44.136718 87.757812 0 158.898437-19.761718 158.898437-44.136718zm0 0" fill="#5e8faa"/><path d="m414.988281 203.125v97.105469c0 24.371093-71.140625 44.136719-158.898437 44.136719-87.753906 0-158.894532-19.765626-158.894532-44.136719v-97.105469zm0 0" fill="#457393"/><path d="m414.988281 203.125c0-24.375-71.140625-44.136719-158.898437-44.136719-87.753906 0-158.894532 19.761719-158.894532 44.136719 0 24.378906 71.140626 44.140625 158.894532 44.140625 87.757812 0 158.898437-19.761719 158.898437-44.140625zm0 0" fill="#5e8faa"/><path d="m414.988281 44.230469v97.101562c0 24.375-71.140625 44.140625-158.898437 44.140625-87.753906 0-158.894532-19.765625-158.894532-44.140625v-97.101562zm0 0" fill="#457393"/><path d="m414.988281 44.230469c0-24.378907-71.140625-44.136719-158.898437-44.136719-87.753906 0-158.894532 19.757812-158.894532 44.136719 0 24.375 71.140626 44.136719 158.894532 44.136719 87.757812 0 158.898437-19.761719 158.898437-44.136719zm0 0" fill="#5e8faa"/><path d="m512.003906 101.34375c-3.921875 50.976562-45.398437 90.9375-96.488281 92.957031-14.535156.105469-28.902344-3.09375-42.019531-9.359375-3.402344-1.6875-7.503906-1.054687-10.238282 1.589844l-317.085937 317.085938c-8.953125 9.371093-23.25 11.175781-34.253906 4.324218-6.648438-4.359375-10.976563-11.488281-11.78125-19.402344-.804688-7.914062 2-15.765624 7.632812-21.378906l317.972657-317.96875c2.613281-2.75 3.246093-6.832031 1.585937-10.242187-8.777344-18.394531-11.554687-39.082031-7.945313-59.144531 3.089844-17.078126 10.746094-33.003907 22.160157-46.078126 16.707031-19.304687 40.320312-31.285156 65.765625-33.371093 16.4375-1.316407 32.941406 1.601562 47.933594 8.476562 1.300781.597657 2.226562 1.796875 2.472656 3.207031.246094 1.410157-.214844 2.851563-1.238282 3.855469l-55.171874 55.171875c-3.421876 3.441406-3.421876 9.003906 0 12.445313l29.484374 29.484375c3.46875 3.445312 9.066407 3.445312 12.535157 0l54.289062-54.289063c1.027344-1.027343 2.496094-1.480469 3.921875-1.21875 1.429688.265625 2.636719 1.214844 3.230469 2.542969 5.390625 13.078125 7.859375 27.179688 7.238281 41.3125zm0 0" fill="#cad0d7"/><path d="m512.003906 101.34375c-3.921875 50.976562-45.398437 90.9375-96.488281 92.957031-4.722656.03125-9.445313-.292969-14.121094-.972656 45.855469-7.699219 80.582031-45.628906 84.214844-91.984375.398437-9.378906-.523437-18.769531-2.738281-27.894531l14.742187-14.742188c1.027344-1.027343 2.496094-1.480469 3.921875-1.21875 1.429688.265625 2.636719 1.214844 3.230469 2.542969 5.390625 13.078125 7.859375 27.179688 7.238281 41.3125zm0 0" fill="#a9b0bb"/><path d="m347.101562 184.941406c4.136719 1.972656 8.414063 3.625 12.800782 4.945313l-313.730469 313.730469c-8.636719 8.953124-22.199219 11.011718-33.105469 5.03125 2.472656-1.335938 4.734375-3.03125 6.710938-5.03125l317.085937-317.085938c2.734375-2.644531 6.835938-3.277344 10.238281-1.589844zm0 0" fill="#a9b0bb"/><g fill="#b4df80"><path d="m148.738281 456.355469c-.730469 0-1.457031-.09375-2.164062-.273438-3.101563-.777343-6.074219-1.59375-8.921875-2.445312-3.109375-.820313-5.523438-3.261719-6.308594-6.378907-.789062-3.113281.183594-6.410156 2.527344-8.605468 2.347656-2.195313 5.703125-2.941406 8.757812-1.949219 2.648438.777344 5.402344 1.539063 8.253906 2.261719 4.324219 1.082031 7.160157 5.21875 6.617188 9.644531-.546875 4.421875-4.304688 7.746094-8.761719 7.746094zm0 0"/><path d="m191.648438 464.175781c-.363282.003907-.730469-.019531-1.09375-.070312-2.976563-.371094-5.886719-.75-8.765626-1.15625-4.828124-.695313-8.179687-5.171875-7.484374-10 .691406-4.832031 5.171874-8.183594 10-7.488281 2.761718.40625 5.570312.777343 8.421874 1.128906 4.613282.589844 7.980469 4.65625 7.695313 9.296875-.28125 4.644531-4.121094 8.269531-8.773437 8.289062zm0 0"/><path d="m148.738281 288.628906c-.730469 0-1.457031-.089844-2.164062-.273437-3.101563-.773438-6.074219-1.589844-8.921875-2.445313-3.109375-.816406-5.523438-3.261718-6.308594-6.375-.789062-3.117187.183594-6.414062 2.527344-8.609375 2.347656-2.191406 5.703125-2.9375 8.757812-1.945312 2.648438.777343 5.402344 1.535156 8.253906 2.261719 4.324219 1.082031 7.160157 5.21875 6.617188 9.640624-.546875 4.425782-4.304688 7.746094-8.761719 7.746094zm0 0"/><path d="m148.738281 129.734375c-.730469 0-1.457031-.09375-2.164062-.273437-3.101563-.777344-6.074219-1.59375-8.921875-2.445313-3.109375-.820313-5.523438-3.261719-6.308594-6.378906-.789062-3.113281.183594-6.410157 2.527344-8.605469 2.347656-2.195312 5.703125-2.941406 8.757812-1.949219 2.648438.777344 5.402344 1.539063 8.253906 2.261719 4.324219 1.082031 7.160157 5.21875 6.617188 9.644531-.546875 4.421875-4.304688 7.746094-8.761719 7.746094zm0 0"/><path d="m191.648438 137.554688c-.363282.003906-.730469-.019532-1.09375-.070313-2.976563-.371094-5.886719-.75-8.765626-1.15625-3.125-.449219-5.769531-2.53125-6.941406-5.460937-1.175781-2.929688-.695312-6.261719 1.257813-8.742188 1.949219-2.480469 5.074219-3.734375 8.199219-3.285156 2.761718.40625 5.570312.777344 8.421874 1.132812 4.613282.585938 7.980469 4.652344 7.695313 9.292969-.28125 4.644531-4.121094 8.269531-8.773437 8.289063zm0 0"/></g><path d="m341.542969 33.726562c-4.304688 4.921876-8.09375 10.277344-11.300781 15.976563-24.53125-3.785156-49.328126-5.617187-74.152344-5.472656-30.527344-.351563-61.007813 2.550781-90.921875 8.652343-4.777344 1.023438-9.480469-2.019531-10.507813-6.800781-1.023437-4.777343 2.019532-9.480469 6.800782-10.503906 31.140624-6.296875 62.859374-9.3125 94.628906-9.003906 28.640625-.183594 57.242187 2.210937 85.453125 7.152343zm0 0" fill="#75a7bc"/><path d="m406.160156 150.160156c-2.339844 0-4.585937-.929687-6.242187-2.585937l-35.308594-35.308594c-3.347656-3.464844-3.296875-8.972656.105469-12.375 3.40625-3.40625 8.910156-3.453125 12.375-.109375l35.3125 35.3125c2.523437 2.523438 3.277344 6.320312 1.910156 9.617188-1.363281 3.296874-4.582031 5.449218-8.152344 5.449218zm0 0" fill="#636c77"/><path d="m370.847656 158.988281c-2.339844 0-4.585937-.929687-6.238281-2.585937l-8.828125-8.828125c-3.347656-3.464844-3.296875-8.96875.105469-12.375 3.40625-3.40625 8.914062-3.453125 12.375-.105469l8.828125 8.828125c2.523437 2.523437 3.28125 6.320313 1.914062 9.617187-1.367187 3.296876-4.585937 5.449219-8.15625 5.449219zm0 0" fill="#636c77"/></svg>