<svg height="512pt" viewBox="0 0 512 512.00586" width="512pt" xmlns="http://www.w3.org/2000/svg"><path d="m300.140625 185.730469v-123.9375l-61.792969-61.792969h-229.515625c-4.875 0-8.82812475 3.953125-8.82812475 8.828125v370.757813c0 4.875 3.95312475 8.828124 8.82812475 8.828124h273.652344c9.753906 0 17.65625-7.90625 17.65625-17.65625zm0 0" fill="#e4e8eb"/><path d="m238.347656 52.964844v-52.964844l61.792969 61.792969h-52.964844c-4.875 0-8.828125-3.953125-8.828125-8.828125zm0 0" fill="#cad0d7"/><path d="m432.554688 308.964844c0 68.253906-55.332032 123.585937-123.585938 123.585937s-123.585938-55.332031-123.585938-123.585937 55.332032-123.585938 123.585938-123.585938 123.585938 55.332032 123.585938 123.585938zm0 0" fill="#4fc0e8"/><path d="m413.046875 375.613281 91.1875 91.191407c10.328125 10.335937 10.328125 27.085937 0 37.425781-4.957031 4.972656-11.691406 7.769531-18.714844 7.769531-7.023437 0-13.753906-2.796875-18.714843-7.769531l-91.1875-91.1875zm0 0" fill="#a38671"/><path d="m406.515625 443.9375 37.425781-37.425781 24.980469 24.980469-37.425781 37.425781zm0 0" fill="#cad0d7"/><path d="m504.234375 504.230469c-7.867187 7.882812-19.828125 10-29.925781 5.296875 2.753906-1.335938 5.261718-3.125 7.414062-5.296875 10.328125-10.339844 10.328125-27.089844 0-37.425781l-79.886718-79.890626 11.210937-11.300781 91.1875 91.191407c10.328125 10.335937 10.328125 27.085937 0 37.425781zm0 0" fill="#937661"/><path d="m468.925781 431.492188-11.210937 11.300781-24.984375-24.984375 11.210937-11.296875zm0 0" fill="#a9b0bb"/><path d="m300.140625 61.792969v123.9375c-5.9375.375-11.839844 1.199219-17.65625 2.472656v-126.410156zm0 0" fill="#cad0d7"/><path d="m238.347656 0v17.65625l-17.65625-17.65625zm0 0" fill="#cad0d7"/><path d="m300.140625 61.792969h-17.65625l-44.136719-44.136719v-17.65625zm0 0" fill="#a9b0bb"/><path d="m44.140625 203.035156h17.65625c4.875 0 8.828125-3.953125 8.828125-8.828125s-3.953125-8.828125-8.828125-8.828125h-17.65625v-70.621094h17.65625c4.875 0 8.828125-3.953124 8.828125-8.828124s-3.953125-8.828126-8.828125-8.828126h-17.65625c-9.75 0-17.65625 7.90625-17.65625 17.65625v70.621094c0 9.75 7.90625 17.65625 17.65625 17.65625zm0 0" fill="#5e8faa"/><path d="m82.039062 173.964844c3.445313 3.445312 9.035157 3.445312 12.480469 0l11.414063-11.414063 11.414062 11.414063c3.464844 3.347656 8.96875 3.296875 12.375-.105469 3.40625-3.40625 3.453125-8.914063.109375-12.375l-11.414062-11.414063 11.414062-11.414062c3.34375-3.464844 3.296875-8.972656-.109375-12.375-3.40625-3.40625-8.910156-3.453125-12.375-.109375l-11.414062 11.414063-11.414063-11.414063c-3.464843-3.34375-8.96875-3.296875-12.375.109375-3.40625 3.402344-3.453125 8.910156-.105469 12.375l11.414063 11.414062-11.414063 11.414063c-3.449218 3.445313-3.449218 9.035156 0 12.480469zm0 0" fill="#9ed26a"/><g fill="#5e8faa"><path d="m176.554688 123.585938h79.449218c4.875 0 8.828125-3.953126 8.828125-8.828126s-3.953125-8.828124-8.828125-8.828124h-79.449218c-4.875 0-8.828126 3.953124-8.828126 8.828124s3.953126 8.828126 8.828126 8.828126zm0 0"/><path d="m256.003906 141.242188h-8.828125c-4.875 0-8.828125 3.953124-8.828125 8.828124s3.953125 8.828126 8.828125 8.828126h8.828125c4.875 0 8.828125-3.953126 8.828125-8.828126s-3.953125-8.828124-8.828125-8.828124zm0 0"/><path d="m211.863281 141.242188h-35.308593c-4.875 0-8.828126 3.953124-8.828126 8.828124s3.953126 8.828126 8.828126 8.828126h35.308593c4.878907 0 8.828125-3.953126 8.828125-8.828126s-3.949218-8.828124-8.828125-8.828124zm0 0"/><path d="m203.039062 176.550781h-26.484374c-4.875 0-8.828126 3.953125-8.828126 8.828125s3.953126 8.828125 8.828126 8.828125h26.484374c4.875 0 8.824219-3.953125 8.824219-8.828125s-3.949219-8.828125-8.824219-8.828125zm0 0"/><path d="m105.933594 317.792969h-61.792969v-70.621094h52.964844c4.875 0 8.828125-3.953125 8.828125-8.828125s-3.953125-8.828125-8.828125-8.828125h-52.964844c-9.75 0-17.65625 7.90625-17.65625 17.65625v70.621094c0 9.75 7.90625 17.65625 17.65625 17.65625h61.792969c4.875 0 8.828125-3.953125 8.828125-8.828125s-3.953125-8.828125-8.828125-8.828125zm0 0"/></g><path d="m126.175781 240.929688-37.898437 37.898437-11.414063-11.414063c-3.460937-3.34375-8.96875-3.296874-12.375.109376-3.402343 3.402343-3.453125 8.910156-.105469 12.371093l17.65625 17.65625c3.445313 3.445313 9.035157 3.445313 12.480469 0l44.136719-44.136719c3.347656-3.464843 3.300781-8.96875-.105469-12.375s-8.910156-3.453124-12.375-.109374zm0 0" fill="#9ed26a"/><path d="m201.976562 238.34375h-25.421874c-4.875 0-8.828126 3.953125-8.828126 8.828125s3.953126 8.828125 8.828126 8.828125h25.421874c4.875 0 8.828126-3.953125 8.828126-8.828125s-3.953126-8.828125-8.828126-8.828125zm0 0" fill="#5e8faa"/><path d="m188.207031 273.65625h-11.652343c-4.875 0-8.828126 3.949219-8.828126 8.828125 0 4.875 3.953126 8.824219 8.828126 8.824219h11.652343c4.875 0 8.828125-3.949219 8.828125-8.824219 0-4.878906-3.953125-8.828125-8.828125-8.828125zm0 0" fill="#5e8faa"/><path d="m185.734375 308.964844h-9.179687c-4.875 0-8.828126 3.953125-8.828126 8.828125s3.953126 8.828125 8.828126 8.828125h9.179687c4.875 0 8.828125-3.953125 8.828125-8.828125s-3.953125-8.828125-8.828125-8.828125zm0 0" fill="#5e8faa"/><path d="m193.769531 362.371094c-3.570312 0-6.789062-2.148438-8.15625-5.449219-1.363281-3.296875-.609375-7.09375 1.914063-9.617187l79.890625-79.890626c3.460937-3.34375 8.96875-3.296874 12.375.109376 3.402343 3.402343 3.453125 8.910156.105469 12.371093l-79.890626 79.890625c-1.652343 1.65625-3.898437 2.585938-6.238281 2.585938zm0 0" fill="#66d4f1"/><path d="m300.140625 256c-3.570313 0-6.789063-2.152344-8.152344-5.449219-1.367187-3.296875-.613281-7.09375 1.910157-9.621093l26.484374-26.480469c3.464844-3.347657 8.96875-3.296875 12.375.105469 3.40625 3.40625 3.453126 8.914062.105469 12.375l-26.480469 26.484374c-1.65625 1.65625-3.902343 2.585938-6.242187 2.585938zm0 0" fill="#66d4f1"/><path d="m313.382812 401.65625c-3.570312 0-6.789062-2.152344-8.15625-5.449219-1.363281-3.300781-.609374-7.097656 1.914063-9.621093l83.863281-83.863282c3.464844-3.34375 8.96875-3.296875 12.375.109375 3.402344 3.40625 3.453125 8.910157.105469 12.375l-83.859375 83.863281c-1.65625 1.652344-3.902344 2.585938-6.242188 2.585938zm0 0" fill="#66d4f1"/><path d="m251.589844 384c-3.570313 0-6.789063-2.152344-8.15625-5.449219-1.363282-3.296875-.609375-7.09375 1.914062-9.621093l57.378906-57.378907c3.464844-3.34375 8.96875-3.296875 12.375.109375s3.453126 8.910156.109376 12.375l-57.378907 57.378906c-1.65625 1.65625-3.902343 2.585938-6.242187 2.585938zm0 0" fill="#66d4f1"/><path d="m335.453125 300.136719c-3.570313 0-6.789063-2.148438-8.15625-5.449219-1.367187-3.296875-.609375-7.09375 1.914063-9.617188l65.148437-65.148437c3.460937-3.34375 8.96875-3.296875 12.371094.105469 3.40625 3.40625 3.453125 8.914062.109375 12.375l-65.148438 65.148437c-1.652344 1.65625-3.898437 2.585938-6.238281 2.585938zm0 0" fill="#66d4f1"/><path d="m308.96875 441.378906c-73.128906 0-132.414062-59.285156-132.414062-132.414062s59.285156-132.414063 132.414062-132.414063 132.414062 59.285157 132.414062 132.414063c-.082031 73.097656-59.320312 132.332031-132.414062 132.414062zm0-247.171875c-63.378906 0-114.757812 51.378907-114.757812 114.757813s51.378906 114.757812 114.757812 114.757812 114.757812-51.378906 114.757812-114.757812c-.074218-63.347656-51.410156-114.683594-114.757812-114.757813zm0 0" fill="#f5b945"/></svg>