<svg height="512pt" viewBox="0 0 512 512" width="512pt" xmlns="http://www.w3.org/2000/svg"><path d="m512 70.621094v423.722656c-.027344 9.738281-7.917969 17.628906-17.65625 17.65625h-476.6875c-9.738281-.027344-17.6289062-7.917969-17.65625-17.65625v-423.722656l8.828125-17.65625h476.6875zm0 0" fill="#e4e8eb"/><path d="m512 17.65625v52.964844h-512v-52.964844c.0273438-9.738281 7.917969-17.6289062 17.65625-17.65625h476.6875c9.738281.0273438 17.628906 7.917969 17.65625 17.65625zm0 0" fill="#a9b0bb"/><path d="m512 70.621094v423.722656c-.027344 9.738281-7.917969 17.628906-17.65625 17.65625h-26.480469c9.738281-.027344 17.625-7.917969 17.652344-17.65625v-423.722656zm0 0" fill="#cad0d7"/><path d="m512 17.65625v52.964844h-26.484375v-52.964844c-.027344-9.738281-7.914063-17.6289062-17.652344-17.65625h26.480469c9.738281.0273438 17.628906 7.917969 17.65625 17.65625zm0 0" fill="#99a1ad"/><path d="m44.136719 44.136719h-8.828125c-4.875 0-8.824219-3.949219-8.824219-8.828125 0-4.875 3.949219-8.824219 8.824219-8.824219h8.828125c4.875 0 8.828125 3.949219 8.828125 8.824219 0 4.878906-3.953125 8.828125-8.828125 8.828125zm0 0" fill="#d94452"/><path d="m88.277344 44.136719h-8.828125c-4.875 0-8.828125-3.949219-8.828125-8.828125 0-4.875 3.953125-8.824219 8.828125-8.824219h8.828125c4.875 0 8.824218 3.949219 8.824218 8.824219 0 4.878906-3.949218 8.828125-8.824218 8.828125zm0 0" fill="#ffd67b"/><path d="m132.414062 44.136719h-8.828124c-4.875 0-8.828126-3.949219-8.828126-8.828125 0-4.875 3.953126-8.824219 8.828126-8.824219h8.828124c4.875 0 8.828126 3.949219 8.828126 8.824219 0 4.878906-3.953126 8.828125-8.828126 8.828125zm0 0" fill="#b4df80"/><g fill="#4a88da"><path d="m76.074219 299.457031c3.300781 1.367188 7.097656.613281 9.625-1.914062l26.480469-26.484375c3.347656-3.460938 3.300781-8.96875-.105469-12.375-3.40625-3.402344-8.910157-3.453125-12.375-.105469l-9.65625 9.640625c10.546875-76.03125 71.382812-135.1875 147.679687-143.59375 76.296875-8.410156 148.554688 36.074219 175.410156 107.980469 1.054688 3.023437 3.660157 5.234375 6.8125 5.785156 3.148438.550781 6.351563-.644531 8.371094-3.128906 2.015625-2.480469 2.535156-5.863281 1.347656-8.835938-30.078124-80.398437-111.425781-129.632812-196.609374-118.988281-85.183594 10.644531-151.914063 78.378906-161.285157 163.710938l-12.5625-12.5625c-3.464843-3.34375-8.96875-3.296876-12.375.109374-3.40625 3.402344-3.453125 8.910157-.109375 12.375l26.484375 26.480469c.820313.820313 1.796875 1.46875 2.867188 1.90625zm0 0"/><path d="m465.277344 302.722656-26.484375-26.480468c-1.757813-1.742188-4.175781-2.652344-6.648438-2.507813-.140625 0-.265625-.070313-.40625-.0625-.664062.097656-1.316406.273437-1.941406.523437-.21875.070313-.449219.085938-.671875.175782-1.511719.574218-2.828125 1.566406-3.804688 2.859375l-25.492187 25.492187c-3.34375 3.464844-3.296875 8.972656.105469 12.375 3.40625 3.40625 8.914062 3.453125 12.375.109375l10.753906-10.742187c-6.265625 80.054687-68.421875 144.421875-148.207031 153.488281-79.785157 9.066406-154.796875-39.71875-178.863281-116.324219-.945313-3.011718-3.425782-5.285156-6.503907-5.96875-3.078125-.6875-6.289062.324219-8.421875 2.648438-2.132812 2.320312-2.863281 5.605468-1.917968 8.617187 26.734374 85.148438 110.382812 139.136719 198.984374 128.421875 88.605469-10.710937 156.976563-83.078125 162.644532-172.148437l12.015625 12.015625c3.464843 3.347656 8.96875 3.296875 12.375-.105469 3.40625-3.40625 3.453125-8.914063.109375-12.375zm0 0"/><path d="m294.558594 173.964844-.316406-.113282c-24.839844-8.167968-51.644532-8.167968-76.484376 0-.121093 0-.21875.085938-.34375.121094-40.195312 13.328125-70.804687 46.261719-81.160156 87.324219-.097656.230469-.105468.484375-.183594.722656-4.871093 19.21875-4.871093 39.347657 0 58.5625.046876.246094.109376.488281.183594.722657 10.351563 41.039062 40.921875 73.957031 81.082032 87.304687.15625 0 .300781.125.457031.160156 24.820312 8.15625 51.59375 8.15625 76.414062 0 .15625 0 .300781-.113281.457031-.160156 40.160157-13.347656 70.730469-46.265625 81.082032-87.304687.105468-.226563.105468-.492188.195312-.730469 4.859375-19.210938 4.859375-39.332031 0-58.546875-.050781-.246094-.117187-.492188-.195312-.730469-10.359375-41.070313-40.980469-74.007813-81.1875-87.332031zm-29.730469 222.828125v-70.171875h41.640625c-2.898438 23.128906-9.863281 45.558594-20.578125 66.257812-6.871094 2.019532-13.925781 3.332032-21.0625 3.914063zm-38.71875-3.914063c-10.714844-20.699218-17.679687-43.128906-20.578125-66.257812h41.640625v70.171875c-7.136719-.582031-14.191406-1.894531-21.0625-3.914063zm-76.039063-101.570312c.035157-5.917969.570313-11.824219 1.597657-17.652344h34.3125c-.371094 5.832031-.601563 11.714844-.601563 17.652344 0 5.941406.230469 11.820312.601563 17.65625h-34.3125c-1.027344-5.828125-1.5625-11.734375-1.597657-17.65625zm52.964844 0c0-5.957032.265625-11.828125.652344-17.652344h43.484375v35.308594h-43.484375c-.386719-5.824219-.652344-11.695313-.652344-17.65625zm44.136719-105.480469v70.171875h-41.640625c2.898438-23.128906 9.863281-45.558594 20.578125-66.261719 6.871094-2.015625 13.925781-3.328125 21.0625-3.910156zm38.71875 3.910156c10.714844 20.703125 17.679687 43.132813 20.578125 66.261719h-41.640625v-70.171875c7.136719.582031 14.191406 1.894531 21.0625 3.910156zm-21.0625 119.226563v-35.308594h43.484375c.386719 5.824219.652344 11.695312.652344 17.652344 0 5.960937-.265625 11.832031-.652344 17.65625zm61.191406-35.308594h34.3125c2.132813 11.671875 2.132813 23.636719 0 35.308594h-34.3125c.371094-5.835938.601563-11.714844.601563-17.65625 0-5.9375-.230469-11.820313-.601563-17.652344zm29.730469-17.65625h-31.460938c-2.34375-18.984375-7.023437-37.609375-13.9375-55.445312 21.097657 12.667968 37.140626 32.265624 45.398438 55.445312zm-154.101562-55.445312c-6.914063 17.835937-11.59375 36.460937-13.9375 55.445312h-31.460938c8.257812-23.179688 24.300781-42.777344 45.398438-55.445312zm-45.398438 126.066406h31.460938c2.347656 18.984375 7.027343 37.605468 13.9375 55.445312-21.097657-12.667968-37.140626-32.265625-45.398438-55.445312zm154.101562 55.445312c6.910157-17.839844 11.589844-36.460937 13.9375-55.445312h31.460938c-8.257812 23.179687-24.300781 42.777344-45.398438 55.445312zm0 0"/></g></svg>