<svg height="511pt" viewBox="0 -4 511.97026 511" width="511pt" xmlns="http://www.w3.org/2000/svg"><path d="m347.117188 451.738281h-329.761719c-9.574219-.027343-17.3281252-7.78125-17.355469-17.355469v-416.542968c.0273438-9.574219 7.78125-17.324219 17.355469-17.355469h312.40625c9.574219.03125 17.328125 7.78125 17.355469 17.355469zm0 0" fill="#e4e8eb"/><path d="m407.863281 434.382812v-364.472656c0-9.585937-7.769531-17.355468-17.355469-17.355468h-312.40625c-9.585937 0-17.355468 7.769531-17.355468 17.355468v416.542969c0 9.582031 7.769531 17.355469 17.355468 17.355469h260.339844zm0 0" fill="#cad0d7"/><path d="m407.863281 434.382812h-52.066406c-9.574219.027344-17.328125 7.78125-17.355469 17.355469v52.070313zm0 0" fill="#a9b0bb"/><path d="m493.167969 88.738281c-13.574219-13.535156-35.542969-13.535156-49.117188 0l-6.855469 6.855469-5.378906 5.46875-41.308594 41.308594-92.507812 92.417968-20.566406 40.789063-17.789063 35.058594c-1.730469 3.335937-1.101562 7.410156 1.558594 10.070312 2.660156 2.65625 6.734375 3.289063 10.070313 1.558594l35.058593-17.792969 40.785157-20.566406 60.746093-60.746094 66.128907-66.210937 12.234374-12.234375 6.941407-6.859375c13.535156-13.574219 13.535156-35.539063 0-49.117188zm0 0" fill="#5e9cea"/><path d="m306.332031 304.472656-35.058593 17.792969c-.101563.066406-.226563.097656-.347657.085937-2.925781 1.417969-6.402343 1.035157-8.953125-.976562-2.546875-2.015625-3.722656-5.308594-3.023437-8.484375.082031-.789063.320312-1.554687.695312-2.253906l17.789063-35.058594zm0 0" fill="#3977bc"/><path d="m347.117188 283.90625-40.785157 20.566406-28.898437-28.894531 20.566406-40.789063zm0 0" fill="#4a88da"/><path d="m338.441406 503.808594v-17.355469l-17.355468 17.355469zm0 0" fill="#a9b0bb"/><path d="m407.863281 434.382812h-17.355469l-52.066406 52.070313v17.355469zm0 0" fill="#969eaa"/><path d="m407.863281 223.160156v211.222656h-17.355469v-193.863281zm0 0" fill="#a9b0bb"/><path d="m407.863281 69.910156v55.105469l-17.355469 17.355469v-72.460938c-.027343-9.574218-7.78125-17.328125-17.355468-17.355468h17.355468c9.574219.027343 17.328126 7.78125 17.355469 17.355468zm0 0" fill="#a9b0bb"/><path d="m493.167969 137.855469-6.941407 6.859375-12.234374 12.234375-66.128907 66.210937-60.746093 60.746094-13.015626-13.015625 60.746094-60.746094 66.125-66.210937 12.238282-12.238282 6.941406-6.855468c11.054687-11.03125 13.332031-28.109375 5.554687-41.652344 2.757813 1.457031 5.273438 3.328125 7.460938 5.550781 13.535156 13.578125 13.535156 35.542969 0 49.117188zm0 0" fill="#4a88da"/><path d="m306.332031 304.472656-35.058593 17.792969c-3.335938 1.730469-7.410157 1.097656-10.070313-1.558594-2.660156-2.660156-3.289063-6.734375-1.558594-10.070312l1.390625-2.777344 32.28125-16.402344zm0 0" fill="#3070aa"/><path d="m347.117188 283.90625-40.785157 20.566406-13.015625-13.015625 40.785156-20.566406zm0 0" fill="#3977bc"/><path d="m347.117188 17.839844v34.714844h-17.355469v-34.714844c-.027344-9.574219-7.78125-17.324219-17.355469-17.355469h17.355469c9.574219.03125 17.328125 7.78125 17.355469 17.355469zm0 0" fill="#cad0d7"/><g fill="#3977bc"><path d="m355.796875 121.976562h-242.984375c-4.792969 0-8.675781-3.886718-8.675781-8.679687 0-4.789063 3.882812-8.675781 8.675781-8.675781h242.984375c4.792969 0 8.675781 3.886718 8.675781 8.675781 0 4.792969-3.882812 8.679687-8.675781 8.679687zm0 0"/><path d="m234.304688 260.824219h-121.492188c-4.792969 0-8.675781-3.886719-8.675781-8.679688s3.882812-8.675781 8.675781-8.675781h121.492188c4.792968 0 8.679687 3.882812 8.679687 8.675781s-3.886719 8.679688-8.679687 8.679688zm0 0"/><path d="m234.304688 295.535156h-121.492188c-4.792969 0-8.675781-3.882812-8.675781-8.675781s3.882812-8.679687 8.675781-8.679687h121.492188c4.792968 0 8.679687 3.886718 8.679687 8.679687s-3.886719 8.675781-8.679687 8.675781zm0 0"/><path d="m270.925781 322.351562c-.371093 4.46875-4.109375 7.902344-8.589843 7.894532h-149.523438c-4.792969 0-8.675781-3.882813-8.675781-8.675782 0-4.792968 3.882812-8.679687 8.675781-8.679687h146.136719c-.699219 3.175781.476562 6.46875 3.023437 8.484375 2.550782 2.011719 6.027344 2.394531 8.953125.976562zm0 0"/><path d="m277.695312 156.6875h-164.882812c-4.792969 0-8.675781-3.882812-8.675781-8.675781s3.882812-8.679688 8.675781-8.679688h164.882812c4.792969 0 8.675782 3.886719 8.675782 8.679688s-3.882813 8.675781-8.675782 8.675781zm0 0"/><path d="m338.441406 156.6875h-26.035156c-4.792969 0-8.675781-3.882812-8.675781-8.675781s3.882812-8.679688 8.675781-8.679688h26.035156c4.792969 0 8.675782 3.886719 8.675782 8.679688s-3.882813 8.675781-8.675782 8.675781zm0 0"/><path d="m260.339844 191.398438h-147.527344c-4.792969 0-8.675781-3.882813-8.675781-8.675782 0-4.792968 3.882812-8.679687 8.675781-8.679687h147.527344c4.792968 0 8.675781 3.886719 8.675781 8.679687 0 4.792969-3.882813 8.675782-8.675781 8.675782zm0 0"/><path d="m303.730469 191.398438h-8.679688c-4.792969 0-8.679687-3.882813-8.679687-8.675782 0-4.792968 3.886718-8.679687 8.679687-8.679687h8.679688c4.792969 0 8.675781 3.886719 8.675781 8.679687 0 4.792969-3.882812 8.675782-8.675781 8.675782zm0 0"/><path d="m260.339844 226.113281h-104.136719c-4.792969 0-8.675781-3.886719-8.675781-8.679687 0-4.792969 3.882812-8.675782 8.675781-8.675782h104.136719c4.792968 0 8.675781 3.882813 8.675781 8.675782 0 4.792968-3.882813 8.679687-8.675781 8.679687zm0 0"/><path d="m121.492188 226.113281h-8.679688c-4.792969 0-8.675781-3.886719-8.675781-8.679687 0-4.792969 3.882812-8.675782 8.675781-8.675782h8.679688c4.792968 0 8.675781 3.882813 8.675781 8.675782 0 4.792968-3.882813 8.679687-8.675781 8.679687zm0 0"/></g><path d="m506.878906 189.925781-41.566406 41.566407c-3.382812 3.363281-8.851562 3.363281-12.234375 0-3.367187-3.382813-3.367187-8.851563 0-12.234376l41.566406-41.65625-69.683593-69.683593 6.855468-6.855469 5.378906-5.46875 49.03125 49.121094 20.652344 20.652344c3.261719 3.253906 5.089844 7.671874 5.089844 12.277343 0 4.609375-1.828125 9.023438-5.089844 12.28125zm0 0" fill="#365972"/></svg>